# Tiled2Unity generated file. Do not modify by hand.
# Wavefront file for 'Pantry_mesh_0008.obj'

# Vertices (Count = 64)
v -10.24 -7.68 0
v -10.88 -7.68 0
v -10.88 -7.04 0
v -10.24 -7.04 0
v -10.88 -7.68 0
v -11.52 -7.68 0
v -11.52 -7.04 0
v -10.88 -7.04 0
v -10.24 -8.32 0
v -10.88 -8.32 0
v -10.88 -7.68 0
v -10.24 -7.68 0
v -10.88 -8.32 0
v -11.52 -8.32 0
v -11.52 -7.68 0
v -10.88 -7.68 0
v -3.84 -14.08 0
v -4.48 -14.08 0
v -4.48 -13.44 0
v -3.84 -13.44 0
v -4.48 -14.08 0
v -5.12 -14.08 0
v -5.12 -13.44 0
v -4.48 -13.44 0
v -3.84 -14.72 0
v -4.48 -14.72 0
v -4.48 -14.08 0
v -3.84 -14.08 0
v -4.48 -14.72 0
v -5.12 -14.72 0
v -5.12 -14.08 0
v -4.48 -14.08 0
v -9.599999 -21.12 0
v -10.24 -21.12 0
v -10.24 -20.48 0
v -9.599999 -20.48 0
v -10.24 -21.12 0
v -10.88 -21.12 0
v -10.88 -20.48 0
v -10.24 -20.48 0
v -10.88 -21.12 0
v -11.52 -21.12 0
v -11.52 -20.48 0
v -10.88 -20.48 0
v -11.52 -21.12 0
v -12.16 -21.12 0
v -12.16 -20.48 0
v -11.52 -20.48 0
v -9.599999 -21.76 0
v -10.24 -21.76 0
v -10.24 -21.12 0
v -9.599999 -21.12 0
v -10.24 -21.76 0
v -10.88 -21.76 0
v -10.88 -21.12 0
v -10.24 -21.12 0
v -10.88 -21.76 0
v -11.52 -21.76 0
v -11.52 -21.12 0
v -10.88 -21.12 0
v -11.52 -21.76 0
v -12.16 -21.76 0
v -12.16 -21.12 0
v -11.52 -21.12 0

# Texture cooridinates (Count = 27)
vt 0.8 0.75
vt 0.9 0.75
vt 0.9 0.875
vt 0.8 0.875
vt 1 0.75
vt 1 0.875
vt 0.8 0.625
vt 0.9 0.625
vt 1 0.625
vt 0.8 0.25
vt 0.9 0.25
vt 0.9 0.375
vt 0.8 0.375
vt 1 0.25
vt 1 0.375
vt 0.8 0.125
vt 0.9 0.125
vt 1 0.125
vt 0.4 0.375
vt 0.5 0.375
vt 0.5 0.5
vt 0.4 0.5
vt 0.6 0.375
vt 0.6 0.5
vt 0.4 0.25
vt 0.5 0.25
vt 0.6 0.25

# Normal
vn 0 0 -1

# Mesh description
g Pantry_mesh_0008

# Faces
f 1/1/1 2/2/1 3/3/1 4/4/1
f 5/2/1 6/5/1 7/6/1 8/3/1
f 9/7/1 10/8/1 11/2/1 12/1/1
f 13/8/1 14/9/1 15/5/1 16/2/1
f 17/10/1 18/11/1 19/12/1 20/13/1
f 21/11/1 22/14/1 23/15/1 24/12/1
f 25/16/1 26/17/1 27/11/1 28/10/1
f 29/17/1 30/18/1 31/14/1 32/11/1
f 33/19/1 34/20/1 35/21/1 36/22/1
f 37/20/1 38/23/1 39/24/1 40/21/1
f 41/10/1 42/11/1 43/12/1 44/13/1
f 45/11/1 46/14/1 47/15/1 48/12/1
f 49/25/1 50/26/1 51/20/1 52/19/1
f 53/26/1 54/27/1 55/23/1 56/20/1
f 57/16/1 58/17/1 59/11/1 60/10/1
f 61/17/1 62/18/1 63/14/1 64/11/1

