# Tiled2Unity generated file. Do not modify by hand.
# Wavefront file for 'Ground_mesh_0018.obj'

# Vertices (Count = 76)
v -25.6 -9.599999 0
v -26.24 -9.599999 0
v -26.24 -8.96 0
v -25.6 -8.96 0
v -26.24 -9.599999 0
v -26.88 -9.599999 0
v -26.88 -8.96 0
v -26.24 -8.96 0
v -26.88 -9.599999 0
v -27.52 -9.599999 0
v -27.52 -8.96 0
v -26.88 -8.96 0
v -27.52 -9.599999 0
v -28.16 -9.599999 0
v -28.16 -8.96 0
v -27.52 -8.96 0
v -26.24 -10.24 0
v -26.88 -10.24 0
v -26.88 -9.599999 0
v -26.24 -9.599999 0
v -26.88 -10.24 0
v -27.52 -10.24 0
v -27.52 -9.599999 0
v -26.88 -9.599999 0
v -26.24 -10.88 0
v -26.88 -10.88 0
v -26.88 -10.24 0
v -26.24 -10.24 0
v -26.88 -10.88 0
v -27.52 -10.88 0
v -27.52 -10.24 0
v -26.88 -10.24 0
v -27.52 -10.88 0
v -28.16 -10.88 0
v -28.16 -10.24 0
v -27.52 -10.24 0
v -26.24 -11.52 0
v -26.88 -11.52 0
v -26.88 -10.88 0
v -26.24 -10.88 0
v -26.88 -11.52 0
v -27.52 -11.52 0
v -27.52 -10.88 0
v -26.88 -10.88 0
v -26.24 -12.16 0
v -26.88 -12.16 0
v -26.88 -11.52 0
v -26.24 -11.52 0
v -26.88 -12.16 0
v -27.52 -12.16 0
v -27.52 -11.52 0
v -26.88 -11.52 0
v -25.6 -12.8 0
v -26.24 -12.8 0
v -26.24 -12.16 0
v -25.6 -12.16 0
v -26.24 -12.8 0
v -26.88 -12.8 0
v -26.88 -12.16 0
v -26.24 -12.16 0
v -25.6 -13.44 0
v -26.24 -13.44 0
v -26.24 -12.8 0
v -25.6 -12.8 0
v -26.24 -13.44 0
v -26.88 -13.44 0
v -26.88 -12.8 0
v -26.24 -12.8 0
v -26.88 -13.44 0
v -27.52 -13.44 0
v -27.52 -12.8 0
v -26.88 -12.8 0
v -27.52 -13.44 0
v -28.16 -13.44 0
v -28.16 -12.8 0
v -27.52 -12.8 0

# Texture cooridinates (Count = 30)
vt 0.375 0.96875
vt 0.40625 0.96875
vt 0.40625 1
vt 0.375 1
vt 0.4375 0.96875
vt 0.4375 1
vt 0.4375 0.71875
vt 0.46875 0.71875
vt 0.46875 0.75
vt 0.4375 0.75
vt 0.5 0.71875
vt 0.5 0.75
vt 0.4375 0.6875
vt 0.46875 0.6875
vt 0.375 0.84375
vt 0.40625 0.84375
vt 0.40625 0.875
vt 0.375 0.875
vt 0.4375 0.84375
vt 0.4375 0.875
vt 0.5625 0.71875
vt 0.59375 0.71875
vt 0.59375 0.75
vt 0.5625 0.75
vt 0.625 0.71875
vt 0.625 0.75
vt 0.3125 0.84375
vt 0.34375 0.84375
vt 0.34375 0.875
vt 0.3125 0.875

# Normal
vn 0 0 -1

# Mesh description
g Ground_mesh_0018

# Faces
f 1/1/1 2/2/1 3/3/1 4/4/1
f 5/2/1 6/5/1 7/6/1 8/3/1
f 9/1/1 10/2/1 11/3/1 12/4/1
f 13/2/1 14/5/1 15/6/1 16/3/1
f 17/7/1 18/8/1 19/9/1 20/10/1
f 21/8/1 22/11/1 23/12/1 24/9/1
f 25/13/1 26/14/1 27/8/1 28/7/1
f 29/15/1 30/16/1 31/17/1 32/18/1
f 33/16/1 34/19/1 35/20/1 36/17/1
f 37/21/1 38/22/1 39/23/1 40/24/1
f 41/22/1 42/25/1 43/26/1 44/23/1
f 45/21/1 46/22/1 47/23/1 48/24/1
f 49/22/1 50/25/1 51/26/1 52/23/1
f 53/27/1 54/28/1 55/29/1 56/30/1
f 57/28/1 58/15/1 59/18/1 60/29/1
f 61/1/1 62/2/1 63/3/1 64/4/1
f 65/2/1 66/5/1 67/6/1 68/3/1
f 69/1/1 70/2/1 71/3/1 72/4/1
f 73/2/1 74/5/1 75/6/1 76/3/1

