# Tiled2Unity generated file. Do not modify by hand.
# Wavefront file for 'Ground_mesh_0008.obj'

# Vertices (Count = 136)
v -22.4 -23.04 0
v -23.04 -23.04 0
v -23.04 -22.4 0
v -22.4 -22.4 0
v -24.32 -23.04 0
v -24.96 -23.04 0
v -24.96 -22.4 0
v -24.32 -22.4 0
v -22.4 -23.68 0
v -23.04 -23.68 0
v -23.04 -23.04 0
v -22.4 -23.04 0
v -23.04 -23.68 0
v -23.68 -23.68 0
v -23.68 -23.04 0
v -23.04 -23.04 0
v -23.68 -23.68 0
v -24.32 -23.68 0
v -24.32 -23.04 0
v -23.68 -23.04 0
v -24.32 -23.68 0
v -24.96 -23.68 0
v -24.96 -23.04 0
v -24.32 -23.04 0
v -22.4 -24.32 0
v -23.04 -24.32 0
v -23.04 -23.68 0
v -22.4 -23.68 0
v -23.04 -24.32 0
v -23.68 -24.32 0
v -23.68 -23.68 0
v -23.04 -23.68 0
v -23.68 -24.32 0
v -24.32 -24.32 0
v -24.32 -23.68 0
v -23.68 -23.68 0
v -24.32 -24.32 0
v -24.96 -24.32 0
v -24.96 -23.68 0
v -24.32 -23.68 0
v -22.4 -24.96 0
v -23.04 -24.96 0
v -23.04 -24.32 0
v -22.4 -24.32 0
v -23.04 -24.96 0
v -23.68 -24.96 0
v -23.68 -24.32 0
v -23.04 -24.32 0
v -23.68 -24.96 0
v -24.32 -24.96 0
v -24.32 -24.32 0
v -23.68 -24.32 0
v -24.32 -24.96 0
v -24.96 -24.96 0
v -24.96 -24.32 0
v -24.32 -24.32 0
v -22.4 -25.6 0
v -23.04 -25.6 0
v -23.04 -24.96 0
v -22.4 -24.96 0
v -23.04 -25.6 0
v -23.68 -25.6 0
v -23.68 -24.96 0
v -23.04 -24.96 0
v -23.68 -25.6 0
v -24.32 -25.6 0
v -24.32 -24.96 0
v -23.68 -24.96 0
v -24.32 -25.6 0
v -24.96 -25.6 0
v -24.96 -24.96 0
v -24.32 -24.96 0
v -22.4 -26.24 0
v -23.04 -26.24 0
v -23.04 -25.6 0
v -22.4 -25.6 0
v -23.04 -26.24 0
v -23.68 -26.24 0
v -23.68 -25.6 0
v -23.04 -25.6 0
v -23.68 -26.24 0
v -24.32 -26.24 0
v -24.32 -25.6 0
v -23.68 -25.6 0
v -24.32 -26.24 0
v -24.96 -26.24 0
v -24.96 -25.6 0
v -24.32 -25.6 0
v -22.4 -26.88 0
v -23.04 -26.88 0
v -23.04 -26.24 0
v -22.4 -26.24 0
v -23.04 -26.88 0
v -23.68 -26.88 0
v -23.68 -26.24 0
v -23.04 -26.24 0
v -23.68 -26.88 0
v -24.32 -26.88 0
v -24.32 -26.24 0
v -23.68 -26.24 0
v -24.32 -26.88 0
v -24.96 -26.88 0
v -24.96 -26.24 0
v -24.32 -26.24 0
v -22.4 -27.52 0
v -23.04 -27.52 0
v -23.04 -26.88 0
v -22.4 -26.88 0
v -23.04 -27.52 0
v -23.68 -27.52 0
v -23.68 -26.88 0
v -23.04 -26.88 0
v -23.68 -27.52 0
v -24.32 -27.52 0
v -24.32 -26.88 0
v -23.68 -26.88 0
v -24.32 -27.52 0
v -24.96 -27.52 0
v -24.96 -26.88 0
v -24.32 -26.88 0
v -22.4 -28.16 0
v -23.04 -28.16 0
v -23.04 -27.52 0
v -22.4 -27.52 0
v -23.04 -28.16 0
v -23.68 -28.16 0
v -23.68 -27.52 0
v -23.04 -27.52 0
v -23.68 -28.16 0
v -24.32 -28.16 0
v -24.32 -27.52 0
v -23.68 -27.52 0
v -24.32 -28.16 0
v -24.96 -28.16 0
v -24.96 -27.52 0
v -24.32 -27.52 0

# Texture cooridinates (Count = 20)
vt 0.125 0.1428571
vt 0.1875 0.1428571
vt 0.1875 0.1785714
vt 0.125 0.1785714
vt 0.25 0.1428571
vt 0.25 0.1785714
vt 0.125 0.1071429
vt 0.1875 0.1071429
vt 0.0625 0.1071429
vt 0.0625 0.1428571
vt 0.25 0.1071429
vt 0.125 0.0714286
vt 0.1875 0.0714286
vt 0.25 0.0714286
vt 0.125 0.03571427
vt 0.1875 0.03571427
vt 0.25 0.03571427
vt 0.125 0
vt 0.1875 0
vt 0.25 0

# Normal
vn 0 0 -1

# Mesh description
g Ground_mesh_0008

# Faces
f 1/1/1 2/2/1 3/3/1 4/4/1
f 5/2/1 6/5/1 7/6/1 8/3/1
f 9/7/1 10/8/1 11/2/1 12/1/1
f 13/9/1 14/7/1 15/1/1 16/10/1
f 17/9/1 18/7/1 19/1/1 20/10/1
f 21/8/1 22/11/1 23/5/1 24/2/1
f 25/12/1 26/13/1 27/8/1 28/7/1
f 29/9/1 30/7/1 31/1/1 32/10/1
f 33/9/1 34/7/1 35/1/1 36/10/1
f 37/13/1 38/14/1 39/11/1 40/8/1
f 41/12/1 42/13/1 43/8/1 44/7/1
f 45/9/1 46/7/1 47/1/1 48/10/1
f 49/9/1 50/7/1 51/1/1 52/10/1
f 53/13/1 54/14/1 55/11/1 56/8/1
f 57/12/1 58/13/1 59/8/1 60/7/1
f 61/9/1 62/7/1 63/1/1 64/10/1
f 65/9/1 66/7/1 67/1/1 68/10/1
f 69/13/1 70/14/1 71/11/1 72/8/1
f 73/12/1 74/13/1 75/8/1 76/7/1
f 77/9/1 78/7/1 79/1/1 80/10/1
f 81/9/1 82/7/1 83/1/1 84/10/1
f 85/13/1 86/14/1 87/11/1 88/8/1
f 89/12/1 90/13/1 91/8/1 92/7/1
f 93/9/1 94/7/1 95/1/1 96/10/1
f 97/9/1 98/7/1 99/1/1 100/10/1
f 101/13/1 102/14/1 103/11/1 104/8/1
f 105/15/1 106/16/1 107/13/1 108/12/1
f 109/9/1 110/7/1 111/1/1 112/10/1
f 113/9/1 114/7/1 115/1/1 116/10/1
f 117/16/1 118/17/1 119/14/1 120/13/1
f 121/18/1 122/19/1 123/16/1 124/15/1
f 125/9/1 126/7/1 127/1/1 128/10/1
f 129/9/1 130/7/1 131/1/1 132/10/1
f 133/19/1 134/20/1 135/17/1 136/16/1

