# Tiled2Unity generated file. Do not modify by hand.
# Wavefront file for 'Ground_mesh_0010.obj'

# Vertices (Count = 144)
v -26.24 -8.32 0
v -26.88 -8.32 0
v -26.88 -7.68 0
v -26.24 -7.68 0
v -26.88 -8.32 0
v -27.52 -8.32 0
v -27.52 -7.68 0
v -26.88 -7.68 0
v -26.24 -8.96 0
v -26.88 -8.96 0
v -26.88 -8.32 0
v -26.24 -8.32 0
v -26.88 -8.96 0
v -27.52 -8.96 0
v -27.52 -8.32 0
v -26.88 -8.32 0
v -25.6 -26.24 0
v -26.24 -26.24 0
v -26.24 -25.6 0
v -25.6 -25.6 0
v -26.24 -26.24 0
v -26.88 -26.24 0
v -26.88 -25.6 0
v -26.24 -25.6 0
v -25.6 -26.88 0
v -26.24 -26.88 0
v -26.24 -26.24 0
v -25.6 -26.24 0
v -26.24 -26.88 0
v -26.88 -26.88 0
v -26.88 -26.24 0
v -26.24 -26.24 0
v -26.88 -26.88 0
v -27.52 -26.88 0
v -27.52 -26.24 0
v -26.88 -26.24 0
v -27.52 -26.88 0
v -28.16 -26.88 0
v -28.16 -26.24 0
v -27.52 -26.24 0
v -28.16 -26.88 0
v -28.8 -26.88 0
v -28.8 -26.24 0
v -28.16 -26.24 0
v -28.8 -26.88 0
v -29.44 -26.88 0
v -29.44 -26.24 0
v -28.8 -26.24 0
v -25.6 -27.52 0
v -26.24 -27.52 0
v -26.24 -26.88 0
v -25.6 -26.88 0
v -26.24 -27.52 0
v -26.88 -27.52 0
v -26.88 -26.88 0
v -26.24 -26.88 0
v -26.88 -27.52 0
v -27.52 -27.52 0
v -27.52 -26.88 0
v -26.88 -26.88 0
v -27.52 -27.52 0
v -28.16 -27.52 0
v -28.16 -26.88 0
v -27.52 -26.88 0
v -28.16 -27.52 0
v -28.8 -27.52 0
v -28.8 -26.88 0
v -28.16 -26.88 0
v -28.8 -27.52 0
v -29.44 -27.52 0
v -29.44 -26.88 0
v -28.8 -26.88 0
v -29.44 -27.52 0
v -30.08 -27.52 0
v -30.08 -26.88 0
v -29.44 -26.88 0
v -30.08 -27.52 0
v -30.72 -27.52 0
v -30.72 -26.88 0
v -30.08 -26.88 0
v -25.6 -28.16 0
v -26.24 -28.16 0
v -26.24 -27.52 0
v -25.6 -27.52 0
v -26.24 -28.16 0
v -26.88 -28.16 0
v -26.88 -27.52 0
v -26.24 -27.52 0
v -26.88 -28.16 0
v -27.52 -28.16 0
v -27.52 -27.52 0
v -26.88 -27.52 0
v -27.52 -28.16 0
v -28.16 -28.16 0
v -28.16 -27.52 0
v -27.52 -27.52 0
v -28.16 -28.16 0
v -28.8 -28.16 0
v -28.8 -27.52 0
v -28.16 -27.52 0
v -28.8 -28.16 0
v -29.44 -28.16 0
v -29.44 -27.52 0
v -28.8 -27.52 0
v -29.44 -28.16 0
v -30.08 -28.16 0
v -30.08 -27.52 0
v -29.44 -27.52 0
v -30.08 -28.16 0
v -30.72 -28.16 0
v -30.72 -27.52 0
v -30.08 -27.52 0
v -25.6 -28.8 0
v -26.24 -28.8 0
v -26.24 -28.16 0
v -25.6 -28.16 0
v -26.24 -28.8 0
v -26.88 -28.8 0
v -26.88 -28.16 0
v -26.24 -28.16 0
v -26.88 -28.8 0
v -27.52 -28.8 0
v -27.52 -28.16 0
v -26.88 -28.16 0
v -27.52 -28.8 0
v -28.16 -28.8 0
v -28.16 -28.16 0
v -27.52 -28.16 0
v -28.16 -28.8 0
v -28.8 -28.8 0
v -28.8 -28.16 0
v -28.16 -28.16 0
v -28.8 -28.8 0
v -29.44 -28.8 0
v -29.44 -28.16 0
v -28.8 -28.16 0
v -29.44 -28.8 0
v -30.08 -28.8 0
v -30.08 -28.16 0
v -29.44 -28.16 0
v -30.08 -28.8 0
v -30.72 -28.8 0
v -30.72 -28.16 0
v -30.08 -28.16 0

# Texture cooridinates (Count = 59)
vt 0.6875 0.40625
vt 0.71875 0.40625
vt 0.71875 0.4375
vt 0.6875 0.4375
vt 0.75 0.40625
vt 0.75 0.4375
vt 0.6875 0.375
vt 0.71875 0.375
vt 0.75 0.375
vt 0.375 0.59375
vt 0.40625 0.59375
vt 0.40625 0.625
vt 0.375 0.625
vt 0.4375 0.59375
vt 0.4375 0.625
vt 0.375 0.5625
vt 0.40625 0.5625
vt 0.4375 0.5625
vt 0.125 0.59375
vt 0.15625 0.59375
vt 0.15625 0.625
vt 0.125 0.625
vt 0.1875 0.59375
vt 0.1875 0.625
vt 0.3125 0.59375
vt 0.34375 0.59375
vt 0.34375 0.625
vt 0.3125 0.625
vt 0.0625 0.5625
vt 0.09375 0.5625
vt 0.09375 0.59375
vt 0.0625 0.59375
vt 0.125 0.5625
vt 0.15625 0.5625
vt 0.1875 0.5625
vt 0.3125 0.5625
vt 0.34375 0.5625
vt 0.46875 0.59375
vt 0.46875 0.625
vt 0.5 0.59375
vt 0.5 0.625
vt 0.0625 0.53125
vt 0.09375 0.53125
vt 0.125 0.53125
vt 0.15625 0.53125
vt 0.1875 0.53125
vt 0.21875 0.53125
vt 0.21875 0.5625
vt 0.25 0.53125
vt 0.25 0.5625
vt 0.46875 0.5625
vt 0.5 0.5625
vt 0.0625 0.5
vt 0.09375 0.5
vt 0.125 0.5
vt 0.15625 0.5
vt 0.1875 0.5
vt 0.21875 0.5
vt 0.25 0.5

# Normal
vn 0 0 -1

# Mesh description
g Ground_mesh_0010

# Faces
f 1/1/1 2/2/1 3/3/1 4/4/1
f 5/2/1 6/5/1 7/6/1 8/3/1
f 9/7/1 10/8/1 11/2/1 12/1/1
f 13/8/1 14/9/1 15/5/1 16/2/1
f 17/10/1 18/11/1 19/12/1 20/13/1
f 21/11/1 22/14/1 23/15/1 24/12/1
f 25/16/1 26/17/1 27/11/1 28/10/1
f 29/17/1 30/18/1 31/14/1 32/11/1
f 33/19/1 34/20/1 35/21/1 36/22/1
f 37/20/1 38/23/1 39/24/1 40/21/1
f 41/25/1 42/26/1 43/27/1 44/28/1
f 45/26/1 46/10/1 47/13/1 48/27/1
f 49/29/1 50/30/1 51/31/1 52/32/1
f 53/30/1 54/33/1 55/19/1 56/31/1
f 57/33/1 58/34/1 59/20/1 60/19/1
f 61/34/1 62/35/1 63/23/1 64/20/1
f 65/36/1 66/37/1 67/26/1 68/25/1
f 69/37/1 70/16/1 71/10/1 72/26/1
f 73/14/1 74/38/1 75/39/1 76/15/1
f 77/38/1 78/40/1 79/41/1 80/39/1
f 81/42/1 82/43/1 83/30/1 84/29/1
f 85/43/1 86/44/1 87/33/1 88/30/1
f 89/44/1 90/45/1 91/34/1 92/33/1
f 93/45/1 94/46/1 95/35/1 96/34/1
f 97/46/1 98/47/1 99/48/1 100/35/1
f 101/47/1 102/49/1 103/50/1 104/48/1
f 105/18/1 106/51/1 107/38/1 108/14/1
f 109/51/1 110/52/1 111/40/1 112/38/1
f 113/53/1 114/54/1 115/43/1 116/42/1
f 117/54/1 118/55/1 119/44/1 120/43/1
f 121/55/1 122/56/1 123/45/1 124/44/1
f 125/56/1 126/57/1 127/46/1 128/45/1
f 129/57/1 130/58/1 131/47/1 132/46/1
f 133/58/1 134/59/1 135/49/1 136/47/1
f 137/55/1 138/56/1 139/45/1 140/44/1
f 141/56/1 142/57/1 143/46/1 144/45/1

