# Tiled2Unity generated file. Do not modify by hand.
# Wavefront file for 'Ground_mesh_0015.obj'

# Vertices (Count = 48)
v -16.64 -23.68 0
v -17.28 -23.68 0
v -17.28 -23.04 0
v -16.64 -23.04 0
v -17.28 -23.68 0
v -17.92 -23.68 0
v -17.92 -23.04 0
v -17.28 -23.04 0
v -17.92 -23.68 0
v -18.56 -23.68 0
v -18.56 -23.04 0
v -17.92 -23.04 0
v -18.56 -23.68 0
v -19.2 -23.68 0
v -19.2 -23.04 0
v -18.56 -23.04 0
v -22.4 -41.6 0
v -23.04 -41.6 0
v -23.04 -40.96 0
v -22.4 -40.96 0
v -23.04 -41.6 0
v -23.68 -41.6 0
v -23.68 -40.96 0
v -23.04 -40.96 0
v -23.68 -41.6 0
v -24.32 -41.6 0
v -24.32 -40.96 0
v -23.68 -40.96 0
v -24.32 -41.6 0
v -24.96 -41.6 0
v -24.96 -40.96 0
v -24.32 -40.96 0
v -22.4 -53.12 0
v -23.04 -53.12 0
v -23.04 -52.48 0
v -22.4 -52.48 0
v -23.04 -53.12 0
v -23.68 -53.12 0
v -23.68 -52.48 0
v -23.04 -52.48 0
v -23.68 -53.12 0
v -24.32 -53.12 0
v -24.32 -52.48 0
v -23.68 -52.48 0
v -24.32 -53.12 0
v -24.96 -53.12 0
v -24.96 -52.48 0
v -24.32 -52.48 0

# Texture cooridinates (Count = 10)
vt 0.08333334 0.2333333
vt 0.125 0.2333333
vt 0.125 0.2666667
vt 0.08333334 0.2666667
vt 0.1666667 0.2333333
vt 0.1666667 0.2666667
vt 0.2083333 0.2333333
vt 0.2083333 0.2666667
vt 0.25 0.2333333
vt 0.25 0.2666667

# Normal
vn 0 0 -1

# Mesh description
g Ground_mesh_0015

# Faces
f 1/1/1 2/2/1 3/3/1 4/4/1
f 5/2/1 6/5/1 7/6/1 8/3/1
f 9/5/1 10/7/1 11/8/1 12/6/1
f 13/7/1 14/9/1 15/10/1 16/8/1
f 17/1/1 18/2/1 19/3/1 20/4/1
f 21/2/1 22/5/1 23/6/1 24/3/1
f 25/5/1 26/7/1 27/8/1 28/6/1
f 29/7/1 30/9/1 31/10/1 32/8/1
f 33/1/1 34/2/1 35/3/1 36/4/1
f 37/2/1 38/5/1 39/6/1 40/3/1
f 41/5/1 42/7/1 43/8/1 44/6/1
f 45/7/1 46/9/1 47/10/1 48/8/1

