# Tiled2Unity generated file. Do not modify by hand.
# Wavefront file for 'Ground_mesh_0014.obj'

# Vertices (Count = 496)
v -17.28 -8.96 0
v -17.92 -8.96 0
v -17.92 -8.32 0
v -17.28 -8.32 0
v -17.92 -8.96 0
v -18.56 -8.96 0
v -18.56 -8.32 0
v -17.92 -8.32 0
v -18.56 -8.96 0
v -19.2 -8.96 0
v -19.2 -8.32 0
v -18.56 -8.32 0
v -19.2 -8.96 0
v -19.84 -8.96 0
v -19.84 -8.32 0
v -19.2 -8.32 0
v -19.84 -8.96 0
v -20.48 -8.96 0
v -20.48 -8.32 0
v -19.84 -8.32 0
v -20.48 -8.96 0
v -21.12 -8.96 0
v -21.12 -8.32 0
v -20.48 -8.32 0
v -21.12 -8.96 0
v -21.76 -8.96 0
v -21.76 -8.32 0
v -21.12 -8.32 0
v -17.28 -9.599999 0
v -17.92 -9.599999 0
v -17.92 -8.96 0
v -17.28 -8.96 0
v -17.92 -9.599999 0
v -18.56 -9.599999 0
v -18.56 -8.96 0
v -17.92 -8.96 0
v -18.56 -9.599999 0
v -19.2 -9.599999 0
v -19.2 -8.96 0
v -18.56 -8.96 0
v -19.2 -9.599999 0
v -19.84 -9.599999 0
v -19.84 -8.96 0
v -19.2 -8.96 0
v -19.84 -9.599999 0
v -20.48 -9.599999 0
v -20.48 -8.96 0
v -19.84 -8.96 0
v -20.48 -9.599999 0
v -21.12 -9.599999 0
v -21.12 -8.96 0
v -20.48 -8.96 0
v -21.12 -9.599999 0
v -21.76 -9.599999 0
v -21.76 -8.96 0
v -21.12 -8.96 0
v -24.96 -9.599999 0
v -25.6 -9.599999 0
v -25.6 -8.96 0
v -24.96 -8.96 0
v -25.6 -9.599999 0
v -26.24 -9.599999 0
v -26.24 -8.96 0
v -25.6 -8.96 0
v -26.24 -9.599999 0
v -26.88 -9.599999 0
v -26.88 -8.96 0
v -26.24 -8.96 0
v -26.88 -9.599999 0
v -27.52 -9.599999 0
v -27.52 -8.96 0
v -26.88 -8.96 0
v -27.52 -9.599999 0
v -28.16 -9.599999 0
v -28.16 -8.96 0
v -27.52 -8.96 0
v -28.16 -9.599999 0
v -28.8 -9.599999 0
v -28.8 -8.96 0
v -28.16 -8.96 0
v -17.28 -10.24 0
v -17.92 -10.24 0
v -17.92 -9.599999 0
v -17.28 -9.599999 0
v -17.92 -10.24 0
v -18.56 -10.24 0
v -18.56 -9.599999 0
v -17.92 -9.599999 0
v -18.56 -10.24 0
v -19.2 -10.24 0
v -19.2 -9.599999 0
v -18.56 -9.599999 0
v -19.2 -10.24 0
v -19.84 -10.24 0
v -19.84 -9.599999 0
v -19.2 -9.599999 0
v -19.84 -10.24 0
v -20.48 -10.24 0
v -20.48 -9.599999 0
v -19.84 -9.599999 0
v -20.48 -10.24 0
v -21.12 -10.24 0
v -21.12 -9.599999 0
v -20.48 -9.599999 0
v -21.12 -10.24 0
v -21.76 -10.24 0
v -21.76 -9.599999 0
v -21.12 -9.599999 0
v -24.96 -10.24 0
v -25.6 -10.24 0
v -25.6 -9.599999 0
v -24.96 -9.599999 0
v -25.6 -10.24 0
v -26.24 -10.24 0
v -26.24 -9.599999 0
v -25.6 -9.599999 0
v -26.24 -10.24 0
v -26.88 -10.24 0
v -26.88 -9.599999 0
v -26.24 -9.599999 0
v -26.88 -10.24 0
v -27.52 -10.24 0
v -27.52 -9.599999 0
v -26.88 -9.599999 0
v -27.52 -10.24 0
v -28.16 -10.24 0
v -28.16 -9.599999 0
v -27.52 -9.599999 0
v -28.16 -10.24 0
v -28.8 -10.24 0
v -28.8 -9.599999 0
v -28.16 -9.599999 0
v -17.28 -10.88 0
v -17.92 -10.88 0
v -17.92 -10.24 0
v -17.28 -10.24 0
v -17.92 -10.88 0
v -18.56 -10.88 0
v -18.56 -10.24 0
v -17.92 -10.24 0
v -18.56 -10.88 0
v -19.2 -10.88 0
v -19.2 -10.24 0
v -18.56 -10.24 0
v -19.2 -10.88 0
v -19.84 -10.88 0
v -19.84 -10.24 0
v -19.2 -10.24 0
v -19.84 -10.88 0
v -20.48 -10.88 0
v -20.48 -10.24 0
v -19.84 -10.24 0
v -20.48 -10.88 0
v -21.12 -10.88 0
v -21.12 -10.24 0
v -20.48 -10.24 0
v -21.12 -10.88 0
v -21.76 -10.88 0
v -21.76 -10.24 0
v -21.12 -10.24 0
v -24.96 -10.88 0
v -25.6 -10.88 0
v -25.6 -10.24 0
v -24.96 -10.24 0
v -25.6 -10.88 0
v -26.24 -10.88 0
v -26.24 -10.24 0
v -25.6 -10.24 0
v -26.24 -10.88 0
v -26.88 -10.88 0
v -26.88 -10.24 0
v -26.24 -10.24 0
v -26.88 -10.88 0
v -27.52 -10.88 0
v -27.52 -10.24 0
v -26.88 -10.24 0
v -27.52 -10.88 0
v -28.16 -10.88 0
v -28.16 -10.24 0
v -27.52 -10.24 0
v -28.16 -10.88 0
v -28.8 -10.88 0
v -28.8 -10.24 0
v -28.16 -10.24 0
v -17.28 -11.52 0
v -17.92 -11.52 0
v -17.92 -10.88 0
v -17.28 -10.88 0
v -17.92 -11.52 0
v -18.56 -11.52 0
v -18.56 -10.88 0
v -17.92 -10.88 0
v -18.56 -11.52 0
v -19.2 -11.52 0
v -19.2 -10.88 0
v -18.56 -10.88 0
v -19.2 -11.52 0
v -19.84 -11.52 0
v -19.84 -10.88 0
v -19.2 -10.88 0
v -19.84 -11.52 0
v -20.48 -11.52 0
v -20.48 -10.88 0
v -19.84 -10.88 0
v -20.48 -11.52 0
v -21.12 -11.52 0
v -21.12 -10.88 0
v -20.48 -10.88 0
v -21.12 -11.52 0
v -21.76 -11.52 0
v -21.76 -10.88 0
v -21.12 -10.88 0
v -24.96 -11.52 0
v -25.6 -11.52 0
v -25.6 -10.88 0
v -24.96 -10.88 0
v -25.6 -11.52 0
v -26.24 -11.52 0
v -26.24 -10.88 0
v -25.6 -10.88 0
v -26.24 -11.52 0
v -26.88 -11.52 0
v -26.88 -10.88 0
v -26.24 -10.88 0
v -26.88 -11.52 0
v -27.52 -11.52 0
v -27.52 -10.88 0
v -26.88 -10.88 0
v -27.52 -11.52 0
v -28.16 -11.52 0
v -28.16 -10.88 0
v -27.52 -10.88 0
v -28.16 -11.52 0
v -28.8 -11.52 0
v -28.8 -10.88 0
v -28.16 -10.88 0
v -24.96 -12.16 0
v -25.6 -12.16 0
v -25.6 -11.52 0
v -24.96 -11.52 0
v -25.6 -12.16 0
v -26.24 -12.16 0
v -26.24 -11.52 0
v -25.6 -11.52 0
v -26.24 -12.16 0
v -26.88 -12.16 0
v -26.88 -11.52 0
v -26.24 -11.52 0
v -26.88 -12.16 0
v -27.52 -12.16 0
v -27.52 -11.52 0
v -26.88 -11.52 0
v -27.52 -12.16 0
v -28.16 -12.16 0
v -28.16 -11.52 0
v -27.52 -11.52 0
v -28.16 -12.16 0
v -28.8 -12.16 0
v -28.8 -11.52 0
v -28.16 -11.52 0
v -24.96 -12.8 0
v -25.6 -12.8 0
v -25.6 -12.16 0
v -24.96 -12.16 0
v -25.6 -12.8 0
v -26.24 -12.8 0
v -26.24 -12.16 0
v -25.6 -12.16 0
v -26.24 -12.8 0
v -26.88 -12.8 0
v -26.88 -12.16 0
v -26.24 -12.16 0
v -26.88 -12.8 0
v -27.52 -12.8 0
v -27.52 -12.16 0
v -26.88 -12.16 0
v -27.52 -12.8 0
v -28.16 -12.8 0
v -28.16 -12.16 0
v -27.52 -12.16 0
v -28.16 -12.8 0
v -28.8 -12.8 0
v -28.8 -12.16 0
v -28.16 -12.16 0
v -17.28 -13.44 0
v -17.92 -13.44 0
v -17.92 -12.8 0
v -17.28 -12.8 0
v -17.92 -13.44 0
v -18.56 -13.44 0
v -18.56 -12.8 0
v -17.92 -12.8 0
v -18.56 -13.44 0
v -19.2 -13.44 0
v -19.2 -12.8 0
v -18.56 -12.8 0
v -19.2 -13.44 0
v -19.84 -13.44 0
v -19.84 -12.8 0
v -19.2 -12.8 0
v -19.84 -13.44 0
v -20.48 -13.44 0
v -20.48 -12.8 0
v -19.84 -12.8 0
v -20.48 -13.44 0
v -21.12 -13.44 0
v -21.12 -12.8 0
v -20.48 -12.8 0
v -21.12 -13.44 0
v -21.76 -13.44 0
v -21.76 -12.8 0
v -21.12 -12.8 0
v -24.96 -13.44 0
v -25.6 -13.44 0
v -25.6 -12.8 0
v -24.96 -12.8 0
v -25.6 -13.44 0
v -26.24 -13.44 0
v -26.24 -12.8 0
v -25.6 -12.8 0
v -26.24 -13.44 0
v -26.88 -13.44 0
v -26.88 -12.8 0
v -26.24 -12.8 0
v -26.88 -13.44 0
v -27.52 -13.44 0
v -27.52 -12.8 0
v -26.88 -12.8 0
v -27.52 -13.44 0
v -28.16 -13.44 0
v -28.16 -12.8 0
v -27.52 -12.8 0
v -28.16 -13.44 0
v -28.8 -13.44 0
v -28.8 -12.8 0
v -28.16 -12.8 0
v -17.28 -14.08 0
v -17.92 -14.08 0
v -17.92 -13.44 0
v -17.28 -13.44 0
v -17.92 -14.08 0
v -18.56 -14.08 0
v -18.56 -13.44 0
v -17.92 -13.44 0
v -18.56 -14.08 0
v -19.2 -14.08 0
v -19.2 -13.44 0
v -18.56 -13.44 0
v -19.2 -14.08 0
v -19.84 -14.08 0
v -19.84 -13.44 0
v -19.2 -13.44 0
v -19.84 -14.08 0
v -20.48 -14.08 0
v -20.48 -13.44 0
v -19.84 -13.44 0
v -20.48 -14.08 0
v -21.12 -14.08 0
v -21.12 -13.44 0
v -20.48 -13.44 0
v -21.12 -14.08 0
v -21.76 -14.08 0
v -21.76 -13.44 0
v -21.12 -13.44 0
v -24.96 -14.08 0
v -25.6 -14.08 0
v -25.6 -13.44 0
v -24.96 -13.44 0
v -25.6 -14.08 0
v -26.24 -14.08 0
v -26.24 -13.44 0
v -25.6 -13.44 0
v -26.24 -14.08 0
v -26.88 -14.08 0
v -26.88 -13.44 0
v -26.24 -13.44 0
v -26.88 -14.08 0
v -27.52 -14.08 0
v -27.52 -13.44 0
v -26.88 -13.44 0
v -27.52 -14.08 0
v -28.16 -14.08 0
v -28.16 -13.44 0
v -27.52 -13.44 0
v -28.16 -14.08 0
v -28.8 -14.08 0
v -28.8 -13.44 0
v -28.16 -13.44 0
v -17.28 -14.72 0
v -17.92 -14.72 0
v -17.92 -14.08 0
v -17.28 -14.08 0
v -17.92 -14.72 0
v -18.56 -14.72 0
v -18.56 -14.08 0
v -17.92 -14.08 0
v -18.56 -14.72 0
v -19.2 -14.72 0
v -19.2 -14.08 0
v -18.56 -14.08 0
v -19.2 -14.72 0
v -19.84 -14.72 0
v -19.84 -14.08 0
v -19.2 -14.08 0
v -19.84 -14.72 0
v -20.48 -14.72 0
v -20.48 -14.08 0
v -19.84 -14.08 0
v -20.48 -14.72 0
v -21.12 -14.72 0
v -21.12 -14.08 0
v -20.48 -14.08 0
v -21.12 -14.72 0
v -21.76 -14.72 0
v -21.76 -14.08 0
v -21.12 -14.08 0
v -24.96 -14.72 0
v -25.6 -14.72 0
v -25.6 -14.08 0
v -24.96 -14.08 0
v -25.6 -14.72 0
v -26.24 -14.72 0
v -26.24 -14.08 0
v -25.6 -14.08 0
v -26.24 -14.72 0
v -26.88 -14.72 0
v -26.88 -14.08 0
v -26.24 -14.08 0
v -26.88 -14.72 0
v -27.52 -14.72 0
v -27.52 -14.08 0
v -26.88 -14.08 0
v -27.52 -14.72 0
v -28.16 -14.72 0
v -28.16 -14.08 0
v -27.52 -14.08 0
v -28.16 -14.72 0
v -28.8 -14.72 0
v -28.8 -14.08 0
v -28.16 -14.08 0
v -17.28 -15.36 0
v -17.92 -15.36 0
v -17.92 -14.72 0
v -17.28 -14.72 0
v -17.92 -15.36 0
v -18.56 -15.36 0
v -18.56 -14.72 0
v -17.92 -14.72 0
v -18.56 -15.36 0
v -19.2 -15.36 0
v -19.2 -14.72 0
v -18.56 -14.72 0
v -19.2 -15.36 0
v -19.84 -15.36 0
v -19.84 -14.72 0
v -19.2 -14.72 0
v -19.84 -15.36 0
v -20.48 -15.36 0
v -20.48 -14.72 0
v -19.84 -14.72 0
v -20.48 -15.36 0
v -21.12 -15.36 0
v -21.12 -14.72 0
v -20.48 -14.72 0
v -21.12 -15.36 0
v -21.76 -15.36 0
v -21.76 -14.72 0
v -21.12 -14.72 0
v -17.28 -16 0
v -17.92 -16 0
v -17.92 -15.36 0
v -17.28 -15.36 0
v -17.92 -16 0
v -18.56 -16 0
v -18.56 -15.36 0
v -17.92 -15.36 0
v -18.56 -16 0
v -19.2 -16 0
v -19.2 -15.36 0
v -18.56 -15.36 0
v -19.2 -16 0
v -19.84 -16 0
v -19.84 -15.36 0
v -19.2 -15.36 0
v -19.84 -16 0
v -20.48 -16 0
v -20.48 -15.36 0
v -19.84 -15.36 0
v -20.48 -16 0
v -21.12 -16 0
v -21.12 -15.36 0
v -20.48 -15.36 0
v -21.12 -16 0
v -21.76 -16 0
v -21.76 -15.36 0
v -21.12 -15.36 0

# Texture cooridinates (Count = 58)
vt 0.4375 0.78125
vt 0.46875 0.78125
vt 0.46875 0.8125
vt 0.4375 0.8125
vt 0.5 0.78125
vt 0.5 0.8125
vt 0.46875 0.75
vt 0.5 0.75
vt 0 0.96875
vt 0.03125 0.96875
vt 0.03125 1
vt 0 1
vt 0.0625 0.96875
vt 0.0625 1
vt 0.09375 0.96875
vt 0.09375 1
vt 0.125 0.96875
vt 0.125 1
vt 0.15625 0.96875
vt 0.15625 1
vt 0.1875 0.96875
vt 0.1875 1
vt 0.4375 0.75
vt 0 0.9375
vt 0.03125 0.9375
vt 0.0625 0.9375
vt 0.09375 0.9375
vt 0.125 0.9375
vt 0.15625 0.9375
vt 0.1875 0.9375
vt 0 0.90625
vt 0.03125 0.90625
vt 0.0625 0.90625
vt 0.09375 0.90625
vt 0.125 0.90625
vt 0.15625 0.90625
vt 0.1875 0.90625
vt 0 0.875
vt 0.03125 0.875
vt 0.0625 0.875
vt 0.09375 0.875
vt 0.125 0.875
vt 0.15625 0.875
vt 0.1875 0.875
vt 0 0.84375
vt 0.03125 0.84375
vt 0.0625 0.84375
vt 0.09375 0.84375
vt 0.125 0.84375
vt 0.15625 0.84375
vt 0.1875 0.84375
vt 0 0.8125
vt 0.03125 0.8125
vt 0.0625 0.8125
vt 0.09375 0.8125
vt 0.125 0.8125
vt 0.15625 0.8125
vt 0.1875 0.8125

# Normal
vn 0 0 -1

# Mesh description
g Ground_mesh_0014

# Faces
f 1/1/1 2/2/1 3/3/1 4/4/1
f 5/1/1 6/2/1 7/3/1 8/4/1
f 9/2/1 10/5/1 11/6/1 12/3/1
f 13/2/1 14/5/1 15/6/1 16/3/1
f 17/2/1 18/5/1 19/6/1 20/3/1
f 21/2/1 22/5/1 23/6/1 24/3/1
f 25/2/1 26/5/1 27/6/1 28/3/1
f 29/1/1 30/2/1 31/3/1 32/4/1
f 33/1/1 34/2/1 35/3/1 36/4/1
f 37/1/1 38/2/1 39/3/1 40/4/1
f 41/1/1 42/2/1 43/3/1 44/4/1
f 45/2/1 46/5/1 47/6/1 48/3/1
f 49/7/1 50/8/1 51/5/1 52/2/1
f 53/7/1 54/8/1 55/5/1 56/2/1
f 57/9/1 58/10/1 59/11/1 60/12/1
f 61/10/1 62/13/1 63/14/1 64/11/1
f 65/13/1 66/15/1 67/16/1 68/14/1
f 69/15/1 70/17/1 71/18/1 72/16/1
f 73/17/1 74/19/1 75/20/1 76/18/1
f 77/19/1 78/21/1 79/22/1 80/20/1
f 81/1/1 82/2/1 83/3/1 84/4/1
f 85/23/1 86/7/1 87/2/1 88/1/1
f 89/23/1 90/7/1 91/2/1 92/1/1
f 93/23/1 94/7/1 95/2/1 96/1/1
f 97/7/1 98/8/1 99/5/1 100/2/1
f 101/23/1 102/7/1 103/2/1 104/1/1
f 105/7/1 106/8/1 107/5/1 108/2/1
f 109/24/1 110/25/1 111/10/1 112/9/1
f 113/25/1 114/26/1 115/13/1 116/10/1
f 117/26/1 118/27/1 119/15/1 120/13/1
f 121/27/1 122/28/1 123/17/1 124/15/1
f 125/28/1 126/29/1 127/19/1 128/17/1
f 129/29/1 130/30/1 131/21/1 132/19/1
f 133/1/1 134/2/1 135/3/1 136/4/1
f 137/1/1 138/2/1 139/3/1 140/4/1
f 141/1/1 142/2/1 143/3/1 144/4/1
f 145/1/1 146/2/1 147/3/1 148/4/1
f 149/1/1 150/2/1 151/3/1 152/4/1
f 153/23/1 154/7/1 155/2/1 156/1/1
f 157/7/1 158/8/1 159/5/1 160/2/1
f 161/31/1 162/32/1 163/25/1 164/24/1
f 165/32/1 166/33/1 167/26/1 168/25/1
f 169/33/1 170/34/1 171/27/1 172/26/1
f 173/34/1 174/35/1 175/28/1 176/27/1
f 177/35/1 178/36/1 179/29/1 180/28/1
f 181/36/1 182/37/1 183/30/1 184/29/1
f 185/23/1 186/7/1 187/2/1 188/1/1
f 189/23/1 190/7/1 191/2/1 192/1/1
f 193/23/1 194/7/1 195/2/1 196/1/1
f 197/23/1 198/7/1 199/2/1 200/1/1
f 201/23/1 202/7/1 203/2/1 204/1/1
f 205/23/1 206/7/1 207/2/1 208/1/1
f 209/7/1 210/8/1 211/5/1 212/2/1
f 213/38/1 214/39/1 215/32/1 216/31/1
f 217/39/1 218/40/1 219/33/1 220/32/1
f 221/40/1 222/41/1 223/34/1 224/33/1
f 225/41/1 226/42/1 227/35/1 228/34/1
f 229/42/1 230/43/1 231/36/1 232/35/1
f 233/43/1 234/44/1 235/37/1 236/36/1
f 237/38/1 238/39/1 239/32/1 240/31/1
f 241/39/1 242/40/1 243/33/1 244/32/1
f 245/40/1 246/41/1 247/34/1 248/33/1
f 249/41/1 250/42/1 251/35/1 252/34/1
f 253/42/1 254/43/1 255/36/1 256/35/1
f 257/43/1 258/44/1 259/37/1 260/36/1
f 261/38/1 262/39/1 263/32/1 264/31/1
f 265/39/1 266/40/1 267/33/1 268/32/1
f 269/40/1 270/41/1 271/34/1 272/33/1
f 273/41/1 274/42/1 275/35/1 276/34/1
f 277/42/1 278/43/1 279/36/1 280/35/1
f 281/43/1 282/44/1 283/37/1 284/36/1
f 285/1/1 286/2/1 287/3/1 288/4/1
f 289/1/1 290/2/1 291/3/1 292/4/1
f 293/2/1 294/5/1 295/6/1 296/3/1
f 297/2/1 298/5/1 299/6/1 300/3/1
f 301/2/1 302/5/1 303/6/1 304/3/1
f 305/2/1 306/5/1 307/6/1 308/3/1
f 309/2/1 310/5/1 311/6/1 312/3/1
f 313/38/1 314/39/1 315/32/1 316/31/1
f 317/39/1 318/40/1 319/33/1 320/32/1
f 321/40/1 322/41/1 323/34/1 324/33/1
f 325/41/1 326/42/1 327/35/1 328/34/1
f 329/42/1 330/43/1 331/36/1 332/35/1
f 333/43/1 334/44/1 335/37/1 336/36/1
f 337/1/1 338/2/1 339/3/1 340/4/1
f 341/1/1 342/2/1 343/3/1 344/4/1
f 345/1/1 346/2/1 347/3/1 348/4/1
f 349/1/1 350/2/1 351/3/1 352/4/1
f 353/2/1 354/5/1 355/6/1 356/3/1
f 357/7/1 358/8/1 359/5/1 360/2/1
f 361/7/1 362/8/1 363/5/1 364/2/1
f 365/45/1 366/46/1 367/39/1 368/38/1
f 369/46/1 370/47/1 371/40/1 372/39/1
f 373/47/1 374/48/1 375/41/1 376/40/1
f 377/48/1 378/49/1 379/42/1 380/41/1
f 381/49/1 382/50/1 383/43/1 384/42/1
f 385/50/1 386/51/1 387/44/1 388/43/1
f 389/1/1 390/2/1 391/3/1 392/4/1
f 393/23/1 394/7/1 395/2/1 396/1/1
f 397/23/1 398/7/1 399/2/1 400/1/1
f 401/23/1 402/7/1 403/2/1 404/1/1
f 405/7/1 406/8/1 407/5/1 408/2/1
f 409/23/1 410/7/1 411/2/1 412/1/1
f 413/7/1 414/8/1 415/5/1 416/2/1
f 417/52/1 418/53/1 419/46/1 420/45/1
f 421/53/1 422/54/1 423/47/1 424/46/1
f 425/54/1 426/55/1 427/48/1 428/47/1
f 429/55/1 430/56/1 431/49/1 432/48/1
f 433/56/1 434/57/1 435/50/1 436/49/1
f 437/57/1 438/58/1 439/51/1 440/50/1
f 441/1/1 442/2/1 443/3/1 444/4/1
f 445/1/1 446/2/1 447/3/1 448/4/1
f 449/1/1 450/2/1 451/3/1 452/4/1
f 453/1/1 454/2/1 455/3/1 456/4/1
f 457/1/1 458/2/1 459/3/1 460/4/1
f 461/23/1 462/7/1 463/2/1 464/1/1
f 465/7/1 466/8/1 467/5/1 468/2/1
f 469/23/1 470/7/1 471/2/1 472/1/1
f 473/23/1 474/7/1 475/2/1 476/1/1
f 477/23/1 478/7/1 479/2/1 480/1/1
f 481/23/1 482/7/1 483/2/1 484/1/1
f 485/23/1 486/7/1 487/2/1 488/1/1
f 489/23/1 490/7/1 491/2/1 492/1/1
f 493/7/1 494/8/1 495/5/1 496/2/1

