# Tiled2Unity generated file. Do not modify by hand.
# Wavefront file for 'UpstairsHallway_mesh_0003.obj'

# Vertices (Count = 148)
v -16 -0.64 0
v -16.64 -0.64 0
v -16.64 0 0
v -16 0 0
v -16.64 -0.64 0
v -17.28 -0.64 0
v -17.28 0 0
v -16.64 0 0
v -17.28 -0.64 0
v -17.92 -0.64 0
v -17.92 0 0
v -17.28 0 0
v -17.92 -0.64 0
v -18.56 -0.64 0
v -18.56 0 0
v -17.92 0 0
v -18.56 -0.64 0
v -19.2 -0.64 0
v -19.2 0 0
v -18.56 0 0
v -19.2 -0.64 0
v -19.84 -0.64 0
v -19.84 0 0
v -19.2 0 0
v -19.84 -0.64 0
v -20.48 -0.64 0
v -20.48 0 0
v -19.84 0 0
v -20.48 -0.64 0
v -21.12 -0.64 0
v -21.12 0 0
v -20.48 0 0
v -21.12 -0.64 0
v -21.76 -0.64 0
v -21.76 0 0
v -21.12 0 0
v -48 -0.64 0
v -48.64 -0.64 0
v -48.64 0 0
v -48 0 0
v -48.64 -0.64 0
v -49.28 -0.64 0
v -49.28 0 0
v -48.64 0 0
v -49.28 -0.64 0
v -49.92 -0.64 0
v -49.92 0 0
v -49.28 0 0
v -49.92 -0.64 0
v -50.56 -0.64 0
v -50.56 0 0
v -49.92 0 0
v -50.56 -0.64 0
v -51.2 -0.64 0
v -51.2 0 0
v -50.56 0 0
v -51.2 -0.64 0
v -51.84 -0.64 0
v -51.84 0 0
v -51.2 0 0
v -51.84 -0.64 0
v -52.48 -0.64 0
v -52.48 0 0
v -51.84 0 0
v -52.48 -0.64 0
v -53.12 -0.64 0
v -53.12 0 0
v -52.48 0 0
v -53.12 -0.64 0
v -53.76 -0.64 0
v -53.76 0 0
v -53.12 0 0
v -53.76 -0.64 0
v -54.4 -0.64 0
v -54.4 0 0
v -53.76 0 0
v -54.4 -0.64 0
v -55.04 -0.64 0
v -55.04 0 0
v -54.4 0 0
v -81.28 -0.64 0
v -81.92 -0.64 0
v -81.92 0 0
v -81.28 0 0
v -81.92 -0.64 0
v -82.56 -0.64 0
v -82.56 0 0
v -81.92 0 0
v -82.56 -0.64 0
v -83.2 -0.64 0
v -83.2 0 0
v -82.56 0 0
v -83.2 -0.64 0
v -83.84 -0.64 0
v -83.84 0 0
v -83.2 0 0
v -83.84 -0.64 0
v -84.48 -0.64 0
v -84.48 0 0
v -83.84 0 0
v -84.48 -0.64 0
v -85.12 -0.64 0
v -85.12 0 0
v -84.48 0 0
v -85.12 -0.64 0
v -85.75999 -0.64 0
v -85.75999 0 0
v -85.12 0 0
v -85.75999 -0.64 0
v -86.4 -0.64 0
v -86.4 0 0
v -85.75999 0 0
v -104.32 -0.64 0
v -104.96 -0.64 0
v -104.96 0 0
v -104.32 0 0
v -104.96 -0.64 0
v -105.6 -0.64 0
v -105.6 0 0
v -104.96 0 0
v -105.6 -0.64 0
v -106.24 -0.64 0
v -106.24 0 0
v -105.6 0 0
v -106.24 -0.64 0
v -106.88 -0.64 0
v -106.88 0 0
v -106.24 0 0
v -106.88 -0.64 0
v -107.52 -0.64 0
v -107.52 0 0
v -106.88 0 0
v -107.52 -0.64 0
v -108.16 -0.64 0
v -108.16 0 0
v -107.52 0 0
v -108.16 -0.64 0
v -108.8 -0.64 0
v -108.8 0 0
v -108.16 0 0
v -108.8 -0.64 0
v -109.44 -0.64 0
v -109.44 0 0
v -108.8 0 0
v -109.44 -0.64 0
v -110.08 -0.64 0
v -110.08 0 0
v -109.44 0 0

# Texture cooridinates (Count = 16)
vt 0.15 0.8
vt 0.2 0.8
vt 0.2 0.85
vt 0.15 0.85
vt 0.25 0.8
vt 0.25 0.85
vt 0.3 0.8
vt 0.3 0.85
vt 0.35 0.8
vt 0.35 0.85
vt 0 0.8
vt 0.05 0.8
vt 0.05 0.85
vt 0 0.85
vt 0.1 0.8
vt 0.1 0.85

# Normal
vn 0 0 -1

# Mesh description
g UpstairsHallway_mesh_0003

# Faces
f 1/1/1 2/2/1 3/3/1 4/4/1
f 5/2/1 6/5/1 7/6/1 8/3/1
f 9/5/1 10/7/1 11/8/1 12/6/1
f 13/7/1 14/9/1 15/10/1 16/8/1
f 17/1/1 18/2/1 19/3/1 20/4/1
f 21/2/1 22/5/1 23/6/1 24/3/1
f 25/5/1 26/7/1 27/8/1 28/6/1
f 29/7/1 30/9/1 31/10/1 32/8/1
f 33/1/1 34/2/1 35/3/1 36/4/1
f 37/1/1 38/2/1 39/3/1 40/4/1
f 41/2/1 42/5/1 43/6/1 44/3/1
f 45/5/1 46/7/1 47/8/1 48/6/1
f 49/7/1 50/9/1 51/10/1 52/8/1
f 53/1/1 54/2/1 55/3/1 56/4/1
f 57/2/1 58/5/1 59/6/1 60/3/1
f 61/5/1 62/7/1 63/8/1 64/6/1
f 65/7/1 66/9/1 67/10/1 68/8/1
f 69/1/1 70/2/1 71/3/1 72/4/1
f 73/2/1 74/5/1 75/6/1 76/3/1
f 77/5/1 78/7/1 79/8/1 80/6/1
f 81/1/1 82/2/1 83/3/1 84/4/1
f 85/2/1 86/5/1 87/6/1 88/3/1
f 89/5/1 90/7/1 91/8/1 92/6/1
f 93/7/1 94/9/1 95/10/1 96/8/1
f 97/1/1 98/2/1 99/3/1 100/4/1
f 101/2/1 102/5/1 103/6/1 104/3/1
f 105/5/1 106/7/1 107/8/1 108/6/1
f 109/7/1 110/9/1 111/10/1 112/8/1
f 113/11/1 114/12/1 115/13/1 116/14/1
f 117/12/1 118/15/1 119/16/1 120/13/1
f 121/11/1 122/12/1 123/13/1 124/14/1
f 125/12/1 126/15/1 127/16/1 128/13/1
f 129/11/1 130/12/1 131/13/1 132/14/1
f 133/12/1 134/15/1 135/16/1 136/13/1
f 137/11/1 138/12/1 139/13/1 140/14/1
f 141/12/1 142/15/1 143/16/1 144/13/1
f 145/11/1 146/12/1 147/13/1 148/14/1

