# Tiled2Unity generated file. Do not modify by hand.
# Wavefront file for 'GroundFirst_mesh_0006.obj'

# Vertices (Count = 120)
v -38.4 -65.92 0
v -39.04 -65.92 0
v -39.04 -65.28 0
v -38.4 -65.28 0
v -39.04 -65.92 0
v -39.68 -65.92 0
v -39.68 -65.28 0
v -39.04 -65.28 0
v -39.68 -65.92 0
v -40.32 -65.92 0
v -40.32 -65.28 0
v -39.68 -65.28 0
v -40.32 -65.92 0
v -40.96 -65.92 0
v -40.96 -65.28 0
v -40.32 -65.28 0
v -40.96 -65.92 0
v -41.6 -65.92 0
v -41.6 -65.28 0
v -40.96 -65.28 0
v -41.6 -65.92 0
v -42.24 -65.92 0
v -42.24 -65.28 0
v -41.6 -65.28 0
v -42.24 -65.92 0
v -42.88 -65.92 0
v -42.88 -65.28 0
v -42.24 -65.28 0
v -42.88 -65.92 0
v -43.52 -65.92 0
v -43.52 -65.28 0
v -42.88 -65.28 0
v -43.52 -65.92 0
v -44.16 -65.92 0
v -44.16 -65.28 0
v -43.52 -65.28 0
v -44.16 -65.92 0
v -44.8 -65.92 0
v -44.8 -65.28 0
v -44.16 -65.28 0
v -44.8 -65.92 0
v -45.44 -65.92 0
v -45.44 -65.28 0
v -44.8 -65.28 0
v -45.44 -65.92 0
v -46.08 -65.92 0
v -46.08 -65.28 0
v -45.44 -65.28 0
v -46.08 -65.92 0
v -46.72 -65.92 0
v -46.72 -65.28 0
v -46.08 -65.28 0
v -46.72 -65.92 0
v -47.36 -65.92 0
v -47.36 -65.28 0
v -46.72 -65.28 0
v -47.36 -65.92 0
v -48 -65.92 0
v -48 -65.28 0
v -47.36 -65.28 0
v -38.4 -66.56 0
v -39.04 -66.56 0
v -39.04 -65.92 0
v -38.4 -65.92 0
v -39.04 -66.56 0
v -39.68 -66.56 0
v -39.68 -65.92 0
v -39.04 -65.92 0
v -39.68 -66.56 0
v -40.32 -66.56 0
v -40.32 -65.92 0
v -39.68 -65.92 0
v -40.32 -66.56 0
v -40.96 -66.56 0
v -40.96 -65.92 0
v -40.32 -65.92 0
v -40.96 -66.56 0
v -41.6 -66.56 0
v -41.6 -65.92 0
v -40.96 -65.92 0
v -41.6 -66.56 0
v -42.24 -66.56 0
v -42.24 -65.92 0
v -41.6 -65.92 0
v -42.24 -66.56 0
v -42.88 -66.56 0
v -42.88 -65.92 0
v -42.24 -65.92 0
v -42.88 -66.56 0
v -43.52 -66.56 0
v -43.52 -65.92 0
v -42.88 -65.92 0
v -43.52 -66.56 0
v -44.16 -66.56 0
v -44.16 -65.92 0
v -43.52 -65.92 0
v -44.16 -66.56 0
v -44.8 -66.56 0
v -44.8 -65.92 0
v -44.16 -65.92 0
v -44.8 -66.56 0
v -45.44 -66.56 0
v -45.44 -65.92 0
v -44.8 -65.92 0
v -45.44 -66.56 0
v -46.08 -66.56 0
v -46.08 -65.92 0
v -45.44 -65.92 0
v -46.08 -66.56 0
v -46.72 -66.56 0
v -46.72 -65.92 0
v -46.08 -65.92 0
v -46.72 -66.56 0
v -47.36 -66.56 0
v -47.36 -65.92 0
v -46.72 -65.92 0
v -47.36 -66.56 0
v -48 -66.56 0
v -48 -65.92 0
v -47.36 -65.92 0

# Texture cooridinates (Count = 9)
vt 0.4583333 0.7857143
vt 0.4791667 0.7857143
vt 0.4791667 0.8095238
vt 0.4583333 0.8095238
vt 0.5 0.7857143
vt 0.5 0.8095238
vt 0.4583333 0.7619048
vt 0.4791667 0.7619048
vt 0.5 0.7619048

# Normal
vn 0 0 -1

# Mesh description
g GroundFirst_mesh_0006

# Faces
f 1/1/1 2/2/1 3/3/1 4/4/1
f 5/1/1 6/2/1 7/3/1 8/4/1
f 9/1/1 10/2/1 11/3/1 12/4/1
f 13/1/1 14/2/1 15/3/1 16/4/1
f 17/1/1 18/2/1 19/3/1 20/4/1
f 21/1/1 22/2/1 23/3/1 24/4/1
f 25/1/1 26/2/1 27/3/1 28/4/1
f 29/1/1 30/2/1 31/3/1 32/4/1
f 33/1/1 34/2/1 35/3/1 36/4/1
f 37/1/1 38/2/1 39/3/1 40/4/1
f 41/1/1 42/2/1 43/3/1 44/4/1
f 45/1/1 46/2/1 47/3/1 48/4/1
f 49/1/1 50/2/1 51/3/1 52/4/1
f 53/1/1 54/2/1 55/3/1 56/4/1
f 57/2/1 58/5/1 59/6/1 60/3/1
f 61/7/1 62/8/1 63/2/1 64/1/1
f 65/7/1 66/8/1 67/2/1 68/1/1
f 69/7/1 70/8/1 71/2/1 72/1/1
f 73/7/1 74/8/1 75/2/1 76/1/1
f 77/7/1 78/8/1 79/2/1 80/1/1
f 81/7/1 82/8/1 83/2/1 84/1/1
f 85/7/1 86/8/1 87/2/1 88/1/1
f 89/7/1 90/8/1 91/2/1 92/1/1
f 93/7/1 94/8/1 95/2/1 96/1/1
f 97/7/1 98/8/1 99/2/1 100/1/1
f 101/7/1 102/8/1 103/2/1 104/1/1
f 105/7/1 106/8/1 107/2/1 108/1/1
f 109/7/1 110/8/1 111/2/1 112/1/1
f 113/7/1 114/8/1 115/2/1 116/1/1
f 117/8/1 118/9/1 119/5/1 120/2/1

