# Tiled2Unity generated file. Do not modify by hand.
# Wavefront file for 'GroundFirst_mesh_0047.obj'

# Vertices (Count = 384)
v -40.96 -5.76 0
v -41.6 -5.76 0
v -41.6 -5.12 0
v -40.96 -5.12 0
v -41.6 -5.76 0
v -42.24 -5.76 0
v -42.24 -5.12 0
v -41.6 -5.12 0
v -40.96 -6.4 0
v -41.6 -6.4 0
v -41.6 -5.76 0
v -40.96 -5.76 0
v -41.6 -6.4 0
v -42.24 -6.4 0
v -42.24 -5.76 0
v -41.6 -5.76 0
v -37.12 -7.04 0
v -37.76 -7.04 0
v -37.76 -6.4 0
v -37.12 -6.4 0
v -37.76 -7.04 0
v -38.4 -7.04 0
v -38.4 -6.4 0
v -37.76 -6.4 0
v -38.4 -7.04 0
v -39.04 -7.04 0
v -39.04 -6.4 0
v -38.4 -6.4 0
v -39.04 -7.04 0
v -39.68 -7.04 0
v -39.68 -6.4 0
v -39.04 -6.4 0
v -43.52 -7.04 0
v -44.16 -7.04 0
v -44.16 -6.4 0
v -43.52 -6.4 0
v -44.16 -7.04 0
v -44.8 -7.04 0
v -44.8 -6.4 0
v -44.16 -6.4 0
v -44.8 -7.04 0
v -45.44 -7.04 0
v -45.44 -6.4 0
v -44.8 -6.4 0
v -45.44 -7.04 0
v -46.08 -7.04 0
v -46.08 -6.4 0
v -45.44 -6.4 0
v -37.12 -7.68 0
v -37.76 -7.68 0
v -37.76 -7.04 0
v -37.12 -7.04 0
v -37.76 -7.68 0
v -38.4 -7.68 0
v -38.4 -7.04 0
v -37.76 -7.04 0
v -38.4 -7.68 0
v -39.04 -7.68 0
v -39.04 -7.04 0
v -38.4 -7.04 0
v -39.04 -7.68 0
v -39.68 -7.68 0
v -39.68 -7.04 0
v -39.04 -7.04 0
v -43.52 -7.68 0
v -44.16 -7.68 0
v -44.16 -7.04 0
v -43.52 -7.04 0
v -44.16 -7.68 0
v -44.8 -7.68 0
v -44.8 -7.04 0
v -44.16 -7.04 0
v -44.8 -7.68 0
v -45.44 -7.68 0
v -45.44 -7.04 0
v -44.8 -7.04 0
v -45.44 -7.68 0
v -46.08 -7.68 0
v -46.08 -7.04 0
v -45.44 -7.04 0
v -37.12 -12.16 0
v -37.76 -12.16 0
v -37.76 -11.52 0
v -37.12 -11.52 0
v -37.76 -12.16 0
v -38.4 -12.16 0
v -38.4 -11.52 0
v -37.76 -11.52 0
v -39.68 -12.16 0
v -40.32 -12.16 0
v -40.32 -11.52 0
v -39.68 -11.52 0
v -40.32 -12.16 0
v -40.96 -12.16 0
v -40.96 -11.52 0
v -40.32 -11.52 0
v -42.24 -12.16 0
v -42.88 -12.16 0
v -42.88 -11.52 0
v -42.24 -11.52 0
v -42.88 -12.16 0
v -43.52 -12.16 0
v -43.52 -11.52 0
v -42.88 -11.52 0
v -44.8 -12.16 0
v -45.44 -12.16 0
v -45.44 -11.52 0
v -44.8 -11.52 0
v -45.44 -12.16 0
v -46.08 -12.16 0
v -46.08 -11.52 0
v -45.44 -11.52 0
v -37.12 -12.8 0
v -37.76 -12.8 0
v -37.76 -12.16 0
v -37.12 -12.16 0
v -37.76 -12.8 0
v -38.4 -12.8 0
v -38.4 -12.16 0
v -37.76 -12.16 0
v -39.68 -12.8 0
v -40.32 -12.8 0
v -40.32 -12.16 0
v -39.68 -12.16 0
v -40.32 -12.8 0
v -40.96 -12.8 0
v -40.96 -12.16 0
v -40.32 -12.16 0
v -42.24 -12.8 0
v -42.88 -12.8 0
v -42.88 -12.16 0
v -42.24 -12.16 0
v -42.88 -12.8 0
v -43.52 -12.8 0
v -43.52 -12.16 0
v -42.88 -12.16 0
v -44.8 -12.8 0
v -45.44 -12.8 0
v -45.44 -12.16 0
v -44.8 -12.16 0
v -45.44 -12.8 0
v -46.08 -12.8 0
v -46.08 -12.16 0
v -45.44 -12.16 0
v -37.12 -14.72 0
v -37.76 -14.72 0
v -37.76 -14.08 0
v -37.12 -14.08 0
v -37.76 -14.72 0
v -38.4 -14.72 0
v -38.4 -14.08 0
v -37.76 -14.08 0
v -44.8 -14.72 0
v -45.44 -14.72 0
v -45.44 -14.08 0
v -44.8 -14.08 0
v -45.44 -14.72 0
v -46.08 -14.72 0
v -46.08 -14.08 0
v -45.44 -14.08 0
v -37.12 -15.36 0
v -37.76 -15.36 0
v -37.76 -14.72 0
v -37.12 -14.72 0
v -37.76 -15.36 0
v -38.4 -15.36 0
v -38.4 -14.72 0
v -37.76 -14.72 0
v -44.8 -15.36 0
v -45.44 -15.36 0
v -45.44 -14.72 0
v -44.8 -14.72 0
v -45.44 -15.36 0
v -46.08 -15.36 0
v -46.08 -14.72 0
v -45.44 -14.72 0
v -37.12 -17.92 0
v -37.76 -17.92 0
v -37.76 -17.28 0
v -37.12 -17.28 0
v -37.76 -17.92 0
v -38.4 -17.92 0
v -38.4 -17.28 0
v -37.76 -17.28 0
v -44.8 -17.92 0
v -45.44 -17.92 0
v -45.44 -17.28 0
v -44.8 -17.28 0
v -45.44 -17.92 0
v -46.08 -17.92 0
v -46.08 -17.28 0
v -45.44 -17.28 0
v -37.12 -18.56 0
v -37.76 -18.56 0
v -37.76 -17.92 0
v -37.12 -17.92 0
v -37.76 -18.56 0
v -38.4 -18.56 0
v -38.4 -17.92 0
v -37.76 -17.92 0
v -44.8 -18.56 0
v -45.44 -18.56 0
v -45.44 -17.92 0
v -44.8 -17.92 0
v -45.44 -18.56 0
v -46.08 -18.56 0
v -46.08 -17.92 0
v -45.44 -17.92 0
v -37.12 -20.48 0
v -37.76 -20.48 0
v -37.76 -19.84 0
v -37.12 -19.84 0
v -37.76 -20.48 0
v -38.4 -20.48 0
v -38.4 -19.84 0
v -37.76 -19.84 0
v -39.68 -20.48 0
v -40.32 -20.48 0
v -40.32 -19.84 0
v -39.68 -19.84 0
v -40.32 -20.48 0
v -40.96 -20.48 0
v -40.96 -19.84 0
v -40.32 -19.84 0
v -43.52 -20.48 0
v -44.16 -20.48 0
v -44.16 -19.84 0
v -43.52 -19.84 0
v -44.16 -20.48 0
v -44.8 -20.48 0
v -44.8 -19.84 0
v -44.16 -19.84 0
v -37.12 -21.12 0
v -37.76 -21.12 0
v -37.76 -20.48 0
v -37.12 -20.48 0
v -37.76 -21.12 0
v -38.4 -21.12 0
v -38.4 -20.48 0
v -37.76 -20.48 0
v -39.68 -21.12 0
v -40.32 -21.12 0
v -40.32 -20.48 0
v -39.68 -20.48 0
v -40.32 -21.12 0
v -40.96 -21.12 0
v -40.96 -20.48 0
v -40.32 -20.48 0
v -43.52 -21.12 0
v -44.16 -21.12 0
v -44.16 -20.48 0
v -43.52 -20.48 0
v -44.16 -21.12 0
v -44.8 -21.12 0
v -44.8 -20.48 0
v -44.16 -20.48 0
v -37.12 -23.68 0
v -37.76 -23.68 0
v -37.76 -23.04 0
v -37.12 -23.04 0
v -37.76 -23.68 0
v -38.4 -23.68 0
v -38.4 -23.04 0
v -37.76 -23.04 0
v -39.68 -23.68 0
v -40.32 -23.68 0
v -40.32 -23.04 0
v -39.68 -23.04 0
v -40.32 -23.68 0
v -40.96 -23.68 0
v -40.96 -23.04 0
v -40.32 -23.04 0
v -43.52 -23.68 0
v -44.16 -23.68 0
v -44.16 -23.04 0
v -43.52 -23.04 0
v -44.16 -23.68 0
v -44.8 -23.68 0
v -44.8 -23.04 0
v -44.16 -23.04 0
v -37.12 -24.32 0
v -37.76 -24.32 0
v -37.76 -23.68 0
v -37.12 -23.68 0
v -37.76 -24.32 0
v -38.4 -24.32 0
v -38.4 -23.68 0
v -37.76 -23.68 0
v -39.68 -24.32 0
v -40.32 -24.32 0
v -40.32 -23.68 0
v -39.68 -23.68 0
v -40.32 -24.32 0
v -40.96 -24.32 0
v -40.96 -23.68 0
v -40.32 -23.68 0
v -43.52 -24.32 0
v -44.16 -24.32 0
v -44.16 -23.68 0
v -43.52 -23.68 0
v -44.16 -24.32 0
v -44.8 -24.32 0
v -44.8 -23.68 0
v -44.16 -23.68 0
v -37.12 -26.24 0
v -37.76 -26.24 0
v -37.76 -25.6 0
v -37.12 -25.6 0
v -37.76 -26.24 0
v -38.4 -26.24 0
v -38.4 -25.6 0
v -37.76 -25.6 0
v -44.8 -26.24 0
v -45.44 -26.24 0
v -45.44 -25.6 0
v -44.8 -25.6 0
v -45.44 -26.24 0
v -46.08 -26.24 0
v -46.08 -25.6 0
v -45.44 -25.6 0
v -37.12 -26.88 0
v -37.76 -26.88 0
v -37.76 -26.24 0
v -37.12 -26.24 0
v -37.76 -26.88 0
v -38.4 -26.88 0
v -38.4 -26.24 0
v -37.76 -26.24 0
v -40.96 -26.88 0
v -41.6 -26.88 0
v -41.6 -26.24 0
v -40.96 -26.24 0
v -41.6 -26.88 0
v -42.24 -26.88 0
v -42.24 -26.24 0
v -41.6 -26.24 0
v -44.8 -26.88 0
v -45.44 -26.88 0
v -45.44 -26.24 0
v -44.8 -26.24 0
v -45.44 -26.88 0
v -46.08 -26.88 0
v -46.08 -26.24 0
v -45.44 -26.24 0
v -40.96 -27.52 0
v -41.6 -27.52 0
v -41.6 -26.88 0
v -40.96 -26.88 0
v -41.6 -27.52 0
v -42.24 -27.52 0
v -42.24 -26.88 0
v -41.6 -26.88 0
v -37.12 -29.44 0
v -37.76 -29.44 0
v -37.76 -28.8 0
v -37.12 -28.8 0
v -37.76 -29.44 0
v -38.4 -29.44 0
v -38.4 -28.8 0
v -37.76 -28.8 0
v -44.8 -29.44 0
v -45.44 -29.44 0
v -45.44 -28.8 0
v -44.8 -28.8 0
v -45.44 -29.44 0
v -46.08 -29.44 0
v -46.08 -28.8 0
v -45.44 -28.8 0
v -37.12 -30.08 0
v -37.76 -30.08 0
v -37.76 -29.44 0
v -37.12 -29.44 0
v -37.76 -30.08 0
v -38.4 -30.08 0
v -38.4 -29.44 0
v -37.76 -29.44 0
v -44.8 -30.08 0
v -45.44 -30.08 0
v -45.44 -29.44 0
v -44.8 -29.44 0
v -45.44 -30.08 0
v -46.08 -30.08 0
v -46.08 -29.44 0
v -45.44 -29.44 0

# Texture cooridinates (Count = 16)
vt 0.1 0.35
vt 0.15 0.35
vt 0.15 0.4
vt 0.1 0.4
vt 0.35 0.35
vt 0.4 0.35
vt 0.4 0.4
vt 0.35 0.4
vt 0.1 0.1
vt 0.15 0.1
vt 0.15 0.15
vt 0.1 0.15
vt 0.35 0.1
vt 0.4 0.1
vt 0.4 0.15
vt 0.35 0.15

# Normal
vn 0 0 -1

# Mesh description
g GroundFirst_mesh_0047

# Faces
f 1/1/1 2/2/1 3/3/1 4/4/1
f 5/5/1 6/6/1 7/7/1 8/8/1
f 9/9/1 10/10/1 11/11/1 12/12/1
f 13/13/1 14/14/1 15/15/1 16/16/1
f 17/1/1 18/2/1 19/3/1 20/4/1
f 21/5/1 22/6/1 23/7/1 24/8/1
f 25/1/1 26/2/1 27/3/1 28/4/1
f 29/5/1 30/6/1 31/7/1 32/8/1
f 33/1/1 34/2/1 35/3/1 36/4/1
f 37/5/1 38/6/1 39/7/1 40/8/1
f 41/1/1 42/2/1 43/3/1 44/4/1
f 45/5/1 46/6/1 47/7/1 48/8/1
f 49/9/1 50/10/1 51/11/1 52/12/1
f 53/13/1 54/14/1 55/15/1 56/16/1
f 57/9/1 58/10/1 59/11/1 60/12/1
f 61/13/1 62/14/1 63/15/1 64/16/1
f 65/9/1 66/10/1 67/11/1 68/12/1
f 69/13/1 70/14/1 71/15/1 72/16/1
f 73/9/1 74/10/1 75/11/1 76/12/1
f 77/13/1 78/14/1 79/15/1 80/16/1
f 81/1/1 82/2/1 83/3/1 84/4/1
f 85/5/1 86/6/1 87/7/1 88/8/1
f 89/1/1 90/2/1 91/3/1 92/4/1
f 93/5/1 94/6/1 95/7/1 96/8/1
f 97/1/1 98/2/1 99/3/1 100/4/1
f 101/5/1 102/6/1 103/7/1 104/8/1
f 105/1/1 106/2/1 107/3/1 108/4/1
f 109/5/1 110/6/1 111/7/1 112/8/1
f 113/9/1 114/10/1 115/11/1 116/12/1
f 117/13/1 118/14/1 119/15/1 120/16/1
f 121/9/1 122/10/1 123/11/1 124/12/1
f 125/13/1 126/14/1 127/15/1 128/16/1
f 129/9/1 130/10/1 131/11/1 132/12/1
f 133/13/1 134/14/1 135/15/1 136/16/1
f 137/9/1 138/10/1 139/11/1 140/12/1
f 141/13/1 142/14/1 143/15/1 144/16/1
f 145/1/1 146/2/1 147/3/1 148/4/1
f 149/5/1 150/6/1 151/7/1 152/8/1
f 153/1/1 154/2/1 155/3/1 156/4/1
f 157/5/1 158/6/1 159/7/1 160/8/1
f 161/9/1 162/10/1 163/11/1 164/12/1
f 165/13/1 166/14/1 167/15/1 168/16/1
f 169/9/1 170/10/1 171/11/1 172/12/1
f 173/13/1 174/14/1 175/15/1 176/16/1
f 177/1/1 178/2/1 179/3/1 180/4/1
f 181/5/1 182/6/1 183/7/1 184/8/1
f 185/1/1 186/2/1 187/3/1 188/4/1
f 189/5/1 190/6/1 191/7/1 192/8/1
f 193/9/1 194/10/1 195/11/1 196/12/1
f 197/13/1 198/14/1 199/15/1 200/16/1
f 201/9/1 202/10/1 203/11/1 204/12/1
f 205/13/1 206/14/1 207/15/1 208/16/1
f 209/1/1 210/2/1 211/3/1 212/4/1
f 213/5/1 214/6/1 215/7/1 216/8/1
f 217/1/1 218/2/1 219/3/1 220/4/1
f 221/5/1 222/6/1 223/7/1 224/8/1
f 225/1/1 226/2/1 227/3/1 228/4/1
f 229/5/1 230/6/1 231/7/1 232/8/1
f 233/9/1 234/10/1 235/11/1 236/12/1
f 237/13/1 238/14/1 239/15/1 240/16/1
f 241/9/1 242/10/1 243/11/1 244/12/1
f 245/13/1 246/14/1 247/15/1 248/16/1
f 249/9/1 250/10/1 251/11/1 252/12/1
f 253/13/1 254/14/1 255/15/1 256/16/1
f 257/1/1 258/2/1 259/3/1 260/4/1
f 261/5/1 262/6/1 263/7/1 264/8/1
f 265/1/1 266/2/1 267/3/1 268/4/1
f 269/5/1 270/6/1 271/7/1 272/8/1
f 273/1/1 274/2/1 275/3/1 276/4/1
f 277/5/1 278/6/1 279/7/1 280/8/1
f 281/9/1 282/10/1 283/11/1 284/12/1
f 285/13/1 286/14/1 287/15/1 288/16/1
f 289/9/1 290/10/1 291/11/1 292/12/1
f 293/13/1 294/14/1 295/15/1 296/16/1
f 297/9/1 298/10/1 299/11/1 300/12/1
f 301/13/1 302/14/1 303/15/1 304/16/1
f 305/1/1 306/2/1 307/3/1 308/4/1
f 309/5/1 310/6/1 311/7/1 312/8/1
f 313/1/1 314/2/1 315/3/1 316/4/1
f 317/5/1 318/6/1 319/7/1 320/8/1
f 321/9/1 322/10/1 323/11/1 324/12/1
f 325/13/1 326/14/1 327/15/1 328/16/1
f 329/1/1 330/2/1 331/3/1 332/4/1
f 333/5/1 334/6/1 335/7/1 336/8/1
f 337/9/1 338/10/1 339/11/1 340/12/1
f 341/13/1 342/14/1 343/15/1 344/16/1
f 345/9/1 346/10/1 347/11/1 348/12/1
f 349/13/1 350/14/1 351/15/1 352/16/1
f 353/1/1 354/2/1 355/3/1 356/4/1
f 357/5/1 358/6/1 359/7/1 360/8/1
f 361/1/1 362/2/1 363/3/1 364/4/1
f 365/5/1 366/6/1 367/7/1 368/8/1
f 369/9/1 370/10/1 371/11/1 372/12/1
f 373/13/1 374/14/1 375/15/1 376/16/1
f 377/9/1 378/10/1 379/11/1 380/12/1
f 381/13/1 382/14/1 383/15/1 384/16/1

