# Tiled2Unity generated file. Do not modify by hand.
# Wavefront file for 'GroundFirst_mesh_0044.obj'

# Vertices (Count = 64)
v -40.32 -1.92 0
v -40.96 -1.92 0
v -40.96 -1.28 0
v -40.32 -1.28 0
v -40.96 -1.92 0
v -41.6 -1.92 0
v -41.6 -1.28 0
v -40.96 -1.28 0
v -41.6 -1.92 0
v -42.24 -1.92 0
v -42.24 -1.28 0
v -41.6 -1.28 0
v -42.24 -1.92 0
v -42.88 -1.92 0
v -42.88 -1.28 0
v -42.24 -1.28 0
v -40.32 -2.56 0
v -40.96 -2.56 0
v -40.96 -1.92 0
v -40.32 -1.92 0
v -40.96 -2.56 0
v -41.6 -2.56 0
v -41.6 -1.92 0
v -40.96 -1.92 0
v -41.6 -2.56 0
v -42.24 -2.56 0
v -42.24 -1.92 0
v -41.6 -1.92 0
v -42.24 -2.56 0
v -42.88 -2.56 0
v -42.88 -1.92 0
v -42.24 -1.92 0
v -40.32 -3.2 0
v -40.96 -3.2 0
v -40.96 -2.56 0
v -40.32 -2.56 0
v -40.96 -3.2 0
v -41.6 -3.2 0
v -41.6 -2.56 0
v -40.96 -2.56 0
v -41.6 -3.2 0
v -42.24 -3.2 0
v -42.24 -2.56 0
v -41.6 -2.56 0
v -42.24 -3.2 0
v -42.88 -3.2 0
v -42.88 -2.56 0
v -42.24 -2.56 0
v -40.32 -3.84 0
v -40.96 -3.84 0
v -40.96 -3.2 0
v -40.32 -3.2 0
v -40.96 -3.84 0
v -41.6 -3.84 0
v -41.6 -3.2 0
v -40.96 -3.2 0
v -41.6 -3.84 0
v -42.24 -3.84 0
v -42.24 -3.2 0
v -41.6 -3.2 0
v -42.24 -3.84 0
v -42.88 -3.84 0
v -42.88 -3.2 0
v -42.24 -3.2 0

# Texture cooridinates (Count = 24)
vt 0.15625 0.53125
vt 0.1875 0.53125
vt 0.1875 0.5625
vt 0.15625 0.5625
vt 0.21875 0.53125
vt 0.21875 0.5625
vt 0.25 0.53125
vt 0.25 0.5625
vt 0.28125 0.53125
vt 0.28125 0.5625
vt 0.15625 0.5
vt 0.1875 0.5
vt 0.21875 0.5
vt 0.25 0.5
vt 0.28125 0.5
vt 0 0.78125
vt 0.03125 0.78125
vt 0.03125 0.8125
vt 0 0.8125
vt 0.0625 0.78125
vt 0.0625 0.8125
vt 0 0.75
vt 0.03125 0.75
vt 0.0625 0.75

# Normal
vn 0 0 -1

# Mesh description
g GroundFirst_mesh_0044

# Faces
f 1/1/1 2/2/1 3/3/1 4/4/1
f 5/2/1 6/5/1 7/6/1 8/3/1
f 9/5/1 10/7/1 11/8/1 12/6/1
f 13/7/1 14/9/1 15/10/1 16/8/1
f 17/11/1 18/12/1 19/2/1 20/1/1
f 21/12/1 22/13/1 23/5/1 24/2/1
f 25/13/1 26/14/1 27/7/1 28/5/1
f 29/14/1 30/15/1 31/9/1 32/7/1
f 33/16/1 34/17/1 35/18/1 36/19/1
f 37/17/1 38/20/1 39/21/1 40/18/1
f 41/16/1 42/17/1 43/18/1 44/19/1
f 45/17/1 46/20/1 47/21/1 48/18/1
f 49/22/1 50/23/1 51/17/1 52/16/1
f 53/23/1 54/24/1 55/20/1 56/17/1
f 57/22/1 58/23/1 59/17/1 60/16/1
f 61/23/1 62/24/1 63/20/1 64/17/1

