# Tiled2Unity generated file. Do not modify by hand.
# Wavefront file for 'GroundFirst_mesh_0019.obj'

# Vertices (Count = 88)
v -17.28 -7.04 0
v -17.92 -7.04 0
v -17.92 -6.4 0
v -17.28 -6.4 0
v -17.92 -7.04 0
v -18.56 -7.04 0
v -18.56 -6.4 0
v -17.92 -6.4 0
v -18.56 -7.04 0
v -19.2 -7.04 0
v -19.2 -6.4 0
v -18.56 -6.4 0
v -19.2 -7.04 0
v -19.84 -7.04 0
v -19.84 -6.4 0
v -19.2 -6.4 0
v -17.28 -7.68 0
v -17.92 -7.68 0
v -17.92 -7.04 0
v -17.28 -7.04 0
v -17.92 -7.68 0
v -18.56 -7.68 0
v -18.56 -7.04 0
v -17.92 -7.04 0
v -18.56 -7.68 0
v -19.2 -7.68 0
v -19.2 -7.04 0
v -18.56 -7.04 0
v -19.2 -7.68 0
v -19.84 -7.68 0
v -19.84 -7.04 0
v -19.2 -7.04 0
v -17.28 -8.32 0
v -17.92 -8.32 0
v -17.92 -7.68 0
v -17.28 -7.68 0
v -17.92 -8.32 0
v -18.56 -8.32 0
v -18.56 -7.68 0
v -17.92 -7.68 0
v -18.56 -8.32 0
v -19.2 -8.32 0
v -19.2 -7.68 0
v -18.56 -7.68 0
v -19.2 -8.32 0
v -19.84 -8.32 0
v -19.84 -7.68 0
v -19.2 -7.68 0
v -17.28 -8.96 0
v -17.92 -8.96 0
v -17.92 -8.32 0
v -17.28 -8.32 0
v -17.92 -8.96 0
v -18.56 -8.96 0
v -18.56 -8.32 0
v -17.92 -8.32 0
v -18.56 -8.96 0
v -19.2 -8.96 0
v -19.2 -8.32 0
v -18.56 -8.32 0
v -19.2 -8.96 0
v -19.84 -8.96 0
v -19.84 -8.32 0
v -19.2 -8.32 0
v -17.92 -28.8 0
v -18.56 -28.8 0
v -18.56 -28.16 0
v -17.92 -28.16 0
v -18.56 -28.8 0
v -19.2 -28.8 0
v -19.2 -28.16 0
v -18.56 -28.16 0
v -17.92 -29.44 0
v -18.56 -29.44 0
v -18.56 -28.8 0
v -17.92 -28.8 0
v -18.56 -29.44 0
v -19.2 -29.44 0
v -19.2 -28.8 0
v -18.56 -28.8 0
v -17.92 -30.08 0
v -18.56 -30.08 0
v -18.56 -29.44 0
v -17.92 -29.44 0
v -18.56 -30.08 0
v -19.2 -30.08 0
v -19.2 -29.44 0
v -18.56 -29.44 0

# Texture cooridinates (Count = 29)
vt 0.1153846 0.25
vt 0.1538462 0.25
vt 0.1538462 0.1875
vt 0.1153846 0.1875
vt 0.3846154 0.375
vt 0.3846154 0.4375
vt 0.3461539 0.4375
vt 0.3461539 0.375
vt 0.1153846 0.4375
vt 0.1538462 0.4375
vt 0.1538462 0.5
vt 0.1153846 0.5
vt 0 0.3125
vt 0.03846154 0.3125
vt 0.03846154 0.375
vt 0 0.375
vt 0.07692308 0.3125
vt 0.07692308 0.375
vt 0.1923077 0.4375
vt 0.1923077 0.5
vt 0 0.25
vt 0.03846154 0.25
vt 0.07692308 0.25
vt 0.1153846 0.375
vt 0.1538462 0.375
vt 0 0.1875
vt 0.03846154 0.1875
vt 0.07692308 0.1875
vt 0.1923077 0.375

# Normal
vn 0 0 -1

# Mesh description
g GroundFirst_mesh_0019

# Faces
f 1/1/1 2/2/1 3/3/1 4/4/1
f 5/5/1 6/6/1 7/7/1 8/8/1
f 9/5/1 10/6/1 11/7/1 12/8/1
f 13/2/1 14/1/1 15/4/1 16/3/1
f 17/9/1 18/10/1 19/11/1 20/12/1
f 21/13/1 22/14/1 23/15/1 24/16/1
f 25/14/1 26/17/1 27/18/1 28/15/1
f 29/10/1 30/19/1 31/20/1 32/11/1
f 33/9/1 34/10/1 35/11/1 36/12/1
f 37/21/1 38/22/1 39/14/1 40/13/1
f 41/22/1 42/23/1 43/17/1 44/14/1
f 45/10/1 46/19/1 47/20/1 48/11/1
f 49/24/1 50/25/1 51/10/1 52/9/1
f 53/26/1 54/27/1 55/22/1 56/21/1
f 57/27/1 58/28/1 59/23/1 60/22/1
f 61/25/1 62/29/1 63/19/1 64/10/1
f 65/13/1 66/14/1 67/15/1 68/16/1
f 69/14/1 70/17/1 71/18/1 72/15/1
f 73/21/1 74/22/1 75/14/1 76/13/1
f 77/22/1 78/23/1 79/17/1 80/14/1
f 81/26/1 82/27/1 83/22/1 84/21/1
f 85/27/1 86/28/1 87/23/1 88/22/1

