# Tiled2Unity generated file. Do not modify by hand.
# Wavefront file for 'GroundFirst_mesh_0037.obj'

# Vertices (Count = 32)
v -48.64 -71.04 0
v -49.28 -71.04 0
v -49.28 -70.4 0
v -48.64 -70.4 0
v -49.28 -71.04 0
v -49.92 -71.04 0
v -49.92 -70.4 0
v -49.28 -70.4 0
v -49.92 -71.04 0
v -50.56 -71.04 0
v -50.56 -70.4 0
v -49.92 -70.4 0
v -50.56 -71.04 0
v -51.2 -71.04 0
v -51.2 -70.4 0
v -50.56 -70.4 0
v -48.64 -71.68 0
v -49.28 -71.68 0
v -49.28 -71.04 0
v -48.64 -71.04 0
v -49.28 -71.68 0
v -49.92 -71.68 0
v -49.92 -71.04 0
v -49.28 -71.04 0
v -49.92 -71.68 0
v -50.56 -71.68 0
v -50.56 -71.04 0
v -49.92 -71.04 0
v -50.56 -71.68 0
v -51.2 -71.68 0
v -51.2 -71.04 0
v -50.56 -71.04 0

# Texture cooridinates (Count = 9)
vt 0 0.08333331
vt 0.1666667 0.08333331
vt 0.1666667 0.1666667
vt 0 0.1666667
vt 0.3333333 0.08333331
vt 0.3333333 0.1666667
vt 0 0
vt 0.1666667 0
vt 0.3333333 0

# Normal
vn 0 0 -1

# Mesh description
g GroundFirst_mesh_0037

# Faces
f 1/1/1 2/2/1 3/3/1 4/4/1
f 5/2/1 6/5/1 7/6/1 8/3/1
f 9/1/1 10/2/1 11/3/1 12/4/1
f 13/2/1 14/5/1 15/6/1 16/3/1
f 17/7/1 18/8/1 19/2/1 20/1/1
f 21/8/1 22/9/1 23/5/1 24/2/1
f 25/7/1 26/8/1 27/2/1 28/1/1
f 29/8/1 30/9/1 31/5/1 32/2/1

