# Tiled2Unity generated file. Do not modify by hand.
# Wavefront file for 'GroundFirst_mesh_0030.obj'

# Vertices (Count = 48)
v -48.64 -72.32 0
v -49.28 -72.32 0
v -49.28 -71.68 0
v -48.64 -71.68 0
v -49.28 -72.32 0
v -49.92 -72.32 0
v -49.92 -71.68 0
v -49.28 -71.68 0
v -49.92 -72.32 0
v -50.56 -72.32 0
v -50.56 -71.68 0
v -49.92 -71.68 0
v -50.56 -72.32 0
v -51.2 -72.32 0
v -51.2 -71.68 0
v -50.56 -71.68 0
v -48.64 -72.96 0
v -49.28 -72.96 0
v -49.28 -72.32 0
v -48.64 -72.32 0
v -49.28 -72.96 0
v -49.92 -72.96 0
v -49.92 -72.32 0
v -49.28 -72.32 0
v -49.92 -72.96 0
v -50.56 -72.96 0
v -50.56 -72.32 0
v -49.92 -72.32 0
v -50.56 -72.96 0
v -51.2 -72.96 0
v -51.2 -72.32 0
v -50.56 -72.32 0
v -48.64 -73.6 0
v -49.28 -73.6 0
v -49.28 -72.96 0
v -48.64 -72.96 0
v -49.28 -73.6 0
v -49.92 -73.6 0
v -49.92 -72.96 0
v -49.28 -72.96 0
v -49.92 -73.6 0
v -50.56 -73.6 0
v -50.56 -72.96 0
v -49.92 -72.96 0
v -50.56 -73.6 0
v -51.2 -73.6 0
v -51.2 -72.96 0
v -50.56 -72.96 0

# Texture cooridinates (Count = 19)
vt 0.6 0.65
vt 0.65 0.65
vt 0.65 0.7
vt 0.6 0.7
vt 0.7 0.65
vt 0.75 0.65
vt 0.75 0.7
vt 0.7 0.7
vt 0.6 0.6
vt 0.65 0.6
vt 0.7 0.6
vt 0.75 0.6
vt 0.65 0.55
vt 0.7 0.55
vt 0.75 0.55
vt 0.8 0.55
vt 0.8 0.6
vt 0.85 0.55
vt 0.85 0.6

# Normal
vn 0 0 -1

# Mesh description
g GroundFirst_mesh_0030

# Faces
f 1/1/1 2/2/1 3/3/1 4/4/1
f 5/5/1 6/6/1 7/7/1 8/8/1
f 9/5/1 10/6/1 11/7/1 12/8/1
f 13/3/1 14/4/1 15/1/1 16/2/1
f 17/9/1 18/10/1 19/2/1 20/1/1
f 21/11/1 22/12/1 23/6/1 24/5/1
f 25/11/1 26/12/1 27/6/1 28/5/1
f 29/10/1 30/9/1 31/1/1 32/2/1
f 33/13/1 34/14/1 35/11/1 36/10/1
f 37/14/1 38/15/1 39/12/1 40/11/1
f 41/15/1 42/16/1 43/17/1 44/12/1
f 45/16/1 46/18/1 47/19/1 48/17/1

