# Tiled2Unity generated file. Do not modify by hand.
# Wavefront file for 'GroundFirst_mesh_0011.obj'

# Vertices (Count = 328)
v -37.12 -1.92 0
v -37.76 -1.92 0
v -37.76 -1.28 0
v -37.12 -1.28 0
v -37.76 -1.92 0
v -38.4 -1.92 0
v -38.4 -1.28 0
v -37.76 -1.28 0
v -38.4 -1.92 0
v -39.04 -1.92 0
v -39.04 -1.28 0
v -38.4 -1.28 0
v -39.04 -1.92 0
v -39.68 -1.92 0
v -39.68 -1.28 0
v -39.04 -1.28 0
v -39.68 -1.92 0
v -40.32 -1.92 0
v -40.32 -1.28 0
v -39.68 -1.28 0
v -40.32 -1.92 0
v -40.96 -1.92 0
v -40.96 -1.28 0
v -40.32 -1.28 0
v -40.96 -1.92 0
v -41.6 -1.92 0
v -41.6 -1.28 0
v -40.96 -1.28 0
v -41.6 -1.92 0
v -42.24 -1.92 0
v -42.24 -1.28 0
v -41.6 -1.28 0
v -42.24 -1.92 0
v -42.88 -1.92 0
v -42.88 -1.28 0
v -42.24 -1.28 0
v -42.88 -1.92 0
v -43.52 -1.92 0
v -43.52 -1.28 0
v -42.88 -1.28 0
v -43.52 -1.92 0
v -44.16 -1.92 0
v -44.16 -1.28 0
v -43.52 -1.28 0
v -44.16 -1.92 0
v -44.8 -1.92 0
v -44.8 -1.28 0
v -44.16 -1.28 0
v -44.8 -1.92 0
v -45.44 -1.92 0
v -45.44 -1.28 0
v -44.8 -1.28 0
v -45.44 -1.92 0
v -46.08 -1.92 0
v -46.08 -1.28 0
v -45.44 -1.28 0
v -37.12 -2.56 0
v -37.76 -2.56 0
v -37.76 -1.92 0
v -37.12 -1.92 0
v -37.76 -2.56 0
v -38.4 -2.56 0
v -38.4 -1.92 0
v -37.76 -1.92 0
v -38.4 -2.56 0
v -39.04 -2.56 0
v -39.04 -1.92 0
v -38.4 -1.92 0
v -39.04 -2.56 0
v -39.68 -2.56 0
v -39.68 -1.92 0
v -39.04 -1.92 0
v -39.68 -2.56 0
v -40.32 -2.56 0
v -40.32 -1.92 0
v -39.68 -1.92 0
v -40.32 -2.56 0
v -40.96 -2.56 0
v -40.96 -1.92 0
v -40.32 -1.92 0
v -40.96 -2.56 0
v -41.6 -2.56 0
v -41.6 -1.92 0
v -40.96 -1.92 0
v -41.6 -2.56 0
v -42.24 -2.56 0
v -42.24 -1.92 0
v -41.6 -1.92 0
v -42.24 -2.56 0
v -42.88 -2.56 0
v -42.88 -1.92 0
v -42.24 -1.92 0
v -42.88 -2.56 0
v -43.52 -2.56 0
v -43.52 -1.92 0
v -42.88 -1.92 0
v -43.52 -2.56 0
v -44.16 -2.56 0
v -44.16 -1.92 0
v -43.52 -1.92 0
v -44.16 -2.56 0
v -44.8 -2.56 0
v -44.8 -1.92 0
v -44.16 -1.92 0
v -44.8 -2.56 0
v -45.44 -2.56 0
v -45.44 -1.92 0
v -44.8 -1.92 0
v -45.44 -2.56 0
v -46.08 -2.56 0
v -46.08 -1.92 0
v -45.44 -1.92 0
v -37.12 -3.2 0
v -37.76 -3.2 0
v -37.76 -2.56 0
v -37.12 -2.56 0
v -37.76 -3.2 0
v -38.4 -3.2 0
v -38.4 -2.56 0
v -37.76 -2.56 0
v -38.4 -3.2 0
v -39.04 -3.2 0
v -39.04 -2.56 0
v -38.4 -2.56 0
v -39.04 -3.2 0
v -39.68 -3.2 0
v -39.68 -2.56 0
v -39.04 -2.56 0
v -39.68 -3.2 0
v -40.32 -3.2 0
v -40.32 -2.56 0
v -39.68 -2.56 0
v -40.32 -3.2 0
v -40.96 -3.2 0
v -40.96 -2.56 0
v -40.32 -2.56 0
v -40.96 -3.2 0
v -41.6 -3.2 0
v -41.6 -2.56 0
v -40.96 -2.56 0
v -41.6 -3.2 0
v -42.24 -3.2 0
v -42.24 -2.56 0
v -41.6 -2.56 0
v -42.24 -3.2 0
v -42.88 -3.2 0
v -42.88 -2.56 0
v -42.24 -2.56 0
v -42.88 -3.2 0
v -43.52 -3.2 0
v -43.52 -2.56 0
v -42.88 -2.56 0
v -43.52 -3.2 0
v -44.16 -3.2 0
v -44.16 -2.56 0
v -43.52 -2.56 0
v -44.16 -3.2 0
v -44.8 -3.2 0
v -44.8 -2.56 0
v -44.16 -2.56 0
v -44.8 -3.2 0
v -45.44 -3.2 0
v -45.44 -2.56 0
v -44.8 -2.56 0
v -45.44 -3.2 0
v -46.08 -3.2 0
v -46.08 -2.56 0
v -45.44 -2.56 0
v -37.12 -3.84 0
v -37.76 -3.84 0
v -37.76 -3.2 0
v -37.12 -3.2 0
v -37.76 -3.84 0
v -38.4 -3.84 0
v -38.4 -3.2 0
v -37.76 -3.2 0
v -38.4 -3.84 0
v -39.04 -3.84 0
v -39.04 -3.2 0
v -38.4 -3.2 0
v -39.04 -3.84 0
v -39.68 -3.84 0
v -39.68 -3.2 0
v -39.04 -3.2 0
v -39.68 -3.84 0
v -40.32 -3.84 0
v -40.32 -3.2 0
v -39.68 -3.2 0
v -40.32 -3.84 0
v -40.96 -3.84 0
v -40.96 -3.2 0
v -40.32 -3.2 0
v -40.96 -3.84 0
v -41.6 -3.84 0
v -41.6 -3.2 0
v -40.96 -3.2 0
v -41.6 -3.84 0
v -42.24 -3.84 0
v -42.24 -3.2 0
v -41.6 -3.2 0
v -42.24 -3.84 0
v -42.88 -3.84 0
v -42.88 -3.2 0
v -42.24 -3.2 0
v -42.88 -3.84 0
v -43.52 -3.84 0
v -43.52 -3.2 0
v -42.88 -3.2 0
v -43.52 -3.84 0
v -44.16 -3.84 0
v -44.16 -3.2 0
v -43.52 -3.2 0
v -44.16 -3.84 0
v -44.8 -3.84 0
v -44.8 -3.2 0
v -44.16 -3.2 0
v -44.8 -3.84 0
v -45.44 -3.84 0
v -45.44 -3.2 0
v -44.8 -3.2 0
v -45.44 -3.84 0
v -46.08 -3.84 0
v -46.08 -3.2 0
v -45.44 -3.2 0
v -37.12 -4.48 0
v -37.76 -4.48 0
v -37.76 -3.84 0
v -37.12 -3.84 0
v -37.76 -4.48 0
v -38.4 -4.48 0
v -38.4 -3.84 0
v -37.76 -3.84 0
v -38.4 -4.48 0
v -39.04 -4.48 0
v -39.04 -3.84 0
v -38.4 -3.84 0
v -39.04 -4.48 0
v -39.68 -4.48 0
v -39.68 -3.84 0
v -39.04 -3.84 0
v -39.68 -4.48 0
v -40.32 -4.48 0
v -40.32 -3.84 0
v -39.68 -3.84 0
v -40.32 -4.48 0
v -40.96 -4.48 0
v -40.96 -3.84 0
v -40.32 -3.84 0
v -40.96 -4.48 0
v -41.6 -4.48 0
v -41.6 -3.84 0
v -40.96 -3.84 0
v -41.6 -4.48 0
v -42.24 -4.48 0
v -42.24 -3.84 0
v -41.6 -3.84 0
v -42.24 -4.48 0
v -42.88 -4.48 0
v -42.88 -3.84 0
v -42.24 -3.84 0
v -42.88 -4.48 0
v -43.52 -4.48 0
v -43.52 -3.84 0
v -42.88 -3.84 0
v -43.52 -4.48 0
v -44.16 -4.48 0
v -44.16 -3.84 0
v -43.52 -3.84 0
v -44.16 -4.48 0
v -44.8 -4.48 0
v -44.8 -3.84 0
v -44.16 -3.84 0
v -44.8 -4.48 0
v -45.44 -4.48 0
v -45.44 -3.84 0
v -44.8 -3.84 0
v -45.44 -4.48 0
v -46.08 -4.48 0
v -46.08 -3.84 0
v -45.44 -3.84 0
v -37.12 -5.12 0
v -37.76 -5.12 0
v -37.76 -4.48 0
v -37.12 -4.48 0
v -37.76 -5.12 0
v -38.4 -5.12 0
v -38.4 -4.48 0
v -37.76 -4.48 0
v -38.4 -5.12 0
v -39.04 -5.12 0
v -39.04 -4.48 0
v -38.4 -4.48 0
v -39.04 -5.12 0
v -39.68 -5.12 0
v -39.68 -4.48 0
v -39.04 -4.48 0
v -39.68 -5.12 0
v -40.32 -5.12 0
v -40.32 -4.48 0
v -39.68 -4.48 0
v -40.32 -5.12 0
v -40.96 -5.12 0
v -40.96 -4.48 0
v -40.32 -4.48 0
v -40.96 -5.12 0
v -41.6 -5.12 0
v -41.6 -4.48 0
v -40.96 -4.48 0
v -41.6 -5.12 0
v -42.24 -5.12 0
v -42.24 -4.48 0
v -41.6 -4.48 0
v -42.24 -5.12 0
v -42.88 -5.12 0
v -42.88 -4.48 0
v -42.24 -4.48 0
v -42.88 -5.12 0
v -43.52 -5.12 0
v -43.52 -4.48 0
v -42.88 -4.48 0
v -43.52 -5.12 0
v -44.16 -5.12 0
v -44.16 -4.48 0
v -43.52 -4.48 0
v -44.16 -5.12 0
v -44.8 -5.12 0
v -44.8 -4.48 0
v -44.16 -4.48 0

# Texture cooridinates (Count = 74)
vt 0.53125 0.5
vt 0.53125 0.46875
vt 0.5625 0.46875
vt 0.5625 0.5
vt 0.53125 0.4375
vt 0.5625 0.4375
vt 0.5 0.46875
vt 0.5 0.4375
vt 0.5 0.5
vt 0.375 0.625
vt 0.40625 0.625
vt 0.40625 0.65625
vt 0.375 0.65625
vt 0.28125 0.6875
vt 0.3125 0.6875
vt 0.3125 0.71875
vt 0.28125 0.71875
vt 0.34375 0.6875
vt 0.34375 0.71875
vt 0.375 0.6875
vt 0.375 0.71875
vt 0.40625 0.6875
vt 0.40625 0.71875
vt 0.3125 0.65625
vt 0.34375 0.65625
vt 0.6875 0.59375
vt 0.71875 0.59375
vt 0.71875 0.625
vt 0.6875 0.625
vt 0.75 0.59375
vt 0.75 0.625
vt 0.25 0.65625
vt 0.28125 0.65625
vt 0.25 0.6875
vt 0.4375 0.65625
vt 0.4375 0.6875
vt 0.78125 0.59375
vt 0.78125 0.625
vt 0.8125 0.59375
vt 0.8125 0.625
vt 0.3125 0.625
vt 0.34375 0.625
vt 0.6875 0.5625
vt 0.71875 0.5625
vt 0.75 0.5625
vt 0.25 0.625
vt 0.28125 0.625
vt 0.4375 0.625
vt 0.78125 0.5625
vt 0.8125 0.5625
vt 0.3125 0.59375
vt 0.34375 0.59375
vt 0.375 0.59375
vt 0.6875 0.53125
vt 0.71875 0.53125
vt 0.75 0.53125
vt 0.25 0.59375
vt 0.28125 0.59375
vt 0.40625 0.59375
vt 0.4375 0.59375
vt 0.78125 0.53125
vt 0.8125 0.53125
vt 0.3125 0.5625
vt 0.34375 0.5625
vt 0.375 0.5625
vt 0.6875 0.5
vt 0.71875 0.5
vt 0.75 0.5
vt 0.25 0.5625
vt 0.28125 0.5625
vt 0.40625 0.5625
vt 0.4375 0.5625
vt 0.78125 0.5
vt 0.8125 0.5

# Normal
vn 0 0 -1

# Mesh description
g GroundFirst_mesh_0011

# Faces
f 1/1/1 2/2/1 3/3/1 4/4/1
f 5/2/1 6/5/1 7/6/1 8/3/1
f 9/1/1 10/2/1 11/3/1 12/4/1
f 13/5/1 14/2/1 15/7/1 16/8/1
f 17/5/1 18/2/1 19/7/1 20/8/1
f 21/5/1 22/2/1 23/7/1 24/8/1
f 25/5/1 26/2/1 27/7/1 28/8/1
f 29/5/1 30/2/1 31/7/1 32/8/1
f 33/5/1 34/2/1 35/7/1 36/8/1
f 37/5/1 38/2/1 39/7/1 40/8/1
f 41/2/1 42/1/1 43/9/1 44/7/1
f 45/2/1 46/5/1 47/6/1 48/3/1
f 49/1/1 50/2/1 51/3/1 52/4/1
f 53/2/1 54/5/1 55/6/1 56/3/1
f 57/9/1 58/7/1 59/2/1 60/1/1
f 61/7/1 62/8/1 63/5/1 64/2/1
f 65/9/1 66/7/1 67/2/1 68/1/1
f 69/7/1 70/8/1 71/5/1 72/2/1
f 73/10/1 74/11/1 75/12/1 76/13/1
f 77/14/1 78/15/1 79/16/1 80/17/1
f 81/15/1 82/18/1 83/19/1 84/16/1
f 85/18/1 86/20/1 87/21/1 88/19/1
f 89/20/1 90/22/1 91/23/1 92/21/1
f 93/10/1 94/11/1 95/12/1 96/13/1
f 97/9/1 98/7/1 99/2/1 100/1/1
f 101/7/1 102/8/1 103/5/1 104/2/1
f 105/24/1 106/25/1 107/18/1 108/15/1
f 109/25/1 110/13/1 111/20/1 112/18/1
f 113/26/1 114/27/1 115/28/1 116/29/1
f 117/27/1 118/30/1 119/31/1 120/28/1
f 121/26/1 122/27/1 123/28/1 124/29/1
f 125/27/1 126/30/1 127/31/1 128/28/1
f 129/32/1 130/33/1 131/14/1 132/34/1
f 133/33/1 134/24/1 135/15/1 136/14/1
f 137/24/1 138/25/1 139/18/1 140/15/1
f 141/25/1 142/13/1 143/20/1 144/18/1
f 145/13/1 146/12/1 147/22/1 148/20/1
f 149/12/1 150/35/1 151/36/1 152/22/1
f 153/30/1 154/37/1 155/38/1 156/31/1
f 157/37/1 158/39/1 159/40/1 160/38/1
f 161/41/1 162/42/1 163/25/1 164/24/1
f 165/42/1 166/10/1 167/13/1 168/25/1
f 169/43/1 170/44/1 171/27/1 172/26/1
f 173/44/1 174/45/1 175/30/1 176/27/1
f 177/43/1 178/44/1 179/27/1 180/26/1
f 181/44/1 182/45/1 183/30/1 184/27/1
f 185/46/1 186/47/1 187/33/1 188/32/1
f 189/47/1 190/41/1 191/24/1 192/33/1
f 193/41/1 194/42/1 195/25/1 196/24/1
f 197/42/1 198/10/1 199/13/1 200/25/1
f 201/10/1 202/11/1 203/12/1 204/13/1
f 205/11/1 206/48/1 207/35/1 208/12/1
f 209/45/1 210/49/1 211/37/1 212/30/1
f 213/49/1 214/50/1 215/39/1 216/37/1
f 217/51/1 218/52/1 219/42/1 220/41/1
f 221/52/1 222/53/1 223/10/1 224/42/1
f 225/54/1 226/55/1 227/44/1 228/43/1
f 229/55/1 230/56/1 231/45/1 232/44/1
f 233/54/1 234/55/1 235/44/1 236/43/1
f 237/55/1 238/56/1 239/45/1 240/44/1
f 241/57/1 242/58/1 243/47/1 244/46/1
f 245/58/1 246/51/1 247/41/1 248/47/1
f 249/51/1 250/52/1 251/42/1 252/41/1
f 253/52/1 254/53/1 255/10/1 256/42/1
f 257/53/1 258/59/1 259/11/1 260/10/1
f 261/59/1 262/60/1 263/48/1 264/11/1
f 265/56/1 266/61/1 267/49/1 268/45/1
f 269/61/1 270/62/1 271/50/1 272/49/1
f 273/63/1 274/64/1 275/52/1 276/51/1
f 277/64/1 278/65/1 279/53/1 280/52/1
f 281/66/1 282/67/1 283/55/1 284/54/1
f 285/67/1 286/68/1 287/56/1 288/55/1
f 289/66/1 290/67/1 291/55/1 292/54/1
f 293/67/1 294/68/1 295/56/1 296/55/1
f 297/69/1 298/70/1 299/58/1 300/57/1
f 301/70/1 302/63/1 303/51/1 304/58/1
f 305/63/1 306/64/1 307/52/1 308/51/1
f 309/64/1 310/65/1 311/53/1 312/52/1
f 313/65/1 314/71/1 315/59/1 316/53/1
f 317/71/1 318/72/1 319/60/1 320/59/1
f 321/68/1 322/73/1 323/61/1 324/56/1
f 325/73/1 326/74/1 327/62/1 328/61/1

