# Tiled2Unity generated file. Do not modify by hand.
# Wavefront file for 'GroundFirst_mesh_0042.obj'

# Vertices (Count = 64)
v -48 -70.4 0
v -48.64 -70.4 0
v -48.64 -69.76 0
v -48 -69.76 0
v -48.64 -70.4 0
v -49.28 -70.4 0
v -49.28 -69.76 0
v -48.64 -69.76 0
v -49.28 -70.4 0
v -49.92 -70.4 0
v -49.92 -69.76 0
v -49.28 -69.76 0
v -49.92 -70.4 0
v -50.56 -70.4 0
v -50.56 -69.76 0
v -49.92 -69.76 0
v -50.56 -70.4 0
v -51.2 -70.4 0
v -51.2 -69.76 0
v -50.56 -69.76 0
v -51.2 -70.4 0
v -51.84 -70.4 0
v -51.84 -69.76 0
v -51.2 -69.76 0
v -48 -71.04 0
v -48.64 -71.04 0
v -48.64 -70.4 0
v -48 -70.4 0
v -51.2 -71.04 0
v -51.84 -71.04 0
v -51.84 -70.4 0
v -51.2 -70.4 0
v -48 -71.68 0
v -48.64 -71.68 0
v -48.64 -71.04 0
v -48 -71.04 0
v -51.2 -71.68 0
v -51.84 -71.68 0
v -51.84 -71.04 0
v -51.2 -71.04 0
v -48 -72.32 0
v -48.64 -72.32 0
v -48.64 -71.68 0
v -48 -71.68 0
v -48.64 -72.32 0
v -49.28 -72.32 0
v -49.28 -71.68 0
v -48.64 -71.68 0
v -49.28 -72.32 0
v -49.92 -72.32 0
v -49.92 -71.68 0
v -49.28 -71.68 0
v -49.92 -72.32 0
v -50.56 -72.32 0
v -50.56 -71.68 0
v -49.92 -71.68 0
v -50.56 -72.32 0
v -51.2 -72.32 0
v -51.2 -71.68 0
v -50.56 -71.68 0
v -51.2 -72.32 0
v -51.84 -72.32 0
v -51.84 -71.68 0
v -51.2 -71.68 0

# Texture cooridinates (Count = 12)
vt 0.2 0.35
vt 0.2 0.4
vt 0.25 0.4
vt 0.25 0.35
vt 0.2 0.55
vt 0.2 0.5
vt 0.25 0.5
vt 0.25 0.55
vt 0.45 0.5
vt 0.5 0.5
vt 0.5 0.55
vt 0.45 0.55

# Normal
vn 0 0 -1

# Mesh description
g GroundFirst_mesh_0042

# Faces
f 1/1/1 2/2/1 3/3/1 4/4/1
f 5/5/1 6/6/1 7/7/1 8/8/1
f 9/5/1 10/6/1 11/7/1 12/8/1
f 13/5/1 14/6/1 15/7/1 16/8/1
f 17/5/1 18/6/1 19/7/1 20/8/1
f 21/2/1 22/1/1 23/4/1 24/3/1
f 25/9/1 26/10/1 27/11/1 28/12/1
f 29/11/1 30/12/1 31/9/1 32/10/1
f 33/9/1 34/10/1 35/11/1 36/12/1
f 37/11/1 38/12/1 39/9/1 40/10/1
f 41/4/1 42/3/1 43/2/1 44/1/1
f 45/7/1 46/8/1 47/5/1 48/6/1
f 49/7/1 50/8/1 51/5/1 52/6/1
f 53/7/1 54/8/1 55/5/1 56/6/1
f 57/7/1 58/8/1 59/5/1 60/6/1
f 61/3/1 62/4/1 63/1/1 64/2/1

