# Tiled2Unity generated file. Do not modify by hand.
# Wavefront file for 'GroundFirst_mesh_0058.obj'

# Vertices (Count = 32)
v -16.64 -35.84 0
v -17.28 -35.84 0
v -17.28 -35.2 0
v -16.64 -35.2 0
v -17.28 -35.84 0
v -17.92 -35.84 0
v -17.92 -35.2 0
v -17.28 -35.2 0
v -23.68 -35.84 0
v -24.32 -35.84 0
v -24.32 -35.2 0
v -23.68 -35.2 0
v -24.32 -35.84 0
v -24.96 -35.84 0
v -24.96 -35.2 0
v -24.32 -35.2 0
v -16.64 -36.48 0
v -17.28 -36.48 0
v -17.28 -35.84 0
v -16.64 -35.84 0
v -17.28 -36.48 0
v -17.92 -36.48 0
v -17.92 -35.84 0
v -17.28 -35.84 0
v -23.68 -36.48 0
v -24.32 -36.48 0
v -24.32 -35.84 0
v -23.68 -35.84 0
v -24.32 -36.48 0
v -24.96 -36.48 0
v -24.96 -35.84 0
v -24.32 -35.84 0

# Texture cooridinates (Count = 9)
vt 0.3333333 0.5
vt 0.5 0.5
vt 0.5 0.75
vt 0.3333333 0.75
vt 0.6666667 0.5
vt 0.6666667 0.75
vt 0.3333333 0.25
vt 0.5 0.25
vt 0.6666667 0.25

# Normal
vn 0 0 -1

# Mesh description
g GroundFirst_mesh_0058

# Faces
f 1/1/1 2/2/1 3/3/1 4/4/1
f 5/2/1 6/5/1 7/6/1 8/3/1
f 9/1/1 10/2/1 11/3/1 12/4/1
f 13/2/1 14/5/1 15/6/1 16/3/1
f 17/7/1 18/8/1 19/2/1 20/1/1
f 21/8/1 22/9/1 23/5/1 24/2/1
f 25/7/1 26/8/1 27/2/1 28/1/1
f 29/8/1 30/9/1 31/5/1 32/2/1

