# Tiled2Unity generated file. Do not modify by hand.
# Wavefront file for 'GroundFirst_mesh_0039.obj'

# Vertices (Count = 16)
v -16.64 -97.92 0
v -17.28 -97.92 0
v -17.28 -97.28 0
v -16.64 -97.28 0
v -30.08 -97.92 0
v -30.72 -97.92 0
v -30.72 -97.28 0
v -30.08 -97.28 0
v -16.64 -98.56 0
v -17.28 -98.56 0
v -17.28 -97.92 0
v -16.64 -97.92 0
v -30.08 -98.56 0
v -30.72 -98.56 0
v -30.72 -97.92 0
v -30.08 -97.92 0

# Texture cooridinates (Count = 4)
vt 0.25 0.55
vt 0.2 0.55
vt 0.2 0.5
vt 0.25 0.5

# Normal
vn 0 0 -1

# Mesh description
g GroundFirst_mesh_0039

# Faces
f 1/1/1 2/2/1 3/3/1 4/4/1
f 5/3/1 6/4/1 7/1/1 8/2/1
f 9/1/1 10/2/1 11/3/1 12/4/1
f 13/3/1 14/4/1 15/1/1 16/2/1

