# Tiled2Unity generated file. Do not modify by hand.
# Wavefront file for 'GroundFirst_mesh_0021.obj'

# Vertices (Count = 240)
v -26.24 -39.04 0
v -26.88 -39.04 0
v -26.88 -38.4 0
v -26.24 -38.4 0
v -26.88 -39.04 0
v -27.52 -39.04 0
v -27.52 -38.4 0
v -26.88 -38.4 0
v -27.52 -39.04 0
v -28.16 -39.04 0
v -28.16 -38.4 0
v -27.52 -38.4 0
v -28.16 -39.04 0
v -28.8 -39.04 0
v -28.8 -38.4 0
v -28.16 -38.4 0
v -26.24 -39.68 0
v -26.88 -39.68 0
v -26.88 -39.04 0
v -26.24 -39.04 0
v -26.88 -39.68 0
v -27.52 -39.68 0
v -27.52 -39.04 0
v -26.88 -39.04 0
v -27.52 -39.68 0
v -28.16 -39.68 0
v -28.16 -39.04 0
v -27.52 -39.04 0
v -28.16 -39.68 0
v -28.8 -39.68 0
v -28.8 -39.04 0
v -28.16 -39.04 0
v -26.24 -40.32 0
v -26.88 -40.32 0
v -26.88 -39.68 0
v -26.24 -39.68 0
v -26.88 -40.32 0
v -27.52 -40.32 0
v -27.52 -39.68 0
v -26.88 -39.68 0
v -27.52 -40.32 0
v -28.16 -40.32 0
v -28.16 -39.68 0
v -27.52 -39.68 0
v -28.16 -40.32 0
v -28.8 -40.32 0
v -28.8 -39.68 0
v -28.16 -39.68 0
v -26.24 -40.96 0
v -26.88 -40.96 0
v -26.88 -40.32 0
v -26.24 -40.32 0
v -26.88 -40.96 0
v -27.52 -40.96 0
v -27.52 -40.32 0
v -26.88 -40.32 0
v -27.52 -40.96 0
v -28.16 -40.96 0
v -28.16 -40.32 0
v -27.52 -40.32 0
v -28.16 -40.96 0
v -28.8 -40.96 0
v -28.8 -40.32 0
v -28.16 -40.32 0
v -26.24 -41.6 0
v -26.88 -41.6 0
v -26.88 -40.96 0
v -26.24 -40.96 0
v -26.88 -41.6 0
v -27.52 -41.6 0
v -27.52 -40.96 0
v -26.88 -40.96 0
v -27.52 -41.6 0
v -28.16 -41.6 0
v -28.16 -40.96 0
v -27.52 -40.96 0
v -28.16 -41.6 0
v -28.8 -41.6 0
v -28.8 -40.96 0
v -28.16 -40.96 0
v -53.76 -56.96 0
v -54.4 -56.96 0
v -54.4 -56.32 0
v -53.76 -56.32 0
v -54.4 -56.96 0
v -55.04 -56.96 0
v -55.04 -56.32 0
v -54.4 -56.32 0
v -55.04 -56.96 0
v -55.68 -56.96 0
v -55.68 -56.32 0
v -55.04 -56.32 0
v -55.68 -56.96 0
v -56.32 -56.96 0
v -56.32 -56.32 0
v -55.68 -56.32 0
v -53.76 -57.6 0
v -54.4 -57.6 0
v -54.4 -56.96 0
v -53.76 -56.96 0
v -54.4 -57.6 0
v -55.04 -57.6 0
v -55.04 -56.96 0
v -54.4 -56.96 0
v -55.04 -57.6 0
v -55.68 -57.6 0
v -55.68 -56.96 0
v -55.04 -56.96 0
v -55.68 -57.6 0
v -56.32 -57.6 0
v -56.32 -56.96 0
v -55.68 -56.96 0
v -53.76 -58.24 0
v -54.4 -58.24 0
v -54.4 -57.6 0
v -53.76 -57.6 0
v -54.4 -58.24 0
v -55.04 -58.24 0
v -55.04 -57.6 0
v -54.4 -57.6 0
v -55.04 -58.24 0
v -55.68 -58.24 0
v -55.68 -57.6 0
v -55.04 -57.6 0
v -55.68 -58.24 0
v -56.32 -58.24 0
v -56.32 -57.6 0
v -55.68 -57.6 0
v -53.76 -58.88 0
v -54.4 -58.88 0
v -54.4 -58.24 0
v -53.76 -58.24 0
v -54.4 -58.88 0
v -55.04 -58.88 0
v -55.04 -58.24 0
v -54.4 -58.24 0
v -55.04 -58.88 0
v -55.68 -58.88 0
v -55.68 -58.24 0
v -55.04 -58.24 0
v -55.68 -58.88 0
v -56.32 -58.88 0
v -56.32 -58.24 0
v -55.68 -58.24 0
v -53.76 -65.28 0
v -54.4 -65.28 0
v -54.4 -64.64 0
v -53.76 -64.64 0
v -54.4 -65.28 0
v -55.04 -65.28 0
v -55.04 -64.64 0
v -54.4 -64.64 0
v -55.04 -65.28 0
v -55.68 -65.28 0
v -55.68 -64.64 0
v -55.04 -64.64 0
v -55.68 -65.28 0
v -56.32 -65.28 0
v -56.32 -64.64 0
v -55.68 -64.64 0
v -53.76 -65.92 0
v -54.4 -65.92 0
v -54.4 -65.28 0
v -53.76 -65.28 0
v -54.4 -65.92 0
v -55.04 -65.92 0
v -55.04 -65.28 0
v -54.4 -65.28 0
v -55.04 -65.92 0
v -55.68 -65.92 0
v -55.68 -65.28 0
v -55.04 -65.28 0
v -55.68 -65.92 0
v -56.32 -65.92 0
v -56.32 -65.28 0
v -55.68 -65.28 0
v -53.76 -66.56 0
v -54.4 -66.56 0
v -54.4 -65.92 0
v -53.76 -65.92 0
v -54.4 -66.56 0
v -55.04 -66.56 0
v -55.04 -65.92 0
v -54.4 -65.92 0
v -55.04 -66.56 0
v -55.68 -66.56 0
v -55.68 -65.92 0
v -55.04 -65.92 0
v -55.68 -66.56 0
v -56.32 -66.56 0
v -56.32 -65.92 0
v -55.68 -65.92 0
v -53.76 -67.2 0
v -54.4 -67.2 0
v -54.4 -66.56 0
v -53.76 -66.56 0
v -54.4 -67.2 0
v -55.04 -67.2 0
v -55.04 -66.56 0
v -54.4 -66.56 0
v -55.04 -67.2 0
v -55.68 -67.2 0
v -55.68 -66.56 0
v -55.04 -66.56 0
v -55.68 -67.2 0
v -56.32 -67.2 0
v -56.32 -66.56 0
v -55.68 -66.56 0
v -26.24 -68.48 0
v -26.88 -68.48 0
v -26.88 -67.84 0
v -26.24 -67.84 0
v -26.88 -68.48 0
v -27.52 -68.48 0
v -27.52 -67.84 0
v -26.88 -67.84 0
v -27.52 -68.48 0
v -28.16 -68.48 0
v -28.16 -67.84 0
v -27.52 -67.84 0
v -28.16 -68.48 0
v -28.8 -68.48 0
v -28.8 -67.84 0
v -28.16 -67.84 0
v -26.24 -69.12 0
v -26.88 -69.12 0
v -26.88 -68.48 0
v -26.24 -68.48 0
v -26.88 -69.12 0
v -27.52 -69.12 0
v -27.52 -68.48 0
v -26.88 -68.48 0
v -27.52 -69.12 0
v -28.16 -69.12 0
v -28.16 -68.48 0
v -27.52 -68.48 0
v -28.16 -69.12 0
v -28.8 -69.12 0
v -28.8 -68.48 0
v -28.16 -68.48 0

# Texture cooridinates (Count = 50)
vt 0.2 0.75
vt 0.3 0.75
vt 0.3 0.875
vt 0.2 0.875
vt 0.4 0.75
vt 0.4 0.875
vt 0.5 0.75
vt 0.5 0.875
vt 0.6 0.75
vt 0.6 0.875
vt 0.2 0.625
vt 0.3 0.625
vt 0.4 0.625
vt 0.5 0.625
vt 0.6 0.625
vt 0.2 0.5
vt 0.3 0.5
vt 0.4 0.5
vt 0.5 0.5
vt 0.6 0.5
vt 0.2 0.375
vt 0.3 0.375
vt 0.4 0.375
vt 0.5 0.375
vt 0.6 0.375
vt 0.2 0.25
vt 0.3 0.25
vt 0.4 0.25
vt 0.5 0.25
vt 0.6 0.25
vt 0 0.375
vt 0.1 0.375
vt 0.1 0.5
vt 0 0.5
vt 0 0.25
vt 0.1 0.25
vt 0 0.125
vt 0.1 0.125
vt 0.2 0.125
vt 0 0
vt 0.1 0
vt 0.2 0
vt 0.3 0.125
vt 0.4 0.125
vt 0.5 0.125
vt 0.6 0.125
vt 0.3 0
vt 0.4 0
vt 0.5 0
vt 0.6 0

# Normal
vn 0 0 -1

# Mesh description
g GroundFirst_mesh_0021

# Faces
f 1/1/1 2/2/1 3/3/1 4/4/1
f 5/2/1 6/5/1 7/6/1 8/3/1
f 9/5/1 10/7/1 11/8/1 12/6/1
f 13/7/1 14/9/1 15/10/1 16/8/1
f 17/11/1 18/12/1 19/2/1 20/1/1
f 21/12/1 22/13/1 23/5/1 24/2/1
f 25/13/1 26/14/1 27/7/1 28/5/1
f 29/14/1 30/15/1 31/9/1 32/7/1
f 33/16/1 34/17/1 35/12/1 36/11/1
f 37/17/1 38/18/1 39/13/1 40/12/1
f 41/18/1 42/19/1 43/14/1 44/13/1
f 45/19/1 46/20/1 47/15/1 48/14/1
f 49/21/1 50/22/1 51/17/1 52/16/1
f 53/22/1 54/23/1 55/18/1 56/17/1
f 57/23/1 58/24/1 59/19/1 60/18/1
f 61/24/1 62/25/1 63/20/1 64/19/1
f 65/26/1 66/27/1 67/22/1 68/21/1
f 69/27/1 70/28/1 71/23/1 72/22/1
f 73/28/1 74/29/1 75/24/1 76/23/1
f 77/29/1 78/30/1 79/25/1 80/24/1
f 81/31/1 82/32/1 83/33/1 84/34/1
f 85/31/1 86/32/1 87/33/1 88/34/1
f 89/32/1 90/21/1 91/16/1 92/33/1
f 93/32/1 94/21/1 95/16/1 96/33/1
f 97/35/1 98/36/1 99/32/1 100/31/1
f 101/35/1 102/36/1 103/32/1 104/31/1
f 105/36/1 106/26/1 107/21/1 108/32/1
f 109/36/1 110/26/1 111/21/1 112/32/1
f 113/37/1 114/38/1 115/36/1 116/35/1
f 117/37/1 118/38/1 119/36/1 120/35/1
f 121/38/1 122/39/1 123/26/1 124/36/1
f 125/38/1 126/39/1 127/26/1 128/36/1
f 129/40/1 130/41/1 131/38/1 132/37/1
f 133/40/1 134/41/1 135/38/1 136/37/1
f 137/41/1 138/42/1 139/39/1 140/38/1
f 141/41/1 142/42/1 143/39/1 144/38/1
f 145/31/1 146/32/1 147/33/1 148/34/1
f 149/31/1 150/32/1 151/33/1 152/34/1
f 153/32/1 154/21/1 155/16/1 156/33/1
f 157/32/1 158/21/1 159/16/1 160/33/1
f 161/35/1 162/36/1 163/32/1 164/31/1
f 165/35/1 166/36/1 167/32/1 168/31/1
f 169/36/1 170/26/1 171/21/1 172/32/1
f 173/36/1 174/26/1 175/21/1 176/32/1
f 177/37/1 178/38/1 179/36/1 180/35/1
f 181/37/1 182/38/1 183/36/1 184/35/1
f 185/38/1 186/39/1 187/26/1 188/36/1
f 189/38/1 190/39/1 191/26/1 192/36/1
f 193/40/1 194/41/1 195/38/1 196/37/1
f 197/40/1 198/41/1 199/38/1 200/37/1
f 201/41/1 202/42/1 203/39/1 204/38/1
f 205/41/1 206/42/1 207/39/1 208/38/1
f 209/39/1 210/43/1 211/27/1 212/26/1
f 213/43/1 214/44/1 215/28/1 216/27/1
f 217/44/1 218/45/1 219/29/1 220/28/1
f 221/45/1 222/46/1 223/30/1 224/29/1
f 225/42/1 226/47/1 227/43/1 228/39/1
f 229/47/1 230/48/1 231/44/1 232/43/1
f 233/48/1 234/49/1 235/45/1 236/44/1
f 237/49/1 238/50/1 239/46/1 240/45/1

