# Tiled2Unity generated file. Do not modify by hand.
# Wavefront file for 'GroundFirst_mesh_0009.obj'

# Vertices (Count = 32)
v -44.16 -99.2 0
v -44.8 -99.2 0
v -44.8 -98.56 0
v -44.16 -98.56 0
v -44.8 -99.2 0
v -45.44 -99.2 0
v -45.44 -98.56 0
v -44.8 -98.56 0
v -44.16 -99.84 0
v -44.8 -99.84 0
v -44.8 -99.2 0
v -44.16 -99.2 0
v -44.8 -99.84 0
v -45.44 -99.84 0
v -45.44 -99.2 0
v -44.8 -99.2 0
v -54.4 -104.32 0
v -55.04 -104.32 0
v -55.04 -103.68 0
v -54.4 -103.68 0
v -55.04 -104.32 0
v -55.68 -104.32 0
v -55.68 -103.68 0
v -55.04 -103.68 0
v -54.4 -104.96 0
v -55.04 -104.96 0
v -55.04 -104.32 0
v -54.4 -104.32 0
v -55.04 -104.96 0
v -55.68 -104.96 0
v -55.68 -104.32 0
v -55.04 -104.32 0

# Texture cooridinates (Count = 9)
vt 0.3333333 0.4166667
vt 0.5 0.4166667
vt 0.5 0.5
vt 0.3333333 0.5
vt 0.6666667 0.4166667
vt 0.6666667 0.5
vt 0.3333333 0.3333333
vt 0.5 0.3333333
vt 0.6666667 0.3333333

# Normal
vn 0 0 -1

# Mesh description
g GroundFirst_mesh_0009

# Faces
f 1/1/1 2/2/1 3/3/1 4/4/1
f 5/2/1 6/5/1 7/6/1 8/3/1
f 9/7/1 10/8/1 11/2/1 12/1/1
f 13/8/1 14/9/1 15/5/1 16/2/1
f 17/1/1 18/2/1 19/3/1 20/4/1
f 21/2/1 22/5/1 23/6/1 24/3/1
f 25/7/1 26/8/1 27/2/1 28/1/1
f 29/8/1 30/9/1 31/5/1 32/2/1

