# Tiled2Unity generated file. Do not modify by hand.
# Wavefront file for 'GroundFirst_mesh_0052.obj'

# Vertices (Count = 480)
v -63.36 -63.36 0
v -64 -63.36 0
v -64 -62.72 0
v -63.36 -62.72 0
v -64 -63.36 0
v -64.64 -63.36 0
v -64.64 -62.72 0
v -64 -62.72 0
v -64.64 -63.36 0
v -65.28 -63.36 0
v -65.28 -62.72 0
v -64.64 -62.72 0
v -65.28 -63.36 0
v -65.92 -63.36 0
v -65.92 -62.72 0
v -65.28 -62.72 0
v -63.36 -64 0
v -64 -64 0
v -64 -63.36 0
v -63.36 -63.36 0
v -64 -64 0
v -64.64 -64 0
v -64.64 -63.36 0
v -64 -63.36 0
v -64.64 -64 0
v -65.28 -64 0
v -65.28 -63.36 0
v -64.64 -63.36 0
v -65.28 -64 0
v -65.92 -64 0
v -65.92 -63.36 0
v -65.28 -63.36 0
v -63.36 -64.64 0
v -64 -64.64 0
v -64 -64 0
v -63.36 -64 0
v -64 -64.64 0
v -64.64 -64.64 0
v -64.64 -64 0
v -64 -64 0
v -64.64 -64.64 0
v -65.28 -64.64 0
v -65.28 -64 0
v -64.64 -64 0
v -65.28 -64.64 0
v -65.92 -64.64 0
v -65.92 -64 0
v -65.28 -64 0
v -63.36 -65.28 0
v -64 -65.28 0
v -64 -64.64 0
v -63.36 -64.64 0
v -64 -65.28 0
v -64.64 -65.28 0
v -64.64 -64.64 0
v -64 -64.64 0
v -64.64 -65.28 0
v -65.28 -65.28 0
v -65.28 -64.64 0
v -64.64 -64.64 0
v -65.28 -65.28 0
v -65.92 -65.28 0
v -65.92 -64.64 0
v -65.28 -64.64 0
v -63.36 -65.92 0
v -64 -65.92 0
v -64 -65.28 0
v -63.36 -65.28 0
v -64 -65.92 0
v -64.64 -65.92 0
v -64.64 -65.28 0
v -64 -65.28 0
v -64.64 -65.92 0
v -65.28 -65.92 0
v -65.28 -65.28 0
v -64.64 -65.28 0
v -65.28 -65.92 0
v -65.92 -65.92 0
v -65.92 -65.28 0
v -65.28 -65.28 0
v -63.36 -66.56 0
v -64 -66.56 0
v -64 -65.92 0
v -63.36 -65.92 0
v -64 -66.56 0
v -64.64 -66.56 0
v -64.64 -65.92 0
v -64 -65.92 0
v -64.64 -66.56 0
v -65.28 -66.56 0
v -65.28 -65.92 0
v -64.64 -65.92 0
v -65.28 -66.56 0
v -65.92 -66.56 0
v -65.92 -65.92 0
v -65.28 -65.92 0
v -16.64 -81.28 0
v -17.28 -81.28 0
v -17.28 -80.64 0
v -16.64 -80.64 0
v -17.28 -81.28 0
v -17.92 -81.28 0
v -17.92 -80.64 0
v -17.28 -80.64 0
v -17.92 -81.28 0
v -18.56 -81.28 0
v -18.56 -80.64 0
v -17.92 -80.64 0
v -18.56 -81.28 0
v -19.2 -81.28 0
v -19.2 -80.64 0
v -18.56 -80.64 0
v -19.2 -81.28 0
v -19.84 -81.28 0
v -19.84 -80.64 0
v -19.2 -80.64 0
v -19.84 -81.28 0
v -20.48 -81.28 0
v -20.48 -80.64 0
v -19.84 -80.64 0
v -20.48 -81.28 0
v -21.12 -81.28 0
v -21.12 -80.64 0
v -20.48 -80.64 0
v -21.12 -81.28 0
v -21.76 -81.28 0
v -21.76 -80.64 0
v -21.12 -80.64 0
v -25.6 -81.28 0
v -26.24 -81.28 0
v -26.24 -80.64 0
v -25.6 -80.64 0
v -26.24 -81.28 0
v -26.88 -81.28 0
v -26.88 -80.64 0
v -26.24 -80.64 0
v -26.88 -81.28 0
v -27.52 -81.28 0
v -27.52 -80.64 0
v -26.88 -80.64 0
v -27.52 -81.28 0
v -28.16 -81.28 0
v -28.16 -80.64 0
v -27.52 -80.64 0
v -28.16 -81.28 0
v -28.8 -81.28 0
v -28.8 -80.64 0
v -28.16 -80.64 0
v -28.8 -81.28 0
v -29.44 -81.28 0
v -29.44 -80.64 0
v -28.8 -80.64 0
v -29.44 -81.28 0
v -30.08 -81.28 0
v -30.08 -80.64 0
v -29.44 -80.64 0
v -30.08 -81.28 0
v -30.72 -81.28 0
v -30.72 -80.64 0
v -30.08 -80.64 0
v -16.64 -81.92 0
v -17.28 -81.92 0
v -17.28 -81.28 0
v -16.64 -81.28 0
v -17.28 -81.92 0
v -17.92 -81.92 0
v -17.92 -81.28 0
v -17.28 -81.28 0
v -17.92 -81.92 0
v -18.56 -81.92 0
v -18.56 -81.28 0
v -17.92 -81.28 0
v -18.56 -81.92 0
v -19.2 -81.92 0
v -19.2 -81.28 0
v -18.56 -81.28 0
v -19.2 -81.92 0
v -19.84 -81.92 0
v -19.84 -81.28 0
v -19.2 -81.28 0
v -19.84 -81.92 0
v -20.48 -81.92 0
v -20.48 -81.28 0
v -19.84 -81.28 0
v -20.48 -81.92 0
v -21.12 -81.92 0
v -21.12 -81.28 0
v -20.48 -81.28 0
v -21.12 -81.92 0
v -21.76 -81.92 0
v -21.76 -81.28 0
v -21.12 -81.28 0
v -25.6 -81.92 0
v -26.24 -81.92 0
v -26.24 -81.28 0
v -25.6 -81.28 0
v -26.24 -81.92 0
v -26.88 -81.92 0
v -26.88 -81.28 0
v -26.24 -81.28 0
v -26.88 -81.92 0
v -27.52 -81.92 0
v -27.52 -81.28 0
v -26.88 -81.28 0
v -27.52 -81.92 0
v -28.16 -81.92 0
v -28.16 -81.28 0
v -27.52 -81.28 0
v -28.16 -81.92 0
v -28.8 -81.92 0
v -28.8 -81.28 0
v -28.16 -81.28 0
v -28.8 -81.92 0
v -29.44 -81.92 0
v -29.44 -81.28 0
v -28.8 -81.28 0
v -29.44 -81.92 0
v -30.08 -81.92 0
v -30.08 -81.28 0
v -29.44 -81.28 0
v -30.08 -81.92 0
v -30.72 -81.92 0
v -30.72 -81.28 0
v -30.08 -81.28 0
v -16.64 -82.56 0
v -17.28 -82.56 0
v -17.28 -81.92 0
v -16.64 -81.92 0
v -17.28 -82.56 0
v -17.92 -82.56 0
v -17.92 -81.92 0
v -17.28 -81.92 0
v -17.92 -82.56 0
v -18.56 -82.56 0
v -18.56 -81.92 0
v -17.92 -81.92 0
v -18.56 -82.56 0
v -19.2 -82.56 0
v -19.2 -81.92 0
v -18.56 -81.92 0
v -19.2 -82.56 0
v -19.84 -82.56 0
v -19.84 -81.92 0
v -19.2 -81.92 0
v -19.84 -82.56 0
v -20.48 -82.56 0
v -20.48 -81.92 0
v -19.84 -81.92 0
v -20.48 -82.56 0
v -21.12 -82.56 0
v -21.12 -81.92 0
v -20.48 -81.92 0
v -21.12 -82.56 0
v -21.76 -82.56 0
v -21.76 -81.92 0
v -21.12 -81.92 0
v -25.6 -82.56 0
v -26.24 -82.56 0
v -26.24 -81.92 0
v -25.6 -81.92 0
v -26.24 -82.56 0
v -26.88 -82.56 0
v -26.88 -81.92 0
v -26.24 -81.92 0
v -26.88 -82.56 0
v -27.52 -82.56 0
v -27.52 -81.92 0
v -26.88 -81.92 0
v -27.52 -82.56 0
v -28.16 -82.56 0
v -28.16 -81.92 0
v -27.52 -81.92 0
v -28.16 -82.56 0
v -28.8 -82.56 0
v -28.8 -81.92 0
v -28.16 -81.92 0
v -28.8 -82.56 0
v -29.44 -82.56 0
v -29.44 -81.92 0
v -28.8 -81.92 0
v -29.44 -82.56 0
v -30.08 -82.56 0
v -30.08 -81.92 0
v -29.44 -81.92 0
v -30.08 -82.56 0
v -30.72 -82.56 0
v -30.72 -81.92 0
v -30.08 -81.92 0
v -16.64 -88.32 0
v -17.28 -88.32 0
v -17.28 -87.68 0
v -16.64 -87.68 0
v -17.28 -88.32 0
v -17.92 -88.32 0
v -17.92 -87.68 0
v -17.28 -87.68 0
v -17.92 -88.32 0
v -18.56 -88.32 0
v -18.56 -87.68 0
v -17.92 -87.68 0
v -18.56 -88.32 0
v -19.2 -88.32 0
v -19.2 -87.68 0
v -18.56 -87.68 0
v -19.2 -88.32 0
v -19.84 -88.32 0
v -19.84 -87.68 0
v -19.2 -87.68 0
v -19.84 -88.32 0
v -20.48 -88.32 0
v -20.48 -87.68 0
v -19.84 -87.68 0
v -20.48 -88.32 0
v -21.12 -88.32 0
v -21.12 -87.68 0
v -20.48 -87.68 0
v -21.12 -88.32 0
v -21.76 -88.32 0
v -21.76 -87.68 0
v -21.12 -87.68 0
v -25.6 -88.32 0
v -26.24 -88.32 0
v -26.24 -87.68 0
v -25.6 -87.68 0
v -26.24 -88.32 0
v -26.88 -88.32 0
v -26.88 -87.68 0
v -26.24 -87.68 0
v -26.88 -88.32 0
v -27.52 -88.32 0
v -27.52 -87.68 0
v -26.88 -87.68 0
v -27.52 -88.32 0
v -28.16 -88.32 0
v -28.16 -87.68 0
v -27.52 -87.68 0
v -28.16 -88.32 0
v -28.8 -88.32 0
v -28.8 -87.68 0
v -28.16 -87.68 0
v -28.8 -88.32 0
v -29.44 -88.32 0
v -29.44 -87.68 0
v -28.8 -87.68 0
v -29.44 -88.32 0
v -30.08 -88.32 0
v -30.08 -87.68 0
v -29.44 -87.68 0
v -30.08 -88.32 0
v -30.72 -88.32 0
v -30.72 -87.68 0
v -30.08 -87.68 0
v -16.64 -88.96 0
v -17.28 -88.96 0
v -17.28 -88.32 0
v -16.64 -88.32 0
v -17.28 -88.96 0
v -17.92 -88.96 0
v -17.92 -88.32 0
v -17.28 -88.32 0
v -17.92 -88.96 0
v -18.56 -88.96 0
v -18.56 -88.32 0
v -17.92 -88.32 0
v -18.56 -88.96 0
v -19.2 -88.96 0
v -19.2 -88.32 0
v -18.56 -88.32 0
v -19.2 -88.96 0
v -19.84 -88.96 0
v -19.84 -88.32 0
v -19.2 -88.32 0
v -19.84 -88.96 0
v -20.48 -88.96 0
v -20.48 -88.32 0
v -19.84 -88.32 0
v -20.48 -88.96 0
v -21.12 -88.96 0
v -21.12 -88.32 0
v -20.48 -88.32 0
v -21.12 -88.96 0
v -21.76 -88.96 0
v -21.76 -88.32 0
v -21.12 -88.32 0
v -25.6 -88.96 0
v -26.24 -88.96 0
v -26.24 -88.32 0
v -25.6 -88.32 0
v -26.24 -88.96 0
v -26.88 -88.96 0
v -26.88 -88.32 0
v -26.24 -88.32 0
v -26.88 -88.96 0
v -27.52 -88.96 0
v -27.52 -88.32 0
v -26.88 -88.32 0
v -27.52 -88.96 0
v -28.16 -88.96 0
v -28.16 -88.32 0
v -27.52 -88.32 0
v -28.16 -88.96 0
v -28.8 -88.96 0
v -28.8 -88.32 0
v -28.16 -88.32 0
v -28.8 -88.96 0
v -29.44 -88.96 0
v -29.44 -88.32 0
v -28.8 -88.32 0
v -29.44 -88.96 0
v -30.08 -88.96 0
v -30.08 -88.32 0
v -29.44 -88.32 0
v -30.08 -88.96 0
v -30.72 -88.96 0
v -30.72 -88.32 0
v -30.08 -88.32 0
v -16.64 -89.6 0
v -17.28 -89.6 0
v -17.28 -88.96 0
v -16.64 -88.96 0
v -17.28 -89.6 0
v -17.92 -89.6 0
v -17.92 -88.96 0
v -17.28 -88.96 0
v -17.92 -89.6 0
v -18.56 -89.6 0
v -18.56 -88.96 0
v -17.92 -88.96 0
v -18.56 -89.6 0
v -19.2 -89.6 0
v -19.2 -88.96 0
v -18.56 -88.96 0
v -19.2 -89.6 0
v -19.84 -89.6 0
v -19.84 -88.96 0
v -19.2 -88.96 0
v -19.84 -89.6 0
v -20.48 -89.6 0
v -20.48 -88.96 0
v -19.84 -88.96 0
v -20.48 -89.6 0
v -21.12 -89.6 0
v -21.12 -88.96 0
v -20.48 -88.96 0
v -21.12 -89.6 0
v -21.76 -89.6 0
v -21.76 -88.96 0
v -21.12 -88.96 0
v -25.6 -89.6 0
v -26.24 -89.6 0
v -26.24 -88.96 0
v -25.6 -88.96 0
v -26.24 -89.6 0
v -26.88 -89.6 0
v -26.88 -88.96 0
v -26.24 -88.96 0
v -26.88 -89.6 0
v -27.52 -89.6 0
v -27.52 -88.96 0
v -26.88 -88.96 0
v -27.52 -89.6 0
v -28.16 -89.6 0
v -28.16 -88.96 0
v -27.52 -88.96 0
v -28.16 -89.6 0
v -28.8 -89.6 0
v -28.8 -88.96 0
v -28.16 -88.96 0
v -28.8 -89.6 0
v -29.44 -89.6 0
v -29.44 -88.96 0
v -28.8 -88.96 0
v -29.44 -89.6 0
v -30.08 -89.6 0
v -30.08 -88.96 0
v -29.44 -88.96 0
v -30.08 -89.6 0
v -30.72 -89.6 0
v -30.72 -88.96 0
v -30.08 -88.96 0

# Texture cooridinates (Count = 55)
vt 0 0.9
vt 0.04545455 0.9
vt 0.04545455 1
vt 0 1
vt 0.09090909 0.9
vt 0.09090909 1
vt 0.1363636 0.9
vt 0.1363636 1
vt 0.1818182 0.9
vt 0.1818182 1
vt 0 0.8
vt 0.04545455 0.8
vt 0.09090909 0.8
vt 0.1363636 0.8
vt 0.1818182 0.8
vt 0 0.7
vt 0.04545455 0.7
vt 0.09090909 0.7
vt 0.1363636 0.7
vt 0.1818182 0.7
vt 0 0.6
vt 0.04545455 0.6
vt 0.09090909 0.6
vt 0.1363636 0.6
vt 0.1818182 0.6
vt 0 0.5
vt 0.04545455 0.5
vt 0.09090909 0.5
vt 0.1363636 0.5
vt 0.1818182 0.5
vt 0 0.4
vt 0.04545455 0.4
vt 0.09090909 0.4
vt 0.1363636 0.4
vt 0.1818182 0.4
vt 0.3636364 0.8
vt 0.4090909 0.8
vt 0.4090909 0.9
vt 0.3636364 0.9
vt 0.4545455 0.8
vt 0.4545455 0.9
vt 0.5 0.8
vt 0.5 0.9
vt 0.5454546 0.8
vt 0.5454546 0.9
vt 0.3636364 0.7
vt 0.4090909 0.7
vt 0.4545455 0.7
vt 0.5 0.7
vt 0.5454546 0.7
vt 0.3636364 0.6
vt 0.4090909 0.6
vt 0.4545455 0.6
vt 0.5 0.6
vt 0.5454546 0.6

# Normal
vn 0 0 -1

# Mesh description
g GroundFirst_mesh_0052

# Faces
f 1/1/1 2/2/1 3/3/1 4/4/1
f 5/2/1 6/5/1 7/6/1 8/3/1
f 9/5/1 10/7/1 11/8/1 12/6/1
f 13/7/1 14/9/1 15/10/1 16/8/1
f 17/11/1 18/12/1 19/2/1 20/1/1
f 21/12/1 22/13/1 23/5/1 24/2/1
f 25/13/1 26/14/1 27/7/1 28/5/1
f 29/14/1 30/15/1 31/9/1 32/7/1
f 33/16/1 34/17/1 35/12/1 36/11/1
f 37/17/1 38/18/1 39/13/1 40/12/1
f 41/18/1 42/19/1 43/14/1 44/13/1
f 45/19/1 46/20/1 47/15/1 48/14/1
f 49/21/1 50/22/1 51/17/1 52/16/1
f 53/22/1 54/23/1 55/18/1 56/17/1
f 57/23/1 58/24/1 59/19/1 60/18/1
f 61/24/1 62/25/1 63/20/1 64/19/1
f 65/26/1 66/27/1 67/22/1 68/21/1
f 69/27/1 70/28/1 71/23/1 72/22/1
f 73/28/1 74/29/1 75/24/1 76/23/1
f 77/29/1 78/30/1 79/25/1 80/24/1
f 81/31/1 82/32/1 83/27/1 84/26/1
f 85/32/1 86/33/1 87/28/1 88/27/1
f 89/33/1 90/34/1 91/29/1 92/28/1
f 93/34/1 94/35/1 95/30/1 96/29/1
f 97/36/1 98/37/1 99/38/1 100/39/1
f 101/37/1 102/40/1 103/41/1 104/38/1
f 105/37/1 106/40/1 107/41/1 108/38/1
f 109/40/1 110/42/1 111/43/1 112/41/1
f 113/37/1 114/40/1 115/41/1 116/38/1
f 117/37/1 118/40/1 119/41/1 120/38/1
f 121/40/1 122/42/1 123/43/1 124/41/1
f 125/42/1 126/44/1 127/45/1 128/43/1
f 129/36/1 130/37/1 131/38/1 132/39/1
f 133/37/1 134/40/1 135/41/1 136/38/1
f 137/40/1 138/42/1 139/43/1 140/41/1
f 141/37/1 142/40/1 143/41/1 144/38/1
f 145/40/1 146/42/1 147/43/1 148/41/1
f 149/37/1 150/40/1 151/41/1 152/38/1
f 153/40/1 154/42/1 155/43/1 156/41/1
f 157/42/1 158/44/1 159/45/1 160/43/1
f 161/46/1 162/47/1 163/37/1 164/36/1
f 165/47/1 166/48/1 167/40/1 168/37/1
f 169/47/1 170/48/1 171/40/1 172/37/1
f 173/48/1 174/49/1 175/42/1 176/40/1
f 177/47/1 178/48/1 179/40/1 180/37/1
f 181/47/1 182/48/1 183/40/1 184/37/1
f 185/48/1 186/49/1 187/42/1 188/40/1
f 189/49/1 190/50/1 191/44/1 192/42/1
f 193/46/1 194/47/1 195/37/1 196/36/1
f 197/47/1 198/48/1 199/40/1 200/37/1
f 201/48/1 202/49/1 203/42/1 204/40/1
f 205/47/1 206/48/1 207/40/1 208/37/1
f 209/48/1 210/49/1 211/42/1 212/40/1
f 213/47/1 214/48/1 215/40/1 216/37/1
f 217/48/1 218/49/1 219/42/1 220/40/1
f 221/49/1 222/50/1 223/44/1 224/42/1
f 225/51/1 226/52/1 227/47/1 228/46/1
f 229/52/1 230/53/1 231/48/1 232/47/1
f 233/52/1 234/53/1 235/48/1 236/47/1
f 237/53/1 238/54/1 239/49/1 240/48/1
f 241/52/1 242/53/1 243/48/1 244/47/1
f 245/52/1 246/53/1 247/48/1 248/47/1
f 249/53/1 250/54/1 251/49/1 252/48/1
f 253/54/1 254/55/1 255/50/1 256/49/1
f 257/51/1 258/52/1 259/47/1 260/46/1
f 261/52/1 262/53/1 263/48/1 264/47/1
f 265/53/1 266/54/1 267/49/1 268/48/1
f 269/52/1 270/53/1 271/48/1 272/47/1
f 273/53/1 274/54/1 275/49/1 276/48/1
f 277/52/1 278/53/1 279/48/1 280/47/1
f 281/53/1 282/54/1 283/49/1 284/48/1
f 285/54/1 286/55/1 287/50/1 288/49/1
f 289/36/1 290/37/1 291/38/1 292/39/1
f 293/37/1 294/40/1 295/41/1 296/38/1
f 297/37/1 298/40/1 299/41/1 300/38/1
f 301/37/1 302/40/1 303/41/1 304/38/1
f 305/37/1 306/40/1 307/41/1 308/38/1
f 309/37/1 310/40/1 311/41/1 312/38/1
f 313/40/1 314/42/1 315/43/1 316/41/1
f 317/42/1 318/44/1 319/45/1 320/43/1
f 321/36/1 322/37/1 323/38/1 324/39/1
f 325/37/1 326/40/1 327/41/1 328/38/1
f 329/40/1 330/42/1 331/43/1 332/41/1
f 333/37/1 334/40/1 335/41/1 336/38/1
f 337/40/1 338/42/1 339/43/1 340/41/1
f 341/37/1 342/40/1 343/41/1 344/38/1
f 345/40/1 346/42/1 347/43/1 348/41/1
f 349/42/1 350/44/1 351/45/1 352/43/1
f 353/46/1 354/47/1 355/37/1 356/36/1
f 357/47/1 358/48/1 359/40/1 360/37/1
f 361/47/1 362/48/1 363/40/1 364/37/1
f 365/47/1 366/48/1 367/40/1 368/37/1
f 369/47/1 370/48/1 371/40/1 372/37/1
f 373/47/1 374/48/1 375/40/1 376/37/1
f 377/48/1 378/49/1 379/42/1 380/40/1
f 381/49/1 382/50/1 383/44/1 384/42/1
f 385/46/1 386/47/1 387/37/1 388/36/1
f 389/47/1 390/48/1 391/40/1 392/37/1
f 393/48/1 394/49/1 395/42/1 396/40/1
f 397/47/1 398/48/1 399/40/1 400/37/1
f 401/48/1 402/49/1 403/42/1 404/40/1
f 405/47/1 406/48/1 407/40/1 408/37/1
f 409/48/1 410/49/1 411/42/1 412/40/1
f 413/49/1 414/50/1 415/44/1 416/42/1
f 417/51/1 418/52/1 419/47/1 420/46/1
f 421/52/1 422/53/1 423/48/1 424/47/1
f 425/52/1 426/53/1 427/48/1 428/47/1
f 429/52/1 430/53/1 431/48/1 432/47/1
f 433/52/1 434/53/1 435/48/1 436/47/1
f 437/52/1 438/53/1 439/48/1 440/47/1
f 441/53/1 442/54/1 443/49/1 444/48/1
f 445/54/1 446/55/1 447/50/1 448/49/1
f 449/51/1 450/52/1 451/47/1 452/46/1
f 453/52/1 454/53/1 455/48/1 456/47/1
f 457/53/1 458/54/1 459/49/1 460/48/1
f 461/52/1 462/53/1 463/48/1 464/47/1
f 465/53/1 466/54/1 467/49/1 468/48/1
f 469/52/1 470/53/1 471/48/1 472/47/1
f 473/53/1 474/54/1 475/49/1 476/48/1
f 477/54/1 478/55/1 479/50/1 480/49/1

