# Tiled2Unity generated file. Do not modify by hand.
# Wavefront file for 'GroundFirst_mesh_0036.obj'

# Vertices (Count = 224)
v -39.68 -66.56 0
v -40.32 -66.56 0
v -40.32 -65.92 0
v -39.68 -65.92 0
v -40.32 -66.56 0
v -40.96 -66.56 0
v -40.96 -65.92 0
v -40.32 -65.92 0
v -45.44 -66.56 0
v -46.08 -66.56 0
v -46.08 -65.92 0
v -45.44 -65.92 0
v -46.08 -66.56 0
v -46.72 -66.56 0
v -46.72 -65.92 0
v -46.08 -65.92 0
v -39.68 -67.2 0
v -40.32 -67.2 0
v -40.32 -66.56 0
v -39.68 -66.56 0
v -40.32 -67.2 0
v -40.96 -67.2 0
v -40.96 -66.56 0
v -40.32 -66.56 0
v -41.6 -67.2 0
v -42.24 -67.2 0
v -42.24 -66.56 0
v -41.6 -66.56 0
v -42.24 -67.2 0
v -42.88 -67.2 0
v -42.88 -66.56 0
v -42.24 -66.56 0
v -43.52 -67.2 0
v -44.16 -67.2 0
v -44.16 -66.56 0
v -43.52 -66.56 0
v -44.16 -67.2 0
v -44.8 -67.2 0
v -44.8 -66.56 0
v -44.16 -66.56 0
v -45.44 -67.2 0
v -46.08 -67.2 0
v -46.08 -66.56 0
v -45.44 -66.56 0
v -46.08 -67.2 0
v -46.72 -67.2 0
v -46.72 -66.56 0
v -46.08 -66.56 0
v -41.6 -67.84 0
v -42.24 -67.84 0
v -42.24 -67.2 0
v -41.6 -67.2 0
v -42.24 -67.84 0
v -42.88 -67.84 0
v -42.88 -67.2 0
v -42.24 -67.2 0
v -43.52 -67.84 0
v -44.16 -67.84 0
v -44.16 -67.2 0
v -43.52 -67.2 0
v -44.16 -67.84 0
v -44.8 -67.84 0
v -44.8 -67.2 0
v -44.16 -67.2 0
v -40.32 -68.48 0
v -40.96 -68.48 0
v -40.96 -67.84 0
v -40.32 -67.84 0
v -40.96 -68.48 0
v -41.6 -68.48 0
v -41.6 -67.84 0
v -40.96 -67.84 0
v -41.6 -68.48 0
v -42.24 -68.48 0
v -42.24 -67.84 0
v -41.6 -67.84 0
v -42.24 -68.48 0
v -42.88 -68.48 0
v -42.88 -67.84 0
v -42.24 -67.84 0
v -43.52 -68.48 0
v -44.16 -68.48 0
v -44.16 -67.84 0
v -43.52 -67.84 0
v -44.16 -68.48 0
v -44.8 -68.48 0
v -44.8 -67.84 0
v -44.16 -67.84 0
v -44.8 -68.48 0
v -45.44 -68.48 0
v -45.44 -67.84 0
v -44.8 -67.84 0
v -45.44 -68.48 0
v -46.08 -68.48 0
v -46.08 -67.84 0
v -45.44 -67.84 0
v -40.32 -69.12 0
v -40.96 -69.12 0
v -40.96 -68.48 0
v -40.32 -68.48 0
v -40.96 -69.12 0
v -41.6 -69.12 0
v -41.6 -68.48 0
v -40.96 -68.48 0
v -41.6 -69.12 0
v -42.24 -69.12 0
v -42.24 -68.48 0
v -41.6 -68.48 0
v -42.24 -69.12 0
v -42.88 -69.12 0
v -42.88 -68.48 0
v -42.24 -68.48 0
v -43.52 -69.12 0
v -44.16 -69.12 0
v -44.16 -68.48 0
v -43.52 -68.48 0
v -44.16 -69.12 0
v -44.8 -69.12 0
v -44.8 -68.48 0
v -44.16 -68.48 0
v -44.8 -69.12 0
v -45.44 -69.12 0
v -45.44 -68.48 0
v -44.8 -68.48 0
v -45.44 -69.12 0
v -46.08 -69.12 0
v -46.08 -68.48 0
v -45.44 -68.48 0
v -40.32 -69.76 0
v -40.96 -69.76 0
v -40.96 -69.12 0
v -40.32 -69.12 0
v -40.96 -69.76 0
v -41.6 -69.76 0
v -41.6 -69.12 0
v -40.96 -69.12 0
v -41.6 -69.76 0
v -42.24 -69.76 0
v -42.24 -69.12 0
v -41.6 -69.12 0
v -42.24 -69.76 0
v -42.88 -69.76 0
v -42.88 -69.12 0
v -42.24 -69.12 0
v -43.52 -69.76 0
v -44.16 -69.76 0
v -44.16 -69.12 0
v -43.52 -69.12 0
v -44.16 -69.76 0
v -44.8 -69.76 0
v -44.8 -69.12 0
v -44.16 -69.12 0
v -44.8 -69.76 0
v -45.44 -69.76 0
v -45.44 -69.12 0
v -44.8 -69.12 0
v -45.44 -69.76 0
v -46.08 -69.76 0
v -46.08 -69.12 0
v -45.44 -69.12 0
v -40.32 -70.4 0
v -40.96 -70.4 0
v -40.96 -69.76 0
v -40.32 -69.76 0
v -40.96 -70.4 0
v -41.6 -70.4 0
v -41.6 -69.76 0
v -40.96 -69.76 0
v -44.8 -70.4 0
v -45.44 -70.4 0
v -45.44 -69.76 0
v -44.8 -69.76 0
v -45.44 -70.4 0
v -46.08 -70.4 0
v -46.08 -69.76 0
v -45.44 -69.76 0
v -40.96 -71.04 0
v -41.6 -71.04 0
v -41.6 -70.4 0
v -40.96 -70.4 0
v -41.6 -71.04 0
v -42.24 -71.04 0
v -42.24 -70.4 0
v -41.6 -70.4 0
v -40.96 -71.68 0
v -41.6 -71.68 0
v -41.6 -71.04 0
v -40.96 -71.04 0
v -41.6 -71.68 0
v -42.24 -71.68 0
v -42.24 -71.04 0
v -41.6 -71.04 0
v -40.96 -72.32 0
v -41.6 -72.32 0
v -41.6 -71.68 0
v -40.96 -71.68 0
v -41.6 -72.32 0
v -42.24 -72.32 0
v -42.24 -71.68 0
v -41.6 -71.68 0
v -40.96 -72.96 0
v -41.6 -72.96 0
v -41.6 -72.32 0
v -40.96 -72.32 0
v -41.6 -72.96 0
v -42.24 -72.96 0
v -42.24 -72.32 0
v -41.6 -72.32 0
v -40.96 -73.6 0
v -41.6 -73.6 0
v -41.6 -72.96 0
v -40.96 -72.96 0
v -41.6 -73.6 0
v -42.24 -73.6 0
v -42.24 -72.96 0
v -41.6 -72.96 0
v -40.96 -74.24 0
v -41.6 -74.24 0
v -41.6 -73.6 0
v -40.96 -73.6 0
v -41.6 -74.24 0
v -42.24 -74.24 0
v -42.24 -73.6 0
v -41.6 -73.6 0

# Texture cooridinates (Count = 86)
vt 0.25 0.7857143
vt 0.2708333 0.7857143
vt 0.2708333 0.8095238
vt 0.25 0.8095238
vt 0.2916667 0.7857143
vt 0.2916667 0.8095238
vt 0.25 0.7619048
vt 0.2708333 0.7619048
vt 0.2916667 0.7619048
vt 0.4583333 0.4047619
vt 0.4791667 0.4047619
vt 0.4791667 0.4285714
vt 0.4583333 0.4285714
vt 0.5 0.4047619
vt 0.5 0.4285714
vt 0.5208333 0.4047619
vt 0.5208333 0.4285714
vt 0.5416667 0.4047619
vt 0.5416667 0.4285714
vt 0.4583333 0.3809524
vt 0.4791667 0.3809524
vt 0.5 0.3809524
vt 0.5208333 0.3809524
vt 0.5416667 0.3809524
vt 0.7083333 0.3809524
vt 0.7291667 0.3809524
vt 0.7291667 0.4047619
vt 0.7083333 0.4047619
vt 0.75 0.3809524
vt 0.75 0.4047619
vt 0.4583333 0.3571429
vt 0.4791667 0.3571429
vt 0.5 0.3571429
vt 0.5208333 0.3571429
vt 0.5416667 0.3571429
vt 0.75 0.4285714
vt 0.7708333 0.4285714
vt 0.7708333 0.452381
vt 0.75 0.452381
vt 0.7916667 0.4285714
vt 0.7916667 0.452381
vt 0.7083333 0.3571429
vt 0.7291667 0.3571429
vt 0.75 0.3571429
vt 0.4583333 0.3333333
vt 0.4791667 0.3333333
vt 0.5 0.3333333
vt 0.5208333 0.3333333
vt 0.5416667 0.3333333
vt 0.7708333 0.4047619
vt 0.7916667 0.4047619
vt 0.7083333 0.3333333
vt 0.7291667 0.3333333
vt 0.75 0.3333333
vt 0.4583333 0.3095238
vt 0.4791667 0.3095238
vt 0.5 0.3095238
vt 0.5208333 0.3095238
vt 0.5416667 0.3095238
vt 0.7708333 0.3809524
vt 0.7916667 0.3809524
vt 0.7083333 0.3095238
vt 0.7291667 0.3095238
vt 0.75 0.3095238
vt 0.7708333 0.3571429
vt 0.7916667 0.3571429
vt 0.5416667 0.547619
vt 0.5625 0.547619
vt 0.5625 0.5714285
vt 0.5416667 0.5714285
vt 0.5833333 0.547619
vt 0.5833333 0.5714285
vt 0.5416667 0.5238096
vt 0.5625 0.5238096
vt 0.5833333 0.5238096
vt 0.5416667 0.5
vt 0.5625 0.5
vt 0.5833333 0.5
vt 0.5416667 0.4761904
vt 0.5625 0.4761904
vt 0.5833333 0.4761904
vt 0.5416667 0.452381
vt 0.5625 0.452381
vt 0.5833333 0.452381
vt 0.5625 0.4285714
vt 0.5833333 0.4285714

# Normal
vn 0 0 -1

# Mesh description
g GroundFirst_mesh_0036

# Faces
f 1/1/1 2/2/1 3/3/1 4/4/1
f 5/2/1 6/5/1 7/6/1 8/3/1
f 9/1/1 10/2/1 11/3/1 12/4/1
f 13/2/1 14/5/1 15/6/1 16/3/1
f 17/7/1 18/8/1 19/2/1 20/1/1
f 21/8/1 22/9/1 23/5/1 24/2/1
f 25/10/1 26/11/1 27/12/1 28/13/1
f 29/11/1 30/14/1 31/15/1 32/12/1
f 33/14/1 34/16/1 35/17/1 36/15/1
f 37/16/1 38/18/1 39/19/1 40/17/1
f 41/7/1 42/8/1 43/2/1 44/1/1
f 45/8/1 46/9/1 47/5/1 48/2/1
f 49/20/1 50/21/1 51/11/1 52/10/1
f 53/21/1 54/22/1 55/14/1 56/11/1
f 57/22/1 58/23/1 59/16/1 60/14/1
f 61/23/1 62/24/1 63/18/1 64/16/1
f 65/25/1 66/26/1 67/27/1 68/28/1
f 69/26/1 70/29/1 71/30/1 72/27/1
f 73/31/1 74/32/1 75/21/1 76/20/1
f 77/32/1 78/33/1 79/22/1 80/21/1
f 81/33/1 82/34/1 83/23/1 84/22/1
f 85/34/1 86/35/1 87/24/1 88/23/1
f 89/36/1 90/37/1 91/38/1 92/39/1
f 93/37/1 94/40/1 95/41/1 96/38/1
f 97/42/1 98/43/1 99/26/1 100/25/1
f 101/43/1 102/44/1 103/29/1 104/26/1
f 105/45/1 106/46/1 107/32/1 108/31/1
f 109/46/1 110/47/1 111/33/1 112/32/1
f 113/47/1 114/48/1 115/34/1 116/33/1
f 117/48/1 118/49/1 119/35/1 120/34/1
f 121/30/1 122/50/1 123/37/1 124/36/1
f 125/50/1 126/51/1 127/40/1 128/37/1
f 129/52/1 130/53/1 131/43/1 132/42/1
f 133/53/1 134/54/1 135/44/1 136/43/1
f 137/55/1 138/56/1 139/46/1 140/45/1
f 141/56/1 142/57/1 143/47/1 144/46/1
f 145/57/1 146/58/1 147/48/1 148/47/1
f 149/58/1 150/59/1 151/49/1 152/48/1
f 153/29/1 154/60/1 155/50/1 156/30/1
f 157/60/1 158/61/1 159/51/1 160/50/1
f 161/62/1 162/63/1 163/53/1 164/52/1
f 165/63/1 166/64/1 167/54/1 168/53/1
f 169/44/1 170/65/1 171/60/1 172/29/1
f 173/65/1 174/66/1 175/61/1 176/60/1
f 177/67/1 178/68/1 179/69/1 180/70/1
f 181/68/1 182/71/1 183/72/1 184/69/1
f 185/73/1 186/74/1 187/68/1 188/67/1
f 189/74/1 190/75/1 191/71/1 192/68/1
f 193/76/1 194/77/1 195/74/1 196/73/1
f 197/77/1 198/78/1 199/75/1 200/74/1
f 201/79/1 202/80/1 203/77/1 204/76/1
f 205/80/1 206/81/1 207/78/1 208/77/1
f 209/82/1 210/83/1 211/80/1 212/79/1
f 213/83/1 214/84/1 215/81/1 216/80/1
f 217/19/1 218/85/1 219/83/1 220/82/1
f 221/85/1 222/86/1 223/84/1 224/83/1

