# Tiled2Unity generated file. Do not modify by hand.
# Wavefront file for 'GroundFirst_mesh_0038.obj'

# Vertices (Count = 256)
v -16.64 -83.2 0
v -17.28 -83.2 0
v -17.28 -82.56 0
v -16.64 -82.56 0
v -17.28 -83.2 0
v -17.92 -83.2 0
v -17.92 -82.56 0
v -17.28 -82.56 0
v -17.92 -83.2 0
v -18.56 -83.2 0
v -18.56 -82.56 0
v -17.92 -82.56 0
v -18.56 -83.2 0
v -19.2 -83.2 0
v -19.2 -82.56 0
v -18.56 -82.56 0
v -19.2 -83.2 0
v -19.84 -83.2 0
v -19.84 -82.56 0
v -19.2 -82.56 0
v -19.84 -83.2 0
v -20.48 -83.2 0
v -20.48 -82.56 0
v -19.84 -82.56 0
v -20.48 -83.2 0
v -21.12 -83.2 0
v -21.12 -82.56 0
v -20.48 -82.56 0
v -21.12 -83.2 0
v -21.76 -83.2 0
v -21.76 -82.56 0
v -21.12 -82.56 0
v -25.6 -83.2 0
v -26.24 -83.2 0
v -26.24 -82.56 0
v -25.6 -82.56 0
v -26.24 -83.2 0
v -26.88 -83.2 0
v -26.88 -82.56 0
v -26.24 -82.56 0
v -26.88 -83.2 0
v -27.52 -83.2 0
v -27.52 -82.56 0
v -26.88 -82.56 0
v -27.52 -83.2 0
v -28.16 -83.2 0
v -28.16 -82.56 0
v -27.52 -82.56 0
v -28.16 -83.2 0
v -28.8 -83.2 0
v -28.8 -82.56 0
v -28.16 -82.56 0
v -28.8 -83.2 0
v -29.44 -83.2 0
v -29.44 -82.56 0
v -28.8 -82.56 0
v -29.44 -83.2 0
v -30.08 -83.2 0
v -30.08 -82.56 0
v -29.44 -82.56 0
v -30.08 -83.2 0
v -30.72 -83.2 0
v -30.72 -82.56 0
v -30.08 -82.56 0
v -16.64 -83.84 0
v -17.28 -83.84 0
v -17.28 -83.2 0
v -16.64 -83.2 0
v -17.28 -83.84 0
v -17.92 -83.84 0
v -17.92 -83.2 0
v -17.28 -83.2 0
v -17.92 -83.84 0
v -18.56 -83.84 0
v -18.56 -83.2 0
v -17.92 -83.2 0
v -18.56 -83.84 0
v -19.2 -83.84 0
v -19.2 -83.2 0
v -18.56 -83.2 0
v -19.2 -83.84 0
v -19.84 -83.84 0
v -19.84 -83.2 0
v -19.2 -83.2 0
v -19.84 -83.84 0
v -20.48 -83.84 0
v -20.48 -83.2 0
v -19.84 -83.2 0
v -20.48 -83.84 0
v -21.12 -83.84 0
v -21.12 -83.2 0
v -20.48 -83.2 0
v -21.12 -83.84 0
v -21.76 -83.84 0
v -21.76 -83.2 0
v -21.12 -83.2 0
v -25.6 -83.84 0
v -26.24 -83.84 0
v -26.24 -83.2 0
v -25.6 -83.2 0
v -26.24 -83.84 0
v -26.88 -83.84 0
v -26.88 -83.2 0
v -26.24 -83.2 0
v -26.88 -83.84 0
v -27.52 -83.84 0
v -27.52 -83.2 0
v -26.88 -83.2 0
v -27.52 -83.84 0
v -28.16 -83.84 0
v -28.16 -83.2 0
v -27.52 -83.2 0
v -28.16 -83.84 0
v -28.8 -83.84 0
v -28.8 -83.2 0
v -28.16 -83.2 0
v -28.8 -83.84 0
v -29.44 -83.84 0
v -29.44 -83.2 0
v -28.8 -83.2 0
v -29.44 -83.84 0
v -30.08 -83.84 0
v -30.08 -83.2 0
v -29.44 -83.2 0
v -30.08 -83.84 0
v -30.72 -83.84 0
v -30.72 -83.2 0
v -30.08 -83.2 0
v -16.64 -90.24 0
v -17.28 -90.24 0
v -17.28 -89.6 0
v -16.64 -89.6 0
v -17.28 -90.24 0
v -17.92 -90.24 0
v -17.92 -89.6 0
v -17.28 -89.6 0
v -17.92 -90.24 0
v -18.56 -90.24 0
v -18.56 -89.6 0
v -17.92 -89.6 0
v -18.56 -90.24 0
v -19.2 -90.24 0
v -19.2 -89.6 0
v -18.56 -89.6 0
v -19.2 -90.24 0
v -19.84 -90.24 0
v -19.84 -89.6 0
v -19.2 -89.6 0
v -19.84 -90.24 0
v -20.48 -90.24 0
v -20.48 -89.6 0
v -19.84 -89.6 0
v -20.48 -90.24 0
v -21.12 -90.24 0
v -21.12 -89.6 0
v -20.48 -89.6 0
v -21.12 -90.24 0
v -21.76 -90.24 0
v -21.76 -89.6 0
v -21.12 -89.6 0
v -25.6 -90.24 0
v -26.24 -90.24 0
v -26.24 -89.6 0
v -25.6 -89.6 0
v -26.24 -90.24 0
v -26.88 -90.24 0
v -26.88 -89.6 0
v -26.24 -89.6 0
v -26.88 -90.24 0
v -27.52 -90.24 0
v -27.52 -89.6 0
v -26.88 -89.6 0
v -27.52 -90.24 0
v -28.16 -90.24 0
v -28.16 -89.6 0
v -27.52 -89.6 0
v -28.16 -90.24 0
v -28.8 -90.24 0
v -28.8 -89.6 0
v -28.16 -89.6 0
v -28.8 -90.24 0
v -29.44 -90.24 0
v -29.44 -89.6 0
v -28.8 -89.6 0
v -29.44 -90.24 0
v -30.08 -90.24 0
v -30.08 -89.6 0
v -29.44 -89.6 0
v -30.08 -90.24 0
v -30.72 -90.24 0
v -30.72 -89.6 0
v -30.08 -89.6 0
v -16.64 -90.88 0
v -17.28 -90.88 0
v -17.28 -90.24 0
v -16.64 -90.24 0
v -17.28 -90.88 0
v -17.92 -90.88 0
v -17.92 -90.24 0
v -17.28 -90.24 0
v -17.92 -90.88 0
v -18.56 -90.88 0
v -18.56 -90.24 0
v -17.92 -90.24 0
v -18.56 -90.88 0
v -19.2 -90.88 0
v -19.2 -90.24 0
v -18.56 -90.24 0
v -19.2 -90.88 0
v -19.84 -90.88 0
v -19.84 -90.24 0
v -19.2 -90.24 0
v -19.84 -90.88 0
v -20.48 -90.88 0
v -20.48 -90.24 0
v -19.84 -90.24 0
v -20.48 -90.88 0
v -21.12 -90.88 0
v -21.12 -90.24 0
v -20.48 -90.24 0
v -21.12 -90.88 0
v -21.76 -90.88 0
v -21.76 -90.24 0
v -21.12 -90.24 0
v -25.6 -90.88 0
v -26.24 -90.88 0
v -26.24 -90.24 0
v -25.6 -90.24 0
v -26.24 -90.88 0
v -26.88 -90.88 0
v -26.88 -90.24 0
v -26.24 -90.24 0
v -26.88 -90.88 0
v -27.52 -90.88 0
v -27.52 -90.24 0
v -26.88 -90.24 0
v -27.52 -90.88 0
v -28.16 -90.88 0
v -28.16 -90.24 0
v -27.52 -90.24 0
v -28.16 -90.88 0
v -28.8 -90.88 0
v -28.8 -90.24 0
v -28.16 -90.24 0
v -28.8 -90.88 0
v -29.44 -90.88 0
v -29.44 -90.24 0
v -28.8 -90.24 0
v -29.44 -90.88 0
v -30.08 -90.88 0
v -30.08 -90.24 0
v -29.44 -90.24 0
v -30.08 -90.88 0
v -30.72 -90.88 0
v -30.72 -90.24 0
v -30.08 -90.24 0

# Texture cooridinates (Count = 15)
vt 0.3636364 0.5
vt 0.4090909 0.5
vt 0.4090909 0.6
vt 0.3636364 0.6
vt 0.4545455 0.5
vt 0.4545455 0.6
vt 0.5 0.5
vt 0.5 0.6
vt 0.5454546 0.5
vt 0.5454546 0.6
vt 0.3636364 0.4
vt 0.4090909 0.4
vt 0.4545455 0.4
vt 0.5 0.4
vt 0.5454546 0.4

# Normal
vn 0 0 -1

# Mesh description
g GroundFirst_mesh_0038

# Faces
f 1/1/1 2/2/1 3/3/1 4/4/1
f 5/2/1 6/5/1 7/6/1 8/3/1
f 9/2/1 10/5/1 11/6/1 12/3/1
f 13/5/1 14/7/1 15/8/1 16/6/1
f 17/2/1 18/5/1 19/6/1 20/3/1
f 21/2/1 22/5/1 23/6/1 24/3/1
f 25/5/1 26/7/1 27/8/1 28/6/1
f 29/7/1 30/9/1 31/10/1 32/8/1
f 33/1/1 34/2/1 35/3/1 36/4/1
f 37/2/1 38/5/1 39/6/1 40/3/1
f 41/5/1 42/7/1 43/8/1 44/6/1
f 45/2/1 46/5/1 47/6/1 48/3/1
f 49/5/1 50/7/1 51/8/1 52/6/1
f 53/2/1 54/5/1 55/6/1 56/3/1
f 57/5/1 58/7/1 59/8/1 60/6/1
f 61/7/1 62/9/1 63/10/1 64/8/1
f 65/11/1 66/12/1 67/2/1 68/1/1
f 69/12/1 70/13/1 71/5/1 72/2/1
f 73/12/1 74/13/1 75/5/1 76/2/1
f 77/13/1 78/14/1 79/7/1 80/5/1
f 81/12/1 82/13/1 83/5/1 84/2/1
f 85/12/1 86/13/1 87/5/1 88/2/1
f 89/13/1 90/14/1 91/7/1 92/5/1
f 93/14/1 94/15/1 95/9/1 96/7/1
f 97/11/1 98/12/1 99/2/1 100/1/1
f 101/12/1 102/13/1 103/5/1 104/2/1
f 105/13/1 106/14/1 107/7/1 108/5/1
f 109/12/1 110/13/1 111/5/1 112/2/1
f 113/13/1 114/14/1 115/7/1 116/5/1
f 117/12/1 118/13/1 119/5/1 120/2/1
f 121/13/1 122/14/1 123/7/1 124/5/1
f 125/14/1 126/15/1 127/9/1 128/7/1
f 129/1/1 130/2/1 131/3/1 132/4/1
f 133/2/1 134/5/1 135/6/1 136/3/1
f 137/2/1 138/5/1 139/6/1 140/3/1
f 141/2/1 142/5/1 143/6/1 144/3/1
f 145/2/1 146/5/1 147/6/1 148/3/1
f 149/2/1 150/5/1 151/6/1 152/3/1
f 153/5/1 154/7/1 155/8/1 156/6/1
f 157/7/1 158/9/1 159/10/1 160/8/1
f 161/1/1 162/2/1 163/3/1 164/4/1
f 165/2/1 166/5/1 167/6/1 168/3/1
f 169/5/1 170/7/1 171/8/1 172/6/1
f 173/2/1 174/5/1 175/6/1 176/3/1
f 177/5/1 178/7/1 179/8/1 180/6/1
f 181/2/1 182/5/1 183/6/1 184/3/1
f 185/5/1 186/7/1 187/8/1 188/6/1
f 189/7/1 190/9/1 191/10/1 192/8/1
f 193/11/1 194/12/1 195/2/1 196/1/1
f 197/12/1 198/13/1 199/5/1 200/2/1
f 201/12/1 202/13/1 203/5/1 204/2/1
f 205/12/1 206/13/1 207/5/1 208/2/1
f 209/12/1 210/13/1 211/5/1 212/2/1
f 213/12/1 214/13/1 215/5/1 216/2/1
f 217/13/1 218/14/1 219/7/1 220/5/1
f 221/14/1 222/15/1 223/9/1 224/7/1
f 225/11/1 226/12/1 227/2/1 228/1/1
f 229/12/1 230/13/1 231/5/1 232/2/1
f 233/13/1 234/14/1 235/7/1 236/5/1
f 237/12/1 238/13/1 239/5/1 240/2/1
f 241/13/1 242/14/1 243/7/1 244/5/1
f 245/12/1 246/13/1 247/5/1 248/2/1
f 249/13/1 250/14/1 251/7/1 252/5/1
f 253/14/1 254/15/1 255/9/1 256/7/1

