# Tiled2Unity generated file. Do not modify by hand.
# Wavefront file for 'GroundFirst_mesh_0022.obj'

# Vertices (Count = 144)
v -53.76 -59.52 0
v -54.4 -59.52 0
v -54.4 -58.88 0
v -53.76 -58.88 0
v -54.4 -59.52 0
v -55.04 -59.52 0
v -55.04 -58.88 0
v -54.4 -58.88 0
v -55.04 -59.52 0
v -55.68 -59.52 0
v -55.68 -58.88 0
v -55.04 -58.88 0
v -55.68 -59.52 0
v -56.32 -59.52 0
v -56.32 -58.88 0
v -55.68 -58.88 0
v -53.76 -60.16 0
v -54.4 -60.16 0
v -54.4 -59.52 0
v -53.76 -59.52 0
v -54.4 -60.16 0
v -55.04 -60.16 0
v -55.04 -59.52 0
v -54.4 -59.52 0
v -55.04 -60.16 0
v -55.68 -60.16 0
v -55.68 -59.52 0
v -55.04 -59.52 0
v -55.68 -60.16 0
v -56.32 -60.16 0
v -56.32 -59.52 0
v -55.68 -59.52 0
v -53.76 -60.8 0
v -54.4 -60.8 0
v -54.4 -60.16 0
v -53.76 -60.16 0
v -54.4 -60.8 0
v -55.04 -60.8 0
v -55.04 -60.16 0
v -54.4 -60.16 0
v -55.04 -60.8 0
v -55.68 -60.8 0
v -55.68 -60.16 0
v -55.04 -60.16 0
v -55.68 -60.8 0
v -56.32 -60.8 0
v -56.32 -60.16 0
v -55.68 -60.16 0
v -53.76 -61.44 0
v -54.4 -61.44 0
v -54.4 -60.8 0
v -53.76 -60.8 0
v -54.4 -61.44 0
v -55.04 -61.44 0
v -55.04 -60.8 0
v -54.4 -60.8 0
v -55.04 -61.44 0
v -55.68 -61.44 0
v -55.68 -60.8 0
v -55.04 -60.8 0
v -55.68 -61.44 0
v -56.32 -61.44 0
v -56.32 -60.8 0
v -55.68 -60.8 0
v -53.76 -62.08 0
v -54.4 -62.08 0
v -54.4 -61.44 0
v -53.76 -61.44 0
v -54.4 -62.08 0
v -55.04 -62.08 0
v -55.04 -61.44 0
v -54.4 -61.44 0
v -55.04 -62.08 0
v -55.68 -62.08 0
v -55.68 -61.44 0
v -55.04 -61.44 0
v -55.68 -62.08 0
v -56.32 -62.08 0
v -56.32 -61.44 0
v -55.68 -61.44 0
v -53.76 -62.72 0
v -54.4 -62.72 0
v -54.4 -62.08 0
v -53.76 -62.08 0
v -54.4 -62.72 0
v -55.04 -62.72 0
v -55.04 -62.08 0
v -54.4 -62.08 0
v -55.04 -62.72 0
v -55.68 -62.72 0
v -55.68 -62.08 0
v -55.04 -62.08 0
v -55.68 -62.72 0
v -56.32 -62.72 0
v -56.32 -62.08 0
v -55.68 -62.08 0
v -53.76 -63.36 0
v -54.4 -63.36 0
v -54.4 -62.72 0
v -53.76 -62.72 0
v -54.4 -63.36 0
v -55.04 -63.36 0
v -55.04 -62.72 0
v -54.4 -62.72 0
v -55.04 -63.36 0
v -55.68 -63.36 0
v -55.68 -62.72 0
v -55.04 -62.72 0
v -55.68 -63.36 0
v -56.32 -63.36 0
v -56.32 -62.72 0
v -55.68 -62.72 0
v -53.76 -64 0
v -54.4 -64 0
v -54.4 -63.36 0
v -53.76 -63.36 0
v -54.4 -64 0
v -55.04 -64 0
v -55.04 -63.36 0
v -54.4 -63.36 0
v -55.04 -64 0
v -55.68 -64 0
v -55.68 -63.36 0
v -55.04 -63.36 0
v -55.68 -64 0
v -56.32 -64 0
v -56.32 -63.36 0
v -55.68 -63.36 0
v -53.76 -64.64 0
v -54.4 -64.64 0
v -54.4 -64 0
v -53.76 -64 0
v -54.4 -64.64 0
v -55.04 -64.64 0
v -55.04 -64 0
v -54.4 -64 0
v -55.04 -64.64 0
v -55.68 -64.64 0
v -55.68 -64 0
v -55.04 -64 0
v -55.68 -64.64 0
v -56.32 -64.64 0
v -56.32 -64 0
v -55.68 -64 0

# Texture cooridinates (Count = 10)
vt 0.1666667 0.5
vt 0.3333333 0.5
vt 0.3333333 0.5833334
vt 0.1666667 0.5833334
vt 0.5 0.5
vt 0.5 0.5833334
vt 0.6666667 0.5
vt 0.6666667 0.5833334
vt 0.8333333 0.5
vt 0.8333333 0.5833334

# Normal
vn 0 0 -1

# Mesh description
g GroundFirst_mesh_0022

# Faces
f 1/1/1 2/2/1 3/3/1 4/4/1
f 5/2/1 6/5/1 7/6/1 8/3/1
f 9/5/1 10/7/1 11/8/1 12/6/1
f 13/7/1 14/9/1 15/10/1 16/8/1
f 17/1/1 18/2/1 19/3/1 20/4/1
f 21/2/1 22/5/1 23/6/1 24/3/1
f 25/5/1 26/7/1 27/8/1 28/6/1
f 29/7/1 30/9/1 31/10/1 32/8/1
f 33/1/1 34/2/1 35/3/1 36/4/1
f 37/2/1 38/5/1 39/6/1 40/3/1
f 41/5/1 42/7/1 43/8/1 44/6/1
f 45/7/1 46/9/1 47/10/1 48/8/1
f 49/1/1 50/2/1 51/3/1 52/4/1
f 53/2/1 54/5/1 55/6/1 56/3/1
f 57/5/1 58/7/1 59/8/1 60/6/1
f 61/7/1 62/9/1 63/10/1 64/8/1
f 65/1/1 66/2/1 67/3/1 68/4/1
f 69/2/1 70/5/1 71/6/1 72/3/1
f 73/5/1 74/7/1 75/8/1 76/6/1
f 77/7/1 78/9/1 79/10/1 80/8/1
f 81/1/1 82/2/1 83/3/1 84/4/1
f 85/2/1 86/5/1 87/6/1 88/3/1
f 89/5/1 90/7/1 91/8/1 92/6/1
f 93/7/1 94/9/1 95/10/1 96/8/1
f 97/1/1 98/2/1 99/3/1 100/4/1
f 101/2/1 102/5/1 103/6/1 104/3/1
f 105/5/1 106/7/1 107/8/1 108/6/1
f 109/7/1 110/9/1 111/10/1 112/8/1
f 113/1/1 114/2/1 115/3/1 116/4/1
f 117/2/1 118/5/1 119/6/1 120/3/1
f 121/5/1 122/7/1 123/8/1 124/6/1
f 125/7/1 126/9/1 127/10/1 128/8/1
f 129/1/1 130/2/1 131/3/1 132/4/1
f 133/2/1 134/5/1 135/6/1 136/3/1
f 137/5/1 138/7/1 139/8/1 140/6/1
f 141/7/1 142/9/1 143/10/1 144/8/1

