# Tiled2Unity generated file. Do not modify by hand.
# Wavefront file for 'GroundFirst_mesh_0020.obj'

# Vertices (Count = 480)
v -39.68 -62.72 0
v -40.32 -62.72 0
v -40.32 -62.08 0
v -39.68 -62.08 0
v -40.32 -62.72 0
v -40.96 -62.72 0
v -40.96 -62.08 0
v -40.32 -62.08 0
v -40.96 -62.72 0
v -41.6 -62.72 0
v -41.6 -62.08 0
v -40.96 -62.08 0
v -41.6 -62.72 0
v -42.24 -62.72 0
v -42.24 -62.08 0
v -41.6 -62.08 0
v -44.8 -62.72 0
v -45.44 -62.72 0
v -45.44 -62.08 0
v -44.8 -62.08 0
v -45.44 -62.72 0
v -46.08 -62.72 0
v -46.08 -62.08 0
v -45.44 -62.08 0
v -46.08 -62.72 0
v -46.72 -62.72 0
v -46.72 -62.08 0
v -46.08 -62.08 0
v -46.72 -62.72 0
v -47.36 -62.72 0
v -47.36 -62.08 0
v -46.72 -62.08 0
v -49.92 -62.72 0
v -50.56 -62.72 0
v -50.56 -62.08 0
v -49.92 -62.08 0
v -50.56 -62.72 0
v -51.2 -62.72 0
v -51.2 -62.08 0
v -50.56 -62.08 0
v -51.2 -62.72 0
v -51.84 -62.72 0
v -51.84 -62.08 0
v -51.2 -62.08 0
v -51.84 -62.72 0
v -52.48 -62.72 0
v -52.48 -62.08 0
v -51.84 -62.08 0
v -55.04 -62.72 0
v -55.68 -62.72 0
v -55.68 -62.08 0
v -55.04 -62.08 0
v -55.68 -62.72 0
v -56.32 -62.72 0
v -56.32 -62.08 0
v -55.68 -62.08 0
v -56.32 -62.72 0
v -56.96 -62.72 0
v -56.96 -62.08 0
v -56.32 -62.08 0
v -56.96 -62.72 0
v -57.6 -62.72 0
v -57.6 -62.08 0
v -56.96 -62.08 0
v -60.16 -62.72 0
v -60.8 -62.72 0
v -60.8 -62.08 0
v -60.16 -62.08 0
v -60.8 -62.72 0
v -61.44 -62.72 0
v -61.44 -62.08 0
v -60.8 -62.08 0
v -61.44 -62.72 0
v -62.08 -62.72 0
v -62.08 -62.08 0
v -61.44 -62.08 0
v -62.08 -62.72 0
v -62.72 -62.72 0
v -62.72 -62.08 0
v -62.08 -62.08 0
v -39.68 -63.36 0
v -40.32 -63.36 0
v -40.32 -62.72 0
v -39.68 -62.72 0
v -40.32 -63.36 0
v -40.96 -63.36 0
v -40.96 -62.72 0
v -40.32 -62.72 0
v -40.96 -63.36 0
v -41.6 -63.36 0
v -41.6 -62.72 0
v -40.96 -62.72 0
v -41.6 -63.36 0
v -42.24 -63.36 0
v -42.24 -62.72 0
v -41.6 -62.72 0
v -44.8 -63.36 0
v -45.44 -63.36 0
v -45.44 -62.72 0
v -44.8 -62.72 0
v -45.44 -63.36 0
v -46.08 -63.36 0
v -46.08 -62.72 0
v -45.44 -62.72 0
v -46.08 -63.36 0
v -46.72 -63.36 0
v -46.72 -62.72 0
v -46.08 -62.72 0
v -46.72 -63.36 0
v -47.36 -63.36 0
v -47.36 -62.72 0
v -46.72 -62.72 0
v -49.92 -63.36 0
v -50.56 -63.36 0
v -50.56 -62.72 0
v -49.92 -62.72 0
v -50.56 -63.36 0
v -51.2 -63.36 0
v -51.2 -62.72 0
v -50.56 -62.72 0
v -51.2 -63.36 0
v -51.84 -63.36 0
v -51.84 -62.72 0
v -51.2 -62.72 0
v -51.84 -63.36 0
v -52.48 -63.36 0
v -52.48 -62.72 0
v -51.84 -62.72 0
v -55.04 -63.36 0
v -55.68 -63.36 0
v -55.68 -62.72 0
v -55.04 -62.72 0
v -55.68 -63.36 0
v -56.32 -63.36 0
v -56.32 -62.72 0
v -55.68 -62.72 0
v -56.32 -63.36 0
v -56.96 -63.36 0
v -56.96 -62.72 0
v -56.32 -62.72 0
v -56.96 -63.36 0
v -57.6 -63.36 0
v -57.6 -62.72 0
v -56.96 -62.72 0
v -60.16 -63.36 0
v -60.8 -63.36 0
v -60.8 -62.72 0
v -60.16 -62.72 0
v -60.8 -63.36 0
v -61.44 -63.36 0
v -61.44 -62.72 0
v -60.8 -62.72 0
v -61.44 -63.36 0
v -62.08 -63.36 0
v -62.08 -62.72 0
v -61.44 -62.72 0
v -62.08 -63.36 0
v -62.72 -63.36 0
v -62.72 -62.72 0
v -62.08 -62.72 0
v -39.68 -64 0
v -40.32 -64 0
v -40.32 -63.36 0
v -39.68 -63.36 0
v -40.32 -64 0
v -40.96 -64 0
v -40.96 -63.36 0
v -40.32 -63.36 0
v -40.96 -64 0
v -41.6 -64 0
v -41.6 -63.36 0
v -40.96 -63.36 0
v -41.6 -64 0
v -42.24 -64 0
v -42.24 -63.36 0
v -41.6 -63.36 0
v -44.8 -64 0
v -45.44 -64 0
v -45.44 -63.36 0
v -44.8 -63.36 0
v -45.44 -64 0
v -46.08 -64 0
v -46.08 -63.36 0
v -45.44 -63.36 0
v -46.08 -64 0
v -46.72 -64 0
v -46.72 -63.36 0
v -46.08 -63.36 0
v -46.72 -64 0
v -47.36 -64 0
v -47.36 -63.36 0
v -46.72 -63.36 0
v -49.92 -64 0
v -50.56 -64 0
v -50.56 -63.36 0
v -49.92 -63.36 0
v -50.56 -64 0
v -51.2 -64 0
v -51.2 -63.36 0
v -50.56 -63.36 0
v -51.2 -64 0
v -51.84 -64 0
v -51.84 -63.36 0
v -51.2 -63.36 0
v -51.84 -64 0
v -52.48 -64 0
v -52.48 -63.36 0
v -51.84 -63.36 0
v -55.04 -64 0
v -55.68 -64 0
v -55.68 -63.36 0
v -55.04 -63.36 0
v -55.68 -64 0
v -56.32 -64 0
v -56.32 -63.36 0
v -55.68 -63.36 0
v -56.32 -64 0
v -56.96 -64 0
v -56.96 -63.36 0
v -56.32 -63.36 0
v -56.96 -64 0
v -57.6 -64 0
v -57.6 -63.36 0
v -56.96 -63.36 0
v -60.16 -64 0
v -60.8 -64 0
v -60.8 -63.36 0
v -60.16 -63.36 0
v -60.8 -64 0
v -61.44 -64 0
v -61.44 -63.36 0
v -60.8 -63.36 0
v -61.44 -64 0
v -62.08 -64 0
v -62.08 -63.36 0
v -61.44 -63.36 0
v -62.08 -64 0
v -62.72 -64 0
v -62.72 -63.36 0
v -62.08 -63.36 0
v -39.68 -64.64 0
v -40.32 -64.64 0
v -40.32 -64 0
v -39.68 -64 0
v -40.32 -64.64 0
v -40.96 -64.64 0
v -40.96 -64 0
v -40.32 -64 0
v -40.96 -64.64 0
v -41.6 -64.64 0
v -41.6 -64 0
v -40.96 -64 0
v -41.6 -64.64 0
v -42.24 -64.64 0
v -42.24 -64 0
v -41.6 -64 0
v -44.8 -64.64 0
v -45.44 -64.64 0
v -45.44 -64 0
v -44.8 -64 0
v -45.44 -64.64 0
v -46.08 -64.64 0
v -46.08 -64 0
v -45.44 -64 0
v -46.08 -64.64 0
v -46.72 -64.64 0
v -46.72 -64 0
v -46.08 -64 0
v -46.72 -64.64 0
v -47.36 -64.64 0
v -47.36 -64 0
v -46.72 -64 0
v -49.92 -64.64 0
v -50.56 -64.64 0
v -50.56 -64 0
v -49.92 -64 0
v -50.56 -64.64 0
v -51.2 -64.64 0
v -51.2 -64 0
v -50.56 -64 0
v -51.2 -64.64 0
v -51.84 -64.64 0
v -51.84 -64 0
v -51.2 -64 0
v -51.84 -64.64 0
v -52.48 -64.64 0
v -52.48 -64 0
v -51.84 -64 0
v -55.04 -64.64 0
v -55.68 -64.64 0
v -55.68 -64 0
v -55.04 -64 0
v -55.68 -64.64 0
v -56.32 -64.64 0
v -56.32 -64 0
v -55.68 -64 0
v -56.32 -64.64 0
v -56.96 -64.64 0
v -56.96 -64 0
v -56.32 -64 0
v -56.96 -64.64 0
v -57.6 -64.64 0
v -57.6 -64 0
v -56.96 -64 0
v -60.16 -64.64 0
v -60.8 -64.64 0
v -60.8 -64 0
v -60.16 -64 0
v -60.8 -64.64 0
v -61.44 -64.64 0
v -61.44 -64 0
v -60.8 -64 0
v -61.44 -64.64 0
v -62.08 -64.64 0
v -62.08 -64 0
v -61.44 -64 0
v -62.08 -64.64 0
v -62.72 -64.64 0
v -62.72 -64 0
v -62.08 -64 0
v -39.68 -65.28 0
v -40.32 -65.28 0
v -40.32 -64.64 0
v -39.68 -64.64 0
v -40.32 -65.28 0
v -40.96 -65.28 0
v -40.96 -64.64 0
v -40.32 -64.64 0
v -40.96 -65.28 0
v -41.6 -65.28 0
v -41.6 -64.64 0
v -40.96 -64.64 0
v -41.6 -65.28 0
v -42.24 -65.28 0
v -42.24 -64.64 0
v -41.6 -64.64 0
v -44.8 -65.28 0
v -45.44 -65.28 0
v -45.44 -64.64 0
v -44.8 -64.64 0
v -45.44 -65.28 0
v -46.08 -65.28 0
v -46.08 -64.64 0
v -45.44 -64.64 0
v -46.08 -65.28 0
v -46.72 -65.28 0
v -46.72 -64.64 0
v -46.08 -64.64 0
v -46.72 -65.28 0
v -47.36 -65.28 0
v -47.36 -64.64 0
v -46.72 -64.64 0
v -49.92 -65.28 0
v -50.56 -65.28 0
v -50.56 -64.64 0
v -49.92 -64.64 0
v -50.56 -65.28 0
v -51.2 -65.28 0
v -51.2 -64.64 0
v -50.56 -64.64 0
v -51.2 -65.28 0
v -51.84 -65.28 0
v -51.84 -64.64 0
v -51.2 -64.64 0
v -51.84 -65.28 0
v -52.48 -65.28 0
v -52.48 -64.64 0
v -51.84 -64.64 0
v -55.04 -65.28 0
v -55.68 -65.28 0
v -55.68 -64.64 0
v -55.04 -64.64 0
v -55.68 -65.28 0
v -56.32 -65.28 0
v -56.32 -64.64 0
v -55.68 -64.64 0
v -56.32 -65.28 0
v -56.96 -65.28 0
v -56.96 -64.64 0
v -56.32 -64.64 0
v -56.96 -65.28 0
v -57.6 -65.28 0
v -57.6 -64.64 0
v -56.96 -64.64 0
v -60.16 -65.28 0
v -60.8 -65.28 0
v -60.8 -64.64 0
v -60.16 -64.64 0
v -60.8 -65.28 0
v -61.44 -65.28 0
v -61.44 -64.64 0
v -60.8 -64.64 0
v -61.44 -65.28 0
v -62.08 -65.28 0
v -62.08 -64.64 0
v -61.44 -64.64 0
v -62.08 -65.28 0
v -62.72 -65.28 0
v -62.72 -64.64 0
v -62.08 -64.64 0
v -39.68 -65.92 0
v -40.32 -65.92 0
v -40.32 -65.28 0
v -39.68 -65.28 0
v -40.32 -65.92 0
v -40.96 -65.92 0
v -40.96 -65.28 0
v -40.32 -65.28 0
v -40.96 -65.92 0
v -41.6 -65.92 0
v -41.6 -65.28 0
v -40.96 -65.28 0
v -41.6 -65.92 0
v -42.24 -65.92 0
v -42.24 -65.28 0
v -41.6 -65.28 0
v -44.8 -65.92 0
v -45.44 -65.92 0
v -45.44 -65.28 0
v -44.8 -65.28 0
v -45.44 -65.92 0
v -46.08 -65.92 0
v -46.08 -65.28 0
v -45.44 -65.28 0
v -46.08 -65.92 0
v -46.72 -65.92 0
v -46.72 -65.28 0
v -46.08 -65.28 0
v -46.72 -65.92 0
v -47.36 -65.92 0
v -47.36 -65.28 0
v -46.72 -65.28 0
v -49.92 -65.92 0
v -50.56 -65.92 0
v -50.56 -65.28 0
v -49.92 -65.28 0
v -50.56 -65.92 0
v -51.2 -65.92 0
v -51.2 -65.28 0
v -50.56 -65.28 0
v -51.2 -65.92 0
v -51.84 -65.92 0
v -51.84 -65.28 0
v -51.2 -65.28 0
v -51.84 -65.92 0
v -52.48 -65.92 0
v -52.48 -65.28 0
v -51.84 -65.28 0
v -55.04 -65.92 0
v -55.68 -65.92 0
v -55.68 -65.28 0
v -55.04 -65.28 0
v -55.68 -65.92 0
v -56.32 -65.92 0
v -56.32 -65.28 0
v -55.68 -65.28 0
v -56.32 -65.92 0
v -56.96 -65.92 0
v -56.96 -65.28 0
v -56.32 -65.28 0
v -56.96 -65.92 0
v -57.6 -65.92 0
v -57.6 -65.28 0
v -56.96 -65.28 0
v -60.16 -65.92 0
v -60.8 -65.92 0
v -60.8 -65.28 0
v -60.16 -65.28 0
v -60.8 -65.92 0
v -61.44 -65.92 0
v -61.44 -65.28 0
v -60.8 -65.28 0
v -61.44 -65.92 0
v -62.08 -65.92 0
v -62.08 -65.28 0
v -61.44 -65.28 0
v -62.08 -65.92 0
v -62.72 -65.92 0
v -62.72 -65.28 0
v -62.08 -65.28 0

# Texture cooridinates (Count = 42)
vt 0.125 0.96875
vt 0.15625 0.96875
vt 0.15625 1
vt 0.125 1
vt 0.1875 0.96875
vt 0.21875 0.96875
vt 0.21875 1
vt 0.1875 1
vt 0.25 0.96875
vt 0.28125 0.96875
vt 0.28125 1
vt 0.25 1
vt 0.3125 0.96875
vt 0.3125 1
vt 0.125 0.9375
vt 0.15625 0.9375
vt 0.1875 0.9375
vt 0.21875 0.9375
vt 0.25 0.9375
vt 0.28125 0.9375
vt 0.3125 0.9375
vt 0.1875 0.90625
vt 0.21875 0.90625
vt 0.25 0.90625
vt 0.125 0.90625
vt 0.15625 0.90625
vt 0.28125 0.90625
vt 0.3125 0.90625
vt 0.125 0.875
vt 0.15625 0.875
vt 0.1875 0.875
vt 0.21875 0.875
vt 0.25 0.875
vt 0.28125 0.875
vt 0.3125 0.875
vt 0.125 0.84375
vt 0.15625 0.84375
vt 0.1875 0.84375
vt 0.21875 0.84375
vt 0.25 0.84375
vt 0.28125 0.84375
vt 0.3125 0.84375

# Normal
vn 0 0 -1

# Mesh description
g GroundFirst_mesh_0020

# Faces
f 1/1/1 2/2/1 3/3/1 4/4/1
f 5/5/1 6/6/1 7/7/1 8/8/1
f 9/9/1 10/10/1 11/11/1 12/12/1
f 13/10/1 14/13/1 15/14/1 16/11/1
f 17/1/1 18/2/1 19/3/1 20/4/1
f 21/5/1 22/6/1 23/7/1 24/8/1
f 25/9/1 26/10/1 27/11/1 28/12/1
f 29/10/1 30/13/1 31/14/1 32/11/1
f 33/1/1 34/2/1 35/3/1 36/4/1
f 37/2/1 38/5/1 39/8/1 40/3/1
f 41/5/1 42/6/1 43/7/1 44/8/1
f 45/10/1 46/13/1 47/14/1 48/11/1
f 49/1/1 50/2/1 51/3/1 52/4/1
f 53/5/1 54/6/1 55/7/1 56/8/1
f 57/9/1 58/10/1 59/11/1 60/12/1
f 61/10/1 62/13/1 63/14/1 64/11/1
f 65/1/1 66/2/1 67/3/1 68/4/1
f 69/5/1 70/6/1 71/7/1 72/8/1
f 73/9/1 74/10/1 75/11/1 76/12/1
f 77/10/1 78/13/1 79/14/1 80/11/1
f 81/15/1 82/16/1 83/2/1 84/1/1
f 85/17/1 86/18/1 87/6/1 88/5/1
f 89/19/1 90/20/1 91/10/1 92/9/1
f 93/20/1 94/21/1 95/13/1 96/10/1
f 97/15/1 98/16/1 99/2/1 100/1/1
f 101/17/1 102/18/1 103/6/1 104/5/1
f 105/19/1 106/20/1 107/10/1 108/9/1
f 109/20/1 110/21/1 111/13/1 112/10/1
f 113/15/1 114/16/1 115/2/1 116/1/1
f 117/22/1 118/23/1 119/18/1 120/17/1
f 121/23/1 122/24/1 123/19/1 124/18/1
f 125/20/1 126/21/1 127/13/1 128/10/1
f 129/15/1 130/16/1 131/2/1 132/1/1
f 133/17/1 134/18/1 135/6/1 136/5/1
f 137/19/1 138/20/1 139/10/1 140/9/1
f 141/20/1 142/21/1 143/13/1 144/10/1
f 145/15/1 146/16/1 147/2/1 148/1/1
f 149/17/1 150/18/1 151/6/1 152/5/1
f 153/19/1 154/20/1 155/10/1 156/9/1
f 157/20/1 158/21/1 159/13/1 160/10/1
f 161/25/1 162/26/1 163/16/1 164/15/1
f 165/22/1 166/23/1 167/18/1 168/17/1
f 169/24/1 170/27/1 171/20/1 172/19/1
f 173/27/1 174/28/1 175/21/1 176/20/1
f 177/25/1 178/26/1 179/16/1 180/15/1
f 181/22/1 182/23/1 183/18/1 184/17/1
f 185/24/1 186/27/1 187/20/1 188/19/1
f 189/27/1 190/28/1 191/21/1 192/20/1
f 193/25/1 194/26/1 195/16/1 196/15/1
f 197/22/1 198/23/1 199/18/1 200/17/1
f 201/23/1 202/24/1 203/19/1 204/18/1
f 205/27/1 206/28/1 207/21/1 208/20/1
f 209/25/1 210/26/1 211/16/1 212/15/1
f 213/22/1 214/23/1 215/18/1 216/17/1
f 217/24/1 218/27/1 219/20/1 220/19/1
f 221/27/1 222/28/1 223/21/1 224/20/1
f 225/25/1 226/26/1 227/16/1 228/15/1
f 229/22/1 230/23/1 231/18/1 232/17/1
f 233/24/1 234/27/1 235/20/1 236/19/1
f 237/27/1 238/28/1 239/21/1 240/20/1
f 241/29/1 242/30/1 243/26/1 244/25/1
f 245/31/1 246/32/1 247/23/1 248/22/1
f 249/33/1 250/34/1 251/27/1 252/24/1
f 253/34/1 254/35/1 255/28/1 256/27/1
f 257/29/1 258/30/1 259/26/1 260/25/1
f 261/31/1 262/32/1 263/23/1 264/22/1
f 265/33/1 266/34/1 267/27/1 268/24/1
f 269/34/1 270/35/1 271/28/1 272/27/1
f 273/29/1 274/30/1 275/26/1 276/25/1
f 277/22/1 278/23/1 279/18/1 280/17/1
f 281/23/1 282/24/1 283/19/1 284/18/1
f 285/34/1 286/35/1 287/28/1 288/27/1
f 289/29/1 290/30/1 291/26/1 292/25/1
f 293/31/1 294/32/1 295/23/1 296/22/1
f 297/33/1 298/34/1 299/27/1 300/24/1
f 301/34/1 302/35/1 303/28/1 304/27/1
f 305/29/1 306/30/1 307/26/1 308/25/1
f 309/31/1 310/32/1 311/23/1 312/22/1
f 313/33/1 314/34/1 315/27/1 316/24/1
f 317/34/1 318/35/1 319/28/1 320/27/1
f 321/36/1 322/37/1 323/30/1 324/29/1
f 325/38/1 326/39/1 327/32/1 328/31/1
f 329/40/1 330/41/1 331/34/1 332/33/1
f 333/41/1 334/42/1 335/35/1 336/34/1
f 337/36/1 338/37/1 339/30/1 340/29/1
f 341/38/1 342/39/1 343/32/1 344/31/1
f 345/40/1 346/41/1 347/34/1 348/33/1
f 349/41/1 350/42/1 351/35/1 352/34/1
f 353/36/1 354/37/1 355/30/1 356/29/1
f 357/31/1 358/32/1 359/23/1 360/22/1
f 361/32/1 362/33/1 363/24/1 364/23/1
f 365/41/1 366/42/1 367/35/1 368/34/1
f 369/36/1 370/37/1 371/30/1 372/29/1
f 373/38/1 374/39/1 375/32/1 376/31/1
f 377/40/1 378/41/1 379/34/1 380/33/1
f 381/41/1 382/42/1 383/35/1 384/34/1
f 385/36/1 386/37/1 387/30/1 388/29/1
f 389/38/1 390/39/1 391/32/1 392/31/1
f 393/40/1 394/41/1 395/34/1 396/33/1
f 397/41/1 398/42/1 399/35/1 400/34/1
f 401/36/1 402/37/1 403/30/1 404/29/1
f 405/38/1 406/39/1 407/32/1 408/31/1
f 409/40/1 410/41/1 411/34/1 412/33/1
f 413/41/1 414/42/1 415/35/1 416/34/1
f 417/36/1 418/37/1 419/30/1 420/29/1
f 421/38/1 422/39/1 423/32/1 424/31/1
f 425/40/1 426/41/1 427/34/1 428/33/1
f 429/41/1 430/42/1 431/35/1 432/34/1
f 433/36/1 434/37/1 435/30/1 436/29/1
f 437/38/1 438/39/1 439/32/1 440/31/1
f 441/39/1 442/40/1 443/33/1 444/32/1
f 445/41/1 446/42/1 447/35/1 448/34/1
f 449/36/1 450/37/1 451/30/1 452/29/1
f 453/38/1 454/39/1 455/32/1 456/31/1
f 457/40/1 458/41/1 459/34/1 460/33/1
f 461/41/1 462/42/1 463/35/1 464/34/1
f 465/36/1 466/37/1 467/30/1 468/29/1
f 469/38/1 470/39/1 471/32/1 472/31/1
f 473/40/1 474/41/1 475/34/1 476/33/1
f 477/41/1 478/42/1 479/35/1 480/34/1

