# Tiled2Unity generated file. Do not modify by hand.
# Wavefront file for 'GroundFirst_mesh_0033.obj'

# Vertices (Count = 128)
v -16.64 -55.68 0
v -17.28 -55.68 0
v -17.28 -55.04 0
v -16.64 -55.04 0
v -17.28 -55.68 0
v -17.92 -55.68 0
v -17.92 -55.04 0
v -17.28 -55.04 0
v -17.92 -55.68 0
v -18.56 -55.68 0
v -18.56 -55.04 0
v -17.92 -55.04 0
v -18.56 -55.68 0
v -19.2 -55.68 0
v -19.2 -55.04 0
v -18.56 -55.04 0
v -26.88 -55.68 0
v -27.52 -55.68 0
v -27.52 -55.04 0
v -26.88 -55.04 0
v -27.52 -55.68 0
v -28.16 -55.68 0
v -28.16 -55.04 0
v -27.52 -55.04 0
v -28.16 -55.68 0
v -28.8 -55.68 0
v -28.8 -55.04 0
v -28.16 -55.04 0
v -28.8 -55.68 0
v -29.44 -55.68 0
v -29.44 -55.04 0
v -28.8 -55.04 0
v -16.64 -56.32 0
v -17.28 -56.32 0
v -17.28 -55.68 0
v -16.64 -55.68 0
v -17.28 -56.32 0
v -17.92 -56.32 0
v -17.92 -55.68 0
v -17.28 -55.68 0
v -17.92 -56.32 0
v -18.56 -56.32 0
v -18.56 -55.68 0
v -17.92 -55.68 0
v -18.56 -56.32 0
v -19.2 -56.32 0
v -19.2 -55.68 0
v -18.56 -55.68 0
v -26.88 -56.32 0
v -27.52 -56.32 0
v -27.52 -55.68 0
v -26.88 -55.68 0
v -27.52 -56.32 0
v -28.16 -56.32 0
v -28.16 -55.68 0
v -27.52 -55.68 0
v -28.16 -56.32 0
v -28.8 -56.32 0
v -28.8 -55.68 0
v -28.16 -55.68 0
v -28.8 -56.32 0
v -29.44 -56.32 0
v -29.44 -55.68 0
v -28.8 -55.68 0
v -16.64 -56.96 0
v -17.28 -56.96 0
v -17.28 -56.32 0
v -16.64 -56.32 0
v -17.28 -56.96 0
v -17.92 -56.96 0
v -17.92 -56.32 0
v -17.28 -56.32 0
v -17.92 -56.96 0
v -18.56 -56.96 0
v -18.56 -56.32 0
v -17.92 -56.32 0
v -18.56 -56.96 0
v -19.2 -56.96 0
v -19.2 -56.32 0
v -18.56 -56.32 0
v -26.88 -56.96 0
v -27.52 -56.96 0
v -27.52 -56.32 0
v -26.88 -56.32 0
v -27.52 -56.96 0
v -28.16 -56.96 0
v -28.16 -56.32 0
v -27.52 -56.32 0
v -28.16 -56.96 0
v -28.8 -56.96 0
v -28.8 -56.32 0
v -28.16 -56.32 0
v -28.8 -56.96 0
v -29.44 -56.96 0
v -29.44 -56.32 0
v -28.8 -56.32 0
v -16.64 -57.6 0
v -17.28 -57.6 0
v -17.28 -56.96 0
v -16.64 -56.96 0
v -17.28 -57.6 0
v -17.92 -57.6 0
v -17.92 -56.96 0
v -17.28 -56.96 0
v -17.92 -57.6 0
v -18.56 -57.6 0
v -18.56 -56.96 0
v -17.92 -56.96 0
v -18.56 -57.6 0
v -19.2 -57.6 0
v -19.2 -56.96 0
v -18.56 -56.96 0
v -26.88 -57.6 0
v -27.52 -57.6 0
v -27.52 -56.96 0
v -26.88 -56.96 0
v -27.52 -57.6 0
v -28.16 -57.6 0
v -28.16 -56.96 0
v -27.52 -56.96 0
v -28.16 -57.6 0
v -28.8 -57.6 0
v -28.8 -56.96 0
v -28.16 -56.96 0
v -28.8 -57.6 0
v -29.44 -57.6 0
v -29.44 -56.96 0
v -28.8 -56.96 0

# Texture cooridinates (Count = 25)
vt 0.25 0.9375
vt 0.3125 0.9375
vt 0.3125 1
vt 0.25 1
vt 0.375 0.9375
vt 0.375 1
vt 0.4375 0.9375
vt 0.4375 1
vt 0.5 0.9375
vt 0.5 1
vt 0.25 0.875
vt 0.3125 0.875
vt 0.375 0.875
vt 0.4375 0.875
vt 0.5 0.875
vt 0.25 0.8125
vt 0.3125 0.8125
vt 0.375 0.8125
vt 0.4375 0.8125
vt 0.5 0.8125
vt 0.25 0.75
vt 0.3125 0.75
vt 0.375 0.75
vt 0.4375 0.75
vt 0.5 0.75

# Normal
vn 0 0 -1

# Mesh description
g GroundFirst_mesh_0033

# Faces
f 1/1/1 2/2/1 3/3/1 4/4/1
f 5/2/1 6/5/1 7/6/1 8/3/1
f 9/5/1 10/7/1 11/8/1 12/6/1
f 13/7/1 14/9/1 15/10/1 16/8/1
f 17/1/1 18/2/1 19/3/1 20/4/1
f 21/2/1 22/5/1 23/6/1 24/3/1
f 25/5/1 26/7/1 27/8/1 28/6/1
f 29/7/1 30/9/1 31/10/1 32/8/1
f 33/11/1 34/12/1 35/2/1 36/1/1
f 37/12/1 38/13/1 39/5/1 40/2/1
f 41/13/1 42/14/1 43/7/1 44/5/1
f 45/14/1 46/15/1 47/9/1 48/7/1
f 49/11/1 50/12/1 51/2/1 52/1/1
f 53/12/1 54/13/1 55/5/1 56/2/1
f 57/13/1 58/14/1 59/7/1 60/5/1
f 61/14/1 62/15/1 63/9/1 64/7/1
f 65/16/1 66/17/1 67/12/1 68/11/1
f 69/17/1 70/18/1 71/13/1 72/12/1
f 73/18/1 74/19/1 75/14/1 76/13/1
f 77/19/1 78/20/1 79/15/1 80/14/1
f 81/16/1 82/17/1 83/12/1 84/11/1
f 85/17/1 86/18/1 87/13/1 88/12/1
f 89/18/1 90/19/1 91/14/1 92/13/1
f 93/19/1 94/20/1 95/15/1 96/14/1
f 97/21/1 98/22/1 99/17/1 100/16/1
f 101/22/1 102/23/1 103/18/1 104/17/1
f 105/23/1 106/24/1 107/19/1 108/18/1
f 109/24/1 110/25/1 111/20/1 112/19/1
f 113/21/1 114/22/1 115/17/1 116/16/1
f 117/22/1 118/23/1 119/18/1 120/17/1
f 121/23/1 122/24/1 123/19/1 124/18/1
f 125/24/1 126/25/1 127/20/1 128/19/1

