# Tiled2Unity generated file. Do not modify by hand.
# Wavefront file for 'GroundFirst_mesh_0050.obj'

# Vertices (Count = 240)
v -26.24 -53.12 0
v -26.88 -53.12 0
v -26.88 -52.48 0
v -26.24 -52.48 0
v -26.88 -53.12 0
v -27.52 -53.12 0
v -27.52 -52.48 0
v -26.88 -52.48 0
v -26.24 -53.76 0
v -26.88 -53.76 0
v -26.88 -53.12 0
v -26.24 -53.12 0
v -26.88 -53.76 0
v -27.52 -53.76 0
v -27.52 -53.12 0
v -26.88 -53.12 0
v -26.24 -54.4 0
v -26.88 -54.4 0
v -26.88 -53.76 0
v -26.24 -53.76 0
v -26.88 -54.4 0
v -27.52 -54.4 0
v -27.52 -53.76 0
v -26.88 -53.76 0
v -26.24 -55.04 0
v -26.88 -55.04 0
v -26.88 -54.4 0
v -26.24 -54.4 0
v -26.88 -55.04 0
v -27.52 -55.04 0
v -27.52 -54.4 0
v -26.88 -54.4 0
v -26.24 -55.68 0
v -26.88 -55.68 0
v -26.88 -55.04 0
v -26.24 -55.04 0
v -26.88 -55.68 0
v -27.52 -55.68 0
v -27.52 -55.04 0
v -26.88 -55.04 0
v -26.24 -56.32 0
v -26.88 -56.32 0
v -26.88 -55.68 0
v -26.24 -55.68 0
v -26.88 -56.32 0
v -27.52 -56.32 0
v -27.52 -55.68 0
v -26.88 -55.68 0
v -26.24 -56.96 0
v -26.88 -56.96 0
v -26.88 -56.32 0
v -26.24 -56.32 0
v -26.88 -56.96 0
v -27.52 -56.96 0
v -27.52 -56.32 0
v -26.88 -56.32 0
v -26.24 -57.6 0
v -26.88 -57.6 0
v -26.88 -56.96 0
v -26.24 -56.96 0
v -26.88 -57.6 0
v -27.52 -57.6 0
v -27.52 -56.96 0
v -26.88 -56.96 0
v -26.24 -58.24 0
v -26.88 -58.24 0
v -26.88 -57.6 0
v -26.24 -57.6 0
v -26.88 -58.24 0
v -27.52 -58.24 0
v -27.52 -57.6 0
v -26.88 -57.6 0
v -26.24 -58.88 0
v -26.88 -58.88 0
v -26.88 -58.24 0
v -26.24 -58.24 0
v -26.88 -58.88 0
v -27.52 -58.88 0
v -27.52 -58.24 0
v -26.88 -58.24 0
v -60.8 -72.96 0
v -61.44 -72.96 0
v -61.44 -72.32 0
v -60.8 -72.32 0
v -61.44 -72.96 0
v -62.08 -72.96 0
v -62.08 -72.32 0
v -61.44 -72.32 0
v -60.8 -73.6 0
v -61.44 -73.6 0
v -61.44 -72.96 0
v -60.8 -72.96 0
v -61.44 -73.6 0
v -62.08 -73.6 0
v -62.08 -72.96 0
v -61.44 -72.96 0
v -46.72 -81.28 0
v -47.36 -81.28 0
v -47.36 -80.64 0
v -46.72 -80.64 0
v -47.36 -81.28 0
v -48 -81.28 0
v -48 -80.64 0
v -47.36 -80.64 0
v -51.84 -81.28 0
v -52.48 -81.28 0
v -52.48 -80.64 0
v -51.84 -80.64 0
v -52.48 -81.28 0
v -53.12 -81.28 0
v -53.12 -80.64 0
v -52.48 -80.64 0
v -62.08 -81.28 0
v -62.72 -81.28 0
v -62.72 -80.64 0
v -62.08 -80.64 0
v -62.72 -81.28 0
v -63.36 -81.28 0
v -63.36 -80.64 0
v -62.72 -80.64 0
v -42.24 -81.92 0
v -42.88 -81.92 0
v -42.88 -81.28 0
v -42.24 -81.28 0
v -42.88 -81.92 0
v -43.52 -81.92 0
v -43.52 -81.28 0
v -42.88 -81.28 0
v -46.72 -81.92 0
v -47.36 -81.92 0
v -47.36 -81.28 0
v -46.72 -81.28 0
v -47.36 -81.92 0
v -48 -81.92 0
v -48 -81.28 0
v -47.36 -81.28 0
v -51.84 -81.92 0
v -52.48 -81.92 0
v -52.48 -81.28 0
v -51.84 -81.28 0
v -52.48 -81.92 0
v -53.12 -81.92 0
v -53.12 -81.28 0
v -52.48 -81.28 0
v -56.96 -81.92 0
v -57.6 -81.92 0
v -57.6 -81.28 0
v -56.96 -81.28 0
v -57.6 -81.92 0
v -58.24 -81.92 0
v -58.24 -81.28 0
v -57.6 -81.28 0
v -62.08 -81.92 0
v -62.72 -81.92 0
v -62.72 -81.28 0
v -62.08 -81.28 0
v -62.72 -81.92 0
v -63.36 -81.92 0
v -63.36 -81.28 0
v -62.72 -81.28 0
v -66.56 -81.92 0
v -67.2 -81.92 0
v -67.2 -81.28 0
v -66.56 -81.28 0
v -67.2 -81.92 0
v -67.84 -81.92 0
v -67.84 -81.28 0
v -67.2 -81.28 0
v -46.72 -83.2 0
v -47.36 -83.2 0
v -47.36 -82.56 0
v -46.72 -82.56 0
v -47.36 -83.2 0
v -48 -83.2 0
v -48 -82.56 0
v -47.36 -82.56 0
v -56.96 -83.2 0
v -57.6 -83.2 0
v -57.6 -82.56 0
v -56.96 -82.56 0
v -57.6 -83.2 0
v -58.24 -83.2 0
v -58.24 -82.56 0
v -57.6 -82.56 0
v -62.08 -83.2 0
v -62.72 -83.2 0
v -62.72 -82.56 0
v -62.08 -82.56 0
v -62.72 -83.2 0
v -63.36 -83.2 0
v -63.36 -82.56 0
v -62.72 -82.56 0
v -46.72 -83.84 0
v -47.36 -83.84 0
v -47.36 -83.2 0
v -46.72 -83.2 0
v -47.36 -83.84 0
v -48 -83.84 0
v -48 -83.2 0
v -47.36 -83.2 0
v -56.96 -83.84 0
v -57.6 -83.84 0
v -57.6 -83.2 0
v -56.96 -83.2 0
v -57.6 -83.84 0
v -58.24 -83.84 0
v -58.24 -83.2 0
v -57.6 -83.2 0
v -62.08 -83.84 0
v -62.72 -83.84 0
v -62.72 -83.2 0
v -62.08 -83.2 0
v -62.72 -83.84 0
v -63.36 -83.84 0
v -63.36 -83.2 0
v -62.72 -83.2 0
v -46.72 -84.48 0
v -47.36 -84.48 0
v -47.36 -83.84 0
v -46.72 -83.84 0
v -47.36 -84.48 0
v -48 -84.48 0
v -48 -83.84 0
v -47.36 -83.84 0
v -56.96 -84.48 0
v -57.6 -84.48 0
v -57.6 -83.84 0
v -56.96 -83.84 0
v -57.6 -84.48 0
v -58.24 -84.48 0
v -58.24 -83.84 0
v -57.6 -83.84 0
v -62.08 -84.48 0
v -62.72 -84.48 0
v -62.72 -83.84 0
v -62.08 -83.84 0
v -62.72 -84.48 0
v -63.36 -84.48 0
v -63.36 -83.84 0
v -62.72 -83.84 0

# Texture cooridinates (Count = 71)
vt 0.625 0.53125
vt 0.65625 0.53125
vt 0.65625 0.5625
vt 0.625 0.5625
vt 0.6875 0.53125
vt 0.6875 0.5625
vt 0.625 0.5
vt 0.65625 0.5
vt 0.6875 0.5
vt 0.5625 0.46875
vt 0.59375 0.46875
vt 0.59375 0.5
vt 0.5625 0.5
vt 0.625 0.46875
vt 0.5625 0.4375
vt 0.59375 0.4375
vt 0.625 0.4375
vt 0.8125 0.84375
vt 0.84375 0.84375
vt 0.84375 0.875
vt 0.8125 0.875
vt 0.875 0.84375
vt 0.875 0.875
vt 0.8125 0.8125
vt 0.84375 0.8125
vt 0.875 0.8125
vt 0.6875 0.9375
vt 0.71875 0.9375
vt 0.71875 0.96875
vt 0.6875 0.96875
vt 0.75 0.9375
vt 0.75 0.96875
vt 0.625 0.9375
vt 0.65625 0.9375
vt 0.65625 0.96875
vt 0.625 0.96875
vt 0.65625 1
vt 0.625 1
vt 0.6875 1
vt 0.6875 0.90625
vt 0.71875 0.90625
vt 0.75 0.90625
vt 0.625 0.90625
vt 0.65625 0.90625
vt 0.3125 0.59375
vt 0.34375 0.59375
vt 0.34375 0.625
vt 0.3125 0.625
vt 0.375 0.59375
vt 0.375 0.625
vt 0.25 0.5625
vt 0.28125 0.5625
vt 0.28125 0.59375
vt 0.25 0.59375
vt 0.3125 0.5625
vt 0.34375 0.5625
vt 0.375 0.5625
vt 0.25 0.53125
vt 0.28125 0.53125
vt 0.3125 0.53125
vt 0.34375 0.53125
vt 0.375 0.53125
vt 0.375 0.5
vt 0.40625 0.5
vt 0.40625 0.53125
vt 0.4375 0.5
vt 0.4375 0.53125
vt 0.25 0.5
vt 0.28125 0.5
vt 0.3125 0.5
vt 0.34375 0.5

# Normal
vn 0 0 -1

# Mesh description
g GroundFirst_mesh_0050

# Faces
f 1/1/1 2/2/1 3/3/1 4/4/1
f 5/2/1 6/5/1 7/6/1 8/3/1
f 9/7/1 10/8/1 11/2/1 12/1/1
f 13/8/1 14/9/1 15/5/1 16/2/1
f 17/7/1 18/8/1 19/2/1 20/1/1
f 21/8/1 22/9/1 23/5/1 24/2/1
f 25/7/1 26/8/1 27/2/1 28/1/1
f 29/8/1 30/9/1 31/5/1 32/2/1
f 33/7/1 34/8/1 35/2/1 36/1/1
f 37/8/1 38/9/1 39/5/1 40/2/1
f 41/7/1 42/8/1 43/2/1 44/1/1
f 45/8/1 46/9/1 47/5/1 48/2/1
f 49/7/1 50/8/1 51/2/1 52/1/1
f 53/8/1 54/9/1 55/5/1 56/2/1
f 57/7/1 58/8/1 59/2/1 60/1/1
f 61/8/1 62/9/1 63/5/1 64/2/1
f 65/10/1 66/11/1 67/12/1 68/13/1
f 69/11/1 70/14/1 71/7/1 72/12/1
f 73/15/1 74/16/1 75/11/1 76/10/1
f 77/16/1 78/17/1 79/14/1 80/11/1
f 81/18/1 82/19/1 83/20/1 84/21/1
f 85/19/1 86/22/1 87/23/1 88/20/1
f 89/24/1 90/25/1 91/19/1 92/18/1
f 93/25/1 94/26/1 95/22/1 96/19/1
f 97/27/1 98/28/1 99/29/1 100/30/1
f 101/28/1 102/31/1 103/32/1 104/29/1
f 105/33/1 106/34/1 107/35/1 108/36/1
f 109/34/1 110/27/1 111/30/1 112/35/1
f 113/27/1 114/28/1 115/29/1 116/30/1
f 117/28/1 118/31/1 119/32/1 120/29/1
f 121/36/1 122/35/1 123/37/1 124/38/1
f 125/35/1 126/30/1 127/39/1 128/37/1
f 129/40/1 130/41/1 131/28/1 132/27/1
f 133/41/1 134/42/1 135/31/1 136/28/1
f 137/43/1 138/44/1 139/34/1 140/33/1
f 141/44/1 142/40/1 143/27/1 144/34/1
f 145/36/1 146/35/1 147/37/1 148/38/1
f 149/35/1 150/30/1 151/39/1 152/37/1
f 153/40/1 154/41/1 155/28/1 156/27/1
f 157/41/1 158/42/1 159/31/1 160/28/1
f 161/36/1 162/35/1 163/37/1 164/38/1
f 165/35/1 166/30/1 167/39/1 168/37/1
f 169/45/1 170/46/1 171/47/1 172/48/1
f 173/46/1 174/49/1 175/50/1 176/47/1
f 177/51/1 178/52/1 179/53/1 180/54/1
f 181/52/1 182/55/1 183/45/1 184/53/1
f 185/51/1 186/52/1 187/53/1 188/54/1
f 189/52/1 190/55/1 191/45/1 192/53/1
f 193/55/1 194/56/1 195/46/1 196/45/1
f 197/56/1 198/57/1 199/49/1 200/46/1
f 201/58/1 202/59/1 203/52/1 204/51/1
f 205/59/1 206/60/1 207/55/1 208/52/1
f 209/60/1 210/61/1 211/56/1 212/55/1
f 213/61/1 214/62/1 215/57/1 216/56/1
f 217/63/1 218/64/1 219/65/1 220/62/1
f 221/64/1 222/66/1 223/67/1 224/65/1
f 225/68/1 226/69/1 227/59/1 228/58/1
f 229/69/1 230/70/1 231/60/1 232/59/1
f 233/70/1 234/71/1 235/61/1 236/60/1
f 237/71/1 238/63/1 239/62/1 240/61/1

