# Tiled2Unity generated file. Do not modify by hand.
# Wavefront file for 'GroundFirst_mesh_0043.obj'

# Vertices (Count = 48)
v -44.16 -99.2 0
v -44.8 -99.2 0
v -44.8 -98.56 0
v -44.16 -98.56 0
v -44.8 -99.2 0
v -45.44 -99.2 0
v -45.44 -98.56 0
v -44.8 -98.56 0
v -44.16 -99.84 0
v -44.8 -99.84 0
v -44.8 -99.2 0
v -44.16 -99.2 0
v -44.8 -99.84 0
v -45.44 -99.84 0
v -45.44 -99.2 0
v -44.8 -99.2 0
v -54.4 -99.84 0
v -55.04 -99.84 0
v -55.04 -99.2 0
v -54.4 -99.2 0
v -55.04 -99.84 0
v -55.68 -99.84 0
v -55.68 -99.2 0
v -55.04 -99.2 0
v -54.4 -104.32 0
v -55.04 -104.32 0
v -55.04 -103.68 0
v -54.4 -103.68 0
v -55.04 -104.32 0
v -55.68 -104.32 0
v -55.68 -103.68 0
v -55.04 -103.68 0
v -64.64 -104.32 0
v -65.28 -104.32 0
v -65.28 -103.68 0
v -64.64 -103.68 0
v -65.28 -104.32 0
v -65.92 -104.32 0
v -65.92 -103.68 0
v -65.28 -103.68 0
v -54.4 -104.96 0
v -55.04 -104.96 0
v -55.04 -104.32 0
v -54.4 -104.32 0
v -55.04 -104.96 0
v -55.68 -104.96 0
v -55.68 -104.32 0
v -55.04 -104.32 0

# Texture cooridinates (Count = 15)
vt 0.75 0.5
vt 0.7916667 0.5
vt 0.7916667 0.5555556
vt 0.75 0.5555556
vt 0.8333333 0.5
vt 0.8333333 0.5555556
vt 0.75 0.4444444
vt 0.7916667 0.4444444
vt 0.8333333 0.4444444
vt 0.75 0.2222222
vt 0.7916667 0.2222222
vt 0.7916667 0.2777778
vt 0.75 0.2777778
vt 0.8333333 0.2222222
vt 0.8333333 0.2777778

# Normal
vn 0 0 -1

# Mesh description
g GroundFirst_mesh_0043

# Faces
f 1/1/1 2/2/1 3/3/1 4/4/1
f 5/2/1 6/5/1 7/6/1 8/3/1
f 9/7/1 10/8/1 11/2/1 12/1/1
f 13/8/1 14/9/1 15/5/1 16/2/1
f 17/10/1 18/11/1 19/12/1 20/13/1
f 21/11/1 22/14/1 23/15/1 24/12/1
f 25/1/1 26/2/1 27/3/1 28/4/1
f 29/2/1 30/5/1 31/6/1 32/3/1
f 33/10/1 34/11/1 35/12/1 36/13/1
f 37/11/1 38/14/1 39/15/1 40/12/1
f 41/7/1 42/8/1 43/2/1 44/1/1
f 45/8/1 46/9/1 47/5/1 48/2/1

