# Tiled2Unity generated file. Do not modify by hand.
# Wavefront file for 'GroundFirst_mesh_0024.obj'

# Vertices (Count = 744)
v -40.96 -44.8 0
v -41.6 -44.8 0
v -41.6 -44.16 0
v -40.96 -44.16 0
v -41.6 -44.8 0
v -42.24 -44.8 0
v -42.24 -44.16 0
v -41.6 -44.16 0
v -42.24 -44.8 0
v -42.88 -44.8 0
v -42.88 -44.16 0
v -42.24 -44.16 0
v -42.88 -44.8 0
v -43.52 -44.8 0
v -43.52 -44.16 0
v -42.88 -44.16 0
v -43.52 -44.8 0
v -44.16 -44.8 0
v -44.16 -44.16 0
v -43.52 -44.16 0
v -44.16 -44.8 0
v -44.8 -44.8 0
v -44.8 -44.16 0
v -44.16 -44.16 0
v -44.8 -44.8 0
v -45.44 -44.8 0
v -45.44 -44.16 0
v -44.8 -44.16 0
v -45.44 -44.8 0
v -46.08 -44.8 0
v -46.08 -44.16 0
v -45.44 -44.16 0
v -46.08 -44.8 0
v -46.72 -44.8 0
v -46.72 -44.16 0
v -46.08 -44.16 0
v -46.72 -44.8 0
v -47.36 -44.8 0
v -47.36 -44.16 0
v -46.72 -44.16 0
v -47.36 -44.8 0
v -48 -44.8 0
v -48 -44.16 0
v -47.36 -44.16 0
v -48 -44.8 0
v -48.64 -44.8 0
v -48.64 -44.16 0
v -48 -44.16 0
v -48.64 -44.8 0
v -49.28 -44.8 0
v -49.28 -44.16 0
v -48.64 -44.16 0
v -49.28 -44.8 0
v -49.92 -44.8 0
v -49.92 -44.16 0
v -49.28 -44.16 0
v -49.92 -44.8 0
v -50.56 -44.8 0
v -50.56 -44.16 0
v -49.92 -44.16 0
v -50.56 -44.8 0
v -51.2 -44.8 0
v -51.2 -44.16 0
v -50.56 -44.16 0
v -51.2 -44.8 0
v -51.84 -44.8 0
v -51.84 -44.16 0
v -51.2 -44.16 0
v -51.84 -44.8 0
v -52.48 -44.8 0
v -52.48 -44.16 0
v -51.84 -44.16 0
v -52.48 -44.8 0
v -53.12 -44.8 0
v -53.12 -44.16 0
v -52.48 -44.16 0
v -53.12 -44.8 0
v -53.76 -44.8 0
v -53.76 -44.16 0
v -53.12 -44.16 0
v -53.76 -44.8 0
v -54.4 -44.8 0
v -54.4 -44.16 0
v -53.76 -44.16 0
v -54.4 -44.8 0
v -55.04 -44.8 0
v -55.04 -44.16 0
v -54.4 -44.16 0
v -55.04 -44.8 0
v -55.68 -44.8 0
v -55.68 -44.16 0
v -55.04 -44.16 0
v -55.68 -44.8 0
v -56.32 -44.8 0
v -56.32 -44.16 0
v -55.68 -44.16 0
v -56.32 -44.8 0
v -56.96 -44.8 0
v -56.96 -44.16 0
v -56.32 -44.16 0
v -56.96 -44.8 0
v -57.6 -44.8 0
v -57.6 -44.16 0
v -56.96 -44.16 0
v -57.6 -44.8 0
v -58.24 -44.8 0
v -58.24 -44.16 0
v -57.6 -44.16 0
v -58.24 -44.8 0
v -58.88 -44.8 0
v -58.88 -44.16 0
v -58.24 -44.16 0
v -58.88 -44.8 0
v -59.52 -44.8 0
v -59.52 -44.16 0
v -58.88 -44.16 0
v -59.52 -44.8 0
v -60.16 -44.8 0
v -60.16 -44.16 0
v -59.52 -44.16 0
v -60.16 -44.8 0
v -60.8 -44.8 0
v -60.8 -44.16 0
v -60.16 -44.16 0
v -60.8 -44.8 0
v -61.44 -44.8 0
v -61.44 -44.16 0
v -60.8 -44.16 0
v -61.44 -44.8 0
v -62.08 -44.8 0
v -62.08 -44.16 0
v -61.44 -44.16 0
v -62.08 -44.8 0
v -62.72 -44.8 0
v -62.72 -44.16 0
v -62.08 -44.16 0
v -62.72 -44.8 0
v -63.36 -44.8 0
v -63.36 -44.16 0
v -62.72 -44.16 0
v -63.36 -44.8 0
v -64 -44.8 0
v -64 -44.16 0
v -63.36 -44.16 0
v -64 -44.8 0
v -64.64 -44.8 0
v -64.64 -44.16 0
v -64 -44.16 0
v -64.64 -44.8 0
v -65.28 -44.8 0
v -65.28 -44.16 0
v -64.64 -44.16 0
v -40.96 -45.44 0
v -41.6 -45.44 0
v -41.6 -44.8 0
v -40.96 -44.8 0
v -41.6 -45.44 0
v -42.24 -45.44 0
v -42.24 -44.8 0
v -41.6 -44.8 0
v -42.24 -45.44 0
v -42.88 -45.44 0
v -42.88 -44.8 0
v -42.24 -44.8 0
v -42.88 -45.44 0
v -43.52 -45.44 0
v -43.52 -44.8 0
v -42.88 -44.8 0
v -43.52 -45.44 0
v -44.16 -45.44 0
v -44.16 -44.8 0
v -43.52 -44.8 0
v -44.16 -45.44 0
v -44.8 -45.44 0
v -44.8 -44.8 0
v -44.16 -44.8 0
v -44.8 -45.44 0
v -45.44 -45.44 0
v -45.44 -44.8 0
v -44.8 -44.8 0
v -45.44 -45.44 0
v -46.08 -45.44 0
v -46.08 -44.8 0
v -45.44 -44.8 0
v -46.08 -45.44 0
v -46.72 -45.44 0
v -46.72 -44.8 0
v -46.08 -44.8 0
v -46.72 -45.44 0
v -47.36 -45.44 0
v -47.36 -44.8 0
v -46.72 -44.8 0
v -47.36 -45.44 0
v -48 -45.44 0
v -48 -44.8 0
v -47.36 -44.8 0
v -48 -45.44 0
v -48.64 -45.44 0
v -48.64 -44.8 0
v -48 -44.8 0
v -48.64 -45.44 0
v -49.28 -45.44 0
v -49.28 -44.8 0
v -48.64 -44.8 0
v -49.28 -45.44 0
v -49.92 -45.44 0
v -49.92 -44.8 0
v -49.28 -44.8 0
v -49.92 -45.44 0
v -50.56 -45.44 0
v -50.56 -44.8 0
v -49.92 -44.8 0
v -50.56 -45.44 0
v -51.2 -45.44 0
v -51.2 -44.8 0
v -50.56 -44.8 0
v -51.2 -45.44 0
v -51.84 -45.44 0
v -51.84 -44.8 0
v -51.2 -44.8 0
v -51.84 -45.44 0
v -52.48 -45.44 0
v -52.48 -44.8 0
v -51.84 -44.8 0
v -52.48 -45.44 0
v -53.12 -45.44 0
v -53.12 -44.8 0
v -52.48 -44.8 0
v -53.12 -45.44 0
v -53.76 -45.44 0
v -53.76 -44.8 0
v -53.12 -44.8 0
v -53.76 -45.44 0
v -54.4 -45.44 0
v -54.4 -44.8 0
v -53.76 -44.8 0
v -54.4 -45.44 0
v -55.04 -45.44 0
v -55.04 -44.8 0
v -54.4 -44.8 0
v -55.04 -45.44 0
v -55.68 -45.44 0
v -55.68 -44.8 0
v -55.04 -44.8 0
v -55.68 -45.44 0
v -56.32 -45.44 0
v -56.32 -44.8 0
v -55.68 -44.8 0
v -56.32 -45.44 0
v -56.96 -45.44 0
v -56.96 -44.8 0
v -56.32 -44.8 0
v -56.96 -45.44 0
v -57.6 -45.44 0
v -57.6 -44.8 0
v -56.96 -44.8 0
v -57.6 -45.44 0
v -58.24 -45.44 0
v -58.24 -44.8 0
v -57.6 -44.8 0
v -58.24 -45.44 0
v -58.88 -45.44 0
v -58.88 -44.8 0
v -58.24 -44.8 0
v -58.88 -45.44 0
v -59.52 -45.44 0
v -59.52 -44.8 0
v -58.88 -44.8 0
v -59.52 -45.44 0
v -60.16 -45.44 0
v -60.16 -44.8 0
v -59.52 -44.8 0
v -60.16 -45.44 0
v -60.8 -45.44 0
v -60.8 -44.8 0
v -60.16 -44.8 0
v -60.8 -45.44 0
v -61.44 -45.44 0
v -61.44 -44.8 0
v -60.8 -44.8 0
v -61.44 -45.44 0
v -62.08 -45.44 0
v -62.08 -44.8 0
v -61.44 -44.8 0
v -62.08 -45.44 0
v -62.72 -45.44 0
v -62.72 -44.8 0
v -62.08 -44.8 0
v -62.72 -45.44 0
v -63.36 -45.44 0
v -63.36 -44.8 0
v -62.72 -44.8 0
v -63.36 -45.44 0
v -64 -45.44 0
v -64 -44.8 0
v -63.36 -44.8 0
v -64 -45.44 0
v -64.64 -45.44 0
v -64.64 -44.8 0
v -64 -44.8 0
v -64.64 -45.44 0
v -65.28 -45.44 0
v -65.28 -44.8 0
v -64.64 -44.8 0
v -40.96 -46.08 0
v -41.6 -46.08 0
v -41.6 -45.44 0
v -40.96 -45.44 0
v -41.6 -46.08 0
v -42.24 -46.08 0
v -42.24 -45.44 0
v -41.6 -45.44 0
v -42.24 -46.08 0
v -42.88 -46.08 0
v -42.88 -45.44 0
v -42.24 -45.44 0
v -40.96 -46.72 0
v -41.6 -46.72 0
v -41.6 -46.08 0
v -40.96 -46.08 0
v -41.6 -46.72 0
v -42.24 -46.72 0
v -42.24 -46.08 0
v -41.6 -46.08 0
v -40.96 -47.36 0
v -41.6 -47.36 0
v -41.6 -46.72 0
v -40.96 -46.72 0
v -41.6 -47.36 0
v -42.24 -47.36 0
v -42.24 -46.72 0
v -41.6 -46.72 0
v -40.96 -48 0
v -41.6 -48 0
v -41.6 -47.36 0
v -40.96 -47.36 0
v -41.6 -48 0
v -42.24 -48 0
v -42.24 -47.36 0
v -41.6 -47.36 0
v -40.96 -48.64 0
v -41.6 -48.64 0
v -41.6 -48 0
v -40.96 -48 0
v -41.6 -48.64 0
v -42.24 -48.64 0
v -42.24 -48 0
v -41.6 -48 0
v -40.96 -49.28 0
v -41.6 -49.28 0
v -41.6 -48.64 0
v -40.96 -48.64 0
v -41.6 -49.28 0
v -42.24 -49.28 0
v -42.24 -48.64 0
v -41.6 -48.64 0
v -40.96 -49.92 0
v -41.6 -49.92 0
v -41.6 -49.28 0
v -40.96 -49.28 0
v -41.6 -49.92 0
v -42.24 -49.92 0
v -42.24 -49.28 0
v -41.6 -49.28 0
v -40.96 -50.56 0
v -41.6 -50.56 0
v -41.6 -49.92 0
v -40.96 -49.92 0
v -41.6 -50.56 0
v -42.24 -50.56 0
v -42.24 -49.92 0
v -41.6 -49.92 0
v -40.96 -51.2 0
v -41.6 -51.2 0
v -41.6 -50.56 0
v -40.96 -50.56 0
v -41.6 -51.2 0
v -42.24 -51.2 0
v -42.24 -50.56 0
v -41.6 -50.56 0
v -40.96 -51.84 0
v -41.6 -51.84 0
v -41.6 -51.2 0
v -40.96 -51.2 0
v -41.6 -51.84 0
v -42.24 -51.84 0
v -42.24 -51.2 0
v -41.6 -51.2 0
v -40.96 -52.48 0
v -41.6 -52.48 0
v -41.6 -51.84 0
v -40.96 -51.84 0
v -41.6 -52.48 0
v -42.24 -52.48 0
v -42.24 -51.84 0
v -41.6 -51.84 0
v -40.96 -53.12 0
v -41.6 -53.12 0
v -41.6 -52.48 0
v -40.96 -52.48 0
v -41.6 -53.12 0
v -42.24 -53.12 0
v -42.24 -52.48 0
v -41.6 -52.48 0
v -40.96 -53.76 0
v -41.6 -53.76 0
v -41.6 -53.12 0
v -40.96 -53.12 0
v -41.6 -53.76 0
v -42.24 -53.76 0
v -42.24 -53.12 0
v -41.6 -53.12 0
v -40.96 -54.4 0
v -41.6 -54.4 0
v -41.6 -53.76 0
v -40.96 -53.76 0
v -41.6 -54.4 0
v -42.24 -54.4 0
v -42.24 -53.76 0
v -41.6 -53.76 0
v -40.96 -55.04 0
v -41.6 -55.04 0
v -41.6 -54.4 0
v -40.96 -54.4 0
v -41.6 -55.04 0
v -42.24 -55.04 0
v -42.24 -54.4 0
v -41.6 -54.4 0
v -40.96 -55.68 0
v -41.6 -55.68 0
v -41.6 -55.04 0
v -40.96 -55.04 0
v -41.6 -55.68 0
v -42.24 -55.68 0
v -42.24 -55.04 0
v -41.6 -55.04 0
v -42.24 -55.68 0
v -42.88 -55.68 0
v -42.88 -55.04 0
v -42.24 -55.04 0
v -40.96 -56.32 0
v -41.6 -56.32 0
v -41.6 -55.68 0
v -40.96 -55.68 0
v -41.6 -56.32 0
v -42.24 -56.32 0
v -42.24 -55.68 0
v -41.6 -55.68 0
v -42.24 -56.32 0
v -42.88 -56.32 0
v -42.88 -55.68 0
v -42.24 -55.68 0
v -42.88 -56.32 0
v -43.52 -56.32 0
v -43.52 -55.68 0
v -42.88 -55.68 0
v -43.52 -56.32 0
v -44.16 -56.32 0
v -44.16 -55.68 0
v -43.52 -55.68 0
v -44.16 -56.32 0
v -44.8 -56.32 0
v -44.8 -55.68 0
v -44.16 -55.68 0
v -44.8 -56.32 0
v -45.44 -56.32 0
v -45.44 -55.68 0
v -44.8 -55.68 0
v -45.44 -56.32 0
v -46.08 -56.32 0
v -46.08 -55.68 0
v -45.44 -55.68 0
v -46.08 -56.32 0
v -46.72 -56.32 0
v -46.72 -55.68 0
v -46.08 -55.68 0
v -46.72 -56.32 0
v -47.36 -56.32 0
v -47.36 -55.68 0
v -46.72 -55.68 0
v -47.36 -56.32 0
v -48 -56.32 0
v -48 -55.68 0
v -47.36 -55.68 0
v -48 -56.32 0
v -48.64 -56.32 0
v -48.64 -55.68 0
v -48 -55.68 0
v -48.64 -56.32 0
v -49.28 -56.32 0
v -49.28 -55.68 0
v -48.64 -55.68 0
v -49.28 -56.32 0
v -49.92 -56.32 0
v -49.92 -55.68 0
v -49.28 -55.68 0
v -49.92 -56.32 0
v -50.56 -56.32 0
v -50.56 -55.68 0
v -49.92 -55.68 0
v -50.56 -56.32 0
v -51.2 -56.32 0
v -51.2 -55.68 0
v -50.56 -55.68 0
v -51.2 -56.32 0
v -51.84 -56.32 0
v -51.84 -55.68 0
v -51.2 -55.68 0
v -51.84 -56.32 0
v -52.48 -56.32 0
v -52.48 -55.68 0
v -51.84 -55.68 0
v -52.48 -56.32 0
v -53.12 -56.32 0
v -53.12 -55.68 0
v -52.48 -55.68 0
v -53.12 -56.32 0
v -53.76 -56.32 0
v -53.76 -55.68 0
v -53.12 -55.68 0
v -53.76 -56.32 0
v -54.4 -56.32 0
v -54.4 -55.68 0
v -53.76 -55.68 0
v -54.4 -56.32 0
v -55.04 -56.32 0
v -55.04 -55.68 0
v -54.4 -55.68 0
v -55.04 -56.32 0
v -55.68 -56.32 0
v -55.68 -55.68 0
v -55.04 -55.68 0
v -55.68 -56.32 0
v -56.32 -56.32 0
v -56.32 -55.68 0
v -55.68 -55.68 0
v -56.32 -56.32 0
v -56.96 -56.32 0
v -56.96 -55.68 0
v -56.32 -55.68 0
v -56.96 -56.32 0
v -57.6 -56.32 0
v -57.6 -55.68 0
v -56.96 -55.68 0
v -57.6 -56.32 0
v -58.24 -56.32 0
v -58.24 -55.68 0
v -57.6 -55.68 0
v -58.24 -56.32 0
v -58.88 -56.32 0
v -58.88 -55.68 0
v -58.24 -55.68 0
v -58.88 -56.32 0
v -59.52 -56.32 0
v -59.52 -55.68 0
v -58.88 -55.68 0
v -59.52 -56.32 0
v -60.16 -56.32 0
v -60.16 -55.68 0
v -59.52 -55.68 0
v -60.16 -56.32 0
v -60.8 -56.32 0
v -60.8 -55.68 0
v -60.16 -55.68 0
v -60.8 -56.32 0
v -61.44 -56.32 0
v -61.44 -55.68 0
v -60.8 -55.68 0
v -61.44 -56.32 0
v -62.08 -56.32 0
v -62.08 -55.68 0
v -61.44 -55.68 0
v -62.08 -56.32 0
v -62.72 -56.32 0
v -62.72 -55.68 0
v -62.08 -55.68 0
v -62.72 -56.32 0
v -63.36 -56.32 0
v -63.36 -55.68 0
v -62.72 -55.68 0
v -63.36 -56.32 0
v -64 -56.32 0
v -64 -55.68 0
v -63.36 -55.68 0
v -64 -56.32 0
v -64.64 -56.32 0
v -64.64 -55.68 0
v -64 -55.68 0
v -64.64 -56.32 0
v -65.28 -56.32 0
v -65.28 -55.68 0
v -64.64 -55.68 0
v -40.96 -56.96 0
v -41.6 -56.96 0
v -41.6 -56.32 0
v -40.96 -56.32 0
v -41.6 -56.96 0
v -42.24 -56.96 0
v -42.24 -56.32 0
v -41.6 -56.32 0
v -42.24 -56.96 0
v -42.88 -56.96 0
v -42.88 -56.32 0
v -42.24 -56.32 0
v -42.88 -56.96 0
v -43.52 -56.96 0
v -43.52 -56.32 0
v -42.88 -56.32 0
v -43.52 -56.96 0
v -44.16 -56.96 0
v -44.16 -56.32 0
v -43.52 -56.32 0
v -44.16 -56.96 0
v -44.8 -56.96 0
v -44.8 -56.32 0
v -44.16 -56.32 0
v -44.8 -56.96 0
v -45.44 -56.96 0
v -45.44 -56.32 0
v -44.8 -56.32 0
v -45.44 -56.96 0
v -46.08 -56.96 0
v -46.08 -56.32 0
v -45.44 -56.32 0
v -46.08 -56.96 0
v -46.72 -56.96 0
v -46.72 -56.32 0
v -46.08 -56.32 0
v -46.72 -56.96 0
v -47.36 -56.96 0
v -47.36 -56.32 0
v -46.72 -56.32 0
v -47.36 -56.96 0
v -48 -56.96 0
v -48 -56.32 0
v -47.36 -56.32 0
v -48 -56.96 0
v -48.64 -56.96 0
v -48.64 -56.32 0
v -48 -56.32 0
v -48.64 -56.96 0
v -49.28 -56.96 0
v -49.28 -56.32 0
v -48.64 -56.32 0
v -49.28 -56.96 0
v -49.92 -56.96 0
v -49.92 -56.32 0
v -49.28 -56.32 0
v -49.92 -56.96 0
v -50.56 -56.96 0
v -50.56 -56.32 0
v -49.92 -56.32 0
v -50.56 -56.96 0
v -51.2 -56.96 0
v -51.2 -56.32 0
v -50.56 -56.32 0
v -51.2 -56.96 0
v -51.84 -56.96 0
v -51.84 -56.32 0
v -51.2 -56.32 0
v -51.84 -56.96 0
v -52.48 -56.96 0
v -52.48 -56.32 0
v -51.84 -56.32 0
v -52.48 -56.96 0
v -53.12 -56.96 0
v -53.12 -56.32 0
v -52.48 -56.32 0
v -53.12 -56.96 0
v -53.76 -56.96 0
v -53.76 -56.32 0
v -53.12 -56.32 0
v -53.76 -56.96 0
v -54.4 -56.96 0
v -54.4 -56.32 0
v -53.76 -56.32 0
v -54.4 -56.96 0
v -55.04 -56.96 0
v -55.04 -56.32 0
v -54.4 -56.32 0
v -55.04 -56.96 0
v -55.68 -56.96 0
v -55.68 -56.32 0
v -55.04 -56.32 0
v -55.68 -56.96 0
v -56.32 -56.96 0
v -56.32 -56.32 0
v -55.68 -56.32 0
v -56.32 -56.96 0
v -56.96 -56.96 0
v -56.96 -56.32 0
v -56.32 -56.32 0
v -56.96 -56.96 0
v -57.6 -56.96 0
v -57.6 -56.32 0
v -56.96 -56.32 0
v -57.6 -56.96 0
v -58.24 -56.96 0
v -58.24 -56.32 0
v -57.6 -56.32 0
v -58.24 -56.96 0
v -58.88 -56.96 0
v -58.88 -56.32 0
v -58.24 -56.32 0
v -58.88 -56.96 0
v -59.52 -56.96 0
v -59.52 -56.32 0
v -58.88 -56.32 0
v -59.52 -56.96 0
v -60.16 -56.96 0
v -60.16 -56.32 0
v -59.52 -56.32 0
v -60.16 -56.96 0
v -60.8 -56.96 0
v -60.8 -56.32 0
v -60.16 -56.32 0
v -60.8 -56.96 0
v -61.44 -56.96 0
v -61.44 -56.32 0
v -60.8 -56.32 0
v -61.44 -56.96 0
v -62.08 -56.96 0
v -62.08 -56.32 0
v -61.44 -56.32 0
v -62.08 -56.96 0
v -62.72 -56.96 0
v -62.72 -56.32 0
v -62.08 -56.32 0
v -62.72 -56.96 0
v -63.36 -56.96 0
v -63.36 -56.32 0
v -62.72 -56.32 0
v -63.36 -56.96 0
v -64 -56.96 0
v -64 -56.32 0
v -63.36 -56.32 0
v -64 -56.96 0
v -64.64 -56.96 0
v -64.64 -56.32 0
v -64 -56.32 0
v -64.64 -56.96 0
v -65.28 -56.96 0
v -65.28 -56.32 0
v -64.64 -56.32 0

# Texture cooridinates (Count = 34)
vt 0 0.5833334
vt 0.1666667 0.5833334
vt 0.1666667 0.6666666
vt 0 0.6666666
vt 0.3333333 0.5833334
vt 0.3333333 0.6666666
vt 0.5 0.5833334
vt 0.5 0.6666666
vt 0.6666667 0.5833334
vt 0.6666667 0.6666666
vt 0 0.5
vt 0.1666667 0.5
vt 0.3333333 0.5
vt 0.5 0.5
vt 0.6666667 0.5
vt 0 0.4166667
vt 0.1666667 0.4166667
vt 0.3333333 0.4166667
vt 0.5 0.4166667
vt 0 0.3333333
vt 0.1666667 0.3333333
vt 0.3333333 0.3333333
vt 0.5 0.3333333
vt 0 0.25
vt 0.1666667 0.25
vt 0.3333333 0.25
vt 0.5 0.25
vt 0.6666667 0.25
vt 0.6666667 0.3333333
vt 0 0.1666667
vt 0.1666667 0.1666667
vt 0.3333333 0.1666667
vt 0.5 0.1666667
vt 0.6666667 0.1666667

# Normal
vn 0 0 -1

# Mesh description
g GroundFirst_mesh_0024

# Faces
f 1/1/1 2/2/1 3/3/1 4/4/1
f 5/2/1 6/5/1 7/6/1 8/3/1
f 9/5/1 10/7/1 11/8/1 12/6/1
f 13/7/1 14/9/1 15/10/1 16/8/1
f 17/5/1 18/7/1 19/8/1 20/6/1
f 21/7/1 22/9/1 23/10/1 24/8/1
f 25/5/1 26/7/1 27/8/1 28/6/1
f 29/7/1 30/9/1 31/10/1 32/8/1
f 33/5/1 34/7/1 35/8/1 36/6/1
f 37/7/1 38/9/1 39/10/1 40/8/1
f 41/5/1 42/7/1 43/8/1 44/6/1
f 45/7/1 46/9/1 47/10/1 48/8/1
f 49/5/1 50/7/1 51/8/1 52/6/1
f 53/7/1 54/9/1 55/10/1 56/8/1
f 57/5/1 58/7/1 59/8/1 60/6/1
f 61/7/1 62/9/1 63/10/1 64/8/1
f 65/5/1 66/7/1 67/8/1 68/6/1
f 69/7/1 70/9/1 71/10/1 72/8/1
f 73/5/1 74/7/1 75/8/1 76/6/1
f 77/7/1 78/9/1 79/10/1 80/8/1
f 81/5/1 82/7/1 83/8/1 84/6/1
f 85/7/1 86/9/1 87/10/1 88/8/1
f 89/5/1 90/7/1 91/8/1 92/6/1
f 93/7/1 94/9/1 95/10/1 96/8/1
f 97/5/1 98/7/1 99/8/1 100/6/1
f 101/7/1 102/9/1 103/10/1 104/8/1
f 105/5/1 106/7/1 107/8/1 108/6/1
f 109/7/1 110/9/1 111/10/1 112/8/1
f 113/5/1 114/7/1 115/8/1 116/6/1
f 117/7/1 118/9/1 119/10/1 120/8/1
f 121/5/1 122/7/1 123/8/1 124/6/1
f 125/7/1 126/9/1 127/10/1 128/8/1
f 129/5/1 130/7/1 131/8/1 132/6/1
f 133/7/1 134/9/1 135/10/1 136/8/1
f 137/5/1 138/7/1 139/8/1 140/6/1
f 141/7/1 142/9/1 143/10/1 144/8/1
f 145/5/1 146/7/1 147/8/1 148/6/1
f 149/7/1 150/9/1 151/10/1 152/8/1
f 153/11/1 154/12/1 155/2/1 156/1/1
f 157/12/1 158/13/1 159/5/1 160/2/1
f 161/13/1 162/14/1 163/7/1 164/5/1
f 165/14/1 166/15/1 167/9/1 168/7/1
f 169/13/1 170/14/1 171/7/1 172/5/1
f 173/14/1 174/15/1 175/9/1 176/7/1
f 177/13/1 178/14/1 179/7/1 180/5/1
f 181/14/1 182/15/1 183/9/1 184/7/1
f 185/13/1 186/14/1 187/7/1 188/5/1
f 189/14/1 190/15/1 191/9/1 192/7/1
f 193/13/1 194/14/1 195/7/1 196/5/1
f 197/14/1 198/15/1 199/9/1 200/7/1
f 201/13/1 202/14/1 203/7/1 204/5/1
f 205/14/1 206/15/1 207/9/1 208/7/1
f 209/13/1 210/14/1 211/7/1 212/5/1
f 213/14/1 214/15/1 215/9/1 216/7/1
f 217/13/1 218/14/1 219/7/1 220/5/1
f 221/14/1 222/15/1 223/9/1 224/7/1
f 225/13/1 226/14/1 227/7/1 228/5/1
f 229/14/1 230/15/1 231/9/1 232/7/1
f 233/13/1 234/14/1 235/7/1 236/5/1
f 237/14/1 238/15/1 239/9/1 240/7/1
f 241/13/1 242/14/1 243/7/1 244/5/1
f 245/14/1 246/15/1 247/9/1 248/7/1
f 249/13/1 250/14/1 251/7/1 252/5/1
f 253/14/1 254/15/1 255/9/1 256/7/1
f 257/13/1 258/14/1 259/7/1 260/5/1
f 261/14/1 262/15/1 263/9/1 264/7/1
f 265/13/1 266/14/1 267/7/1 268/5/1
f 269/14/1 270/15/1 271/9/1 272/7/1
f 273/13/1 274/14/1 275/7/1 276/5/1
f 277/14/1 278/15/1 279/9/1 280/7/1
f 281/13/1 282/14/1 283/7/1 284/5/1
f 285/14/1 286/15/1 287/9/1 288/7/1
f 289/13/1 290/14/1 291/7/1 292/5/1
f 293/14/1 294/15/1 295/9/1 296/7/1
f 297/13/1 298/14/1 299/7/1 300/5/1
f 301/14/1 302/15/1 303/9/1 304/7/1
f 305/16/1 306/17/1 307/12/1 308/11/1
f 309/17/1 310/18/1 311/13/1 312/12/1
f 313/18/1 314/19/1 315/14/1 316/13/1
f 317/16/1 318/17/1 319/12/1 320/11/1
f 321/17/1 322/18/1 323/13/1 324/12/1
f 325/20/1 326/21/1 327/17/1 328/16/1
f 329/21/1 330/22/1 331/18/1 332/17/1
f 333/16/1 334/17/1 335/12/1 336/11/1
f 337/17/1 338/18/1 339/13/1 340/12/1
f 341/20/1 342/21/1 343/17/1 344/16/1
f 345/21/1 346/22/1 347/18/1 348/17/1
f 349/16/1 350/17/1 351/12/1 352/11/1
f 353/17/1 354/18/1 355/13/1 356/12/1
f 357/20/1 358/21/1 359/17/1 360/16/1
f 361/21/1 362/22/1 363/18/1 364/17/1
f 365/16/1 366/17/1 367/12/1 368/11/1
f 369/17/1 370/18/1 371/13/1 372/12/1
f 373/20/1 374/21/1 375/17/1 376/16/1
f 377/21/1 378/22/1 379/18/1 380/17/1
f 381/16/1 382/17/1 383/12/1 384/11/1
f 385/17/1 386/18/1 387/13/1 388/12/1
f 389/20/1 390/21/1 391/17/1 392/16/1
f 393/21/1 394/22/1 395/18/1 396/17/1
f 397/16/1 398/17/1 399/12/1 400/11/1
f 401/17/1 402/18/1 403/13/1 404/12/1
f 405/20/1 406/21/1 407/17/1 408/16/1
f 409/21/1 410/22/1 411/18/1 412/17/1
f 413/16/1 414/17/1 415/12/1 416/11/1
f 417/17/1 418/18/1 419/13/1 420/12/1
f 421/20/1 422/21/1 423/17/1 424/16/1
f 425/21/1 426/22/1 427/18/1 428/17/1
f 429/20/1 430/21/1 431/17/1 432/16/1
f 433/21/1 434/22/1 435/18/1 436/17/1
f 437/22/1 438/23/1 439/19/1 440/18/1
f 441/24/1 442/25/1 443/21/1 444/20/1
f 445/25/1 446/26/1 447/22/1 448/21/1
f 449/26/1 450/27/1 451/23/1 452/22/1
f 453/26/1 454/27/1 455/23/1 456/22/1
f 457/27/1 458/28/1 459/29/1 460/23/1
f 461/26/1 462/27/1 463/23/1 464/22/1
f 465/27/1 466/28/1 467/29/1 468/23/1
f 469/26/1 470/27/1 471/23/1 472/22/1
f 473/27/1 474/28/1 475/29/1 476/23/1
f 477/26/1 478/27/1 479/23/1 480/22/1
f 481/27/1 482/28/1 483/29/1 484/23/1
f 485/26/1 486/27/1 487/23/1 488/22/1
f 489/27/1 490/28/1 491/29/1 492/23/1
f 493/26/1 494/27/1 495/23/1 496/22/1
f 497/27/1 498/28/1 499/29/1 500/23/1
f 501/26/1 502/27/1 503/23/1 504/22/1
f 505/27/1 506/28/1 507/29/1 508/23/1
f 509/26/1 510/27/1 511/23/1 512/22/1
f 513/27/1 514/28/1 515/29/1 516/23/1
f 517/26/1 518/27/1 519/23/1 520/22/1
f 521/27/1 522/28/1 523/29/1 524/23/1
f 525/26/1 526/27/1 527/23/1 528/22/1
f 529/27/1 530/28/1 531/29/1 532/23/1
f 533/26/1 534/27/1 535/23/1 536/22/1
f 537/27/1 538/28/1 539/29/1 540/23/1
f 541/26/1 542/27/1 543/23/1 544/22/1
f 545/27/1 546/28/1 547/29/1 548/23/1
f 549/26/1 550/27/1 551/23/1 552/22/1
f 553/27/1 554/28/1 555/29/1 556/23/1
f 557/26/1 558/27/1 559/23/1 560/22/1
f 561/27/1 562/28/1 563/29/1 564/23/1
f 565/26/1 566/27/1 567/23/1 568/22/1
f 569/27/1 570/28/1 571/29/1 572/23/1
f 573/26/1 574/27/1 575/23/1 576/22/1
f 577/27/1 578/28/1 579/29/1 580/23/1
f 581/26/1 582/27/1 583/23/1 584/22/1
f 585/27/1 586/28/1 587/29/1 588/23/1
f 589/26/1 590/27/1 591/23/1 592/22/1
f 593/30/1 594/31/1 595/25/1 596/24/1
f 597/31/1 598/32/1 599/26/1 600/25/1
f 601/32/1 602/33/1 603/27/1 604/26/1
f 605/32/1 606/33/1 607/27/1 608/26/1
f 609/33/1 610/34/1 611/28/1 612/27/1
f 613/32/1 614/33/1 615/27/1 616/26/1
f 617/33/1 618/34/1 619/28/1 620/27/1
f 621/32/1 622/33/1 623/27/1 624/26/1
f 625/33/1 626/34/1 627/28/1 628/27/1
f 629/32/1 630/33/1 631/27/1 632/26/1
f 633/33/1 634/34/1 635/28/1 636/27/1
f 637/32/1 638/33/1 639/27/1 640/26/1
f 641/33/1 642/34/1 643/28/1 644/27/1
f 645/32/1 646/33/1 647/27/1 648/26/1
f 649/33/1 650/34/1 651/28/1 652/27/1
f 653/32/1 654/33/1 655/27/1 656/26/1
f 657/33/1 658/34/1 659/28/1 660/27/1
f 661/32/1 662/33/1 663/27/1 664/26/1
f 665/33/1 666/34/1 667/28/1 668/27/1
f 669/32/1 670/33/1 671/27/1 672/26/1
f 673/33/1 674/34/1 675/28/1 676/27/1
f 677/32/1 678/33/1 679/27/1 680/26/1
f 681/33/1 682/34/1 683/28/1 684/27/1
f 685/32/1 686/33/1 687/27/1 688/26/1
f 689/33/1 690/34/1 691/28/1 692/27/1
f 693/32/1 694/33/1 695/27/1 696/26/1
f 697/33/1 698/34/1 699/28/1 700/27/1
f 701/32/1 702/33/1 703/27/1 704/26/1
f 705/33/1 706/34/1 707/28/1 708/27/1
f 709/32/1 710/33/1 711/27/1 712/26/1
f 713/33/1 714/34/1 715/28/1 716/27/1
f 717/32/1 718/33/1 719/27/1 720/26/1
f 721/33/1 722/34/1 723/28/1 724/27/1
f 725/32/1 726/33/1 727/27/1 728/26/1
f 729/33/1 730/34/1 731/28/1 732/27/1
f 733/32/1 734/33/1 735/27/1 736/26/1
f 737/33/1 738/34/1 739/28/1 740/27/1
f 741/32/1 742/33/1 743/27/1 744/26/1

