# Tiled2Unity generated file. Do not modify by hand.
# Wavefront file for 'Grand-Hall_mesh_0004.obj'

# Vertices (Count = 216)
v -44.8 -1.28 0
v -46.08 -1.28 0
v -46.08 0 0
v -44.8 0 0
v -45.44 -1.28 0
v -46.72 -1.28 0
v -46.72 0 0
v -45.44 0 0
v -46.08 -1.28 0
v -47.36 -1.28 0
v -47.36 0 0
v -46.08 0 0
v -46.72 -1.28 0
v -48 -1.28 0
v -48 0 0
v -46.72 0 0
v -47.36 -1.28 0
v -48.64 -1.28 0
v -48.64 0 0
v -47.36 0 0
v -48 -1.28 0
v -49.28 -1.28 0
v -49.28 0 0
v -48 0 0
v -48.64 -1.28 0
v -49.92 -1.28 0
v -49.92 0 0
v -48.64 0 0
v -49.28 -1.28 0
v -50.56 -1.28 0
v -50.56 0 0
v -49.28 0 0
v -49.92 -1.28 0
v -51.2 -1.28 0
v -51.2 0 0
v -49.92 0 0
v -50.56 -1.28 0
v -51.84 -1.28 0
v -51.84 0 0
v -50.56 0 0
v -51.2 -1.28 0
v -52.48 -1.28 0
v -52.48 0 0
v -51.2 0 0
v -51.84 -1.28 0
v -53.12 -1.28 0
v -53.12 0 0
v -51.84 0 0
v -52.48 -1.28 0
v -53.76 -1.28 0
v -53.76 0 0
v -52.48 0 0
v -44.8 -1.92 0
v -46.08 -1.92 0
v -46.08 -0.64 0
v -44.8 -0.64 0
v -45.44 -1.92 0
v -46.72 -1.92 0
v -46.72 -0.64 0
v -45.44 -0.64 0
v -46.08 -1.92 0
v -47.36 -1.92 0
v -47.36 -0.64 0
v -46.08 -0.64 0
v -46.72 -1.92 0
v -48 -1.92 0
v -48 -0.64 0
v -46.72 -0.64 0
v -47.36 -1.92 0
v -48.64 -1.92 0
v -48.64 -0.64 0
v -47.36 -0.64 0
v -48 -1.92 0
v -49.28 -1.92 0
v -49.28 -0.64 0
v -48 -0.64 0
v -48.64 -1.92 0
v -49.92 -1.92 0
v -49.92 -0.64 0
v -48.64 -0.64 0
v -49.28 -1.92 0
v -50.56 -1.92 0
v -50.56 -0.64 0
v -49.28 -0.64 0
v -49.92 -1.92 0
v -51.2 -1.92 0
v -51.2 -0.64 0
v -49.92 -0.64 0
v -50.56 -1.92 0
v -51.84 -1.92 0
v -51.84 -0.64 0
v -50.56 -0.64 0
v -51.2 -1.92 0
v -52.48 -1.92 0
v -52.48 -0.64 0
v -51.2 -0.64 0
v -51.84 -1.92 0
v -53.12 -1.92 0
v -53.12 -0.64 0
v -51.84 -0.64 0
v -52.48 -1.92 0
v -53.76 -1.92 0
v -53.76 -0.64 0
v -52.48 -0.64 0
v -44.8 -55.68 0
v -46.08 -55.68 0
v -46.08 -54.4 0
v -44.8 -54.4 0
v -45.44 -55.68 0
v -46.72 -55.68 0
v -46.72 -54.4 0
v -45.44 -54.4 0
v -46.08 -55.68 0
v -47.36 -55.68 0
v -47.36 -54.4 0
v -46.08 -54.4 0
v -46.72 -55.68 0
v -48 -55.68 0
v -48 -54.4 0
v -46.72 -54.4 0
v -47.36 -55.68 0
v -48.64 -55.68 0
v -48.64 -54.4 0
v -47.36 -54.4 0
v -48 -55.68 0
v -49.28 -55.68 0
v -49.28 -54.4 0
v -48 -54.4 0
v -48.64 -55.68 0
v -49.92 -55.68 0
v -49.92 -54.4 0
v -48.64 -54.4 0
v -49.28 -55.68 0
v -50.56 -55.68 0
v -50.56 -54.4 0
v -49.28 -54.4 0
v -49.92 -55.68 0
v -51.2 -55.68 0
v -51.2 -54.4 0
v -49.92 -54.4 0
v -50.56 -55.68 0
v -51.84 -55.68 0
v -51.84 -54.4 0
v -50.56 -54.4 0
v -51.2 -55.68 0
v -52.48 -55.68 0
v -52.48 -54.4 0
v -51.2 -54.4 0
v -51.84 -55.68 0
v -53.12 -55.68 0
v -53.12 -54.4 0
v -51.84 -54.4 0
v -52.48 -55.68 0
v -53.76 -55.68 0
v -53.76 -54.4 0
v -52.48 -54.4 0
v -53.12 -55.68 0
v -54.4 -55.68 0
v -54.4 -54.4 0
v -53.12 -54.4 0
v -44.8 -56.32 0
v -46.08 -56.32 0
v -46.08 -55.04 0
v -44.8 -55.04 0
v -45.44 -56.32 0
v -46.72 -56.32 0
v -46.72 -55.04 0
v -45.44 -55.04 0
v -46.08 -56.32 0
v -47.36 -56.32 0
v -47.36 -55.04 0
v -46.08 -55.04 0
v -46.72 -56.32 0
v -48 -56.32 0
v -48 -55.04 0
v -46.72 -55.04 0
v -47.36 -56.32 0
v -48.64 -56.32 0
v -48.64 -55.04 0
v -47.36 -55.04 0
v -48 -56.32 0
v -49.28 -56.32 0
v -49.28 -55.04 0
v -48 -55.04 0
v -48.64 -56.32 0
v -49.92 -56.32 0
v -49.92 -55.04 0
v -48.64 -55.04 0
v -49.28 -56.32 0
v -50.56 -56.32 0
v -50.56 -55.04 0
v -49.28 -55.04 0
v -49.92 -56.32 0
v -51.2 -56.32 0
v -51.2 -55.04 0
v -49.92 -55.04 0
v -50.56 -56.32 0
v -51.84 -56.32 0
v -51.84 -55.04 0
v -50.56 -55.04 0
v -51.2 -56.32 0
v -52.48 -56.32 0
v -52.48 -55.04 0
v -51.2 -55.04 0
v -51.84 -56.32 0
v -53.12 -56.32 0
v -53.12 -55.04 0
v -51.84 -55.04 0
v -52.48 -56.32 0
v -53.76 -56.32 0
v -53.76 -55.04 0
v -52.48 -55.04 0
v -53.12 -56.32 0
v -54.4 -56.32 0
v -54.4 -55.04 0
v -53.12 -55.04 0

# Texture cooridinates (Count = 4)
vt 0.2 0.2
vt 0.3 0.2
vt 0.3 0.3
vt 0.2 0.3

# Normal
vn 0 0 -1

# Mesh description
g Grand-Hall_mesh_0004

# Faces
f 1/1/1 2/2/1 3/3/1 4/4/1
f 5/1/1 6/2/1 7/3/1 8/4/1
f 9/1/1 10/2/1 11/3/1 12/4/1
f 13/1/1 14/2/1 15/3/1 16/4/1
f 17/1/1 18/2/1 19/3/1 20/4/1
f 21/1/1 22/2/1 23/3/1 24/4/1
f 25/1/1 26/2/1 27/3/1 28/4/1
f 29/1/1 30/2/1 31/3/1 32/4/1
f 33/1/1 34/2/1 35/3/1 36/4/1
f 37/1/1 38/2/1 39/3/1 40/4/1
f 41/1/1 42/2/1 43/3/1 44/4/1
f 45/1/1 46/2/1 47/3/1 48/4/1
f 49/1/1 50/2/1 51/3/1 52/4/1
f 53/1/1 54/2/1 55/3/1 56/4/1
f 57/1/1 58/2/1 59/3/1 60/4/1
f 61/1/1 62/2/1 63/3/1 64/4/1
f 65/1/1 66/2/1 67/3/1 68/4/1
f 69/1/1 70/2/1 71/3/1 72/4/1
f 73/1/1 74/2/1 75/3/1 76/4/1
f 77/1/1 78/2/1 79/3/1 80/4/1
f 81/1/1 82/2/1 83/3/1 84/4/1
f 85/1/1 86/2/1 87/3/1 88/4/1
f 89/1/1 90/2/1 91/3/1 92/4/1
f 93/1/1 94/2/1 95/3/1 96/4/1
f 97/1/1 98/2/1 99/3/1 100/4/1
f 101/1/1 102/2/1 103/3/1 104/4/1
f 105/1/1 106/2/1 107/3/1 108/4/1
f 109/1/1 110/2/1 111/3/1 112/4/1
f 113/1/1 114/2/1 115/3/1 116/4/1
f 117/1/1 118/2/1 119/3/1 120/4/1
f 121/1/1 122/2/1 123/3/1 124/4/1
f 125/1/1 126/2/1 127/3/1 128/4/1
f 129/1/1 130/2/1 131/3/1 132/4/1
f 133/1/1 134/2/1 135/3/1 136/4/1
f 137/1/1 138/2/1 139/3/1 140/4/1
f 141/1/1 142/2/1 143/3/1 144/4/1
f 145/1/1 146/2/1 147/3/1 148/4/1
f 149/1/1 150/2/1 151/3/1 152/4/1
f 153/1/1 154/2/1 155/3/1 156/4/1
f 157/1/1 158/2/1 159/3/1 160/4/1
f 161/1/1 162/2/1 163/3/1 164/4/1
f 165/1/1 166/2/1 167/3/1 168/4/1
f 169/1/1 170/2/1 171/3/1 172/4/1
f 173/1/1 174/2/1 175/3/1 176/4/1
f 177/1/1 178/2/1 179/3/1 180/4/1
f 181/1/1 182/2/1 183/3/1 184/4/1
f 185/1/1 186/2/1 187/3/1 188/4/1
f 189/1/1 190/2/1 191/3/1 192/4/1
f 193/1/1 194/2/1 195/3/1 196/4/1
f 197/1/1 198/2/1 199/3/1 200/4/1
f 201/1/1 202/2/1 203/3/1 204/4/1
f 205/1/1 206/2/1 207/3/1 208/4/1
f 209/1/1 210/2/1 211/3/1 212/4/1
f 213/1/1 214/2/1 215/3/1 216/4/1

