# Tiled2Unity generated file. Do not modify by hand.
# Wavefront file for 'MasterBedroom_mesh_0004.obj'

# Vertices (Count = 16)
v -10.24 -5.12 0
v -10.88 -5.12 0
v -10.88 -4.48 0
v -10.24 -4.48 0
v -10.88 -5.12 0
v -11.52 -5.12 0
v -11.52 -4.48 0
v -10.88 -4.48 0
v -10.24 -5.76 0
v -10.88 -5.76 0
v -10.88 -5.12 0
v -10.24 -5.12 0
v -10.88 -5.76 0
v -11.52 -5.76 0
v -11.52 -5.12 0
v -10.88 -5.12 0

# Texture cooridinates (Count = 9)
vt 0 0.8333333
vt 0.25 0.8333333
vt 0.25 1
vt 0 1
vt 0.5 0.8333333
vt 0.5 1
vt 0 0.6666666
vt 0.25 0.6666666
vt 0.5 0.6666666

# Normal
vn 0 0 -1

# Mesh description
g MasterBedroom_mesh_0004

# Faces
f 1/1/1 2/2/1 3/3/1 4/4/1
f 5/2/1 6/5/1 7/6/1 8/3/1
f 9/7/1 10/8/1 11/2/1 12/1/1
f 13/8/1 14/9/1 15/5/1 16/2/1

