# Tiled2Unity generated file. Do not modify by hand.
# Wavefront file for 'GroundHallway_mesh_0005.obj'

# Vertices (Count = 40)
v -29.44 -10.24 0
v -30.08 -10.24 0
v -30.08 -9.599999 0
v -29.44 -9.599999 0
v -30.08 -10.24 0
v -30.72 -10.24 0
v -30.72 -9.599999 0
v -30.08 -9.599999 0
v -30.72 -10.24 0
v -31.36 -10.24 0
v -31.36 -9.599999 0
v -30.72 -9.599999 0
v -31.36 -10.24 0
v -32 -10.24 0
v -32 -9.599999 0
v -31.36 -9.599999 0
v -32 -10.24 0
v -32.64 -10.24 0
v -32.64 -9.599999 0
v -32 -9.599999 0
v -32.64 -10.24 0
v -33.28 -10.24 0
v -33.28 -9.599999 0
v -32.64 -9.599999 0
v -33.28 -10.24 0
v -33.92 -10.24 0
v -33.92 -9.599999 0
v -33.28 -9.599999 0
v -33.92 -10.24 0
v -34.56 -10.24 0
v -34.56 -9.599999 0
v -33.92 -9.599999 0
v -34.56 -10.24 0
v -35.2 -10.24 0
v -35.2 -9.599999 0
v -34.56 -9.599999 0
v -35.2 -10.24 0
v -35.84 -10.24 0
v -35.84 -9.599999 0
v -35.2 -9.599999 0

# Texture cooridinates (Count = 4)
vt 0.6666667 0.5714285
vt 0.75 0.5714285
vt 0.75 0.6428571
vt 0.6666667 0.6428571

# Normal
vn 0 0 -1

# Mesh description
g GroundHallway_mesh_0005

# Faces
f 1/1/1 2/2/1 3/3/1 4/4/1
f 5/1/1 6/2/1 7/3/1 8/4/1
f 9/1/1 10/2/1 11/3/1 12/4/1
f 13/1/1 14/2/1 15/3/1 16/4/1
f 17/1/1 18/2/1 19/3/1 20/4/1
f 21/1/1 22/2/1 23/3/1 24/4/1
f 25/1/1 26/2/1 27/3/1 28/4/1
f 29/1/1 30/2/1 31/3/1 32/4/1
f 33/1/1 34/2/1 35/3/1 36/4/1
f 37/1/1 38/2/1 39/3/1 40/4/1

