# Tiled2Unity generated file. Do not modify by hand.
# Wavefront file for 'GroundHallway_mesh_0003.obj'

# Vertices (Count = 308)
v -8.32 -0.64 0
v -8.96 -0.64 0
v -8.96 0 0
v -8.32 0 0
v -8.96 -0.64 0
v -9.599999 -0.64 0
v -9.599999 0 0
v -8.96 0 0
v -9.599999 -0.64 0
v -10.24 -0.64 0
v -10.24 0 0
v -9.599999 0 0
v -10.24 -0.64 0
v -10.88 -0.64 0
v -10.88 0 0
v -10.24 0 0
v -10.88 -0.64 0
v -11.52 -0.64 0
v -11.52 0 0
v -10.88 0 0
v -11.52 -0.64 0
v -12.16 -0.64 0
v -12.16 0 0
v -11.52 0 0
v -12.16 -0.64 0
v -12.8 -0.64 0
v -12.8 0 0
v -12.16 0 0
v -12.8 -0.64 0
v -13.44 -0.64 0
v -13.44 0 0
v -12.8 0 0
v -13.44 -0.64 0
v -14.08 -0.64 0
v -14.08 0 0
v -13.44 0 0
v -14.08 -0.64 0
v -14.72 -0.64 0
v -14.72 0 0
v -14.08 0 0
v -14.72 -0.64 0
v -15.36 -0.64 0
v -15.36 0 0
v -14.72 0 0
v -15.36 -0.64 0
v -16 -0.64 0
v -16 0 0
v -15.36 0 0
v -16 -0.64 0
v -16.64 -0.64 0
v -16.64 0 0
v -16 0 0
v -16.64 -0.64 0
v -17.28 -0.64 0
v -17.28 0 0
v -16.64 0 0
v -17.28 -0.64 0
v -17.92 -0.64 0
v -17.92 0 0
v -17.28 0 0
v -17.92 -0.64 0
v -18.56 -0.64 0
v -18.56 0 0
v -17.92 0 0
v -18.56 -0.64 0
v -19.2 -0.64 0
v -19.2 0 0
v -18.56 0 0
v -19.2 -0.64 0
v -19.84 -0.64 0
v -19.84 0 0
v -19.2 0 0
v -19.84 -0.64 0
v -20.48 -0.64 0
v -20.48 0 0
v -19.84 0 0
v -78.08 -0.64 0
v -78.72 -0.64 0
v -78.72 0 0
v -78.08 0 0
v -78.72 -0.64 0
v -79.36 -0.64 0
v -79.36 0 0
v -78.72 0 0
v -79.36 -0.64 0
v -80 -0.64 0
v -80 0 0
v -79.36 0 0
v -80 -0.64 0
v -80.64 -0.64 0
v -80.64 0 0
v -80 0 0
v -80.64 -0.64 0
v -81.28 -0.64 0
v -81.28 0 0
v -80.64 0 0
v -81.28 -0.64 0
v -81.92 -0.64 0
v -81.92 0 0
v -81.28 0 0
v -81.92 -0.64 0
v -82.56 -0.64 0
v -82.56 0 0
v -81.92 0 0
v -82.56 -0.64 0
v -83.2 -0.64 0
v -83.2 0 0
v -82.56 0 0
v -83.2 -0.64 0
v -83.84 -0.64 0
v -83.84 0 0
v -83.2 0 0
v -83.84 -0.64 0
v -84.48 -0.64 0
v -84.48 0 0
v -83.84 0 0
v -84.48 -0.64 0
v -85.12 -0.64 0
v -85.12 0 0
v -84.48 0 0
v -85.12 -0.64 0
v -85.75999 -0.64 0
v -85.75999 0 0
v -85.12 0 0
v -85.75999 -0.64 0
v -86.4 -0.64 0
v -86.4 0 0
v -85.75999 0 0
v -86.4 -0.64 0
v -87.04 -0.64 0
v -87.04 0 0
v -86.4 0 0
v -87.04 -0.64 0
v -87.68 -0.64 0
v -87.68 0 0
v -87.04 0 0
v -87.68 -0.64 0
v -88.32 -0.64 0
v -88.32 0 0
v -87.68 0 0
v -88.32 -0.64 0
v -88.96 -0.64 0
v -88.96 0 0
v -88.32 0 0
v -88.96 -0.64 0
v -89.6 -0.64 0
v -89.6 0 0
v -88.96 0 0
v -89.6 -0.64 0
v -90.24 -0.64 0
v -90.24 0 0
v -89.6 0 0
v -90.24 -0.64 0
v -90.88 -0.64 0
v -90.88 0 0
v -90.24 0 0
v -90.88 -0.64 0
v -91.52 -0.64 0
v -91.52 0 0
v -90.88 0 0
v -91.52 -0.64 0
v -92.16 -0.64 0
v -92.16 0 0
v -91.52 0 0
v -92.16 -0.64 0
v -92.8 -0.64 0
v -92.8 0 0
v -92.16 0 0
v -92.8 -0.64 0
v -93.43999 -0.64 0
v -93.43999 0 0
v -92.8 0 0
v -93.43999 -0.64 0
v -94.07999 -0.64 0
v -94.07999 0 0
v -93.43999 0 0
v -94.07999 -0.64 0
v -94.72 -0.64 0
v -94.72 0 0
v -94.07999 0 0
v -96.64 -3.2 0
v -97.28 -3.2 0
v -97.28 -2.56 0
v -96.64 -2.56 0
v -96.64 -3.84 0
v -97.28 -3.84 0
v -97.28 -3.2 0
v -96.64 -3.2 0
v -96.64 -4.48 0
v -97.28 -4.48 0
v -97.28 -3.84 0
v -96.64 -3.84 0
v -96.64 -5.12 0
v -97.28 -5.12 0
v -97.28 -4.48 0
v -96.64 -4.48 0
v -96.64 -5.76 0
v -97.28 -5.76 0
v -97.28 -5.12 0
v -96.64 -5.12 0
v -96.64 -6.4 0
v -97.28 -6.4 0
v -97.28 -5.76 0
v -96.64 -5.76 0
v -96.64 -7.04 0
v -97.28 -7.04 0
v -97.28 -6.4 0
v -96.64 -6.4 0
v -96.64 -7.68 0
v -97.28 -7.68 0
v -97.28 -7.04 0
v -96.64 -7.04 0
v -8.32 -10.24 0
v -8.96 -10.24 0
v -8.96 -9.599999 0
v -8.32 -9.599999 0
v -8.96 -10.24 0
v -9.599999 -10.24 0
v -9.599999 -9.599999 0
v -8.96 -9.599999 0
v -9.599999 -10.24 0
v -10.24 -10.24 0
v -10.24 -9.599999 0
v -9.599999 -9.599999 0
v -10.24 -10.24 0
v -10.88 -10.24 0
v -10.88 -9.599999 0
v -10.24 -9.599999 0
v -10.88 -10.24 0
v -11.52 -10.24 0
v -11.52 -9.599999 0
v -10.88 -9.599999 0
v -11.52 -10.24 0
v -12.16 -10.24 0
v -12.16 -9.599999 0
v -11.52 -9.599999 0
v -12.16 -10.24 0
v -12.8 -10.24 0
v -12.8 -9.599999 0
v -12.16 -9.599999 0
v -12.8 -10.24 0
v -13.44 -10.24 0
v -13.44 -9.599999 0
v -12.8 -9.599999 0
v -84.48 -10.24 0
v -85.12 -10.24 0
v -85.12 -9.599999 0
v -84.48 -9.599999 0
v -85.12 -10.24 0
v -85.75999 -10.24 0
v -85.75999 -9.599999 0
v -85.12 -9.599999 0
v -85.75999 -10.24 0
v -86.4 -10.24 0
v -86.4 -9.599999 0
v -85.75999 -9.599999 0
v -86.4 -10.24 0
v -87.04 -10.24 0
v -87.04 -9.599999 0
v -86.4 -9.599999 0
v -87.04 -10.24 0
v -87.68 -10.24 0
v -87.68 -9.599999 0
v -87.04 -9.599999 0
v -87.68 -10.24 0
v -88.32 -10.24 0
v -88.32 -9.599999 0
v -87.68 -9.599999 0
v -88.32 -10.24 0
v -88.96 -10.24 0
v -88.96 -9.599999 0
v -88.32 -9.599999 0
v -88.96 -10.24 0
v -89.6 -10.24 0
v -89.6 -9.599999 0
v -88.96 -9.599999 0
v -89.6 -10.24 0
v -90.24 -10.24 0
v -90.24 -9.599999 0
v -89.6 -9.599999 0
v -90.24 -10.24 0
v -90.88 -10.24 0
v -90.88 -9.599999 0
v -90.24 -9.599999 0
v -90.88 -10.24 0
v -91.52 -10.24 0
v -91.52 -9.599999 0
v -90.88 -9.599999 0
v -91.52 -10.24 0
v -92.16 -10.24 0
v -92.16 -9.599999 0
v -91.52 -9.599999 0
v -92.16 -10.24 0
v -92.8 -10.24 0
v -92.8 -9.599999 0
v -92.16 -9.599999 0
v -92.8 -10.24 0
v -93.43999 -10.24 0
v -93.43999 -9.599999 0
v -92.8 -9.599999 0
v -93.43999 -10.24 0
v -94.07999 -10.24 0
v -94.07999 -9.599999 0
v -93.43999 -9.599999 0
v -94.07999 -10.24 0
v -94.72 -10.24 0
v -94.72 -9.599999 0
v -94.07999 -9.599999 0

# Texture cooridinates (Count = 10)
vt 0.15 0.75
vt 0.2 0.75
vt 0.2 0.8
vt 0.15 0.8
vt 0.25 0.75
vt 0.25 0.8
vt 0.3 0.75
vt 0.3 0.8
vt 0.35 0.75
vt 0.35 0.8

# Normal
vn 0 0 -1

# Mesh description
g GroundHallway_mesh_0003

# Faces
f 1/1/1 2/2/1 3/3/1 4/4/1
f 5/1/1 6/2/1 7/3/1 8/4/1
f 9/1/1 10/2/1 11/3/1 12/4/1
f 13/1/1 14/2/1 15/3/1 16/4/1
f 17/1/1 18/2/1 19/3/1 20/4/1
f 21/1/1 22/2/1 23/3/1 24/4/1
f 25/1/1 26/2/1 27/3/1 28/4/1
f 29/1/1 30/2/1 31/3/1 32/4/1
f 33/1/1 34/2/1 35/3/1 36/4/1
f 37/1/1 38/2/1 39/3/1 40/4/1
f 41/1/1 42/2/1 43/3/1 44/4/1
f 45/1/1 46/2/1 47/3/1 48/4/1
f 49/1/1 50/2/1 51/3/1 52/4/1
f 53/1/1 54/2/1 55/3/1 56/4/1
f 57/1/1 58/2/1 59/3/1 60/4/1
f 61/1/1 62/2/1 63/3/1 64/4/1
f 65/2/1 66/5/1 67/6/1 68/3/1
f 69/5/1 70/7/1 71/8/1 72/6/1
f 73/7/1 74/9/1 75/10/1 76/8/1
f 77/10/1 78/8/1 79/7/1 80/9/1
f 81/10/1 82/8/1 83/7/1 84/9/1
f 85/10/1 86/8/1 87/7/1 88/9/1
f 89/10/1 90/8/1 91/7/1 92/9/1
f 93/10/1 94/8/1 95/7/1 96/9/1
f 97/10/1 98/8/1 99/7/1 100/9/1
f 101/10/1 102/8/1 103/7/1 104/9/1
f 105/10/1 106/8/1 107/7/1 108/9/1
f 109/10/1 110/8/1 111/7/1 112/9/1
f 113/10/1 114/8/1 115/7/1 116/9/1
f 117/10/1 118/8/1 119/7/1 120/9/1
f 121/10/1 122/8/1 123/7/1 124/9/1
f 125/10/1 126/8/1 127/7/1 128/9/1
f 129/10/1 130/8/1 131/7/1 132/9/1
f 133/8/1 134/6/1 135/5/1 136/7/1
f 137/10/1 138/8/1 139/7/1 140/9/1
f 141/10/1 142/8/1 143/7/1 144/9/1
f 145/10/1 146/8/1 147/7/1 148/9/1
f 149/10/1 150/8/1 151/7/1 152/9/1
f 153/10/1 154/8/1 155/7/1 156/9/1
f 157/10/1 158/8/1 159/7/1 160/9/1
f 161/10/1 162/8/1 163/7/1 164/9/1
f 165/10/1 166/8/1 167/7/1 168/9/1
f 169/8/1 170/6/1 171/5/1 172/7/1
f 173/6/1 174/3/1 175/2/1 176/5/1
f 177/3/1 178/4/1 179/1/1 180/2/1
f 181/2/1 182/3/1 183/4/1 184/1/1
f 185/5/1 186/6/1 187/3/1 188/2/1
f 189/7/1 190/8/1 191/6/1 192/5/1
f 193/9/1 194/10/1 195/8/1 196/7/1
f 197/2/1 198/3/1 199/4/1 200/1/1
f 201/5/1 202/6/1 203/3/1 204/2/1
f 205/7/1 206/8/1 207/6/1 208/5/1
f 209/9/1 210/10/1 211/8/1 212/7/1
f 213/1/1 214/2/1 215/3/1 216/4/1
f 217/2/1 218/5/1 219/6/1 220/3/1
f 221/5/1 222/7/1 223/8/1 224/6/1
f 225/7/1 226/9/1 227/10/1 228/8/1
f 229/1/1 230/2/1 231/3/1 232/4/1
f 233/2/1 234/5/1 235/6/1 236/3/1
f 237/5/1 238/7/1 239/8/1 240/6/1
f 241/7/1 242/9/1 243/10/1 244/8/1
f 245/10/1 246/8/1 247/7/1 248/9/1
f 249/8/1 250/6/1 251/5/1 252/7/1
f 253/6/1 254/3/1 255/2/1 256/5/1
f 257/3/1 258/4/1 259/1/1 260/2/1
f 261/10/1 262/8/1 263/7/1 264/9/1
f 265/8/1 266/6/1 267/5/1 268/7/1
f 269/6/1 270/3/1 271/2/1 272/5/1
f 273/3/1 274/4/1 275/1/1 276/2/1
f 277/10/1 278/8/1 279/7/1 280/9/1
f 281/8/1 282/6/1 283/5/1 284/7/1
f 285/6/1 286/3/1 287/2/1 288/5/1
f 289/3/1 290/4/1 291/1/1 292/2/1
f 293/10/1 294/8/1 295/7/1 296/9/1
f 297/8/1 298/6/1 299/5/1 300/7/1
f 301/6/1 302/3/1 303/2/1 304/5/1
f 305/3/1 306/4/1 307/1/1 308/2/1

