# Tiled2Unity generated file. Do not modify by hand.
# Wavefront file for 'Kitchen_mesh_0004.obj'

# Vertices (Count = 408)
v -10.88 -0.64 0
v -11.52 -0.64 0
v -11.52 0 0
v -10.88 0 0
v -11.52 -0.64 0
v -12.16 -0.64 0
v -12.16 0 0
v -11.52 0 0
v -12.8 -0.64 0
v -13.44 -0.64 0
v -13.44 0 0
v -12.8 0 0
v -13.44 -0.64 0
v -14.08 -0.64 0
v -14.08 0 0
v -13.44 0 0
v -14.08 -0.64 0
v -14.72 -0.64 0
v -14.72 0 0
v -14.08 0 0
v -14.72 -0.64 0
v -15.36 -0.64 0
v -15.36 0 0
v -14.72 0 0
v -15.36 -0.64 0
v -16 -0.64 0
v -16 0 0
v -15.36 0 0
v -16 -0.64 0
v -16.64 -0.64 0
v -16.64 0 0
v -16 0 0
v -17.28 -0.64 0
v -17.92 -0.64 0
v -17.92 0 0
v -17.28 0 0
v -17.92 -0.64 0
v -18.56 -0.64 0
v -18.56 0 0
v -17.92 0 0
v -5.76 -1.28 0
v -6.4 -1.28 0
v -6.4 -0.64 0
v -5.76 -0.64 0
v -6.4 -1.28 0
v -7.04 -1.28 0
v -7.04 -0.64 0
v -6.4 -0.64 0
v -7.04 -1.28 0
v -7.68 -1.28 0
v -7.68 -0.64 0
v -7.04 -0.64 0
v -7.68 -1.28 0
v -8.32 -1.28 0
v -8.32 -0.64 0
v -7.68 -0.64 0
v -8.32 -1.28 0
v -8.96 -1.28 0
v -8.96 -0.64 0
v -8.32 -0.64 0
v -8.96 -1.28 0
v -9.599999 -1.28 0
v -9.599999 -0.64 0
v -8.96 -0.64 0
v -9.599999 -1.28 0
v -10.24 -1.28 0
v -10.24 -0.64 0
v -9.599999 -0.64 0
v -10.24 -1.28 0
v -10.88 -1.28 0
v -10.88 -0.64 0
v -10.24 -0.64 0
v -10.88 -1.28 0
v -11.52 -1.28 0
v -11.52 -0.64 0
v -10.88 -0.64 0
v -11.52 -1.28 0
v -12.16 -1.28 0
v -12.16 -0.64 0
v -11.52 -0.64 0
v -12.8 -1.28 0
v -13.44 -1.28 0
v -13.44 -0.64 0
v -12.8 -0.64 0
v -13.44 -1.28 0
v -14.08 -1.28 0
v -14.08 -0.64 0
v -13.44 -0.64 0
v -14.08 -1.28 0
v -14.72 -1.28 0
v -14.72 -0.64 0
v -14.08 -0.64 0
v -14.72 -1.28 0
v -15.36 -1.28 0
v -15.36 -0.64 0
v -14.72 -0.64 0
v -15.36 -1.28 0
v -16 -1.28 0
v -16 -0.64 0
v -15.36 -0.64 0
v -16 -1.28 0
v -16.64 -1.28 0
v -16.64 -0.64 0
v -16 -0.64 0
v -17.28 -1.28 0
v -17.92 -1.28 0
v -17.92 -0.64 0
v -17.28 -0.64 0
v -17.92 -1.28 0
v -18.56 -1.28 0
v -18.56 -0.64 0
v -17.92 -0.64 0
v -18.56 -1.28 0
v -19.2 -1.28 0
v -19.2 -0.64 0
v -18.56 -0.64 0
v -19.2 -1.28 0
v -19.84 -1.28 0
v -19.84 -0.64 0
v -19.2 -0.64 0
v -19.84 -1.28 0
v -20.48 -1.28 0
v -20.48 -0.64 0
v -19.84 -0.64 0
v -20.48 -1.28 0
v -21.12 -1.28 0
v -21.12 -0.64 0
v -20.48 -0.64 0
v -21.12 -1.28 0
v -21.76 -1.28 0
v -21.76 -0.64 0
v -21.12 -0.64 0
v -21.76 -1.28 0
v -22.4 -1.28 0
v -22.4 -0.64 0
v -21.76 -0.64 0
v -22.4 -1.28 0
v -23.04 -1.28 0
v -23.04 -0.64 0
v -22.4 -0.64 0
v -23.04 -1.28 0
v -23.68 -1.28 0
v -23.68 -0.64 0
v -23.04 -0.64 0
v -5.76 -1.92 0
v -6.4 -1.92 0
v -6.4 -1.28 0
v -5.76 -1.28 0
v -6.4 -1.92 0
v -7.04 -1.92 0
v -7.04 -1.28 0
v -6.4 -1.28 0
v -7.04 -1.92 0
v -7.68 -1.92 0
v -7.68 -1.28 0
v -7.04 -1.28 0
v -7.68 -1.92 0
v -8.32 -1.92 0
v -8.32 -1.28 0
v -7.68 -1.28 0
v -8.32 -1.92 0
v -8.96 -1.92 0
v -8.96 -1.28 0
v -8.32 -1.28 0
v -8.96 -1.92 0
v -9.599999 -1.92 0
v -9.599999 -1.28 0
v -8.96 -1.28 0
v -9.599999 -1.92 0
v -10.24 -1.92 0
v -10.24 -1.28 0
v -9.599999 -1.28 0
v -10.24 -1.92 0
v -10.88 -1.92 0
v -10.88 -1.28 0
v -10.24 -1.28 0
v -10.88 -1.92 0
v -11.52 -1.92 0
v -11.52 -1.28 0
v -10.88 -1.28 0
v -11.52 -1.92 0
v -12.16 -1.92 0
v -12.16 -1.28 0
v -11.52 -1.28 0
v -12.8 -1.92 0
v -13.44 -1.92 0
v -13.44 -1.28 0
v -12.8 -1.28 0
v -13.44 -1.92 0
v -14.08 -1.92 0
v -14.08 -1.28 0
v -13.44 -1.28 0
v -14.08 -1.92 0
v -14.72 -1.92 0
v -14.72 -1.28 0
v -14.08 -1.28 0
v -14.72 -1.92 0
v -15.36 -1.92 0
v -15.36 -1.28 0
v -14.72 -1.28 0
v -15.36 -1.92 0
v -16 -1.92 0
v -16 -1.28 0
v -15.36 -1.28 0
v -16 -1.92 0
v -16.64 -1.92 0
v -16.64 -1.28 0
v -16 -1.28 0
v -17.28 -1.92 0
v -17.92 -1.92 0
v -17.92 -1.28 0
v -17.28 -1.28 0
v -17.92 -1.92 0
v -18.56 -1.92 0
v -18.56 -1.28 0
v -17.92 -1.28 0
v -18.56 -1.92 0
v -19.2 -1.92 0
v -19.2 -1.28 0
v -18.56 -1.28 0
v -19.2 -1.92 0
v -19.84 -1.92 0
v -19.84 -1.28 0
v -19.2 -1.28 0
v -19.84 -1.92 0
v -20.48 -1.92 0
v -20.48 -1.28 0
v -19.84 -1.28 0
v -20.48 -1.92 0
v -21.12 -1.92 0
v -21.12 -1.28 0
v -20.48 -1.28 0
v -21.12 -1.92 0
v -21.76 -1.92 0
v -21.76 -1.28 0
v -21.12 -1.28 0
v -21.76 -1.92 0
v -22.4 -1.92 0
v -22.4 -1.28 0
v -21.76 -1.28 0
v -22.4 -1.92 0
v -23.04 -1.92 0
v -23.04 -1.28 0
v -22.4 -1.28 0
v -23.04 -1.92 0
v -23.68 -1.92 0
v -23.68 -1.28 0
v -23.04 -1.28 0
v -10.88 -2.56 0
v -11.52 -2.56 0
v -11.52 -1.92 0
v -10.88 -1.92 0
v -11.52 -2.56 0
v -12.16 -2.56 0
v -12.16 -1.92 0
v -11.52 -1.92 0
v -12.8 -2.56 0
v -13.44 -2.56 0
v -13.44 -1.92 0
v -12.8 -1.92 0
v -13.44 -2.56 0
v -14.08 -2.56 0
v -14.08 -1.92 0
v -13.44 -1.92 0
v -14.08 -2.56 0
v -14.72 -2.56 0
v -14.72 -1.92 0
v -14.08 -1.92 0
v -14.72 -2.56 0
v -15.36 -2.56 0
v -15.36 -1.92 0
v -14.72 -1.92 0
v -15.36 -2.56 0
v -16 -2.56 0
v -16 -1.92 0
v -15.36 -1.92 0
v -16 -2.56 0
v -16.64 -2.56 0
v -16.64 -1.92 0
v -16 -1.92 0
v -17.28 -2.56 0
v -17.92 -2.56 0
v -17.92 -1.92 0
v -17.28 -1.92 0
v -17.92 -2.56 0
v -18.56 -2.56 0
v -18.56 -1.92 0
v -17.92 -1.92 0
v -10.88 -3.2 0
v -11.52 -3.2 0
v -11.52 -2.56 0
v -10.88 -2.56 0
v -11.52 -3.2 0
v -12.16 -3.2 0
v -12.16 -2.56 0
v -11.52 -2.56 0
v -12.8 -3.2 0
v -13.44 -3.2 0
v -13.44 -2.56 0
v -12.8 -2.56 0
v -13.44 -3.2 0
v -14.08 -3.2 0
v -14.08 -2.56 0
v -13.44 -2.56 0
v -14.08 -3.2 0
v -14.72 -3.2 0
v -14.72 -2.56 0
v -14.08 -2.56 0
v -14.72 -3.2 0
v -15.36 -3.2 0
v -15.36 -2.56 0
v -14.72 -2.56 0
v -15.36 -3.2 0
v -16 -3.2 0
v -16 -2.56 0
v -15.36 -2.56 0
v -16 -3.2 0
v -16.64 -3.2 0
v -16.64 -2.56 0
v -16 -2.56 0
v -17.28 -3.2 0
v -17.92 -3.2 0
v -17.92 -2.56 0
v -17.28 -2.56 0
v -17.92 -3.2 0
v -18.56 -3.2 0
v -18.56 -2.56 0
v -17.92 -2.56 0
v -10.88 -3.84 0
v -11.52 -3.84 0
v -11.52 -3.2 0
v -10.88 -3.2 0
v -11.52 -3.84 0
v -12.16 -3.84 0
v -12.16 -3.2 0
v -11.52 -3.2 0
v -12.8 -3.84 0
v -13.44 -3.84 0
v -13.44 -3.2 0
v -12.8 -3.2 0
v -13.44 -3.84 0
v -14.08 -3.84 0
v -14.08 -3.2 0
v -13.44 -3.2 0
v -14.08 -3.84 0
v -14.72 -3.84 0
v -14.72 -3.2 0
v -14.08 -3.2 0
v -14.72 -3.84 0
v -15.36 -3.84 0
v -15.36 -3.2 0
v -14.72 -3.2 0
v -15.36 -3.84 0
v -16 -3.84 0
v -16 -3.2 0
v -15.36 -3.2 0
v -16 -3.84 0
v -16.64 -3.84 0
v -16.64 -3.2 0
v -16 -3.2 0
v -17.28 -3.84 0
v -17.92 -3.84 0
v -17.92 -3.2 0
v -17.28 -3.2 0
v -17.92 -3.84 0
v -18.56 -3.84 0
v -18.56 -3.2 0
v -17.92 -3.2 0
v -10.88 -4.48 0
v -11.52 -4.48 0
v -11.52 -3.84 0
v -10.88 -3.84 0
v -11.52 -4.48 0
v -12.16 -4.48 0
v -12.16 -3.84 0
v -11.52 -3.84 0
v -12.8 -4.48 0
v -13.44 -4.48 0
v -13.44 -3.84 0
v -12.8 -3.84 0
v -13.44 -4.48 0
v -14.08 -4.48 0
v -14.08 -3.84 0
v -13.44 -3.84 0
v -14.08 -4.48 0
v -14.72 -4.48 0
v -14.72 -3.84 0
v -14.08 -3.84 0
v -14.72 -4.48 0
v -15.36 -4.48 0
v -15.36 -3.84 0
v -14.72 -3.84 0
v -15.36 -4.48 0
v -16 -4.48 0
v -16 -3.84 0
v -15.36 -3.84 0
v -16 -4.48 0
v -16.64 -4.48 0
v -16.64 -3.84 0
v -16 -3.84 0
v -17.28 -4.48 0
v -17.92 -4.48 0
v -17.92 -3.84 0
v -17.28 -3.84 0
v -17.92 -4.48 0
v -18.56 -4.48 0
v -18.56 -3.84 0
v -17.92 -3.84 0

# Texture cooridinates (Count = 34)
vt 0 0.75
vt 0.25 0.75
vt 0.25 0.875
vt 0 0.875
vt 0.5 0.75
vt 0.5 0.875
vt 0.5 0.375
vt 0.75 0.375
vt 0.75 0.5
vt 0.5 0.5
vt 1 0.375
vt 1 0.5
vt 0 0.625
vt 0.25 0.625
vt 0.5 0.625
vt 0.5 0.25
vt 0.75 0.25
vt 1 0.25
vt 0 0.5
vt 0.25 0.5
vt 0 0.375
vt 0.25 0.375
vt 0 0.25
vt 0.25 0.25
vt 0 0.125
vt 0.25 0.125
vt 0.5 0.125
vt 0.75 0.125
vt 1 0.125
vt 0 0
vt 0.25 0
vt 0.5 0
vt 0.75 0
vt 1 0

# Normal
vn 0 0 -1

# Mesh description
g Kitchen_mesh_0004

# Faces
f 1/1/1 2/2/1 3/3/1 4/4/1
f 5/2/1 6/5/1 7/6/1 8/3/1
f 9/1/1 10/2/1 11/3/1 12/4/1
f 13/2/1 14/5/1 15/6/1 16/3/1
f 17/1/1 18/2/1 19/3/1 20/4/1
f 21/2/1 22/5/1 23/6/1 24/3/1
f 25/1/1 26/2/1 27/3/1 28/4/1
f 29/2/1 30/5/1 31/6/1 32/3/1
f 33/1/1 34/2/1 35/3/1 36/4/1
f 37/2/1 38/5/1 39/6/1 40/3/1
f 41/7/1 42/8/1 43/9/1 44/10/1
f 45/8/1 46/11/1 47/12/1 48/9/1
f 49/7/1 50/8/1 51/9/1 52/10/1
f 53/8/1 54/11/1 55/12/1 56/9/1
f 57/7/1 58/8/1 59/9/1 60/10/1
f 61/8/1 62/11/1 63/12/1 64/9/1
f 65/7/1 66/8/1 67/9/1 68/10/1
f 69/8/1 70/11/1 71/12/1 72/9/1
f 73/13/1 74/14/1 75/2/1 76/1/1
f 77/14/1 78/15/1 79/5/1 80/2/1
f 81/13/1 82/14/1 83/2/1 84/1/1
f 85/14/1 86/15/1 87/5/1 88/2/1
f 89/13/1 90/14/1 91/2/1 92/1/1
f 93/14/1 94/15/1 95/5/1 96/2/1
f 97/13/1 98/14/1 99/2/1 100/1/1
f 101/14/1 102/15/1 103/5/1 104/2/1
f 105/13/1 106/14/1 107/2/1 108/1/1
f 109/14/1 110/15/1 111/5/1 112/2/1
f 113/7/1 114/8/1 115/9/1 116/10/1
f 117/8/1 118/11/1 119/12/1 120/9/1
f 121/7/1 122/8/1 123/9/1 124/10/1
f 125/8/1 126/11/1 127/12/1 128/9/1
f 129/7/1 130/8/1 131/9/1 132/10/1
f 133/8/1 134/11/1 135/12/1 136/9/1
f 137/7/1 138/8/1 139/9/1 140/10/1
f 141/8/1 142/11/1 143/12/1 144/9/1
f 145/16/1 146/17/1 147/8/1 148/7/1
f 149/17/1 150/18/1 151/11/1 152/8/1
f 153/16/1 154/17/1 155/8/1 156/7/1
f 157/17/1 158/18/1 159/11/1 160/8/1
f 161/16/1 162/17/1 163/8/1 164/7/1
f 165/17/1 166/18/1 167/11/1 168/8/1
f 169/16/1 170/17/1 171/8/1 172/7/1
f 173/17/1 174/18/1 175/11/1 176/8/1
f 177/19/1 178/20/1 179/14/1 180/13/1
f 181/20/1 182/10/1 183/15/1 184/14/1
f 185/19/1 186/20/1 187/14/1 188/13/1
f 189/20/1 190/10/1 191/15/1 192/14/1
f 193/19/1 194/20/1 195/14/1 196/13/1
f 197/20/1 198/10/1 199/15/1 200/14/1
f 201/19/1 202/20/1 203/14/1 204/13/1
f 205/20/1 206/10/1 207/15/1 208/14/1
f 209/19/1 210/20/1 211/14/1 212/13/1
f 213/20/1 214/10/1 215/15/1 216/14/1
f 217/16/1 218/17/1 219/8/1 220/7/1
f 221/17/1 222/18/1 223/11/1 224/8/1
f 225/16/1 226/17/1 227/8/1 228/7/1
f 229/17/1 230/18/1 231/11/1 232/8/1
f 233/16/1 234/17/1 235/8/1 236/7/1
f 237/17/1 238/18/1 239/11/1 240/8/1
f 241/16/1 242/17/1 243/8/1 244/7/1
f 245/17/1 246/18/1 247/11/1 248/8/1
f 249/21/1 250/22/1 251/20/1 252/19/1
f 253/22/1 254/7/1 255/10/1 256/20/1
f 257/21/1 258/22/1 259/20/1 260/19/1
f 261/22/1 262/7/1 263/10/1 264/20/1
f 265/21/1 266/22/1 267/20/1 268/19/1
f 269/22/1 270/7/1 271/10/1 272/20/1
f 273/21/1 274/22/1 275/20/1 276/19/1
f 277/22/1 278/7/1 279/10/1 280/20/1
f 281/21/1 282/22/1 283/20/1 284/19/1
f 285/22/1 286/7/1 287/10/1 288/20/1
f 289/23/1 290/24/1 291/22/1 292/21/1
f 293/24/1 294/16/1 295/7/1 296/22/1
f 297/23/1 298/24/1 299/22/1 300/21/1
f 301/24/1 302/16/1 303/7/1 304/22/1
f 305/23/1 306/24/1 307/22/1 308/21/1
f 309/24/1 310/16/1 311/7/1 312/22/1
f 313/23/1 314/24/1 315/22/1 316/21/1
f 317/24/1 318/16/1 319/7/1 320/22/1
f 321/23/1 322/24/1 323/22/1 324/21/1
f 325/24/1 326/16/1 327/7/1 328/22/1
f 329/25/1 330/26/1 331/24/1 332/23/1
f 333/26/1 334/27/1 335/16/1 336/24/1
f 337/25/1 338/26/1 339/24/1 340/23/1
f 341/26/1 342/27/1 343/16/1 344/24/1
f 345/27/1 346/28/1 347/17/1 348/16/1
f 349/28/1 350/29/1 351/18/1 352/17/1
f 353/25/1 354/26/1 355/24/1 356/23/1
f 357/26/1 358/27/1 359/16/1 360/24/1
f 361/25/1 362/26/1 363/24/1 364/23/1
f 365/26/1 366/27/1 367/16/1 368/24/1
f 369/30/1 370/31/1 371/26/1 372/25/1
f 373/31/1 374/32/1 375/27/1 376/26/1
f 377/30/1 378/31/1 379/26/1 380/25/1
f 381/31/1 382/32/1 383/27/1 384/26/1
f 385/32/1 386/33/1 387/28/1 388/27/1
f 389/33/1 390/34/1 391/29/1 392/28/1
f 393/30/1 394/31/1 395/26/1 396/25/1
f 397/31/1 398/32/1 399/27/1 400/26/1
f 401/30/1 402/31/1 403/26/1 404/25/1
f 405/31/1 406/32/1 407/27/1 408/26/1

