# Tiled2Unity generated file. Do not modify by hand.
# Wavefront file for 'Test22_mesh_0009.obj'

# Vertices (Count = 272)
v -3.84 -0.64 0
v -4.48 -0.64 0
v -4.48 0 0
v -3.84 0 0
v -4.48 -0.64 0
v -5.12 -0.64 0
v -5.12 0 0
v -4.48 0 0
v -3.84 -1.28 0
v -4.48 -1.28 0
v -4.48 -0.64 0
v -3.84 -0.64 0
v -4.48 -1.28 0
v -5.12 -1.28 0
v -5.12 -0.64 0
v -4.48 -0.64 0
v -5.12 -1.28 0
v -5.76 -1.28 0
v -5.76 -0.64 0
v -5.12 -0.64 0
v -5.76 -1.28 0
v -6.4 -1.28 0
v -6.4 -0.64 0
v -5.76 -0.64 0
v -6.4 -1.28 0
v -7.04 -1.28 0
v -7.04 -0.64 0
v -6.4 -0.64 0
v -7.04 -1.28 0
v -7.68 -1.28 0
v -7.68 -0.64 0
v -7.04 -0.64 0
v -7.68 -1.28 0
v -8.32 -1.28 0
v -8.32 -0.64 0
v -7.68 -0.64 0
v -8.32 -1.28 0
v -8.96 -1.28 0
v -8.96 -0.64 0
v -8.32 -0.64 0
v -8.96 -1.28 0
v -9.599999 -1.28 0
v -9.599999 -0.64 0
v -8.96 -0.64 0
v -9.599999 -1.28 0
v -10.24 -1.28 0
v -10.24 -0.64 0
v -9.599999 -0.64 0
v -3.84 -1.92 0
v -4.48 -1.92 0
v -4.48 -1.28 0
v -3.84 -1.28 0
v -4.48 -1.92 0
v -5.12 -1.92 0
v -5.12 -1.28 0
v -4.48 -1.28 0
v -5.12 -1.92 0
v -5.76 -1.92 0
v -5.76 -1.28 0
v -5.12 -1.28 0
v -5.76 -1.92 0
v -6.4 -1.92 0
v -6.4 -1.28 0
v -5.76 -1.28 0
v -6.4 -1.92 0
v -7.04 -1.92 0
v -7.04 -1.28 0
v -6.4 -1.28 0
v -7.04 -1.92 0
v -7.68 -1.92 0
v -7.68 -1.28 0
v -7.04 -1.28 0
v -7.68 -1.92 0
v -8.32 -1.92 0
v -8.32 -1.28 0
v -7.68 -1.28 0
v -8.32 -1.92 0
v -8.96 -1.92 0
v -8.96 -1.28 0
v -8.32 -1.28 0
v -8.96 -1.92 0
v -9.599999 -1.92 0
v -9.599999 -1.28 0
v -8.96 -1.28 0
v -9.599999 -1.92 0
v -10.24 -1.92 0
v -10.24 -1.28 0
v -9.599999 -1.28 0
v -3.84 -2.56 0
v -4.48 -2.56 0
v -4.48 -1.92 0
v -3.84 -1.92 0
v -4.48 -2.56 0
v -5.12 -2.56 0
v -5.12 -1.92 0
v -4.48 -1.92 0
v -5.12 -2.56 0
v -5.76 -2.56 0
v -5.76 -1.92 0
v -5.12 -1.92 0
v -5.76 -2.56 0
v -6.4 -2.56 0
v -6.4 -1.92 0
v -5.76 -1.92 0
v -6.4 -2.56 0
v -7.04 -2.56 0
v -7.04 -1.92 0
v -6.4 -1.92 0
v -7.04 -2.56 0
v -7.68 -2.56 0
v -7.68 -1.92 0
v -7.04 -1.92 0
v -7.68 -2.56 0
v -8.32 -2.56 0
v -8.32 -1.92 0
v -7.68 -1.92 0
v -8.32 -2.56 0
v -8.96 -2.56 0
v -8.96 -1.92 0
v -8.32 -1.92 0
v -8.96 -2.56 0
v -9.599999 -2.56 0
v -9.599999 -1.92 0
v -8.96 -1.92 0
v -9.599999 -2.56 0
v -10.24 -2.56 0
v -10.24 -1.92 0
v -9.599999 -1.92 0
v 0 -3.2 0
v -0.64 -3.2 0
v -0.64 -2.56 0
v 0 -2.56 0
v -3.84 -3.2 0
v -4.48 -3.2 0
v -4.48 -2.56 0
v -3.84 -2.56 0
v -4.48 -3.2 0
v -5.12 -3.2 0
v -5.12 -2.56 0
v -4.48 -2.56 0
v 0 -3.84 0
v -0.64 -3.84 0
v -0.64 -3.2 0
v 0 -3.2 0
v -3.84 -3.84 0
v -4.48 -3.84 0
v -4.48 -3.2 0
v -3.84 -3.2 0
v -4.48 -3.84 0
v -5.12 -3.84 0
v -5.12 -3.2 0
v -4.48 -3.2 0
v 0 -4.48 0
v -0.64 -4.48 0
v -0.64 -3.84 0
v 0 -3.84 0
v -3.84 -4.48 0
v -4.48 -4.48 0
v -4.48 -3.84 0
v -3.84 -3.84 0
v -4.48 -4.48 0
v -5.12 -4.48 0
v -5.12 -3.84 0
v -4.48 -3.84 0
v 0 -5.12 0
v -0.64 -5.12 0
v -0.64 -4.48 0
v 0 -4.48 0
v -3.84 -5.12 0
v -4.48 -5.12 0
v -4.48 -4.48 0
v -3.84 -4.48 0
v -4.48 -5.12 0
v -5.12 -5.12 0
v -5.12 -4.48 0
v -4.48 -4.48 0
v 0 -5.76 0
v -0.64 -5.76 0
v -0.64 -5.12 0
v 0 -5.12 0
v -3.84 -5.76 0
v -4.48 -5.76 0
v -4.48 -5.12 0
v -3.84 -5.12 0
v -4.48 -5.76 0
v -5.12 -5.76 0
v -5.12 -5.12 0
v -4.48 -5.12 0
v 0 -6.4 0
v -0.64 -6.4 0
v -0.64 -5.76 0
v 0 -5.76 0
v -3.84 -6.4 0
v -4.48 -6.4 0
v -4.48 -5.76 0
v -3.84 -5.76 0
v -4.48 -6.4 0
v -5.12 -6.4 0
v -5.12 -5.76 0
v -4.48 -5.76 0
v 0 -7.04 0
v -0.64 -7.04 0
v -0.64 -6.4 0
v 0 -6.4 0
v -3.84 -7.04 0
v -4.48 -7.04 0
v -4.48 -6.4 0
v -3.84 -6.4 0
v -4.48 -7.04 0
v -5.12 -7.04 0
v -5.12 -6.4 0
v -4.48 -6.4 0
v 0 -7.68 0
v -0.64 -7.68 0
v -0.64 -7.04 0
v 0 -7.04 0
v -3.84 -7.68 0
v -4.48 -7.68 0
v -4.48 -7.04 0
v -3.84 -7.04 0
v -4.48 -7.68 0
v -5.12 -7.68 0
v -5.12 -7.04 0
v -4.48 -7.04 0
v 0 -8.32 0
v -0.64 -8.32 0
v -0.64 -7.68 0
v 0 -7.68 0
v -3.84 -8.32 0
v -4.48 -8.32 0
v -4.48 -7.68 0
v -3.84 -7.68 0
v -4.48 -8.32 0
v -5.12 -8.32 0
v -5.12 -7.68 0
v -4.48 -7.68 0
v 0 -8.96 0
v -0.64 -8.96 0
v -0.64 -8.32 0
v 0 -8.32 0
v -3.84 -8.96 0
v -4.48 -8.96 0
v -4.48 -8.32 0
v -3.84 -8.32 0
v -4.48 -8.96 0
v -5.12 -8.96 0
v -5.12 -8.32 0
v -4.48 -8.32 0
v 0 -9.599999 0
v -0.64 -9.599999 0
v -0.64 -8.96 0
v 0 -8.96 0
v -3.84 -9.599999 0
v -4.48 -9.599999 0
v -4.48 -8.96 0
v -3.84 -8.96 0
v -4.48 -9.599999 0
v -5.12 -9.599999 0
v -5.12 -8.96 0
v -4.48 -8.96 0
v 0 -10.24 0
v -0.64 -10.24 0
v -0.64 -9.599999 0
v 0 -9.599999 0
v -3.84 -10.24 0
v -4.48 -10.24 0
v -4.48 -9.599999 0
v -3.84 -9.599999 0
v -4.48 -10.24 0
v -5.12 -10.24 0
v -5.12 -9.599999 0
v -4.48 -9.599999 0

# Texture cooridinates (Count = 15)
vt 0.1875 0.875
vt 0.21875 0.875
vt 0.21875 0.90625
vt 0.1875 0.90625
vt 0.25 0.875
vt 0.25 0.90625
vt 0.21875 0.9375
vt 0.1875 0.9375
vt 0.25 0.9375
vt 0.0625 0.875
vt 0.09375 0.875
vt 0.09375 0.90625
vt 0.0625 0.90625
vt 0.0625 0.84375
vt 0.09375 0.84375

# Normal
vn 0 0 -1

# Mesh description
g Test22_mesh_0009

# Faces
f 1/1/1 2/2/1 3/3/1 4/4/1
f 5/2/1 6/5/1 7/6/1 8/3/1
f 9/4/1 10/3/1 11/7/1 12/8/1
f 13/3/1 14/6/1 15/9/1 16/7/1
f 17/4/1 18/3/1 19/7/1 20/8/1
f 21/3/1 22/6/1 23/9/1 24/7/1
f 25/4/1 26/3/1 27/7/1 28/8/1
f 29/3/1 30/6/1 31/9/1 32/7/1
f 33/4/1 34/3/1 35/7/1 36/8/1
f 37/3/1 38/6/1 39/9/1 40/7/1
f 41/4/1 42/3/1 43/7/1 44/8/1
f 45/3/1 46/6/1 47/9/1 48/7/1
f 49/1/1 50/2/1 51/3/1 52/4/1
f 53/2/1 54/5/1 55/6/1 56/3/1
f 57/1/1 58/2/1 59/3/1 60/4/1
f 61/2/1 62/5/1 63/6/1 64/3/1
f 65/1/1 66/2/1 67/3/1 68/4/1
f 69/2/1 70/5/1 71/6/1 72/3/1
f 73/1/1 74/2/1 75/3/1 76/4/1
f 77/2/1 78/5/1 79/6/1 80/3/1
f 81/1/1 82/2/1 83/3/1 84/4/1
f 85/2/1 86/5/1 87/6/1 88/3/1
f 89/1/1 90/2/1 91/3/1 92/4/1
f 93/2/1 94/5/1 95/6/1 96/3/1
f 97/1/1 98/2/1 99/3/1 100/4/1
f 101/2/1 102/5/1 103/6/1 104/3/1
f 105/1/1 106/2/1 107/3/1 108/4/1
f 109/2/1 110/5/1 111/6/1 112/3/1
f 113/1/1 114/2/1 115/3/1 116/4/1
f 117/2/1 118/5/1 119/6/1 120/3/1
f 121/1/1 122/2/1 123/3/1 124/4/1
f 125/2/1 126/5/1 127/6/1 128/3/1
f 129/10/1 130/11/1 131/12/1 132/13/1
f 133/4/1 134/3/1 135/7/1 136/8/1
f 137/3/1 138/6/1 139/9/1 140/7/1
f 141/14/1 142/15/1 143/11/1 144/10/1
f 145/1/1 146/2/1 147/3/1 148/4/1
f 149/2/1 150/5/1 151/6/1 152/3/1
f 153/14/1 154/15/1 155/11/1 156/10/1
f 157/4/1 158/3/1 159/7/1 160/8/1
f 161/3/1 162/6/1 163/9/1 164/7/1
f 165/14/1 166/15/1 167/11/1 168/10/1
f 169/1/1 170/2/1 171/3/1 172/4/1
f 173/2/1 174/5/1 175/6/1 176/3/1
f 177/14/1 178/15/1 179/11/1 180/10/1
f 181/4/1 182/3/1 183/7/1 184/8/1
f 185/3/1 186/6/1 187/9/1 188/7/1
f 189/14/1 190/15/1 191/11/1 192/10/1
f 193/1/1 194/2/1 195/3/1 196/4/1
f 197/2/1 198/5/1 199/6/1 200/3/1
f 201/14/1 202/15/1 203/11/1 204/10/1
f 205/4/1 206/3/1 207/7/1 208/8/1
f 209/3/1 210/6/1 211/9/1 212/7/1
f 213/14/1 214/15/1 215/11/1 216/10/1
f 217/1/1 218/2/1 219/3/1 220/4/1
f 221/2/1 222/5/1 223/6/1 224/3/1
f 225/14/1 226/15/1 227/11/1 228/10/1
f 229/4/1 230/3/1 231/7/1 232/8/1
f 233/3/1 234/6/1 235/9/1 236/7/1
f 237/14/1 238/15/1 239/11/1 240/10/1
f 241/1/1 242/2/1 243/3/1 244/4/1
f 245/2/1 246/5/1 247/6/1 248/3/1
f 249/14/1 250/15/1 251/11/1 252/10/1
f 253/4/1 254/3/1 255/7/1 256/8/1
f 257/3/1 258/6/1 259/9/1 260/7/1
f 261/14/1 262/15/1 263/11/1 264/10/1
f 265/1/1 266/2/1 267/3/1 268/4/1
f 269/2/1 270/5/1 271/6/1 272/3/1

