# Tiled2Unity generated file. Do not modify by hand.
# Wavefront file for 'Test22_mesh_0173.obj'

# Vertices (Count = 88)
v -1.28 -1.28 0
v -1.92 -1.28 0
v -1.92 -0.64 0
v -1.28 -0.64 0
v 0 -1.92 0
v -0.64 -1.92 0
v -0.64 -1.28 0
v 0 -1.28 0
v -0.64 -1.92 0
v -1.28 -1.92 0
v -1.28 -1.28 0
v -0.64 -1.28 0
v -1.28 -1.92 0
v -1.92 -1.92 0
v -1.92 -1.28 0
v -1.28 -1.28 0
v 0 -2.56 0
v -0.64 -2.56 0
v -0.64 -1.92 0
v 0 -1.92 0
v -0.64 -2.56 0
v -1.28 -2.56 0
v -1.28 -1.92 0
v -0.64 -1.92 0
v -1.28 -2.56 0
v -1.92 -2.56 0
v -1.92 -1.92 0
v -1.28 -1.92 0
v 0 -3.2 0
v -0.64 -3.2 0
v -0.64 -2.56 0
v 0 -2.56 0
v -0.64 -3.2 0
v -1.28 -3.2 0
v -1.28 -2.56 0
v -0.64 -2.56 0
v -1.28 -3.2 0
v -1.92 -3.2 0
v -1.92 -2.56 0
v -1.28 -2.56 0
v 0 -3.84 0
v -0.64 -3.84 0
v -0.64 -3.2 0
v 0 -3.2 0
v -0.64 -3.84 0
v -1.28 -3.84 0
v -1.28 -3.2 0
v -0.64 -3.2 0
v -1.28 -3.84 0
v -1.92 -3.84 0
v -1.92 -3.2 0
v -1.28 -3.2 0
v 0 -4.48 0
v -0.64 -4.48 0
v -0.64 -3.84 0
v 0 -3.84 0
v -0.64 -4.48 0
v -1.28 -4.48 0
v -1.28 -3.84 0
v -0.64 -3.84 0
v -1.28 -4.48 0
v -1.92 -4.48 0
v -1.92 -3.84 0
v -1.28 -3.84 0
v 0 -5.12 0
v -0.64 -5.12 0
v -0.64 -4.48 0
v 0 -4.48 0
v -0.64 -5.12 0
v -1.28 -5.12 0
v -1.28 -4.48 0
v -0.64 -4.48 0
v -1.28 -5.12 0
v -1.92 -5.12 0
v -1.92 -4.48 0
v -1.28 -4.48 0
v 0 -5.76 0
v -0.64 -5.76 0
v -0.64 -5.12 0
v 0 -5.12 0
v -0.64 -5.76 0
v -1.28 -5.76 0
v -1.28 -5.12 0
v -0.64 -5.12 0
v -1.28 -5.76 0
v -1.92 -5.76 0
v -1.92 -5.12 0
v -1.28 -5.12 0

# Texture cooridinates (Count = 16)
vt 0.1875 0.1428571
vt 0.25 0.1428571
vt 0.25 0.1785714
vt 0.1875 0.1785714
vt 0 0.1071429
vt 0.0625 0.1071429
vt 0.0625 0.1428571
vt 0 0.1428571
vt 0.1875 0.1071429
vt 0.25 0.1071429
vt 0 0.0714286
vt 0.0625 0.0714286
vt 0.1875 0.0714286
vt 0.25 0.0714286
vt 0.1875 0.03571427
vt 0.25 0.03571427

# Normal
vn 0 0 -1

# Mesh description
g Test22_mesh_0173

# Faces
f 1/1/1 2/2/1 3/3/1 4/4/1
f 5/5/1 6/6/1 7/7/1 8/8/1
f 9/5/1 10/6/1 11/7/1 12/8/1
f 13/9/1 14/10/1 15/2/1 16/1/1
f 17/11/1 18/12/1 19/6/1 20/5/1
f 21/11/1 22/12/1 23/6/1 24/5/1
f 25/13/1 26/14/1 27/10/1 28/9/1
f 29/11/1 30/12/1 31/6/1 32/5/1
f 33/11/1 34/12/1 35/6/1 36/5/1
f 37/13/1 38/14/1 39/10/1 40/9/1
f 41/5/1 42/6/1 43/7/1 44/8/1
f 45/5/1 46/6/1 47/7/1 48/8/1
f 49/9/1 50/10/1 51/2/1 52/1/1
f 53/11/1 54/12/1 55/6/1 56/5/1
f 57/11/1 58/12/1 59/6/1 60/5/1
f 61/13/1 62/14/1 63/10/1 64/9/1
f 65/5/1 66/6/1 67/7/1 68/8/1
f 69/11/1 70/12/1 71/6/1 72/5/1
f 73/15/1 74/16/1 75/14/1 76/13/1
f 77/11/1 78/12/1 79/6/1 80/5/1
f 81/11/1 82/12/1 83/6/1 84/5/1
f 85/13/1 86/14/1 87/10/1 88/9/1

