# Tiled2Unity generated file. Do not modify by hand.
# Wavefront file for 'Test22_mesh_0217.obj'

# Vertices (Count = 24)
v -4.48 -7.04 0
v -5.12 -7.04 0
v -5.12 -6.4 0
v -4.48 -6.4 0
v -5.12 -7.04 0
v -5.76 -7.04 0
v -5.76 -6.4 0
v -5.12 -6.4 0
v -4.48 -7.68 0
v -5.12 -7.68 0
v -5.12 -7.04 0
v -4.48 -7.04 0
v -5.12 -7.68 0
v -5.76 -7.68 0
v -5.76 -7.04 0
v -5.12 -7.04 0
v -4.48 -8.32 0
v -5.12 -8.32 0
v -5.12 -7.68 0
v -4.48 -7.68 0
v -5.12 -8.32 0
v -5.76 -8.32 0
v -5.76 -7.68 0
v -5.12 -7.68 0

# Texture cooridinates (Count = 8)
vt 0.6666667 0
vt 0.6666667 0.08333331
vt 0.5 0.08333331
vt 0.5 0
vt 0.8333333 0
vt 0.8333333 0.08333331
vt 1 0
vt 1 0.08333331

# Normal
vn 0 0 -1

# Mesh description
g Test22_mesh_0217

# Faces
f 1/1/1 2/2/1 3/3/1 4/4/1
f 5/1/1 6/2/1 7/3/1 8/4/1
f 9/5/1 10/6/1 11/2/1 12/1/1
f 13/5/1 14/6/1 15/2/1 16/1/1
f 17/7/1 18/8/1 19/6/1 20/5/1
f 21/7/1 22/8/1 23/6/1 24/5/1

