# Tiled2Unity generated file. Do not modify by hand.
# Wavefront file for 'Test22_mesh_0347.obj'

# Vertices (Count = 8)
v -9.599999 -9.599999 0
v -10.24 -9.599999 0
v -10.24 -8.96 0
v -9.599999 -8.96 0
v -9.599999 -10.24 0
v -10.24 -10.24 0
v -10.24 -9.599999 0
v -9.599999 -9.599999 0

# Texture cooridinates (Count = 6)
vt 0.25 0.3
vt 0.375 0.3
vt 0.375 0.4
vt 0.25 0.4
vt 0.25 0.2
vt 0.375 0.2

# Normal
vn 0 0 -1

# Mesh description
g Test22_mesh_0347

# Faces
f 1/1/1 2/2/1 3/3/1 4/4/1
f 5/5/1 6/6/1 7/2/1 8/1/1

