# Tiled2Unity generated file. Do not modify by hand.
# Wavefront file for 'Test22_mesh_0194.obj'

# Vertices (Count = 8)
v -3.2 -0.64 0
v -3.84 -0.64 0
v -3.84 0 0
v -3.2 0 0
v -3.2 -1.28 0
v -3.84 -1.28 0
v -3.84 -0.64 0
v -3.2 -0.64 0

# Texture cooridinates (Count = 6)
vt 0.125 0.03333336
vt 0.1666667 0.03333336
vt 0.1666667 0.06666666
vt 0.125 0.06666666
vt 0.125 0
vt 0.1666667 0

# Normal
vn 0 0 -1

# Mesh description
g Test22_mesh_0194

# Faces
f 1/1/1 2/2/1 3/3/1 4/4/1
f 5/5/1 6/6/1 7/2/1 8/1/1

