# Tiled2Unity generated file. Do not modify by hand.
# Wavefront file for 'Test22_mesh_0315.obj'

# Vertices (Count = 24)
v 0 -9.599999 0
v -0.64 -9.599999 0
v -0.64 -8.96 0
v 0 -8.96 0
v -0.64 -9.599999 0
v -1.28 -9.599999 0
v -1.28 -8.96 0
v -0.64 -8.96 0
v -1.28 -9.599999 0
v -1.92 -9.599999 0
v -1.92 -8.96 0
v -1.28 -8.96 0
v 0 -10.24 0
v -0.64 -10.24 0
v -0.64 -9.599999 0
v 0 -9.599999 0
v -0.64 -10.24 0
v -1.28 -10.24 0
v -1.28 -9.599999 0
v -0.64 -9.599999 0
v -1.28 -10.24 0
v -1.92 -10.24 0
v -1.92 -9.599999 0
v -1.28 -9.599999 0

# Texture cooridinates (Count = 9)
vt 0.375 0.46875
vt 0.40625 0.46875
vt 0.40625 0.5
vt 0.375 0.5
vt 0.4375 0.46875
vt 0.4375 0.5
vt 0.375 0.4375
vt 0.40625 0.4375
vt 0.4375 0.4375

# Normal
vn 0 0 -1

# Mesh description
g Test22_mesh_0315

# Faces
f 1/1/1 2/2/1 3/3/1 4/4/1
f 5/2/1 6/5/1 7/6/1 8/3/1
f 9/1/1 10/2/1 11/3/1 12/4/1
f 13/7/1 14/8/1 15/2/1 16/1/1
f 17/8/1 18/9/1 19/5/1 20/2/1
f 21/7/1 22/8/1 23/2/1 24/1/1

