# Tiled2Unity generated file. Do not modify by hand.
# Wavefront file for 'Test22_mesh_0324.obj'

# Vertices (Count = 24)
v -8.32 -4.48 0
v -8.96 -4.48 0
v -8.96 -3.84 0
v -8.32 -3.84 0
v -8.96 -4.48 0
v -9.599999 -4.48 0
v -9.599999 -3.84 0
v -8.96 -3.84 0
v -9.599999 -4.48 0
v -10.24 -4.48 0
v -10.24 -3.84 0
v -9.599999 -3.84 0
v -8.32 -5.12 0
v -8.96 -5.12 0
v -8.96 -4.48 0
v -8.32 -4.48 0
v -8.96 -5.12 0
v -9.599999 -5.12 0
v -9.599999 -4.48 0
v -8.96 -4.48 0
v -9.599999 -5.12 0
v -10.24 -5.12 0
v -10.24 -4.48 0
v -9.599999 -4.48 0

# Texture cooridinates (Count = 12)
vt 0.2 0.125
vt 0.3 0.125
vt 0.3 0.25
vt 0.2 0.25
vt 0.4 0.125
vt 0.4 0.25
vt 0.5 0.125
vt 0.5 0.25
vt 0.2 0
vt 0.3 0
vt 0.4 0
vt 0.5 0

# Normal
vn 0 0 -1

# Mesh description
g Test22_mesh_0324

# Faces
f 1/1/1 2/2/1 3/3/1 4/4/1
f 5/2/1 6/5/1 7/6/1 8/3/1
f 9/5/1 10/7/1 11/8/1 12/6/1
f 13/9/1 14/10/1 15/2/1 16/1/1
f 17/10/1 18/11/1 19/5/1 20/2/1
f 21/11/1 22/12/1 23/7/1 24/5/1

