# Tiled2Unity generated file. Do not modify by hand.
# Wavefront file for 'Test22_mesh_0364.obj'

# Vertices (Count = 24)
v -5.12 -5.76 0
v -5.76 -5.76 0
v -5.76 -5.12 0
v -5.12 -5.12 0
v -5.76 -5.76 0
v -6.4 -5.76 0
v -6.4 -5.12 0
v -5.76 -5.12 0
v -5.12 -6.4 0
v -5.76 -6.4 0
v -5.76 -5.76 0
v -5.12 -5.76 0
v -5.76 -6.4 0
v -6.4 -6.4 0
v -6.4 -5.76 0
v -5.76 -5.76 0
v -5.12 -7.04 0
v -5.76 -7.04 0
v -5.76 -6.4 0
v -5.12 -6.4 0
v -5.76 -7.04 0
v -6.4 -7.04 0
v -6.4 -6.4 0
v -5.76 -6.4 0

# Texture cooridinates (Count = 12)
vt 0 0.3125
vt 0.03846154 0.3125
vt 0.03846154 0.375
vt 0 0.375
vt 0.07692308 0.3125
vt 0.07692308 0.375
vt 0 0.25
vt 0.03846154 0.25
vt 0.07692308 0.25
vt 0 0.1875
vt 0.03846154 0.1875
vt 0.07692308 0.1875

# Normal
vn 0 0 -1

# Mesh description
g Test22_mesh_0364

# Faces
f 1/1/1 2/2/1 3/3/1 4/4/1
f 5/2/1 6/5/1 7/6/1 8/3/1
f 9/7/1 10/8/1 11/2/1 12/1/1
f 13/8/1 14/9/1 15/5/1 16/2/1
f 17/10/1 18/11/1 19/8/1 20/7/1
f 21/11/1 22/12/1 23/9/1 24/8/1

