# Tiled2Unity generated file. Do not modify by hand.
# Wavefront file for 'Test22_mesh_0284.obj'

# Vertices (Count = 32)
v -5.76 -3.2 0
v -6.4 -3.2 0
v -6.4 -2.56 0
v -5.76 -2.56 0
v -6.4 -3.2 0
v -7.04 -3.2 0
v -7.04 -2.56 0
v -6.4 -2.56 0
v -7.04 -3.2 0
v -7.68 -3.2 0
v -7.68 -2.56 0
v -7.04 -2.56 0
v -7.68 -3.2 0
v -8.32 -3.2 0
v -8.32 -2.56 0
v -7.68 -2.56 0
v -5.76 -3.84 0
v -6.4 -3.84 0
v -6.4 -3.2 0
v -5.76 -3.2 0
v -6.4 -3.84 0
v -7.04 -3.84 0
v -7.04 -3.2 0
v -6.4 -3.2 0
v -7.04 -3.84 0
v -7.68 -3.84 0
v -7.68 -3.2 0
v -7.04 -3.2 0
v -7.68 -3.84 0
v -8.32 -3.84 0
v -8.32 -3.2 0
v -7.68 -3.2 0

# Texture cooridinates (Count = 24)
vt 0.65 0.6
vt 0.65 0.65
vt 0.6 0.65
vt 0.6 0.6
vt 0.7 0.85
vt 0.75 0.85
vt 0.75 0.9
vt 0.7 0.9
vt 0.8 0.85
vt 0.8 0.9
vt 0.85 0.65
vt 0.85 0.6
vt 0.9 0.6
vt 0.9 0.65
vt 0.6 0.9
vt 0.6 0.85
vt 0.65 0.85
vt 0.65 0.9
vt 0.7 0.6
vt 0.75 0.6
vt 0.75 0.65
vt 0.7 0.65
vt 0.8 0.6
vt 0.8 0.65

# Normal
vn 0 0 -1

# Mesh description
g Test22_mesh_0284

# Faces
f 1/1/1 2/2/1 3/3/1 4/4/1
f 5/5/1 6/6/1 7/7/1 8/8/1
f 9/6/1 10/9/1 11/10/1 12/7/1
f 13/11/1 14/12/1 15/13/1 16/14/1
f 17/15/1 18/16/1 19/17/1 20/18/1
f 21/19/1 22/20/1 23/21/1 24/22/1
f 25/20/1 26/23/1 27/24/1 28/21/1
f 29/3/1 30/4/1 31/1/1 32/2/1

