# Tiled2Unity generated file. Do not modify by hand.
# Wavefront file for 'Test22_mesh_0086.obj'

# Vertices (Count = 128)
v -7.04 -0.64 0
v -7.68 -0.64 0
v -7.68 0 0
v -7.04 0 0
v -7.68 -0.64 0
v -8.32 -0.64 0
v -8.32 0 0
v -7.68 0 0
v -7.04 -1.28 0
v -7.68 -1.28 0
v -7.68 -0.64 0
v -7.04 -0.64 0
v -7.68 -1.28 0
v -8.32 -1.28 0
v -8.32 -0.64 0
v -7.68 -0.64 0
v -7.04 -1.92 0
v -7.68 -1.92 0
v -7.68 -1.28 0
v -7.04 -1.28 0
v -7.68 -1.92 0
v -8.32 -1.92 0
v -8.32 -1.28 0
v -7.68 -1.28 0
v -7.04 -2.56 0
v -7.68 -2.56 0
v -7.68 -1.92 0
v -7.04 -1.92 0
v -7.68 -2.56 0
v -8.32 -2.56 0
v -8.32 -1.92 0
v -7.68 -1.92 0
v -7.04 -3.2 0
v -7.68 -3.2 0
v -7.68 -2.56 0
v -7.04 -2.56 0
v -7.68 -3.2 0
v -8.32 -3.2 0
v -8.32 -2.56 0
v -7.68 -2.56 0
v -7.04 -3.84 0
v -7.68 -3.84 0
v -7.68 -3.2 0
v -7.04 -3.2 0
v -7.68 -3.84 0
v -8.32 -3.84 0
v -8.32 -3.2 0
v -7.68 -3.2 0
v -7.04 -4.48 0
v -7.68 -4.48 0
v -7.68 -3.84 0
v -7.04 -3.84 0
v -7.68 -4.48 0
v -8.32 -4.48 0
v -8.32 -3.84 0
v -7.68 -3.84 0
v -7.04 -5.12 0
v -7.68 -5.12 0
v -7.68 -4.48 0
v -7.04 -4.48 0
v -7.68 -5.12 0
v -8.32 -5.12 0
v -8.32 -4.48 0
v -7.68 -4.48 0
v -7.04 -5.76 0
v -7.68 -5.76 0
v -7.68 -5.12 0
v -7.04 -5.12 0
v -7.68 -5.76 0
v -8.32 -5.76 0
v -8.32 -5.12 0
v -7.68 -5.12 0
v -7.04 -6.4 0
v -7.68 -6.4 0
v -7.68 -5.76 0
v -7.04 -5.76 0
v -7.68 -6.4 0
v -8.32 -6.4 0
v -8.32 -5.76 0
v -7.68 -5.76 0
v -7.04 -7.04 0
v -7.68 -7.04 0
v -7.68 -6.4 0
v -7.04 -6.4 0
v -7.68 -7.04 0
v -8.32 -7.04 0
v -8.32 -6.4 0
v -7.68 -6.4 0
v -7.04 -7.68 0
v -7.68 -7.68 0
v -7.68 -7.04 0
v -7.04 -7.04 0
v -7.68 -7.68 0
v -8.32 -7.68 0
v -8.32 -7.04 0
v -7.68 -7.04 0
v -7.04 -8.32 0
v -7.68 -8.32 0
v -7.68 -7.68 0
v -7.04 -7.68 0
v -7.68 -8.32 0
v -8.32 -8.32 0
v -8.32 -7.68 0
v -7.68 -7.68 0
v -7.04 -8.96 0
v -7.68 -8.96 0
v -7.68 -8.32 0
v -7.04 -8.32 0
v -7.68 -8.96 0
v -8.32 -8.96 0
v -8.32 -8.32 0
v -7.68 -8.32 0
v -7.04 -9.599999 0
v -7.68 -9.599999 0
v -7.68 -8.96 0
v -7.04 -8.96 0
v -7.68 -9.599999 0
v -8.32 -9.599999 0
v -8.32 -8.96 0
v -7.68 -8.96 0
v -7.04 -10.24 0
v -7.68 -10.24 0
v -7.68 -9.599999 0
v -7.04 -9.599999 0
v -7.68 -10.24 0
v -8.32 -10.24 0
v -8.32 -9.599999 0
v -7.68 -9.599999 0

# Texture cooridinates (Count = 6)
vt 0.1666667 0.7666667
vt 0.2083333 0.7666667
vt 0.2083333 0.8
vt 0.1666667 0.8
vt 0.25 0.7666667
vt 0.25 0.8

# Normal
vn 0 0 -1

# Mesh description
g Test22_mesh_0086

# Faces
f 1/1/1 2/2/1 3/3/1 4/4/1
f 5/2/1 6/5/1 7/6/1 8/3/1
f 9/1/1 10/2/1 11/3/1 12/4/1
f 13/2/1 14/5/1 15/6/1 16/3/1
f 17/1/1 18/2/1 19/3/1 20/4/1
f 21/2/1 22/5/1 23/6/1 24/3/1
f 25/1/1 26/2/1 27/3/1 28/4/1
f 29/2/1 30/5/1 31/6/1 32/3/1
f 33/1/1 34/2/1 35/3/1 36/4/1
f 37/2/1 38/5/1 39/6/1 40/3/1
f 41/1/1 42/2/1 43/3/1 44/4/1
f 45/2/1 46/5/1 47/6/1 48/3/1
f 49/1/1 50/2/1 51/3/1 52/4/1
f 53/2/1 54/5/1 55/6/1 56/3/1
f 57/1/1 58/2/1 59/3/1 60/4/1
f 61/2/1 62/5/1 63/6/1 64/3/1
f 65/1/1 66/2/1 67/3/1 68/4/1
f 69/2/1 70/5/1 71/6/1 72/3/1
f 73/1/1 74/2/1 75/3/1 76/4/1
f 77/2/1 78/5/1 79/6/1 80/3/1
f 81/1/1 82/2/1 83/3/1 84/4/1
f 85/2/1 86/5/1 87/6/1 88/3/1
f 89/1/1 90/2/1 91/3/1 92/4/1
f 93/2/1 94/5/1 95/6/1 96/3/1
f 97/1/1 98/2/1 99/3/1 100/4/1
f 101/2/1 102/5/1 103/6/1 104/3/1
f 105/1/1 106/2/1 107/3/1 108/4/1
f 109/2/1 110/5/1 111/6/1 112/3/1
f 113/1/1 114/2/1 115/3/1 116/4/1
f 117/2/1 118/5/1 119/6/1 120/3/1
f 121/1/1 122/2/1 123/3/1 124/4/1
f 125/2/1 126/5/1 127/6/1 128/3/1

