# Tiled2Unity generated file. Do not modify by hand.
# Wavefront file for 'Test22_mesh_0202.obj'

# Vertices (Count = 12)
v -9.599999 -2.56 0
v -10.24 -2.56 0
v -10.24 -1.92 0
v -9.599999 -1.92 0
v -9.599999 -3.2 0
v -10.24 -3.2 0
v -10.24 -2.56 0
v -9.599999 -2.56 0
v -9.599999 -3.84 0
v -10.24 -3.84 0
v -10.24 -3.2 0
v -9.599999 -3.2 0

# Texture cooridinates (Count = 10)
vt 0.25 0.5625
vt 0.28125 0.5625
vt 0.28125 0.59375
vt 0.25 0.59375
vt 0.3125 0.53125
vt 0.34375 0.53125
vt 0.34375 0.5625
vt 0.3125 0.5625
vt 0.3125 0.5
vt 0.34375 0.5

# Normal
vn 0 0 -1

# Mesh description
g Test22_mesh_0202

# Faces
f 1/1/1 2/2/1 3/3/1 4/4/1
f 5/5/1 6/6/1 7/7/1 8/8/1
f 9/9/1 10/10/1 11/6/1 12/5/1

