# Tiled2Unity generated file. Do not modify by hand.
# Wavefront file for 'Test22_mesh_0030.obj'

# Vertices (Count = 592)
v -1.92 -1.92 0
v -2.56 -1.92 0
v -2.56 -1.28 0
v -1.92 -1.28 0
v -2.56 -1.92 0
v -3.2 -1.92 0
v -3.2 -1.28 0
v -2.56 -1.28 0
v -3.2 -1.92 0
v -3.84 -1.92 0
v -3.84 -1.28 0
v -3.2 -1.28 0
v -3.84 -1.92 0
v -4.48 -1.92 0
v -4.48 -1.28 0
v -3.84 -1.28 0
v -4.48 -1.92 0
v -5.12 -1.92 0
v -5.12 -1.28 0
v -4.48 -1.28 0
v -5.12 -1.92 0
v -5.76 -1.92 0
v -5.76 -1.28 0
v -5.12 -1.28 0
v -5.76 -1.92 0
v -6.4 -1.92 0
v -6.4 -1.28 0
v -5.76 -1.28 0
v -6.4 -1.92 0
v -7.04 -1.92 0
v -7.04 -1.28 0
v -6.4 -1.28 0
v -7.04 -1.92 0
v -7.68 -1.92 0
v -7.68 -1.28 0
v -7.04 -1.28 0
v -7.68 -1.92 0
v -8.32 -1.92 0
v -8.32 -1.28 0
v -7.68 -1.28 0
v -8.32 -1.92 0
v -8.96 -1.92 0
v -8.96 -1.28 0
v -8.32 -1.28 0
v -8.96 -1.92 0
v -9.599999 -1.92 0
v -9.599999 -1.28 0
v -8.96 -1.28 0
v -9.599999 -1.92 0
v -10.24 -1.92 0
v -10.24 -1.28 0
v -9.599999 -1.28 0
v -1.92 -2.56 0
v -2.56 -2.56 0
v -2.56 -1.92 0
v -1.92 -1.92 0
v -2.56 -2.56 0
v -3.2 -2.56 0
v -3.2 -1.92 0
v -2.56 -1.92 0
v -3.2 -2.56 0
v -3.84 -2.56 0
v -3.84 -1.92 0
v -3.2 -1.92 0
v -3.84 -2.56 0
v -4.48 -2.56 0
v -4.48 -1.92 0
v -3.84 -1.92 0
v -4.48 -2.56 0
v -5.12 -2.56 0
v -5.12 -1.92 0
v -4.48 -1.92 0
v -5.12 -2.56 0
v -5.76 -2.56 0
v -5.76 -1.92 0
v -5.12 -1.92 0
v -5.76 -2.56 0
v -6.4 -2.56 0
v -6.4 -1.92 0
v -5.76 -1.92 0
v -6.4 -2.56 0
v -7.04 -2.56 0
v -7.04 -1.92 0
v -6.4 -1.92 0
v -7.04 -2.56 0
v -7.68 -2.56 0
v -7.68 -1.92 0
v -7.04 -1.92 0
v -7.68 -2.56 0
v -8.32 -2.56 0
v -8.32 -1.92 0
v -7.68 -1.92 0
v -8.32 -2.56 0
v -8.96 -2.56 0
v -8.96 -1.92 0
v -8.32 -1.92 0
v -8.96 -2.56 0
v -9.599999 -2.56 0
v -9.599999 -1.92 0
v -8.96 -1.92 0
v -9.599999 -2.56 0
v -10.24 -2.56 0
v -10.24 -1.92 0
v -9.599999 -1.92 0
v -1.92 -3.2 0
v -2.56 -3.2 0
v -2.56 -2.56 0
v -1.92 -2.56 0
v -2.56 -3.2 0
v -3.2 -3.2 0
v -3.2 -2.56 0
v -2.56 -2.56 0
v -1.92 -3.84 0
v -2.56 -3.84 0
v -2.56 -3.2 0
v -1.92 -3.2 0
v -2.56 -3.84 0
v -3.2 -3.84 0
v -3.2 -3.2 0
v -2.56 -3.2 0
v -1.92 -4.48 0
v -2.56 -4.48 0
v -2.56 -3.84 0
v -1.92 -3.84 0
v -2.56 -4.48 0
v -3.2 -4.48 0
v -3.2 -3.84 0
v -2.56 -3.84 0
v -1.92 -5.12 0
v -2.56 -5.12 0
v -2.56 -4.48 0
v -1.92 -4.48 0
v -2.56 -5.12 0
v -3.2 -5.12 0
v -3.2 -4.48 0
v -2.56 -4.48 0
v -1.92 -5.76 0
v -2.56 -5.76 0
v -2.56 -5.12 0
v -1.92 -5.12 0
v -2.56 -5.76 0
v -3.2 -5.76 0
v -3.2 -5.12 0
v -2.56 -5.12 0
v 0 -6.4 0
v -0.64 -6.4 0
v -0.64 -5.76 0
v 0 -5.76 0
v -0.64 -6.4 0
v -1.28 -6.4 0
v -1.28 -5.76 0
v -0.64 -5.76 0
v -1.28 -6.4 0
v -1.92 -6.4 0
v -1.92 -5.76 0
v -1.28 -5.76 0
v -1.92 -6.4 0
v -2.56 -6.4 0
v -2.56 -5.76 0
v -1.92 -5.76 0
v -2.56 -6.4 0
v -3.2 -6.4 0
v -3.2 -5.76 0
v -2.56 -5.76 0
v -3.2 -6.4 0
v -3.84 -6.4 0
v -3.84 -5.76 0
v -3.2 -5.76 0
v -3.84 -6.4 0
v -4.48 -6.4 0
v -4.48 -5.76 0
v -3.84 -5.76 0
v -4.48 -6.4 0
v -5.12 -6.4 0
v -5.12 -5.76 0
v -4.48 -5.76 0
v -5.12 -6.4 0
v -5.76 -6.4 0
v -5.76 -5.76 0
v -5.12 -5.76 0
v -5.76 -6.4 0
v -6.4 -6.4 0
v -6.4 -5.76 0
v -5.76 -5.76 0
v -6.4 -6.4 0
v -7.04 -6.4 0
v -7.04 -5.76 0
v -6.4 -5.76 0
v -7.04 -6.4 0
v -7.68 -6.4 0
v -7.68 -5.76 0
v -7.04 -5.76 0
v -7.68 -6.4 0
v -8.32 -6.4 0
v -8.32 -5.76 0
v -7.68 -5.76 0
v -8.32 -6.4 0
v -8.96 -6.4 0
v -8.96 -5.76 0
v -8.32 -5.76 0
v -8.96 -6.4 0
v -9.599999 -6.4 0
v -9.599999 -5.76 0
v -8.96 -5.76 0
v -9.599999 -6.4 0
v -10.24 -6.4 0
v -10.24 -5.76 0
v -9.599999 -5.76 0
v 0 -7.04 0
v -0.64 -7.04 0
v -0.64 -6.4 0
v 0 -6.4 0
v -0.64 -7.04 0
v -1.28 -7.04 0
v -1.28 -6.4 0
v -0.64 -6.4 0
v -1.28 -7.04 0
v -1.92 -7.04 0
v -1.92 -6.4 0
v -1.28 -6.4 0
v -1.92 -7.04 0
v -2.56 -7.04 0
v -2.56 -6.4 0
v -1.92 -6.4 0
v -2.56 -7.04 0
v -3.2 -7.04 0
v -3.2 -6.4 0
v -2.56 -6.4 0
v -3.2 -7.04 0
v -3.84 -7.04 0
v -3.84 -6.4 0
v -3.2 -6.4 0
v -3.84 -7.04 0
v -4.48 -7.04 0
v -4.48 -6.4 0
v -3.84 -6.4 0
v -4.48 -7.04 0
v -5.12 -7.04 0
v -5.12 -6.4 0
v -4.48 -6.4 0
v -5.12 -7.04 0
v -5.76 -7.04 0
v -5.76 -6.4 0
v -5.12 -6.4 0
v -5.76 -7.04 0
v -6.4 -7.04 0
v -6.4 -6.4 0
v -5.76 -6.4 0
v -6.4 -7.04 0
v -7.04 -7.04 0
v -7.04 -6.4 0
v -6.4 -6.4 0
v -7.04 -7.04 0
v -7.68 -7.04 0
v -7.68 -6.4 0
v -7.04 -6.4 0
v -7.68 -7.04 0
v -8.32 -7.04 0
v -8.32 -6.4 0
v -7.68 -6.4 0
v -8.32 -7.04 0
v -8.96 -7.04 0
v -8.96 -6.4 0
v -8.32 -6.4 0
v -8.96 -7.04 0
v -9.599999 -7.04 0
v -9.599999 -6.4 0
v -8.96 -6.4 0
v -9.599999 -7.04 0
v -10.24 -7.04 0
v -10.24 -6.4 0
v -9.599999 -6.4 0
v 0 -7.68 0
v -0.64 -7.68 0
v -0.64 -7.04 0
v 0 -7.04 0
v -0.64 -7.68 0
v -1.28 -7.68 0
v -1.28 -7.04 0
v -0.64 -7.04 0
v -1.28 -7.68 0
v -1.92 -7.68 0
v -1.92 -7.04 0
v -1.28 -7.04 0
v -1.92 -7.68 0
v -2.56 -7.68 0
v -2.56 -7.04 0
v -1.92 -7.04 0
v -2.56 -7.68 0
v -3.2 -7.68 0
v -3.2 -7.04 0
v -2.56 -7.04 0
v -3.2 -7.68 0
v -3.84 -7.68 0
v -3.84 -7.04 0
v -3.2 -7.04 0
v -3.84 -7.68 0
v -4.48 -7.68 0
v -4.48 -7.04 0
v -3.84 -7.04 0
v -4.48 -7.68 0
v -5.12 -7.68 0
v -5.12 -7.04 0
v -4.48 -7.04 0
v -5.12 -7.68 0
v -5.76 -7.68 0
v -5.76 -7.04 0
v -5.12 -7.04 0
v -5.76 -7.68 0
v -6.4 -7.68 0
v -6.4 -7.04 0
v -5.76 -7.04 0
v -6.4 -7.68 0
v -7.04 -7.68 0
v -7.04 -7.04 0
v -6.4 -7.04 0
v -7.04 -7.68 0
v -7.68 -7.68 0
v -7.68 -7.04 0
v -7.04 -7.04 0
v -7.68 -7.68 0
v -8.32 -7.68 0
v -8.32 -7.04 0
v -7.68 -7.04 0
v -8.32 -7.68 0
v -8.96 -7.68 0
v -8.96 -7.04 0
v -8.32 -7.04 0
v -8.96 -7.68 0
v -9.599999 -7.68 0
v -9.599999 -7.04 0
v -8.96 -7.04 0
v -9.599999 -7.68 0
v -10.24 -7.68 0
v -10.24 -7.04 0
v -9.599999 -7.04 0
v 0 -8.32 0
v -0.64 -8.32 0
v -0.64 -7.68 0
v 0 -7.68 0
v -0.64 -8.32 0
v -1.28 -8.32 0
v -1.28 -7.68 0
v -0.64 -7.68 0
v -1.28 -8.32 0
v -1.92 -8.32 0
v -1.92 -7.68 0
v -1.28 -7.68 0
v -1.92 -8.32 0
v -2.56 -8.32 0
v -2.56 -7.68 0
v -1.92 -7.68 0
v -2.56 -8.32 0
v -3.2 -8.32 0
v -3.2 -7.68 0
v -2.56 -7.68 0
v -3.2 -8.32 0
v -3.84 -8.32 0
v -3.84 -7.68 0
v -3.2 -7.68 0
v -3.84 -8.32 0
v -4.48 -8.32 0
v -4.48 -7.68 0
v -3.84 -7.68 0
v -4.48 -8.32 0
v -5.12 -8.32 0
v -5.12 -7.68 0
v -4.48 -7.68 0
v -5.12 -8.32 0
v -5.76 -8.32 0
v -5.76 -7.68 0
v -5.12 -7.68 0
v -5.76 -8.32 0
v -6.4 -8.32 0
v -6.4 -7.68 0
v -5.76 -7.68 0
v -6.4 -8.32 0
v -7.04 -8.32 0
v -7.04 -7.68 0
v -6.4 -7.68 0
v -7.04 -8.32 0
v -7.68 -8.32 0
v -7.68 -7.68 0
v -7.04 -7.68 0
v -7.68 -8.32 0
v -8.32 -8.32 0
v -8.32 -7.68 0
v -7.68 -7.68 0
v -8.32 -8.32 0
v -8.96 -8.32 0
v -8.96 -7.68 0
v -8.32 -7.68 0
v -8.96 -8.32 0
v -9.599999 -8.32 0
v -9.599999 -7.68 0
v -8.96 -7.68 0
v -9.599999 -8.32 0
v -10.24 -8.32 0
v -10.24 -7.68 0
v -9.599999 -7.68 0
v 0 -8.96 0
v -0.64 -8.96 0
v -0.64 -8.32 0
v 0 -8.32 0
v -0.64 -8.96 0
v -1.28 -8.96 0
v -1.28 -8.32 0
v -0.64 -8.32 0
v -1.28 -8.96 0
v -1.92 -8.96 0
v -1.92 -8.32 0
v -1.28 -8.32 0
v -1.92 -8.96 0
v -2.56 -8.96 0
v -2.56 -8.32 0
v -1.92 -8.32 0
v -2.56 -8.96 0
v -3.2 -8.96 0
v -3.2 -8.32 0
v -2.56 -8.32 0
v -3.2 -8.96 0
v -3.84 -8.96 0
v -3.84 -8.32 0
v -3.2 -8.32 0
v -3.84 -8.96 0
v -4.48 -8.96 0
v -4.48 -8.32 0
v -3.84 -8.32 0
v -4.48 -8.96 0
v -5.12 -8.96 0
v -5.12 -8.32 0
v -4.48 -8.32 0
v -5.12 -8.96 0
v -5.76 -8.96 0
v -5.76 -8.32 0
v -5.12 -8.32 0
v -5.76 -8.96 0
v -6.4 -8.96 0
v -6.4 -8.32 0
v -5.76 -8.32 0
v -6.4 -8.96 0
v -7.04 -8.96 0
v -7.04 -8.32 0
v -6.4 -8.32 0
v -7.04 -8.96 0
v -7.68 -8.96 0
v -7.68 -8.32 0
v -7.04 -8.32 0
v -7.68 -8.96 0
v -8.32 -8.96 0
v -8.32 -8.32 0
v -7.68 -8.32 0
v -8.32 -8.96 0
v -8.96 -8.96 0
v -8.96 -8.32 0
v -8.32 -8.32 0
v -8.96 -8.96 0
v -9.599999 -8.96 0
v -9.599999 -8.32 0
v -8.96 -8.32 0
v -9.599999 -8.96 0
v -10.24 -8.96 0
v -10.24 -8.32 0
v -9.599999 -8.32 0
v 0 -9.599999 0
v -0.64 -9.599999 0
v -0.64 -8.96 0
v 0 -8.96 0
v -0.64 -9.599999 0
v -1.28 -9.599999 0
v -1.28 -8.96 0
v -0.64 -8.96 0
v -1.28 -9.599999 0
v -1.92 -9.599999 0
v -1.92 -8.96 0
v -1.28 -8.96 0
v -1.92 -9.599999 0
v -2.56 -9.599999 0
v -2.56 -8.96 0
v -1.92 -8.96 0
v -2.56 -9.599999 0
v -3.2 -9.599999 0
v -3.2 -8.96 0
v -2.56 -8.96 0
v -3.2 -9.599999 0
v -3.84 -9.599999 0
v -3.84 -8.96 0
v -3.2 -8.96 0
v -3.84 -9.599999 0
v -4.48 -9.599999 0
v -4.48 -8.96 0
v -3.84 -8.96 0
v -4.48 -9.599999 0
v -5.12 -9.599999 0
v -5.12 -8.96 0
v -4.48 -8.96 0
v -5.12 -9.599999 0
v -5.76 -9.599999 0
v -5.76 -8.96 0
v -5.12 -8.96 0
v -5.76 -9.599999 0
v -6.4 -9.599999 0
v -6.4 -8.96 0
v -5.76 -8.96 0
v -6.4 -9.599999 0
v -7.04 -9.599999 0
v -7.04 -8.96 0
v -6.4 -8.96 0
v -7.04 -9.599999 0
v -7.68 -9.599999 0
v -7.68 -8.96 0
v -7.04 -8.96 0
v -7.68 -9.599999 0
v -8.32 -9.599999 0
v -8.32 -8.96 0
v -7.68 -8.96 0
v -8.32 -9.599999 0
v -8.96 -9.599999 0
v -8.96 -8.96 0
v -8.32 -8.96 0
v -8.96 -9.599999 0
v -9.599999 -9.599999 0
v -9.599999 -8.96 0
v -8.96 -8.96 0
v -9.599999 -9.599999 0
v -10.24 -9.599999 0
v -10.24 -8.96 0
v -9.599999 -8.96 0
v 0 -10.24 0
v -0.64 -10.24 0
v -0.64 -9.599999 0
v 0 -9.599999 0
v -0.64 -10.24 0
v -1.28 -10.24 0
v -1.28 -9.599999 0
v -0.64 -9.599999 0
v -1.28 -10.24 0
v -1.92 -10.24 0
v -1.92 -9.599999 0
v -1.28 -9.599999 0
v -1.92 -10.24 0
v -2.56 -10.24 0
v -2.56 -9.599999 0
v -1.92 -9.599999 0
v -2.56 -10.24 0
v -3.2 -10.24 0
v -3.2 -9.599999 0
v -2.56 -9.599999 0
v -3.2 -10.24 0
v -3.84 -10.24 0
v -3.84 -9.599999 0
v -3.2 -9.599999 0
v -3.84 -10.24 0
v -4.48 -10.24 0
v -4.48 -9.599999 0
v -3.84 -9.599999 0
v -4.48 -10.24 0
v -5.12 -10.24 0
v -5.12 -9.599999 0
v -4.48 -9.599999 0
v -5.12 -10.24 0
v -5.76 -10.24 0
v -5.76 -9.599999 0
v -5.12 -9.599999 0
v -5.76 -10.24 0
v -6.4 -10.24 0
v -6.4 -9.599999 0
v -5.76 -9.599999 0
v -6.4 -10.24 0
v -7.04 -10.24 0
v -7.04 -9.599999 0
v -6.4 -9.599999 0
v -7.04 -10.24 0
v -7.68 -10.24 0
v -7.68 -9.599999 0
v -7.04 -9.599999 0
v -7.68 -10.24 0
v -8.32 -10.24 0
v -8.32 -9.599999 0
v -7.68 -9.599999 0
v -8.32 -10.24 0
v -8.96 -10.24 0
v -8.96 -9.599999 0
v -8.32 -9.599999 0
v -8.96 -10.24 0
v -9.599999 -10.24 0
v -9.599999 -9.599999 0
v -8.96 -9.599999 0
v -9.599999 -10.24 0
v -10.24 -10.24 0
v -10.24 -9.599999 0
v -9.599999 -9.599999 0

# Texture cooridinates (Count = 24)
vt 0.3333333 0.4166667
vt 0.5 0.4166667
vt 0.5 0.5
vt 0.3333333 0.5
vt 0.6666667 0.4166667
vt 0.6666667 0.5
vt 0.3333333 0.3333333
vt 0.5 0.3333333
vt 0.6666667 0.3333333
vt 0.5 0.08333331
vt 0.6666667 0.08333331
vt 0.6666667 0.1666667
vt 0.5 0.1666667
vt 0.8333333 0.08333331
vt 0.8333333 0.1666667
vt 1 0.08333331
vt 1 0.1666667
vt 0.3333333 0.08333331
vt 0.3333333 0.1666667
vt 0.5 0
vt 0.6666667 0
vt 0.8333333 0
vt 1 0
vt 0.3333333 0

# Normal
vn 0 0 -1

# Mesh description
g Test22_mesh_0030

# Faces
f 1/1/1 2/2/1 3/3/1 4/4/1
f 5/1/1 6/2/1 7/3/1 8/4/1
f 9/1/1 10/2/1 11/3/1 12/4/1
f 13/1/1 14/2/1 15/3/1 16/4/1
f 17/1/1 18/2/1 19/3/1 20/4/1
f 21/1/1 22/2/1 23/3/1 24/4/1
f 25/2/1 26/5/1 27/6/1 28/3/1
f 29/1/1 30/2/1 31/3/1 32/4/1
f 33/2/1 34/5/1 35/6/1 36/3/1
f 37/1/1 38/2/1 39/3/1 40/4/1
f 41/1/1 42/2/1 43/3/1 44/4/1
f 45/1/1 46/2/1 47/3/1 48/4/1
f 49/1/1 50/2/1 51/3/1 52/4/1
f 53/7/1 54/8/1 55/2/1 56/1/1
f 57/7/1 58/8/1 59/2/1 60/1/1
f 61/7/1 62/8/1 63/2/1 64/1/1
f 65/7/1 66/8/1 67/2/1 68/1/1
f 69/7/1 70/8/1 71/2/1 72/1/1
f 73/7/1 74/8/1 75/2/1 76/1/1
f 77/8/1 78/9/1 79/5/1 80/2/1
f 81/7/1 82/8/1 83/2/1 84/1/1
f 85/8/1 86/9/1 87/5/1 88/2/1
f 89/7/1 90/8/1 91/2/1 92/1/1
f 93/7/1 94/8/1 95/2/1 96/1/1
f 97/7/1 98/8/1 99/2/1 100/1/1
f 101/7/1 102/8/1 103/2/1 104/1/1
f 105/7/1 106/8/1 107/2/1 108/1/1
f 109/8/1 110/9/1 111/5/1 112/2/1
f 113/7/1 114/8/1 115/2/1 116/1/1
f 117/8/1 118/9/1 119/5/1 120/2/1
f 121/7/1 122/8/1 123/2/1 124/1/1
f 125/8/1 126/9/1 127/5/1 128/2/1
f 129/7/1 130/8/1 131/2/1 132/1/1
f 133/8/1 134/9/1 135/5/1 136/2/1
f 137/7/1 138/8/1 139/2/1 140/1/1
f 141/8/1 142/9/1 143/5/1 144/2/1
f 145/10/1 146/11/1 147/12/1 148/13/1
f 149/11/1 150/14/1 151/15/1 152/12/1
f 153/14/1 154/16/1 155/17/1 156/15/1
f 157/7/1 158/8/1 159/2/1 160/1/1
f 161/8/1 162/9/1 163/5/1 164/2/1
f 165/11/1 166/14/1 167/15/1 168/12/1
f 169/14/1 170/16/1 171/17/1 172/15/1
f 173/18/1 174/10/1 175/13/1 176/19/1
f 177/10/1 178/11/1 179/12/1 180/13/1
f 181/11/1 182/14/1 183/15/1 184/12/1
f 185/14/1 186/16/1 187/17/1 188/15/1
f 189/18/1 190/10/1 191/13/1 192/19/1
f 193/10/1 194/11/1 195/12/1 196/13/1
f 197/11/1 198/14/1 199/15/1 200/12/1
f 201/14/1 202/16/1 203/17/1 204/15/1
f 205/18/1 206/10/1 207/13/1 208/19/1
f 209/20/1 210/21/1 211/11/1 212/10/1
f 213/21/1 214/22/1 215/14/1 216/11/1
f 217/22/1 218/23/1 219/16/1 220/14/1
f 221/24/1 222/20/1 223/10/1 224/18/1
f 225/20/1 226/21/1 227/11/1 228/10/1
f 229/21/1 230/22/1 231/14/1 232/11/1
f 233/22/1 234/23/1 235/16/1 236/14/1
f 237/24/1 238/20/1 239/10/1 240/18/1
f 241/20/1 242/21/1 243/11/1 244/10/1
f 245/21/1 246/22/1 247/14/1 248/11/1
f 249/22/1 250/23/1 251/16/1 252/14/1
f 253/24/1 254/20/1 255/10/1 256/18/1
f 257/20/1 258/21/1 259/11/1 260/10/1
f 261/21/1 262/22/1 263/14/1 264/11/1
f 265/22/1 266/23/1 267/16/1 268/14/1
f 269/24/1 270/20/1 271/10/1 272/18/1
f 273/10/1 274/11/1 275/12/1 276/13/1
f 277/11/1 278/14/1 279/15/1 280/12/1
f 281/14/1 282/16/1 283/17/1 284/15/1
f 285/18/1 286/10/1 287/13/1 288/19/1
f 289/10/1 290/11/1 291/12/1 292/13/1
f 293/11/1 294/14/1 295/15/1 296/12/1
f 297/14/1 298/16/1 299/17/1 300/15/1
f 301/18/1 302/10/1 303/13/1 304/19/1
f 305/10/1 306/11/1 307/12/1 308/13/1
f 309/11/1 310/14/1 311/15/1 312/12/1
f 313/14/1 314/16/1 315/17/1 316/15/1
f 317/18/1 318/10/1 319/13/1 320/19/1
f 321/10/1 322/11/1 323/12/1 324/13/1
f 325/11/1 326/14/1 327/15/1 328/12/1
f 329/14/1 330/16/1 331/17/1 332/15/1
f 333/18/1 334/10/1 335/13/1 336/19/1
f 337/20/1 338/21/1 339/11/1 340/10/1
f 341/21/1 342/22/1 343/14/1 344/11/1
f 345/22/1 346/23/1 347/16/1 348/14/1
f 349/24/1 350/20/1 351/10/1 352/18/1
f 353/20/1 354/21/1 355/11/1 356/10/1
f 357/21/1 358/22/1 359/14/1 360/11/1
f 361/22/1 362/23/1 363/16/1 364/14/1
f 365/24/1 366/20/1 367/10/1 368/18/1
f 369/20/1 370/21/1 371/11/1 372/10/1
f 373/21/1 374/22/1 375/14/1 376/11/1
f 377/22/1 378/23/1 379/16/1 380/14/1
f 381/24/1 382/20/1 383/10/1 384/18/1
f 385/20/1 386/21/1 387/11/1 388/10/1
f 389/21/1 390/22/1 391/14/1 392/11/1
f 393/22/1 394/23/1 395/16/1 396/14/1
f 397/24/1 398/20/1 399/10/1 400/18/1
f 401/10/1 402/11/1 403/12/1 404/13/1
f 405/11/1 406/14/1 407/15/1 408/12/1
f 409/14/1 410/16/1 411/17/1 412/15/1
f 413/18/1 414/10/1 415/13/1 416/19/1
f 417/10/1 418/11/1 419/12/1 420/13/1
f 421/11/1 422/14/1 423/15/1 424/12/1
f 425/14/1 426/16/1 427/17/1 428/15/1
f 429/18/1 430/10/1 431/13/1 432/19/1
f 433/10/1 434/11/1 435/12/1 436/13/1
f 437/11/1 438/14/1 439/15/1 440/12/1
f 441/14/1 442/16/1 443/17/1 444/15/1
f 445/18/1 446/10/1 447/13/1 448/19/1
f 449/10/1 450/11/1 451/12/1 452/13/1
f 453/11/1 454/14/1 455/15/1 456/12/1
f 457/14/1 458/16/1 459/17/1 460/15/1
f 461/18/1 462/10/1 463/13/1 464/19/1
f 465/20/1 466/21/1 467/11/1 468/10/1
f 469/21/1 470/22/1 471/14/1 472/11/1
f 473/22/1 474/23/1 475/16/1 476/14/1
f 477/24/1 478/20/1 479/10/1 480/18/1
f 481/20/1 482/21/1 483/11/1 484/10/1
f 485/21/1 486/22/1 487/14/1 488/11/1
f 489/22/1 490/23/1 491/16/1 492/14/1
f 493/24/1 494/20/1 495/10/1 496/18/1
f 497/20/1 498/21/1 499/11/1 500/10/1
f 501/21/1 502/22/1 503/14/1 504/11/1
f 505/22/1 506/23/1 507/16/1 508/14/1
f 509/24/1 510/20/1 511/10/1 512/18/1
f 513/20/1 514/21/1 515/11/1 516/10/1
f 517/21/1 518/22/1 519/14/1 520/11/1
f 521/22/1 522/23/1 523/16/1 524/14/1
f 525/24/1 526/20/1 527/10/1 528/18/1
f 529/10/1 530/11/1 531/12/1 532/13/1
f 533/11/1 534/14/1 535/15/1 536/12/1
f 537/14/1 538/16/1 539/17/1 540/15/1
f 541/18/1 542/10/1 543/13/1 544/19/1
f 545/10/1 546/11/1 547/12/1 548/13/1
f 549/11/1 550/14/1 551/15/1 552/12/1
f 553/14/1 554/16/1 555/17/1 556/15/1
f 557/18/1 558/10/1 559/13/1 560/19/1
f 561/10/1 562/11/1 563/12/1 564/13/1
f 565/11/1 566/14/1 567/15/1 568/12/1
f 569/14/1 570/16/1 571/17/1 572/15/1
f 573/18/1 574/10/1 575/13/1 576/19/1
f 577/10/1 578/11/1 579/12/1 580/13/1
f 581/11/1 582/14/1 583/15/1 584/12/1
f 585/14/1 586/16/1 587/17/1 588/15/1
f 589/18/1 590/10/1 591/13/1 592/19/1

