# Tiled2Unity generated file. Do not modify by hand.
# Wavefront file for 'Test22_mesh_0153.obj'

# Vertices (Count = 24)
v -8.96 -8.32 0
v -9.599999 -8.32 0
v -9.599999 -7.68 0
v -8.96 -7.68 0
v -9.599999 -8.32 0
v -10.24 -8.32 0
v -10.24 -7.68 0
v -9.599999 -7.68 0
v -8.96 -8.96 0
v -9.599999 -8.96 0
v -9.599999 -8.32 0
v -8.96 -8.32 0
v -9.599999 -8.96 0
v -10.24 -8.96 0
v -10.24 -8.32 0
v -9.599999 -8.32 0
v -8.96 -9.599999 0
v -9.599999 -9.599999 0
v -9.599999 -8.96 0
v -8.96 -8.96 0
v -9.599999 -9.599999 0
v -10.24 -9.599999 0
v -10.24 -8.96 0
v -9.599999 -8.96 0

# Texture cooridinates (Count = 12)
vt 0.7 0.875
vt 0.8 0.875
vt 0.8 1
vt 0.7 1
vt 0.9 0.875
vt 0.9 1
vt 0.7 0.75
vt 0.8 0.75
vt 0.9 0.75
vt 0.7 0.625
vt 0.8 0.625
vt 0.9 0.625

# Normal
vn 0 0 -1

# Mesh description
g Test22_mesh_0153

# Faces
f 1/1/1 2/2/1 3/3/1 4/4/1
f 5/2/1 6/5/1 7/6/1 8/3/1
f 9/7/1 10/8/1 11/2/1 12/1/1
f 13/8/1 14/9/1 15/5/1 16/2/1
f 17/10/1 18/11/1 19/8/1 20/7/1
f 21/11/1 22/12/1 23/9/1 24/8/1

