# Tiled2Unity generated file. Do not modify by hand.
# Wavefront file for 'Test22_mesh_0108.obj'

# Vertices (Count = 600)
v 0 -4.48 0
v -0.64 -4.48 0
v -0.64 -3.84 0
v 0 -3.84 0
v -0.64 -4.48 0
v -1.28 -4.48 0
v -1.28 -3.84 0
v -0.64 -3.84 0
v -1.28 -4.48 0
v -1.92 -4.48 0
v -1.92 -3.84 0
v -1.28 -3.84 0
v -1.92 -4.48 0
v -2.56 -4.48 0
v -2.56 -3.84 0
v -1.92 -3.84 0
v -2.56 -4.48 0
v -3.2 -4.48 0
v -3.2 -3.84 0
v -2.56 -3.84 0
v -3.2 -4.48 0
v -3.84 -4.48 0
v -3.84 -3.84 0
v -3.2 -3.84 0
v -3.84 -4.48 0
v -4.48 -4.48 0
v -4.48 -3.84 0
v -3.84 -3.84 0
v -4.48 -4.48 0
v -5.12 -4.48 0
v -5.12 -3.84 0
v -4.48 -3.84 0
v -5.12 -4.48 0
v -5.76 -4.48 0
v -5.76 -3.84 0
v -5.12 -3.84 0
v -5.76 -4.48 0
v -6.4 -4.48 0
v -6.4 -3.84 0
v -5.76 -3.84 0
v -6.4 -4.48 0
v -7.04 -4.48 0
v -7.04 -3.84 0
v -6.4 -3.84 0
v -7.04 -4.48 0
v -7.68 -4.48 0
v -7.68 -3.84 0
v -7.04 -3.84 0
v -7.68 -4.48 0
v -8.32 -4.48 0
v -8.32 -3.84 0
v -7.68 -3.84 0
v -8.32 -4.48 0
v -8.96 -4.48 0
v -8.96 -3.84 0
v -8.32 -3.84 0
v -8.96 -4.48 0
v -9.599999 -4.48 0
v -9.599999 -3.84 0
v -8.96 -3.84 0
v 0 -5.12 0
v -0.64 -5.12 0
v -0.64 -4.48 0
v 0 -4.48 0
v -0.64 -5.12 0
v -1.28 -5.12 0
v -1.28 -4.48 0
v -0.64 -4.48 0
v -1.28 -5.12 0
v -1.92 -5.12 0
v -1.92 -4.48 0
v -1.28 -4.48 0
v -1.92 -5.12 0
v -2.56 -5.12 0
v -2.56 -4.48 0
v -1.92 -4.48 0
v -2.56 -5.12 0
v -3.2 -5.12 0
v -3.2 -4.48 0
v -2.56 -4.48 0
v -3.2 -5.12 0
v -3.84 -5.12 0
v -3.84 -4.48 0
v -3.2 -4.48 0
v -3.84 -5.12 0
v -4.48 -5.12 0
v -4.48 -4.48 0
v -3.84 -4.48 0
v -4.48 -5.12 0
v -5.12 -5.12 0
v -5.12 -4.48 0
v -4.48 -4.48 0
v -5.12 -5.12 0
v -5.76 -5.12 0
v -5.76 -4.48 0
v -5.12 -4.48 0
v -5.76 -5.12 0
v -6.4 -5.12 0
v -6.4 -4.48 0
v -5.76 -4.48 0
v -6.4 -5.12 0
v -7.04 -5.12 0
v -7.04 -4.48 0
v -6.4 -4.48 0
v -7.04 -5.12 0
v -7.68 -5.12 0
v -7.68 -4.48 0
v -7.04 -4.48 0
v -7.68 -5.12 0
v -8.32 -5.12 0
v -8.32 -4.48 0
v -7.68 -4.48 0
v -8.32 -5.12 0
v -8.96 -5.12 0
v -8.96 -4.48 0
v -8.32 -4.48 0
v -8.96 -5.12 0
v -9.599999 -5.12 0
v -9.599999 -4.48 0
v -8.96 -4.48 0
v 0 -5.76 0
v -0.64 -5.76 0
v -0.64 -5.12 0
v 0 -5.12 0
v -0.64 -5.76 0
v -1.28 -5.76 0
v -1.28 -5.12 0
v -0.64 -5.12 0
v -1.28 -5.76 0
v -1.92 -5.76 0
v -1.92 -5.12 0
v -1.28 -5.12 0
v -1.92 -5.76 0
v -2.56 -5.76 0
v -2.56 -5.12 0
v -1.92 -5.12 0
v -2.56 -5.76 0
v -3.2 -5.76 0
v -3.2 -5.12 0
v -2.56 -5.12 0
v -3.2 -5.76 0
v -3.84 -5.76 0
v -3.84 -5.12 0
v -3.2 -5.12 0
v -3.84 -5.76 0
v -4.48 -5.76 0
v -4.48 -5.12 0
v -3.84 -5.12 0
v -4.48 -5.76 0
v -5.12 -5.76 0
v -5.12 -5.12 0
v -4.48 -5.12 0
v -5.12 -5.76 0
v -5.76 -5.76 0
v -5.76 -5.12 0
v -5.12 -5.12 0
v -5.76 -5.76 0
v -6.4 -5.76 0
v -6.4 -5.12 0
v -5.76 -5.12 0
v -6.4 -5.76 0
v -7.04 -5.76 0
v -7.04 -5.12 0
v -6.4 -5.12 0
v -7.04 -5.76 0
v -7.68 -5.76 0
v -7.68 -5.12 0
v -7.04 -5.12 0
v -7.68 -5.76 0
v -8.32 -5.76 0
v -8.32 -5.12 0
v -7.68 -5.12 0
v -8.32 -5.76 0
v -8.96 -5.76 0
v -8.96 -5.12 0
v -8.32 -5.12 0
v -8.96 -5.76 0
v -9.599999 -5.76 0
v -9.599999 -5.12 0
v -8.96 -5.12 0
v 0 -6.4 0
v -0.64 -6.4 0
v -0.64 -5.76 0
v 0 -5.76 0
v -0.64 -6.4 0
v -1.28 -6.4 0
v -1.28 -5.76 0
v -0.64 -5.76 0
v -1.28 -6.4 0
v -1.92 -6.4 0
v -1.92 -5.76 0
v -1.28 -5.76 0
v -1.92 -6.4 0
v -2.56 -6.4 0
v -2.56 -5.76 0
v -1.92 -5.76 0
v -2.56 -6.4 0
v -3.2 -6.4 0
v -3.2 -5.76 0
v -2.56 -5.76 0
v -3.2 -6.4 0
v -3.84 -6.4 0
v -3.84 -5.76 0
v -3.2 -5.76 0
v -3.84 -6.4 0
v -4.48 -6.4 0
v -4.48 -5.76 0
v -3.84 -5.76 0
v -4.48 -6.4 0
v -5.12 -6.4 0
v -5.12 -5.76 0
v -4.48 -5.76 0
v -5.12 -6.4 0
v -5.76 -6.4 0
v -5.76 -5.76 0
v -5.12 -5.76 0
v -5.76 -6.4 0
v -6.4 -6.4 0
v -6.4 -5.76 0
v -5.76 -5.76 0
v -6.4 -6.4 0
v -7.04 -6.4 0
v -7.04 -5.76 0
v -6.4 -5.76 0
v -7.04 -6.4 0
v -7.68 -6.4 0
v -7.68 -5.76 0
v -7.04 -5.76 0
v -7.68 -6.4 0
v -8.32 -6.4 0
v -8.32 -5.76 0
v -7.68 -5.76 0
v -8.32 -6.4 0
v -8.96 -6.4 0
v -8.96 -5.76 0
v -8.32 -5.76 0
v -8.96 -6.4 0
v -9.599999 -6.4 0
v -9.599999 -5.76 0
v -8.96 -5.76 0
v 0 -7.04 0
v -0.64 -7.04 0
v -0.64 -6.4 0
v 0 -6.4 0
v -0.64 -7.04 0
v -1.28 -7.04 0
v -1.28 -6.4 0
v -0.64 -6.4 0
v -1.28 -7.04 0
v -1.92 -7.04 0
v -1.92 -6.4 0
v -1.28 -6.4 0
v -1.92 -7.04 0
v -2.56 -7.04 0
v -2.56 -6.4 0
v -1.92 -6.4 0
v -2.56 -7.04 0
v -3.2 -7.04 0
v -3.2 -6.4 0
v -2.56 -6.4 0
v -3.2 -7.04 0
v -3.84 -7.04 0
v -3.84 -6.4 0
v -3.2 -6.4 0
v -3.84 -7.04 0
v -4.48 -7.04 0
v -4.48 -6.4 0
v -3.84 -6.4 0
v -4.48 -7.04 0
v -5.12 -7.04 0
v -5.12 -6.4 0
v -4.48 -6.4 0
v -5.12 -7.04 0
v -5.76 -7.04 0
v -5.76 -6.4 0
v -5.12 -6.4 0
v -5.76 -7.04 0
v -6.4 -7.04 0
v -6.4 -6.4 0
v -5.76 -6.4 0
v -6.4 -7.04 0
v -7.04 -7.04 0
v -7.04 -6.4 0
v -6.4 -6.4 0
v -7.04 -7.04 0
v -7.68 -7.04 0
v -7.68 -6.4 0
v -7.04 -6.4 0
v -7.68 -7.04 0
v -8.32 -7.04 0
v -8.32 -6.4 0
v -7.68 -6.4 0
v -8.32 -7.04 0
v -8.96 -7.04 0
v -8.96 -6.4 0
v -8.32 -6.4 0
v -8.96 -7.04 0
v -9.599999 -7.04 0
v -9.599999 -6.4 0
v -8.96 -6.4 0
v 0 -7.68 0
v -0.64 -7.68 0
v -0.64 -7.04 0
v 0 -7.04 0
v -0.64 -7.68 0
v -1.28 -7.68 0
v -1.28 -7.04 0
v -0.64 -7.04 0
v -1.28 -7.68 0
v -1.92 -7.68 0
v -1.92 -7.04 0
v -1.28 -7.04 0
v -1.92 -7.68 0
v -2.56 -7.68 0
v -2.56 -7.04 0
v -1.92 -7.04 0
v -2.56 -7.68 0
v -3.2 -7.68 0
v -3.2 -7.04 0
v -2.56 -7.04 0
v -3.2 -7.68 0
v -3.84 -7.68 0
v -3.84 -7.04 0
v -3.2 -7.04 0
v -3.84 -7.68 0
v -4.48 -7.68 0
v -4.48 -7.04 0
v -3.84 -7.04 0
v -4.48 -7.68 0
v -5.12 -7.68 0
v -5.12 -7.04 0
v -4.48 -7.04 0
v -5.12 -7.68 0
v -5.76 -7.68 0
v -5.76 -7.04 0
v -5.12 -7.04 0
v -5.76 -7.68 0
v -6.4 -7.68 0
v -6.4 -7.04 0
v -5.76 -7.04 0
v -6.4 -7.68 0
v -7.04 -7.68 0
v -7.04 -7.04 0
v -6.4 -7.04 0
v -7.04 -7.68 0
v -7.68 -7.68 0
v -7.68 -7.04 0
v -7.04 -7.04 0
v -7.68 -7.68 0
v -8.32 -7.68 0
v -8.32 -7.04 0
v -7.68 -7.04 0
v -8.32 -7.68 0
v -8.96 -7.68 0
v -8.96 -7.04 0
v -8.32 -7.04 0
v -8.96 -7.68 0
v -9.599999 -7.68 0
v -9.599999 -7.04 0
v -8.96 -7.04 0
v 0 -8.32 0
v -0.64 -8.32 0
v -0.64 -7.68 0
v 0 -7.68 0
v -0.64 -8.32 0
v -1.28 -8.32 0
v -1.28 -7.68 0
v -0.64 -7.68 0
v -1.28 -8.32 0
v -1.92 -8.32 0
v -1.92 -7.68 0
v -1.28 -7.68 0
v -1.92 -8.32 0
v -2.56 -8.32 0
v -2.56 -7.68 0
v -1.92 -7.68 0
v -2.56 -8.32 0
v -3.2 -8.32 0
v -3.2 -7.68 0
v -2.56 -7.68 0
v -3.2 -8.32 0
v -3.84 -8.32 0
v -3.84 -7.68 0
v -3.2 -7.68 0
v -3.84 -8.32 0
v -4.48 -8.32 0
v -4.48 -7.68 0
v -3.84 -7.68 0
v -4.48 -8.32 0
v -5.12 -8.32 0
v -5.12 -7.68 0
v -4.48 -7.68 0
v -5.12 -8.32 0
v -5.76 -8.32 0
v -5.76 -7.68 0
v -5.12 -7.68 0
v -5.76 -8.32 0
v -6.4 -8.32 0
v -6.4 -7.68 0
v -5.76 -7.68 0
v -6.4 -8.32 0
v -7.04 -8.32 0
v -7.04 -7.68 0
v -6.4 -7.68 0
v -7.04 -8.32 0
v -7.68 -8.32 0
v -7.68 -7.68 0
v -7.04 -7.68 0
v -7.68 -8.32 0
v -8.32 -8.32 0
v -8.32 -7.68 0
v -7.68 -7.68 0
v -8.32 -8.32 0
v -8.96 -8.32 0
v -8.96 -7.68 0
v -8.32 -7.68 0
v -8.96 -8.32 0
v -9.599999 -8.32 0
v -9.599999 -7.68 0
v -8.96 -7.68 0
v 0 -8.96 0
v -0.64 -8.96 0
v -0.64 -8.32 0
v 0 -8.32 0
v -0.64 -8.96 0
v -1.28 -8.96 0
v -1.28 -8.32 0
v -0.64 -8.32 0
v -1.28 -8.96 0
v -1.92 -8.96 0
v -1.92 -8.32 0
v -1.28 -8.32 0
v -1.92 -8.96 0
v -2.56 -8.96 0
v -2.56 -8.32 0
v -1.92 -8.32 0
v -2.56 -8.96 0
v -3.2 -8.96 0
v -3.2 -8.32 0
v -2.56 -8.32 0
v -3.2 -8.96 0
v -3.84 -8.96 0
v -3.84 -8.32 0
v -3.2 -8.32 0
v -3.84 -8.96 0
v -4.48 -8.96 0
v -4.48 -8.32 0
v -3.84 -8.32 0
v -4.48 -8.96 0
v -5.12 -8.96 0
v -5.12 -8.32 0
v -4.48 -8.32 0
v -5.12 -8.96 0
v -5.76 -8.96 0
v -5.76 -8.32 0
v -5.12 -8.32 0
v -5.76 -8.96 0
v -6.4 -8.96 0
v -6.4 -8.32 0
v -5.76 -8.32 0
v -6.4 -8.96 0
v -7.04 -8.96 0
v -7.04 -8.32 0
v -6.4 -8.32 0
v -7.04 -8.96 0
v -7.68 -8.96 0
v -7.68 -8.32 0
v -7.04 -8.32 0
v -7.68 -8.96 0
v -8.32 -8.96 0
v -8.32 -8.32 0
v -7.68 -8.32 0
v -8.32 -8.96 0
v -8.96 -8.96 0
v -8.96 -8.32 0
v -8.32 -8.32 0
v -8.96 -8.96 0
v -9.599999 -8.96 0
v -9.599999 -8.32 0
v -8.96 -8.32 0
v 0 -9.599999 0
v -0.64 -9.599999 0
v -0.64 -8.96 0
v 0 -8.96 0
v -0.64 -9.599999 0
v -1.28 -9.599999 0
v -1.28 -8.96 0
v -0.64 -8.96 0
v -1.28 -9.599999 0
v -1.92 -9.599999 0
v -1.92 -8.96 0
v -1.28 -8.96 0
v -1.92 -9.599999 0
v -2.56 -9.599999 0
v -2.56 -8.96 0
v -1.92 -8.96 0
v -2.56 -9.599999 0
v -3.2 -9.599999 0
v -3.2 -8.96 0
v -2.56 -8.96 0
v -3.2 -9.599999 0
v -3.84 -9.599999 0
v -3.84 -8.96 0
v -3.2 -8.96 0
v -3.84 -9.599999 0
v -4.48 -9.599999 0
v -4.48 -8.96 0
v -3.84 -8.96 0
v -4.48 -9.599999 0
v -5.12 -9.599999 0
v -5.12 -8.96 0
v -4.48 -8.96 0
v -5.12 -9.599999 0
v -5.76 -9.599999 0
v -5.76 -8.96 0
v -5.12 -8.96 0
v -5.76 -9.599999 0
v -6.4 -9.599999 0
v -6.4 -8.96 0
v -5.76 -8.96 0
v -6.4 -9.599999 0
v -7.04 -9.599999 0
v -7.04 -8.96 0
v -6.4 -8.96 0
v -7.04 -9.599999 0
v -7.68 -9.599999 0
v -7.68 -8.96 0
v -7.04 -8.96 0
v -7.68 -9.599999 0
v -8.32 -9.599999 0
v -8.32 -8.96 0
v -7.68 -8.96 0
v -8.32 -9.599999 0
v -8.96 -9.599999 0
v -8.96 -8.96 0
v -8.32 -8.96 0
v -8.96 -9.599999 0
v -9.599999 -9.599999 0
v -9.599999 -8.96 0
v -8.96 -8.96 0
v 0 -10.24 0
v -0.64 -10.24 0
v -0.64 -9.599999 0
v 0 -9.599999 0
v -0.64 -10.24 0
v -1.28 -10.24 0
v -1.28 -9.599999 0
v -0.64 -9.599999 0
v -1.28 -10.24 0
v -1.92 -10.24 0
v -1.92 -9.599999 0
v -1.28 -9.599999 0
v -1.92 -10.24 0
v -2.56 -10.24 0
v -2.56 -9.599999 0
v -1.92 -9.599999 0
v -2.56 -10.24 0
v -3.2 -10.24 0
v -3.2 -9.599999 0
v -2.56 -9.599999 0
v -3.2 -10.24 0
v -3.84 -10.24 0
v -3.84 -9.599999 0
v -3.2 -9.599999 0
v -3.84 -10.24 0
v -4.48 -10.24 0
v -4.48 -9.599999 0
v -3.84 -9.599999 0
v -4.48 -10.24 0
v -5.12 -10.24 0
v -5.12 -9.599999 0
v -4.48 -9.599999 0
v -5.12 -10.24 0
v -5.76 -10.24 0
v -5.76 -9.599999 0
v -5.12 -9.599999 0
v -5.76 -10.24 0
v -6.4 -10.24 0
v -6.4 -9.599999 0
v -5.76 -9.599999 0
v -6.4 -10.24 0
v -7.04 -10.24 0
v -7.04 -9.599999 0
v -6.4 -9.599999 0
v -7.04 -10.24 0
v -7.68 -10.24 0
v -7.68 -9.599999 0
v -7.04 -9.599999 0
v -7.68 -10.24 0
v -8.32 -10.24 0
v -8.32 -9.599999 0
v -7.68 -9.599999 0
v -8.32 -10.24 0
v -8.96 -10.24 0
v -8.96 -9.599999 0
v -8.32 -9.599999 0
v -8.96 -10.24 0
v -9.599999 -10.24 0
v -9.599999 -9.599999 0
v -8.96 -9.599999 0

# Texture cooridinates (Count = 46)
vt 0.2 0.25
vt 0.25 0.25
vt 0.25 0.3
vt 0.2 0.3
vt 0.3 0.25
vt 0.3 0.3
vt 0.35 0.25
vt 0.4 0.25
vt 0.4 0.3
vt 0.35 0.3
vt 0.7 0.85
vt 0.75 0.85
vt 0.75 0.9
vt 0.7 0.9
vt 0.8 0.85
vt 0.8 0.9
vt 0.75 0.8
vt 0.8 0.8
vt 0.85 0.8
vt 0.85 0.85
vt 0.65 0.8
vt 0.7 0.8
vt 0.65 0.85
vt 0.85 0.75
vt 0.9 0.75
vt 0.9 0.8
vt 0.2 0.2
vt 0.25 0.2
vt 0.3 0.2
vt 0.35 0.2
vt 0.4 0.2
vt 0.65 0.75
vt 0.7 0.75
vt 0.75 0.75
vt 0.8 0.75
vt 0.85 0.7
vt 0.9 0.7
vt 0.65 0.7
vt 0.7 0.7
vt 0.75 0.7
vt 0.8 0.7
vt 0.65 0.65
vt 0.7 0.65
vt 0.75 0.65
vt 0.8 0.65
vt 0.85 0.65

# Normal
vn 0 0 -1

# Mesh description
g Test22_mesh_0108

# Faces
f 1/1/1 2/2/1 3/3/1 4/4/1
f 5/2/1 6/5/1 7/6/1 8/3/1
f 9/7/1 10/8/1 11/9/1 12/10/1
f 13/11/1 14/12/1 15/13/1 16/14/1
f 17/12/1 18/15/1 19/16/1 20/13/1
f 21/17/1 22/18/1 23/15/1 24/12/1
f 25/18/1 26/19/1 27/20/1 28/15/1
f 29/21/1 30/22/1 31/11/1 32/23/1
f 33/22/1 34/17/1 35/12/1 36/11/1
f 37/17/1 38/18/1 39/15/1 40/12/1
f 41/18/1 42/19/1 43/20/1 44/15/1
f 45/21/1 46/22/1 47/11/1 48/23/1
f 49/22/1 50/17/1 51/12/1 52/11/1
f 53/17/1 54/18/1 55/15/1 56/12/1
f 57/24/1 58/25/1 59/26/1 60/19/1
f 61/27/1 62/28/1 63/2/1 64/1/1
f 65/28/1 66/29/1 67/5/1 68/2/1
f 69/30/1 70/31/1 71/8/1 72/7/1
f 73/32/1 74/33/1 75/22/1 76/21/1
f 77/33/1 78/34/1 79/17/1 80/22/1
f 81/34/1 82/35/1 83/18/1 84/17/1
f 85/35/1 86/24/1 87/19/1 88/18/1
f 89/32/1 90/33/1 91/22/1 92/21/1
f 93/33/1 94/34/1 95/17/1 96/22/1
f 97/34/1 98/35/1 99/18/1 100/17/1
f 101/35/1 102/24/1 103/19/1 104/18/1
f 105/32/1 106/33/1 107/22/1 108/21/1
f 109/33/1 110/34/1 111/17/1 112/22/1
f 113/34/1 114/35/1 115/18/1 116/17/1
f 117/36/1 118/37/1 119/25/1 120/24/1
f 121/1/1 122/2/1 123/3/1 124/4/1
f 125/2/1 126/5/1 127/6/1 128/3/1
f 129/7/1 130/8/1 131/9/1 132/10/1
f 133/38/1 134/39/1 135/33/1 136/32/1
f 137/39/1 138/40/1 139/34/1 140/33/1
f 141/40/1 142/41/1 143/35/1 144/34/1
f 145/41/1 146/36/1 147/24/1 148/35/1
f 149/38/1 150/39/1 151/33/1 152/32/1
f 153/39/1 154/40/1 155/34/1 156/33/1
f 157/40/1 158/41/1 159/35/1 160/34/1
f 161/41/1 162/36/1 163/24/1 164/35/1
f 165/38/1 166/39/1 167/33/1 168/32/1
f 169/39/1 170/40/1 171/34/1 172/33/1
f 173/40/1 174/41/1 175/35/1 176/34/1
f 177/24/1 178/25/1 179/26/1 180/19/1
f 181/27/1 182/28/1 183/2/1 184/1/1
f 185/28/1 186/29/1 187/5/1 188/2/1
f 189/30/1 190/31/1 191/8/1 192/7/1
f 193/42/1 194/43/1 195/39/1 196/38/1
f 197/43/1 198/44/1 199/40/1 200/39/1
f 201/44/1 202/45/1 203/41/1 204/40/1
f 205/45/1 206/46/1 207/36/1 208/41/1
f 209/42/1 210/43/1 211/39/1 212/38/1
f 213/43/1 214/44/1 215/40/1 216/39/1
f 217/44/1 218/45/1 219/41/1 220/40/1
f 221/45/1 222/46/1 223/36/1 224/41/1
f 225/42/1 226/43/1 227/39/1 228/38/1
f 229/43/1 230/44/1 231/40/1 232/39/1
f 233/44/1 234/45/1 235/41/1 236/40/1
f 237/36/1 238/37/1 239/25/1 240/24/1
f 241/1/1 242/2/1 243/3/1 244/4/1
f 245/2/1 246/5/1 247/6/1 248/3/1
f 249/7/1 250/8/1 251/9/1 252/10/1
f 253/21/1 254/22/1 255/11/1 256/23/1
f 257/22/1 258/17/1 259/12/1 260/11/1
f 261/17/1 262/18/1 263/15/1 264/12/1
f 265/18/1 266/19/1 267/20/1 268/15/1
f 269/21/1 270/22/1 271/11/1 272/23/1
f 273/22/1 274/17/1 275/12/1 276/11/1
f 277/17/1 278/18/1 279/15/1 280/12/1
f 281/18/1 282/19/1 283/20/1 284/15/1
f 285/21/1 286/22/1 287/11/1 288/23/1
f 289/22/1 290/17/1 291/12/1 292/11/1
f 293/17/1 294/18/1 295/15/1 296/12/1
f 297/24/1 298/25/1 299/26/1 300/19/1
f 301/27/1 302/28/1 303/2/1 304/1/1
f 305/28/1 306/29/1 307/5/1 308/2/1
f 309/30/1 310/31/1 311/8/1 312/7/1
f 313/32/1 314/33/1 315/22/1 316/21/1
f 317/33/1 318/34/1 319/17/1 320/22/1
f 321/34/1 322/35/1 323/18/1 324/17/1
f 325/35/1 326/24/1 327/19/1 328/18/1
f 329/32/1 330/33/1 331/22/1 332/21/1
f 333/33/1 334/34/1 335/17/1 336/22/1
f 337/34/1 338/35/1 339/18/1 340/17/1
f 341/35/1 342/24/1 343/19/1 344/18/1
f 345/32/1 346/33/1 347/22/1 348/21/1
f 349/33/1 350/34/1 351/17/1 352/22/1
f 353/34/1 354/35/1 355/18/1 356/17/1
f 357/36/1 358/37/1 359/25/1 360/24/1
f 361/1/1 362/2/1 363/3/1 364/4/1
f 365/2/1 366/5/1 367/6/1 368/3/1
f 369/7/1 370/8/1 371/9/1 372/10/1
f 373/38/1 374/39/1 375/33/1 376/32/1
f 377/39/1 378/40/1 379/34/1 380/33/1
f 381/40/1 382/41/1 383/35/1 384/34/1
f 385/41/1 386/36/1 387/24/1 388/35/1
f 389/38/1 390/39/1 391/33/1 392/32/1
f 393/39/1 394/40/1 395/34/1 396/33/1
f 397/40/1 398/41/1 399/35/1 400/34/1
f 401/41/1 402/36/1 403/24/1 404/35/1
f 405/38/1 406/39/1 407/33/1 408/32/1
f 409/39/1 410/40/1 411/34/1 412/33/1
f 413/40/1 414/41/1 415/35/1 416/34/1
f 417/24/1 418/25/1 419/26/1 420/19/1
f 421/27/1 422/28/1 423/2/1 424/1/1
f 425/28/1 426/29/1 427/5/1 428/2/1
f 429/30/1 430/31/1 431/8/1 432/7/1
f 433/42/1 434/43/1 435/39/1 436/38/1
f 437/43/1 438/44/1 439/40/1 440/39/1
f 441/44/1 442/45/1 443/41/1 444/40/1
f 445/45/1 446/46/1 447/36/1 448/41/1
f 449/42/1 450/43/1 451/39/1 452/38/1
f 453/43/1 454/44/1 455/40/1 456/39/1
f 457/44/1 458/45/1 459/41/1 460/40/1
f 461/45/1 462/46/1 463/36/1 464/41/1
f 465/42/1 466/43/1 467/39/1 468/38/1
f 469/43/1 470/44/1 471/40/1 472/39/1
f 473/44/1 474/45/1 475/41/1 476/40/1
f 477/36/1 478/37/1 479/25/1 480/24/1
f 481/1/1 482/2/1 483/3/1 484/4/1
f 485/2/1 486/5/1 487/6/1 488/3/1
f 489/7/1 490/8/1 491/9/1 492/10/1
f 493/21/1 494/22/1 495/11/1 496/23/1
f 497/22/1 498/17/1 499/12/1 500/11/1
f 501/17/1 502/18/1 503/15/1 504/12/1
f 505/18/1 506/19/1 507/20/1 508/15/1
f 509/21/1 510/22/1 511/11/1 512/23/1
f 513/22/1 514/17/1 515/12/1 516/11/1
f 517/17/1 518/18/1 519/15/1 520/12/1
f 521/18/1 522/19/1 523/20/1 524/15/1
f 525/21/1 526/22/1 527/11/1 528/23/1
f 529/22/1 530/17/1 531/12/1 532/11/1
f 533/17/1 534/18/1 535/15/1 536/12/1
f 537/24/1 538/25/1 539/26/1 540/19/1
f 541/27/1 542/28/1 543/2/1 544/1/1
f 545/28/1 546/29/1 547/5/1 548/2/1
f 549/30/1 550/31/1 551/8/1 552/7/1
f 553/32/1 554/33/1 555/22/1 556/21/1
f 557/33/1 558/34/1 559/17/1 560/22/1
f 561/34/1 562/35/1 563/18/1 564/17/1
f 565/35/1 566/24/1 567/19/1 568/18/1
f 569/32/1 570/33/1 571/22/1 572/21/1
f 573/33/1 574/34/1 575/17/1 576/22/1
f 577/34/1 578/35/1 579/18/1 580/17/1
f 581/35/1 582/24/1 583/19/1 584/18/1
f 585/32/1 586/33/1 587/22/1 588/21/1
f 589/33/1 590/34/1 591/17/1 592/22/1
f 593/34/1 594/35/1 595/18/1 596/17/1
f 597/36/1 598/37/1 599/25/1 600/24/1

