# Tiled2Unity generated file. Do not modify by hand.
# Wavefront file for 'Test22_mesh_0376.obj'

# Vertices (Count = 120)
v -0.64 -0.64 0
v -1.28 -0.64 0
v -1.28 0 0
v -0.64 0 0
v -1.28 -0.64 0
v -1.92 -0.64 0
v -1.92 0 0
v -1.28 0 0
v -1.92 -0.64 0
v -2.56 -0.64 0
v -2.56 0 0
v -1.92 0 0
v -2.56 -0.64 0
v -3.2 -0.64 0
v -3.2 0 0
v -2.56 0 0
v -3.2 -0.64 0
v -3.84 -0.64 0
v -3.84 0 0
v -3.2 0 0
v -3.84 -0.64 0
v -4.48 -0.64 0
v -4.48 0 0
v -3.84 0 0
v -4.48 -0.64 0
v -5.12 -0.64 0
v -5.12 0 0
v -4.48 0 0
v -5.12 -0.64 0
v -5.76 -0.64 0
v -5.76 0 0
v -5.12 0 0
v -5.76 -0.64 0
v -6.4 -0.64 0
v -6.4 0 0
v -5.76 0 0
v -6.4 -0.64 0
v -7.04 -0.64 0
v -7.04 0 0
v -6.4 0 0
v -7.04 -0.64 0
v -7.68 -0.64 0
v -7.68 0 0
v -7.04 0 0
v -7.68 -0.64 0
v -8.32 -0.64 0
v -8.32 0 0
v -7.68 0 0
v -8.32 -0.64 0
v -8.96 -0.64 0
v -8.96 0 0
v -8.32 0 0
v -8.96 -0.64 0
v -9.599999 -0.64 0
v -9.599999 0 0
v -8.96 0 0
v -9.599999 -0.64 0
v -10.24 -0.64 0
v -10.24 0 0
v -9.599999 0 0
v -0.64 -1.28 0
v -1.28 -1.28 0
v -1.28 -0.64 0
v -0.64 -0.64 0
v -1.28 -1.28 0
v -1.92 -1.28 0
v -1.92 -0.64 0
v -1.28 -0.64 0
v -1.92 -1.28 0
v -2.56 -1.28 0
v -2.56 -0.64 0
v -1.92 -0.64 0
v -2.56 -1.28 0
v -3.2 -1.28 0
v -3.2 -0.64 0
v -2.56 -0.64 0
v -3.2 -1.28 0
v -3.84 -1.28 0
v -3.84 -0.64 0
v -3.2 -0.64 0
v -3.84 -1.28 0
v -4.48 -1.28 0
v -4.48 -0.64 0
v -3.84 -0.64 0
v -4.48 -1.28 0
v -5.12 -1.28 0
v -5.12 -0.64 0
v -4.48 -0.64 0
v -5.12 -1.28 0
v -5.76 -1.28 0
v -5.76 -0.64 0
v -5.12 -0.64 0
v -5.76 -1.28 0
v -6.4 -1.28 0
v -6.4 -0.64 0
v -5.76 -0.64 0
v -6.4 -1.28 0
v -7.04 -1.28 0
v -7.04 -0.64 0
v -6.4 -0.64 0
v -7.04 -1.28 0
v -7.68 -1.28 0
v -7.68 -0.64 0
v -7.04 -0.64 0
v -7.68 -1.28 0
v -8.32 -1.28 0
v -8.32 -0.64 0
v -7.68 -0.64 0
v -8.32 -1.28 0
v -8.96 -1.28 0
v -8.96 -0.64 0
v -8.32 -0.64 0
v -8.96 -1.28 0
v -9.599999 -1.28 0
v -9.599999 -0.64 0
v -8.96 -0.64 0
v -9.599999 -1.28 0
v -10.24 -1.28 0
v -10.24 -0.64 0
v -9.599999 -0.64 0

# Texture cooridinates (Count = 15)
vt 0.1666667 0.25
vt 0.3333333 0.25
vt 0.3333333 0.3333333
vt 0.1666667 0.3333333
vt 0.5 0.25
vt 0.5 0.3333333
vt 0.6666667 0.25
vt 0.6666667 0.3333333
vt 0.8333333 0.25
vt 0.8333333 0.3333333
vt 0.1666667 0.1666667
vt 0.3333333 0.1666667
vt 0.5 0.1666667
vt 0.6666667 0.1666667
vt 0.8333333 0.1666667

# Normal
vn 0 0 -1

# Mesh description
g Test22_mesh_0376

# Faces
f 1/1/1 2/2/1 3/3/1 4/4/1
f 5/2/1 6/5/1 7/6/1 8/3/1
f 9/5/1 10/7/1 11/8/1 12/6/1
f 13/7/1 14/9/1 15/10/1 16/8/1
f 17/1/1 18/2/1 19/3/1 20/4/1
f 21/2/1 22/5/1 23/6/1 24/3/1
f 25/5/1 26/7/1 27/8/1 28/6/1
f 29/7/1 30/9/1 31/10/1 32/8/1
f 33/1/1 34/2/1 35/3/1 36/4/1
f 37/2/1 38/5/1 39/6/1 40/3/1
f 41/5/1 42/7/1 43/8/1 44/6/1
f 45/7/1 46/9/1 47/10/1 48/8/1
f 49/1/1 50/2/1 51/3/1 52/4/1
f 53/2/1 54/5/1 55/6/1 56/3/1
f 57/5/1 58/7/1 59/8/1 60/6/1
f 61/11/1 62/12/1 63/2/1 64/1/1
f 65/12/1 66/13/1 67/5/1 68/2/1
f 69/13/1 70/14/1 71/7/1 72/5/1
f 73/14/1 74/15/1 75/9/1 76/7/1
f 77/11/1 78/12/1 79/2/1 80/1/1
f 81/12/1 82/13/1 83/5/1 84/2/1
f 85/13/1 86/14/1 87/7/1 88/5/1
f 89/14/1 90/15/1 91/9/1 92/7/1
f 93/11/1 94/12/1 95/2/1 96/1/1
f 97/12/1 98/13/1 99/5/1 100/2/1
f 101/13/1 102/14/1 103/7/1 104/5/1
f 105/14/1 106/15/1 107/9/1 108/7/1
f 109/11/1 110/12/1 111/2/1 112/1/1
f 113/12/1 114/13/1 115/5/1 116/2/1
f 117/13/1 118/14/1 119/7/1 120/5/1

