# Tiled2Unity generated file. Do not modify by hand.
# Wavefront file for 'Test22_mesh_0302.obj'

# Vertices (Count = 64)
v -5.12 -1.28 0
v -5.76 -1.28 0
v -5.76 -0.64 0
v -5.12 -0.64 0
v -5.76 -1.28 0
v -6.4 -1.28 0
v -6.4 -0.64 0
v -5.76 -0.64 0
v -6.4 -1.28 0
v -7.04 -1.28 0
v -7.04 -0.64 0
v -6.4 -0.64 0
v -7.04 -1.28 0
v -7.68 -1.28 0
v -7.68 -0.64 0
v -7.04 -0.64 0
v -7.68 -1.28 0
v -8.32 -1.28 0
v -8.32 -0.64 0
v -7.68 -0.64 0
v -8.32 -1.28 0
v -8.96 -1.28 0
v -8.96 -0.64 0
v -8.32 -0.64 0
v -5.12 -1.92 0
v -5.76 -1.92 0
v -5.76 -1.28 0
v -5.12 -1.28 0
v -8.32 -1.92 0
v -8.96 -1.92 0
v -8.96 -1.28 0
v -8.32 -1.28 0
v -5.12 -2.56 0
v -5.76 -2.56 0
v -5.76 -1.92 0
v -5.12 -1.92 0
v -8.32 -2.56 0
v -8.96 -2.56 0
v -8.96 -1.92 0
v -8.32 -1.92 0
v -5.12 -3.2 0
v -5.76 -3.2 0
v -5.76 -2.56 0
v -5.12 -2.56 0
v -5.76 -3.2 0
v -6.4 -3.2 0
v -6.4 -2.56 0
v -5.76 -2.56 0
v -6.4 -3.2 0
v -7.04 -3.2 0
v -7.04 -2.56 0
v -6.4 -2.56 0
v -7.04 -3.2 0
v -7.68 -3.2 0
v -7.68 -2.56 0
v -7.04 -2.56 0
v -7.68 -3.2 0
v -8.32 -3.2 0
v -8.32 -2.56 0
v -7.68 -2.56 0
v -8.32 -3.2 0
v -8.96 -3.2 0
v -8.96 -2.56 0
v -8.32 -2.56 0

# Texture cooridinates (Count = 14)
vt 0.25 0.4
vt 0.2 0.4
vt 0.2 0.35
vt 0.25 0.35
vt 0.5 0.55
vt 0.5 0.5
vt 0.55 0.5
vt 0.55 0.55
vt 0.15 0.4
vt 0.15 0.35
vt 0.25 0.55
vt 0.2 0.55
vt 0.2 0.5
vt 0.25 0.5

# Normal
vn 0 0 -1

# Mesh description
g Test22_mesh_0302

# Faces
f 1/1/1 2/2/1 3/3/1 4/4/1
f 5/5/1 6/6/1 7/7/1 8/8/1
f 9/5/1 10/6/1 11/7/1 12/8/1
f 13/5/1 14/6/1 15/7/1 16/8/1
f 17/5/1 18/6/1 19/7/1 20/8/1
f 21/2/1 22/9/1 23/10/1 24/3/1
f 25/11/1 26/12/1 27/13/1 28/14/1
f 29/13/1 30/14/1 31/11/1 32/12/1
f 33/11/1 34/12/1 35/13/1 36/14/1
f 37/13/1 38/14/1 39/11/1 40/12/1
f 41/10/1 42/3/1 43/2/1 44/9/1
f 45/7/1 46/8/1 47/5/1 48/6/1
f 49/7/1 50/8/1 51/5/1 52/6/1
f 53/7/1 54/8/1 55/5/1 56/6/1
f 57/7/1 58/8/1 59/5/1 60/6/1
f 61/3/1 62/4/1 63/1/1 64/2/1

