# Tiled2Unity generated file. Do not modify by hand.
# Wavefront file for 'Test22_mesh_0323.obj'

# Vertices (Count = 20)
v -8.96 -1.92 0
v -9.599999 -1.92 0
v -9.599999 -1.28 0
v -8.96 -1.28 0
v -8.96 -2.56 0
v -9.599999 -2.56 0
v -9.599999 -1.92 0
v -8.96 -1.92 0
v -8.96 -3.2 0
v -9.599999 -3.2 0
v -9.599999 -2.56 0
v -8.96 -2.56 0
v -8.96 -7.04 0
v -9.599999 -7.04 0
v -9.599999 -6.4 0
v -8.96 -6.4 0
v -8.96 -7.68 0
v -9.599999 -7.68 0
v -9.599999 -7.04 0
v -8.96 -7.04 0

# Texture cooridinates (Count = 8)
vt 0.25 0.9375
vt 0.28125 0.9375
vt 0.28125 0.96875
vt 0.25 0.96875
vt 0.25 0.90625
vt 0.28125 0.90625
vt 0.25 0.875
vt 0.28125 0.875

# Normal
vn 0 0 -1

# Mesh description
g Test22_mesh_0323

# Faces
f 1/1/1 2/2/1 3/3/1 4/4/1
f 5/5/1 6/6/1 7/2/1 8/1/1
f 9/7/1 10/8/1 11/6/1 12/5/1
f 13/1/1 14/2/1 15/3/1 16/4/1
f 17/5/1 18/6/1 19/2/1 20/1/1

