# Tiled2Unity generated file. Do not modify by hand.
# Wavefront file for 'Test22_mesh_0136.obj'

# Vertices (Count = 112)
v -4.48 -0.64 0
v -5.12 -0.64 0
v -5.12 0 0
v -4.48 0 0
v -5.12 -0.64 0
v -5.76 -0.64 0
v -5.76 0 0
v -5.12 0 0
v -5.76 -0.64 0
v -6.4 -0.64 0
v -6.4 0 0
v -5.76 0 0
v -6.4 -0.64 0
v -7.04 -0.64 0
v -7.04 0 0
v -6.4 0 0
v -4.48 -1.28 0
v -5.12 -1.28 0
v -5.12 -0.64 0
v -4.48 -0.64 0
v -5.12 -1.28 0
v -5.76 -1.28 0
v -5.76 -0.64 0
v -5.12 -0.64 0
v -5.76 -1.28 0
v -6.4 -1.28 0
v -6.4 -0.64 0
v -5.76 -0.64 0
v -6.4 -1.28 0
v -7.04 -1.28 0
v -7.04 -0.64 0
v -6.4 -0.64 0
v -4.48 -1.92 0
v -5.12 -1.92 0
v -5.12 -1.28 0
v -4.48 -1.28 0
v -5.12 -1.92 0
v -5.76 -1.92 0
v -5.76 -1.28 0
v -5.12 -1.28 0
v -5.76 -1.92 0
v -6.4 -1.92 0
v -6.4 -1.28 0
v -5.76 -1.28 0
v -6.4 -1.92 0
v -7.04 -1.92 0
v -7.04 -1.28 0
v -6.4 -1.28 0
v -4.48 -2.56 0
v -5.12 -2.56 0
v -5.12 -1.92 0
v -4.48 -1.92 0
v -5.12 -2.56 0
v -5.76 -2.56 0
v -5.76 -1.92 0
v -5.12 -1.92 0
v -5.76 -2.56 0
v -6.4 -2.56 0
v -6.4 -1.92 0
v -5.76 -1.92 0
v -6.4 -2.56 0
v -7.04 -2.56 0
v -7.04 -1.92 0
v -6.4 -1.92 0
v -4.48 -3.2 0
v -5.12 -3.2 0
v -5.12 -2.56 0
v -4.48 -2.56 0
v -5.12 -3.2 0
v -5.76 -3.2 0
v -5.76 -2.56 0
v -5.12 -2.56 0
v -5.76 -3.2 0
v -6.4 -3.2 0
v -6.4 -2.56 0
v -5.76 -2.56 0
v -6.4 -3.2 0
v -7.04 -3.2 0
v -7.04 -2.56 0
v -6.4 -2.56 0
v -4.48 -3.84 0
v -5.12 -3.84 0
v -5.12 -3.2 0
v -4.48 -3.2 0
v -5.12 -3.84 0
v -5.76 -3.84 0
v -5.76 -3.2 0
v -5.12 -3.2 0
v -5.76 -3.84 0
v -6.4 -3.84 0
v -6.4 -3.2 0
v -5.76 -3.2 0
v -6.4 -3.84 0
v -7.04 -3.84 0
v -7.04 -3.2 0
v -6.4 -3.2 0
v -4.48 -4.48 0
v -5.12 -4.48 0
v -5.12 -3.84 0
v -4.48 -3.84 0
v -5.12 -4.48 0
v -5.76 -4.48 0
v -5.76 -3.84 0
v -5.12 -3.84 0
v -5.76 -4.48 0
v -6.4 -4.48 0
v -6.4 -3.84 0
v -5.76 -3.84 0
v -6.4 -4.48 0
v -7.04 -4.48 0
v -7.04 -3.84 0
v -6.4 -3.84 0

# Texture cooridinates (Count = 37)
vt 0.5588235 0.5454545
vt 0.5882353 0.5454545
vt 0.5882353 0.5909091
vt 0.5588235 0.5909091
vt 0.5294118 0.5
vt 0.5588235 0.5
vt 0.5294118 0.5454545
vt 0.5882353 0.5
vt 0.6176471 0.5
vt 0.6176471 0.5454545
vt 0.6470588 0.5
vt 0.6470588 0.5454545
vt 0.5294118 0.4545454
vt 0.5588235 0.4545454
vt 0.5882353 0.4545454
vt 0.6176471 0.4545454
vt 0.6470588 0.4545454
vt 0.5294118 0.4090909
vt 0.5588235 0.4090909
vt 0.5882353 0.4090909
vt 0.6176471 0.4090909
vt 0.6470588 0.4090909
vt 0.5294118 0.3636364
vt 0.5588235 0.3636364
vt 0.5882353 0.3636364
vt 0.6176471 0.3636364
vt 0.6470588 0.3636364
vt 0.5294118 0.3181818
vt 0.5588235 0.3181818
vt 0.5882353 0.3181818
vt 0.6176471 0.3181818
vt 0.6470588 0.3181818
vt 0.5294118 0.2727273
vt 0.5588235 0.2727273
vt 0.5882353 0.2727273
vt 0.6176471 0.2727273
vt 0.6470588 0.2727273

# Normal
vn 0 0 -1

# Mesh description
g Test22_mesh_0136

# Faces
f 1/1/1 2/2/1 3/3/1 4/4/1
f 5/1/1 6/2/1 7/3/1 8/4/1
f 9/1/1 10/2/1 11/3/1 12/4/1
f 13/1/1 14/2/1 15/3/1 16/4/1
f 17/5/1 18/6/1 19/1/1 20/7/1
f 21/6/1 22/8/1 23/2/1 24/1/1
f 25/8/1 26/9/1 27/10/1 28/2/1
f 29/9/1 30/11/1 31/12/1 32/10/1
f 33/13/1 34/14/1 35/6/1 36/5/1
f 37/14/1 38/15/1 39/8/1 40/6/1
f 41/15/1 42/16/1 43/9/1 44/8/1
f 45/16/1 46/17/1 47/11/1 48/9/1
f 49/18/1 50/19/1 51/14/1 52/13/1
f 53/19/1 54/20/1 55/15/1 56/14/1
f 57/20/1 58/21/1 59/16/1 60/15/1
f 61/21/1 62/22/1 63/17/1 64/16/1
f 65/23/1 66/24/1 67/19/1 68/18/1
f 69/24/1 70/25/1 71/20/1 72/19/1
f 73/25/1 74/26/1 75/21/1 76/20/1
f 77/26/1 78/27/1 79/22/1 80/21/1
f 81/28/1 82/29/1 83/24/1 84/23/1
f 85/29/1 86/30/1 87/25/1 88/24/1
f 89/30/1 90/31/1 91/26/1 92/25/1
f 93/31/1 94/32/1 95/27/1 96/26/1
f 97/33/1 98/34/1 99/29/1 100/28/1
f 101/34/1 102/35/1 103/30/1 104/29/1
f 105/35/1 106/36/1 107/31/1 108/30/1
f 109/36/1 110/37/1 111/32/1 112/31/1

