# Tiled2Unity generated file. Do not modify by hand.
# Wavefront file for 'Test22_mesh_0410.obj'

# Vertices (Count = 8)
v -8.96 -4.48 0
v -9.599999 -4.48 0
v -9.599999 -3.84 0
v -8.96 -3.84 0
v -9.599999 -4.48 0
v -10.24 -4.48 0
v -10.24 -3.84 0
v -9.599999 -3.84 0

# Texture cooridinates (Count = 6)
vt 0.3333333 0.4166667
vt 0.5 0.4166667
vt 0.5 0.5
vt 0.3333333 0.5
vt 0.6666667 0.4166667
vt 0.6666667 0.5

# Normal
vn 0 0 -1

# Mesh description
g Test22_mesh_0410

# Faces
f 1/1/1 2/2/1 3/3/1 4/4/1
f 5/2/1 6/5/1 7/6/1 8/3/1

