# Tiled2Unity generated file. Do not modify by hand.
# Wavefront file for 'Test22_mesh_0367.obj'

# Vertices (Count = 40)
v 0 -1.28 0
v -0.64 -1.28 0
v -0.64 -0.64 0
v 0 -0.64 0
v 0 -1.92 0
v -0.64 -1.92 0
v -0.64 -1.28 0
v 0 -1.28 0
v 0 -2.56 0
v -0.64 -2.56 0
v -0.64 -1.92 0
v 0 -1.92 0
v 0 -3.2 0
v -0.64 -3.2 0
v -0.64 -2.56 0
v 0 -2.56 0
v 0 -3.84 0
v -0.64 -3.84 0
v -0.64 -3.2 0
v 0 -3.2 0
v 0 -4.48 0
v -0.64 -4.48 0
v -0.64 -3.84 0
v 0 -3.84 0
v 0 -5.12 0
v -0.64 -5.12 0
v -0.64 -4.48 0
v 0 -4.48 0
v 0 -5.76 0
v -0.64 -5.76 0
v -0.64 -5.12 0
v 0 -5.12 0
v 0 -6.4 0
v -0.64 -6.4 0
v -0.64 -5.76 0
v 0 -5.76 0
v 0 -7.04 0
v -0.64 -7.04 0
v -0.64 -6.4 0
v 0 -6.4 0

# Texture cooridinates (Count = 16)
vt 0.2777778 0.5
vt 0.3333333 0.5
vt 0.3333333 0.5714285
vt 0.2777778 0.5714285
vt 0.2777778 0.4285714
vt 0.3333333 0.4285714
vt 0.2777778 0.3571429
vt 0.3333333 0.3571429
vt 0.2777778 0.2857143
vt 0.3333333 0.2857143
vt 0.2777778 0.0714286
vt 0.2222222 0.0714286
vt 0.2222222 0
vt 0.2777778 0
vt 0.2777778 0.1428571
vt 0.2222222 0.1428571

# Normal
vn 0 0 -1

# Mesh description
g Test22_mesh_0367

# Faces
f 1/1/1 2/2/1 3/3/1 4/4/1
f 5/5/1 6/6/1 7/2/1 8/1/1
f 9/7/1 10/8/1 11/6/1 12/5/1
f 13/7/1 14/8/1 15/6/1 16/5/1
f 17/9/1 18/10/1 19/8/1 20/7/1
f 21/7/1 22/8/1 23/6/1 24/5/1
f 25/9/1 26/10/1 27/8/1 28/7/1
f 29/9/1 30/10/1 31/8/1 32/7/1
f 33/11/1 34/12/1 35/13/1 36/14/1
f 37/15/1 38/16/1 39/12/1 40/11/1

