# Tiled2Unity generated file. Do not modify by hand.
# Wavefront file for 'Test22_mesh_0299.obj'

# Vertices (Count = 16)
v -6.4 -4.48 0
v -7.04 -4.48 0
v -7.04 -3.84 0
v -6.4 -3.84 0
v -7.04 -4.48 0
v -7.68 -4.48 0
v -7.68 -3.84 0
v -7.04 -3.84 0
v -6.4 -5.12 0
v -7.04 -5.12 0
v -7.04 -4.48 0
v -6.4 -4.48 0
v -7.04 -5.12 0
v -7.68 -5.12 0
v -7.68 -4.48 0
v -7.04 -4.48 0

# Texture cooridinates (Count = 9)
vt 0 0.75
vt 0.5 0.75
vt 0.5 1
vt 0 1
vt 1 0.75
vt 1 1
vt 0 0.5
vt 0.5 0.5
vt 1 0.5

# Normal
vn 0 0 -1

# Mesh description
g Test22_mesh_0299

# Faces
f 1/1/1 2/2/1 3/3/1 4/4/1
f 5/2/1 6/5/1 7/6/1 8/3/1
f 9/7/1 10/8/1 11/2/1 12/1/1
f 13/8/1 14/9/1 15/5/1 16/2/1

