# Tiled2Unity generated file. Do not modify by hand.
# Wavefront file for 'Test22_mesh_0209.obj'

# Vertices (Count = 24)
v -3.84 -0.64 0
v -4.48 -0.64 0
v -4.48 0 0
v -3.84 0 0
v -4.48 -0.64 0
v -5.12 -0.64 0
v -5.12 0 0
v -4.48 0 0
v -9.599999 -0.64 0
v -10.24 -0.64 0
v -10.24 0 0
v -9.599999 0 0
v -9.599999 -1.28 0
v -10.24 -1.28 0
v -10.24 -0.64 0
v -9.599999 -0.64 0
v -9.599999 -1.92 0
v -10.24 -1.92 0
v -10.24 -1.28 0
v -9.599999 -1.28 0
v -9.599999 -2.56 0
v -10.24 -2.56 0
v -10.24 -1.92 0
v -9.599999 -1.92 0

# Texture cooridinates (Count = 16)
vt 0.6875 0.96875
vt 0.71875 0.96875
vt 0.71875 1
vt 0.6875 1
vt 0.75 0.96875
vt 0.75 1
vt 0 0.59375
vt 0.03125 0.59375
vt 0.03125 0.625
vt 0 0.625
vt 0 0.5625
vt 0.03125 0.5625
vt 0 0.53125
vt 0.03125 0.53125
vt 0 0.5
vt 0.03125 0.5

# Normal
vn 0 0 -1

# Mesh description
g Test22_mesh_0209

# Faces
f 1/1/1 2/2/1 3/3/1 4/4/1
f 5/2/1 6/5/1 7/6/1 8/3/1
f 9/7/1 10/8/1 11/9/1 12/10/1
f 13/11/1 14/12/1 15/8/1 16/7/1
f 17/13/1 18/14/1 19/12/1 20/11/1
f 21/15/1 22/16/1 23/14/1 24/13/1

