# Tiled2Unity generated file. Do not modify by hand.
# Wavefront file for 'Test22_mesh_0346.obj'

# Vertices (Count = 200)
v 0 -1.28 0
v -0.64 -1.28 0
v -0.64 -0.64 0
v 0 -0.64 0
v -0.64 -1.28 0
v -1.28 -1.28 0
v -1.28 -0.64 0
v -0.64 -0.64 0
v -1.28 -1.28 0
v -1.92 -1.28 0
v -1.92 -0.64 0
v -1.28 -0.64 0
v -1.92 -1.28 0
v -2.56 -1.28 0
v -2.56 -0.64 0
v -1.92 -0.64 0
v -2.56 -1.28 0
v -3.2 -1.28 0
v -3.2 -0.64 0
v -2.56 -0.64 0
v 0 -1.92 0
v -0.64 -1.92 0
v -0.64 -1.28 0
v 0 -1.28 0
v -0.64 -1.92 0
v -1.28 -1.92 0
v -1.28 -1.28 0
v -0.64 -1.28 0
v -1.28 -1.92 0
v -1.92 -1.92 0
v -1.92 -1.28 0
v -1.28 -1.28 0
v -1.92 -1.92 0
v -2.56 -1.92 0
v -2.56 -1.28 0
v -1.92 -1.28 0
v -2.56 -1.92 0
v -3.2 -1.92 0
v -3.2 -1.28 0
v -2.56 -1.28 0
v 0 -2.56 0
v -0.64 -2.56 0
v -0.64 -1.92 0
v 0 -1.92 0
v -0.64 -2.56 0
v -1.28 -2.56 0
v -1.28 -1.92 0
v -0.64 -1.92 0
v -1.28 -2.56 0
v -1.92 -2.56 0
v -1.92 -1.92 0
v -1.28 -1.92 0
v -1.92 -2.56 0
v -2.56 -2.56 0
v -2.56 -1.92 0
v -1.92 -1.92 0
v -2.56 -2.56 0
v -3.2 -2.56 0
v -3.2 -1.92 0
v -2.56 -1.92 0
v 0 -3.2 0
v -0.64 -3.2 0
v -0.64 -2.56 0
v 0 -2.56 0
v -0.64 -3.2 0
v -1.28 -3.2 0
v -1.28 -2.56 0
v -0.64 -2.56 0
v -1.28 -3.2 0
v -1.92 -3.2 0
v -1.92 -2.56 0
v -1.28 -2.56 0
v -1.92 -3.2 0
v -2.56 -3.2 0
v -2.56 -2.56 0
v -1.92 -2.56 0
v -2.56 -3.2 0
v -3.2 -3.2 0
v -3.2 -2.56 0
v -2.56 -2.56 0
v 0 -3.84 0
v -0.64 -3.84 0
v -0.64 -3.2 0
v 0 -3.2 0
v -0.64 -3.84 0
v -1.28 -3.84 0
v -1.28 -3.2 0
v -0.64 -3.2 0
v -1.28 -3.84 0
v -1.92 -3.84 0
v -1.92 -3.2 0
v -1.28 -3.2 0
v -1.92 -3.84 0
v -2.56 -3.84 0
v -2.56 -3.2 0
v -1.92 -3.2 0
v -2.56 -3.84 0
v -3.2 -3.84 0
v -3.2 -3.2 0
v -2.56 -3.2 0
v 0 -7.04 0
v -0.64 -7.04 0
v -0.64 -6.4 0
v 0 -6.4 0
v -0.64 -7.04 0
v -1.28 -7.04 0
v -1.28 -6.4 0
v -0.64 -6.4 0
v -1.28 -7.04 0
v -1.92 -7.04 0
v -1.92 -6.4 0
v -1.28 -6.4 0
v -1.92 -7.04 0
v -2.56 -7.04 0
v -2.56 -6.4 0
v -1.92 -6.4 0
v -2.56 -7.04 0
v -3.2 -7.04 0
v -3.2 -6.4 0
v -2.56 -6.4 0
v 0 -7.68 0
v -0.64 -7.68 0
v -0.64 -7.04 0
v 0 -7.04 0
v -0.64 -7.68 0
v -1.28 -7.68 0
v -1.28 -7.04 0
v -0.64 -7.04 0
v -1.28 -7.68 0
v -1.92 -7.68 0
v -1.92 -7.04 0
v -1.28 -7.04 0
v -1.92 -7.68 0
v -2.56 -7.68 0
v -2.56 -7.04 0
v -1.92 -7.04 0
v -2.56 -7.68 0
v -3.2 -7.68 0
v -3.2 -7.04 0
v -2.56 -7.04 0
v 0 -8.32 0
v -0.64 -8.32 0
v -0.64 -7.68 0
v 0 -7.68 0
v -0.64 -8.32 0
v -1.28 -8.32 0
v -1.28 -7.68 0
v -0.64 -7.68 0
v -1.28 -8.32 0
v -1.92 -8.32 0
v -1.92 -7.68 0
v -1.28 -7.68 0
v -1.92 -8.32 0
v -2.56 -8.32 0
v -2.56 -7.68 0
v -1.92 -7.68 0
v -2.56 -8.32 0
v -3.2 -8.32 0
v -3.2 -7.68 0
v -2.56 -7.68 0
v 0 -8.96 0
v -0.64 -8.96 0
v -0.64 -8.32 0
v 0 -8.32 0
v -0.64 -8.96 0
v -1.28 -8.96 0
v -1.28 -8.32 0
v -0.64 -8.32 0
v -1.28 -8.96 0
v -1.92 -8.96 0
v -1.92 -8.32 0
v -1.28 -8.32 0
v -1.92 -8.96 0
v -2.56 -8.96 0
v -2.56 -8.32 0
v -1.92 -8.32 0
v -2.56 -8.96 0
v -3.2 -8.96 0
v -3.2 -8.32 0
v -2.56 -8.32 0
v 0 -9.599999 0
v -0.64 -9.599999 0
v -0.64 -8.96 0
v 0 -8.96 0
v -0.64 -9.599999 0
v -1.28 -9.599999 0
v -1.28 -8.96 0
v -0.64 -8.96 0
v -1.28 -9.599999 0
v -1.92 -9.599999 0
v -1.92 -8.96 0
v -1.28 -8.96 0
v -1.92 -9.599999 0
v -2.56 -9.599999 0
v -2.56 -8.96 0
v -1.92 -8.96 0
v -2.56 -9.599999 0
v -3.2 -9.599999 0
v -3.2 -8.96 0
v -2.56 -8.96 0

# Texture cooridinates (Count = 9)
vt 0.46875 0.78125
vt 0.5 0.78125
vt 0.5 0.8125
vt 0.46875 0.8125
vt 0.4375 0.78125
vt 0.4375 0.8125
vt 0.46875 0.75
vt 0.5 0.75
vt 0.4375 0.75

# Normal
vn 0 0 -1

# Mesh description
g Test22_mesh_0346

# Faces
f 1/1/1 2/2/1 3/3/1 4/4/1
f 5/1/1 6/2/1 7/3/1 8/4/1
f 9/1/1 10/2/1 11/3/1 12/4/1
f 13/1/1 14/2/1 15/3/1 16/4/1
f 17/1/1 18/2/1 19/3/1 20/4/1
f 21/5/1 22/1/1 23/4/1 24/6/1
f 25/1/1 26/2/1 27/3/1 28/4/1
f 29/7/1 30/8/1 31/2/1 32/1/1
f 33/7/1 34/8/1 35/2/1 36/1/1
f 37/7/1 38/8/1 39/2/1 40/1/1
f 41/9/1 42/7/1 43/1/1 44/5/1
f 45/7/1 46/8/1 47/2/1 48/1/1
f 49/5/1 50/1/1 51/4/1 52/6/1
f 53/9/1 54/7/1 55/1/1 56/5/1
f 57/7/1 58/8/1 59/2/1 60/1/1
f 61/5/1 62/1/1 63/4/1 64/6/1
f 65/9/1 66/7/1 67/1/1 68/5/1
f 69/5/1 70/1/1 71/4/1 72/6/1
f 73/9/1 74/7/1 75/1/1 76/5/1
f 77/7/1 78/8/1 79/2/1 80/1/1
f 81/9/1 82/7/1 83/1/1 84/5/1
f 85/7/1 86/8/1 87/2/1 88/1/1
f 89/9/1 90/7/1 91/1/1 92/5/1
f 93/9/1 94/7/1 95/1/1 96/5/1
f 97/7/1 98/8/1 99/2/1 100/1/1
f 101/1/1 102/2/1 103/3/1 104/4/1
f 105/1/1 106/2/1 107/3/1 108/4/1
f 109/1/1 110/2/1 111/3/1 112/4/1
f 113/1/1 114/2/1 115/3/1 116/4/1
f 117/1/1 118/2/1 119/3/1 120/4/1
f 121/5/1 122/1/1 123/4/1 124/6/1
f 125/5/1 126/1/1 127/4/1 128/6/1
f 129/1/1 130/2/1 131/3/1 132/4/1
f 133/7/1 134/8/1 135/2/1 136/1/1
f 137/7/1 138/8/1 139/2/1 140/1/1
f 141/9/1 142/7/1 143/1/1 144/5/1
f 145/9/1 146/7/1 147/1/1 148/5/1
f 149/7/1 150/8/1 151/2/1 152/1/1
f 153/9/1 154/7/1 155/1/1 156/5/1
f 157/7/1 158/8/1 159/2/1 160/1/1
f 161/5/1 162/1/1 163/4/1 164/6/1
f 165/5/1 166/1/1 167/4/1 168/6/1
f 169/5/1 170/1/1 171/4/1 172/6/1
f 173/9/1 174/7/1 175/1/1 176/5/1
f 177/7/1 178/8/1 179/2/1 180/1/1
f 181/9/1 182/7/1 183/1/1 184/5/1
f 185/9/1 186/7/1 187/1/1 188/5/1
f 189/9/1 190/7/1 191/1/1 192/5/1
f 193/9/1 194/7/1 195/1/1 196/5/1
f 197/7/1 198/8/1 199/2/1 200/1/1

