# Tiled2Unity generated file. Do not modify by hand.
# Wavefront file for 'Test22_mesh_0370.obj'

# Vertices (Count = 216)
v 0 -1.28 0
v -0.64 -1.28 0
v -0.64 -0.64 0
v 0 -0.64 0
v -0.64 -1.28 0
v -1.28 -1.28 0
v -1.28 -0.64 0
v -0.64 -0.64 0
v -1.28 -1.28 0
v -1.92 -1.28 0
v -1.92 -0.64 0
v -1.28 -0.64 0
v -1.92 -1.28 0
v -2.56 -1.28 0
v -2.56 -0.64 0
v -1.92 -0.64 0
v -2.56 -1.28 0
v -3.2 -1.28 0
v -3.2 -0.64 0
v -2.56 -0.64 0
v 0 -1.92 0
v -0.64 -1.92 0
v -0.64 -1.28 0
v 0 -1.28 0
v -0.64 -1.92 0
v -1.28 -1.92 0
v -1.28 -1.28 0
v -0.64 -1.28 0
v -1.28 -1.92 0
v -1.92 -1.92 0
v -1.92 -1.28 0
v -1.28 -1.28 0
v -1.92 -1.92 0
v -2.56 -1.92 0
v -2.56 -1.28 0
v -1.92 -1.28 0
v -2.56 -1.92 0
v -3.2 -1.92 0
v -3.2 -1.28 0
v -2.56 -1.28 0
v 0 -2.56 0
v -0.64 -2.56 0
v -0.64 -1.92 0
v 0 -1.92 0
v -0.64 -2.56 0
v -1.28 -2.56 0
v -1.28 -1.92 0
v -0.64 -1.92 0
v -1.28 -2.56 0
v -1.92 -2.56 0
v -1.92 -1.92 0
v -1.28 -1.92 0
v -1.92 -2.56 0
v -2.56 -2.56 0
v -2.56 -1.92 0
v -1.92 -1.92 0
v -2.56 -2.56 0
v -3.2 -2.56 0
v -3.2 -1.92 0
v -2.56 -1.92 0
v 0 -3.2 0
v -0.64 -3.2 0
v -0.64 -2.56 0
v 0 -2.56 0
v -0.64 -3.2 0
v -1.28 -3.2 0
v -1.28 -2.56 0
v -0.64 -2.56 0
v -1.28 -3.2 0
v -1.92 -3.2 0
v -1.92 -2.56 0
v -1.28 -2.56 0
v -1.92 -3.2 0
v -2.56 -3.2 0
v -2.56 -2.56 0
v -1.92 -2.56 0
v -2.56 -3.2 0
v -3.2 -3.2 0
v -3.2 -2.56 0
v -2.56 -2.56 0
v 0 -3.84 0
v -0.64 -3.84 0
v -0.64 -3.2 0
v 0 -3.2 0
v -0.64 -3.84 0
v -1.28 -3.84 0
v -1.28 -3.2 0
v -0.64 -3.2 0
v -1.28 -3.84 0
v -1.92 -3.84 0
v -1.92 -3.2 0
v -1.28 -3.2 0
v -1.92 -3.84 0
v -2.56 -3.84 0
v -2.56 -3.2 0
v -1.92 -3.2 0
v -2.56 -3.84 0
v -3.2 -3.84 0
v -3.2 -3.2 0
v -2.56 -3.2 0
v 0 -4.48 0
v -0.64 -4.48 0
v -0.64 -3.84 0
v 0 -3.84 0
v -0.64 -4.48 0
v -1.28 -4.48 0
v -1.28 -3.84 0
v -0.64 -3.84 0
v -1.28 -4.48 0
v -1.92 -4.48 0
v -1.92 -3.84 0
v -1.28 -3.84 0
v -1.92 -4.48 0
v -2.56 -4.48 0
v -2.56 -3.84 0
v -1.92 -3.84 0
v -2.56 -4.48 0
v -3.2 -4.48 0
v -3.2 -3.84 0
v -2.56 -3.84 0
v 0 -5.12 0
v -0.64 -5.12 0
v -0.64 -4.48 0
v 0 -4.48 0
v -0.64 -5.12 0
v -1.28 -5.12 0
v -1.28 -4.48 0
v -0.64 -4.48 0
v -1.28 -5.12 0
v -1.92 -5.12 0
v -1.92 -4.48 0
v -1.28 -4.48 0
v -1.92 -5.12 0
v -2.56 -5.12 0
v -2.56 -4.48 0
v -1.92 -4.48 0
v -2.56 -5.12 0
v -3.2 -5.12 0
v -3.2 -4.48 0
v -2.56 -4.48 0
v 0 -5.76 0
v -0.64 -5.76 0
v -0.64 -5.12 0
v 0 -5.12 0
v -0.64 -5.76 0
v -1.28 -5.76 0
v -1.28 -5.12 0
v -0.64 -5.12 0
v -1.28 -5.76 0
v -1.92 -5.76 0
v -1.92 -5.12 0
v -1.28 -5.12 0
v -1.92 -5.76 0
v -2.56 -5.76 0
v -2.56 -5.12 0
v -1.92 -5.12 0
v -2.56 -5.76 0
v -3.2 -5.76 0
v -3.2 -5.12 0
v -2.56 -5.12 0
v -1.92 -6.4 0
v -2.56 -6.4 0
v -2.56 -5.76 0
v -1.92 -5.76 0
v -2.56 -6.4 0
v -3.2 -6.4 0
v -3.2 -5.76 0
v -2.56 -5.76 0
v -1.92 -7.04 0
v -2.56 -7.04 0
v -2.56 -6.4 0
v -1.92 -6.4 0
v -2.56 -7.04 0
v -3.2 -7.04 0
v -3.2 -6.4 0
v -2.56 -6.4 0
v -1.92 -7.68 0
v -2.56 -7.68 0
v -2.56 -7.04 0
v -1.92 -7.04 0
v -2.56 -7.68 0
v -3.2 -7.68 0
v -3.2 -7.04 0
v -2.56 -7.04 0
v -1.92 -8.32 0
v -2.56 -8.32 0
v -2.56 -7.68 0
v -1.92 -7.68 0
v -2.56 -8.32 0
v -3.2 -8.32 0
v -3.2 -7.68 0
v -2.56 -7.68 0
v -1.92 -8.96 0
v -2.56 -8.96 0
v -2.56 -8.32 0
v -1.92 -8.32 0
v -2.56 -8.96 0
v -3.2 -8.96 0
v -3.2 -8.32 0
v -2.56 -8.32 0
v -1.92 -9.599999 0
v -2.56 -9.599999 0
v -2.56 -8.96 0
v -1.92 -8.96 0
v -2.56 -9.599999 0
v -3.2 -9.599999 0
v -3.2 -8.96 0
v -2.56 -8.96 0
v -1.92 -10.24 0
v -2.56 -10.24 0
v -2.56 -9.599999 0
v -1.92 -9.599999 0
v -2.56 -10.24 0
v -3.2 -10.24 0
v -3.2 -9.599999 0
v -2.56 -9.599999 0

# Texture cooridinates (Count = 36)
vt 0.04166667 0.5666667
vt 0.08333334 0.5666667
vt 0.08333334 0.6
vt 0.04166667 0.6
vt 0 0.5666667
vt 0 0.6
vt 0.125 0.5666667
vt 0.125 0.6
vt 0.04166667 0.5333333
vt 0.08333334 0.5333333
vt 0 0.5333333
vt 0.1666667 0.4666666
vt 0.2083333 0.4666666
vt 0.2083333 0.5
vt 0.1666667 0.5
vt 0.25 0.4666666
vt 0.25 0.5
vt 0.04166667 0.5
vt 0.08333334 0.5
vt 0.04166667 0.4333333
vt 0.08333334 0.4333333
vt 0.08333334 0.4666666
vt 0.04166667 0.4666666
vt 0 0.4333333
vt 0 0.4666666
vt 0.1666667 0.4333333
vt 0.2083333 0.4333333
vt 0.25 0.4333333
vt 0.04166667 0.4
vt 0.08333334 0.4
vt 0 0.4
vt 0.04166667 0.3666667
vt 0.08333334 0.3666667
vt 0 0.3666667
vt 0.04166667 0.3333333
vt 0.08333334 0.3333333

# Normal
vn 0 0 -1

# Mesh description
g Test22_mesh_0370

# Faces
f 1/1/1 2/2/1 3/3/1 4/4/1
f 5/5/1 6/1/1 7/4/1 8/6/1
f 9/1/1 10/2/1 11/3/1 12/4/1
f 13/5/1 14/1/1 15/4/1 16/6/1
f 17/2/1 18/7/1 19/8/1 20/3/1
f 21/9/1 22/10/1 23/2/1 24/1/1
f 25/11/1 26/9/1 27/1/1 28/5/1
f 29/9/1 30/10/1 31/2/1 32/1/1
f 33/12/1 34/13/1 35/14/1 36/15/1
f 37/13/1 38/16/1 39/17/1 40/14/1
f 41/18/1 42/19/1 43/10/1 44/9/1
f 45/20/1 46/21/1 47/22/1 48/23/1
f 49/24/1 50/20/1 51/23/1 52/25/1
f 53/26/1 54/27/1 55/13/1 56/12/1
f 57/27/1 58/28/1 59/16/1 60/13/1
f 61/23/1 62/22/1 63/19/1 64/18/1
f 65/29/1 66/30/1 67/21/1 68/20/1
f 69/31/1 70/29/1 71/20/1 72/24/1
f 73/12/1 74/13/1 75/14/1 76/15/1
f 77/13/1 78/16/1 79/17/1 80/14/1
f 81/20/1 82/21/1 83/22/1 84/23/1
f 85/24/1 86/20/1 87/23/1 88/25/1
f 89/20/1 90/21/1 91/22/1 92/23/1
f 93/26/1 94/27/1 95/13/1 96/12/1
f 97/27/1 98/28/1 99/16/1 100/13/1
f 101/29/1 102/30/1 103/21/1 104/20/1
f 105/31/1 106/29/1 107/20/1 108/24/1
f 109/29/1 110/30/1 111/21/1 112/20/1
f 113/12/1 114/13/1 115/14/1 116/15/1
f 117/13/1 118/16/1 119/17/1 120/14/1
f 121/32/1 122/33/1 123/30/1 124/29/1
f 125/34/1 126/32/1 127/29/1 128/31/1
f 129/32/1 130/33/1 131/30/1 132/29/1
f 133/26/1 134/27/1 135/13/1 136/12/1
f 137/27/1 138/28/1 139/16/1 140/13/1
f 141/35/1 142/36/1 143/33/1 144/32/1
f 145/35/1 146/36/1 147/33/1 148/32/1
f 149/35/1 150/36/1 151/33/1 152/32/1
f 153/12/1 154/13/1 155/14/1 156/15/1
f 157/13/1 158/16/1 159/17/1 160/14/1
f 161/26/1 162/27/1 163/13/1 164/12/1
f 165/27/1 166/28/1 167/16/1 168/13/1
f 169/12/1 170/13/1 171/14/1 172/15/1
f 173/13/1 174/16/1 175/17/1 176/14/1
f 177/26/1 178/27/1 179/13/1 180/12/1
f 181/27/1 182/28/1 183/16/1 184/13/1
f 185/12/1 186/13/1 187/14/1 188/15/1
f 189/13/1 190/16/1 191/17/1 192/14/1
f 193/26/1 194/27/1 195/13/1 196/12/1
f 197/27/1 198/28/1 199/16/1 200/13/1
f 201/12/1 202/13/1 203/14/1 204/15/1
f 205/13/1 206/16/1 207/17/1 208/14/1
f 209/26/1 210/27/1 211/13/1 212/12/1
f 213/27/1 214/28/1 215/16/1 216/13/1

