# Tiled2Unity generated file. Do not modify by hand.
# Wavefront file for 'Test22_mesh_0391.obj'

# Vertices (Count = 40)
v 0 -9.599999 0
v -0.64 -9.599999 0
v -0.64 -8.96 0
v 0 -8.96 0
v -0.64 -9.599999 0
v -1.28 -9.599999 0
v -1.28 -8.96 0
v -0.64 -8.96 0
v -1.28 -9.599999 0
v -1.92 -9.599999 0
v -1.92 -8.96 0
v -1.28 -8.96 0
v -1.92 -9.599999 0
v -2.56 -9.599999 0
v -2.56 -8.96 0
v -1.92 -8.96 0
v -2.56 -9.599999 0
v -3.2 -9.599999 0
v -3.2 -8.96 0
v -2.56 -8.96 0
v 0 -10.24 0
v -0.64 -10.24 0
v -0.64 -9.599999 0
v 0 -9.599999 0
v -0.64 -10.24 0
v -1.28 -10.24 0
v -1.28 -9.599999 0
v -0.64 -9.599999 0
v -1.28 -10.24 0
v -1.92 -10.24 0
v -1.92 -9.599999 0
v -1.28 -9.599999 0
v -1.92 -10.24 0
v -2.56 -10.24 0
v -2.56 -9.599999 0
v -1.92 -9.599999 0
v -2.56 -10.24 0
v -3.2 -10.24 0
v -3.2 -9.599999 0
v -2.56 -9.599999 0

# Texture cooridinates (Count = 18)
vt 0.53125 0.4375
vt 0.53125 0.46875
vt 0.5 0.46875
vt 0.5 0.4375
vt 0.53125 0.5
vt 0.5 0.5
vt 0.5625 0.4375
vt 0.5625 0.46875
vt 0.5625 0.5
vt 0.375 0.625
vt 0.40625 0.625
vt 0.40625 0.65625
vt 0.375 0.65625
vt 0.3125 0.65625
vt 0.34375 0.65625
vt 0.34375 0.6875
vt 0.3125 0.6875
vt 0.375 0.6875

# Normal
vn 0 0 -1

# Mesh description
g Test22_mesh_0391

# Faces
f 1/1/1 2/2/1 3/3/1 4/4/1
f 5/2/1 6/5/1 7/6/1 8/3/1
f 9/2/1 10/1/1 11/7/1 12/8/1
f 13/5/1 14/2/1 15/8/1 16/9/1
f 17/2/1 18/1/1 19/7/1 20/8/1
f 21/10/1 22/11/1 23/12/1 24/13/1
f 25/6/1 26/3/1 27/2/1 28/5/1
f 29/3/1 30/4/1 31/1/1 32/2/1
f 33/14/1 34/15/1 35/16/1 36/17/1
f 37/15/1 38/13/1 39/18/1 40/16/1

