# Tiled2Unity generated file. Do not modify by hand.
# Wavefront file for 'Test22_mesh_0389.obj'

# Vertices (Count = 220)
v 0 -0.64 0
v -0.64 -0.64 0
v -0.64 0 0
v 0 0 0
v -0.64 -0.64 0
v -1.28 -0.64 0
v -1.28 0 0
v -0.64 0 0
v -1.28 -0.64 0
v -1.92 -0.64 0
v -1.92 0 0
v -1.28 0 0
v -1.92 -0.64 0
v -2.56 -0.64 0
v -2.56 0 0
v -1.92 0 0
v -2.56 -0.64 0
v -3.2 -0.64 0
v -3.2 0 0
v -2.56 0 0
v 0 -1.28 0
v -0.64 -1.28 0
v -0.64 -0.64 0
v 0 -0.64 0
v -0.64 -1.28 0
v -1.28 -1.28 0
v -1.28 -0.64 0
v -0.64 -0.64 0
v -1.28 -1.28 0
v -1.92 -1.28 0
v -1.92 -0.64 0
v -1.28 -0.64 0
v -1.92 -1.28 0
v -2.56 -1.28 0
v -2.56 -0.64 0
v -1.92 -0.64 0
v -2.56 -1.28 0
v -3.2 -1.28 0
v -3.2 -0.64 0
v -2.56 -0.64 0
v 0 -1.92 0
v -0.64 -1.92 0
v -0.64 -1.28 0
v 0 -1.28 0
v -0.64 -1.92 0
v -1.28 -1.92 0
v -1.28 -1.28 0
v -0.64 -1.28 0
v -1.28 -1.92 0
v -1.92 -1.92 0
v -1.92 -1.28 0
v -1.28 -1.28 0
v -1.92 -1.92 0
v -2.56 -1.92 0
v -2.56 -1.28 0
v -1.92 -1.28 0
v -2.56 -1.92 0
v -3.2 -1.92 0
v -3.2 -1.28 0
v -2.56 -1.28 0
v 0 -2.56 0
v -0.64 -2.56 0
v -0.64 -1.92 0
v 0 -1.92 0
v -0.64 -2.56 0
v -1.28 -2.56 0
v -1.28 -1.92 0
v -0.64 -1.92 0
v -1.28 -2.56 0
v -1.92 -2.56 0
v -1.92 -1.92 0
v -1.28 -1.92 0
v -1.92 -2.56 0
v -2.56 -2.56 0
v -2.56 -1.92 0
v -1.92 -1.92 0
v -2.56 -2.56 0
v -3.2 -2.56 0
v -3.2 -1.92 0
v -2.56 -1.92 0
v 0 -3.2 0
v -0.64 -3.2 0
v -0.64 -2.56 0
v 0 -2.56 0
v -0.64 -3.2 0
v -1.28 -3.2 0
v -1.28 -2.56 0
v -0.64 -2.56 0
v -1.28 -3.2 0
v -1.92 -3.2 0
v -1.92 -2.56 0
v -1.28 -2.56 0
v -1.92 -3.2 0
v -2.56 -3.2 0
v -2.56 -2.56 0
v -1.92 -2.56 0
v -2.56 -3.2 0
v -3.2 -3.2 0
v -3.2 -2.56 0
v -2.56 -2.56 0
v 0 -3.84 0
v -0.64 -3.84 0
v -0.64 -3.2 0
v 0 -3.2 0
v -0.64 -3.84 0
v -1.28 -3.84 0
v -1.28 -3.2 0
v -0.64 -3.2 0
v -1.28 -3.84 0
v -1.92 -3.84 0
v -1.92 -3.2 0
v -1.28 -3.2 0
v -1.92 -3.84 0
v -2.56 -3.84 0
v -2.56 -3.2 0
v -1.92 -3.2 0
v -2.56 -3.84 0
v -3.2 -3.84 0
v -3.2 -3.2 0
v -2.56 -3.2 0
v 0 -4.48 0
v -0.64 -4.48 0
v -0.64 -3.84 0
v 0 -3.84 0
v -0.64 -4.48 0
v -1.28 -4.48 0
v -1.28 -3.84 0
v -0.64 -3.84 0
v -1.28 -4.48 0
v -1.92 -4.48 0
v -1.92 -3.84 0
v -1.28 -3.84 0
v -1.92 -4.48 0
v -2.56 -4.48 0
v -2.56 -3.84 0
v -1.92 -3.84 0
v -2.56 -4.48 0
v -3.2 -4.48 0
v -3.2 -3.84 0
v -2.56 -3.84 0
v 0 -5.12 0
v -0.64 -5.12 0
v -0.64 -4.48 0
v 0 -4.48 0
v -0.64 -5.12 0
v -1.28 -5.12 0
v -1.28 -4.48 0
v -0.64 -4.48 0
v -1.28 -5.12 0
v -1.92 -5.12 0
v -1.92 -4.48 0
v -1.28 -4.48 0
v -1.92 -5.12 0
v -2.56 -5.12 0
v -2.56 -4.48 0
v -1.92 -4.48 0
v -2.56 -5.12 0
v -3.2 -5.12 0
v -3.2 -4.48 0
v -2.56 -4.48 0
v 0 -5.76 0
v -0.64 -5.76 0
v -0.64 -5.12 0
v 0 -5.12 0
v -0.64 -5.76 0
v -1.28 -5.76 0
v -1.28 -5.12 0
v -0.64 -5.12 0
v -1.28 -5.76 0
v -1.92 -5.76 0
v -1.92 -5.12 0
v -1.28 -5.12 0
v -1.92 -5.76 0
v -2.56 -5.76 0
v -2.56 -5.12 0
v -1.92 -5.12 0
v -2.56 -5.76 0
v -3.2 -5.76 0
v -3.2 -5.12 0
v -2.56 -5.12 0
v 0 -6.4 0
v -0.64 -6.4 0
v -0.64 -5.76 0
v 0 -5.76 0
v -0.64 -6.4 0
v -1.28 -6.4 0
v -1.28 -5.76 0
v -0.64 -5.76 0
v -1.28 -6.4 0
v -1.92 -6.4 0
v -1.92 -5.76 0
v -1.28 -5.76 0
v -1.92 -6.4 0
v -2.56 -6.4 0
v -2.56 -5.76 0
v -1.92 -5.76 0
v -2.56 -6.4 0
v -3.2 -6.4 0
v -3.2 -5.76 0
v -2.56 -5.76 0
v 0 -7.04 0
v -0.64 -7.04 0
v -0.64 -6.4 0
v 0 -6.4 0
v -0.64 -7.04 0
v -1.28 -7.04 0
v -1.28 -6.4 0
v -0.64 -6.4 0
v -1.28 -7.04 0
v -1.92 -7.04 0
v -1.92 -6.4 0
v -1.28 -6.4 0
v -1.92 -7.04 0
v -2.56 -7.04 0
v -2.56 -6.4 0
v -1.92 -6.4 0
v -2.56 -7.04 0
v -3.2 -7.04 0
v -3.2 -6.4 0
v -2.56 -6.4 0

# Texture cooridinates (Count = 15)
vt 0.21875 0.34375
vt 0.1875 0.34375
vt 0.1875 0.3125
vt 0.21875 0.3125
vt 0.375 0.5
vt 0.40625 0.5
vt 0.40625 0.53125
vt 0.375 0.53125
vt 0.4375 0.5
vt 0.4375 0.53125
vt 0.40625 0.5625
vt 0.375 0.5625
vt 0.4375 0.5625
vt 0.21875 0.375
vt 0.1875 0.375

# Normal
vn 0 0 -1

# Mesh description
g Test22_mesh_0389

# Faces
f 1/1/1 2/2/1 3/3/1 4/4/1
f 5/5/1 6/6/1 7/7/1 8/8/1
f 9/6/1 10/9/1 11/10/1 12/7/1
f 13/5/1 14/6/1 15/7/1 16/8/1
f 17/6/1 18/9/1 19/10/1 20/7/1
f 21/1/1 22/2/1 23/3/1 24/4/1
f 25/8/1 26/7/1 27/11/1 28/12/1
f 29/7/1 30/10/1 31/13/1 32/11/1
f 33/8/1 34/7/1 35/11/1 36/12/1
f 37/7/1 38/10/1 39/13/1 40/11/1
f 41/1/1 42/2/1 43/3/1 44/4/1
f 45/5/1 46/6/1 47/7/1 48/8/1
f 49/6/1 50/9/1 51/10/1 52/7/1
f 53/5/1 54/6/1 55/7/1 56/8/1
f 57/6/1 58/9/1 59/10/1 60/7/1
f 61/1/1 62/2/1 63/3/1 64/4/1
f 65/8/1 66/7/1 67/11/1 68/12/1
f 69/7/1 70/10/1 71/13/1 72/11/1
f 73/8/1 74/7/1 75/11/1 76/12/1
f 77/7/1 78/10/1 79/13/1 80/11/1
f 81/1/1 82/2/1 83/3/1 84/4/1
f 85/5/1 86/6/1 87/7/1 88/8/1
f 89/6/1 90/9/1 91/10/1 92/7/1
f 93/5/1 94/6/1 95/7/1 96/8/1
f 97/6/1 98/9/1 99/10/1 100/7/1
f 101/1/1 102/2/1 103/3/1 104/4/1
f 105/8/1 106/7/1 107/11/1 108/12/1
f 109/7/1 110/10/1 111/13/1 112/11/1
f 113/8/1 114/7/1 115/11/1 116/12/1
f 117/7/1 118/10/1 119/13/1 120/11/1
f 121/1/1 122/2/1 123/3/1 124/4/1
f 125/5/1 126/6/1 127/7/1 128/8/1
f 129/6/1 130/9/1 131/10/1 132/7/1
f 133/5/1 134/6/1 135/7/1 136/8/1
f 137/6/1 138/9/1 139/10/1 140/7/1
f 141/1/1 142/2/1 143/3/1 144/4/1
f 145/8/1 146/7/1 147/11/1 148/12/1
f 149/7/1 150/10/1 151/13/1 152/11/1
f 153/8/1 154/7/1 155/11/1 156/12/1
f 157/7/1 158/10/1 159/13/1 160/11/1
f 161/1/1 162/2/1 163/3/1 164/4/1
f 165/5/1 166/6/1 167/7/1 168/8/1
f 169/6/1 170/9/1 171/10/1 172/7/1
f 173/5/1 174/6/1 175/7/1 176/8/1
f 177/6/1 178/9/1 179/10/1 180/7/1
f 181/14/1 182/15/1 183/2/1 184/1/1
f 185/8/1 186/7/1 187/11/1 188/12/1
f 189/7/1 190/10/1 191/13/1 192/11/1
f 193/8/1 194/7/1 195/11/1 196/12/1
f 197/7/1 198/10/1 199/13/1 200/11/1
f 201/7/1 202/10/1 203/13/1 204/11/1
f 205/8/1 206/7/1 207/11/1 208/12/1
f 209/7/1 210/10/1 211/13/1 212/11/1
f 213/8/1 214/7/1 215/11/1 216/12/1
f 217/7/1 218/10/1 219/13/1 220/11/1

