# Tiled2Unity generated file. Do not modify by hand.
# Wavefront file for 'Test22_mesh_0420.obj'

# Vertices (Count = 16)
v -8.96 -8.96 0
v -9.599999 -8.96 0
v -9.599999 -8.32 0
v -8.96 -8.32 0
v -9.599999 -8.96 0
v -10.24 -8.96 0
v -10.24 -8.32 0
v -9.599999 -8.32 0
v -8.96 -9.599999 0
v -9.599999 -9.599999 0
v -9.599999 -8.96 0
v -8.96 -8.96 0
v -9.599999 -9.599999 0
v -10.24 -9.599999 0
v -10.24 -8.96 0
v -9.599999 -8.96 0

# Texture cooridinates (Count = 9)
vt 0 0.9166667
vt 0.1666667 0.9166667
vt 0.1666667 1
vt 0 1
vt 0.3333333 0.9166667
vt 0.3333333 1
vt 0 0.8333333
vt 0.1666667 0.8333333
vt 0.3333333 0.8333333

# Normal
vn 0 0 -1

# Mesh description
g Test22_mesh_0420

# Faces
f 1/1/1 2/2/1 3/3/1 4/4/1
f 5/2/1 6/5/1 7/6/1 8/3/1
f 9/7/1 10/8/1 11/2/1 12/1/1
f 13/8/1 14/9/1 15/5/1 16/2/1

