# Tiled2Unity generated file. Do not modify by hand.
# Wavefront file for 'Test22_mesh_0101.obj'

# Vertices (Count = 24)
v -9.599999 -4.48 0
v -10.24 -4.48 0
v -10.24 -3.84 0
v -9.599999 -3.84 0
v -9.599999 -5.12 0
v -10.24 -5.12 0
v -10.24 -4.48 0
v -9.599999 -4.48 0
v -9.599999 -5.76 0
v -10.24 -5.76 0
v -10.24 -5.12 0
v -9.599999 -5.12 0
v -9.599999 -6.4 0
v -10.24 -6.4 0
v -10.24 -5.76 0
v -9.599999 -5.76 0
v -9.599999 -7.04 0
v -10.24 -7.04 0
v -10.24 -6.4 0
v -9.599999 -6.4 0
v -9.599999 -7.68 0
v -10.24 -7.68 0
v -10.24 -7.04 0
v -9.599999 -7.04 0

# Texture cooridinates (Count = 18)
vt 0 0.95
vt 0.05 0.95
vt 0.05 1
vt 0 1
vt 0 0.9
vt 0.05 0.9
vt 0.2 0.1
vt 0.2 0.15
vt 0.15 0.15
vt 0.15 0.1
vt 0.25 0.1
vt 0.25 0.15
vt 0.1 0.7
vt 0.15 0.7
vt 0.15 0.75
vt 0.1 0.75
vt 0.1 0.65
vt 0.15 0.65

# Normal
vn 0 0 -1

# Mesh description
g Test22_mesh_0101

# Faces
f 1/1/1 2/2/1 3/3/1 4/4/1
f 5/5/1 6/6/1 7/2/1 8/1/1
f 9/7/1 10/8/1 11/9/1 12/10/1
f 13/11/1 14/12/1 15/8/1 16/7/1
f 17/13/1 18/14/1 19/15/1 20/16/1
f 21/17/1 22/18/1 23/14/1 24/13/1

