# Tiled2Unity generated file. Do not modify by hand.
# Wavefront file for 'Test22_mesh_0330.obj'

# Vertices (Count = 16)
v -1.92 -9.599999 0
v -2.56 -9.599999 0
v -2.56 -8.96 0
v -1.92 -8.96 0
v -2.56 -9.599999 0
v -3.2 -9.599999 0
v -3.2 -8.96 0
v -2.56 -8.96 0
v -1.92 -10.24 0
v -2.56 -10.24 0
v -2.56 -9.599999 0
v -1.92 -9.599999 0
v -2.56 -10.24 0
v -3.2 -10.24 0
v -3.2 -9.599999 0
v -2.56 -9.599999 0

# Texture cooridinates (Count = 9)
vt 0.4117647 0.8636364
vt 0.4411765 0.8636364
vt 0.4411765 0.9090909
vt 0.4117647 0.9090909
vt 0.4705882 0.8636364
vt 0.4705882 0.9090909
vt 0.4117647 0.8181818
vt 0.4411765 0.8181818
vt 0.4705882 0.8181818

# Normal
vn 0 0 -1

# Mesh description
g Test22_mesh_0330

# Faces
f 1/1/1 2/2/1 3/3/1 4/4/1
f 5/2/1 6/5/1 7/6/1 8/3/1
f 9/7/1 10/8/1 11/2/1 12/1/1
f 13/8/1 14/9/1 15/5/1 16/2/1

