# Tiled2Unity generated file. Do not modify by hand.
# Wavefront file for 'Test22_mesh_0212.obj'

# Vertices (Count = 160)
v 0 -0.64 0
v -0.64 -0.64 0
v -0.64 0 0
v 0 0 0
v -0.64 -0.64 0
v -1.28 -0.64 0
v -1.28 0 0
v -0.64 0 0
v -2.56 -0.64 0
v -3.2 -0.64 0
v -3.2 0 0
v -2.56 0 0
v -3.2 -0.64 0
v -3.84 -0.64 0
v -3.84 0 0
v -3.2 0 0
v -3.84 -0.64 0
v -4.48 -0.64 0
v -4.48 0 0
v -3.84 0 0
v -4.48 -0.64 0
v -5.12 -0.64 0
v -5.12 0 0
v -4.48 0 0
v -5.12 -0.64 0
v -5.76 -0.64 0
v -5.76 0 0
v -5.12 0 0
v -5.76 -0.64 0
v -6.4 -0.64 0
v -6.4 0 0
v -5.76 0 0
v 0 -1.28 0
v -0.64 -1.28 0
v -0.64 -0.64 0
v 0 -0.64 0
v -0.64 -1.28 0
v -1.28 -1.28 0
v -1.28 -0.64 0
v -0.64 -0.64 0
v -2.56 -1.28 0
v -3.2 -1.28 0
v -3.2 -0.64 0
v -2.56 -0.64 0
v -3.2 -1.28 0
v -3.84 -1.28 0
v -3.84 -0.64 0
v -3.2 -0.64 0
v -3.84 -1.28 0
v -4.48 -1.28 0
v -4.48 -0.64 0
v -3.84 -0.64 0
v -4.48 -1.28 0
v -5.12 -1.28 0
v -5.12 -0.64 0
v -4.48 -0.64 0
v -5.12 -1.28 0
v -5.76 -1.28 0
v -5.76 -0.64 0
v -5.12 -0.64 0
v -5.76 -1.28 0
v -6.4 -1.28 0
v -6.4 -0.64 0
v -5.76 -0.64 0
v 0 -1.92 0
v -0.64 -1.92 0
v -0.64 -1.28 0
v 0 -1.28 0
v -0.64 -1.92 0
v -1.28 -1.92 0
v -1.28 -1.28 0
v -0.64 -1.28 0
v -2.56 -1.92 0
v -3.2 -1.92 0
v -3.2 -1.28 0
v -2.56 -1.28 0
v -3.2 -1.92 0
v -3.84 -1.92 0
v -3.84 -1.28 0
v -3.2 -1.28 0
v -3.84 -1.92 0
v -4.48 -1.92 0
v -4.48 -1.28 0
v -3.84 -1.28 0
v -4.48 -1.92 0
v -5.12 -1.92 0
v -5.12 -1.28 0
v -4.48 -1.28 0
v -5.12 -1.92 0
v -5.76 -1.92 0
v -5.76 -1.28 0
v -5.12 -1.28 0
v -5.76 -1.92 0
v -6.4 -1.92 0
v -6.4 -1.28 0
v -5.76 -1.28 0
v 0 -2.56 0
v -0.64 -2.56 0
v -0.64 -1.92 0
v 0 -1.92 0
v -0.64 -2.56 0
v -1.28 -2.56 0
v -1.28 -1.92 0
v -0.64 -1.92 0
v -2.56 -2.56 0
v -3.2 -2.56 0
v -3.2 -1.92 0
v -2.56 -1.92 0
v -3.2 -2.56 0
v -3.84 -2.56 0
v -3.84 -1.92 0
v -3.2 -1.92 0
v -3.84 -2.56 0
v -4.48 -2.56 0
v -4.48 -1.92 0
v -3.84 -1.92 0
v -4.48 -2.56 0
v -5.12 -2.56 0
v -5.12 -1.92 0
v -4.48 -1.92 0
v -5.12 -2.56 0
v -5.76 -2.56 0
v -5.76 -1.92 0
v -5.12 -1.92 0
v -5.76 -2.56 0
v -6.4 -2.56 0
v -6.4 -1.92 0
v -5.76 -1.92 0
v 0 -3.2 0
v -0.64 -3.2 0
v -0.64 -2.56 0
v 0 -2.56 0
v -0.64 -3.2 0
v -1.28 -3.2 0
v -1.28 -2.56 0
v -0.64 -2.56 0
v -2.56 -3.2 0
v -3.2 -3.2 0
v -3.2 -2.56 0
v -2.56 -2.56 0
v -3.2 -3.2 0
v -3.84 -3.2 0
v -3.84 -2.56 0
v -3.2 -2.56 0
v -3.84 -3.2 0
v -4.48 -3.2 0
v -4.48 -2.56 0
v -3.84 -2.56 0
v -4.48 -3.2 0
v -5.12 -3.2 0
v -5.12 -2.56 0
v -4.48 -2.56 0
v -5.12 -3.2 0
v -5.76 -3.2 0
v -5.76 -2.56 0
v -5.12 -2.56 0
v -5.76 -3.2 0
v -6.4 -3.2 0
v -6.4 -2.56 0
v -5.76 -2.56 0

# Texture cooridinates (Count = 42)
vt 0.65625 0.75
vt 0.6875 0.75
vt 0.6875 0.78125
vt 0.65625 0.78125
vt 0.8125 0.5
vt 0.84375 0.5
vt 0.84375 0.53125
vt 0.8125 0.53125
vt 0.90625 0.5
vt 0.9375 0.5
vt 0.9375 0.53125
vt 0.90625 0.53125
vt 0.625 0.75
vt 0.625 0.78125
vt 0.65625 0.71875
vt 0.6875 0.71875
vt 0.8125 0.46875
vt 0.84375 0.46875
vt 0.90625 0.46875
vt 0.9375 0.46875
vt 0.625 0.71875
vt 0.65625 0.6875
vt 0.6875 0.6875
vt 0.8125 0.4375
vt 0.84375 0.4375
vt 0.90625 0.4375
vt 0.9375 0.4375
vt 0.625 0.6875
vt 0.65625 0.65625
vt 0.6875 0.65625
vt 0.8125 0.40625
vt 0.84375 0.40625
vt 0.90625 0.40625
vt 0.9375 0.40625
vt 0.625 0.65625
vt 0.65625 0.625
vt 0.6875 0.625
vt 0.8125 0.375
vt 0.84375 0.375
vt 0.90625 0.375
vt 0.9375 0.375
vt 0.625 0.625

# Normal
vn 0 0 -1

# Mesh description
g Test22_mesh_0212

# Faces
f 1/1/1 2/2/1 3/3/1 4/4/1
f 5/5/1 6/6/1 7/7/1 8/8/1
f 9/9/1 10/10/1 11/11/1 12/12/1
f 13/13/1 14/1/1 15/4/1 16/14/1
f 17/1/1 18/2/1 19/3/1 20/4/1
f 21/13/1 22/1/1 23/4/1 24/14/1
f 25/1/1 26/2/1 27/3/1 28/4/1
f 29/5/1 30/6/1 31/7/1 32/8/1
f 33/15/1 34/16/1 35/2/1 36/1/1
f 37/17/1 38/18/1 39/6/1 40/5/1
f 41/19/1 42/20/1 43/10/1 44/9/1
f 45/21/1 46/15/1 47/1/1 48/13/1
f 49/15/1 50/16/1 51/2/1 52/1/1
f 53/21/1 54/15/1 55/1/1 56/13/1
f 57/15/1 58/16/1 59/2/1 60/1/1
f 61/17/1 62/18/1 63/6/1 64/5/1
f 65/22/1 66/23/1 67/16/1 68/15/1
f 69/24/1 70/25/1 71/18/1 72/17/1
f 73/26/1 74/27/1 75/20/1 76/19/1
f 77/28/1 78/22/1 79/15/1 80/21/1
f 81/22/1 82/23/1 83/16/1 84/15/1
f 85/28/1 86/22/1 87/15/1 88/21/1
f 89/22/1 90/23/1 91/16/1 92/15/1
f 93/24/1 94/25/1 95/18/1 96/17/1
f 97/29/1 98/30/1 99/23/1 100/22/1
f 101/31/1 102/32/1 103/25/1 104/24/1
f 105/33/1 106/34/1 107/27/1 108/26/1
f 109/35/1 110/29/1 111/22/1 112/28/1
f 113/29/1 114/30/1 115/23/1 116/22/1
f 117/35/1 118/29/1 119/22/1 120/28/1
f 121/29/1 122/30/1 123/23/1 124/22/1
f 125/31/1 126/32/1 127/25/1 128/24/1
f 129/36/1 130/37/1 131/30/1 132/29/1
f 133/38/1 134/39/1 135/32/1 136/31/1
f 137/40/1 138/41/1 139/34/1 140/33/1
f 141/42/1 142/36/1 143/29/1 144/35/1
f 145/36/1 146/37/1 147/30/1 148/29/1
f 149/42/1 150/36/1 151/29/1 152/35/1
f 153/36/1 154/37/1 155/30/1 156/29/1
f 157/38/1 158/39/1 159/32/1 160/31/1

