# Tiled2Unity generated file. Do not modify by hand.
# Wavefront file for 'Test22_mesh_0192.obj'

# Vertices (Count = 160)
v -0.64 -0.64 0
v -1.28 -0.64 0
v -1.28 0 0
v -0.64 0 0
v -1.28 -0.64 0
v -1.92 -0.64 0
v -1.92 0 0
v -1.28 0 0
v -1.92 -0.64 0
v -2.56 -0.64 0
v -2.56 0 0
v -1.92 0 0
v -2.56 -0.64 0
v -3.2 -0.64 0
v -3.2 0 0
v -2.56 0 0
v -5.76 -0.64 0
v -6.4 -0.64 0
v -6.4 0 0
v -5.76 0 0
v -6.4 -0.64 0
v -7.04 -0.64 0
v -7.04 0 0
v -6.4 0 0
v -7.04 -0.64 0
v -7.68 -0.64 0
v -7.68 0 0
v -7.04 0 0
v -7.68 -0.64 0
v -8.32 -0.64 0
v -8.32 0 0
v -7.68 0 0
v -0.64 -1.28 0
v -1.28 -1.28 0
v -1.28 -0.64 0
v -0.64 -0.64 0
v -1.28 -1.28 0
v -1.92 -1.28 0
v -1.92 -0.64 0
v -1.28 -0.64 0
v -1.92 -1.28 0
v -2.56 -1.28 0
v -2.56 -0.64 0
v -1.92 -0.64 0
v -2.56 -1.28 0
v -3.2 -1.28 0
v -3.2 -0.64 0
v -2.56 -0.64 0
v -5.76 -1.28 0
v -6.4 -1.28 0
v -6.4 -0.64 0
v -5.76 -0.64 0
v -6.4 -1.28 0
v -7.04 -1.28 0
v -7.04 -0.64 0
v -6.4 -0.64 0
v -7.04 -1.28 0
v -7.68 -1.28 0
v -7.68 -0.64 0
v -7.04 -0.64 0
v -7.68 -1.28 0
v -8.32 -1.28 0
v -8.32 -0.64 0
v -7.68 -0.64 0
v -0.64 -1.92 0
v -1.28 -1.92 0
v -1.28 -1.28 0
v -0.64 -1.28 0
v -1.28 -1.92 0
v -1.92 -1.92 0
v -1.92 -1.28 0
v -1.28 -1.28 0
v -1.92 -1.92 0
v -2.56 -1.92 0
v -2.56 -1.28 0
v -1.92 -1.28 0
v -2.56 -1.92 0
v -3.2 -1.92 0
v -3.2 -1.28 0
v -2.56 -1.28 0
v -5.76 -1.92 0
v -6.4 -1.92 0
v -6.4 -1.28 0
v -5.76 -1.28 0
v -6.4 -1.92 0
v -7.04 -1.92 0
v -7.04 -1.28 0
v -6.4 -1.28 0
v -7.04 -1.92 0
v -7.68 -1.92 0
v -7.68 -1.28 0
v -7.04 -1.28 0
v -7.68 -1.92 0
v -8.32 -1.92 0
v -8.32 -1.28 0
v -7.68 -1.28 0
v -0.64 -2.56 0
v -1.28 -2.56 0
v -1.28 -1.92 0
v -0.64 -1.92 0
v -1.28 -2.56 0
v -1.92 -2.56 0
v -1.92 -1.92 0
v -1.28 -1.92 0
v -1.92 -2.56 0
v -2.56 -2.56 0
v -2.56 -1.92 0
v -1.92 -1.92 0
v -2.56 -2.56 0
v -3.2 -2.56 0
v -3.2 -1.92 0
v -2.56 -1.92 0
v -5.76 -2.56 0
v -6.4 -2.56 0
v -6.4 -1.92 0
v -5.76 -1.92 0
v -6.4 -2.56 0
v -7.04 -2.56 0
v -7.04 -1.92 0
v -6.4 -1.92 0
v -7.04 -2.56 0
v -7.68 -2.56 0
v -7.68 -1.92 0
v -7.04 -1.92 0
v -7.68 -2.56 0
v -8.32 -2.56 0
v -8.32 -1.92 0
v -7.68 -1.92 0
v -0.64 -3.2 0
v -1.28 -3.2 0
v -1.28 -2.56 0
v -0.64 -2.56 0
v -1.28 -3.2 0
v -1.92 -3.2 0
v -1.92 -2.56 0
v -1.28 -2.56 0
v -1.92 -3.2 0
v -2.56 -3.2 0
v -2.56 -2.56 0
v -1.92 -2.56 0
v -2.56 -3.2 0
v -3.2 -3.2 0
v -3.2 -2.56 0
v -2.56 -2.56 0
v -5.76 -3.2 0
v -6.4 -3.2 0
v -6.4 -2.56 0
v -5.76 -2.56 0
v -6.4 -3.2 0
v -7.04 -3.2 0
v -7.04 -2.56 0
v -6.4 -2.56 0
v -7.04 -3.2 0
v -7.68 -3.2 0
v -7.68 -2.56 0
v -7.04 -2.56 0
v -7.68 -3.2 0
v -8.32 -3.2 0
v -8.32 -2.56 0
v -7.68 -2.56 0

# Texture cooridinates (Count = 22)
vt 0.4791667 0.8809524
vt 0.5 0.8809524
vt 0.5 0.9047619
vt 0.4791667 0.9047619
vt 0.5208333 0.8809524
vt 0.5416667 0.8809524
vt 0.5416667 0.9047619
vt 0.5208333 0.9047619
vt 0.4375 0.9285714
vt 0.4583333 0.9285714
vt 0.4583333 0.952381
vt 0.4375 0.952381
vt 0.4791667 0.9285714
vt 0.4791667 0.952381
vt 0.5 0.9285714
vt 0.5 0.952381
vt 0.5208333 0.9285714
vt 0.5208333 0.952381
vt 0.4375 0.9047619
vt 0.4583333 0.9047619
vt 0.4375 0.8809524
vt 0.4583333 0.8809524

# Normal
vn 0 0 -1

# Mesh description
g Test22_mesh_0192

# Faces
f 1/1/1 2/2/1 3/3/1 4/4/1
f 5/1/1 6/2/1 7/3/1 8/4/1
f 9/1/1 10/2/1 11/3/1 12/4/1
f 13/1/1 14/2/1 15/3/1 16/4/1
f 17/1/1 18/2/1 19/3/1 20/4/1
f 21/1/1 22/2/1 23/3/1 24/4/1
f 25/1/1 26/2/1 27/3/1 28/4/1
f 29/5/1 30/6/1 31/7/1 32/8/1
f 33/9/1 34/10/1 35/11/1 36/12/1
f 37/10/1 38/13/1 39/14/1 40/11/1
f 41/13/1 42/15/1 43/16/1 44/14/1
f 45/15/1 46/17/1 47/18/1 48/16/1
f 49/9/1 50/10/1 51/11/1 52/12/1
f 53/10/1 54/13/1 55/14/1 56/11/1
f 57/13/1 58/15/1 59/16/1 60/14/1
f 61/15/1 62/17/1 63/18/1 64/16/1
f 65/19/1 66/20/1 67/10/1 68/9/1
f 69/20/1 70/4/1 71/13/1 72/10/1
f 73/4/1 74/3/1 75/15/1 76/13/1
f 77/3/1 78/8/1 79/17/1 80/15/1
f 81/19/1 82/20/1 83/10/1 84/9/1
f 85/20/1 86/4/1 87/13/1 88/10/1
f 89/4/1 90/3/1 91/15/1 92/13/1
f 93/3/1 94/8/1 95/17/1 96/15/1
f 97/21/1 98/22/1 99/20/1 100/19/1
f 101/22/1 102/1/1 103/4/1 104/20/1
f 105/1/1 106/2/1 107/3/1 108/4/1
f 109/2/1 110/5/1 111/8/1 112/3/1
f 113/21/1 114/22/1 115/20/1 116/19/1
f 117/22/1 118/1/1 119/4/1 120/20/1
f 121/1/1 122/2/1 123/3/1 124/4/1
f 125/2/1 126/5/1 127/8/1 128/3/1
f 129/9/1 130/10/1 131/11/1 132/12/1
f 133/10/1 134/13/1 135/14/1 136/11/1
f 137/13/1 138/15/1 139/16/1 140/14/1
f 141/15/1 142/17/1 143/18/1 144/16/1
f 145/9/1 146/10/1 147/11/1 148/12/1
f 149/10/1 150/13/1 151/14/1 152/11/1
f 153/13/1 154/15/1 155/16/1 156/14/1
f 157/15/1 158/17/1 159/18/1 160/16/1

