# Tiled2Unity generated file. Do not modify by hand.
# Wavefront file for 'Test22_mesh_0310.obj'

# Vertices (Count = 20)
v 0 -7.68 0
v -0.64 -7.68 0
v -0.64 -7.04 0
v 0 -7.04 0
v 0 -8.32 0
v -0.64 -8.32 0
v -0.64 -7.68 0
v 0 -7.68 0
v 0 -8.96 0
v -0.64 -8.96 0
v -0.64 -8.32 0
v 0 -8.32 0
v 0 -9.599999 0
v -0.64 -9.599999 0
v -0.64 -8.96 0
v 0 -8.96 0
v 0 -10.24 0
v -0.64 -10.24 0
v -0.64 -9.599999 0
v 0 -9.599999 0

# Texture cooridinates (Count = 12)
vt 0.7291667 0.547619
vt 0.75 0.547619
vt 0.75 0.5714285
vt 0.7291667 0.5714285
vt 0.7291667 0.5238096
vt 0.75 0.5238096
vt 0.7291667 0.5
vt 0.75 0.5
vt 0.7291667 0.4761904
vt 0.75 0.4761904
vt 0.7291667 0.452381
vt 0.75 0.452381

# Normal
vn 0 0 -1

# Mesh description
g Test22_mesh_0310

# Faces
f 1/1/1 2/2/1 3/3/1 4/4/1
f 5/5/1 6/6/1 7/2/1 8/1/1
f 9/7/1 10/8/1 11/6/1 12/5/1
f 13/9/1 14/10/1 15/8/1 16/7/1
f 17/11/1 18/12/1 19/10/1 20/9/1

