# Tiled2Unity generated file. Do not modify by hand.
# Wavefront file for 'Test22_mesh_0434.obj'

# Vertices (Count = 8)
v -8.96 -8.96 0
v -9.599999 -8.96 0
v -9.599999 -8.32 0
v -8.96 -8.32 0
v -9.599999 -8.96 0
v -10.24 -8.96 0
v -10.24 -8.32 0
v -9.599999 -8.32 0

# Texture cooridinates (Count = 6)
vt 0.75 0.2222222
vt 0.7916667 0.2222222
vt 0.7916667 0.2777778
vt 0.75 0.2777778
vt 0.8333333 0.2222222
vt 0.8333333 0.2777778

# Normal
vn 0 0 -1

# Mesh description
g Test22_mesh_0434

# Faces
f 1/1/1 2/2/1 3/3/1 4/4/1
f 5/2/1 6/5/1 7/6/1 8/3/1

