# Tiled2Unity generated file. Do not modify by hand.
# Wavefront file for 'Test22_mesh_0403.obj'

# Vertices (Count = 16)
v -1.92 -1.28 0
v -2.56 -1.28 0
v -2.56 -0.64 0
v -1.92 -0.64 0
v -2.56 -1.28 0
v -3.2 -1.28 0
v -3.2 -0.64 0
v -2.56 -0.64 0
v -1.92 -1.92 0
v -2.56 -1.92 0
v -2.56 -1.28 0
v -1.92 -1.28 0
v -2.56 -1.92 0
v -3.2 -1.92 0
v -3.2 -1.28 0
v -2.56 -1.28 0

# Texture cooridinates (Count = 9)
vt 0.12 0.8684211
vt 0.14 0.8684211
vt 0.14 0.8947368
vt 0.12 0.8947368
vt 0.16 0.8684211
vt 0.16 0.8947368
vt 0.12 0.8421053
vt 0.14 0.8421053
vt 0.16 0.8421053

# Normal
vn 0 0 -1

# Mesh description
g Test22_mesh_0403

# Faces
f 1/1/1 2/2/1 3/3/1 4/4/1
f 5/2/1 6/5/1 7/6/1 8/3/1
f 9/7/1 10/8/1 11/2/1 12/1/1
f 13/8/1 14/9/1 15/5/1 16/2/1

