# Tiled2Unity generated file. Do not modify by hand.
# Wavefront file for 'Test22_mesh_0355.obj'

# Vertices (Count = 120)
v 0 -4.48 0
v -0.64 -4.48 0
v -0.64 -3.84 0
v 0 -3.84 0
v -0.64 -4.48 0
v -1.28 -4.48 0
v -1.28 -3.84 0
v -0.64 -3.84 0
v -1.28 -4.48 0
v -1.92 -4.48 0
v -1.92 -3.84 0
v -1.28 -3.84 0
v 0 -5.12 0
v -0.64 -5.12 0
v -0.64 -4.48 0
v 0 -4.48 0
v -0.64 -5.12 0
v -1.28 -5.12 0
v -1.28 -4.48 0
v -0.64 -4.48 0
v -1.28 -5.12 0
v -1.92 -5.12 0
v -1.92 -4.48 0
v -1.28 -4.48 0
v 0 -5.76 0
v -0.64 -5.76 0
v -0.64 -5.12 0
v 0 -5.12 0
v -0.64 -5.76 0
v -1.28 -5.76 0
v -1.28 -5.12 0
v -0.64 -5.12 0
v -1.28 -5.76 0
v -1.92 -5.76 0
v -1.92 -5.12 0
v -1.28 -5.12 0
v 0 -6.4 0
v -0.64 -6.4 0
v -0.64 -5.76 0
v 0 -5.76 0
v -0.64 -6.4 0
v -1.28 -6.4 0
v -1.28 -5.76 0
v -0.64 -5.76 0
v -1.28 -6.4 0
v -1.92 -6.4 0
v -1.92 -5.76 0
v -1.28 -5.76 0
v 0 -7.04 0
v -0.64 -7.04 0
v -0.64 -6.4 0
v 0 -6.4 0
v -0.64 -7.04 0
v -1.28 -7.04 0
v -1.28 -6.4 0
v -0.64 -6.4 0
v -1.28 -7.04 0
v -1.92 -7.04 0
v -1.92 -6.4 0
v -1.28 -6.4 0
v 0 -7.68 0
v -0.64 -7.68 0
v -0.64 -7.04 0
v 0 -7.04 0
v -0.64 -7.68 0
v -1.28 -7.68 0
v -1.28 -7.04 0
v -0.64 -7.04 0
v -1.28 -7.68 0
v -1.92 -7.68 0
v -1.92 -7.04 0
v -1.28 -7.04 0
v 0 -8.32 0
v -0.64 -8.32 0
v -0.64 -7.68 0
v 0 -7.68 0
v -0.64 -8.32 0
v -1.28 -8.32 0
v -1.28 -7.68 0
v -0.64 -7.68 0
v -1.28 -8.32 0
v -1.92 -8.32 0
v -1.92 -7.68 0
v -1.28 -7.68 0
v 0 -8.96 0
v -0.64 -8.96 0
v -0.64 -8.32 0
v 0 -8.32 0
v -0.64 -8.96 0
v -1.28 -8.96 0
v -1.28 -8.32 0
v -0.64 -8.32 0
v -1.28 -8.96 0
v -1.92 -8.96 0
v -1.92 -8.32 0
v -1.28 -8.32 0
v 0 -9.599999 0
v -0.64 -9.599999 0
v -0.64 -8.96 0
v 0 -8.96 0
v -0.64 -9.599999 0
v -1.28 -9.599999 0
v -1.28 -8.96 0
v -0.64 -8.96 0
v -1.28 -9.599999 0
v -1.92 -9.599999 0
v -1.92 -8.96 0
v -1.28 -8.96 0
v 0 -10.24 0
v -0.64 -10.24 0
v -0.64 -9.599999 0
v 0 -9.599999 0
v -0.64 -10.24 0
v -1.28 -10.24 0
v -1.28 -9.599999 0
v -0.64 -9.599999 0
v -1.28 -10.24 0
v -1.92 -10.24 0
v -1.92 -9.599999 0
v -1.28 -9.599999 0

# Texture cooridinates (Count = 20)
vt 0.375 0.3
vt 0.5 0.3
vt 0.5 0.4
vt 0.375 0.4
vt 0.625 0.3
vt 0.625 0.4
vt 0.75 0.3
vt 0.75 0.4
vt 0.375 0.2
vt 0.5 0.2
vt 0.625 0.2
vt 0.75 0.2
vt 0.375 0.1
vt 0.5 0.1
vt 0.625 0.1
vt 0.75 0.1
vt 0.375 0
vt 0.5 0
vt 0.625 0
vt 0.75 0

# Normal
vn 0 0 -1

# Mesh description
g Test22_mesh_0355

# Faces
f 1/1/1 2/2/1 3/3/1 4/4/1
f 5/2/1 6/5/1 7/6/1 8/3/1
f 9/5/1 10/7/1 11/8/1 12/6/1
f 13/9/1 14/10/1 15/2/1 16/1/1
f 17/10/1 18/11/1 19/5/1 20/2/1
f 21/11/1 22/12/1 23/7/1 24/5/1
f 25/13/1 26/14/1 27/10/1 28/9/1
f 29/14/1 30/15/1 31/11/1 32/10/1
f 33/15/1 34/16/1 35/12/1 36/11/1
f 37/17/1 38/18/1 39/14/1 40/13/1
f 41/18/1 42/19/1 43/15/1 44/14/1
f 45/19/1 46/20/1 47/16/1 48/15/1
f 49/1/1 50/2/1 51/3/1 52/4/1
f 53/2/1 54/5/1 55/6/1 56/3/1
f 57/5/1 58/7/1 59/8/1 60/6/1
f 61/9/1 62/10/1 63/2/1 64/1/1
f 65/10/1 66/11/1 67/5/1 68/2/1
f 69/11/1 70/12/1 71/7/1 72/5/1
f 73/13/1 74/14/1 75/10/1 76/9/1
f 77/14/1 78/15/1 79/11/1 80/10/1
f 81/15/1 82/16/1 83/12/1 84/11/1
f 85/17/1 86/18/1 87/14/1 88/13/1
f 89/18/1 90/19/1 91/15/1 92/14/1
f 93/19/1 94/20/1 95/16/1 96/15/1
f 97/1/1 98/2/1 99/3/1 100/4/1
f 101/2/1 102/5/1 103/6/1 104/3/1
f 105/5/1 106/7/1 107/8/1 108/6/1
f 109/9/1 110/10/1 111/2/1 112/1/1
f 113/10/1 114/11/1 115/5/1 116/2/1
f 117/11/1 118/12/1 119/7/1 120/5/1

