# Tiled2Unity generated file. Do not modify by hand.
# Wavefront file for 'Test22_mesh_0368.obj'

# Vertices (Count = 152)
v -8.32 -1.28 0
v -8.96 -1.28 0
v -8.96 -0.64 0
v -8.32 -0.64 0
v -8.96 -1.28 0
v -9.599999 -1.28 0
v -9.599999 -0.64 0
v -8.96 -0.64 0
v -9.599999 -1.28 0
v -10.24 -1.28 0
v -10.24 -0.64 0
v -9.599999 -0.64 0
v -8.32 -1.92 0
v -8.96 -1.92 0
v -8.96 -1.28 0
v -8.32 -1.28 0
v -8.96 -1.92 0
v -9.599999 -1.92 0
v -9.599999 -1.28 0
v -8.96 -1.28 0
v -9.599999 -1.92 0
v -10.24 -1.92 0
v -10.24 -1.28 0
v -9.599999 -1.28 0
v -8.32 -2.56 0
v -8.96 -2.56 0
v -8.96 -1.92 0
v -8.32 -1.92 0
v -8.96 -2.56 0
v -9.599999 -2.56 0
v -9.599999 -1.92 0
v -8.96 -1.92 0
v -9.599999 -2.56 0
v -10.24 -2.56 0
v -10.24 -1.92 0
v -9.599999 -1.92 0
v -8.32 -3.2 0
v -8.96 -3.2 0
v -8.96 -2.56 0
v -8.32 -2.56 0
v -8.96 -3.2 0
v -9.599999 -3.2 0
v -9.599999 -2.56 0
v -8.96 -2.56 0
v -9.599999 -3.2 0
v -10.24 -3.2 0
v -10.24 -2.56 0
v -9.599999 -2.56 0
v -8.32 -3.84 0
v -8.96 -3.84 0
v -8.96 -3.2 0
v -8.32 -3.2 0
v -8.96 -3.84 0
v -9.599999 -3.84 0
v -9.599999 -3.2 0
v -8.96 -3.2 0
v -9.599999 -3.84 0
v -10.24 -3.84 0
v -10.24 -3.2 0
v -9.599999 -3.2 0
v -8.32 -4.48 0
v -8.96 -4.48 0
v -8.96 -3.84 0
v -8.32 -3.84 0
v -8.96 -4.48 0
v -9.599999 -4.48 0
v -9.599999 -3.84 0
v -8.96 -3.84 0
v -9.599999 -4.48 0
v -10.24 -4.48 0
v -10.24 -3.84 0
v -9.599999 -3.84 0
v -8.32 -5.12 0
v -8.96 -5.12 0
v -8.96 -4.48 0
v -8.32 -4.48 0
v -8.96 -5.12 0
v -9.599999 -5.12 0
v -9.599999 -4.48 0
v -8.96 -4.48 0
v -9.599999 -5.12 0
v -10.24 -5.12 0
v -10.24 -4.48 0
v -9.599999 -4.48 0
v -8.32 -5.76 0
v -8.96 -5.76 0
v -8.96 -5.12 0
v -8.32 -5.12 0
v -8.96 -5.76 0
v -9.599999 -5.76 0
v -9.599999 -5.12 0
v -8.96 -5.12 0
v -9.599999 -5.76 0
v -10.24 -5.76 0
v -10.24 -5.12 0
v -9.599999 -5.12 0
v -8.32 -6.4 0
v -8.96 -6.4 0
v -8.96 -5.76 0
v -8.32 -5.76 0
v -8.96 -6.4 0
v -9.599999 -6.4 0
v -9.599999 -5.76 0
v -8.96 -5.76 0
v -8.32 -7.04 0
v -8.96 -7.04 0
v -8.96 -6.4 0
v -8.32 -6.4 0
v -8.96 -7.04 0
v -9.599999 -7.04 0
v -9.599999 -6.4 0
v -8.96 -6.4 0
v -8.32 -7.68 0
v -8.96 -7.68 0
v -8.96 -7.04 0
v -8.32 -7.04 0
v -8.96 -7.68 0
v -9.599999 -7.68 0
v -9.599999 -7.04 0
v -8.96 -7.04 0
v -8.32 -8.32 0
v -8.96 -8.32 0
v -8.96 -7.68 0
v -8.32 -7.68 0
v -8.96 -8.32 0
v -9.599999 -8.32 0
v -9.599999 -7.68 0
v -8.96 -7.68 0
v -8.32 -8.96 0
v -8.96 -8.96 0
v -8.96 -8.32 0
v -8.32 -8.32 0
v -8.96 -8.96 0
v -9.599999 -8.96 0
v -9.599999 -8.32 0
v -8.96 -8.32 0
v -8.32 -9.599999 0
v -8.96 -9.599999 0
v -8.96 -8.96 0
v -8.32 -8.96 0
v -8.96 -9.599999 0
v -9.599999 -9.599999 0
v -9.599999 -8.96 0
v -8.96 -8.96 0
v -8.32 -10.24 0
v -8.96 -10.24 0
v -8.96 -9.599999 0
v -8.32 -9.599999 0
v -8.96 -10.24 0
v -9.599999 -10.24 0
v -9.599999 -9.599999 0
v -8.96 -9.599999 0

# Texture cooridinates (Count = 35)
vt 0.2916667 0.5666667
vt 0.3333333 0.5666667
vt 0.3333333 0.6
vt 0.2916667 0.6
vt 0.04166667 0.5666667
vt 0.08333334 0.5666667
vt 0.08333334 0.6
vt 0.04166667 0.6
vt 0 0.5666667
vt 0 0.6
vt 0.1666667 0.4666666
vt 0.2083333 0.4666666
vt 0.2083333 0.5
vt 0.1666667 0.5
vt 0.25 0.4666666
vt 0.25 0.5
vt 0 0.5333333
vt 0.04166667 0.5333333
vt 0.1666667 0.4333333
vt 0.2083333 0.4333333
vt 0.25 0.4333333
vt 0.04166667 0.4333333
vt 0.08333334 0.4333333
vt 0.08333334 0.4666666
vt 0.04166667 0.4666666
vt 0.04166667 0.4
vt 0.08333334 0.4
vt 0 0.4333333
vt 0 0.4666666
vt 0 0.4
vt 0 0.3666667
vt 0.04166667 0.3666667
vt 0.04166667 0.3333333
vt 0.08333334 0.3333333
vt 0.08333334 0.3666667

# Normal
vn 0 0 -1

# Mesh description
g Test22_mesh_0368

# Faces
f 1/1/1 2/2/1 3/3/1 4/4/1
f 5/5/1 6/6/1 7/7/1 8/8/1
f 9/9/1 10/5/1 11/8/1 12/10/1
f 13/11/1 14/12/1 15/13/1 16/14/1
f 17/12/1 18/15/1 19/16/1 20/13/1
f 21/17/1 22/18/1 23/5/1 24/9/1
f 25/19/1 26/20/1 27/12/1 28/11/1
f 29/20/1 30/21/1 31/15/1 32/12/1
f 33/22/1 34/23/1 35/24/1 36/25/1
f 37/11/1 38/12/1 39/13/1 40/14/1
f 41/12/1 42/15/1 43/16/1 44/13/1
f 45/26/1 46/27/1 47/23/1 48/22/1
f 49/19/1 50/20/1 51/12/1 52/11/1
f 53/20/1 54/21/1 55/15/1 56/12/1
f 57/28/1 58/22/1 59/25/1 60/29/1
f 61/11/1 62/12/1 63/13/1 64/14/1
f 65/12/1 66/15/1 67/16/1 68/13/1
f 69/30/1 70/26/1 71/22/1 72/28/1
f 73/19/1 74/20/1 75/12/1 76/11/1
f 77/20/1 78/21/1 79/15/1 80/12/1
f 81/31/1 82/32/1 83/26/1 84/30/1
f 85/11/1 86/12/1 87/13/1 88/14/1
f 89/12/1 90/15/1 91/16/1 92/13/1
f 93/33/1 94/34/1 95/35/1 96/32/1
f 97/19/1 98/20/1 99/12/1 100/11/1
f 101/20/1 102/21/1 103/15/1 104/12/1
f 105/11/1 106/12/1 107/13/1 108/14/1
f 109/12/1 110/15/1 111/16/1 112/13/1
f 113/19/1 114/20/1 115/12/1 116/11/1
f 117/20/1 118/21/1 119/15/1 120/12/1
f 121/11/1 122/12/1 123/13/1 124/14/1
f 125/12/1 126/15/1 127/16/1 128/13/1
f 129/19/1 130/20/1 131/12/1 132/11/1
f 133/20/1 134/21/1 135/15/1 136/12/1
f 137/11/1 138/12/1 139/13/1 140/14/1
f 141/12/1 142/15/1 143/16/1 144/13/1
f 145/19/1 146/20/1 147/12/1 148/11/1
f 149/20/1 150/21/1 151/15/1 152/12/1

