# Tiled2Unity generated file. Do not modify by hand.
# Wavefront file for 'Test22_mesh_0237.obj'

# Vertices (Count = 160)
v -8.96 -0.64 0
v -9.599999 -0.64 0
v -9.599999 0 0
v -8.96 0 0
v -9.599999 -0.64 0
v -10.24 -0.64 0
v -10.24 0 0
v -9.599999 0 0
v -8.96 -1.28 0
v -9.599999 -1.28 0
v -9.599999 -0.64 0
v -8.96 -0.64 0
v -9.599999 -1.28 0
v -10.24 -1.28 0
v -10.24 -0.64 0
v -9.599999 -0.64 0
v -8.96 -1.92 0
v -9.599999 -1.92 0
v -9.599999 -1.28 0
v -8.96 -1.28 0
v -9.599999 -1.92 0
v -10.24 -1.92 0
v -10.24 -1.28 0
v -9.599999 -1.28 0
v -8.96 -2.56 0
v -9.599999 -2.56 0
v -9.599999 -1.92 0
v -8.96 -1.92 0
v -9.599999 -2.56 0
v -10.24 -2.56 0
v -10.24 -1.92 0
v -9.599999 -1.92 0
v 0 -3.2 0
v -0.64 -3.2 0
v -0.64 -2.56 0
v 0 -2.56 0
v -0.64 -3.2 0
v -1.28 -3.2 0
v -1.28 -2.56 0
v -0.64 -2.56 0
v -1.28 -3.2 0
v -1.92 -3.2 0
v -1.92 -2.56 0
v -1.28 -2.56 0
v -1.92 -3.2 0
v -2.56 -3.2 0
v -2.56 -2.56 0
v -1.92 -2.56 0
v -2.56 -3.2 0
v -3.2 -3.2 0
v -3.2 -2.56 0
v -2.56 -2.56 0
v -3.2 -3.2 0
v -3.84 -3.2 0
v -3.84 -2.56 0
v -3.2 -2.56 0
v -3.84 -3.2 0
v -4.48 -3.2 0
v -4.48 -2.56 0
v -3.84 -2.56 0
v -4.48 -3.2 0
v -5.12 -3.2 0
v -5.12 -2.56 0
v -4.48 -2.56 0
v -5.12 -3.2 0
v -5.76 -3.2 0
v -5.76 -2.56 0
v -5.12 -2.56 0
v -5.76 -3.2 0
v -6.4 -3.2 0
v -6.4 -2.56 0
v -5.76 -2.56 0
v -6.4 -3.2 0
v -7.04 -3.2 0
v -7.04 -2.56 0
v -6.4 -2.56 0
v -7.04 -3.2 0
v -7.68 -3.2 0
v -7.68 -2.56 0
v -7.04 -2.56 0
v -7.68 -3.2 0
v -8.32 -3.2 0
v -8.32 -2.56 0
v -7.68 -2.56 0
v -8.32 -3.2 0
v -8.96 -3.2 0
v -8.96 -2.56 0
v -8.32 -2.56 0
v -8.96 -3.2 0
v -9.599999 -3.2 0
v -9.599999 -2.56 0
v -8.96 -2.56 0
v -9.599999 -3.2 0
v -10.24 -3.2 0
v -10.24 -2.56 0
v -9.599999 -2.56 0
v 0 -3.84 0
v -0.64 -3.84 0
v -0.64 -3.2 0
v 0 -3.2 0
v -0.64 -3.84 0
v -1.28 -3.84 0
v -1.28 -3.2 0
v -0.64 -3.2 0
v -1.28 -3.84 0
v -1.92 -3.84 0
v -1.92 -3.2 0
v -1.28 -3.2 0
v -1.92 -3.84 0
v -2.56 -3.84 0
v -2.56 -3.2 0
v -1.92 -3.2 0
v -2.56 -3.84 0
v -3.2 -3.84 0
v -3.2 -3.2 0
v -2.56 -3.2 0
v -3.2 -3.84 0
v -3.84 -3.84 0
v -3.84 -3.2 0
v -3.2 -3.2 0
v -3.84 -3.84 0
v -4.48 -3.84 0
v -4.48 -3.2 0
v -3.84 -3.2 0
v -4.48 -3.84 0
v -5.12 -3.84 0
v -5.12 -3.2 0
v -4.48 -3.2 0
v -5.12 -3.84 0
v -5.76 -3.84 0
v -5.76 -3.2 0
v -5.12 -3.2 0
v -5.76 -3.84 0
v -6.4 -3.84 0
v -6.4 -3.2 0
v -5.76 -3.2 0
v -6.4 -3.84 0
v -7.04 -3.84 0
v -7.04 -3.2 0
v -6.4 -3.2 0
v -7.04 -3.84 0
v -7.68 -3.84 0
v -7.68 -3.2 0
v -7.04 -3.2 0
v -7.68 -3.84 0
v -8.32 -3.84 0
v -8.32 -3.2 0
v -7.68 -3.2 0
v -8.32 -3.84 0
v -8.96 -3.84 0
v -8.96 -3.2 0
v -8.32 -3.2 0
v -8.96 -3.84 0
v -9.599999 -3.84 0
v -9.599999 -3.2 0
v -8.96 -3.2 0
v -9.599999 -3.84 0
v -10.24 -3.84 0
v -10.24 -3.2 0
v -9.599999 -3.2 0

# Texture cooridinates (Count = 15)
vt 0.3333333 0.3333333
vt 0.5 0.3333333
vt 0.5 0.4166667
vt 0.3333333 0.4166667
vt 0.6666667 0.3333333
vt 0.6666667 0.4166667
vt 0.5 0.5
vt 0.3333333 0.5
vt 0.6666667 0.5
vt 0.3333333 0.25
vt 0.5 0.25
vt 0.6666667 0.25
vt 0.3333333 0.1666667
vt 0.5 0.1666667
vt 0.6666667 0.1666667

# Normal
vn 0 0 -1

# Mesh description
g Test22_mesh_0237

# Faces
f 1/1/1 2/2/1 3/3/1 4/4/1
f 5/2/1 6/5/1 7/6/1 8/3/1
f 9/4/1 10/3/1 11/7/1 12/8/1
f 13/3/1 14/6/1 15/9/1 16/7/1
f 17/1/1 18/2/1 19/3/1 20/4/1
f 21/2/1 22/5/1 23/6/1 24/3/1
f 25/4/1 26/3/1 27/7/1 28/8/1
f 29/3/1 30/6/1 31/9/1 32/7/1
f 33/10/1 34/11/1 35/2/1 36/1/1
f 37/11/1 38/12/1 39/5/1 40/2/1
f 41/10/1 42/11/1 43/2/1 44/1/1
f 45/11/1 46/12/1 47/5/1 48/2/1
f 49/10/1 50/11/1 51/2/1 52/1/1
f 53/11/1 54/12/1 55/5/1 56/2/1
f 57/10/1 58/11/1 59/2/1 60/1/1
f 61/11/1 62/12/1 63/5/1 64/2/1
f 65/10/1 66/11/1 67/2/1 68/1/1
f 69/11/1 70/12/1 71/5/1 72/2/1
f 73/10/1 74/11/1 75/2/1 76/1/1
f 77/11/1 78/12/1 79/5/1 80/2/1
f 81/10/1 82/11/1 83/2/1 84/1/1
f 85/11/1 86/12/1 87/5/1 88/2/1
f 89/10/1 90/11/1 91/2/1 92/1/1
f 93/10/1 94/11/1 95/2/1 96/1/1
f 97/13/1 98/14/1 99/11/1 100/10/1
f 101/14/1 102/15/1 103/12/1 104/11/1
f 105/13/1 106/14/1 107/11/1 108/10/1
f 109/14/1 110/15/1 111/12/1 112/11/1
f 113/13/1 114/14/1 115/11/1 116/10/1
f 117/14/1 118/15/1 119/12/1 120/11/1
f 121/13/1 122/14/1 123/11/1 124/10/1
f 125/14/1 126/15/1 127/12/1 128/11/1
f 129/13/1 130/14/1 131/11/1 132/10/1
f 133/14/1 134/15/1 135/12/1 136/11/1
f 137/13/1 138/14/1 139/11/1 140/10/1
f 141/14/1 142/15/1 143/12/1 144/11/1
f 145/13/1 146/14/1 147/11/1 148/10/1
f 149/14/1 150/15/1 151/12/1 152/11/1
f 153/13/1 154/14/1 155/11/1 156/10/1
f 157/13/1 158/14/1 159/11/1 160/10/1

