# Tiled2Unity generated file. Do not modify by hand.
# Wavefront file for 'Test22_mesh_0168.obj'

# Vertices (Count = 88)
v -3.2 -0.64 0
v -3.84 -0.64 0
v -3.84 0 0
v -3.2 0 0
v -3.84 -0.64 0
v -4.48 -0.64 0
v -4.48 0 0
v -3.84 0 0
v -4.48 -0.64 0
v -5.12 -0.64 0
v -5.12 0 0
v -4.48 0 0
v -5.12 -0.64 0
v -5.76 -0.64 0
v -5.76 0 0
v -5.12 0 0
v -5.76 -0.64 0
v -6.4 -0.64 0
v -6.4 0 0
v -5.76 0 0
v -6.4 -0.64 0
v -7.04 -0.64 0
v -7.04 0 0
v -6.4 0 0
v -7.04 -0.64 0
v -7.68 -0.64 0
v -7.68 0 0
v -7.04 0 0
v -7.68 -0.64 0
v -8.32 -0.64 0
v -8.32 0 0
v -7.68 0 0
v -8.32 -0.64 0
v -8.96 -0.64 0
v -8.96 0 0
v -8.32 0 0
v -8.96 -0.64 0
v -9.599999 -0.64 0
v -9.599999 0 0
v -8.96 0 0
v -9.599999 -0.64 0
v -10.24 -0.64 0
v -10.24 0 0
v -9.599999 0 0
v -3.2 -1.28 0
v -3.84 -1.28 0
v -3.84 -0.64 0
v -3.2 -0.64 0
v -3.84 -1.28 0
v -4.48 -1.28 0
v -4.48 -0.64 0
v -3.84 -0.64 0
v -4.48 -1.28 0
v -5.12 -1.28 0
v -5.12 -0.64 0
v -4.48 -0.64 0
v -5.12 -1.28 0
v -5.76 -1.28 0
v -5.76 -0.64 0
v -5.12 -0.64 0
v -5.76 -1.28 0
v -6.4 -1.28 0
v -6.4 -0.64 0
v -5.76 -0.64 0
v -6.4 -1.28 0
v -7.04 -1.28 0
v -7.04 -0.64 0
v -6.4 -0.64 0
v -7.04 -1.28 0
v -7.68 -1.28 0
v -7.68 -0.64 0
v -7.04 -0.64 0
v -7.68 -1.28 0
v -8.32 -1.28 0
v -8.32 -0.64 0
v -7.68 -0.64 0
v -8.32 -1.28 0
v -8.96 -1.28 0
v -8.96 -0.64 0
v -8.32 -0.64 0
v -8.96 -1.28 0
v -9.599999 -1.28 0
v -9.599999 -0.64 0
v -8.96 -0.64 0
v -9.599999 -1.28 0
v -10.24 -1.28 0
v -10.24 -0.64 0
v -9.599999 -0.64 0

# Texture cooridinates (Count = 9)
vt 0 0.5
vt 0.05 0.5
vt 0.05 0.55
vt 0 0.55
vt 0.1 0.5
vt 0.1 0.55
vt 0.05 0.6
vt 0 0.6
vt 0.1 0.6

# Normal
vn 0 0 -1

# Mesh description
g Test22_mesh_0168

# Faces
f 1/1/1 2/2/1 3/3/1 4/4/1
f 5/2/1 6/5/1 7/6/1 8/3/1
f 9/1/1 10/2/1 11/3/1 12/4/1
f 13/2/1 14/5/1 15/6/1 16/3/1
f 17/1/1 18/2/1 19/3/1 20/4/1
f 21/2/1 22/5/1 23/6/1 24/3/1
f 25/1/1 26/2/1 27/3/1 28/4/1
f 29/2/1 30/5/1 31/6/1 32/3/1
f 33/1/1 34/2/1 35/3/1 36/4/1
f 37/2/1 38/5/1 39/6/1 40/3/1
f 41/1/1 42/2/1 43/3/1 44/4/1
f 45/4/1 46/3/1 47/7/1 48/8/1
f 49/3/1 50/6/1 51/9/1 52/7/1
f 53/4/1 54/3/1 55/7/1 56/8/1
f 57/3/1 58/6/1 59/9/1 60/7/1
f 61/4/1 62/3/1 63/7/1 64/8/1
f 65/3/1 66/6/1 67/9/1 68/7/1
f 69/4/1 70/3/1 71/7/1 72/8/1
f 73/3/1 74/6/1 75/9/1 76/7/1
f 77/4/1 78/3/1 79/7/1 80/8/1
f 81/3/1 82/6/1 83/9/1 84/7/1
f 85/4/1 86/3/1 87/7/1 88/8/1

