# Tiled2Unity generated file. Do not modify by hand.
# Wavefront file for 'Test22_mesh_0099.obj'

# Vertices (Count = 240)
v -3.84 -4.48 0
v -4.48 -4.48 0
v -4.48 -3.84 0
v -3.84 -3.84 0
v -4.48 -4.48 0
v -5.12 -4.48 0
v -5.12 -3.84 0
v -4.48 -3.84 0
v -5.12 -4.48 0
v -5.76 -4.48 0
v -5.76 -3.84 0
v -5.12 -3.84 0
v -5.76 -4.48 0
v -6.4 -4.48 0
v -6.4 -3.84 0
v -5.76 -3.84 0
v -6.4 -4.48 0
v -7.04 -4.48 0
v -7.04 -3.84 0
v -6.4 -3.84 0
v -7.04 -4.48 0
v -7.68 -4.48 0
v -7.68 -3.84 0
v -7.04 -3.84 0
v -7.68 -4.48 0
v -8.32 -4.48 0
v -8.32 -3.84 0
v -7.68 -3.84 0
v -8.32 -4.48 0
v -8.96 -4.48 0
v -8.96 -3.84 0
v -8.32 -3.84 0
v -8.96 -4.48 0
v -9.599999 -4.48 0
v -9.599999 -3.84 0
v -8.96 -3.84 0
v -9.599999 -4.48 0
v -10.24 -4.48 0
v -10.24 -3.84 0
v -9.599999 -3.84 0
v -3.84 -5.12 0
v -4.48 -5.12 0
v -4.48 -4.48 0
v -3.84 -4.48 0
v -4.48 -5.12 0
v -5.12 -5.12 0
v -5.12 -4.48 0
v -4.48 -4.48 0
v -5.12 -5.12 0
v -5.76 -5.12 0
v -5.76 -4.48 0
v -5.12 -4.48 0
v -5.76 -5.12 0
v -6.4 -5.12 0
v -6.4 -4.48 0
v -5.76 -4.48 0
v -6.4 -5.12 0
v -7.04 -5.12 0
v -7.04 -4.48 0
v -6.4 -4.48 0
v -7.04 -5.12 0
v -7.68 -5.12 0
v -7.68 -4.48 0
v -7.04 -4.48 0
v -7.68 -5.12 0
v -8.32 -5.12 0
v -8.32 -4.48 0
v -7.68 -4.48 0
v -8.32 -5.12 0
v -8.96 -5.12 0
v -8.96 -4.48 0
v -8.32 -4.48 0
v -8.96 -5.12 0
v -9.599999 -5.12 0
v -9.599999 -4.48 0
v -8.96 -4.48 0
v -9.599999 -5.12 0
v -10.24 -5.12 0
v -10.24 -4.48 0
v -9.599999 -4.48 0
v -3.84 -5.76 0
v -4.48 -5.76 0
v -4.48 -5.12 0
v -3.84 -5.12 0
v -4.48 -5.76 0
v -5.12 -5.76 0
v -5.12 -5.12 0
v -4.48 -5.12 0
v -5.12 -5.76 0
v -5.76 -5.76 0
v -5.76 -5.12 0
v -5.12 -5.12 0
v -5.76 -5.76 0
v -6.4 -5.76 0
v -6.4 -5.12 0
v -5.76 -5.12 0
v -6.4 -5.76 0
v -7.04 -5.76 0
v -7.04 -5.12 0
v -6.4 -5.12 0
v -7.04 -5.76 0
v -7.68 -5.76 0
v -7.68 -5.12 0
v -7.04 -5.12 0
v -7.68 -5.76 0
v -8.32 -5.76 0
v -8.32 -5.12 0
v -7.68 -5.12 0
v -8.32 -5.76 0
v -8.96 -5.76 0
v -8.96 -5.12 0
v -8.32 -5.12 0
v -8.96 -5.76 0
v -9.599999 -5.76 0
v -9.599999 -5.12 0
v -8.96 -5.12 0
v -9.599999 -5.76 0
v -10.24 -5.76 0
v -10.24 -5.12 0
v -9.599999 -5.12 0
v -3.84 -6.4 0
v -4.48 -6.4 0
v -4.48 -5.76 0
v -3.84 -5.76 0
v -4.48 -6.4 0
v -5.12 -6.4 0
v -5.12 -5.76 0
v -4.48 -5.76 0
v -5.12 -6.4 0
v -5.76 -6.4 0
v -5.76 -5.76 0
v -5.12 -5.76 0
v -5.76 -6.4 0
v -6.4 -6.4 0
v -6.4 -5.76 0
v -5.76 -5.76 0
v -6.4 -6.4 0
v -7.04 -6.4 0
v -7.04 -5.76 0
v -6.4 -5.76 0
v -7.04 -6.4 0
v -7.68 -6.4 0
v -7.68 -5.76 0
v -7.04 -5.76 0
v -7.68 -6.4 0
v -8.32 -6.4 0
v -8.32 -5.76 0
v -7.68 -5.76 0
v -8.32 -6.4 0
v -8.96 -6.4 0
v -8.96 -5.76 0
v -8.32 -5.76 0
v -8.96 -6.4 0
v -9.599999 -6.4 0
v -9.599999 -5.76 0
v -8.96 -5.76 0
v -9.599999 -6.4 0
v -10.24 -6.4 0
v -10.24 -5.76 0
v -9.599999 -5.76 0
v -3.84 -7.04 0
v -4.48 -7.04 0
v -4.48 -6.4 0
v -3.84 -6.4 0
v -4.48 -7.04 0
v -5.12 -7.04 0
v -5.12 -6.4 0
v -4.48 -6.4 0
v -5.12 -7.04 0
v -5.76 -7.04 0
v -5.76 -6.4 0
v -5.12 -6.4 0
v -5.76 -7.04 0
v -6.4 -7.04 0
v -6.4 -6.4 0
v -5.76 -6.4 0
v -6.4 -7.04 0
v -7.04 -7.04 0
v -7.04 -6.4 0
v -6.4 -6.4 0
v -7.04 -7.04 0
v -7.68 -7.04 0
v -7.68 -6.4 0
v -7.04 -6.4 0
v -7.68 -7.04 0
v -8.32 -7.04 0
v -8.32 -6.4 0
v -7.68 -6.4 0
v -8.32 -7.04 0
v -8.96 -7.04 0
v -8.96 -6.4 0
v -8.32 -6.4 0
v -8.96 -7.04 0
v -9.599999 -7.04 0
v -9.599999 -6.4 0
v -8.96 -6.4 0
v -9.599999 -7.04 0
v -10.24 -7.04 0
v -10.24 -6.4 0
v -9.599999 -6.4 0
v -3.84 -7.68 0
v -4.48 -7.68 0
v -4.48 -7.04 0
v -3.84 -7.04 0
v -4.48 -7.68 0
v -5.12 -7.68 0
v -5.12 -7.04 0
v -4.48 -7.04 0
v -5.12 -7.68 0
v -5.76 -7.68 0
v -5.76 -7.04 0
v -5.12 -7.04 0
v -5.76 -7.68 0
v -6.4 -7.68 0
v -6.4 -7.04 0
v -5.76 -7.04 0
v -6.4 -7.68 0
v -7.04 -7.68 0
v -7.04 -7.04 0
v -6.4 -7.04 0
v -7.04 -7.68 0
v -7.68 -7.68 0
v -7.68 -7.04 0
v -7.04 -7.04 0
v -7.68 -7.68 0
v -8.32 -7.68 0
v -8.32 -7.04 0
v -7.68 -7.04 0
v -8.32 -7.68 0
v -8.96 -7.68 0
v -8.96 -7.04 0
v -8.32 -7.04 0
v -8.96 -7.68 0
v -9.599999 -7.68 0
v -9.599999 -7.04 0
v -8.96 -7.04 0
v -9.599999 -7.68 0
v -10.24 -7.68 0
v -10.24 -7.04 0
v -9.599999 -7.04 0

# Texture cooridinates (Count = 46)
vt 0.55 0.95
vt 0.6 0.95
vt 0.6 1
vt 0.55 1
vt 0 0.95
vt 0.05 0.95
vt 0.05 1
vt 0 1
vt 0.1 0.95
vt 0.15 0.95
vt 0.15 1
vt 0.1 1
vt 0.2 0.95
vt 0.2 1
vt 0.55 0.9
vt 0.6 0.9
vt 0 0.9
vt 0.05 0.9
vt 0.1 0.9
vt 0.15 0.9
vt 0.2 0.9
vt 0.2 0.1
vt 0.2 0.15
vt 0.15 0.15
vt 0.15 0.1
vt 0.25 0.1
vt 0.25 0.15
vt 0 0.7
vt 0.05 0.7
vt 0.05 0.75
vt 0 0.75
vt 0.1 0.7
vt 0.15 0.7
vt 0.15 0.75
vt 0.1 0.75
vt 0.2 0.7
vt 0.2 0.75
vt 0.15 0.35
vt 0.2 0.35
vt 0.2 0.4
vt 0.15 0.4
vt 0 0.65
vt 0.05 0.65
vt 0.1 0.65
vt 0.15 0.65
vt 0.2 0.65

# Normal
vn 0 0 -1

# Mesh description
g Test22_mesh_0099

# Faces
f 1/1/1 2/2/1 3/3/1 4/4/1
f 5/5/1 6/6/1 7/7/1 8/8/1
f 9/9/1 10/10/1 11/11/1 12/12/1
f 13/10/1 14/13/1 15/14/1 16/11/1
f 17/9/1 18/10/1 19/11/1 20/12/1
f 21/10/1 22/13/1 23/14/1 24/11/1
f 25/9/1 26/10/1 27/11/1 28/12/1
f 29/10/1 30/13/1 31/14/1 32/11/1
f 33/6/1 34/9/1 35/12/1 36/7/1
f 37/9/1 38/10/1 39/11/1 40/12/1
f 41/15/1 42/16/1 43/2/1 44/1/1
f 45/17/1 46/18/1 47/6/1 48/5/1
f 49/19/1 50/20/1 51/10/1 52/9/1
f 53/20/1 54/21/1 55/13/1 56/10/1
f 57/19/1 58/20/1 59/10/1 60/9/1
f 61/20/1 62/21/1 63/13/1 64/10/1
f 65/19/1 66/20/1 67/10/1 68/9/1
f 69/20/1 70/21/1 71/13/1 72/10/1
f 73/18/1 74/19/1 75/9/1 76/6/1
f 77/19/1 78/20/1 79/10/1 80/9/1
f 81/1/1 82/2/1 83/3/1 84/4/1
f 85/22/1 86/23/1 87/24/1 88/25/1
f 89/22/1 90/23/1 91/24/1 92/25/1
f 93/22/1 94/23/1 95/24/1 96/25/1
f 97/22/1 98/23/1 99/24/1 100/25/1
f 101/22/1 102/23/1 103/24/1 104/25/1
f 105/22/1 106/23/1 107/24/1 108/25/1
f 109/22/1 110/23/1 111/24/1 112/25/1
f 113/22/1 114/23/1 115/24/1 116/25/1
f 117/22/1 118/23/1 119/24/1 120/25/1
f 121/1/1 122/2/1 123/3/1 124/4/1
f 125/26/1 126/27/1 127/23/1 128/22/1
f 129/26/1 130/27/1 131/23/1 132/22/1
f 133/26/1 134/27/1 135/23/1 136/22/1
f 137/26/1 138/27/1 139/23/1 140/22/1
f 141/26/1 142/27/1 143/23/1 144/22/1
f 145/26/1 146/27/1 147/23/1 148/22/1
f 149/26/1 150/27/1 151/23/1 152/22/1
f 153/26/1 154/27/1 155/23/1 156/22/1
f 157/26/1 158/27/1 159/23/1 160/22/1
f 161/15/1 162/16/1 163/2/1 164/1/1
f 165/28/1 166/29/1 167/30/1 168/31/1
f 169/32/1 170/33/1 171/34/1 172/35/1
f 173/33/1 174/36/1 175/37/1 176/34/1
f 177/33/1 178/36/1 179/37/1 180/34/1
f 181/32/1 182/33/1 183/34/1 184/35/1
f 185/32/1 186/33/1 187/34/1 188/35/1
f 189/33/1 190/36/1 191/37/1 192/34/1
f 193/29/1 194/32/1 195/35/1 196/30/1
f 197/32/1 198/33/1 199/34/1 200/35/1
f 201/38/1 202/39/1 203/40/1 204/41/1
f 205/42/1 206/43/1 207/29/1 208/28/1
f 209/44/1 210/45/1 211/33/1 212/32/1
f 213/45/1 214/46/1 215/36/1 216/33/1
f 217/45/1 218/46/1 219/36/1 220/33/1
f 221/44/1 222/45/1 223/33/1 224/32/1
f 225/44/1 226/45/1 227/33/1 228/32/1
f 229/45/1 230/46/1 231/36/1 232/33/1
f 233/43/1 234/44/1 235/32/1 236/29/1
f 237/44/1 238/45/1 239/33/1 240/32/1

