# Tiled2Unity generated file. Do not modify by hand.
# Wavefront file for 'Test22_mesh_0265.obj'

# Vertices (Count = 208)
v -7.68 -2.56 0
v -8.32 -2.56 0
v -8.32 -1.92 0
v -7.68 -1.92 0
v -8.32 -2.56 0
v -8.96 -2.56 0
v -8.96 -1.92 0
v -8.32 -1.92 0
v -8.96 -2.56 0
v -9.599999 -2.56 0
v -9.599999 -1.92 0
v -8.96 -1.92 0
v -9.599999 -2.56 0
v -10.24 -2.56 0
v -10.24 -1.92 0
v -9.599999 -1.92 0
v -7.68 -3.2 0
v -8.32 -3.2 0
v -8.32 -2.56 0
v -7.68 -2.56 0
v -8.32 -3.2 0
v -8.96 -3.2 0
v -8.96 -2.56 0
v -8.32 -2.56 0
v -8.96 -3.2 0
v -9.599999 -3.2 0
v -9.599999 -2.56 0
v -8.96 -2.56 0
v -9.599999 -3.2 0
v -10.24 -3.2 0
v -10.24 -2.56 0
v -9.599999 -2.56 0
v -7.68 -3.84 0
v -8.32 -3.84 0
v -8.32 -3.2 0
v -7.68 -3.2 0
v -8.32 -3.84 0
v -8.96 -3.84 0
v -8.96 -3.2 0
v -8.32 -3.2 0
v -8.96 -3.84 0
v -9.599999 -3.84 0
v -9.599999 -3.2 0
v -8.96 -3.2 0
v -9.599999 -3.84 0
v -10.24 -3.84 0
v -10.24 -3.2 0
v -9.599999 -3.2 0
v -7.68 -4.48 0
v -8.32 -4.48 0
v -8.32 -3.84 0
v -7.68 -3.84 0
v -8.32 -4.48 0
v -8.96 -4.48 0
v -8.96 -3.84 0
v -8.32 -3.84 0
v -8.96 -4.48 0
v -9.599999 -4.48 0
v -9.599999 -3.84 0
v -8.96 -3.84 0
v -9.599999 -4.48 0
v -10.24 -4.48 0
v -10.24 -3.84 0
v -9.599999 -3.84 0
v -7.68 -5.12 0
v -8.32 -5.12 0
v -8.32 -4.48 0
v -7.68 -4.48 0
v -8.32 -5.12 0
v -8.96 -5.12 0
v -8.96 -4.48 0
v -8.32 -4.48 0
v -8.96 -5.12 0
v -9.599999 -5.12 0
v -9.599999 -4.48 0
v -8.96 -4.48 0
v -9.599999 -5.12 0
v -10.24 -5.12 0
v -10.24 -4.48 0
v -9.599999 -4.48 0
v -7.68 -5.76 0
v -8.32 -5.76 0
v -8.32 -5.12 0
v -7.68 -5.12 0
v -8.32 -5.76 0
v -8.96 -5.76 0
v -8.96 -5.12 0
v -8.32 -5.12 0
v -8.96 -5.76 0
v -9.599999 -5.76 0
v -9.599999 -5.12 0
v -8.96 -5.12 0
v -9.599999 -5.76 0
v -10.24 -5.76 0
v -10.24 -5.12 0
v -9.599999 -5.12 0
v -7.68 -6.4 0
v -8.32 -6.4 0
v -8.32 -5.76 0
v -7.68 -5.76 0
v -8.32 -6.4 0
v -8.96 -6.4 0
v -8.96 -5.76 0
v -8.32 -5.76 0
v -8.96 -6.4 0
v -9.599999 -6.4 0
v -9.599999 -5.76 0
v -8.96 -5.76 0
v -9.599999 -6.4 0
v -10.24 -6.4 0
v -10.24 -5.76 0
v -9.599999 -5.76 0
v -7.68 -7.04 0
v -8.32 -7.04 0
v -8.32 -6.4 0
v -7.68 -6.4 0
v -8.32 -7.04 0
v -8.96 -7.04 0
v -8.96 -6.4 0
v -8.32 -6.4 0
v -8.96 -7.04 0
v -9.599999 -7.04 0
v -9.599999 -6.4 0
v -8.96 -6.4 0
v -9.599999 -7.04 0
v -10.24 -7.04 0
v -10.24 -6.4 0
v -9.599999 -6.4 0
v -7.68 -7.68 0
v -8.32 -7.68 0
v -8.32 -7.04 0
v -7.68 -7.04 0
v -8.32 -7.68 0
v -8.96 -7.68 0
v -8.96 -7.04 0
v -8.32 -7.04 0
v -8.96 -7.68 0
v -9.599999 -7.68 0
v -9.599999 -7.04 0
v -8.96 -7.04 0
v -9.599999 -7.68 0
v -10.24 -7.68 0
v -10.24 -7.04 0
v -9.599999 -7.04 0
v -7.68 -8.32 0
v -8.32 -8.32 0
v -8.32 -7.68 0
v -7.68 -7.68 0
v -8.32 -8.32 0
v -8.96 -8.32 0
v -8.96 -7.68 0
v -8.32 -7.68 0
v -8.96 -8.32 0
v -9.599999 -8.32 0
v -9.599999 -7.68 0
v -8.96 -7.68 0
v -9.599999 -8.32 0
v -10.24 -8.32 0
v -10.24 -7.68 0
v -9.599999 -7.68 0
v -7.68 -8.96 0
v -8.32 -8.96 0
v -8.32 -8.32 0
v -7.68 -8.32 0
v -8.32 -8.96 0
v -8.96 -8.96 0
v -8.96 -8.32 0
v -8.32 -8.32 0
v -8.96 -8.96 0
v -9.599999 -8.96 0
v -9.599999 -8.32 0
v -8.96 -8.32 0
v -9.599999 -8.96 0
v -10.24 -8.96 0
v -10.24 -8.32 0
v -9.599999 -8.32 0
v -7.68 -9.599999 0
v -8.32 -9.599999 0
v -8.32 -8.96 0
v -7.68 -8.96 0
v -8.32 -9.599999 0
v -8.96 -9.599999 0
v -8.96 -8.96 0
v -8.32 -8.96 0
v -8.96 -9.599999 0
v -9.599999 -9.599999 0
v -9.599999 -8.96 0
v -8.96 -8.96 0
v -9.599999 -9.599999 0
v -10.24 -9.599999 0
v -10.24 -8.96 0
v -9.599999 -8.96 0
v -7.68 -10.24 0
v -8.32 -10.24 0
v -8.32 -9.599999 0
v -7.68 -9.599999 0
v -8.32 -10.24 0
v -8.96 -10.24 0
v -8.96 -9.599999 0
v -8.32 -9.599999 0
v -8.96 -10.24 0
v -9.599999 -10.24 0
v -9.599999 -9.599999 0
v -8.96 -9.599999 0
v -9.599999 -10.24 0
v -10.24 -10.24 0
v -10.24 -9.599999 0
v -9.599999 -9.599999 0

# Texture cooridinates (Count = 45)
vt 0.8235294 0.4090909
vt 0.8529412 0.4090909
vt 0.8529412 0.4545454
vt 0.8235294 0.4545454
vt 0.8823529 0.4090909
vt 0.8823529 0.4545454
vt 0.9117647 0.4090909
vt 0.9117647 0.4545454
vt 0.9411765 0.4090909
vt 0.9411765 0.4545454
vt 0.8235294 0.3636364
vt 0.8529412 0.3636364
vt 0.8823529 0.3636364
vt 0.9117647 0.3636364
vt 0.9411765 0.3636364
vt 0.8235294 0.3181818
vt 0.8529412 0.3181818
vt 0.8823529 0.3181818
vt 0.9117647 0.3181818
vt 0.9411765 0.3181818
vt 0.8235294 0.2727273
vt 0.8529412 0.2727273
vt 0.8823529 0.2727273
vt 0.9117647 0.2727273
vt 0.9411765 0.2727273
vt 0.8235294 0.2272727
vt 0.8529412 0.2272727
vt 0.8823529 0.2272727
vt 0.9117647 0.2272727
vt 0.9411765 0.2272727
vt 0.8235294 0.1818182
vt 0.8529412 0.1818182
vt 0.8823529 0.1818182
vt 0.9117647 0.1818182
vt 0.9411765 0.1818182
vt 0.05882353 0.09090906
vt 0.0882353 0.09090906
vt 0.0882353 0.1363636
vt 0.05882353 0.1363636
vt 0.1176471 0.09090906
vt 0.1176471 0.1363636
vt 0.1470588 0.09090906
vt 0.1470588 0.1363636
vt 0.1764706 0.09090906
vt 0.1764706 0.1363636

# Normal
vn 0 0 -1

# Mesh description
g Test22_mesh_0265

# Faces
f 1/1/1 2/2/1 3/3/1 4/4/1
f 5/2/1 6/5/1 7/6/1 8/3/1
f 9/5/1 10/7/1 11/8/1 12/6/1
f 13/7/1 14/9/1 15/10/1 16/8/1
f 17/11/1 18/12/1 19/2/1 20/1/1
f 21/12/1 22/13/1 23/5/1 24/2/1
f 25/13/1 26/14/1 27/7/1 28/5/1
f 29/14/1 30/15/1 31/9/1 32/7/1
f 33/16/1 34/17/1 35/12/1 36/11/1
f 37/17/1 38/18/1 39/13/1 40/12/1
f 41/18/1 42/19/1 43/14/1 44/13/1
f 45/19/1 46/20/1 47/15/1 48/14/1
f 49/21/1 50/22/1 51/17/1 52/16/1
f 53/22/1 54/23/1 55/18/1 56/17/1
f 57/23/1 58/24/1 59/19/1 60/18/1
f 61/24/1 62/25/1 63/20/1 64/19/1
f 65/26/1 66/27/1 67/22/1 68/21/1
f 69/27/1 70/28/1 71/23/1 72/22/1
f 73/28/1 74/29/1 75/24/1 76/23/1
f 77/29/1 78/30/1 79/25/1 80/24/1
f 81/31/1 82/32/1 83/27/1 84/26/1
f 85/32/1 86/33/1 87/28/1 88/27/1
f 89/33/1 90/34/1 91/29/1 92/28/1
f 93/34/1 94/35/1 95/30/1 96/29/1
f 97/36/1 98/37/1 99/38/1 100/39/1
f 101/37/1 102/40/1 103/41/1 104/38/1
f 105/40/1 106/42/1 107/43/1 108/41/1
f 109/42/1 110/44/1 111/45/1 112/43/1
f 113/36/1 114/37/1 115/38/1 116/39/1
f 117/37/1 118/40/1 119/41/1 120/38/1
f 121/40/1 122/42/1 123/43/1 124/41/1
f 125/42/1 126/44/1 127/45/1 128/43/1
f 129/36/1 130/37/1 131/38/1 132/39/1
f 133/37/1 134/40/1 135/41/1 136/38/1
f 137/40/1 138/42/1 139/43/1 140/41/1
f 141/42/1 142/44/1 143/45/1 144/43/1
f 145/36/1 146/37/1 147/38/1 148/39/1
f 149/37/1 150/40/1 151/41/1 152/38/1
f 153/40/1 154/42/1 155/43/1 156/41/1
f 157/42/1 158/44/1 159/45/1 160/43/1
f 161/36/1 162/37/1 163/38/1 164/39/1
f 165/37/1 166/40/1 167/41/1 168/38/1
f 169/40/1 170/42/1 171/43/1 172/41/1
f 173/42/1 174/44/1 175/45/1 176/43/1
f 177/36/1 178/37/1 179/38/1 180/39/1
f 181/37/1 182/40/1 183/41/1 184/38/1
f 185/40/1 186/42/1 187/43/1 188/41/1
f 189/42/1 190/44/1 191/45/1 192/43/1
f 193/36/1 194/37/1 195/38/1 196/39/1
f 197/37/1 198/40/1 199/41/1 200/38/1
f 201/40/1 202/42/1 203/43/1 204/41/1
f 205/42/1 206/44/1 207/45/1 208/43/1

