# Tiled2Unity generated file. Do not modify by hand.
# Wavefront file for 'Test22_mesh_0338.obj'

# Vertices (Count = 12)
v 0 -1.28 0
v -0.64 -1.28 0
v -0.64 -0.64 0
v 0 -0.64 0
v 0 -1.92 0
v -0.64 -1.92 0
v -0.64 -1.28 0
v 0 -1.28 0
v 0 -2.56 0
v -0.64 -2.56 0
v -0.64 -1.92 0
v 0 -1.92 0

# Texture cooridinates (Count = 10)
vt 0.59375 0.4375
vt 0.625 0.4375
vt 0.625 0.46875
vt 0.59375 0.46875
vt 0.71875 0.46875
vt 0.75 0.46875
vt 0.75 0.5
vt 0.71875 0.5
vt 0.71875 0.4375
vt 0.75 0.4375

# Normal
vn 0 0 -1

# Mesh description
g Test22_mesh_0338

# Faces
f 1/1/1 2/2/1 3/3/1 4/4/1
f 5/5/1 6/6/1 7/7/1 8/8/1
f 9/9/1 10/10/1 11/6/1 12/5/1

