# Tiled2Unity generated file. Do not modify by hand.
# Wavefront file for 'Test22_mesh_0380.obj'

# Vertices (Count = 16)
v -9.599999 -1.28 0
v -10.24 -1.28 0
v -10.24 -0.64 0
v -9.599999 -0.64 0
v -9.599999 -1.92 0
v -10.24 -1.92 0
v -10.24 -1.28 0
v -9.599999 -1.28 0
v -9.599999 -2.56 0
v -10.24 -2.56 0
v -10.24 -1.92 0
v -9.599999 -1.92 0
v -9.599999 -3.2 0
v -10.24 -3.2 0
v -10.24 -2.56 0
v -9.599999 -2.56 0

# Texture cooridinates (Count = 10)
vt 0.5 0.75
vt 0.625 0.75
vt 0.625 1
vt 0.5 1
vt 0.5 0.5
vt 0.625 0.5
vt 0.5 0.25
vt 0.625 0.25
vt 0.5 0
vt 0.625 0

# Normal
vn 0 0 -1

# Mesh description
g Test22_mesh_0380

# Faces
f 1/1/1 2/2/1 3/3/1 4/4/1
f 5/5/1 6/6/1 7/2/1 8/1/1
f 9/7/1 10/8/1 11/6/1 12/5/1
f 13/9/1 14/10/1 15/8/1 16/7/1

