# Tiled2Unity generated file. Do not modify by hand.
# Wavefront file for 'Test22_mesh_0166.obj'

# Vertices (Count = 64)
v 0 -3.84 0
v -0.64 -3.84 0
v -0.64 -3.2 0
v 0 -3.2 0
v -3.2 -3.84 0
v -3.84 -3.84 0
v -3.84 -3.2 0
v -3.2 -3.2 0
v -3.84 -3.84 0
v -4.48 -3.84 0
v -4.48 -3.2 0
v -3.84 -3.2 0
v -4.48 -3.84 0
v -5.12 -3.84 0
v -5.12 -3.2 0
v -4.48 -3.2 0
v -5.12 -3.84 0
v -5.76 -3.84 0
v -5.76 -3.2 0
v -5.12 -3.2 0
v 0 -4.48 0
v -0.64 -4.48 0
v -0.64 -3.84 0
v 0 -3.84 0
v -3.2 -4.48 0
v -3.84 -4.48 0
v -3.84 -3.84 0
v -3.2 -3.84 0
v -3.84 -4.48 0
v -4.48 -4.48 0
v -4.48 -3.84 0
v -3.84 -3.84 0
v -4.48 -4.48 0
v -5.12 -4.48 0
v -5.12 -3.84 0
v -4.48 -3.84 0
v -5.12 -4.48 0
v -5.76 -4.48 0
v -5.76 -3.84 0
v -5.12 -3.84 0
v -7.04 -7.04 0
v -7.68 -7.04 0
v -7.68 -6.4 0
v -7.04 -6.4 0
v -7.68 -7.04 0
v -8.32 -7.04 0
v -8.32 -6.4 0
v -7.68 -6.4 0
v -7.04 -7.68 0
v -7.68 -7.68 0
v -7.68 -7.04 0
v -7.04 -7.04 0
v -7.68 -7.68 0
v -8.32 -7.68 0
v -8.32 -7.04 0
v -7.68 -7.04 0
v -7.04 -8.32 0
v -7.68 -8.32 0
v -7.68 -7.68 0
v -7.04 -7.68 0
v -7.68 -8.32 0
v -8.32 -8.32 0
v -8.32 -7.68 0
v -7.68 -7.68 0

# Texture cooridinates (Count = 38)
vt 0.35 0.35
vt 0.4 0.35
vt 0.4 0.4
vt 0.35 0.4
vt 0.1 0.35
vt 0.15 0.35
vt 0.15 0.4
vt 0.1 0.4
vt 0.25 0.35
vt 0.3 0.35
vt 0.3 0.4
vt 0.25 0.4
vt 0.35 0.1
vt 0.4 0.1
vt 0.4 0.15
vt 0.35 0.15
vt 0.1 0.1
vt 0.15 0.1
vt 0.15 0.15
vt 0.1 0.15
vt 0.2 0.1
vt 0.25 0.1
vt 0.25 0.15
vt 0.2 0.15
vt 0.3 0.1
vt 0.3 0.15
vt 0.6 0.4
vt 0.65 0.4
vt 0.65 0.45
vt 0.6 0.45
vt 0.7 0.4
vt 0.7 0.45
vt 0.6 0.35
vt 0.65 0.35
vt 0.7 0.35
vt 0.6 0.3
vt 0.65 0.3
vt 0.7 0.3

# Normal
vn 0 0 -1

# Mesh description
g Test22_mesh_0166

# Faces
f 1/1/1 2/2/1 3/3/1 4/4/1
f 5/5/1 6/6/1 7/7/1 8/8/1
f 9/9/1 10/10/1 11/11/1 12/12/1
f 13/10/1 14/1/1 15/4/1 16/11/1
f 17/1/1 18/2/1 19/3/1 20/4/1
f 21/13/1 22/14/1 23/15/1 24/16/1
f 25/17/1 26/18/1 27/19/1 28/20/1
f 29/21/1 30/22/1 31/23/1 32/24/1
f 33/22/1 34/25/1 35/26/1 36/23/1
f 37/13/1 38/14/1 39/15/1 40/16/1
f 41/27/1 42/28/1 43/29/1 44/30/1
f 45/28/1 46/31/1 47/32/1 48/29/1
f 49/33/1 50/34/1 51/28/1 52/27/1
f 53/34/1 54/35/1 55/31/1 56/28/1
f 57/36/1 58/37/1 59/34/1 60/33/1
f 61/37/1 62/38/1 63/35/1 64/34/1

