# Tiled2Unity generated file. Do not modify by hand.
# Wavefront file for 'Test22_mesh_0307.obj'

# Vertices (Count = 8)
v 0 -5.76 0
v -0.64 -5.76 0
v -0.64 -5.12 0
v 0 -5.12 0
v 0 -6.4 0
v -0.64 -6.4 0
v -0.64 -5.76 0
v 0 -5.76 0

# Texture cooridinates (Count = 6)
vt 0.34375 0.78125
vt 0.375 0.78125
vt 0.375 0.8125
vt 0.34375 0.8125
vt 0.34375 0.75
vt 0.375 0.75

# Normal
vn 0 0 -1

# Mesh description
g Test22_mesh_0307

# Faces
f 1/1/1 2/2/1 3/3/1 4/4/1
f 5/5/1 6/6/1 7/2/1 8/1/1

