# Tiled2Unity generated file. Do not modify by hand.
# Wavefront file for 'Test22_mesh_0007.obj'

# Vertices (Count = 248)
v -0.64 -0.64 0
v -1.28 -0.64 0
v -1.28 0 0
v -0.64 0 0
v -1.28 -0.64 0
v -1.92 -0.64 0
v -1.92 0 0
v -1.28 0 0
v -0.64 -1.28 0
v -1.28 -1.28 0
v -1.28 -0.64 0
v -0.64 -0.64 0
v -1.28 -1.28 0
v -1.92 -1.28 0
v -1.92 -0.64 0
v -1.28 -0.64 0
v -0.64 -1.92 0
v -1.28 -1.92 0
v -1.28 -1.28 0
v -0.64 -1.28 0
v -1.28 -1.92 0
v -1.92 -1.92 0
v -1.92 -1.28 0
v -1.28 -1.28 0
v -0.64 -2.56 0
v -1.28 -2.56 0
v -1.28 -1.92 0
v -0.64 -1.92 0
v -1.28 -2.56 0
v -1.92 -2.56 0
v -1.92 -1.92 0
v -1.28 -1.92 0
v -0.64 -3.2 0
v -1.28 -3.2 0
v -1.28 -2.56 0
v -0.64 -2.56 0
v -1.28 -3.2 0
v -1.92 -3.2 0
v -1.92 -2.56 0
v -1.28 -2.56 0
v -0.64 -3.84 0
v -1.28 -3.84 0
v -1.28 -3.2 0
v -0.64 -3.2 0
v -1.28 -3.84 0
v -1.92 -3.84 0
v -1.92 -3.2 0
v -1.28 -3.2 0
v -0.64 -4.48 0
v -1.28 -4.48 0
v -1.28 -3.84 0
v -0.64 -3.84 0
v -1.28 -4.48 0
v -1.92 -4.48 0
v -1.92 -3.84 0
v -1.28 -3.84 0
v -1.92 -4.48 0
v -2.56 -4.48 0
v -2.56 -3.84 0
v -1.92 -3.84 0
v -2.56 -4.48 0
v -3.2 -4.48 0
v -3.2 -3.84 0
v -2.56 -3.84 0
v -3.2 -4.48 0
v -3.84 -4.48 0
v -3.84 -3.84 0
v -3.2 -3.84 0
v -3.84 -4.48 0
v -4.48 -4.48 0
v -4.48 -3.84 0
v -3.84 -3.84 0
v -4.48 -4.48 0
v -5.12 -4.48 0
v -5.12 -3.84 0
v -4.48 -3.84 0
v -5.12 -4.48 0
v -5.76 -4.48 0
v -5.76 -3.84 0
v -5.12 -3.84 0
v -5.76 -4.48 0
v -6.4 -4.48 0
v -6.4 -3.84 0
v -5.76 -3.84 0
v -6.4 -4.48 0
v -7.04 -4.48 0
v -7.04 -3.84 0
v -6.4 -3.84 0
v -7.04 -4.48 0
v -7.68 -4.48 0
v -7.68 -3.84 0
v -7.04 -3.84 0
v -7.68 -4.48 0
v -8.32 -4.48 0
v -8.32 -3.84 0
v -7.68 -3.84 0
v -8.32 -4.48 0
v -8.96 -4.48 0
v -8.96 -3.84 0
v -8.32 -3.84 0
v -8.96 -4.48 0
v -9.599999 -4.48 0
v -9.599999 -3.84 0
v -8.96 -3.84 0
v -9.599999 -4.48 0
v -10.24 -4.48 0
v -10.24 -3.84 0
v -9.599999 -3.84 0
v -0.64 -5.12 0
v -1.28 -5.12 0
v -1.28 -4.48 0
v -0.64 -4.48 0
v -1.28 -5.12 0
v -1.92 -5.12 0
v -1.92 -4.48 0
v -1.28 -4.48 0
v -1.92 -5.12 0
v -2.56 -5.12 0
v -2.56 -4.48 0
v -1.92 -4.48 0
v -2.56 -5.12 0
v -3.2 -5.12 0
v -3.2 -4.48 0
v -2.56 -4.48 0
v -3.2 -5.12 0
v -3.84 -5.12 0
v -3.84 -4.48 0
v -3.2 -4.48 0
v -3.84 -5.12 0
v -4.48 -5.12 0
v -4.48 -4.48 0
v -3.84 -4.48 0
v -4.48 -5.12 0
v -5.12 -5.12 0
v -5.12 -4.48 0
v -4.48 -4.48 0
v -5.12 -5.12 0
v -5.76 -5.12 0
v -5.76 -4.48 0
v -5.12 -4.48 0
v -5.76 -5.12 0
v -6.4 -5.12 0
v -6.4 -4.48 0
v -5.76 -4.48 0
v -6.4 -5.12 0
v -7.04 -5.12 0
v -7.04 -4.48 0
v -6.4 -4.48 0
v -7.04 -5.12 0
v -7.68 -5.12 0
v -7.68 -4.48 0
v -7.04 -4.48 0
v -7.68 -5.12 0
v -8.32 -5.12 0
v -8.32 -4.48 0
v -7.68 -4.48 0
v -8.32 -5.12 0
v -8.96 -5.12 0
v -8.96 -4.48 0
v -8.32 -4.48 0
v -8.96 -5.12 0
v -9.599999 -5.12 0
v -9.599999 -4.48 0
v -8.96 -4.48 0
v -9.599999 -5.12 0
v -10.24 -5.12 0
v -10.24 -4.48 0
v -9.599999 -4.48 0
v -0.64 -5.76 0
v -1.28 -5.76 0
v -1.28 -5.12 0
v -0.64 -5.12 0
v -1.28 -5.76 0
v -1.92 -5.76 0
v -1.92 -5.12 0
v -1.28 -5.12 0
v -0.64 -6.4 0
v -1.28 -6.4 0
v -1.28 -5.76 0
v -0.64 -5.76 0
v -1.28 -6.4 0
v -1.92 -6.4 0
v -1.92 -5.76 0
v -1.28 -5.76 0
v -0.64 -7.04 0
v -1.28 -7.04 0
v -1.28 -6.4 0
v -0.64 -6.4 0
v -1.28 -7.04 0
v -1.92 -7.04 0
v -1.92 -6.4 0
v -1.28 -6.4 0
v -0.64 -7.68 0
v -1.28 -7.68 0
v -1.28 -7.04 0
v -0.64 -7.04 0
v -1.28 -7.68 0
v -1.92 -7.68 0
v -1.92 -7.04 0
v -1.28 -7.04 0
v -0.64 -8.32 0
v -1.28 -8.32 0
v -1.28 -7.68 0
v -0.64 -7.68 0
v -1.28 -8.32 0
v -1.92 -8.32 0
v -1.92 -7.68 0
v -1.28 -7.68 0
v -1.92 -8.32 0
v -2.56 -8.32 0
v -2.56 -7.68 0
v -1.92 -7.68 0
v -0.64 -8.96 0
v -1.28 -8.96 0
v -1.28 -8.32 0
v -0.64 -8.32 0
v -1.28 -8.96 0
v -1.92 -8.96 0
v -1.92 -8.32 0
v -1.28 -8.32 0
v -1.92 -8.96 0
v -2.56 -8.96 0
v -2.56 -8.32 0
v -1.92 -8.32 0
v -0.64 -9.599999 0
v -1.28 -9.599999 0
v -1.28 -8.96 0
v -0.64 -8.96 0
v -1.28 -9.599999 0
v -1.92 -9.599999 0
v -1.92 -8.96 0
v -1.28 -8.96 0
v -1.92 -9.599999 0
v -2.56 -9.599999 0
v -2.56 -8.96 0
v -1.92 -8.96 0
v -0.64 -10.24 0
v -1.28 -10.24 0
v -1.28 -9.599999 0
v -0.64 -9.599999 0
v -1.28 -10.24 0
v -1.92 -10.24 0
v -1.92 -9.599999 0
v -1.28 -9.599999 0
v -1.92 -10.24 0
v -2.56 -10.24 0
v -2.56 -9.599999 0
v -1.92 -9.599999 0

# Texture cooridinates (Count = 9)
vt 0.03125 0.84375
vt 0.0625 0.84375
vt 0.0625 0.875
vt 0.03125 0.875
vt 0.09375 0.84375
vt 0.09375 0.875
vt 0.0625 0.90625
vt 0.03125 0.90625
vt 0.09375 0.90625

# Normal
vn 0 0 -1

# Mesh description
g Test22_mesh_0007

# Faces
f 1/1/1 2/2/1 3/3/1 4/4/1
f 5/2/1 6/5/1 7/6/1 8/3/1
f 9/1/1 10/2/1 11/3/1 12/4/1
f 13/2/1 14/5/1 15/6/1 16/3/1
f 17/1/1 18/2/1 19/3/1 20/4/1
f 21/2/1 22/5/1 23/6/1 24/3/1
f 25/1/1 26/2/1 27/3/1 28/4/1
f 29/2/1 30/5/1 31/6/1 32/3/1
f 33/1/1 34/2/1 35/3/1 36/4/1
f 37/2/1 38/5/1 39/6/1 40/3/1
f 41/1/1 42/2/1 43/3/1 44/4/1
f 45/2/1 46/5/1 47/6/1 48/3/1
f 49/1/1 50/2/1 51/3/1 52/4/1
f 53/2/1 54/5/1 55/6/1 56/3/1
f 57/4/1 58/3/1 59/7/1 60/8/1
f 61/3/1 62/6/1 63/9/1 64/7/1
f 65/3/1 66/6/1 67/9/1 68/7/1
f 69/3/1 70/6/1 71/9/1 72/7/1
f 73/3/1 74/6/1 75/9/1 76/7/1
f 77/3/1 78/6/1 79/9/1 80/7/1
f 81/3/1 82/6/1 83/9/1 84/7/1
f 85/3/1 86/6/1 87/9/1 88/7/1
f 89/3/1 90/6/1 91/9/1 92/7/1
f 93/3/1 94/6/1 95/9/1 96/7/1
f 97/3/1 98/6/1 99/9/1 100/7/1
f 101/3/1 102/6/1 103/9/1 104/7/1
f 105/3/1 106/6/1 107/9/1 108/7/1
f 109/4/1 110/3/1 111/7/1 112/8/1
f 113/3/1 114/6/1 115/9/1 116/7/1
f 117/1/1 118/2/1 119/3/1 120/4/1
f 121/2/1 122/5/1 123/6/1 124/3/1
f 125/2/1 126/5/1 127/6/1 128/3/1
f 129/2/1 130/5/1 131/6/1 132/3/1
f 133/2/1 134/5/1 135/6/1 136/3/1
f 137/2/1 138/5/1 139/6/1 140/3/1
f 141/2/1 142/5/1 143/6/1 144/3/1
f 145/2/1 146/5/1 147/6/1 148/3/1
f 149/2/1 150/5/1 151/6/1 152/3/1
f 153/2/1 154/5/1 155/6/1 156/3/1
f 157/2/1 158/5/1 159/6/1 160/3/1
f 161/2/1 162/5/1 163/6/1 164/3/1
f 165/2/1 166/5/1 167/6/1 168/3/1
f 169/4/1 170/3/1 171/7/1 172/8/1
f 173/3/1 174/6/1 175/9/1 176/7/1
f 177/4/1 178/3/1 179/7/1 180/8/1
f 181/3/1 182/6/1 183/9/1 184/7/1
f 185/4/1 186/3/1 187/7/1 188/8/1
f 189/3/1 190/6/1 191/9/1 192/7/1
f 193/4/1 194/3/1 195/7/1 196/8/1
f 197/3/1 198/6/1 199/9/1 200/7/1
f 201/4/1 202/3/1 203/7/1 204/8/1
f 205/3/1 206/6/1 207/9/1 208/7/1
f 209/3/1 210/6/1 211/9/1 212/7/1
f 213/4/1 214/3/1 215/7/1 216/8/1
f 217/3/1 218/6/1 219/9/1 220/7/1
f 221/3/1 222/6/1 223/9/1 224/7/1
f 225/4/1 226/3/1 227/7/1 228/8/1
f 229/3/1 230/6/1 231/9/1 232/7/1
f 233/3/1 234/6/1 235/9/1 236/7/1
f 237/4/1 238/3/1 239/7/1 240/8/1
f 241/3/1 242/6/1 243/9/1 244/7/1
f 245/3/1 246/6/1 247/9/1 248/7/1

