# Tiled2Unity generated file. Do not modify by hand.
# Wavefront file for 'Test22_mesh_0133.obj'

# Vertices (Count = 12)
v -9.599999 -7.68 0
v -10.24 -7.68 0
v -10.24 -7.04 0
v -9.599999 -7.04 0
v -9.599999 -8.32 0
v -10.24 -8.32 0
v -10.24 -7.68 0
v -9.599999 -7.68 0
v -9.599999 -8.96 0
v -10.24 -8.96 0
v -10.24 -8.32 0
v -9.599999 -8.32 0

# Texture cooridinates (Count = 6)
vt 0.08333334 0.03333336
vt 0.125 0.03333336
vt 0.125 0.06666666
vt 0.08333334 0.06666666
vt 0.08333334 0
vt 0.125 0

# Normal
vn 0 0 -1

# Mesh description
g Test22_mesh_0133

# Faces
f 1/1/1 2/2/1 3/3/1 4/4/1
f 5/5/1 6/6/1 7/2/1 8/1/1
f 9/1/1 10/2/1 11/3/1 12/4/1

