# Tiled2Unity generated file. Do not modify by hand.
# Wavefront file for 'Test22_mesh_0110.obj'

# Vertices (Count = 840)
v 0 -0.64 0
v -0.64 -0.64 0
v -0.64 0 0
v 0 0 0
v -0.64 -0.64 0
v -1.28 -0.64 0
v -1.28 0 0
v -0.64 0 0
v -1.28 -0.64 0
v -1.92 -0.64 0
v -1.92 0 0
v -1.28 0 0
v -1.92 -0.64 0
v -2.56 -0.64 0
v -2.56 0 0
v -1.92 0 0
v -2.56 -0.64 0
v -3.2 -0.64 0
v -3.2 0 0
v -2.56 0 0
v -3.2 -0.64 0
v -3.84 -0.64 0
v -3.84 0 0
v -3.2 0 0
v -3.84 -0.64 0
v -4.48 -0.64 0
v -4.48 0 0
v -3.84 0 0
v -4.48 -0.64 0
v -5.12 -0.64 0
v -5.12 0 0
v -4.48 0 0
v -5.12 -0.64 0
v -5.76 -0.64 0
v -5.76 0 0
v -5.12 0 0
v -5.76 -0.64 0
v -6.4 -0.64 0
v -6.4 0 0
v -5.76 0 0
v -6.4 -0.64 0
v -7.04 -0.64 0
v -7.04 0 0
v -6.4 0 0
v -7.04 -0.64 0
v -7.68 -0.64 0
v -7.68 0 0
v -7.04 0 0
v -7.68 -0.64 0
v -8.32 -0.64 0
v -8.32 0 0
v -7.68 0 0
v -8.32 -0.64 0
v -8.96 -0.64 0
v -8.96 0 0
v -8.32 0 0
v -8.96 -0.64 0
v -9.599999 -0.64 0
v -9.599999 0 0
v -8.96 0 0
v 0 -1.28 0
v -0.64 -1.28 0
v -0.64 -0.64 0
v 0 -0.64 0
v -0.64 -1.28 0
v -1.28 -1.28 0
v -1.28 -0.64 0
v -0.64 -0.64 0
v -1.28 -1.28 0
v -1.92 -1.28 0
v -1.92 -0.64 0
v -1.28 -0.64 0
v -1.92 -1.28 0
v -2.56 -1.28 0
v -2.56 -0.64 0
v -1.92 -0.64 0
v -2.56 -1.28 0
v -3.2 -1.28 0
v -3.2 -0.64 0
v -2.56 -0.64 0
v -3.2 -1.28 0
v -3.84 -1.28 0
v -3.84 -0.64 0
v -3.2 -0.64 0
v -3.84 -1.28 0
v -4.48 -1.28 0
v -4.48 -0.64 0
v -3.84 -0.64 0
v -4.48 -1.28 0
v -5.12 -1.28 0
v -5.12 -0.64 0
v -4.48 -0.64 0
v -5.12 -1.28 0
v -5.76 -1.28 0
v -5.76 -0.64 0
v -5.12 -0.64 0
v -5.76 -1.28 0
v -6.4 -1.28 0
v -6.4 -0.64 0
v -5.76 -0.64 0
v -6.4 -1.28 0
v -7.04 -1.28 0
v -7.04 -0.64 0
v -6.4 -0.64 0
v -7.04 -1.28 0
v -7.68 -1.28 0
v -7.68 -0.64 0
v -7.04 -0.64 0
v -7.68 -1.28 0
v -8.32 -1.28 0
v -8.32 -0.64 0
v -7.68 -0.64 0
v -8.32 -1.28 0
v -8.96 -1.28 0
v -8.96 -0.64 0
v -8.32 -0.64 0
v -8.96 -1.28 0
v -9.599999 -1.28 0
v -9.599999 -0.64 0
v -8.96 -0.64 0
v 0 -1.92 0
v -0.64 -1.92 0
v -0.64 -1.28 0
v 0 -1.28 0
v -0.64 -1.92 0
v -1.28 -1.92 0
v -1.28 -1.28 0
v -0.64 -1.28 0
v -1.28 -1.92 0
v -1.92 -1.92 0
v -1.92 -1.28 0
v -1.28 -1.28 0
v -1.92 -1.92 0
v -2.56 -1.92 0
v -2.56 -1.28 0
v -1.92 -1.28 0
v -2.56 -1.92 0
v -3.2 -1.92 0
v -3.2 -1.28 0
v -2.56 -1.28 0
v -3.2 -1.92 0
v -3.84 -1.92 0
v -3.84 -1.28 0
v -3.2 -1.28 0
v -3.84 -1.92 0
v -4.48 -1.92 0
v -4.48 -1.28 0
v -3.84 -1.28 0
v -4.48 -1.92 0
v -5.12 -1.92 0
v -5.12 -1.28 0
v -4.48 -1.28 0
v -5.12 -1.92 0
v -5.76 -1.92 0
v -5.76 -1.28 0
v -5.12 -1.28 0
v -5.76 -1.92 0
v -6.4 -1.92 0
v -6.4 -1.28 0
v -5.76 -1.28 0
v -6.4 -1.92 0
v -7.04 -1.92 0
v -7.04 -1.28 0
v -6.4 -1.28 0
v -7.04 -1.92 0
v -7.68 -1.92 0
v -7.68 -1.28 0
v -7.04 -1.28 0
v -7.68 -1.92 0
v -8.32 -1.92 0
v -8.32 -1.28 0
v -7.68 -1.28 0
v -8.32 -1.92 0
v -8.96 -1.92 0
v -8.96 -1.28 0
v -8.32 -1.28 0
v -8.96 -1.92 0
v -9.599999 -1.92 0
v -9.599999 -1.28 0
v -8.96 -1.28 0
v 0 -2.56 0
v -0.64 -2.56 0
v -0.64 -1.92 0
v 0 -1.92 0
v -0.64 -2.56 0
v -1.28 -2.56 0
v -1.28 -1.92 0
v -0.64 -1.92 0
v -1.28 -2.56 0
v -1.92 -2.56 0
v -1.92 -1.92 0
v -1.28 -1.92 0
v -1.92 -2.56 0
v -2.56 -2.56 0
v -2.56 -1.92 0
v -1.92 -1.92 0
v -2.56 -2.56 0
v -3.2 -2.56 0
v -3.2 -1.92 0
v -2.56 -1.92 0
v -3.2 -2.56 0
v -3.84 -2.56 0
v -3.84 -1.92 0
v -3.2 -1.92 0
v -3.84 -2.56 0
v -4.48 -2.56 0
v -4.48 -1.92 0
v -3.84 -1.92 0
v -4.48 -2.56 0
v -5.12 -2.56 0
v -5.12 -1.92 0
v -4.48 -1.92 0
v -5.12 -2.56 0
v -5.76 -2.56 0
v -5.76 -1.92 0
v -5.12 -1.92 0
v -5.76 -2.56 0
v -6.4 -2.56 0
v -6.4 -1.92 0
v -5.76 -1.92 0
v -6.4 -2.56 0
v -7.04 -2.56 0
v -7.04 -1.92 0
v -6.4 -1.92 0
v -7.04 -2.56 0
v -7.68 -2.56 0
v -7.68 -1.92 0
v -7.04 -1.92 0
v -7.68 -2.56 0
v -8.32 -2.56 0
v -8.32 -1.92 0
v -7.68 -1.92 0
v -8.32 -2.56 0
v -8.96 -2.56 0
v -8.96 -1.92 0
v -8.32 -1.92 0
v -8.96 -2.56 0
v -9.599999 -2.56 0
v -9.599999 -1.92 0
v -8.96 -1.92 0
v 0 -3.2 0
v -0.64 -3.2 0
v -0.64 -2.56 0
v 0 -2.56 0
v -0.64 -3.2 0
v -1.28 -3.2 0
v -1.28 -2.56 0
v -0.64 -2.56 0
v -1.28 -3.2 0
v -1.92 -3.2 0
v -1.92 -2.56 0
v -1.28 -2.56 0
v -1.92 -3.2 0
v -2.56 -3.2 0
v -2.56 -2.56 0
v -1.92 -2.56 0
v -2.56 -3.2 0
v -3.2 -3.2 0
v -3.2 -2.56 0
v -2.56 -2.56 0
v -3.2 -3.2 0
v -3.84 -3.2 0
v -3.84 -2.56 0
v -3.2 -2.56 0
v -3.84 -3.2 0
v -4.48 -3.2 0
v -4.48 -2.56 0
v -3.84 -2.56 0
v -4.48 -3.2 0
v -5.12 -3.2 0
v -5.12 -2.56 0
v -4.48 -2.56 0
v -5.12 -3.2 0
v -5.76 -3.2 0
v -5.76 -2.56 0
v -5.12 -2.56 0
v -5.76 -3.2 0
v -6.4 -3.2 0
v -6.4 -2.56 0
v -5.76 -2.56 0
v -6.4 -3.2 0
v -7.04 -3.2 0
v -7.04 -2.56 0
v -6.4 -2.56 0
v -7.04 -3.2 0
v -7.68 -3.2 0
v -7.68 -2.56 0
v -7.04 -2.56 0
v -7.68 -3.2 0
v -8.32 -3.2 0
v -8.32 -2.56 0
v -7.68 -2.56 0
v -8.32 -3.2 0
v -8.96 -3.2 0
v -8.96 -2.56 0
v -8.32 -2.56 0
v -8.96 -3.2 0
v -9.599999 -3.2 0
v -9.599999 -2.56 0
v -8.96 -2.56 0
v 0 -3.84 0
v -0.64 -3.84 0
v -0.64 -3.2 0
v 0 -3.2 0
v -0.64 -3.84 0
v -1.28 -3.84 0
v -1.28 -3.2 0
v -0.64 -3.2 0
v -1.28 -3.84 0
v -1.92 -3.84 0
v -1.92 -3.2 0
v -1.28 -3.2 0
v -1.92 -3.84 0
v -2.56 -3.84 0
v -2.56 -3.2 0
v -1.92 -3.2 0
v -2.56 -3.84 0
v -3.2 -3.84 0
v -3.2 -3.2 0
v -2.56 -3.2 0
v -3.2 -3.84 0
v -3.84 -3.84 0
v -3.84 -3.2 0
v -3.2 -3.2 0
v -3.84 -3.84 0
v -4.48 -3.84 0
v -4.48 -3.2 0
v -3.84 -3.2 0
v -4.48 -3.84 0
v -5.12 -3.84 0
v -5.12 -3.2 0
v -4.48 -3.2 0
v -5.12 -3.84 0
v -5.76 -3.84 0
v -5.76 -3.2 0
v -5.12 -3.2 0
v -5.76 -3.84 0
v -6.4 -3.84 0
v -6.4 -3.2 0
v -5.76 -3.2 0
v -6.4 -3.84 0
v -7.04 -3.84 0
v -7.04 -3.2 0
v -6.4 -3.2 0
v -7.04 -3.84 0
v -7.68 -3.84 0
v -7.68 -3.2 0
v -7.04 -3.2 0
v -7.68 -3.84 0
v -8.32 -3.84 0
v -8.32 -3.2 0
v -7.68 -3.2 0
v -8.32 -3.84 0
v -8.96 -3.84 0
v -8.96 -3.2 0
v -8.32 -3.2 0
v -8.96 -3.84 0
v -9.599999 -3.84 0
v -9.599999 -3.2 0
v -8.96 -3.2 0
v 0 -4.48 0
v -0.64 -4.48 0
v -0.64 -3.84 0
v 0 -3.84 0
v -0.64 -4.48 0
v -1.28 -4.48 0
v -1.28 -3.84 0
v -0.64 -3.84 0
v -1.28 -4.48 0
v -1.92 -4.48 0
v -1.92 -3.84 0
v -1.28 -3.84 0
v -1.92 -4.48 0
v -2.56 -4.48 0
v -2.56 -3.84 0
v -1.92 -3.84 0
v -2.56 -4.48 0
v -3.2 -4.48 0
v -3.2 -3.84 0
v -2.56 -3.84 0
v -3.2 -4.48 0
v -3.84 -4.48 0
v -3.84 -3.84 0
v -3.2 -3.84 0
v -3.84 -4.48 0
v -4.48 -4.48 0
v -4.48 -3.84 0
v -3.84 -3.84 0
v -4.48 -4.48 0
v -5.12 -4.48 0
v -5.12 -3.84 0
v -4.48 -3.84 0
v -5.12 -4.48 0
v -5.76 -4.48 0
v -5.76 -3.84 0
v -5.12 -3.84 0
v -5.76 -4.48 0
v -6.4 -4.48 0
v -6.4 -3.84 0
v -5.76 -3.84 0
v -6.4 -4.48 0
v -7.04 -4.48 0
v -7.04 -3.84 0
v -6.4 -3.84 0
v -7.04 -4.48 0
v -7.68 -4.48 0
v -7.68 -3.84 0
v -7.04 -3.84 0
v -7.68 -4.48 0
v -8.32 -4.48 0
v -8.32 -3.84 0
v -7.68 -3.84 0
v -8.32 -4.48 0
v -8.96 -4.48 0
v -8.96 -3.84 0
v -8.32 -3.84 0
v -8.96 -4.48 0
v -9.599999 -4.48 0
v -9.599999 -3.84 0
v -8.96 -3.84 0
v 0 -5.12 0
v -0.64 -5.12 0
v -0.64 -4.48 0
v 0 -4.48 0
v -0.64 -5.12 0
v -1.28 -5.12 0
v -1.28 -4.48 0
v -0.64 -4.48 0
v -1.28 -5.12 0
v -1.92 -5.12 0
v -1.92 -4.48 0
v -1.28 -4.48 0
v -1.92 -5.12 0
v -2.56 -5.12 0
v -2.56 -4.48 0
v -1.92 -4.48 0
v -2.56 -5.12 0
v -3.2 -5.12 0
v -3.2 -4.48 0
v -2.56 -4.48 0
v -3.2 -5.12 0
v -3.84 -5.12 0
v -3.84 -4.48 0
v -3.2 -4.48 0
v -3.84 -5.12 0
v -4.48 -5.12 0
v -4.48 -4.48 0
v -3.84 -4.48 0
v -4.48 -5.12 0
v -5.12 -5.12 0
v -5.12 -4.48 0
v -4.48 -4.48 0
v -5.12 -5.12 0
v -5.76 -5.12 0
v -5.76 -4.48 0
v -5.12 -4.48 0
v -5.76 -5.12 0
v -6.4 -5.12 0
v -6.4 -4.48 0
v -5.76 -4.48 0
v -6.4 -5.12 0
v -7.04 -5.12 0
v -7.04 -4.48 0
v -6.4 -4.48 0
v -7.04 -5.12 0
v -7.68 -5.12 0
v -7.68 -4.48 0
v -7.04 -4.48 0
v -7.68 -5.12 0
v -8.32 -5.12 0
v -8.32 -4.48 0
v -7.68 -4.48 0
v -8.32 -5.12 0
v -8.96 -5.12 0
v -8.96 -4.48 0
v -8.32 -4.48 0
v -8.96 -5.12 0
v -9.599999 -5.12 0
v -9.599999 -4.48 0
v -8.96 -4.48 0
v 0 -5.76 0
v -0.64 -5.76 0
v -0.64 -5.12 0
v 0 -5.12 0
v -0.64 -5.76 0
v -1.28 -5.76 0
v -1.28 -5.12 0
v -0.64 -5.12 0
v -1.28 -5.76 0
v -1.92 -5.76 0
v -1.92 -5.12 0
v -1.28 -5.12 0
v -1.92 -5.76 0
v -2.56 -5.76 0
v -2.56 -5.12 0
v -1.92 -5.12 0
v -2.56 -5.76 0
v -3.2 -5.76 0
v -3.2 -5.12 0
v -2.56 -5.12 0
v -3.2 -5.76 0
v -3.84 -5.76 0
v -3.84 -5.12 0
v -3.2 -5.12 0
v -3.84 -5.76 0
v -4.48 -5.76 0
v -4.48 -5.12 0
v -3.84 -5.12 0
v -4.48 -5.76 0
v -5.12 -5.76 0
v -5.12 -5.12 0
v -4.48 -5.12 0
v -5.12 -5.76 0
v -5.76 -5.76 0
v -5.76 -5.12 0
v -5.12 -5.12 0
v -5.76 -5.76 0
v -6.4 -5.76 0
v -6.4 -5.12 0
v -5.76 -5.12 0
v -6.4 -5.76 0
v -7.04 -5.76 0
v -7.04 -5.12 0
v -6.4 -5.12 0
v -7.04 -5.76 0
v -7.68 -5.76 0
v -7.68 -5.12 0
v -7.04 -5.12 0
v -7.68 -5.76 0
v -8.32 -5.76 0
v -8.32 -5.12 0
v -7.68 -5.12 0
v -8.32 -5.76 0
v -8.96 -5.76 0
v -8.96 -5.12 0
v -8.32 -5.12 0
v -8.96 -5.76 0
v -9.599999 -5.76 0
v -9.599999 -5.12 0
v -8.96 -5.12 0
v 0 -6.4 0
v -0.64 -6.4 0
v -0.64 -5.76 0
v 0 -5.76 0
v -0.64 -6.4 0
v -1.28 -6.4 0
v -1.28 -5.76 0
v -0.64 -5.76 0
v -1.28 -6.4 0
v -1.92 -6.4 0
v -1.92 -5.76 0
v -1.28 -5.76 0
v -1.92 -6.4 0
v -2.56 -6.4 0
v -2.56 -5.76 0
v -1.92 -5.76 0
v -2.56 -6.4 0
v -3.2 -6.4 0
v -3.2 -5.76 0
v -2.56 -5.76 0
v -3.2 -6.4 0
v -3.84 -6.4 0
v -3.84 -5.76 0
v -3.2 -5.76 0
v -3.84 -6.4 0
v -4.48 -6.4 0
v -4.48 -5.76 0
v -3.84 -5.76 0
v -4.48 -6.4 0
v -5.12 -6.4 0
v -5.12 -5.76 0
v -4.48 -5.76 0
v -5.12 -6.4 0
v -5.76 -6.4 0
v -5.76 -5.76 0
v -5.12 -5.76 0
v -5.76 -6.4 0
v -6.4 -6.4 0
v -6.4 -5.76 0
v -5.76 -5.76 0
v -6.4 -6.4 0
v -7.04 -6.4 0
v -7.04 -5.76 0
v -6.4 -5.76 0
v -7.04 -6.4 0
v -7.68 -6.4 0
v -7.68 -5.76 0
v -7.04 -5.76 0
v -7.68 -6.4 0
v -8.32 -6.4 0
v -8.32 -5.76 0
v -7.68 -5.76 0
v -8.32 -6.4 0
v -8.96 -6.4 0
v -8.96 -5.76 0
v -8.32 -5.76 0
v -8.96 -6.4 0
v -9.599999 -6.4 0
v -9.599999 -5.76 0
v -8.96 -5.76 0
v 0 -7.04 0
v -0.64 -7.04 0
v -0.64 -6.4 0
v 0 -6.4 0
v -0.64 -7.04 0
v -1.28 -7.04 0
v -1.28 -6.4 0
v -0.64 -6.4 0
v -1.28 -7.04 0
v -1.92 -7.04 0
v -1.92 -6.4 0
v -1.28 -6.4 0
v -1.92 -7.04 0
v -2.56 -7.04 0
v -2.56 -6.4 0
v -1.92 -6.4 0
v -2.56 -7.04 0
v -3.2 -7.04 0
v -3.2 -6.4 0
v -2.56 -6.4 0
v -3.2 -7.04 0
v -3.84 -7.04 0
v -3.84 -6.4 0
v -3.2 -6.4 0
v -3.84 -7.04 0
v -4.48 -7.04 0
v -4.48 -6.4 0
v -3.84 -6.4 0
v -4.48 -7.04 0
v -5.12 -7.04 0
v -5.12 -6.4 0
v -4.48 -6.4 0
v -5.12 -7.04 0
v -5.76 -7.04 0
v -5.76 -6.4 0
v -5.12 -6.4 0
v -5.76 -7.04 0
v -6.4 -7.04 0
v -6.4 -6.4 0
v -5.76 -6.4 0
v -6.4 -7.04 0
v -7.04 -7.04 0
v -7.04 -6.4 0
v -6.4 -6.4 0
v -7.04 -7.04 0
v -7.68 -7.04 0
v -7.68 -6.4 0
v -7.04 -6.4 0
v -7.68 -7.04 0
v -8.32 -7.04 0
v -8.32 -6.4 0
v -7.68 -6.4 0
v -8.32 -7.04 0
v -8.96 -7.04 0
v -8.96 -6.4 0
v -8.32 -6.4 0
v -8.96 -7.04 0
v -9.599999 -7.04 0
v -9.599999 -6.4 0
v -8.96 -6.4 0
v 0 -7.68 0
v -0.64 -7.68 0
v -0.64 -7.04 0
v 0 -7.04 0
v -0.64 -7.68 0
v -1.28 -7.68 0
v -1.28 -7.04 0
v -0.64 -7.04 0
v -1.28 -7.68 0
v -1.92 -7.68 0
v -1.92 -7.04 0
v -1.28 -7.04 0
v -1.92 -7.68 0
v -2.56 -7.68 0
v -2.56 -7.04 0
v -1.92 -7.04 0
v -2.56 -7.68 0
v -3.2 -7.68 0
v -3.2 -7.04 0
v -2.56 -7.04 0
v -3.2 -7.68 0
v -3.84 -7.68 0
v -3.84 -7.04 0
v -3.2 -7.04 0
v -3.84 -7.68 0
v -4.48 -7.68 0
v -4.48 -7.04 0
v -3.84 -7.04 0
v -4.48 -7.68 0
v -5.12 -7.68 0
v -5.12 -7.04 0
v -4.48 -7.04 0
v -5.12 -7.68 0
v -5.76 -7.68 0
v -5.76 -7.04 0
v -5.12 -7.04 0
v -5.76 -7.68 0
v -6.4 -7.68 0
v -6.4 -7.04 0
v -5.76 -7.04 0
v -6.4 -7.68 0
v -7.04 -7.68 0
v -7.04 -7.04 0
v -6.4 -7.04 0
v -7.04 -7.68 0
v -7.68 -7.68 0
v -7.68 -7.04 0
v -7.04 -7.04 0
v -7.68 -7.68 0
v -8.32 -7.68 0
v -8.32 -7.04 0
v -7.68 -7.04 0
v -8.32 -7.68 0
v -8.96 -7.68 0
v -8.96 -7.04 0
v -8.32 -7.04 0
v -8.96 -7.68 0
v -9.599999 -7.68 0
v -9.599999 -7.04 0
v -8.96 -7.04 0
v 0 -8.32 0
v -0.64 -8.32 0
v -0.64 -7.68 0
v 0 -7.68 0
v -0.64 -8.32 0
v -1.28 -8.32 0
v -1.28 -7.68 0
v -0.64 -7.68 0
v -1.28 -8.32 0
v -1.92 -8.32 0
v -1.92 -7.68 0
v -1.28 -7.68 0
v -1.92 -8.32 0
v -2.56 -8.32 0
v -2.56 -7.68 0
v -1.92 -7.68 0
v -2.56 -8.32 0
v -3.2 -8.32 0
v -3.2 -7.68 0
v -2.56 -7.68 0
v -3.2 -8.32 0
v -3.84 -8.32 0
v -3.84 -7.68 0
v -3.2 -7.68 0
v -3.84 -8.32 0
v -4.48 -8.32 0
v -4.48 -7.68 0
v -3.84 -7.68 0
v -4.48 -8.32 0
v -5.12 -8.32 0
v -5.12 -7.68 0
v -4.48 -7.68 0
v -5.12 -8.32 0
v -5.76 -8.32 0
v -5.76 -7.68 0
v -5.12 -7.68 0
v -5.76 -8.32 0
v -6.4 -8.32 0
v -6.4 -7.68 0
v -5.76 -7.68 0
v -6.4 -8.32 0
v -7.04 -8.32 0
v -7.04 -7.68 0
v -6.4 -7.68 0
v -7.04 -8.32 0
v -7.68 -8.32 0
v -7.68 -7.68 0
v -7.04 -7.68 0
v -7.68 -8.32 0
v -8.32 -8.32 0
v -8.32 -7.68 0
v -7.68 -7.68 0
v -8.32 -8.32 0
v -8.96 -8.32 0
v -8.96 -7.68 0
v -8.32 -7.68 0
v -8.96 -8.32 0
v -9.599999 -8.32 0
v -9.599999 -7.68 0
v -8.96 -7.68 0
v 0 -8.96 0
v -0.64 -8.96 0
v -0.64 -8.32 0
v 0 -8.32 0
v -0.64 -8.96 0
v -1.28 -8.96 0
v -1.28 -8.32 0
v -0.64 -8.32 0
v -1.28 -8.96 0
v -1.92 -8.96 0
v -1.92 -8.32 0
v -1.28 -8.32 0
v -1.92 -8.96 0
v -2.56 -8.96 0
v -2.56 -8.32 0
v -1.92 -8.32 0
v -2.56 -8.96 0
v -3.2 -8.96 0
v -3.2 -8.32 0
v -2.56 -8.32 0
v -3.2 -8.96 0
v -3.84 -8.96 0
v -3.84 -8.32 0
v -3.2 -8.32 0
v -3.84 -8.96 0
v -4.48 -8.96 0
v -4.48 -8.32 0
v -3.84 -8.32 0
v -4.48 -8.96 0
v -5.12 -8.96 0
v -5.12 -8.32 0
v -4.48 -8.32 0
v -5.12 -8.96 0
v -5.76 -8.96 0
v -5.76 -8.32 0
v -5.12 -8.32 0
v -5.76 -8.96 0
v -6.4 -8.96 0
v -6.4 -8.32 0
v -5.76 -8.32 0
v -6.4 -8.96 0
v -7.04 -8.96 0
v -7.04 -8.32 0
v -6.4 -8.32 0
v -7.04 -8.96 0
v -7.68 -8.96 0
v -7.68 -8.32 0
v -7.04 -8.32 0
v -7.68 -8.96 0
v -8.32 -8.96 0
v -8.32 -8.32 0
v -7.68 -8.32 0
v -8.32 -8.96 0
v -8.96 -8.96 0
v -8.96 -8.32 0
v -8.32 -8.32 0
v -8.96 -8.96 0
v -9.599999 -8.96 0
v -9.599999 -8.32 0
v -8.96 -8.32 0

# Texture cooridinates (Count = 43)
vt 0.2 0.25
vt 0.25 0.25
vt 0.25 0.3
vt 0.2 0.3
vt 0.3 0.25
vt 0.3 0.3
vt 0.35 0.25
vt 0.4 0.25
vt 0.4 0.3
vt 0.35 0.3
vt 0.65 0.7
vt 0.7 0.7
vt 0.7 0.75
vt 0.65 0.75
vt 0.75 0.7
vt 0.75 0.75
vt 0.8 0.7
vt 0.8 0.75
vt 0.85 0.7
vt 0.85 0.75
vt 0.9 0.75
vt 0.9 0.8
vt 0.85 0.8
vt 0.2 0.2
vt 0.25 0.2
vt 0.3 0.2
vt 0.35 0.2
vt 0.4 0.2
vt 0.65 0.65
vt 0.7 0.65
vt 0.75 0.65
vt 0.8 0.65
vt 0.85 0.65
vt 0.9 0.7
vt 0.65 0.8
vt 0.7 0.8
vt 0.7 0.85
vt 0.65 0.85
vt 0.75 0.8
vt 0.75 0.85
vt 0.8 0.8
vt 0.8 0.85
vt 0.85 0.85

# Normal
vn 0 0 -1

# Mesh description
g Test22_mesh_0110

# Faces
f 1/1/1 2/2/1 3/3/1 4/4/1
f 5/2/1 6/5/1 7/6/1 8/3/1
f 9/7/1 10/8/1 11/9/1 12/10/1
f 13/11/1 14/12/1 15/13/1 16/14/1
f 17/12/1 18/15/1 19/16/1 20/13/1
f 21/15/1 22/17/1 23/18/1 24/16/1
f 25/17/1 26/19/1 27/20/1 28/18/1
f 29/11/1 30/12/1 31/13/1 32/14/1
f 33/12/1 34/15/1 35/16/1 36/13/1
f 37/15/1 38/17/1 39/18/1 40/16/1
f 41/17/1 42/19/1 43/20/1 44/18/1
f 45/11/1 46/12/1 47/13/1 48/14/1
f 49/12/1 50/15/1 51/16/1 52/13/1
f 53/15/1 54/17/1 55/18/1 56/16/1
f 57/20/1 58/21/1 59/22/1 60/23/1
f 61/24/1 62/25/1 63/2/1 64/1/1
f 65/25/1 66/26/1 67/5/1 68/2/1
f 69/27/1 70/28/1 71/8/1 72/7/1
f 73/29/1 74/30/1 75/12/1 76/11/1
f 77/30/1 78/31/1 79/15/1 80/12/1
f 81/31/1 82/32/1 83/17/1 84/15/1
f 85/32/1 86/33/1 87/19/1 88/17/1
f 89/29/1 90/30/1 91/12/1 92/11/1
f 93/30/1 94/31/1 95/15/1 96/12/1
f 97/31/1 98/32/1 99/17/1 100/15/1
f 101/32/1 102/33/1 103/19/1 104/17/1
f 105/29/1 106/30/1 107/12/1 108/11/1
f 109/30/1 110/31/1 111/15/1 112/12/1
f 113/31/1 114/32/1 115/17/1 116/15/1
f 117/19/1 118/34/1 119/21/1 120/20/1
f 121/1/1 122/2/1 123/3/1 124/4/1
f 125/2/1 126/5/1 127/6/1 128/3/1
f 129/7/1 130/8/1 131/9/1 132/10/1
f 133/35/1 134/36/1 135/37/1 136/38/1
f 137/36/1 138/39/1 139/40/1 140/37/1
f 141/39/1 142/41/1 143/42/1 144/40/1
f 145/41/1 146/23/1 147/43/1 148/42/1
f 149/35/1 150/36/1 151/37/1 152/38/1
f 153/36/1 154/39/1 155/40/1 156/37/1
f 157/39/1 158/41/1 159/42/1 160/40/1
f 161/41/1 162/23/1 163/43/1 164/42/1
f 165/35/1 166/36/1 167/37/1 168/38/1
f 169/36/1 170/39/1 171/40/1 172/37/1
f 173/39/1 174/41/1 175/42/1 176/40/1
f 177/20/1 178/21/1 179/22/1 180/23/1
f 181/24/1 182/25/1 183/2/1 184/1/1
f 185/25/1 186/26/1 187/5/1 188/2/1
f 189/27/1 190/28/1 191/8/1 192/7/1
f 193/14/1 194/13/1 195/36/1 196/35/1
f 197/13/1 198/16/1 199/39/1 200/36/1
f 201/16/1 202/18/1 203/41/1 204/39/1
f 205/18/1 206/20/1 207/23/1 208/41/1
f 209/14/1 210/13/1 211/36/1 212/35/1
f 213/13/1 214/16/1 215/39/1 216/36/1
f 217/16/1 218/18/1 219/41/1 220/39/1
f 221/18/1 222/20/1 223/23/1 224/41/1
f 225/14/1 226/13/1 227/36/1 228/35/1
f 229/13/1 230/16/1 231/39/1 232/36/1
f 233/16/1 234/18/1 235/41/1 236/39/1
f 237/19/1 238/34/1 239/21/1 240/20/1
f 241/1/1 242/2/1 243/3/1 244/4/1
f 245/2/1 246/5/1 247/6/1 248/3/1
f 249/7/1 250/8/1 251/9/1 252/10/1
f 253/11/1 254/12/1 255/13/1 256/14/1
f 257/12/1 258/15/1 259/16/1 260/13/1
f 261/15/1 262/17/1 263/18/1 264/16/1
f 265/17/1 266/19/1 267/20/1 268/18/1
f 269/11/1 270/12/1 271/13/1 272/14/1
f 273/12/1 274/15/1 275/16/1 276/13/1
f 277/15/1 278/17/1 279/18/1 280/16/1
f 281/17/1 282/19/1 283/20/1 284/18/1
f 285/11/1 286/12/1 287/13/1 288/14/1
f 289/12/1 290/15/1 291/16/1 292/13/1
f 293/15/1 294/17/1 295/18/1 296/16/1
f 297/20/1 298/21/1 299/22/1 300/23/1
f 301/24/1 302/25/1 303/2/1 304/1/1
f 305/25/1 306/26/1 307/5/1 308/2/1
f 309/27/1 310/28/1 311/8/1 312/7/1
f 313/29/1 314/30/1 315/12/1 316/11/1
f 317/30/1 318/31/1 319/15/1 320/12/1
f 321/31/1 322/32/1 323/17/1 324/15/1
f 325/32/1 326/33/1 327/19/1 328/17/1
f 329/29/1 330/30/1 331/12/1 332/11/1
f 333/30/1 334/31/1 335/15/1 336/12/1
f 337/31/1 338/32/1 339/17/1 340/15/1
f 341/32/1 342/33/1 343/19/1 344/17/1
f 345/29/1 346/30/1 347/12/1 348/11/1
f 349/30/1 350/31/1 351/15/1 352/12/1
f 353/31/1 354/32/1 355/17/1 356/15/1
f 357/19/1 358/34/1 359/21/1 360/20/1
f 361/1/1 362/2/1 363/3/1 364/4/1
f 365/2/1 366/5/1 367/6/1 368/3/1
f 369/7/1 370/8/1 371/9/1 372/10/1
f 373/35/1 374/36/1 375/37/1 376/38/1
f 377/36/1 378/39/1 379/40/1 380/37/1
f 381/39/1 382/41/1 383/42/1 384/40/1
f 385/41/1 386/23/1 387/43/1 388/42/1
f 389/35/1 390/36/1 391/37/1 392/38/1
f 393/36/1 394/39/1 395/40/1 396/37/1
f 397/39/1 398/41/1 399/42/1 400/40/1
f 401/41/1 402/23/1 403/43/1 404/42/1
f 405/35/1 406/36/1 407/37/1 408/38/1
f 409/36/1 410/39/1 411/40/1 412/37/1
f 413/39/1 414/41/1 415/42/1 416/40/1
f 417/20/1 418/21/1 419/22/1 420/23/1
f 421/24/1 422/25/1 423/2/1 424/1/1
f 425/25/1 426/26/1 427/5/1 428/2/1
f 429/27/1 430/28/1 431/8/1 432/7/1
f 433/14/1 434/13/1 435/36/1 436/35/1
f 437/13/1 438/16/1 439/39/1 440/36/1
f 441/16/1 442/18/1 443/41/1 444/39/1
f 445/18/1 446/20/1 447/23/1 448/41/1
f 449/14/1 450/13/1 451/36/1 452/35/1
f 453/13/1 454/16/1 455/39/1 456/36/1
f 457/16/1 458/18/1 459/41/1 460/39/1
f 461/18/1 462/20/1 463/23/1 464/41/1
f 465/14/1 466/13/1 467/36/1 468/35/1
f 469/13/1 470/16/1 471/39/1 472/36/1
f 473/16/1 474/18/1 475/41/1 476/39/1
f 477/19/1 478/34/1 479/21/1 480/20/1
f 481/1/1 482/2/1 483/3/1 484/4/1
f 485/2/1 486/5/1 487/6/1 488/3/1
f 489/7/1 490/8/1 491/9/1 492/10/1
f 493/11/1 494/12/1 495/13/1 496/14/1
f 497/12/1 498/15/1 499/16/1 500/13/1
f 501/15/1 502/17/1 503/18/1 504/16/1
f 505/17/1 506/19/1 507/20/1 508/18/1
f 509/11/1 510/12/1 511/13/1 512/14/1
f 513/12/1 514/15/1 515/16/1 516/13/1
f 517/15/1 518/17/1 519/18/1 520/16/1
f 521/17/1 522/19/1 523/20/1 524/18/1
f 525/11/1 526/12/1 527/13/1 528/14/1
f 529/12/1 530/15/1 531/16/1 532/13/1
f 533/15/1 534/17/1 535/18/1 536/16/1
f 537/20/1 538/21/1 539/22/1 540/23/1
f 541/24/1 542/25/1 543/2/1 544/1/1
f 545/25/1 546/26/1 547/5/1 548/2/1
f 549/27/1 550/28/1 551/8/1 552/7/1
f 553/29/1 554/30/1 555/12/1 556/11/1
f 557/30/1 558/31/1 559/15/1 560/12/1
f 561/31/1 562/32/1 563/17/1 564/15/1
f 565/32/1 566/33/1 567/19/1 568/17/1
f 569/29/1 570/30/1 571/12/1 572/11/1
f 573/30/1 574/31/1 575/15/1 576/12/1
f 577/31/1 578/32/1 579/17/1 580/15/1
f 581/32/1 582/33/1 583/19/1 584/17/1
f 585/29/1 586/30/1 587/12/1 588/11/1
f 589/30/1 590/31/1 591/15/1 592/12/1
f 593/31/1 594/32/1 595/17/1 596/15/1
f 597/19/1 598/34/1 599/21/1 600/20/1
f 601/1/1 602/2/1 603/3/1 604/4/1
f 605/2/1 606/5/1 607/6/1 608/3/1
f 609/7/1 610/8/1 611/9/1 612/10/1
f 613/35/1 614/36/1 615/37/1 616/38/1
f 617/36/1 618/39/1 619/40/1 620/37/1
f 621/39/1 622/41/1 623/42/1 624/40/1
f 625/41/1 626/23/1 627/43/1 628/42/1
f 629/35/1 630/36/1 631/37/1 632/38/1
f 633/36/1 634/39/1 635/40/1 636/37/1
f 637/39/1 638/41/1 639/42/1 640/40/1
f 641/41/1 642/23/1 643/43/1 644/42/1
f 645/35/1 646/36/1 647/37/1 648/38/1
f 649/36/1 650/39/1 651/40/1 652/37/1
f 653/39/1 654/41/1 655/42/1 656/40/1
f 657/20/1 658/21/1 659/22/1 660/23/1
f 661/24/1 662/25/1 663/2/1 664/1/1
f 665/25/1 666/26/1 667/5/1 668/2/1
f 669/27/1 670/28/1 671/8/1 672/7/1
f 673/14/1 674/13/1 675/36/1 676/35/1
f 677/13/1 678/16/1 679/39/1 680/36/1
f 681/16/1 682/18/1 683/41/1 684/39/1
f 685/18/1 686/20/1 687/23/1 688/41/1
f 689/14/1 690/13/1 691/36/1 692/35/1
f 693/13/1 694/16/1 695/39/1 696/36/1
f 697/16/1 698/18/1 699/41/1 700/39/1
f 701/18/1 702/20/1 703/23/1 704/41/1
f 705/14/1 706/13/1 707/36/1 708/35/1
f 709/13/1 710/16/1 711/39/1 712/36/1
f 713/16/1 714/18/1 715/41/1 716/39/1
f 717/19/1 718/34/1 719/21/1 720/20/1
f 721/1/1 722/2/1 723/3/1 724/4/1
f 725/2/1 726/5/1 727/6/1 728/3/1
f 729/7/1 730/8/1 731/9/1 732/10/1
f 733/11/1 734/12/1 735/13/1 736/14/1
f 737/12/1 738/15/1 739/16/1 740/13/1
f 741/15/1 742/17/1 743/18/1 744/16/1
f 745/17/1 746/19/1 747/20/1 748/18/1
f 749/11/1 750/12/1 751/13/1 752/14/1
f 753/12/1 754/15/1 755/16/1 756/13/1
f 757/15/1 758/17/1 759/18/1 760/16/1
f 761/17/1 762/19/1 763/20/1 764/18/1
f 765/11/1 766/12/1 767/13/1 768/14/1
f 769/12/1 770/15/1 771/16/1 772/13/1
f 773/15/1 774/17/1 775/18/1 776/16/1
f 777/20/1 778/21/1 779/22/1 780/23/1
f 781/24/1 782/25/1 783/2/1 784/1/1
f 785/25/1 786/26/1 787/5/1 788/2/1
f 789/27/1 790/28/1 791/8/1 792/7/1
f 793/29/1 794/30/1 795/12/1 796/11/1
f 797/30/1 798/31/1 799/15/1 800/12/1
f 801/31/1 802/32/1 803/17/1 804/15/1
f 805/32/1 806/33/1 807/19/1 808/17/1
f 809/29/1 810/30/1 811/12/1 812/11/1
f 813/30/1 814/31/1 815/15/1 816/12/1
f 817/31/1 818/32/1 819/17/1 820/15/1
f 821/32/1 822/33/1 823/19/1 824/17/1
f 825/29/1 826/30/1 827/12/1 828/11/1
f 829/30/1 830/31/1 831/15/1 832/12/1
f 833/31/1 834/32/1 835/17/1 836/15/1
f 837/19/1 838/34/1 839/21/1 840/20/1

