# Tiled2Unity generated file. Do not modify by hand.
# Wavefront file for 'Test22_mesh_0352.obj'

# Vertices (Count = 156)
v 0 -0.64 0
v -0.64 -0.64 0
v -0.64 0 0
v 0 0 0
v -0.64 -0.64 0
v -1.28 -0.64 0
v -1.28 0 0
v -0.64 0 0
v -1.28 -0.64 0
v -1.92 -0.64 0
v -1.92 0 0
v -1.28 0 0
v 0 -1.28 0
v -0.64 -1.28 0
v -0.64 -0.64 0
v 0 -0.64 0
v -0.64 -1.28 0
v -1.28 -1.28 0
v -1.28 -0.64 0
v -0.64 -0.64 0
v -1.28 -1.28 0
v -1.92 -1.28 0
v -1.92 -0.64 0
v -1.28 -0.64 0
v 0 -1.92 0
v -0.64 -1.92 0
v -0.64 -1.28 0
v 0 -1.28 0
v -0.64 -1.92 0
v -1.28 -1.92 0
v -1.28 -1.28 0
v -0.64 -1.28 0
v -1.28 -1.92 0
v -1.92 -1.92 0
v -1.92 -1.28 0
v -1.28 -1.28 0
v 0 -2.56 0
v -0.64 -2.56 0
v -0.64 -1.92 0
v 0 -1.92 0
v -0.64 -2.56 0
v -1.28 -2.56 0
v -1.28 -1.92 0
v -0.64 -1.92 0
v -1.28 -2.56 0
v -1.92 -2.56 0
v -1.92 -1.92 0
v -1.28 -1.92 0
v 0 -3.2 0
v -0.64 -3.2 0
v -0.64 -2.56 0
v 0 -2.56 0
v -0.64 -3.2 0
v -1.28 -3.2 0
v -1.28 -2.56 0
v -0.64 -2.56 0
v -1.28 -3.2 0
v -1.92 -3.2 0
v -1.92 -2.56 0
v -1.28 -2.56 0
v 0 -3.84 0
v -0.64 -3.84 0
v -0.64 -3.2 0
v 0 -3.2 0
v -0.64 -3.84 0
v -1.28 -3.84 0
v -1.28 -3.2 0
v -0.64 -3.2 0
v -1.28 -3.84 0
v -1.92 -3.84 0
v -1.92 -3.2 0
v -1.28 -3.2 0
v 0 -4.48 0
v -0.64 -4.48 0
v -0.64 -3.84 0
v 0 -3.84 0
v -0.64 -4.48 0
v -1.28 -4.48 0
v -1.28 -3.84 0
v -0.64 -3.84 0
v -1.28 -4.48 0
v -1.92 -4.48 0
v -1.92 -3.84 0
v -1.28 -3.84 0
v 0 -5.12 0
v -0.64 -5.12 0
v -0.64 -4.48 0
v 0 -4.48 0
v -0.64 -5.12 0
v -1.28 -5.12 0
v -1.28 -4.48 0
v -0.64 -4.48 0
v -1.28 -5.12 0
v -1.92 -5.12 0
v -1.92 -4.48 0
v -1.28 -4.48 0
v 0 -5.76 0
v -0.64 -5.76 0
v -0.64 -5.12 0
v 0 -5.12 0
v -0.64 -5.76 0
v -1.28 -5.76 0
v -1.28 -5.12 0
v -0.64 -5.12 0
v -1.28 -5.76 0
v -1.92 -5.76 0
v -1.92 -5.12 0
v -1.28 -5.12 0
v 0 -6.4 0
v -0.64 -6.4 0
v -0.64 -5.76 0
v 0 -5.76 0
v -0.64 -6.4 0
v -1.28 -6.4 0
v -1.28 -5.76 0
v -0.64 -5.76 0
v -1.28 -6.4 0
v -1.92 -6.4 0
v -1.92 -5.76 0
v -1.28 -5.76 0
v 0 -7.04 0
v -0.64 -7.04 0
v -0.64 -6.4 0
v 0 -6.4 0
v -0.64 -7.04 0
v -1.28 -7.04 0
v -1.28 -6.4 0
v -0.64 -6.4 0
v -1.28 -7.04 0
v -1.92 -7.04 0
v -1.92 -6.4 0
v -1.28 -6.4 0
v 0 -7.68 0
v -0.64 -7.68 0
v -0.64 -7.04 0
v 0 -7.04 0
v -0.64 -7.68 0
v -1.28 -7.68 0
v -1.28 -7.04 0
v -0.64 -7.04 0
v -1.28 -7.68 0
v -1.92 -7.68 0
v -1.92 -7.04 0
v -1.28 -7.04 0
v 0 -8.32 0
v -0.64 -8.32 0
v -0.64 -7.68 0
v 0 -7.68 0
v -0.64 -8.32 0
v -1.28 -8.32 0
v -1.28 -7.68 0
v -0.64 -7.68 0
v -1.28 -8.32 0
v -1.92 -8.32 0
v -1.92 -7.68 0
v -1.28 -7.68 0

# Texture cooridinates (Count = 25)
vt 0.375 0.1
vt 0.375 0.2
vt 0.25 0.2
vt 0.25 0.1
vt 0.375 0.3
vt 0.25 0.3
vt 0.375 0.4
vt 0.25 0.4
vt 0.5 0.1
vt 0.5 0.2
vt 0.5 0.3
vt 0.5 0.4
vt 0.625 0.1
vt 0.625 0.2
vt 0.625 0.3
vt 0.625 0.4
vt 0.75 0.1
vt 0.75 0.2
vt 0.75 0.3
vt 0.75 0.4
vt 0.5 0
vt 0.625 0
vt 0.375 0
vt 0.25 0
vt 0.75 0

# Normal
vn 0 0 -1

# Mesh description
g Test22_mesh_0352

# Faces
f 1/1/1 2/2/1 3/3/1 4/4/1
f 5/2/1 6/5/1 7/6/1 8/3/1
f 9/5/1 10/7/1 11/8/1 12/6/1
f 13/9/1 14/10/1 15/2/1 16/1/1
f 17/10/1 18/11/1 19/5/1 20/2/1
f 21/11/1 22/12/1 23/7/1 24/5/1
f 25/13/1 26/14/1 27/10/1 28/9/1
f 29/14/1 30/15/1 31/11/1 32/10/1
f 33/15/1 34/16/1 35/12/1 36/11/1
f 37/17/1 38/18/1 39/14/1 40/13/1
f 41/18/1 42/19/1 43/15/1 44/14/1
f 45/19/1 46/20/1 47/16/1 48/15/1
f 49/2/1 50/10/1 51/11/1 52/5/1
f 53/10/1 54/14/1 55/15/1 56/11/1
f 57/14/1 58/18/1 59/19/1 60/15/1
f 61/13/1 62/9/1 63/21/1 64/22/1
f 65/9/1 66/1/1 67/23/1 68/21/1
f 69/1/1 70/4/1 71/24/1 72/23/1
f 73/14/1 74/10/1 75/9/1 76/13/1
f 77/10/1 78/2/1 79/1/1 80/9/1
f 81/2/1 82/3/1 83/4/1 84/1/1
f 85/15/1 86/11/1 87/10/1 88/14/1
f 89/11/1 90/5/1 91/2/1 92/10/1
f 93/5/1 94/6/1 95/3/1 96/2/1
f 97/15/1 98/14/1 99/18/1 100/19/1
f 101/14/1 102/13/1 103/17/1 104/18/1
f 105/13/1 106/22/1 107/25/1 108/17/1
f 109/15/1 110/14/1 111/18/1 112/19/1
f 113/14/1 114/13/1 115/17/1 116/18/1
f 117/13/1 118/22/1 119/25/1 120/17/1
f 121/11/1 122/10/1 123/14/1 124/15/1
f 125/10/1 126/9/1 127/13/1 128/14/1
f 129/9/1 130/21/1 131/22/1 132/13/1
f 133/5/1 134/2/1 135/10/1 136/11/1
f 137/2/1 138/1/1 139/9/1 140/10/1
f 141/1/1 142/23/1 143/21/1 144/9/1
f 145/6/1 146/3/1 147/2/1 148/5/1
f 149/3/1 150/4/1 151/1/1 152/2/1
f 153/4/1 154/24/1 155/23/1 156/1/1

