# Tiled2Unity generated file. Do not modify by hand.
# Wavefront file for 'Test22_mesh_0419.obj'

# Vertices (Count = 128)
v -7.68 -2.56 0
v -8.32 -2.56 0
v -8.32 -1.92 0
v -7.68 -1.92 0
v -8.32 -2.56 0
v -8.96 -2.56 0
v -8.96 -1.92 0
v -8.32 -1.92 0
v -7.68 -3.2 0
v -8.32 -3.2 0
v -8.32 -2.56 0
v -7.68 -2.56 0
v -8.32 -3.2 0
v -8.96 -3.2 0
v -8.96 -2.56 0
v -8.32 -2.56 0
v -7.68 -3.84 0
v -8.32 -3.84 0
v -8.32 -3.2 0
v -7.68 -3.2 0
v -8.32 -3.84 0
v -8.96 -3.84 0
v -8.96 -3.2 0
v -8.32 -3.2 0
v -7.68 -4.48 0
v -8.32 -4.48 0
v -8.32 -3.84 0
v -7.68 -3.84 0
v -8.32 -4.48 0
v -8.96 -4.48 0
v -8.96 -3.84 0
v -8.32 -3.84 0
v -6.4 -6.4 0
v -7.04 -6.4 0
v -7.04 -5.76 0
v -6.4 -5.76 0
v -7.04 -6.4 0
v -7.68 -6.4 0
v -7.68 -5.76 0
v -7.04 -5.76 0
v -7.68 -6.4 0
v -8.32 -6.4 0
v -8.32 -5.76 0
v -7.68 -5.76 0
v -8.32 -6.4 0
v -8.96 -6.4 0
v -8.96 -5.76 0
v -8.32 -5.76 0
v -8.96 -6.4 0
v -9.599999 -6.4 0
v -9.599999 -5.76 0
v -8.96 -5.76 0
v -9.599999 -6.4 0
v -10.24 -6.4 0
v -10.24 -5.76 0
v -9.599999 -5.76 0
v -6.4 -7.04 0
v -7.04 -7.04 0
v -7.04 -6.4 0
v -6.4 -6.4 0
v -7.04 -7.04 0
v -7.68 -7.04 0
v -7.68 -6.4 0
v -7.04 -6.4 0
v -7.68 -7.04 0
v -8.32 -7.04 0
v -8.32 -6.4 0
v -7.68 -6.4 0
v -8.32 -7.04 0
v -8.96 -7.04 0
v -8.96 -6.4 0
v -8.32 -6.4 0
v -8.96 -7.04 0
v -9.599999 -7.04 0
v -9.599999 -6.4 0
v -8.96 -6.4 0
v -9.599999 -7.04 0
v -10.24 -7.04 0
v -10.24 -6.4 0
v -9.599999 -6.4 0
v -5.12 -8.96 0
v -5.76 -8.96 0
v -5.76 -8.32 0
v -5.12 -8.32 0
v -5.76 -8.96 0
v -6.4 -8.96 0
v -6.4 -8.32 0
v -5.76 -8.32 0
v -6.4 -8.96 0
v -7.04 -8.96 0
v -7.04 -8.32 0
v -6.4 -8.32 0
v -7.04 -8.96 0
v -7.68 -8.96 0
v -7.68 -8.32 0
v -7.04 -8.32 0
v -7.68 -8.96 0
v -8.32 -8.96 0
v -8.32 -8.32 0
v -7.68 -8.32 0
v -8.32 -8.96 0
v -8.96 -8.96 0
v -8.96 -8.32 0
v -8.32 -8.32 0
v -5.12 -9.599999 0
v -5.76 -9.599999 0
v -5.76 -8.96 0
v -5.12 -8.96 0
v -5.76 -9.599999 0
v -6.4 -9.599999 0
v -6.4 -8.96 0
v -5.76 -8.96 0
v -6.4 -9.599999 0
v -7.04 -9.599999 0
v -7.04 -8.96 0
v -6.4 -8.96 0
v -7.04 -9.599999 0
v -7.68 -9.599999 0
v -7.68 -8.96 0
v -7.04 -8.96 0
v -7.68 -9.599999 0
v -8.32 -9.599999 0
v -8.32 -8.96 0
v -7.68 -8.96 0
v -8.32 -9.599999 0
v -8.96 -9.599999 0
v -8.96 -8.96 0
v -8.32 -8.96 0

# Texture cooridinates (Count = 9)
vt 0.0625 0.96875
vt 0.09375 0.96875
vt 0.09375 1
vt 0.0625 1
vt 0.125 0.96875
vt 0.125 1
vt 0.0625 0.9375
vt 0.09375 0.9375
vt 0.125 0.9375

# Normal
vn 0 0 -1

# Mesh description
g Test22_mesh_0419

# Faces
f 1/1/1 2/2/1 3/3/1 4/4/1
f 5/2/1 6/5/1 7/6/1 8/3/1
f 9/7/1 10/8/1 11/2/1 12/1/1
f 13/8/1 14/9/1 15/5/1 16/2/1
f 17/1/1 18/2/1 19/3/1 20/4/1
f 21/2/1 22/5/1 23/6/1 24/3/1
f 25/7/1 26/8/1 27/2/1 28/1/1
f 29/8/1 30/9/1 31/5/1 32/2/1
f 33/1/1 34/2/1 35/3/1 36/4/1
f 37/2/1 38/5/1 39/6/1 40/3/1
f 41/1/1 42/2/1 43/3/1 44/4/1
f 45/2/1 46/5/1 47/6/1 48/3/1
f 49/1/1 50/2/1 51/3/1 52/4/1
f 53/2/1 54/5/1 55/6/1 56/3/1
f 57/7/1 58/8/1 59/2/1 60/1/1
f 61/8/1 62/9/1 63/5/1 64/2/1
f 65/7/1 66/8/1 67/2/1 68/1/1
f 69/8/1 70/9/1 71/5/1 72/2/1
f 73/7/1 74/8/1 75/2/1 76/1/1
f 77/8/1 78/9/1 79/5/1 80/2/1
f 81/1/1 82/2/1 83/3/1 84/4/1
f 85/2/1 86/5/1 87/6/1 88/3/1
f 89/1/1 90/2/1 91/3/1 92/4/1
f 93/2/1 94/5/1 95/6/1 96/3/1
f 97/1/1 98/2/1 99/3/1 100/4/1
f 101/2/1 102/5/1 103/6/1 104/3/1
f 105/7/1 106/8/1 107/2/1 108/1/1
f 109/8/1 110/9/1 111/5/1 112/2/1
f 113/7/1 114/8/1 115/2/1 116/1/1
f 117/8/1 118/9/1 119/5/1 120/2/1
f 121/7/1 122/8/1 123/2/1 124/1/1
f 125/8/1 126/9/1 127/5/1 128/2/1

