# Tiled2Unity generated file. Do not modify by hand.
# Wavefront file for 'Test22_mesh_0097.obj'

# Vertices (Count = 32)
v -9.599999 -3.84 0
v -10.24 -3.84 0
v -10.24 -3.2 0
v -9.599999 -3.2 0
v -9.599999 -4.48 0
v -10.24 -4.48 0
v -10.24 -3.84 0
v -9.599999 -3.84 0
v -9.599999 -5.12 0
v -10.24 -5.12 0
v -10.24 -4.48 0
v -9.599999 -4.48 0
v -9.599999 -5.76 0
v -10.24 -5.76 0
v -10.24 -5.12 0
v -9.599999 -5.12 0
v -9.599999 -6.4 0
v -10.24 -6.4 0
v -10.24 -5.76 0
v -9.599999 -5.76 0
v -9.599999 -7.04 0
v -10.24 -7.04 0
v -10.24 -6.4 0
v -9.599999 -6.4 0
v -9.599999 -7.68 0
v -10.24 -7.68 0
v -10.24 -7.04 0
v -9.599999 -7.04 0
v -9.599999 -8.32 0
v -10.24 -8.32 0
v -10.24 -7.68 0
v -9.599999 -7.68 0

# Texture cooridinates (Count = 6)
vt 0.1666667 0.7666667
vt 0.2083333 0.7666667
vt 0.2083333 0.8
vt 0.1666667 0.8
vt 0.1666667 0.7333333
vt 0.2083333 0.7333333

# Normal
vn 0 0 -1

# Mesh description
g Test22_mesh_0097

# Faces
f 1/1/1 2/2/1 3/3/1 4/4/1
f 5/1/1 6/2/1 7/3/1 8/4/1
f 9/1/1 10/2/1 11/3/1 12/4/1
f 13/1/1 14/2/1 15/3/1 16/4/1
f 17/1/1 18/2/1 19/3/1 20/4/1
f 21/1/1 22/2/1 23/3/1 24/4/1
f 25/1/1 26/2/1 27/3/1 28/4/1
f 29/5/1 30/6/1 31/2/1 32/1/1

