# Tiled2Unity generated file. Do not modify by hand.
# Wavefront file for 'Test22_mesh_0143.obj'

# Vertices (Count = 228)
v -3.2 -5.12 0
v -3.84 -5.12 0
v -3.84 -4.48 0
v -3.2 -4.48 0
v -3.84 -5.12 0
v -4.48 -5.12 0
v -4.48 -4.48 0
v -3.84 -4.48 0
v -4.48 -5.12 0
v -5.12 -5.12 0
v -5.12 -4.48 0
v -4.48 -4.48 0
v -5.12 -5.12 0
v -5.76 -5.12 0
v -5.76 -4.48 0
v -5.12 -4.48 0
v -5.76 -5.12 0
v -6.4 -5.12 0
v -6.4 -4.48 0
v -5.76 -4.48 0
v -6.4 -5.12 0
v -7.04 -5.12 0
v -7.04 -4.48 0
v -6.4 -4.48 0
v -7.04 -5.12 0
v -7.68 -5.12 0
v -7.68 -4.48 0
v -7.04 -4.48 0
v -7.68 -5.12 0
v -8.32 -5.12 0
v -8.32 -4.48 0
v -7.68 -4.48 0
v -3.2 -5.76 0
v -3.84 -5.76 0
v -3.84 -5.12 0
v -3.2 -5.12 0
v -3.84 -5.76 0
v -4.48 -5.76 0
v -4.48 -5.12 0
v -3.84 -5.12 0
v -4.48 -5.76 0
v -5.12 -5.76 0
v -5.12 -5.12 0
v -4.48 -5.12 0
v -5.12 -5.76 0
v -5.76 -5.76 0
v -5.76 -5.12 0
v -5.12 -5.12 0
v -5.76 -5.76 0
v -6.4 -5.76 0
v -6.4 -5.12 0
v -5.76 -5.12 0
v -6.4 -5.76 0
v -7.04 -5.76 0
v -7.04 -5.12 0
v -6.4 -5.12 0
v -7.04 -5.76 0
v -7.68 -5.76 0
v -7.68 -5.12 0
v -7.04 -5.12 0
v -7.68 -5.76 0
v -8.32 -5.76 0
v -8.32 -5.12 0
v -7.68 -5.12 0
v -3.2 -6.4 0
v -3.84 -6.4 0
v -3.84 -5.76 0
v -3.2 -5.76 0
v -3.84 -6.4 0
v -4.48 -6.4 0
v -4.48 -5.76 0
v -3.84 -5.76 0
v -4.48 -6.4 0
v -5.12 -6.4 0
v -5.12 -5.76 0
v -4.48 -5.76 0
v -5.12 -6.4 0
v -5.76 -6.4 0
v -5.76 -5.76 0
v -5.12 -5.76 0
v -5.76 -6.4 0
v -6.4 -6.4 0
v -6.4 -5.76 0
v -5.76 -5.76 0
v -6.4 -6.4 0
v -7.04 -6.4 0
v -7.04 -5.76 0
v -6.4 -5.76 0
v -7.04 -6.4 0
v -7.68 -6.4 0
v -7.68 -5.76 0
v -7.04 -5.76 0
v -7.68 -6.4 0
v -8.32 -6.4 0
v -8.32 -5.76 0
v -7.68 -5.76 0
v -3.2 -7.04 0
v -3.84 -7.04 0
v -3.84 -6.4 0
v -3.2 -6.4 0
v -3.84 -7.04 0
v -4.48 -7.04 0
v -4.48 -6.4 0
v -3.84 -6.4 0
v -4.48 -7.04 0
v -5.12 -7.04 0
v -5.12 -6.4 0
v -4.48 -6.4 0
v -5.12 -7.04 0
v -5.76 -7.04 0
v -5.76 -6.4 0
v -5.12 -6.4 0
v -5.76 -7.04 0
v -6.4 -7.04 0
v -6.4 -6.4 0
v -5.76 -6.4 0
v -6.4 -7.04 0
v -7.04 -7.04 0
v -7.04 -6.4 0
v -6.4 -6.4 0
v -7.04 -7.04 0
v -7.68 -7.04 0
v -7.68 -6.4 0
v -7.04 -6.4 0
v -7.68 -7.04 0
v -8.32 -7.04 0
v -8.32 -6.4 0
v -7.68 -6.4 0
v -3.2 -7.68 0
v -3.84 -7.68 0
v -3.84 -7.04 0
v -3.2 -7.04 0
v -3.84 -7.68 0
v -4.48 -7.68 0
v -4.48 -7.04 0
v -3.84 -7.04 0
v -4.48 -7.68 0
v -5.12 -7.68 0
v -5.12 -7.04 0
v -4.48 -7.04 0
v -5.12 -7.68 0
v -5.76 -7.68 0
v -5.76 -7.04 0
v -5.12 -7.04 0
v -5.76 -7.68 0
v -6.4 -7.68 0
v -6.4 -7.04 0
v -5.76 -7.04 0
v -6.4 -7.68 0
v -7.04 -7.68 0
v -7.04 -7.04 0
v -6.4 -7.04 0
v -7.04 -7.68 0
v -7.68 -7.68 0
v -7.68 -7.04 0
v -7.04 -7.04 0
v -7.68 -7.68 0
v -8.32 -7.68 0
v -8.32 -7.04 0
v -7.68 -7.04 0
v -3.2 -8.32 0
v -3.84 -8.32 0
v -3.84 -7.68 0
v -3.2 -7.68 0
v -3.84 -8.32 0
v -4.48 -8.32 0
v -4.48 -7.68 0
v -3.84 -7.68 0
v -4.48 -8.32 0
v -5.12 -8.32 0
v -5.12 -7.68 0
v -4.48 -7.68 0
v -5.12 -8.32 0
v -5.76 -8.32 0
v -5.76 -7.68 0
v -5.12 -7.68 0
v -5.76 -8.32 0
v -6.4 -8.32 0
v -6.4 -7.68 0
v -5.76 -7.68 0
v -6.4 -8.32 0
v -7.04 -8.32 0
v -7.04 -7.68 0
v -6.4 -7.68 0
v -7.04 -8.32 0
v -7.68 -8.32 0
v -7.68 -7.68 0
v -7.04 -7.68 0
v -7.68 -8.32 0
v -8.32 -8.32 0
v -8.32 -7.68 0
v -7.68 -7.68 0
v -7.68 -9.599999 0
v -8.32 -9.599999 0
v -8.32 -8.96 0
v -7.68 -8.96 0
v -3.2 -10.24 0
v -3.84 -10.24 0
v -3.84 -9.599999 0
v -3.2 -9.599999 0
v -3.84 -10.24 0
v -4.48 -10.24 0
v -4.48 -9.599999 0
v -3.84 -9.599999 0
v -4.48 -10.24 0
v -5.12 -10.24 0
v -5.12 -9.599999 0
v -4.48 -9.599999 0
v -5.12 -10.24 0
v -5.76 -10.24 0
v -5.76 -9.599999 0
v -5.12 -9.599999 0
v -5.76 -10.24 0
v -6.4 -10.24 0
v -6.4 -9.599999 0
v -5.76 -9.599999 0
v -6.4 -10.24 0
v -7.04 -10.24 0
v -7.04 -9.599999 0
v -6.4 -9.599999 0
v -7.04 -10.24 0
v -7.68 -10.24 0
v -7.68 -9.599999 0
v -7.04 -9.599999 0
v -7.68 -10.24 0
v -8.32 -10.24 0
v -8.32 -9.599999 0
v -7.68 -9.599999 0

# Texture cooridinates (Count = 35)
vt 0.3636364 0.9
vt 0.4090909 0.9
vt 0.4090909 1
vt 0.3636364 1
vt 0.4545455 0.9
vt 0.4545455 1
vt 0.5 0.9
vt 0.5 1
vt 0.5454546 0.9
vt 0.5454546 1
vt 0.3636364 0.8
vt 0.4090909 0.8
vt 0.4545455 0.8
vt 0.5 0.8
vt 0.5454546 0.8
vt 0.3636364 0.7
vt 0.4090909 0.7
vt 0.4545455 0.7
vt 0.5 0.7
vt 0.5454546 0.7
vt 0.3636364 0.6
vt 0.4090909 0.6
vt 0.4545455 0.6
vt 0.5 0.6
vt 0.5454546 0.6
vt 0.3636364 0.5
vt 0.4090909 0.5
vt 0.4545455 0.5
vt 0.5 0.5
vt 0.5454546 0.5
vt 0.3636364 0.4
vt 0.4090909 0.4
vt 0.4545455 0.4
vt 0.5 0.4
vt 0.5454546 0.4

# Normal
vn 0 0 -1

# Mesh description
g Test22_mesh_0143

# Faces
f 1/1/1 2/2/1 3/3/1 4/4/1
f 5/2/1 6/5/1 7/6/1 8/3/1
f 9/2/1 10/5/1 11/6/1 12/3/1
f 13/2/1 14/5/1 15/6/1 16/3/1
f 17/2/1 18/5/1 19/6/1 20/3/1
f 21/2/1 22/5/1 23/6/1 24/3/1
f 25/5/1 26/7/1 27/8/1 28/6/1
f 29/7/1 30/9/1 31/10/1 32/8/1
f 33/11/1 34/12/1 35/2/1 36/1/1
f 37/12/1 38/13/1 39/5/1 40/2/1
f 41/12/1 42/13/1 43/5/1 44/2/1
f 45/12/1 46/13/1 47/5/1 48/2/1
f 49/12/1 50/13/1 51/5/1 52/2/1
f 53/12/1 54/13/1 55/5/1 56/2/1
f 57/13/1 58/14/1 59/7/1 60/5/1
f 61/14/1 62/15/1 63/9/1 64/7/1
f 65/16/1 66/17/1 67/12/1 68/11/1
f 69/17/1 70/18/1 71/13/1 72/12/1
f 73/17/1 74/18/1 75/13/1 76/12/1
f 77/17/1 78/18/1 79/13/1 80/12/1
f 81/17/1 82/18/1 83/13/1 84/12/1
f 85/17/1 86/18/1 87/13/1 88/12/1
f 89/18/1 90/19/1 91/14/1 92/13/1
f 93/19/1 94/20/1 95/15/1 96/14/1
f 97/21/1 98/22/1 99/17/1 100/16/1
f 101/22/1 102/23/1 103/18/1 104/17/1
f 105/22/1 106/23/1 107/18/1 108/17/1
f 109/22/1 110/23/1 111/18/1 112/17/1
f 113/22/1 114/23/1 115/18/1 116/17/1
f 117/22/1 118/23/1 119/18/1 120/17/1
f 121/23/1 122/24/1 123/19/1 124/18/1
f 125/24/1 126/25/1 127/20/1 128/19/1
f 129/26/1 130/27/1 131/22/1 132/21/1
f 133/27/1 134/28/1 135/23/1 136/22/1
f 137/27/1 138/28/1 139/23/1 140/22/1
f 141/27/1 142/28/1 143/23/1 144/22/1
f 145/27/1 146/28/1 147/23/1 148/22/1
f 149/27/1 150/28/1 151/23/1 152/22/1
f 153/28/1 154/29/1 155/24/1 156/23/1
f 157/29/1 158/30/1 159/25/1 160/24/1
f 161/31/1 162/32/1 163/27/1 164/26/1
f 165/32/1 166/33/1 167/28/1 168/27/1
f 169/32/1 170/33/1 171/28/1 172/27/1
f 173/32/1 174/33/1 175/28/1 176/27/1
f 177/32/1 178/33/1 179/28/1 180/27/1
f 181/32/1 182/33/1 183/28/1 184/27/1
f 185/33/1 186/34/1 187/29/1 188/28/1
f 189/34/1 190/35/1 191/30/1 192/29/1
f 193/7/1 194/9/1 195/10/1 196/8/1
f 197/11/1 198/12/1 199/2/1 200/1/1
f 201/12/1 202/13/1 203/5/1 204/2/1
f 205/12/1 206/13/1 207/5/1 208/2/1
f 209/12/1 210/13/1 211/5/1 212/2/1
f 213/12/1 214/13/1 215/5/1 216/2/1
f 217/12/1 218/13/1 219/5/1 220/2/1
f 221/13/1 222/14/1 223/7/1 224/5/1
f 225/14/1 226/15/1 227/9/1 228/7/1

