# Tiled2Unity generated file. Do not modify by hand.
# Wavefront file for 'Test22_mesh_0059.obj'

# Vertices (Count = 320)
v 0 -0.64 0
v -0.64 -0.64 0
v -0.64 0 0
v 0 0 0
v -0.64 -0.64 0
v -1.28 -0.64 0
v -1.28 0 0
v -0.64 0 0
v -1.28 -0.64 0
v -1.92 -0.64 0
v -1.92 0 0
v -1.28 0 0
v -7.04 -0.64 0
v -7.68 -0.64 0
v -7.68 0 0
v -7.04 0 0
v -7.68 -0.64 0
v -8.32 -0.64 0
v -8.32 0 0
v -7.68 0 0
v 0 -1.28 0
v -0.64 -1.28 0
v -0.64 -0.64 0
v 0 -0.64 0
v -0.64 -1.28 0
v -1.28 -1.28 0
v -1.28 -0.64 0
v -0.64 -0.64 0
v -1.28 -1.28 0
v -1.92 -1.28 0
v -1.92 -0.64 0
v -1.28 -0.64 0
v -7.04 -1.28 0
v -7.68 -1.28 0
v -7.68 -0.64 0
v -7.04 -0.64 0
v -7.68 -1.28 0
v -8.32 -1.28 0
v -8.32 -0.64 0
v -7.68 -0.64 0
v 0 -1.92 0
v -0.64 -1.92 0
v -0.64 -1.28 0
v 0 -1.28 0
v -0.64 -1.92 0
v -1.28 -1.92 0
v -1.28 -1.28 0
v -0.64 -1.28 0
v -1.28 -1.92 0
v -1.92 -1.92 0
v -1.92 -1.28 0
v -1.28 -1.28 0
v -7.04 -1.92 0
v -7.68 -1.92 0
v -7.68 -1.28 0
v -7.04 -1.28 0
v -7.68 -1.92 0
v -8.32 -1.92 0
v -8.32 -1.28 0
v -7.68 -1.28 0
v 0 -2.56 0
v -0.64 -2.56 0
v -0.64 -1.92 0
v 0 -1.92 0
v -0.64 -2.56 0
v -1.28 -2.56 0
v -1.28 -1.92 0
v -0.64 -1.92 0
v -1.28 -2.56 0
v -1.92 -2.56 0
v -1.92 -1.92 0
v -1.28 -1.92 0
v -7.04 -2.56 0
v -7.68 -2.56 0
v -7.68 -1.92 0
v -7.04 -1.92 0
v -7.68 -2.56 0
v -8.32 -2.56 0
v -8.32 -1.92 0
v -7.68 -1.92 0
v 0 -3.2 0
v -0.64 -3.2 0
v -0.64 -2.56 0
v 0 -2.56 0
v -0.64 -3.2 0
v -1.28 -3.2 0
v -1.28 -2.56 0
v -0.64 -2.56 0
v -1.28 -3.2 0
v -1.92 -3.2 0
v -1.92 -2.56 0
v -1.28 -2.56 0
v -7.04 -3.2 0
v -7.68 -3.2 0
v -7.68 -2.56 0
v -7.04 -2.56 0
v -7.68 -3.2 0
v -8.32 -3.2 0
v -8.32 -2.56 0
v -7.68 -2.56 0
v 0 -3.84 0
v -0.64 -3.84 0
v -0.64 -3.2 0
v 0 -3.2 0
v -0.64 -3.84 0
v -1.28 -3.84 0
v -1.28 -3.2 0
v -0.64 -3.2 0
v -1.28 -3.84 0
v -1.92 -3.84 0
v -1.92 -3.2 0
v -1.28 -3.2 0
v -7.04 -3.84 0
v -7.68 -3.84 0
v -7.68 -3.2 0
v -7.04 -3.2 0
v -7.68 -3.84 0
v -8.32 -3.84 0
v -8.32 -3.2 0
v -7.68 -3.2 0
v 0 -4.48 0
v -0.64 -4.48 0
v -0.64 -3.84 0
v 0 -3.84 0
v -0.64 -4.48 0
v -1.28 -4.48 0
v -1.28 -3.84 0
v -0.64 -3.84 0
v -1.28 -4.48 0
v -1.92 -4.48 0
v -1.92 -3.84 0
v -1.28 -3.84 0
v -7.04 -4.48 0
v -7.68 -4.48 0
v -7.68 -3.84 0
v -7.04 -3.84 0
v -7.68 -4.48 0
v -8.32 -4.48 0
v -8.32 -3.84 0
v -7.68 -3.84 0
v 0 -5.12 0
v -0.64 -5.12 0
v -0.64 -4.48 0
v 0 -4.48 0
v -0.64 -5.12 0
v -1.28 -5.12 0
v -1.28 -4.48 0
v -0.64 -4.48 0
v -1.28 -5.12 0
v -1.92 -5.12 0
v -1.92 -4.48 0
v -1.28 -4.48 0
v -7.04 -5.12 0
v -7.68 -5.12 0
v -7.68 -4.48 0
v -7.04 -4.48 0
v -7.68 -5.12 0
v -8.32 -5.12 0
v -8.32 -4.48 0
v -7.68 -4.48 0
v 0 -5.76 0
v -0.64 -5.76 0
v -0.64 -5.12 0
v 0 -5.12 0
v -0.64 -5.76 0
v -1.28 -5.76 0
v -1.28 -5.12 0
v -0.64 -5.12 0
v -1.28 -5.76 0
v -1.92 -5.76 0
v -1.92 -5.12 0
v -1.28 -5.12 0
v -7.04 -5.76 0
v -7.68 -5.76 0
v -7.68 -5.12 0
v -7.04 -5.12 0
v -7.68 -5.76 0
v -8.32 -5.76 0
v -8.32 -5.12 0
v -7.68 -5.12 0
v 0 -6.4 0
v -0.64 -6.4 0
v -0.64 -5.76 0
v 0 -5.76 0
v -0.64 -6.4 0
v -1.28 -6.4 0
v -1.28 -5.76 0
v -0.64 -5.76 0
v -1.28 -6.4 0
v -1.92 -6.4 0
v -1.92 -5.76 0
v -1.28 -5.76 0
v -7.04 -6.4 0
v -7.68 -6.4 0
v -7.68 -5.76 0
v -7.04 -5.76 0
v -7.68 -6.4 0
v -8.32 -6.4 0
v -8.32 -5.76 0
v -7.68 -5.76 0
v 0 -7.04 0
v -0.64 -7.04 0
v -0.64 -6.4 0
v 0 -6.4 0
v -0.64 -7.04 0
v -1.28 -7.04 0
v -1.28 -6.4 0
v -0.64 -6.4 0
v -1.28 -7.04 0
v -1.92 -7.04 0
v -1.92 -6.4 0
v -1.28 -6.4 0
v -7.04 -7.04 0
v -7.68 -7.04 0
v -7.68 -6.4 0
v -7.04 -6.4 0
v -7.68 -7.04 0
v -8.32 -7.04 0
v -8.32 -6.4 0
v -7.68 -6.4 0
v 0 -7.68 0
v -0.64 -7.68 0
v -0.64 -7.04 0
v 0 -7.04 0
v -0.64 -7.68 0
v -1.28 -7.68 0
v -1.28 -7.04 0
v -0.64 -7.04 0
v -1.28 -7.68 0
v -1.92 -7.68 0
v -1.92 -7.04 0
v -1.28 -7.04 0
v -7.04 -7.68 0
v -7.68 -7.68 0
v -7.68 -7.04 0
v -7.04 -7.04 0
v -7.68 -7.68 0
v -8.32 -7.68 0
v -8.32 -7.04 0
v -7.68 -7.04 0
v 0 -8.32 0
v -0.64 -8.32 0
v -0.64 -7.68 0
v 0 -7.68 0
v -0.64 -8.32 0
v -1.28 -8.32 0
v -1.28 -7.68 0
v -0.64 -7.68 0
v -1.28 -8.32 0
v -1.92 -8.32 0
v -1.92 -7.68 0
v -1.28 -7.68 0
v -7.04 -8.32 0
v -7.68 -8.32 0
v -7.68 -7.68 0
v -7.04 -7.68 0
v -7.68 -8.32 0
v -8.32 -8.32 0
v -8.32 -7.68 0
v -7.68 -7.68 0
v 0 -8.96 0
v -0.64 -8.96 0
v -0.64 -8.32 0
v 0 -8.32 0
v -0.64 -8.96 0
v -1.28 -8.96 0
v -1.28 -8.32 0
v -0.64 -8.32 0
v -1.28 -8.96 0
v -1.92 -8.96 0
v -1.92 -8.32 0
v -1.28 -8.32 0
v -7.04 -8.96 0
v -7.68 -8.96 0
v -7.68 -8.32 0
v -7.04 -8.32 0
v -7.68 -8.96 0
v -8.32 -8.96 0
v -8.32 -8.32 0
v -7.68 -8.32 0
v 0 -9.599999 0
v -0.64 -9.599999 0
v -0.64 -8.96 0
v 0 -8.96 0
v -0.64 -9.599999 0
v -1.28 -9.599999 0
v -1.28 -8.96 0
v -0.64 -8.96 0
v -1.28 -9.599999 0
v -1.92 -9.599999 0
v -1.92 -8.96 0
v -1.28 -8.96 0
v -7.04 -9.599999 0
v -7.68 -9.599999 0
v -7.68 -8.96 0
v -7.04 -8.96 0
v -7.68 -9.599999 0
v -8.32 -9.599999 0
v -8.32 -8.96 0
v -7.68 -8.96 0
v 0 -10.24 0
v -0.64 -10.24 0
v -0.64 -9.599999 0
v 0 -9.599999 0
v -0.64 -10.24 0
v -1.28 -10.24 0
v -1.28 -9.599999 0
v -0.64 -9.599999 0
v -1.28 -10.24 0
v -1.92 -10.24 0
v -1.92 -9.599999 0
v -1.28 -9.599999 0
v -7.04 -10.24 0
v -7.68 -10.24 0
v -7.68 -9.599999 0
v -7.04 -9.599999 0
v -7.68 -10.24 0
v -8.32 -10.24 0
v -8.32 -9.599999 0
v -7.68 -9.599999 0

# Texture cooridinates (Count = 21)
vt 0.5 0
vt 0.6666667 0
vt 0.6666667 0.08333331
vt 0.5 0.08333331
vt 0.8333333 0
vt 0.8333333 0.08333331
vt 1 0
vt 1 0.08333331
vt 0.3333333 0.4166667
vt 0.5 0.4166667
vt 0.5 0.5
vt 0.3333333 0.5
vt 0.6666667 0.4166667
vt 0.6666667 0.5
vt 0.6666667 0.1666667
vt 0.5 0.1666667
vt 0.8333333 0.1666667
vt 1 0.1666667
vt 0.3333333 0.3333333
vt 0.5 0.3333333
vt 0.6666667 0.3333333

# Normal
vn 0 0 -1

# Mesh description
g Test22_mesh_0059

# Faces
f 1/1/1 2/2/1 3/3/1 4/4/1
f 5/2/1 6/5/1 7/6/1 8/3/1
f 9/5/1 10/7/1 11/8/1 12/6/1
f 13/9/1 14/10/1 15/11/1 16/12/1
f 17/10/1 18/13/1 19/14/1 20/11/1
f 21/4/1 22/3/1 23/15/1 24/16/1
f 25/3/1 26/6/1 27/17/1 28/15/1
f 29/6/1 30/8/1 31/18/1 32/17/1
f 33/19/1 34/20/1 35/10/1 36/9/1
f 37/20/1 38/21/1 39/13/1 40/10/1
f 41/1/1 42/2/1 43/3/1 44/4/1
f 45/2/1 46/5/1 47/6/1 48/3/1
f 49/5/1 50/7/1 51/8/1 52/6/1
f 53/9/1 54/10/1 55/11/1 56/12/1
f 57/10/1 58/13/1 59/14/1 60/11/1
f 61/4/1 62/3/1 63/15/1 64/16/1
f 65/3/1 66/6/1 67/17/1 68/15/1
f 69/6/1 70/8/1 71/18/1 72/17/1
f 73/19/1 74/20/1 75/10/1 76/9/1
f 77/20/1 78/21/1 79/13/1 80/10/1
f 81/1/1 82/2/1 83/3/1 84/4/1
f 85/2/1 86/5/1 87/6/1 88/3/1
f 89/5/1 90/7/1 91/8/1 92/6/1
f 93/9/1 94/10/1 95/11/1 96/12/1
f 97/10/1 98/13/1 99/14/1 100/11/1
f 101/4/1 102/3/1 103/15/1 104/16/1
f 105/3/1 106/6/1 107/17/1 108/15/1
f 109/6/1 110/8/1 111/18/1 112/17/1
f 113/19/1 114/20/1 115/10/1 116/9/1
f 117/20/1 118/21/1 119/13/1 120/10/1
f 121/1/1 122/2/1 123/3/1 124/4/1
f 125/2/1 126/5/1 127/6/1 128/3/1
f 129/5/1 130/7/1 131/8/1 132/6/1
f 133/9/1 134/10/1 135/11/1 136/12/1
f 137/10/1 138/13/1 139/14/1 140/11/1
f 141/4/1 142/3/1 143/15/1 144/16/1
f 145/3/1 146/6/1 147/17/1 148/15/1
f 149/6/1 150/8/1 151/18/1 152/17/1
f 153/19/1 154/20/1 155/10/1 156/9/1
f 157/20/1 158/21/1 159/13/1 160/10/1
f 161/1/1 162/2/1 163/3/1 164/4/1
f 165/2/1 166/5/1 167/6/1 168/3/1
f 169/5/1 170/7/1 171/8/1 172/6/1
f 173/9/1 174/10/1 175/11/1 176/12/1
f 177/10/1 178/13/1 179/14/1 180/11/1
f 181/4/1 182/3/1 183/15/1 184/16/1
f 185/3/1 186/6/1 187/17/1 188/15/1
f 189/6/1 190/8/1 191/18/1 192/17/1
f 193/19/1 194/20/1 195/10/1 196/9/1
f 197/20/1 198/21/1 199/13/1 200/10/1
f 201/1/1 202/2/1 203/3/1 204/4/1
f 205/2/1 206/5/1 207/6/1 208/3/1
f 209/5/1 210/7/1 211/8/1 212/6/1
f 213/9/1 214/10/1 215/11/1 216/12/1
f 217/10/1 218/13/1 219/14/1 220/11/1
f 221/4/1 222/3/1 223/15/1 224/16/1
f 225/3/1 226/6/1 227/17/1 228/15/1
f 229/6/1 230/8/1 231/18/1 232/17/1
f 233/19/1 234/20/1 235/10/1 236/9/1
f 237/20/1 238/21/1 239/13/1 240/10/1
f 241/1/1 242/2/1 243/3/1 244/4/1
f 245/2/1 246/5/1 247/6/1 248/3/1
f 249/5/1 250/7/1 251/8/1 252/6/1
f 253/9/1 254/10/1 255/11/1 256/12/1
f 257/10/1 258/13/1 259/14/1 260/11/1
f 261/4/1 262/3/1 263/15/1 264/16/1
f 265/3/1 266/6/1 267/17/1 268/15/1
f 269/6/1 270/8/1 271/18/1 272/17/1
f 273/19/1 274/20/1 275/10/1 276/9/1
f 277/20/1 278/21/1 279/13/1 280/10/1
f 281/1/1 282/2/1 283/3/1 284/4/1
f 285/2/1 286/5/1 287/6/1 288/3/1
f 289/5/1 290/7/1 291/8/1 292/6/1
f 293/9/1 294/10/1 295/11/1 296/12/1
f 297/10/1 298/13/1 299/14/1 300/11/1
f 301/4/1 302/3/1 303/15/1 304/16/1
f 305/3/1 306/6/1 307/17/1 308/15/1
f 309/6/1 310/8/1 311/18/1 312/17/1
f 313/19/1 314/20/1 315/10/1 316/9/1
f 317/20/1 318/21/1 319/13/1 320/10/1

