# Tiled2Unity generated file. Do not modify by hand.
# Wavefront file for 'Test22_mesh_0227.obj'

# Vertices (Count = 112)
v 0 -2.56 0
v -0.64 -2.56 0
v -0.64 -1.92 0
v 0 -1.92 0
v -0.64 -2.56 0
v -1.28 -2.56 0
v -1.28 -1.92 0
v -0.64 -1.92 0
v -1.28 -2.56 0
v -1.92 -2.56 0
v -1.92 -1.92 0
v -1.28 -1.92 0
v -1.92 -2.56 0
v -2.56 -2.56 0
v -2.56 -1.92 0
v -1.92 -1.92 0
v -2.56 -2.56 0
v -3.2 -2.56 0
v -3.2 -1.92 0
v -2.56 -1.92 0
v -3.2 -2.56 0
v -3.84 -2.56 0
v -3.84 -1.92 0
v -3.2 -1.92 0
v -3.84 -2.56 0
v -4.48 -2.56 0
v -4.48 -1.92 0
v -3.84 -1.92 0
v 0 -3.2 0
v -0.64 -3.2 0
v -0.64 -2.56 0
v 0 -2.56 0
v -0.64 -3.2 0
v -1.28 -3.2 0
v -1.28 -2.56 0
v -0.64 -2.56 0
v -1.28 -3.2 0
v -1.92 -3.2 0
v -1.92 -2.56 0
v -1.28 -2.56 0
v -1.92 -3.2 0
v -2.56 -3.2 0
v -2.56 -2.56 0
v -1.92 -2.56 0
v -2.56 -3.2 0
v -3.2 -3.2 0
v -3.2 -2.56 0
v -2.56 -2.56 0
v -3.2 -3.2 0
v -3.84 -3.2 0
v -3.84 -2.56 0
v -3.2 -2.56 0
v -3.84 -3.2 0
v -4.48 -3.2 0
v -4.48 -2.56 0
v -3.84 -2.56 0
v 0 -3.84 0
v -0.64 -3.84 0
v -0.64 -3.2 0
v 0 -3.2 0
v -0.64 -3.84 0
v -1.28 -3.84 0
v -1.28 -3.2 0
v -0.64 -3.2 0
v -1.28 -3.84 0
v -1.92 -3.84 0
v -1.92 -3.2 0
v -1.28 -3.2 0
v -1.92 -3.84 0
v -2.56 -3.84 0
v -2.56 -3.2 0
v -1.92 -3.2 0
v -2.56 -3.84 0
v -3.2 -3.84 0
v -3.2 -3.2 0
v -2.56 -3.2 0
v -3.2 -3.84 0
v -3.84 -3.84 0
v -3.84 -3.2 0
v -3.2 -3.2 0
v -3.84 -3.84 0
v -4.48 -3.84 0
v -4.48 -3.2 0
v -3.84 -3.2 0
v 0 -4.48 0
v -0.64 -4.48 0
v -0.64 -3.84 0
v 0 -3.84 0
v -0.64 -4.48 0
v -1.28 -4.48 0
v -1.28 -3.84 0
v -0.64 -3.84 0
v -1.28 -4.48 0
v -1.92 -4.48 0
v -1.92 -3.84 0
v -1.28 -3.84 0
v -1.92 -4.48 0
v -2.56 -4.48 0
v -2.56 -3.84 0
v -1.92 -3.84 0
v -2.56 -4.48 0
v -3.2 -4.48 0
v -3.2 -3.84 0
v -2.56 -3.84 0
v -3.2 -4.48 0
v -3.84 -4.48 0
v -3.84 -3.84 0
v -3.2 -3.84 0
v -3.84 -4.48 0
v -4.48 -4.48 0
v -4.48 -3.84 0
v -3.84 -3.84 0

# Texture cooridinates (Count = 27)
vt 0.04 0.9736842
vt 0.06 0.9736842
vt 0.06 1
vt 0.04 1
vt 0.08 0.9736842
vt 0.08 1
vt 0.1 0.9736842
vt 0.1 1
vt 0.02 0.9736842
vt 0.02 1
vt 0.3 0.6052631
vt 0.3 0.6315789
vt 0.28 0.6315789
vt 0.28 0.6052631
vt 0.3 0.5789474
vt 0.28 0.5789474
vt 0.32 0.6052631
vt 0.32 0.6315789
vt 0.32 0.5789474
vt 0.06 0.8421053
vt 0.08 0.8421053
vt 0.08 0.8684211
vt 0.06 0.8684211
vt 0.1 0.8421053
vt 0.1 0.8684211
vt 0.04 0.8421053
vt 0.04 0.8684211

# Normal
vn 0 0 -1

# Mesh description
g Test22_mesh_0227

# Faces
f 1/1/1 2/2/1 3/3/1 4/4/1
f 5/2/1 6/5/1 7/6/1 8/3/1
f 9/5/1 10/7/1 11/8/1 12/6/1
f 13/9/1 14/1/1 15/4/1 16/10/1
f 17/1/1 18/2/1 19/3/1 20/4/1
f 21/2/1 22/5/1 23/6/1 24/3/1
f 25/2/1 26/5/1 27/6/1 28/3/1
f 29/11/1 30/12/1 31/13/1 32/14/1
f 33/15/1 34/11/1 35/14/1 36/16/1
f 37/11/1 38/12/1 39/13/1 40/14/1
f 41/15/1 42/11/1 43/14/1 44/16/1
f 45/11/1 46/12/1 47/13/1 48/14/1
f 49/15/1 50/11/1 51/14/1 52/16/1
f 53/11/1 54/12/1 55/13/1 56/14/1
f 57/17/1 58/18/1 59/12/1 60/11/1
f 61/19/1 62/17/1 63/11/1 64/15/1
f 65/17/1 66/18/1 67/12/1 68/11/1
f 69/19/1 70/17/1 71/11/1 72/15/1
f 73/17/1 74/18/1 75/12/1 76/11/1
f 77/19/1 78/17/1 79/11/1 80/15/1
f 81/17/1 82/18/1 83/12/1 84/11/1
f 85/20/1 86/21/1 87/22/1 88/23/1
f 89/21/1 90/24/1 91/25/1 92/22/1
f 93/26/1 94/20/1 95/23/1 96/27/1
f 97/20/1 98/21/1 99/22/1 100/23/1
f 101/26/1 102/20/1 103/23/1 104/27/1
f 105/20/1 106/21/1 107/22/1 108/23/1
f 109/21/1 110/24/1 111/25/1 112/22/1

