# Tiled2Unity generated file. Do not modify by hand.
# Wavefront file for 'Test22_mesh_0189.obj'

# Vertices (Count = 140)
v -3.2 -0.64 0
v -3.84 -0.64 0
v -3.84 0 0
v -3.2 0 0
v -3.84 -0.64 0
v -4.48 -0.64 0
v -4.48 0 0
v -3.84 0 0
v -4.48 -0.64 0
v -5.12 -0.64 0
v -5.12 0 0
v -4.48 0 0
v -5.12 -0.64 0
v -5.76 -0.64 0
v -5.76 0 0
v -5.12 0 0
v -8.32 -0.64 0
v -8.96 -0.64 0
v -8.96 0 0
v -8.32 0 0
v -8.96 -0.64 0
v -9.599999 -0.64 0
v -9.599999 0 0
v -8.96 0 0
v -9.599999 -0.64 0
v -10.24 -0.64 0
v -10.24 0 0
v -9.599999 0 0
v -3.2 -1.28 0
v -3.84 -1.28 0
v -3.84 -0.64 0
v -3.2 -0.64 0
v -3.84 -1.28 0
v -4.48 -1.28 0
v -4.48 -0.64 0
v -3.84 -0.64 0
v -4.48 -1.28 0
v -5.12 -1.28 0
v -5.12 -0.64 0
v -4.48 -0.64 0
v -5.12 -1.28 0
v -5.76 -1.28 0
v -5.76 -0.64 0
v -5.12 -0.64 0
v -8.32 -1.28 0
v -8.96 -1.28 0
v -8.96 -0.64 0
v -8.32 -0.64 0
v -8.96 -1.28 0
v -9.599999 -1.28 0
v -9.599999 -0.64 0
v -8.96 -0.64 0
v -9.599999 -1.28 0
v -10.24 -1.28 0
v -10.24 -0.64 0
v -9.599999 -0.64 0
v -3.2 -1.92 0
v -3.84 -1.92 0
v -3.84 -1.28 0
v -3.2 -1.28 0
v -3.84 -1.92 0
v -4.48 -1.92 0
v -4.48 -1.28 0
v -3.84 -1.28 0
v -4.48 -1.92 0
v -5.12 -1.92 0
v -5.12 -1.28 0
v -4.48 -1.28 0
v -5.12 -1.92 0
v -5.76 -1.92 0
v -5.76 -1.28 0
v -5.12 -1.28 0
v -8.32 -1.92 0
v -8.96 -1.92 0
v -8.96 -1.28 0
v -8.32 -1.28 0
v -8.96 -1.92 0
v -9.599999 -1.92 0
v -9.599999 -1.28 0
v -8.96 -1.28 0
v -9.599999 -1.92 0
v -10.24 -1.92 0
v -10.24 -1.28 0
v -9.599999 -1.28 0
v -3.2 -2.56 0
v -3.84 -2.56 0
v -3.84 -1.92 0
v -3.2 -1.92 0
v -3.84 -2.56 0
v -4.48 -2.56 0
v -4.48 -1.92 0
v -3.84 -1.92 0
v -4.48 -2.56 0
v -5.12 -2.56 0
v -5.12 -1.92 0
v -4.48 -1.92 0
v -5.12 -2.56 0
v -5.76 -2.56 0
v -5.76 -1.92 0
v -5.12 -1.92 0
v -8.32 -2.56 0
v -8.96 -2.56 0
v -8.96 -1.92 0
v -8.32 -1.92 0
v -8.96 -2.56 0
v -9.599999 -2.56 0
v -9.599999 -1.92 0
v -8.96 -1.92 0
v -9.599999 -2.56 0
v -10.24 -2.56 0
v -10.24 -1.92 0
v -9.599999 -1.92 0
v -3.2 -3.2 0
v -3.84 -3.2 0
v -3.84 -2.56 0
v -3.2 -2.56 0
v -3.84 -3.2 0
v -4.48 -3.2 0
v -4.48 -2.56 0
v -3.84 -2.56 0
v -4.48 -3.2 0
v -5.12 -3.2 0
v -5.12 -2.56 0
v -4.48 -2.56 0
v -5.12 -3.2 0
v -5.76 -3.2 0
v -5.76 -2.56 0
v -5.12 -2.56 0
v -8.32 -3.2 0
v -8.96 -3.2 0
v -8.96 -2.56 0
v -8.32 -2.56 0
v -8.96 -3.2 0
v -9.599999 -3.2 0
v -9.599999 -2.56 0
v -8.96 -2.56 0
v -9.599999 -3.2 0
v -10.24 -3.2 0
v -10.24 -2.56 0
v -9.599999 -2.56 0

# Texture cooridinates (Count = 29)
vt 0.125 0.9375
vt 0.15625 0.9375
vt 0.15625 0.96875
vt 0.125 0.96875
vt 0.21875 0.875
vt 0.25 0.875
vt 0.25 0.90625
vt 0.21875 0.90625
vt 0.1875 0.875
vt 0.1875 0.90625
vt 0.28125 0.9375
vt 0.3125 0.9375
vt 0.3125 0.96875
vt 0.28125 0.96875
vt 0.25 0.9375
vt 0.21875 0.9375
vt 0.1875 0.9375
vt 0.125 0.90625
vt 0.15625 0.90625
vt 0.28125 0.90625
vt 0.3125 0.90625
vt 0.125 0.875
vt 0.15625 0.875
vt 0.28125 0.875
vt 0.3125 0.875
vt 0.125 0.84375
vt 0.15625 0.84375
vt 0.28125 0.84375
vt 0.3125 0.84375

# Normal
vn 0 0 -1

# Mesh description
g Test22_mesh_0189

# Faces
f 1/1/1 2/2/1 3/3/1 4/4/1
f 5/5/1 6/6/1 7/7/1 8/8/1
f 9/9/1 10/5/1 11/8/1 12/10/1
f 13/11/1 14/12/1 15/13/1 16/14/1
f 17/1/1 18/2/1 19/3/1 20/4/1
f 21/5/1 22/6/1 23/7/1 24/8/1
f 25/9/1 26/5/1 27/8/1 28/10/1
f 29/1/1 30/2/1 31/3/1 32/4/1
f 33/8/1 34/7/1 35/15/1 36/16/1
f 37/10/1 38/8/1 39/16/1 40/17/1
f 41/11/1 42/12/1 43/13/1 44/14/1
f 45/1/1 46/2/1 47/3/1 48/4/1
f 49/8/1 50/7/1 51/15/1 52/16/1
f 53/10/1 54/8/1 55/16/1 56/17/1
f 57/18/1 58/19/1 59/2/1 60/1/1
f 61/5/1 62/6/1 63/7/1 64/8/1
f 65/9/1 66/5/1 67/8/1 68/10/1
f 69/20/1 70/21/1 71/12/1 72/11/1
f 73/18/1 74/19/1 75/2/1 76/1/1
f 77/5/1 78/6/1 79/7/1 80/8/1
f 81/9/1 82/5/1 83/8/1 84/10/1
f 85/22/1 86/23/1 87/19/1 88/18/1
f 89/8/1 90/7/1 91/15/1 92/16/1
f 93/10/1 94/8/1 95/16/1 96/17/1
f 97/24/1 98/25/1 99/21/1 100/20/1
f 101/22/1 102/23/1 103/19/1 104/18/1
f 105/8/1 106/7/1 107/15/1 108/16/1
f 109/10/1 110/8/1 111/16/1 112/17/1
f 113/26/1 114/27/1 115/23/1 116/22/1
f 117/5/1 118/6/1 119/7/1 120/8/1
f 121/9/1 122/5/1 123/8/1 124/10/1
f 125/28/1 126/29/1 127/25/1 128/24/1
f 129/26/1 130/27/1 131/23/1 132/22/1
f 133/5/1 134/6/1 135/7/1 136/8/1
f 137/9/1 138/5/1 139/8/1 140/10/1

