# Tiled2Unity generated file. Do not modify by hand.
# Wavefront file for 'Test22_mesh_0247.obj'

# Vertices (Count = 132)
v -0.64 -8.96 0
v -1.28 -8.96 0
v -1.28 -8.32 0
v -0.64 -8.32 0
v -1.28 -8.96 0
v -1.92 -8.96 0
v -1.92 -8.32 0
v -1.28 -8.32 0
v -1.92 -8.96 0
v -2.56 -8.96 0
v -2.56 -8.32 0
v -1.92 -8.32 0
v -2.56 -8.96 0
v -3.2 -8.96 0
v -3.2 -8.32 0
v -2.56 -8.32 0
v -3.2 -8.96 0
v -3.84 -8.96 0
v -3.84 -8.32 0
v -3.2 -8.32 0
v -3.84 -8.96 0
v -4.48 -8.96 0
v -4.48 -8.32 0
v -3.84 -8.32 0
v -4.48 -8.96 0
v -5.12 -8.96 0
v -5.12 -8.32 0
v -4.48 -8.32 0
v -5.12 -8.96 0
v -5.76 -8.96 0
v -5.76 -8.32 0
v -5.12 -8.32 0
v -5.76 -8.96 0
v -6.4 -8.96 0
v -6.4 -8.32 0
v -5.76 -8.32 0
v -6.4 -8.96 0
v -7.04 -8.96 0
v -7.04 -8.32 0
v -6.4 -8.32 0
v -7.04 -8.96 0
v -7.68 -8.96 0
v -7.68 -8.32 0
v -7.04 -8.32 0
v -0.64 -9.599999 0
v -1.28 -9.599999 0
v -1.28 -8.96 0
v -0.64 -8.96 0
v -1.28 -9.599999 0
v -1.92 -9.599999 0
v -1.92 -8.96 0
v -1.28 -8.96 0
v -1.92 -9.599999 0
v -2.56 -9.599999 0
v -2.56 -8.96 0
v -1.92 -8.96 0
v -2.56 -9.599999 0
v -3.2 -9.599999 0
v -3.2 -8.96 0
v -2.56 -8.96 0
v -3.2 -9.599999 0
v -3.84 -9.599999 0
v -3.84 -8.96 0
v -3.2 -8.96 0
v -3.84 -9.599999 0
v -4.48 -9.599999 0
v -4.48 -8.96 0
v -3.84 -8.96 0
v -4.48 -9.599999 0
v -5.12 -9.599999 0
v -5.12 -8.96 0
v -4.48 -8.96 0
v -5.12 -9.599999 0
v -5.76 -9.599999 0
v -5.76 -8.96 0
v -5.12 -8.96 0
v -5.76 -9.599999 0
v -6.4 -9.599999 0
v -6.4 -8.96 0
v -5.76 -8.96 0
v -6.4 -9.599999 0
v -7.04 -9.599999 0
v -7.04 -8.96 0
v -6.4 -8.96 0
v -7.04 -9.599999 0
v -7.68 -9.599999 0
v -7.68 -8.96 0
v -7.04 -8.96 0
v -0.64 -10.24 0
v -1.28 -10.24 0
v -1.28 -9.599999 0
v -0.64 -9.599999 0
v -1.28 -10.24 0
v -1.92 -10.24 0
v -1.92 -9.599999 0
v -1.28 -9.599999 0
v -1.92 -10.24 0
v -2.56 -10.24 0
v -2.56 -9.599999 0
v -1.92 -9.599999 0
v -2.56 -10.24 0
v -3.2 -10.24 0
v -3.2 -9.599999 0
v -2.56 -9.599999 0
v -3.2 -10.24 0
v -3.84 -10.24 0
v -3.84 -9.599999 0
v -3.2 -9.599999 0
v -3.84 -10.24 0
v -4.48 -10.24 0
v -4.48 -9.599999 0
v -3.84 -9.599999 0
v -4.48 -10.24 0
v -5.12 -10.24 0
v -5.12 -9.599999 0
v -4.48 -9.599999 0
v -5.12 -10.24 0
v -5.76 -10.24 0
v -5.76 -9.599999 0
v -5.12 -9.599999 0
v -5.76 -10.24 0
v -6.4 -10.24 0
v -6.4 -9.599999 0
v -5.76 -9.599999 0
v -6.4 -10.24 0
v -7.04 -10.24 0
v -7.04 -9.599999 0
v -6.4 -9.599999 0
v -7.04 -10.24 0
v -7.68 -10.24 0
v -7.68 -9.599999 0
v -7.04 -9.599999 0

# Texture cooridinates (Count = 28)
vt 0.5 0.8571429
vt 0.5833333 0.8571429
vt 0.5833333 0.9285714
vt 0.5 0.9285714
vt 0.6666667 0.8571429
vt 0.6666667 0.9285714
vt 0.75 0.8571429
vt 0.75 0.9285714
vt 0.8333333 0.8571429
vt 0.8333333 0.9285714
vt 0.9166667 0.8571429
vt 0.9166667 0.9285714
vt 1 0.8571429
vt 1 0.9285714
vt 0.5 0.7857143
vt 0.5833333 0.7857143
vt 0.6666667 0.7857143
vt 0.75 0.7857143
vt 0.8333333 0.7857143
vt 0.9166667 0.7857143
vt 1 0.7857143
vt 0.5 0.7142857
vt 0.5833333 0.7142857
vt 0.6666667 0.7142857
vt 0.75 0.7142857
vt 0.8333333 0.7142857
vt 0.9166667 0.7142857
vt 1 0.7142857

# Normal
vn 0 0 -1

# Mesh description
g Test22_mesh_0247

# Faces
f 1/1/1 2/2/1 3/3/1 4/4/1
f 5/2/1 6/5/1 7/6/1 8/3/1
f 9/5/1 10/7/1 11/8/1 12/6/1
f 13/5/1 14/7/1 15/8/1 16/6/1
f 17/5/1 18/7/1 19/8/1 20/6/1
f 21/5/1 22/7/1 23/8/1 24/6/1
f 25/5/1 26/7/1 27/8/1 28/6/1
f 29/5/1 30/7/1 31/8/1 32/6/1
f 33/7/1 34/9/1 35/10/1 36/8/1
f 37/9/1 38/11/1 39/12/1 40/10/1
f 41/11/1 42/13/1 43/14/1 44/12/1
f 45/15/1 46/16/1 47/2/1 48/1/1
f 49/16/1 50/17/1 51/5/1 52/2/1
f 53/17/1 54/18/1 55/7/1 56/5/1
f 57/17/1 58/18/1 59/7/1 60/5/1
f 61/17/1 62/18/1 63/7/1 64/5/1
f 65/17/1 66/18/1 67/7/1 68/5/1
f 69/17/1 70/18/1 71/7/1 72/5/1
f 73/17/1 74/18/1 75/7/1 76/5/1
f 77/18/1 78/19/1 79/9/1 80/7/1
f 81/19/1 82/20/1 83/11/1 84/9/1
f 85/20/1 86/21/1 87/13/1 88/11/1
f 89/22/1 90/23/1 91/16/1 92/15/1
f 93/23/1 94/24/1 95/17/1 96/16/1
f 97/24/1 98/25/1 99/18/1 100/17/1
f 101/24/1 102/25/1 103/18/1 104/17/1
f 105/24/1 106/25/1 107/18/1 108/17/1
f 109/24/1 110/25/1 111/18/1 112/17/1
f 113/24/1 114/25/1 115/18/1 116/17/1
f 117/24/1 118/25/1 119/18/1 120/17/1
f 121/25/1 122/26/1 123/19/1 124/18/1
f 125/26/1 126/27/1 127/20/1 128/19/1
f 129/27/1 130/28/1 131/21/1 132/20/1

