# Tiled2Unity generated file. Do not modify by hand.
# Wavefront file for 'NewBadManor_mesh_0363.obj'

# Vertices (Count = 576)
v -0.32 -0.64 -0.01156069
v -0.64 -0.64 -0.01156069
v -0.64 -0.32 -0.01156069
v -0.32 -0.32 -0.01156069
v -0.64 -0.64 -0.01156069
v -0.96 -0.64 -0.01156069
v -0.96 -0.32 -0.01156069
v -0.64 -0.32 -0.01156069
v -0.96 -0.64 -0.01156069
v -1.28 -0.64 -0.01156069
v -1.28 -0.32 -0.01156069
v -0.96 -0.32 -0.01156069
v -1.28 -0.64 -0.01156069
v -1.6 -0.64 -0.01156069
v -1.6 -0.32 -0.01156069
v -1.28 -0.32 -0.01156069
v -1.6 -0.64 -0.01156069
v -1.92 -0.64 -0.01156069
v -1.92 -0.32 -0.01156069
v -1.6 -0.32 -0.01156069
v -1.92 -0.64 -0.01156069
v -2.24 -0.64 -0.01156069
v -2.24 -0.32 -0.01156069
v -1.92 -0.32 -0.01156069
v -2.24 -0.64 -0.01156069
v -2.56 -0.64 -0.01156069
v -2.56 -0.32 -0.01156069
v -2.24 -0.32 -0.01156069
v -2.56 -0.64 -0.01156069
v -2.88 -0.64 -0.01156069
v -2.88 -0.32 -0.01156069
v -2.56 -0.32 -0.01156069
v -2.88 -0.64 -0.01156069
v -3.2 -0.64 -0.01156069
v -3.2 -0.32 -0.01156069
v -2.88 -0.32 -0.01156069
v -3.2 -0.64 -0.01156069
v -3.52 -0.64 -0.01156069
v -3.52 -0.32 -0.01156069
v -3.2 -0.32 -0.01156069
v -3.52 -0.64 -0.01156069
v -3.84 -0.64 -0.01156069
v -3.84 -0.32 -0.01156069
v -3.52 -0.32 -0.01156069
v -3.84 -0.64 -0.01156069
v -4.16 -0.64 -0.01156069
v -4.16 -0.32 -0.01156069
v -3.84 -0.32 -0.01156069
v -4.16 -0.64 -0.01156069
v -4.48 -0.64 -0.01156069
v -4.48 -0.32 -0.01156069
v -4.16 -0.32 -0.01156069
v -4.48 -0.64 -0.01156069
v -4.8 -0.64 -0.01156069
v -4.8 -0.32 -0.01156069
v -4.48 -0.32 -0.01156069
v -4.8 -0.64 -0.01156069
v -5.12 -0.64 -0.01156069
v -5.12 -0.32 -0.01156069
v -4.8 -0.32 -0.01156069
v -0.32 -0.96 -0.01734104
v -0.64 -0.96 -0.01734104
v -0.64 -0.64 -0.01734104
v -0.32 -0.64 -0.01734104
v -0.64 -0.96 -0.01734104
v -0.96 -0.96 -0.01734104
v -0.96 -0.64 -0.01734104
v -0.64 -0.64 -0.01734104
v -0.96 -0.96 -0.01734104
v -1.28 -0.96 -0.01734104
v -1.28 -0.64 -0.01734104
v -0.96 -0.64 -0.01734104
v -1.28 -0.96 -0.01734104
v -1.6 -0.96 -0.01734104
v -1.6 -0.64 -0.01734104
v -1.28 -0.64 -0.01734104
v -1.6 -0.96 -0.01734104
v -1.92 -0.96 -0.01734104
v -1.92 -0.64 -0.01734104
v -1.6 -0.64 -0.01734104
v -1.92 -0.96 -0.01734104
v -2.24 -0.96 -0.01734104
v -2.24 -0.64 -0.01734104
v -1.92 -0.64 -0.01734104
v -2.24 -0.96 -0.01734104
v -2.56 -0.96 -0.01734104
v -2.56 -0.64 -0.01734104
v -2.24 -0.64 -0.01734104
v -2.56 -0.96 -0.01734104
v -2.88 -0.96 -0.01734104
v -2.88 -0.64 -0.01734104
v -2.56 -0.64 -0.01734104
v -2.88 -0.96 -0.01734104
v -3.2 -0.96 -0.01734104
v -3.2 -0.64 -0.01734104
v -2.88 -0.64 -0.01734104
v -3.2 -0.96 -0.01734104
v -3.52 -0.96 -0.01734104
v -3.52 -0.64 -0.01734104
v -3.2 -0.64 -0.01734104
v -3.52 -0.96 -0.01734104
v -3.84 -0.96 -0.01734104
v -3.84 -0.64 -0.01734104
v -3.52 -0.64 -0.01734104
v -3.84 -0.96 -0.01734104
v -4.16 -0.96 -0.01734104
v -4.16 -0.64 -0.01734104
v -3.84 -0.64 -0.01734104
v -4.16 -0.96 -0.01734104
v -4.48 -0.96 -0.01734104
v -4.48 -0.64 -0.01734104
v -4.16 -0.64 -0.01734104
v -4.48 -0.96 -0.01734104
v -4.8 -0.96 -0.01734104
v -4.8 -0.64 -0.01734104
v -4.48 -0.64 -0.01734104
v -4.8 -0.96 -0.01734104
v -5.12 -0.96 -0.01734104
v -5.12 -0.64 -0.01734104
v -4.8 -0.64 -0.01734104
v -0.32 -1.28 -0.02312139
v -0.64 -1.28 -0.02312139
v -0.64 -0.96 -0.02312139
v -0.32 -0.96 -0.02312139
v -0.64 -1.28 -0.02312139
v -0.96 -1.28 -0.02312139
v -0.96 -0.96 -0.02312139
v -0.64 -0.96 -0.02312139
v -0.96 -1.28 -0.02312139
v -1.28 -1.28 -0.02312139
v -1.28 -0.96 -0.02312139
v -0.96 -0.96 -0.02312139
v -1.28 -1.28 -0.02312139
v -1.6 -1.28 -0.02312139
v -1.6 -0.96 -0.02312139
v -1.28 -0.96 -0.02312139
v -1.6 -1.28 -0.02312139
v -1.92 -1.28 -0.02312139
v -1.92 -0.96 -0.02312139
v -1.6 -0.96 -0.02312139
v -1.92 -1.28 -0.02312139
v -2.24 -1.28 -0.02312139
v -2.24 -0.96 -0.02312139
v -1.92 -0.96 -0.02312139
v -2.24 -1.28 -0.02312139
v -2.56 -1.28 -0.02312139
v -2.56 -0.96 -0.02312139
v -2.24 -0.96 -0.02312139
v -2.56 -1.28 -0.02312139
v -2.88 -1.28 -0.02312139
v -2.88 -0.96 -0.02312139
v -2.56 -0.96 -0.02312139
v -2.88 -1.28 -0.02312139
v -3.2 -1.28 -0.02312139
v -3.2 -0.96 -0.02312139
v -2.88 -0.96 -0.02312139
v -3.2 -1.28 -0.02312139
v -3.52 -1.28 -0.02312139
v -3.52 -0.96 -0.02312139
v -3.2 -0.96 -0.02312139
v -3.52 -1.28 -0.02312139
v -3.84 -1.28 -0.02312139
v -3.84 -0.96 -0.02312139
v -3.52 -0.96 -0.02312139
v -3.84 -1.28 -0.02312139
v -4.16 -1.28 -0.02312139
v -4.16 -0.96 -0.02312139
v -3.84 -0.96 -0.02312139
v -4.16 -1.28 -0.02312139
v -4.48 -1.28 -0.02312139
v -4.48 -0.96 -0.02312139
v -4.16 -0.96 -0.02312139
v -4.48 -1.28 -0.02312139
v -4.8 -1.28 -0.02312139
v -4.8 -0.96 -0.02312139
v -4.48 -0.96 -0.02312139
v -4.8 -1.28 -0.02312139
v -5.12 -1.28 -0.02312139
v -5.12 -0.96 -0.02312139
v -4.8 -0.96 -0.02312139
v -0.32 -1.6 -0.02890173
v -0.64 -1.6 -0.02890173
v -0.64 -1.28 -0.02890173
v -0.32 -1.28 -0.02890173
v -0.64 -1.6 -0.02890173
v -0.96 -1.6 -0.02890173
v -0.96 -1.28 -0.02890173
v -0.64 -1.28 -0.02890173
v -0.96 -1.6 -0.02890173
v -1.28 -1.6 -0.02890173
v -1.28 -1.28 -0.02890173
v -0.96 -1.28 -0.02890173
v -1.28 -1.6 -0.02890173
v -1.6 -1.6 -0.02890173
v -1.6 -1.28 -0.02890173
v -1.28 -1.28 -0.02890173
v -1.6 -1.6 -0.02890173
v -1.92 -1.6 -0.02890173
v -1.92 -1.28 -0.02890173
v -1.6 -1.28 -0.02890173
v -1.92 -1.6 -0.02890173
v -2.24 -1.6 -0.02890173
v -2.24 -1.28 -0.02890173
v -1.92 -1.28 -0.02890173
v -2.24 -1.6 -0.02890173
v -2.56 -1.6 -0.02890173
v -2.56 -1.28 -0.02890173
v -2.24 -1.28 -0.02890173
v -2.56 -1.6 -0.02890173
v -2.88 -1.6 -0.02890173
v -2.88 -1.28 -0.02890173
v -2.56 -1.28 -0.02890173
v -2.88 -1.6 -0.02890173
v -3.2 -1.6 -0.02890173
v -3.2 -1.28 -0.02890173
v -2.88 -1.28 -0.02890173
v -3.2 -1.6 -0.02890173
v -3.52 -1.6 -0.02890173
v -3.52 -1.28 -0.02890173
v -3.2 -1.28 -0.02890173
v -3.52 -1.6 -0.02890173
v -3.84 -1.6 -0.02890173
v -3.84 -1.28 -0.02890173
v -3.52 -1.28 -0.02890173
v -3.84 -1.6 -0.02890173
v -4.16 -1.6 -0.02890173
v -4.16 -1.28 -0.02890173
v -3.84 -1.28 -0.02890173
v -4.16 -1.6 -0.02890173
v -4.48 -1.6 -0.02890173
v -4.48 -1.28 -0.02890173
v -4.16 -1.28 -0.02890173
v -4.48 -1.6 -0.02890173
v -4.8 -1.6 -0.02890173
v -4.8 -1.28 -0.02890173
v -4.48 -1.28 -0.02890173
v -4.8 -1.6 -0.02890173
v -5.12 -1.6 -0.02890173
v -5.12 -1.28 -0.02890173
v -4.8 -1.28 -0.02890173
v -0.32 -1.92 -0.03468208
v -0.64 -1.92 -0.03468208
v -0.64 -1.6 -0.03468208
v -0.32 -1.6 -0.03468208
v -0.64 -1.92 -0.03468208
v -0.96 -1.92 -0.03468208
v -0.96 -1.6 -0.03468208
v -0.64 -1.6 -0.03468208
v -0.96 -1.92 -0.03468208
v -1.28 -1.92 -0.03468208
v -1.28 -1.6 -0.03468208
v -0.96 -1.6 -0.03468208
v -1.28 -1.92 -0.03468208
v -1.6 -1.92 -0.03468208
v -1.6 -1.6 -0.03468208
v -1.28 -1.6 -0.03468208
v -1.6 -1.92 -0.03468208
v -1.92 -1.92 -0.03468208
v -1.92 -1.6 -0.03468208
v -1.6 -1.6 -0.03468208
v -1.92 -1.92 -0.03468208
v -2.24 -1.92 -0.03468208
v -2.24 -1.6 -0.03468208
v -1.92 -1.6 -0.03468208
v -2.24 -1.92 -0.03468208
v -2.56 -1.92 -0.03468208
v -2.56 -1.6 -0.03468208
v -2.24 -1.6 -0.03468208
v -2.56 -1.92 -0.03468208
v -2.88 -1.92 -0.03468208
v -2.88 -1.6 -0.03468208
v -2.56 -1.6 -0.03468208
v -2.88 -1.92 -0.03468208
v -3.2 -1.92 -0.03468208
v -3.2 -1.6 -0.03468208
v -2.88 -1.6 -0.03468208
v -3.2 -1.92 -0.03468208
v -3.52 -1.92 -0.03468208
v -3.52 -1.6 -0.03468208
v -3.2 -1.6 -0.03468208
v -3.52 -1.92 -0.03468208
v -3.84 -1.92 -0.03468208
v -3.84 -1.6 -0.03468208
v -3.52 -1.6 -0.03468208
v -3.84 -1.92 -0.03468208
v -4.16 -1.92 -0.03468208
v -4.16 -1.6 -0.03468208
v -3.84 -1.6 -0.03468208
v -4.16 -1.92 -0.03468208
v -4.48 -1.92 -0.03468208
v -4.48 -1.6 -0.03468208
v -4.16 -1.6 -0.03468208
v -4.48 -1.92 -0.03468208
v -4.8 -1.92 -0.03468208
v -4.8 -1.6 -0.03468208
v -4.48 -1.6 -0.03468208
v -4.8 -1.92 -0.03468208
v -5.12 -1.92 -0.03468208
v -5.12 -1.6 -0.03468208
v -4.8 -1.6 -0.03468208
v -0.32 -2.24 -0.04046243
v -0.64 -2.24 -0.04046243
v -0.64 -1.92 -0.04046243
v -0.32 -1.92 -0.04046243
v -0.64 -2.24 -0.04046243
v -0.96 -2.24 -0.04046243
v -0.96 -1.92 -0.04046243
v -0.64 -1.92 -0.04046243
v -0.96 -2.24 -0.04046243
v -1.28 -2.24 -0.04046243
v -1.28 -1.92 -0.04046243
v -0.96 -1.92 -0.04046243
v -1.28 -2.24 -0.04046243
v -1.6 -2.24 -0.04046243
v -1.6 -1.92 -0.04046243
v -1.28 -1.92 -0.04046243
v -1.6 -2.24 -0.04046243
v -1.92 -2.24 -0.04046243
v -1.92 -1.92 -0.04046243
v -1.6 -1.92 -0.04046243
v -1.92 -2.24 -0.04046243
v -2.24 -2.24 -0.04046243
v -2.24 -1.92 -0.04046243
v -1.92 -1.92 -0.04046243
v -2.24 -2.24 -0.04046243
v -2.56 -2.24 -0.04046243
v -2.56 -1.92 -0.04046243
v -2.24 -1.92 -0.04046243
v -2.56 -2.24 -0.04046243
v -2.88 -2.24 -0.04046243
v -2.88 -1.92 -0.04046243
v -2.56 -1.92 -0.04046243
v -2.88 -2.24 -0.04046243
v -3.2 -2.24 -0.04046243
v -3.2 -1.92 -0.04046243
v -2.88 -1.92 -0.04046243
v -3.2 -2.24 -0.04046243
v -3.52 -2.24 -0.04046243
v -3.52 -1.92 -0.04046243
v -3.2 -1.92 -0.04046243
v -3.52 -2.24 -0.04046243
v -3.84 -2.24 -0.04046243
v -3.84 -1.92 -0.04046243
v -3.52 -1.92 -0.04046243
v -3.84 -2.24 -0.04046243
v -4.16 -2.24 -0.04046243
v -4.16 -1.92 -0.04046243
v -3.84 -1.92 -0.04046243
v -4.16 -2.24 -0.04046243
v -4.48 -2.24 -0.04046243
v -4.48 -1.92 -0.04046243
v -4.16 -1.92 -0.04046243
v -4.48 -2.24 -0.04046243
v -4.8 -2.24 -0.04046243
v -4.8 -1.92 -0.04046243
v -4.48 -1.92 -0.04046243
v -4.8 -2.24 -0.04046243
v -5.12 -2.24 -0.04046243
v -5.12 -1.92 -0.04046243
v -4.8 -1.92 -0.04046243
v -0.32 -2.56 -0.04624277
v -0.64 -2.56 -0.04624277
v -0.64 -2.24 -0.04624277
v -0.32 -2.24 -0.04624277
v -0.64 -2.56 -0.04624277
v -0.96 -2.56 -0.04624277
v -0.96 -2.24 -0.04624277
v -0.64 -2.24 -0.04624277
v -0.96 -2.56 -0.04624277
v -1.28 -2.56 -0.04624277
v -1.28 -2.24 -0.04624277
v -0.96 -2.24 -0.04624277
v -1.28 -2.56 -0.04624277
v -1.6 -2.56 -0.04624277
v -1.6 -2.24 -0.04624277
v -1.28 -2.24 -0.04624277
v -1.6 -2.56 -0.04624277
v -1.92 -2.56 -0.04624277
v -1.92 -2.24 -0.04624277
v -1.6 -2.24 -0.04624277
v -1.92 -2.56 -0.04624277
v -2.24 -2.56 -0.04624277
v -2.24 -2.24 -0.04624277
v -1.92 -2.24 -0.04624277
v -2.24 -2.56 -0.04624277
v -2.56 -2.56 -0.04624277
v -2.56 -2.24 -0.04624277
v -2.24 -2.24 -0.04624277
v -2.56 -2.56 -0.04624277
v -2.88 -2.56 -0.04624277
v -2.88 -2.24 -0.04624277
v -2.56 -2.24 -0.04624277
v -2.88 -2.56 -0.04624277
v -3.2 -2.56 -0.04624277
v -3.2 -2.24 -0.04624277
v -2.88 -2.24 -0.04624277
v -3.2 -2.56 -0.04624277
v -3.52 -2.56 -0.04624277
v -3.52 -2.24 -0.04624277
v -3.2 -2.24 -0.04624277
v -3.52 -2.56 -0.04624277
v -3.84 -2.56 -0.04624277
v -3.84 -2.24 -0.04624277
v -3.52 -2.24 -0.04624277
v -3.84 -2.56 -0.04624277
v -4.16 -2.56 -0.04624277
v -4.16 -2.24 -0.04624277
v -3.84 -2.24 -0.04624277
v -4.16 -2.56 -0.04624277
v -4.48 -2.56 -0.04624277
v -4.48 -2.24 -0.04624277
v -4.16 -2.24 -0.04624277
v -4.48 -2.56 -0.04624277
v -4.8 -2.56 -0.04624277
v -4.8 -2.24 -0.04624277
v -4.48 -2.24 -0.04624277
v -4.8 -2.56 -0.04624277
v -5.12 -2.56 -0.04624277
v -5.12 -2.24 -0.04624277
v -4.8 -2.24 -0.04624277
v -0.32 -2.88 -0.05202312
v -0.64 -2.88 -0.05202312
v -0.64 -2.56 -0.05202312
v -0.32 -2.56 -0.05202312
v -0.64 -2.88 -0.05202312
v -0.96 -2.88 -0.05202312
v -0.96 -2.56 -0.05202312
v -0.64 -2.56 -0.05202312
v -0.96 -2.88 -0.05202312
v -1.28 -2.88 -0.05202312
v -1.28 -2.56 -0.05202312
v -0.96 -2.56 -0.05202312
v -1.28 -2.88 -0.05202312
v -1.6 -2.88 -0.05202312
v -1.6 -2.56 -0.05202312
v -1.28 -2.56 -0.05202312
v -1.6 -2.88 -0.05202312
v -1.92 -2.88 -0.05202312
v -1.92 -2.56 -0.05202312
v -1.6 -2.56 -0.05202312
v -1.92 -2.88 -0.05202312
v -2.24 -2.88 -0.05202312
v -2.24 -2.56 -0.05202312
v -1.92 -2.56 -0.05202312
v -2.24 -2.88 -0.05202312
v -2.56 -2.88 -0.05202312
v -2.56 -2.56 -0.05202312
v -2.24 -2.56 -0.05202312
v -3.2 -2.88 -0.05202312
v -3.52 -2.88 -0.05202312
v -3.52 -2.56 -0.05202312
v -3.2 -2.56 -0.05202312
v -3.52 -2.88 -0.05202312
v -3.84 -2.88 -0.05202312
v -3.84 -2.56 -0.05202312
v -3.52 -2.56 -0.05202312
v -3.84 -2.88 -0.05202312
v -4.16 -2.88 -0.05202312
v -4.16 -2.56 -0.05202312
v -3.84 -2.56 -0.05202312
v -4.16 -2.88 -0.05202312
v -4.48 -2.88 -0.05202312
v -4.48 -2.56 -0.05202312
v -4.16 -2.56 -0.05202312
v -4.48 -2.88 -0.05202312
v -4.8 -2.88 -0.05202312
v -4.8 -2.56 -0.05202312
v -4.48 -2.56 -0.05202312
v -4.8 -2.88 -0.05202312
v -5.12 -2.88 -0.05202312
v -5.12 -2.56 -0.05202312
v -4.8 -2.56 -0.05202312
v -0.32 -3.2 -0.05780347
v -0.64 -3.2 -0.05780347
v -0.64 -2.88 -0.05780347
v -0.32 -2.88 -0.05780347
v -0.64 -3.2 -0.05780347
v -0.96 -3.2 -0.05780347
v -0.96 -2.88 -0.05780347
v -0.64 -2.88 -0.05780347
v -0.96 -3.2 -0.05780347
v -1.28 -3.2 -0.05780347
v -1.28 -2.88 -0.05780347
v -0.96 -2.88 -0.05780347
v -1.28 -3.2 -0.05780347
v -1.6 -3.2 -0.05780347
v -1.6 -2.88 -0.05780347
v -1.28 -2.88 -0.05780347
v -1.6 -3.2 -0.05780347
v -1.92 -3.2 -0.05780347
v -1.92 -2.88 -0.05780347
v -1.6 -2.88 -0.05780347
v -1.92 -3.2 -0.05780347
v -2.24 -3.2 -0.05780347
v -2.24 -2.88 -0.05780347
v -1.92 -2.88 -0.05780347
v -2.24 -3.2 -0.05780347
v -2.56 -3.2 -0.05780347
v -2.56 -2.88 -0.05780347
v -2.24 -2.88 -0.05780347
v -3.2 -3.2 -0.05780347
v -3.52 -3.2 -0.05780347
v -3.52 -2.88 -0.05780347
v -3.2 -2.88 -0.05780347
v -3.52 -3.2 -0.05780347
v -3.84 -3.2 -0.05780347
v -3.84 -2.88 -0.05780347
v -3.52 -2.88 -0.05780347
v -3.84 -3.2 -0.05780347
v -4.16 -3.2 -0.05780347
v -4.16 -2.88 -0.05780347
v -3.84 -2.88 -0.05780347
v -4.16 -3.2 -0.05780347
v -4.48 -3.2 -0.05780347
v -4.48 -2.88 -0.05780347
v -4.16 -2.88 -0.05780347
v -4.48 -3.2 -0.05780347
v -4.8 -3.2 -0.05780347
v -4.8 -2.88 -0.05780347
v -4.48 -2.88 -0.05780347
v -4.8 -3.2 -0.05780347
v -5.12 -3.2 -0.05780347
v -5.12 -2.88 -0.05780347
v -4.8 -2.88 -0.05780347
v -0.32 -3.52 -0.06358381
v -0.64 -3.52 -0.06358381
v -0.64 -3.2 -0.06358381
v -0.32 -3.2 -0.06358381
v -0.64 -3.52 -0.06358381
v -0.96 -3.52 -0.06358381
v -0.96 -3.2 -0.06358381
v -0.64 -3.2 -0.06358381
v -0.96 -3.52 -0.06358381
v -1.28 -3.52 -0.06358381
v -1.28 -3.2 -0.06358381
v -0.96 -3.2 -0.06358381
v -1.28 -3.52 -0.06358381
v -1.6 -3.52 -0.06358381
v -1.6 -3.2 -0.06358381
v -1.28 -3.2 -0.06358381
v -1.6 -3.52 -0.06358381
v -1.92 -3.52 -0.06358381
v -1.92 -3.2 -0.06358381
v -1.6 -3.2 -0.06358381
v -1.92 -3.52 -0.06358381
v -2.24 -3.52 -0.06358381
v -2.24 -3.2 -0.06358381
v -1.92 -3.2 -0.06358381
v -2.24 -3.52 -0.06358381
v -2.56 -3.52 -0.06358381
v -2.56 -3.2 -0.06358381
v -2.24 -3.2 -0.06358381
v -3.2 -3.52 -0.06358381
v -3.52 -3.52 -0.06358381
v -3.52 -3.2 -0.06358381
v -3.2 -3.2 -0.06358381
v -3.52 -3.52 -0.06358381
v -3.84 -3.52 -0.06358381
v -3.84 -3.2 -0.06358381
v -3.52 -3.2 -0.06358381
v -3.84 -3.52 -0.06358381
v -4.16 -3.52 -0.06358381
v -4.16 -3.2 -0.06358381
v -3.84 -3.2 -0.06358381
v -4.16 -3.52 -0.06358381
v -4.48 -3.52 -0.06358381
v -4.48 -3.2 -0.06358381
v -4.16 -3.2 -0.06358381
v -4.48 -3.52 -0.06358381
v -4.8 -3.52 -0.06358381
v -4.8 -3.2 -0.06358381
v -4.48 -3.2 -0.06358381
v -4.8 -3.52 -0.06358381
v -5.12 -3.52 -0.06358381
v -5.12 -3.2 -0.06358381
v -4.8 -3.2 -0.06358381

# Texture cooridinates (Count = 80)
vt 0 0.5
vt 0.05555556 0.5
vt 0.05555556 0.5714285
vt 0 0.5714285
vt 0.1111111 0.5
vt 0.1111111 0.5714285
vt 0 0.4285714
vt 0.05555556 0.4285714
vt 0.1111111 0.4285714
vt 0.1666667 0.4285714
vt 0.1666667 0.5
vt 0.2222222 0.4285714
vt 0.2222222 0.5
vt 0.2777778 0.4285714
vt 0.2777778 0.5
vt 0.3333333 0.4285714
vt 0.3333333 0.5
vt 0.2777778 0.5714285
vt 0.2222222 0.5714285
vt 0 0.3571429
vt 0.05555556 0.3571429
vt 0.1111111 0.3571429
vt 0.1666667 0.3571429
vt 0.5 0.3571429
vt 0.5555556 0.3571429
vt 0.5555556 0.4285714
vt 0.5 0.4285714
vt 0.4444444 0.3571429
vt 0.4444444 0.4285714
vt 0.2222222 0.3571429
vt 0.2777778 0.3571429
vt 0.3333333 0.3571429
vt 0 0.2857143
vt 0.05555556 0.2857143
vt 0.1111111 0.2857143
vt 0.3333333 0.2857143
vt 0.3888889 0.2857143
vt 0.3888889 0.3571429
vt 0.5 0.2142857
vt 0.5555556 0.2142857
vt 0.5555556 0.2857143
vt 0.5 0.2857143
vt 0.4444444 0.2142857
vt 0.4444444 0.2857143
vt 0.6111111 0.2857143
vt 0.6666667 0.2857143
vt 0.6666667 0.3571429
vt 0.6111111 0.3571429
vt 0.6111111 0.2142857
vt 0.6666667 0.2142857
vt 0.2222222 0.2857143
vt 0.2777778 0.2857143
vt 0.1666667 0.2857143
vt 0.4444444 0.1428571
vt 0.5 0.1428571
vt 0.5555556 0.1428571
vt 0 0.2142857
vt 0.05555556 0.2142857
vt 0.1111111 0.2142857
vt 0.1666667 0.2142857
vt 0.2222222 0.2142857
vt 0.2777778 0.2142857
vt 0.3333333 0.2142857
vt 0 0.1428571
vt 0.05555556 0.1428571
vt 0.1111111 0.1428571
vt 0.1666667 0.1428571
vt 0.2222222 0.1428571
vt 0.2777778 0.1428571
vt 0.3333333 0.1428571
vt 0.1111111 0.0714286
vt 0.05555556 0.0714286
vt 0.05555556 0
vt 0.1111111 0
vt 0 0.0714286
vt 0 0
vt 0.3333333 0.0714286
vt 0.2777778 0.0714286
vt 0.2777778 0
vt 0.3333333 0

# Normal
vn 0 0 -1

# Mesh description
g NewBadManor_mesh_0363

# Faces
f 1/1/1 2/2/1 3/3/1 4/4/1
f 5/2/1 6/5/1 7/6/1 8/3/1
f 9/7/1 10/8/1 11/2/1 12/1/1
f 13/8/1 14/9/1 15/5/1 16/2/1
f 17/9/1 18/10/1 19/11/1 20/5/1
f 21/10/1 22/12/1 23/13/1 24/11/1
f 25/10/1 26/12/1 27/13/1 28/11/1
f 29/9/1 30/10/1 31/11/1 32/5/1
f 33/10/1 34/12/1 35/13/1 36/11/1
f 37/9/1 38/10/1 39/11/1 40/5/1
f 41/9/1 42/10/1 43/11/1 44/5/1
f 45/10/1 46/12/1 47/13/1 48/11/1
f 49/12/1 50/14/1 51/15/1 52/13/1
f 53/14/1 54/16/1 55/17/1 56/15/1
f 57/13/1 58/15/1 59/18/1 60/19/1
f 61/7/1 62/8/1 63/2/1 64/1/1
f 65/8/1 66/9/1 67/5/1 68/2/1
f 69/20/1 70/21/1 71/8/1 72/7/1
f 73/21/1 74/22/1 75/9/1 76/8/1
f 77/22/1 78/23/1 79/10/1 80/9/1
f 81/24/1 82/25/1 83/26/1 84/27/1
f 85/28/1 86/24/1 87/27/1 88/29/1
f 89/24/1 90/25/1 91/26/1 92/27/1
f 93/28/1 94/24/1 95/27/1 96/29/1
f 97/24/1 98/25/1 99/26/1 100/27/1
f 101/28/1 102/24/1 103/27/1 104/29/1
f 105/23/1 106/30/1 107/12/1 108/10/1
f 109/30/1 110/31/1 111/14/1 112/12/1
f 113/31/1 114/32/1 115/16/1 116/14/1
f 117/12/1 118/14/1 119/15/1 120/13/1
f 121/33/1 122/34/1 123/21/1 124/20/1
f 125/34/1 126/35/1 127/22/1 128/21/1
f 129/20/1 130/21/1 131/8/1 132/7/1
f 133/21/1 134/22/1 135/9/1 136/8/1
f 137/36/1 138/37/1 139/38/1 140/32/1
f 141/39/1 142/40/1 143/41/1 144/42/1
f 145/43/1 146/39/1 147/42/1 148/44/1
f 149/39/1 150/40/1 151/41/1 152/42/1
f 153/43/1 154/39/1 155/42/1 156/44/1
f 157/39/1 158/40/1 159/41/1 160/42/1
f 161/43/1 162/39/1 163/42/1 164/44/1
f 165/45/1 166/46/1 167/47/1 168/48/1
f 169/30/1 170/31/1 171/14/1 172/12/1
f 173/31/1 174/32/1 175/16/1 176/14/1
f 177/30/1 178/31/1 179/14/1 180/12/1
f 181/20/1 182/21/1 183/8/1 184/7/1
f 185/21/1 186/22/1 187/9/1 188/8/1
f 189/33/1 190/34/1 191/21/1 192/20/1
f 193/34/1 194/35/1 195/22/1 196/21/1
f 197/36/1 198/37/1 199/38/1 200/32/1
f 201/42/1 202/41/1 203/25/1 204/24/1
f 205/44/1 206/42/1 207/24/1 208/28/1
f 209/42/1 210/41/1 211/25/1 212/24/1
f 213/44/1 214/42/1 215/24/1 216/28/1
f 217/42/1 218/41/1 219/25/1 220/24/1
f 221/44/1 222/42/1 223/24/1 224/28/1
f 225/45/1 226/46/1 227/47/1 228/48/1
f 229/30/1 230/31/1 231/14/1 232/12/1
f 233/31/1 234/32/1 235/16/1 236/14/1
f 237/30/1 238/31/1 239/14/1 240/12/1
f 241/33/1 242/34/1 243/21/1 244/20/1
f 245/34/1 246/35/1 247/22/1 248/21/1
f 249/20/1 250/21/1 251/8/1 252/7/1
f 253/21/1 254/22/1 255/9/1 256/8/1
f 257/36/1 258/37/1 259/38/1 260/32/1
f 261/39/1 262/40/1 263/41/1 264/42/1
f 265/43/1 266/39/1 267/42/1 268/44/1
f 269/39/1 270/40/1 271/41/1 272/42/1
f 273/43/1 274/39/1 275/42/1 276/44/1
f 277/39/1 278/40/1 279/41/1 280/42/1
f 281/43/1 282/39/1 283/42/1 284/44/1
f 285/49/1 286/50/1 287/46/1 288/45/1
f 289/30/1 290/31/1 291/14/1 292/12/1
f 293/31/1 294/32/1 295/16/1 296/14/1
f 297/51/1 298/52/1 299/31/1 300/30/1
f 301/20/1 302/21/1 303/8/1 304/7/1
f 305/21/1 306/22/1 307/9/1 308/8/1
f 309/33/1 310/34/1 311/21/1 312/20/1
f 313/34/1 314/35/1 315/22/1 316/21/1
f 317/35/1 318/53/1 319/23/1 320/22/1
f 321/54/1 322/55/1 323/39/1 324/43/1
f 325/55/1 326/56/1 327/40/1 328/39/1
f 329/54/1 330/55/1 331/39/1 332/43/1
f 333/54/1 334/55/1 335/39/1 336/43/1
f 337/54/1 338/55/1 339/39/1 340/43/1
f 341/55/1 342/56/1 343/40/1 344/39/1
f 345/53/1 346/51/1 347/30/1 348/23/1
f 349/51/1 350/52/1 351/31/1 352/30/1
f 353/52/1 354/36/1 355/32/1 356/31/1
f 357/30/1 358/31/1 359/14/1 360/12/1
f 361/33/1 362/34/1 363/21/1 364/20/1
f 365/34/1 366/35/1 367/22/1 368/21/1
f 369/57/1 370/58/1 371/34/1 372/33/1
f 373/58/1 374/59/1 375/35/1 376/34/1
f 377/59/1 378/60/1 379/53/1 380/35/1
f 381/60/1 382/61/1 383/51/1 384/53/1
f 385/59/1 386/60/1 387/53/1 388/35/1
f 389/60/1 390/61/1 391/51/1 392/53/1
f 393/59/1 394/60/1 395/53/1 396/35/1
f 397/60/1 398/61/1 399/51/1 400/53/1
f 401/59/1 402/60/1 403/53/1 404/35/1
f 405/60/1 406/61/1 407/51/1 408/53/1
f 409/61/1 410/62/1 411/52/1 412/51/1
f 413/62/1 414/63/1 415/36/1 416/52/1
f 417/51/1 418/52/1 419/31/1 420/30/1
f 421/33/1 422/34/1 423/21/1 424/20/1
f 425/34/1 426/35/1 427/22/1 428/21/1
f 429/64/1 430/65/1 431/58/1 432/57/1
f 433/65/1 434/66/1 435/59/1 436/58/1
f 437/66/1 438/67/1 439/60/1 440/59/1
f 441/67/1 442/68/1 443/61/1 444/60/1
f 445/66/1 446/67/1 447/60/1 448/59/1
f 449/67/1 450/68/1 451/61/1 452/60/1
f 453/66/1 454/67/1 455/60/1 456/59/1
f 457/67/1 458/68/1 459/61/1 460/60/1
f 461/68/1 462/69/1 463/62/1 464/61/1
f 465/69/1 466/70/1 467/63/1 468/62/1
f 469/51/1 470/52/1 471/31/1 472/30/1
f 473/71/1 474/72/1 475/73/1 476/74/1
f 477/72/1 478/75/1 479/76/1 480/73/1
f 481/59/1 482/60/1 483/53/1 484/35/1
f 485/60/1 486/61/1 487/51/1 488/53/1
f 489/59/1 490/60/1 491/53/1 492/35/1
f 493/59/1 494/60/1 495/53/1 496/35/1
f 497/60/1 498/61/1 499/51/1 500/53/1
f 501/59/1 502/60/1 503/53/1 504/35/1
f 505/60/1 506/61/1 507/51/1 508/53/1
f 509/59/1 510/60/1 511/53/1 512/35/1
f 513/59/1 514/60/1 515/53/1 516/35/1
f 517/60/1 518/61/1 519/51/1 520/53/1
f 521/77/1 522/78/1 523/79/1 524/80/1
f 525/66/1 526/65/1 527/72/1 528/71/1
f 529/65/1 530/64/1 531/75/1 532/72/1
f 533/66/1 534/67/1 535/60/1 536/59/1
f 537/67/1 538/68/1 539/61/1 540/60/1
f 541/66/1 542/67/1 543/60/1 544/59/1
f 545/66/1 546/67/1 547/60/1 548/59/1
f 549/67/1 550/68/1 551/61/1 552/60/1
f 553/66/1 554/67/1 555/60/1 556/59/1
f 557/67/1 558/68/1 559/61/1 560/60/1
f 561/66/1 562/67/1 563/60/1 564/59/1
f 565/66/1 566/67/1 567/60/1 568/59/1
f 569/67/1 570/68/1 571/61/1 572/60/1
f 573/70/1 574/69/1 575/78/1 576/77/1

