# Tiled2Unity generated file. Do not modify by hand.
# Wavefront file for 'NewBadManor_mesh_0435.obj'

# Vertices (Count = 16)
v -4.48 -0.32 -0.005780347
v -4.8 -0.32 -0.005780347
v -4.8 0 -0.005780347
v -4.48 0 -0.005780347
v -4.8 -0.32 -0.005780347
v -5.12 -0.32 -0.005780347
v -5.12 0 -0.005780347
v -4.8 0 -0.005780347
v -4.48 -0.64 -0.01156069
v -4.8 -0.64 -0.01156069
v -4.8 -0.32 -0.01156069
v -4.48 -0.32 -0.01156069
v -4.8 -0.64 -0.01156069
v -5.12 -0.64 -0.01156069
v -5.12 -0.32 -0.01156069
v -4.8 -0.32 -0.01156069

# Texture cooridinates (Count = 9)
vt 0.75 0.5
vt 0.7916667 0.5
vt 0.7916667 0.5555556
vt 0.75 0.5555556
vt 0.8333333 0.5
vt 0.8333333 0.5555556
vt 0.75 0.4444444
vt 0.7916667 0.4444444
vt 0.8333333 0.4444444

# Normal
vn 0 0 -1

# Mesh description
g NewBadManor_mesh_0435

# Faces
f 1/1/1 2/2/1 3/3/1 4/4/1
f 5/2/1 6/5/1 7/6/1 8/3/1
f 9/7/1 10/8/1 11/2/1 12/1/1
f 13/8/1 14/9/1 15/5/1 16/2/1

