# Tiled2Unity generated file. Do not modify by hand.
# Wavefront file for 'NewBadManor_mesh_0076.obj'

# Vertices (Count = 112)
v -3.2 -2.24 -0.04046243
v -3.52 -2.24 -0.04046243
v -3.52 -1.92 -0.04046243
v -3.2 -1.92 -0.04046243
v -3.52 -2.24 -0.04046243
v -3.84 -2.24 -0.04046243
v -3.84 -1.92 -0.04046243
v -3.52 -1.92 -0.04046243
v -3.84 -2.24 -0.04046243
v -4.16 -2.24 -0.04046243
v -4.16 -1.92 -0.04046243
v -3.84 -1.92 -0.04046243
v -4.16 -2.24 -0.04046243
v -4.48 -2.24 -0.04046243
v -4.48 -1.92 -0.04046243
v -4.16 -1.92 -0.04046243
v -4.48 -2.24 -0.04046243
v -4.8 -2.24 -0.04046243
v -4.8 -1.92 -0.04046243
v -4.48 -1.92 -0.04046243
v -3.2 -2.56 -0.04624277
v -3.52 -2.56 -0.04624277
v -3.52 -2.24 -0.04624277
v -3.2 -2.24 -0.04624277
v -3.52 -2.56 -0.04624277
v -3.84 -2.56 -0.04624277
v -3.84 -2.24 -0.04624277
v -3.52 -2.24 -0.04624277
v -3.84 -2.56 -0.04624277
v -4.16 -2.56 -0.04624277
v -4.16 -2.24 -0.04624277
v -3.84 -2.24 -0.04624277
v -4.16 -2.56 -0.04624277
v -4.48 -2.56 -0.04624277
v -4.48 -2.24 -0.04624277
v -4.16 -2.24 -0.04624277
v -4.48 -2.56 -0.04624277
v -4.8 -2.56 -0.04624277
v -4.8 -2.24 -0.04624277
v -4.48 -2.24 -0.04624277
v -3.2 -3.52 -0.06358381
v -3.52 -3.52 -0.06358381
v -3.52 -3.2 -0.06358381
v -3.2 -3.2 -0.06358381
v -3.52 -3.52 -0.06358381
v -3.84 -3.52 -0.06358381
v -3.84 -3.2 -0.06358381
v -3.52 -3.2 -0.06358381
v -3.84 -3.52 -0.06358381
v -4.16 -3.52 -0.06358381
v -4.16 -3.2 -0.06358381
v -3.84 -3.2 -0.06358381
v -4.16 -3.52 -0.06358381
v -4.48 -3.52 -0.06358381
v -4.48 -3.2 -0.06358381
v -4.16 -3.2 -0.06358381
v -4.48 -3.52 -0.06358381
v -4.8 -3.52 -0.06358381
v -4.8 -3.2 -0.06358381
v -4.48 -3.2 -0.06358381
v -3.2 -3.84 -0.06936416
v -3.52 -3.84 -0.06936416
v -3.52 -3.52 -0.06936416
v -3.2 -3.52 -0.06936416
v -3.52 -3.84 -0.06936416
v -3.84 -3.84 -0.06936416
v -3.84 -3.52 -0.06936416
v -3.52 -3.52 -0.06936416
v -3.84 -3.84 -0.06936416
v -4.16 -3.84 -0.06936416
v -4.16 -3.52 -0.06936416
v -3.84 -3.52 -0.06936416
v -4.16 -3.84 -0.06936416
v -4.48 -3.84 -0.06936416
v -4.48 -3.52 -0.06936416
v -4.16 -3.52 -0.06936416
v -4.48 -3.84 -0.06936416
v -4.8 -3.84 -0.06936416
v -4.8 -3.52 -0.06936416
v -4.48 -3.52 -0.06936416
v -4.16 -4.16 -0.07514451
v -4.48 -4.16 -0.07514451
v -4.48 -3.84 -0.07514451
v -4.16 -3.84 -0.07514451
v -4.48 -4.16 -0.07514451
v -4.8 -4.16 -0.07514451
v -4.8 -3.84 -0.07514451
v -4.48 -3.84 -0.07514451
v -4.16 -4.48 -0.08092485
v -4.48 -4.48 -0.08092485
v -4.48 -4.16 -0.08092485
v -4.16 -4.16 -0.08092485
v -4.48 -4.48 -0.08092485
v -4.8 -4.48 -0.08092485
v -4.8 -4.16 -0.08092485
v -4.48 -4.16 -0.08092485
v -4.16 -4.8 -0.0867052
v -4.48 -4.8 -0.0867052
v -4.48 -4.48 -0.0867052
v -4.16 -4.48 -0.0867052
v -4.48 -4.8 -0.0867052
v -4.8 -4.8 -0.0867052
v -4.8 -4.48 -0.0867052
v -4.48 -4.48 -0.0867052
v -4.16 -5.12 -0.09248555
v -4.48 -5.12 -0.09248555
v -4.48 -4.8 -0.09248555
v -4.16 -4.8 -0.09248555
v -4.48 -5.12 -0.09248555
v -4.8 -5.12 -0.09248555
v -4.8 -4.8 -0.09248555
v -4.48 -4.8 -0.09248555

# Texture cooridinates (Count = 9)
vt 0.1666667 0.7666667
vt 0.2083333 0.7666667
vt 0.2083333 0.8
vt 0.1666667 0.8
vt 0.25 0.7666667
vt 0.25 0.8
vt 0.1666667 0.7333333
vt 0.2083333 0.7333333
vt 0.25 0.7333333

# Normal
vn 0 0 -1

# Mesh description
g NewBadManor_mesh_0076

# Faces
f 1/1/1 2/2/1 3/3/1 4/4/1
f 5/2/1 6/5/1 7/6/1 8/3/1
f 9/2/1 10/5/1 11/6/1 12/3/1
f 13/2/1 14/5/1 15/6/1 16/3/1
f 17/2/1 18/5/1 19/6/1 20/3/1
f 21/7/1 22/8/1 23/2/1 24/1/1
f 25/8/1 26/9/1 27/5/1 28/2/1
f 29/8/1 30/9/1 31/5/1 32/2/1
f 33/8/1 34/9/1 35/5/1 36/2/1
f 37/8/1 38/9/1 39/5/1 40/2/1
f 41/1/1 42/2/1 43/3/1 44/4/1
f 45/1/1 46/2/1 47/3/1 48/4/1
f 49/1/1 50/2/1 51/3/1 52/4/1
f 53/2/1 54/5/1 55/6/1 56/3/1
f 57/8/1 58/9/1 59/5/1 60/2/1
f 61/7/1 62/8/1 63/2/1 64/1/1
f 65/7/1 66/8/1 67/2/1 68/1/1
f 69/7/1 70/8/1 71/2/1 72/1/1
f 73/8/1 74/9/1 75/5/1 76/2/1
f 77/2/1 78/5/1 79/6/1 80/3/1
f 81/1/1 82/2/1 83/3/1 84/4/1
f 85/2/1 86/5/1 87/6/1 88/3/1
f 89/1/1 90/2/1 91/3/1 92/4/1
f 93/2/1 94/5/1 95/6/1 96/3/1
f 97/1/1 98/2/1 99/3/1 100/4/1
f 101/2/1 102/5/1 103/6/1 104/3/1
f 105/1/1 106/2/1 107/3/1 108/4/1
f 109/2/1 110/5/1 111/6/1 112/3/1

