# Tiled2Unity generated file. Do not modify by hand.
# Wavefront file for 'NewBadManor_mesh_0084.obj'

# Vertices (Count = 616)
v -12.16 -3.2 0
v -12.8 -3.2 0
v -12.8 -2.56 0
v -12.16 -2.56 0
v -12.8 -3.2 0
v -13.44 -3.2 0
v -13.44 -2.56 0
v -12.8 -2.56 0
v -13.44 -3.2 0
v -14.08 -3.2 0
v -14.08 -2.56 0
v -13.44 -2.56 0
v -14.08 -3.2 0
v -14.72 -3.2 0
v -14.72 -2.56 0
v -14.08 -2.56 0
v -14.72 -3.2 0
v -15.36 -3.2 0
v -15.36 -2.56 0
v -14.72 -2.56 0
v -15.36 -3.2 0
v -16 -3.2 0
v -16 -2.56 0
v -15.36 -2.56 0
v -16 -3.2 0
v -16.64 -3.2 0
v -16.64 -2.56 0
v -16 -2.56 0
v -16.64 -3.2 0
v -17.28 -3.2 0
v -17.28 -2.56 0
v -16.64 -2.56 0
v -17.28 -3.2 0
v -17.92 -3.2 0
v -17.92 -2.56 0
v -17.28 -2.56 0
v -17.92 -3.2 0
v -18.56 -3.2 0
v -18.56 -2.56 0
v -17.92 -2.56 0
v -18.56 -3.2 0
v -19.2 -3.2 0
v -19.2 -2.56 0
v -18.56 -2.56 0
v -19.2 -3.2 0
v -19.84 -3.2 0
v -19.84 -2.56 0
v -19.2 -2.56 0
v -19.84 -3.2 0
v -20.48 -3.2 0
v -20.48 -2.56 0
v -19.84 -2.56 0
v -22.4 -3.2 0
v -23.04 -3.2 0
v -23.04 -2.56 0
v -22.4 -2.56 0
v -23.04 -3.2 0
v -23.68 -3.2 0
v -23.68 -2.56 0
v -23.04 -2.56 0
v -23.68 -3.2 0
v -24.32 -3.2 0
v -24.32 -2.56 0
v -23.68 -2.56 0
v -24.32 -3.2 0
v -24.96 -3.2 0
v -24.96 -2.56 0
v -24.32 -2.56 0
v -24.96 -3.2 0
v -25.6 -3.2 0
v -25.6 -2.56 0
v -24.96 -2.56 0
v -25.6 -3.2 0
v -26.24 -3.2 0
v -26.24 -2.56 0
v -25.6 -2.56 0
v -26.24 -3.2 0
v -26.88 -3.2 0
v -26.88 -2.56 0
v -26.24 -2.56 0
v -26.88 -3.2 0
v -27.52 -3.2 0
v -27.52 -2.56 0
v -26.88 -2.56 0
v -27.52 -3.2 0
v -28.16 -3.2 0
v -28.16 -2.56 0
v -27.52 -2.56 0
v -28.16 -3.2 0
v -28.8 -3.2 0
v -28.8 -2.56 0
v -28.16 -2.56 0
v -28.8 -3.2 0
v -29.44 -3.2 0
v -29.44 -2.56 0
v -28.8 -2.56 0
v -29.44 -3.2 0
v -30.08 -3.2 0
v -30.08 -2.56 0
v -29.44 -2.56 0
v -30.08 -3.2 0
v -30.72 -3.2 0
v -30.72 -2.56 0
v -30.08 -2.56 0
v -32.64 -3.2 0
v -33.28 -3.2 0
v -33.28 -2.56 0
v -32.64 -2.56 0
v -33.28 -3.2 0
v -33.92 -3.2 0
v -33.92 -2.56 0
v -33.28 -2.56 0
v -33.92 -3.2 0
v -34.56 -3.2 0
v -34.56 -2.56 0
v -33.92 -2.56 0
v -34.56 -3.2 0
v -35.2 -3.2 0
v -35.2 -2.56 0
v -34.56 -2.56 0
v -35.2 -3.2 0
v -35.84 -3.2 0
v -35.84 -2.56 0
v -35.2 -2.56 0
v -35.84 -3.2 0
v -36.48 -3.2 0
v -36.48 -2.56 0
v -35.84 -2.56 0
v -36.48 -3.2 0
v -37.12 -3.2 0
v -37.12 -2.56 0
v -36.48 -2.56 0
v -37.12 -3.2 0
v -37.76 -3.2 0
v -37.76 -2.56 0
v -37.12 -2.56 0
v -37.76 -3.2 0
v -38.4 -3.2 0
v -38.4 -2.56 0
v -37.76 -2.56 0
v -38.4 -3.2 0
v -39.04 -3.2 0
v -39.04 -2.56 0
v -38.4 -2.56 0
v -39.04 -3.2 0
v -39.68 -3.2 0
v -39.68 -2.56 0
v -39.04 -2.56 0
v -39.68 -3.2 0
v -40.32 -3.2 0
v -40.32 -2.56 0
v -39.68 -2.56 0
v -40.32 -3.2 0
v -40.96 -3.2 0
v -40.96 -2.56 0
v -40.32 -2.56 0
v -42.88 -3.2 0
v -43.52 -3.2 0
v -43.52 -2.56 0
v -42.88 -2.56 0
v -43.52 -3.2 0
v -44.16 -3.2 0
v -44.16 -2.56 0
v -43.52 -2.56 0
v -44.16 -3.2 0
v -44.8 -3.2 0
v -44.8 -2.56 0
v -44.16 -2.56 0
v -44.8 -3.2 0
v -45.44 -3.2 0
v -45.44 -2.56 0
v -44.8 -2.56 0
v -45.44 -3.2 0
v -46.08 -3.2 0
v -46.08 -2.56 0
v -45.44 -2.56 0
v -46.08 -3.2 0
v -46.72 -3.2 0
v -46.72 -2.56 0
v -46.08 -2.56 0
v -46.72 -3.2 0
v -47.36 -3.2 0
v -47.36 -2.56 0
v -46.72 -2.56 0
v -47.36 -3.2 0
v -48 -3.2 0
v -48 -2.56 0
v -47.36 -2.56 0
v -48 -3.2 0
v -48.64 -3.2 0
v -48.64 -2.56 0
v -48 -2.56 0
v -48.64 -3.2 0
v -49.28 -3.2 0
v -49.28 -2.56 0
v -48.64 -2.56 0
v -49.28 -3.2 0
v -49.92 -3.2 0
v -49.92 -2.56 0
v -49.28 -2.56 0
v -49.92 -3.2 0
v -50.56 -3.2 0
v -50.56 -2.56 0
v -49.92 -2.56 0
v -50.56 -3.2 0
v -51.2 -3.2 0
v -51.2 -2.56 0
v -50.56 -2.56 0
v -53.12 -3.2 0
v -53.76 -3.2 0
v -53.76 -2.56 0
v -53.12 -2.56 0
v -53.76 -3.2 0
v -54.4 -3.2 0
v -54.4 -2.56 0
v -53.76 -2.56 0
v -54.4 -3.2 0
v -55.04 -3.2 0
v -55.04 -2.56 0
v -54.4 -2.56 0
v -55.04 -3.2 0
v -55.68 -3.2 0
v -55.68 -2.56 0
v -55.04 -2.56 0
v -55.68 -3.2 0
v -56.32 -3.2 0
v -56.32 -2.56 0
v -55.68 -2.56 0
v -56.32 -3.2 0
v -56.96 -3.2 0
v -56.96 -2.56 0
v -56.32 -2.56 0
v -56.96 -3.2 0
v -57.6 -3.2 0
v -57.6 -2.56 0
v -56.96 -2.56 0
v -57.6 -3.2 0
v -58.24 -3.2 0
v -58.24 -2.56 0
v -57.6 -2.56 0
v -58.24 -3.2 0
v -58.88 -3.2 0
v -58.88 -2.56 0
v -58.24 -2.56 0
v -58.88 -3.2 0
v -59.52 -3.2 0
v -59.52 -2.56 0
v -58.88 -2.56 0
v -59.52 -3.2 0
v -60.16 -3.2 0
v -60.16 -2.56 0
v -59.52 -2.56 0
v -60.16 -3.2 0
v -60.8 -3.2 0
v -60.8 -2.56 0
v -60.16 -2.56 0
v -60.8 -3.2 0
v -61.44 -3.2 0
v -61.44 -2.56 0
v -60.8 -2.56 0
v -63.36 -3.2 0
v -64 -3.2 0
v -64 -2.56 0
v -63.36 -2.56 0
v 0 -3.84 0
v -0.64 -3.84 0
v -0.64 -3.2 0
v 0 -3.2 0
v -0.64 -3.84 0
v -1.28 -3.84 0
v -1.28 -3.2 0
v -0.64 -3.2 0
v -1.28 -3.84 0
v -1.92 -3.84 0
v -1.92 -3.2 0
v -1.28 -3.2 0
v -1.92 -3.84 0
v -2.56 -3.84 0
v -2.56 -3.2 0
v -1.92 -3.2 0
v -2.56 -3.84 0
v -3.2 -3.84 0
v -3.2 -3.2 0
v -2.56 -3.2 0
v -3.2 -3.84 0
v -3.84 -3.84 0
v -3.84 -3.2 0
v -3.2 -3.2 0
v -3.84 -3.84 0
v -4.48 -3.84 0
v -4.48 -3.2 0
v -3.84 -3.2 0
v -4.48 -3.84 0
v -5.12 -3.84 0
v -5.12 -3.2 0
v -4.48 -3.2 0
v -5.12 -3.84 0
v -5.76 -3.84 0
v -5.76 -3.2 0
v -5.12 -3.2 0
v -5.76 -3.84 0
v -6.4 -3.84 0
v -6.4 -3.2 0
v -5.76 -3.2 0
v -6.4 -3.84 0
v -7.04 -3.84 0
v -7.04 -3.2 0
v -6.4 -3.2 0
v -7.04 -3.84 0
v -7.68 -3.84 0
v -7.68 -3.2 0
v -7.04 -3.2 0
v -46.08 -4.48 0
v -46.72 -4.48 0
v -46.72 -3.84 0
v -46.08 -3.84 0
v -46.72 -4.48 0
v -47.36 -4.48 0
v -47.36 -3.84 0
v -46.72 -3.84 0
v -47.36 -4.48 0
v -48 -4.48 0
v -48 -3.84 0
v -47.36 -3.84 0
v -56.32 -4.48 0
v -56.96 -4.48 0
v -56.96 -3.84 0
v -56.32 -3.84 0
v -56.96 -4.48 0
v -57.6 -4.48 0
v -57.6 -3.84 0
v -56.96 -3.84 0
v -57.6 -4.48 0
v -58.24 -4.48 0
v -58.24 -3.84 0
v -57.6 -3.84 0
v -2.56 -5.12 0
v -3.2 -5.12 0
v -3.2 -4.48 0
v -2.56 -4.48 0
v -3.2 -5.12 0
v -3.84 -5.12 0
v -3.84 -4.48 0
v -3.2 -4.48 0
v -3.84 -5.12 0
v -4.48 -5.12 0
v -4.48 -4.48 0
v -3.84 -4.48 0
v -12.8 -5.12 0
v -13.44 -5.12 0
v -13.44 -4.48 0
v -12.8 -4.48 0
v -13.44 -5.12 0
v -14.08 -5.12 0
v -14.08 -4.48 0
v -13.44 -4.48 0
v -14.08 -5.12 0
v -14.72 -5.12 0
v -14.72 -4.48 0
v -14.08 -4.48 0
v -23.04 -5.12 0
v -23.68 -5.12 0
v -23.68 -4.48 0
v -23.04 -4.48 0
v -23.68 -5.12 0
v -24.32 -5.12 0
v -24.32 -4.48 0
v -23.68 -4.48 0
v -24.32 -5.12 0
v -24.96 -5.12 0
v -24.96 -4.48 0
v -24.32 -4.48 0
v -33.28 -5.12 0
v -33.92 -5.12 0
v -33.92 -4.48 0
v -33.28 -4.48 0
v -33.92 -5.12 0
v -34.56 -5.12 0
v -34.56 -4.48 0
v -33.92 -4.48 0
v -34.56 -5.12 0
v -35.2 -5.12 0
v -35.2 -4.48 0
v -34.56 -4.48 0
v -17.28 -7.04 0
v -17.92 -7.04 0
v -17.92 -6.4 0
v -17.28 -6.4 0
v -17.92 -7.04 0
v -18.56 -7.04 0
v -18.56 -6.4 0
v -17.92 -6.4 0
v -18.56 -7.04 0
v -19.2 -7.04 0
v -19.2 -6.4 0
v -18.56 -6.4 0
v -19.2 -7.04 0
v -19.84 -7.04 0
v -19.84 -6.4 0
v -19.2 -6.4 0
v -19.84 -7.04 0
v -20.48 -7.04 0
v -20.48 -6.4 0
v -19.84 -6.4 0
v -20.48 -7.04 0
v -21.12 -7.04 0
v -21.12 -6.4 0
v -20.48 -6.4 0
v -21.12 -7.04 0
v -21.76 -7.04 0
v -21.76 -6.4 0
v -21.12 -6.4 0
v -21.76 -7.04 0
v -22.4 -7.04 0
v -22.4 -6.4 0
v -21.76 -6.4 0
v -22.4 -7.04 0
v -23.04 -7.04 0
v -23.04 -6.4 0
v -22.4 -6.4 0
v -23.04 -7.04 0
v -23.68 -7.04 0
v -23.68 -6.4 0
v -23.04 -6.4 0
v -23.68 -7.04 0
v -24.32 -7.04 0
v -24.32 -6.4 0
v -23.68 -6.4 0
v -24.32 -7.04 0
v -24.96 -7.04 0
v -24.96 -6.4 0
v -24.32 -6.4 0
v -24.96 -7.04 0
v -25.6 -7.04 0
v -25.6 -6.4 0
v -24.96 -6.4 0
v -27.52 -7.04 0
v -28.16 -7.04 0
v -28.16 -6.4 0
v -27.52 -6.4 0
v -28.16 -7.04 0
v -28.8 -7.04 0
v -28.8 -6.4 0
v -28.16 -6.4 0
v -28.8 -7.04 0
v -29.44 -7.04 0
v -29.44 -6.4 0
v -28.8 -6.4 0
v -29.44 -7.04 0
v -30.08 -7.04 0
v -30.08 -6.4 0
v -29.44 -6.4 0
v -30.08 -7.04 0
v -30.72 -7.04 0
v -30.72 -6.4 0
v -30.08 -6.4 0
v -30.72 -7.04 0
v -31.36 -7.04 0
v -31.36 -6.4 0
v -30.72 -6.4 0
v -31.36 -7.04 0
v -32 -7.04 0
v -32 -6.4 0
v -31.36 -6.4 0
v -33.28 -7.04 0
v -33.92 -7.04 0
v -33.92 -6.4 0
v -33.28 -6.4 0
v -33.92 -7.04 0
v -34.56 -7.04 0
v -34.56 -6.4 0
v -33.92 -6.4 0
v -34.56 -7.04 0
v -35.2 -7.04 0
v -35.2 -6.4 0
v -34.56 -6.4 0
v -35.2 -7.04 0
v -35.84 -7.04 0
v -35.84 -6.4 0
v -35.2 -6.4 0
v -37.76 -7.04 0
v -38.4 -7.04 0
v -38.4 -6.4 0
v -37.76 -6.4 0
v -38.4 -7.04 0
v -39.04 -7.04 0
v -39.04 -6.4 0
v -38.4 -6.4 0
v -39.04 -7.04 0
v -39.68 -7.04 0
v -39.68 -6.4 0
v -39.04 -6.4 0
v -39.68 -7.04 0
v -40.32 -7.04 0
v -40.32 -6.4 0
v -39.68 -6.4 0
v -40.32 -7.04 0
v -40.96 -7.04 0
v -40.96 -6.4 0
v -40.32 -6.4 0
v -40.96 -7.04 0
v -41.6 -7.04 0
v -41.6 -6.4 0
v -40.96 -6.4 0
v -41.6 -7.04 0
v -42.24 -7.04 0
v -42.24 -6.4 0
v -41.6 -6.4 0
v -43.52 -7.04 0
v -44.16 -7.04 0
v -44.16 -6.4 0
v -43.52 -6.4 0
v -44.16 -7.04 0
v -44.8 -7.04 0
v -44.8 -6.4 0
v -44.16 -6.4 0
v -44.8 -7.04 0
v -45.44 -7.04 0
v -45.44 -6.4 0
v -44.8 -6.4 0
v -45.44 -7.04 0
v -46.08 -7.04 0
v -46.08 -6.4 0
v -45.44 -6.4 0
v -48 -7.04 0
v -48.64 -7.04 0
v -48.64 -6.4 0
v -48 -6.4 0
v -48.64 -7.04 0
v -49.28 -7.04 0
v -49.28 -6.4 0
v -48.64 -6.4 0
v -49.28 -7.04 0
v -49.92 -7.04 0
v -49.92 -6.4 0
v -49.28 -6.4 0
v -49.92 -7.04 0
v -50.56 -7.04 0
v -50.56 -6.4 0
v -49.92 -6.4 0
v -50.56 -7.04 0
v -51.2 -7.04 0
v -51.2 -6.4 0
v -50.56 -6.4 0
v -51.2 -7.04 0
v -51.84 -7.04 0
v -51.84 -6.4 0
v -51.2 -6.4 0
v -51.84 -7.04 0
v -52.48 -7.04 0
v -52.48 -6.4 0
v -51.84 -6.4 0
v -53.76 -7.04 0
v -54.4 -7.04 0
v -54.4 -6.4 0
v -53.76 -6.4 0
v -54.4 -7.04 0
v -55.04 -7.04 0
v -55.04 -6.4 0
v -54.4 -6.4 0
v -55.04 -7.04 0
v -55.68 -7.04 0
v -55.68 -6.4 0
v -55.04 -6.4 0
v -55.68 -7.04 0
v -56.32 -7.04 0
v -56.32 -6.4 0
v -55.68 -6.4 0
v -51.2 -8.32 0
v -51.84 -8.32 0
v -51.84 -7.68 0
v -51.2 -7.68 0
v -51.84 -8.32 0
v -52.48 -8.32 0
v -52.48 -7.68 0
v -51.84 -7.68 0
v -52.48 -8.32 0
v -53.12 -8.32 0
v -53.12 -7.68 0
v -52.48 -7.68 0
v -61.44 -8.32 0
v -62.08 -8.32 0
v -62.08 -7.68 0
v -61.44 -7.68 0
v -62.08 -8.32 0
v -62.72 -8.32 0
v -62.72 -7.68 0
v -62.08 -7.68 0
v -62.72 -8.32 0
v -63.36 -8.32 0
v -63.36 -7.68 0
v -62.72 -7.68 0
v -7.68 -8.96 0
v -8.32 -8.96 0
v -8.32 -8.32 0
v -7.68 -8.32 0
v -8.32 -8.96 0
v -8.96 -8.96 0
v -8.96 -8.32 0
v -8.32 -8.32 0
v -8.96 -8.96 0
v -9.599999 -8.96 0
v -9.599999 -8.32 0
v -8.96 -8.32 0
v -17.92 -8.96 0
v -18.56 -8.96 0
v -18.56 -8.32 0
v -17.92 -8.32 0
v -18.56 -8.96 0
v -19.2 -8.96 0
v -19.2 -8.32 0
v -18.56 -8.32 0
v -19.2 -8.96 0
v -19.84 -8.96 0
v -19.84 -8.32 0
v -19.2 -8.32 0

# Texture cooridinates (Count = 83)
vt 0 0.5
vt 0.05555556 0.5
vt 0.05555556 0.5714285
vt 0 0.5714285
vt 0.1111111 0.5
vt 0.1111111 0.5714285
vt 0 0.4285714
vt 0.05555556 0.4285714
vt 0.1111111 0.4285714
vt 0.1666667 0.4285714
vt 0.1666667 0.5
vt 0.2222222 0.4285714
vt 0.2222222 0.5
vt 0.2777778 0.4285714
vt 0.2777778 0.5
vt 0 0.3571429
vt 0.05555556 0.3571429
vt 0.1111111 0.3571429
vt 0.1666667 0.3571429
vt 0.5 0.3571429
vt 0.5555556 0.3571429
vt 0.5555556 0.4285714
vt 0.5 0.4285714
vt 0.4444444 0.3571429
vt 0.4444444 0.4285714
vt 0.2222222 0.3571429
vt 0.2777778 0.3571429
vt 0 0.2857143
vt 0.05555556 0.2857143
vt 0.1111111 0.2857143
vt 0.3333333 0.2857143
vt 0.3888889 0.2857143
vt 0.3888889 0.3571429
vt 0.3333333 0.3571429
vt 0.5 0.2142857
vt 0.5555556 0.2142857
vt 0.5555556 0.2857143
vt 0.5 0.2857143
vt 0.4444444 0.2142857
vt 0.4444444 0.2857143
vt 0.6111111 0.2857143
vt 0.6666667 0.2857143
vt 0.6666667 0.3571429
vt 0.6111111 0.3571429
vt 0.6111111 0.2142857
vt 0.6666667 0.2142857
vt 0.1666667 0.2857143
vt 0.4444444 0.1428571
vt 0.5 0.1428571
vt 0.5555556 0.1428571
vt 0.2222222 0.2857143
vt 0.2777778 0.2857143
vt 0.3333333 0.4285714
vt 0.3333333 0.5
vt 0.2777778 0.5714285
vt 0.2222222 0.5714285
vt 0.3333333 0.5714285
vt 0 0.2142857
vt 0.05555556 0.2142857
vt 0.1111111 0.2142857
vt 0.1666667 0.2142857
vt 0.2222222 0.2142857
vt 0.2777778 0.2142857
vt 0 0.1428571
vt 0.05555556 0.1428571
vt 0.1111111 0.1428571
vt 0.1666667 0.1428571
vt 0.2222222 0.1428571
vt 0.2777778 0.1428571
vt 0.1111111 0.0714286
vt 0.05555556 0.0714286
vt 0.05555556 0
vt 0.1111111 0
vt 0 0.0714286
vt 0 0
vt 0.3333333 0.2142857
vt 0.3333333 0.1428571
vt 0.3333333 0.0714286
vt 0.2777778 0.0714286
vt 0.2777778 0
vt 0.3333333 0
vt 0.2222222 0.0714286
vt 0.2222222 0

# Normal
vn 0 0 -1

# Mesh description
g NewBadManor_mesh_0084

# Faces
f 1/1/1 2/2/1 3/3/1 4/4/1
f 5/2/1 6/5/1 7/6/1 8/3/1
f 9/7/1 10/8/1 11/2/1 12/1/1
f 13/8/1 14/9/1 15/5/1 16/2/1
f 17/9/1 18/10/1 19/11/1 20/5/1
f 21/10/1 22/12/1 23/13/1 24/11/1
f 25/10/1 26/12/1 27/13/1 28/11/1
f 29/9/1 30/10/1 31/11/1 32/5/1
f 33/10/1 34/12/1 35/13/1 36/11/1
f 37/9/1 38/10/1 39/11/1 40/5/1
f 41/9/1 42/10/1 43/11/1 44/5/1
f 45/10/1 46/12/1 47/13/1 48/11/1
f 49/12/1 50/14/1 51/15/1 52/13/1
f 53/7/1 54/8/1 55/2/1 56/1/1
f 57/8/1 58/9/1 59/5/1 60/2/1
f 61/16/1 62/17/1 63/8/1 64/7/1
f 65/17/1 66/18/1 67/9/1 68/8/1
f 69/18/1 70/19/1 71/10/1 72/9/1
f 73/20/1 74/21/1 75/22/1 76/23/1
f 77/24/1 78/20/1 79/23/1 80/25/1
f 81/20/1 82/21/1 83/22/1 84/23/1
f 85/24/1 86/20/1 87/23/1 88/25/1
f 89/20/1 90/21/1 91/22/1 92/23/1
f 93/24/1 94/20/1 95/23/1 96/25/1
f 97/19/1 98/26/1 99/12/1 100/10/1
f 101/26/1 102/27/1 103/14/1 104/12/1
f 105/28/1 106/29/1 107/17/1 108/16/1
f 109/29/1 110/30/1 111/18/1 112/17/1
f 113/16/1 114/17/1 115/8/1 116/7/1
f 117/17/1 118/18/1 119/9/1 120/8/1
f 121/31/1 122/32/1 123/33/1 124/34/1
f 125/35/1 126/36/1 127/37/1 128/38/1
f 129/39/1 130/35/1 131/38/1 132/40/1
f 133/35/1 134/36/1 135/37/1 136/38/1
f 137/39/1 138/35/1 139/38/1 140/40/1
f 141/35/1 142/36/1 143/37/1 144/38/1
f 145/39/1 146/35/1 147/38/1 148/40/1
f 149/41/1 150/42/1 151/43/1 152/44/1
f 153/26/1 154/27/1 155/14/1 156/12/1
f 157/16/1 158/17/1 159/8/1 160/7/1
f 161/17/1 162/18/1 163/9/1 164/8/1
f 165/28/1 166/29/1 167/17/1 168/16/1
f 169/29/1 170/30/1 171/18/1 172/17/1
f 173/31/1 174/32/1 175/33/1 176/34/1
f 177/38/1 178/37/1 179/21/1 180/20/1
f 181/40/1 182/38/1 183/20/1 184/24/1
f 185/38/1 186/37/1 187/21/1 188/20/1
f 189/40/1 190/38/1 191/20/1 192/24/1
f 193/38/1 194/37/1 195/21/1 196/20/1
f 197/40/1 198/38/1 199/20/1 200/24/1
f 201/41/1 202/42/1 203/43/1 204/44/1
f 205/26/1 206/27/1 207/14/1 208/12/1
f 209/28/1 210/29/1 211/17/1 212/16/1
f 213/29/1 214/30/1 215/18/1 216/17/1
f 217/16/1 218/17/1 219/8/1 220/7/1
f 221/17/1 222/18/1 223/9/1 224/8/1
f 225/31/1 226/32/1 227/33/1 228/34/1
f 229/35/1 230/36/1 231/37/1 232/38/1
f 233/39/1 234/35/1 235/38/1 236/40/1
f 237/35/1 238/36/1 239/37/1 240/38/1
f 241/39/1 242/35/1 243/38/1 244/40/1
f 245/35/1 246/36/1 247/37/1 248/38/1
f 249/39/1 250/35/1 251/38/1 252/40/1
f 253/45/1 254/46/1 255/42/1 256/41/1
f 257/26/1 258/27/1 259/14/1 260/12/1
f 261/16/1 262/17/1 263/8/1 264/7/1
f 265/17/1 266/18/1 267/9/1 268/8/1
f 269/28/1 270/29/1 271/17/1 272/16/1
f 273/29/1 274/30/1 275/18/1 276/17/1
f 277/30/1 278/47/1 279/19/1 280/18/1
f 281/48/1 282/49/1 283/35/1 284/39/1
f 285/49/1 286/50/1 287/36/1 288/35/1
f 289/48/1 290/49/1 291/35/1 292/39/1
f 293/48/1 294/49/1 295/35/1 296/39/1
f 297/48/1 298/49/1 299/35/1 300/39/1
f 301/49/1 302/50/1 303/36/1 304/35/1
f 305/47/1 306/51/1 307/26/1 308/19/1
f 309/51/1 310/52/1 311/27/1 312/26/1
f 313/14/1 314/53/1 315/54/1 316/15/1
f 317/13/1 318/15/1 319/55/1 320/56/1
f 321/15/1 322/54/1 323/57/1 324/55/1
f 325/27/1 326/34/1 327/53/1 328/14/1
f 329/12/1 330/14/1 331/15/1 332/13/1
f 333/14/1 334/53/1 335/54/1 336/15/1
f 337/27/1 338/34/1 339/53/1 340/14/1
f 341/26/1 342/27/1 343/14/1 344/12/1
f 345/27/1 346/34/1 347/53/1 348/14/1
f 349/27/1 350/34/1 351/53/1 352/14/1
f 353/26/1 354/27/1 355/14/1 356/12/1
f 357/27/1 358/34/1 359/53/1 360/14/1
f 361/27/1 362/34/1 363/53/1 364/14/1
f 365/51/1 366/52/1 367/27/1 368/26/1
f 369/52/1 370/31/1 371/34/1 372/27/1
f 373/52/1 374/31/1 375/34/1 376/27/1
f 377/26/1 378/27/1 379/14/1 380/12/1
f 381/27/1 382/34/1 383/53/1 384/14/1
f 385/28/1 386/29/1 387/17/1 388/16/1
f 389/29/1 390/30/1 391/18/1 392/17/1
f 393/58/1 394/59/1 395/29/1 396/28/1
f 397/59/1 398/60/1 399/30/1 400/29/1
f 401/60/1 402/61/1 403/47/1 404/30/1
f 405/61/1 406/62/1 407/51/1 408/47/1
f 409/60/1 410/61/1 411/47/1 412/30/1
f 413/61/1 414/62/1 415/51/1 416/47/1
f 417/60/1 418/61/1 419/47/1 420/30/1
f 421/61/1 422/62/1 423/51/1 424/47/1
f 425/60/1 426/61/1 427/47/1 428/30/1
f 429/61/1 430/62/1 431/51/1 432/47/1
f 433/62/1 434/63/1 435/52/1 436/51/1
f 437/28/1 438/29/1 439/17/1 440/16/1
f 441/29/1 442/30/1 443/18/1 444/17/1
f 445/64/1 446/65/1 447/59/1 448/58/1
f 449/65/1 450/66/1 451/60/1 452/59/1
f 453/66/1 454/67/1 455/61/1 456/60/1
f 457/67/1 458/68/1 459/62/1 460/61/1
f 461/66/1 462/67/1 463/61/1 464/60/1
f 465/67/1 466/68/1 467/62/1 468/61/1
f 469/66/1 470/67/1 471/61/1 472/60/1
f 473/67/1 474/68/1 475/62/1 476/61/1
f 477/68/1 478/69/1 479/63/1 480/62/1
f 481/70/1 482/71/1 483/72/1 484/73/1
f 485/71/1 486/74/1 487/75/1 488/72/1
f 489/60/1 490/61/1 491/47/1 492/30/1
f 493/61/1 494/62/1 495/51/1 496/47/1
f 497/60/1 498/61/1 499/47/1 500/30/1
f 501/60/1 502/61/1 503/47/1 504/30/1
f 505/61/1 506/62/1 507/51/1 508/47/1
f 509/60/1 510/61/1 511/47/1 512/30/1
f 513/61/1 514/62/1 515/51/1 516/47/1
f 517/60/1 518/61/1 519/47/1 520/30/1
f 521/60/1 522/61/1 523/47/1 524/30/1
f 525/66/1 526/65/1 527/71/1 528/70/1
f 529/65/1 530/64/1 531/74/1 532/71/1
f 533/66/1 534/67/1 535/61/1 536/60/1
f 537/67/1 538/68/1 539/62/1 540/61/1
f 541/66/1 542/67/1 543/61/1 544/60/1
f 545/66/1 546/67/1 547/61/1 548/60/1
f 549/67/1 550/68/1 551/62/1 552/61/1
f 553/66/1 554/67/1 555/61/1 556/60/1
f 557/67/1 558/68/1 559/62/1 560/61/1
f 561/66/1 562/67/1 563/61/1 564/60/1
f 565/66/1 566/67/1 567/61/1 568/60/1
f 569/63/1 570/76/1 571/31/1 572/52/1
f 573/51/1 574/52/1 575/27/1 576/26/1
f 577/52/1 578/31/1 579/34/1 580/27/1
f 581/69/1 582/77/1 583/76/1 584/63/1
f 585/51/1 586/52/1 587/27/1 588/26/1
f 589/52/1 590/31/1 591/34/1 592/27/1
f 593/61/1 594/62/1 595/51/1 596/47/1
f 597/78/1 598/79/1 599/80/1 600/81/1
f 601/79/1 602/82/1 603/83/1 604/80/1
f 605/67/1 606/68/1 607/62/1 608/61/1
f 609/77/1 610/69/1 611/79/1 612/78/1
f 613/69/1 614/68/1 615/82/1 616/79/1

