# Tiled2Unity generated file. Do not modify by hand.
# Wavefront file for 'NewBadManor_mesh_0080.obj'

# Vertices (Count = 128)
v -37.76 -1.28 0
v -38.4 -1.28 0
v -38.4 -0.64 0
v -37.76 -0.64 0
v -35.2 -1.92 0
v -35.84 -1.92 0
v -35.84 -1.28 0
v -35.2 -1.28 0
v 0 -3.2 0
v -0.64 -3.2 0
v -0.64 -2.56 0
v 0 -2.56 0
v -0.64 -3.2 0
v -1.28 -3.2 0
v -1.28 -2.56 0
v -0.64 -2.56 0
v -1.28 -3.2 0
v -1.92 -3.2 0
v -1.92 -2.56 0
v -1.28 -2.56 0
v -1.92 -3.2 0
v -2.56 -3.2 0
v -2.56 -2.56 0
v -1.92 -2.56 0
v -2.56 -3.2 0
v -3.2 -3.2 0
v -3.2 -2.56 0
v -2.56 -2.56 0
v -3.2 -3.2 0
v -3.84 -3.2 0
v -3.84 -2.56 0
v -3.2 -2.56 0
v -3.84 -3.2 0
v -4.48 -3.2 0
v -4.48 -2.56 0
v -3.84 -2.56 0
v -61.44 -3.2 0
v -62.08 -3.2 0
v -62.08 -2.56 0
v -61.44 -2.56 0
v -62.08 -3.2 0
v -62.72 -3.2 0
v -62.72 -2.56 0
v -62.08 -2.56 0
v -62.72 -3.2 0
v -63.36 -3.2 0
v -63.36 -2.56 0
v -62.72 -2.56 0
v -63.36 -3.2 0
v -64 -3.2 0
v -64 -2.56 0
v -63.36 -2.56 0
v 0 -3.84 0
v -0.64 -3.84 0
v -0.64 -3.2 0
v 0 -3.2 0
v -0.64 -3.84 0
v -1.28 -3.84 0
v -1.28 -3.2 0
v -0.64 -3.2 0
v -1.28 -3.84 0
v -1.92 -3.84 0
v -1.92 -3.2 0
v -1.28 -3.2 0
v -37.76 -3.84 0
v -38.4 -3.84 0
v -38.4 -3.2 0
v -37.76 -3.2 0
v -35.2 -4.48 0
v -35.84 -4.48 0
v -35.84 -3.84 0
v -35.2 -3.84 0
v 0 -5.76 0
v -0.64 -5.76 0
v -0.64 -5.12 0
v 0 -5.12 0
v -0.64 -5.76 0
v -1.28 -5.76 0
v -1.28 -5.12 0
v -0.64 -5.12 0
v -1.28 -5.76 0
v -1.92 -5.76 0
v -1.92 -5.12 0
v -1.28 -5.12 0
v -1.92 -5.76 0
v -2.56 -5.76 0
v -2.56 -5.12 0
v -1.92 -5.12 0
v -2.56 -5.76 0
v -3.2 -5.76 0
v -3.2 -5.12 0
v -2.56 -5.12 0
v -3.2 -5.76 0
v -3.84 -5.76 0
v -3.84 -5.12 0
v -3.2 -5.12 0
v -3.84 -5.76 0
v -4.48 -5.76 0
v -4.48 -5.12 0
v -3.84 -5.12 0
v -61.44 -5.76 0
v -62.08 -5.76 0
v -62.08 -5.12 0
v -61.44 -5.12 0
v -62.08 -5.76 0
v -62.72 -5.76 0
v -62.72 -5.12 0
v -62.08 -5.12 0
v -62.72 -5.76 0
v -63.36 -5.76 0
v -63.36 -5.12 0
v -62.72 -5.12 0
v -63.36 -5.76 0
v -64 -5.76 0
v -64 -5.12 0
v -63.36 -5.12 0
v 0 -6.4 0
v -0.64 -6.4 0
v -0.64 -5.76 0
v 0 -5.76 0
v -0.64 -6.4 0
v -1.28 -6.4 0
v -1.28 -5.76 0
v -0.64 -5.76 0
v -1.28 -6.4 0
v -1.92 -6.4 0
v -1.92 -5.76 0
v -1.28 -5.76 0

# Texture cooridinates (Count = 20)
vt 0.15625 0.96875
vt 0.1875 0.96875
vt 0.1875 1
vt 0.15625 1
vt 0.15625 0.8125
vt 0.1875 0.8125
vt 0.1875 0.84375
vt 0.15625 0.84375
vt 0.21875 0.96875
vt 0.21875 1
vt 0.25 0.96875
vt 0.25 1
vt 0.28125 0.96875
vt 0.28125 1
vt 0.21875 0.8125
vt 0.21875 0.84375
vt 0.25 0.8125
vt 0.25 0.84375
vt 0.28125 0.8125
vt 0.28125 0.84375

# Normal
vn 0 0 -1

# Mesh description
g NewBadManor_mesh_0080

# Faces
f 1/1/1 2/2/1 3/3/1 4/4/1
f 5/5/1 6/6/1 7/7/1 8/8/1
f 9/1/1 10/2/1 11/3/1 12/4/1
f 13/1/1 14/2/1 15/3/1 16/4/1
f 17/1/1 18/2/1 19/3/1 20/4/1
f 21/1/1 22/2/1 23/3/1 24/4/1
f 25/2/1 26/9/1 27/10/1 28/3/1
f 29/9/1 30/11/1 31/12/1 32/10/1
f 33/11/1 34/13/1 35/14/1 36/12/1
f 37/5/1 38/6/1 39/7/1 40/8/1
f 41/5/1 42/6/1 43/7/1 44/8/1
f 45/5/1 46/6/1 47/7/1 48/8/1
f 49/5/1 50/6/1 51/7/1 52/8/1
f 53/6/1 54/15/1 55/16/1 56/7/1
f 57/15/1 58/17/1 59/18/1 60/16/1
f 61/17/1 62/19/1 63/20/1 64/18/1
f 65/1/1 66/2/1 67/3/1 68/4/1
f 69/5/1 70/6/1 71/7/1 72/8/1
f 73/1/1 74/2/1 75/3/1 76/4/1
f 77/1/1 78/2/1 79/3/1 80/4/1
f 81/1/1 82/2/1 83/3/1 84/4/1
f 85/1/1 86/2/1 87/3/1 88/4/1
f 89/2/1 90/9/1 91/10/1 92/3/1
f 93/9/1 94/11/1 95/12/1 96/10/1
f 97/11/1 98/13/1 99/14/1 100/12/1
f 101/5/1 102/6/1 103/7/1 104/8/1
f 105/5/1 106/6/1 107/7/1 108/8/1
f 109/5/1 110/6/1 111/7/1 112/8/1
f 113/5/1 114/6/1 115/7/1 116/8/1
f 117/6/1 118/15/1 119/16/1 120/7/1
f 121/15/1 122/17/1 123/18/1 124/16/1
f 125/17/1 126/19/1 127/20/1 128/18/1

