# Tiled2Unity generated file. Do not modify by hand.
# Wavefront file for 'NewBadManor_mesh_0309.obj'

# Vertices (Count = 16)
v -3.84 -3.2 -0.05780347
v -4.16 -3.2 -0.05780347
v -4.16 -2.88 -0.05780347
v -3.84 -2.88 -0.05780347
v -4.16 -3.2 -0.05780347
v -4.48 -3.2 -0.05780347
v -4.48 -2.88 -0.05780347
v -4.16 -2.88 -0.05780347
v -3.84 -3.52 -0.06358381
v -4.16 -3.52 -0.06358381
v -4.16 -3.2 -0.06358381
v -3.84 -3.2 -0.06358381
v -4.16 -3.52 -0.06358381
v -4.48 -3.52 -0.06358381
v -4.48 -3.2 -0.06358381
v -4.16 -3.2 -0.06358381

# Texture cooridinates (Count = 9)
vt 0.8125 0.84375
vt 0.84375 0.84375
vt 0.84375 0.875
vt 0.8125 0.875
vt 0.875 0.84375
vt 0.875 0.875
vt 0.8125 0.8125
vt 0.84375 0.8125
vt 0.875 0.8125

# Normal
vn 0 0 -1

# Mesh description
g NewBadManor_mesh_0309

# Faces
f 1/1/1 2/2/1 3/3/1 4/4/1
f 5/2/1 6/5/1 7/6/1 8/3/1
f 9/7/1 10/8/1 11/2/1 12/1/1
f 13/8/1 14/9/1 15/5/1 16/2/1

