# Tiled2Unity generated file. Do not modify by hand.
# Wavefront file for 'NewBadManor_mesh_0009.obj'

# Vertices (Count = 64)
v -32.64 -1.92 0
v -33.28 -1.92 0
v -33.28 -1.28 0
v -32.64 -1.28 0
v -33.28 -1.92 0
v -33.92 -1.92 0
v -33.92 -1.28 0
v -33.28 -1.28 0
v -44.8 -1.92 0
v -45.44 -1.92 0
v -45.44 -1.28 0
v -44.8 -1.28 0
v -45.44 -1.92 0
v -46.08 -1.92 0
v -46.08 -1.28 0
v -45.44 -1.28 0
v -51.84 -1.92 0
v -52.48 -1.92 0
v -52.48 -1.28 0
v -51.84 -1.28 0
v -52.48 -1.92 0
v -53.12 -1.92 0
v -53.12 -1.28 0
v -52.48 -1.28 0
v -55.04 -1.92 0
v -55.68 -1.92 0
v -55.68 -1.28 0
v -55.04 -1.28 0
v -55.68 -1.92 0
v -56.32 -1.92 0
v -56.32 -1.28 0
v -55.68 -1.28 0
v -62.08 -1.92 0
v -62.72 -1.92 0
v -62.72 -1.28 0
v -62.08 -1.28 0
v -62.72 -1.92 0
v -63.36 -1.92 0
v -63.36 -1.28 0
v -62.72 -1.28 0
v -50.56 -5.12 0
v -51.2 -5.12 0
v -51.2 -4.48 0
v -50.56 -4.48 0
v -51.2 -5.12 0
v -51.84 -5.12 0
v -51.84 -4.48 0
v -51.2 -4.48 0
v -60.8 -5.12 0
v -61.44 -5.12 0
v -61.44 -4.48 0
v -60.8 -4.48 0
v -61.44 -5.12 0
v -62.08 -5.12 0
v -62.08 -4.48 0
v -61.44 -4.48 0
v -7.04 -5.76 0
v -7.68 -5.76 0
v -7.68 -5.12 0
v -7.04 -5.12 0
v -7.68 -5.76 0
v -8.32 -5.76 0
v -8.32 -5.12 0
v -7.68 -5.12 0

# Texture cooridinates (Count = 15)
vt 0.5 0.875
vt 0.75 0.875
vt 0.75 1
vt 0.5 1
vt 1 0.875
vt 1 1
vt 0.75 0.75
vt 1 0.75
vt 1 0.625
vt 0.75 0.625
vt 0.5 0.625
vt 0.5 0.75
vt 1 0.5
vt 0.75 0.5
vt 0.5 0.5

# Normal
vn 0 0 -1

# Mesh description
g NewBadManor_mesh_0009

# Faces
f 1/1/1 2/2/1 3/3/1 4/4/1
f 5/2/1 6/5/1 7/6/1 8/3/1
f 9/5/1 10/2/1 11/7/1 12/8/1
f 13/2/1 14/5/1 15/8/1 16/7/1
f 17/9/1 18/10/1 19/7/1 20/8/1
f 21/10/1 22/11/1 23/12/1 24/7/1
f 25/8/1 26/7/1 27/2/1 28/5/1
f 29/7/1 30/8/1 31/5/1 32/2/1
f 33/13/1 34/14/1 35/10/1 36/9/1
f 37/14/1 38/15/1 39/11/1 40/10/1
f 41/12/1 42/7/1 43/2/1 44/1/1
f 45/7/1 46/8/1 47/5/1 48/2/1
f 49/11/1 50/10/1 51/7/1 52/12/1
f 53/10/1 54/9/1 55/8/1 56/7/1
f 57/15/1 58/14/1 59/10/1 60/11/1
f 61/14/1 62/13/1 63/9/1 64/10/1

