# Tiled2Unity generated file. Do not modify by hand.
# Wavefront file for 'NewBadManor_mesh_0082.obj'

# Vertices (Count = 336)
v -0.96 -0.32 -0.005780347
v -1.28 -0.32 -0.005780347
v -1.28 0 -0.005780347
v -0.96 0 -0.005780347
v -1.28 -0.32 -0.005780347
v -1.6 -0.32 -0.005780347
v -1.6 0 -0.005780347
v -1.28 0 -0.005780347
v -0.96 -0.64 -0.01156069
v -1.28 -0.64 -0.01156069
v -1.28 -0.32 -0.01156069
v -0.96 -0.32 -0.01156069
v -1.28 -0.64 -0.01156069
v -1.6 -0.64 -0.01156069
v -1.6 -0.32 -0.01156069
v -1.28 -0.32 -0.01156069
v -0.96 -0.96 -0.01734104
v -1.28 -0.96 -0.01734104
v -1.28 -0.64 -0.01734104
v -0.96 -0.64 -0.01734104
v -1.28 -0.96 -0.01734104
v -1.6 -0.96 -0.01734104
v -1.6 -0.64 -0.01734104
v -1.28 -0.64 -0.01734104
v -0.96 -1.28 -0.02312139
v -1.28 -1.28 -0.02312139
v -1.28 -0.96 -0.02312139
v -0.96 -0.96 -0.02312139
v -1.28 -1.28 -0.02312139
v -1.6 -1.28 -0.02312139
v -1.6 -0.96 -0.02312139
v -1.28 -0.96 -0.02312139
v -0.96 -1.6 -0.02890173
v -1.28 -1.6 -0.02890173
v -1.28 -1.28 -0.02890173
v -0.96 -1.28 -0.02890173
v -1.28 -1.6 -0.02890173
v -1.6 -1.6 -0.02890173
v -1.6 -1.28 -0.02890173
v -1.28 -1.28 -0.02890173
v -0.96 -1.92 -0.03468208
v -1.28 -1.92 -0.03468208
v -1.28 -1.6 -0.03468208
v -0.96 -1.6 -0.03468208
v -1.28 -1.92 -0.03468208
v -1.6 -1.92 -0.03468208
v -1.6 -1.6 -0.03468208
v -1.28 -1.6 -0.03468208
v -0.96 -2.24 -0.04046243
v -1.28 -2.24 -0.04046243
v -1.28 -1.92 -0.04046243
v -0.96 -1.92 -0.04046243
v -1.28 -2.24 -0.04046243
v -1.6 -2.24 -0.04046243
v -1.6 -1.92 -0.04046243
v -1.28 -1.92 -0.04046243
v -1.6 -2.24 -0.04046243
v -1.92 -2.24 -0.04046243
v -1.92 -1.92 -0.04046243
v -1.6 -1.92 -0.04046243
v -1.92 -2.24 -0.04046243
v -2.24 -2.24 -0.04046243
v -2.24 -1.92 -0.04046243
v -1.92 -1.92 -0.04046243
v -2.24 -2.24 -0.04046243
v -2.56 -2.24 -0.04046243
v -2.56 -1.92 -0.04046243
v -2.24 -1.92 -0.04046243
v -2.56 -2.24 -0.04046243
v -2.88 -2.24 -0.04046243
v -2.88 -1.92 -0.04046243
v -2.56 -1.92 -0.04046243
v -2.88 -2.24 -0.04046243
v -3.2 -2.24 -0.04046243
v -3.2 -1.92 -0.04046243
v -2.88 -1.92 -0.04046243
v -3.2 -2.24 -0.04046243
v -3.52 -2.24 -0.04046243
v -3.52 -1.92 -0.04046243
v -3.2 -1.92 -0.04046243
v -0.96 -2.56 -0.04624277
v -1.28 -2.56 -0.04624277
v -1.28 -2.24 -0.04624277
v -0.96 -2.24 -0.04624277
v -1.28 -2.56 -0.04624277
v -1.6 -2.56 -0.04624277
v -1.6 -2.24 -0.04624277
v -1.28 -2.24 -0.04624277
v -1.6 -2.56 -0.04624277
v -1.92 -2.56 -0.04624277
v -1.92 -2.24 -0.04624277
v -1.6 -2.24 -0.04624277
v -1.92 -2.56 -0.04624277
v -2.24 -2.56 -0.04624277
v -2.24 -2.24 -0.04624277
v -1.92 -2.24 -0.04624277
v -2.24 -2.56 -0.04624277
v -2.56 -2.56 -0.04624277
v -2.56 -2.24 -0.04624277
v -2.24 -2.24 -0.04624277
v -2.56 -2.56 -0.04624277
v -2.88 -2.56 -0.04624277
v -2.88 -2.24 -0.04624277
v -2.56 -2.24 -0.04624277
v -2.88 -2.56 -0.04624277
v -3.2 -2.56 -0.04624277
v -3.2 -2.24 -0.04624277
v -2.88 -2.24 -0.04624277
v -3.2 -2.56 -0.04624277
v -3.52 -2.56 -0.04624277
v -3.52 -2.24 -0.04624277
v -3.2 -2.24 -0.04624277
v -0.96 -2.88 -0.05202312
v -1.28 -2.88 -0.05202312
v -1.28 -2.56 -0.05202312
v -0.96 -2.56 -0.05202312
v -1.28 -2.88 -0.05202312
v -1.6 -2.88 -0.05202312
v -1.6 -2.56 -0.05202312
v -1.28 -2.56 -0.05202312
v -1.6 -2.88 -0.05202312
v -1.92 -2.88 -0.05202312
v -1.92 -2.56 -0.05202312
v -1.6 -2.56 -0.05202312
v -1.92 -2.88 -0.05202312
v -2.24 -2.88 -0.05202312
v -2.24 -2.56 -0.05202312
v -1.92 -2.56 -0.05202312
v -2.24 -2.88 -0.05202312
v -2.56 -2.88 -0.05202312
v -2.56 -2.56 -0.05202312
v -2.24 -2.56 -0.05202312
v -2.56 -2.88 -0.05202312
v -2.88 -2.88 -0.05202312
v -2.88 -2.56 -0.05202312
v -2.56 -2.56 -0.05202312
v -2.88 -2.88 -0.05202312
v -3.2 -2.88 -0.05202312
v -3.2 -2.56 -0.05202312
v -2.88 -2.56 -0.05202312
v -3.2 -2.88 -0.05202312
v -3.52 -2.88 -0.05202312
v -3.52 -2.56 -0.05202312
v -3.2 -2.56 -0.05202312
v -0.96 -3.2 -0.05780347
v -1.28 -3.2 -0.05780347
v -1.28 -2.88 -0.05780347
v -0.96 -2.88 -0.05780347
v -1.28 -3.2 -0.05780347
v -1.6 -3.2 -0.05780347
v -1.6 -2.88 -0.05780347
v -1.28 -2.88 -0.05780347
v -1.6 -3.2 -0.05780347
v -1.92 -3.2 -0.05780347
v -1.92 -2.88 -0.05780347
v -1.6 -2.88 -0.05780347
v -1.92 -3.2 -0.05780347
v -2.24 -3.2 -0.05780347
v -2.24 -2.88 -0.05780347
v -1.92 -2.88 -0.05780347
v -2.24 -3.2 -0.05780347
v -2.56 -3.2 -0.05780347
v -2.56 -2.88 -0.05780347
v -2.24 -2.88 -0.05780347
v -2.56 -3.2 -0.05780347
v -2.88 -3.2 -0.05780347
v -2.88 -2.88 -0.05780347
v -2.56 -2.88 -0.05780347
v -2.88 -3.2 -0.05780347
v -3.2 -3.2 -0.05780347
v -3.2 -2.88 -0.05780347
v -2.88 -2.88 -0.05780347
v -3.2 -3.2 -0.05780347
v -3.52 -3.2 -0.05780347
v -3.52 -2.88 -0.05780347
v -3.2 -2.88 -0.05780347
v -0.96 -3.52 -0.06358381
v -1.28 -3.52 -0.06358381
v -1.28 -3.2 -0.06358381
v -0.96 -3.2 -0.06358381
v -1.28 -3.52 -0.06358381
v -1.6 -3.52 -0.06358381
v -1.6 -3.2 -0.06358381
v -1.28 -3.2 -0.06358381
v -1.6 -3.52 -0.06358381
v -1.92 -3.52 -0.06358381
v -1.92 -3.2 -0.06358381
v -1.6 -3.2 -0.06358381
v -1.92 -3.52 -0.06358381
v -2.24 -3.52 -0.06358381
v -2.24 -3.2 -0.06358381
v -1.92 -3.2 -0.06358381
v -2.24 -3.52 -0.06358381
v -2.56 -3.52 -0.06358381
v -2.56 -3.2 -0.06358381
v -2.24 -3.2 -0.06358381
v -2.56 -3.52 -0.06358381
v -2.88 -3.52 -0.06358381
v -2.88 -3.2 -0.06358381
v -2.56 -3.2 -0.06358381
v -2.88 -3.52 -0.06358381
v -3.2 -3.52 -0.06358381
v -3.2 -3.2 -0.06358381
v -2.88 -3.2 -0.06358381
v -3.2 -3.52 -0.06358381
v -3.52 -3.52 -0.06358381
v -3.52 -3.2 -0.06358381
v -3.2 -3.2 -0.06358381
v -0.96 -3.84 -0.06936416
v -1.28 -3.84 -0.06936416
v -1.28 -3.52 -0.06936416
v -0.96 -3.52 -0.06936416
v -1.28 -3.84 -0.06936416
v -1.6 -3.84 -0.06936416
v -1.6 -3.52 -0.06936416
v -1.28 -3.52 -0.06936416
v -1.6 -3.84 -0.06936416
v -1.92 -3.84 -0.06936416
v -1.92 -3.52 -0.06936416
v -1.6 -3.52 -0.06936416
v -1.92 -3.84 -0.06936416
v -2.24 -3.84 -0.06936416
v -2.24 -3.52 -0.06936416
v -1.92 -3.52 -0.06936416
v -2.24 -3.84 -0.06936416
v -2.56 -3.84 -0.06936416
v -2.56 -3.52 -0.06936416
v -2.24 -3.52 -0.06936416
v -2.56 -3.84 -0.06936416
v -2.88 -3.84 -0.06936416
v -2.88 -3.52 -0.06936416
v -2.56 -3.52 -0.06936416
v -2.88 -3.84 -0.06936416
v -3.2 -3.84 -0.06936416
v -3.2 -3.52 -0.06936416
v -2.88 -3.52 -0.06936416
v -3.2 -3.84 -0.06936416
v -3.52 -3.84 -0.06936416
v -3.52 -3.52 -0.06936416
v -3.2 -3.52 -0.06936416
v -0.96 -4.16 -0.07514451
v -1.28 -4.16 -0.07514451
v -1.28 -3.84 -0.07514451
v -0.96 -3.84 -0.07514451
v -1.28 -4.16 -0.07514451
v -1.6 -4.16 -0.07514451
v -1.6 -3.84 -0.07514451
v -1.28 -3.84 -0.07514451
v -1.6 -4.16 -0.07514451
v -1.92 -4.16 -0.07514451
v -1.92 -3.84 -0.07514451
v -1.6 -3.84 -0.07514451
v -1.92 -4.16 -0.07514451
v -2.24 -4.16 -0.07514451
v -2.24 -3.84 -0.07514451
v -1.92 -3.84 -0.07514451
v -2.24 -4.16 -0.07514451
v -2.56 -4.16 -0.07514451
v -2.56 -3.84 -0.07514451
v -2.24 -3.84 -0.07514451
v -2.56 -4.16 -0.07514451
v -2.88 -4.16 -0.07514451
v -2.88 -3.84 -0.07514451
v -2.56 -3.84 -0.07514451
v -2.88 -4.16 -0.07514451
v -3.2 -4.16 -0.07514451
v -3.2 -3.84 -0.07514451
v -2.88 -3.84 -0.07514451
v -3.2 -4.16 -0.07514451
v -3.52 -4.16 -0.07514451
v -3.52 -3.84 -0.07514451
v -3.2 -3.84 -0.07514451
v -3.52 -4.16 -0.07514451
v -3.84 -4.16 -0.07514451
v -3.84 -3.84 -0.07514451
v -3.52 -3.84 -0.07514451
v -3.84 -4.16 -0.07514451
v -4.16 -4.16 -0.07514451
v -4.16 -3.84 -0.07514451
v -3.84 -3.84 -0.07514451
v -0.96 -4.48 -0.08092485
v -1.28 -4.48 -0.08092485
v -1.28 -4.16 -0.08092485
v -0.96 -4.16 -0.08092485
v -1.28 -4.48 -0.08092485
v -1.6 -4.48 -0.08092485
v -1.6 -4.16 -0.08092485
v -1.28 -4.16 -0.08092485
v -1.6 -4.48 -0.08092485
v -1.92 -4.48 -0.08092485
v -1.92 -4.16 -0.08092485
v -1.6 -4.16 -0.08092485
v -1.92 -4.48 -0.08092485
v -2.24 -4.48 -0.08092485
v -2.24 -4.16 -0.08092485
v -1.92 -4.16 -0.08092485
v -2.24 -4.48 -0.08092485
v -2.56 -4.48 -0.08092485
v -2.56 -4.16 -0.08092485
v -2.24 -4.16 -0.08092485
v -2.56 -4.48 -0.08092485
v -2.88 -4.48 -0.08092485
v -2.88 -4.16 -0.08092485
v -2.56 -4.16 -0.08092485
v -2.88 -4.48 -0.08092485
v -3.2 -4.48 -0.08092485
v -3.2 -4.16 -0.08092485
v -2.88 -4.16 -0.08092485
v -3.2 -4.48 -0.08092485
v -3.52 -4.48 -0.08092485
v -3.52 -4.16 -0.08092485
v -3.2 -4.16 -0.08092485
v -3.52 -4.48 -0.08092485
v -3.84 -4.48 -0.08092485
v -3.84 -4.16 -0.08092485
v -3.52 -4.16 -0.08092485
v -3.84 -4.48 -0.08092485
v -4.16 -4.48 -0.08092485
v -4.16 -4.16 -0.08092485
v -3.84 -4.16 -0.08092485
v -3.52 -4.8 -0.0867052
v -3.84 -4.8 -0.0867052
v -3.84 -4.48 -0.0867052
v -3.52 -4.48 -0.0867052
v -3.84 -4.8 -0.0867052
v -4.16 -4.8 -0.0867052
v -4.16 -4.48 -0.0867052
v -3.84 -4.48 -0.0867052
v -3.52 -5.12 -0.09248555
v -3.84 -5.12 -0.09248555
v -3.84 -4.8 -0.09248555
v -3.52 -4.8 -0.09248555
v -3.84 -5.12 -0.09248555
v -4.16 -5.12 -0.09248555
v -4.16 -4.8 -0.09248555
v -3.84 -4.8 -0.09248555

# Texture cooridinates (Count = 45)
vt 0.1666667 0.7666667
vt 0.2083333 0.7666667
vt 0.2083333 0.8
vt 0.1666667 0.8
vt 0.25 0.7666667
vt 0.25 0.8
vt 0.2916667 0.2333333
vt 0.3333333 0.2333333
vt 0.3333333 0.2666667
vt 0.2916667 0.2666667
vt 0.375 0.2333333
vt 0.375 0.2666667
vt 0.4166667 0.2333333
vt 0.4166667 0.2666667
vt 0.2916667 0.2
vt 0.3333333 0.2
vt 0.375 0.2
vt 0.4166667 0.2
vt 0.2916667 0.1666667
vt 0.3333333 0.1666667
vt 0.375 0.1666667
vt 0.4166667 0.1666667
vt 0.2916667 0.1333333
vt 0.3333333 0.1333333
vt 0.375 0.1333333
vt 0.4166667 0.1333333
vt 0.2916667 0.1
vt 0.3333333 0.1
vt 0.375 0.1
vt 0.4166667 0.1
vt 0.1666667 0.7333333
vt 0.2083333 0.7333333
vt 0.2916667 0.06666666
vt 0.3333333 0.06666666
vt 0.375 0.06666666
vt 0.4166667 0.06666666
vt 0.2916667 0.03333336
vt 0.3333333 0.03333336
vt 0.375 0.03333336
vt 0.4166667 0.03333336
vt 0.2916667 0
vt 0.3333333 0
vt 0.375 0
vt 0.4166667 0
vt 0.25 0.7333333

# Normal
vn 0 0 -1

# Mesh description
g NewBadManor_mesh_0082

# Faces
f 1/1/1 2/2/1 3/3/1 4/4/1
f 5/2/1 6/5/1 7/6/1 8/3/1
f 9/1/1 10/2/1 11/3/1 12/4/1
f 13/2/1 14/5/1 15/6/1 16/3/1
f 17/1/1 18/2/1 19/3/1 20/4/1
f 21/2/1 22/5/1 23/6/1 24/3/1
f 25/1/1 26/2/1 27/3/1 28/4/1
f 29/2/1 30/5/1 31/6/1 32/3/1
f 33/1/1 34/2/1 35/3/1 36/4/1
f 37/2/1 38/5/1 39/6/1 40/3/1
f 41/1/1 42/2/1 43/3/1 44/4/1
f 45/2/1 46/5/1 47/6/1 48/3/1
f 49/1/1 50/2/1 51/3/1 52/4/1
f 53/7/1 54/8/1 55/9/1 56/10/1
f 57/7/1 58/8/1 59/9/1 60/10/1
f 61/7/1 62/8/1 63/9/1 64/10/1
f 65/7/1 66/8/1 67/9/1 68/10/1
f 69/7/1 70/8/1 71/9/1 72/10/1
f 73/8/1 74/11/1 75/12/1 76/9/1
f 77/11/1 78/13/1 79/14/1 80/12/1
f 81/1/1 82/2/1 83/3/1 84/4/1
f 85/15/1 86/16/1 87/8/1 88/7/1
f 89/15/1 90/16/1 91/8/1 92/7/1
f 93/15/1 94/16/1 95/8/1 96/7/1
f 97/15/1 98/16/1 99/8/1 100/7/1
f 101/15/1 102/16/1 103/8/1 104/7/1
f 105/16/1 106/17/1 107/11/1 108/8/1
f 109/17/1 110/18/1 111/13/1 112/11/1
f 113/1/1 114/2/1 115/3/1 116/4/1
f 117/19/1 118/20/1 119/16/1 120/15/1
f 121/19/1 122/20/1 123/16/1 124/15/1
f 125/19/1 126/20/1 127/16/1 128/15/1
f 129/19/1 130/20/1 131/16/1 132/15/1
f 133/19/1 134/20/1 135/16/1 136/15/1
f 137/20/1 138/21/1 139/17/1 140/16/1
f 141/21/1 142/22/1 143/18/1 144/17/1
f 145/1/1 146/2/1 147/3/1 148/4/1
f 149/23/1 150/24/1 151/20/1 152/19/1
f 153/23/1 154/24/1 155/20/1 156/19/1
f 157/23/1 158/24/1 159/20/1 160/19/1
f 161/23/1 162/24/1 163/20/1 164/19/1
f 165/23/1 166/24/1 167/20/1 168/19/1
f 169/24/1 170/25/1 171/21/1 172/20/1
f 173/25/1 174/26/1 175/22/1 176/21/1
f 177/1/1 178/2/1 179/3/1 180/4/1
f 181/27/1 182/28/1 183/24/1 184/23/1
f 185/27/1 186/28/1 187/24/1 188/23/1
f 189/27/1 190/28/1 191/24/1 192/23/1
f 193/27/1 194/28/1 195/24/1 196/23/1
f 197/27/1 198/28/1 199/24/1 200/23/1
f 201/28/1 202/29/1 203/25/1 204/24/1
f 205/29/1 206/30/1 207/26/1 208/25/1
f 209/31/1 210/32/1 211/2/1 212/1/1
f 213/33/1 214/34/1 215/28/1 216/27/1
f 217/33/1 218/34/1 219/28/1 220/27/1
f 221/33/1 222/34/1 223/28/1 224/27/1
f 225/33/1 226/34/1 227/28/1 228/27/1
f 229/33/1 230/34/1 231/28/1 232/27/1
f 233/34/1 234/35/1 235/29/1 236/28/1
f 237/35/1 238/36/1 239/30/1 240/29/1
f 241/1/1 242/2/1 243/3/1 244/4/1
f 245/37/1 246/38/1 247/34/1 248/33/1
f 249/37/1 250/38/1 251/34/1 252/33/1
f 253/37/1 254/38/1 255/34/1 256/33/1
f 257/37/1 258/38/1 259/34/1 260/33/1
f 261/37/1 262/38/1 263/34/1 264/33/1
f 265/38/1 266/39/1 267/35/1 268/34/1
f 269/39/1 270/40/1 271/36/1 272/35/1
f 273/2/1 274/5/1 275/6/1 276/3/1
f 277/2/1 278/5/1 279/6/1 280/3/1
f 281/31/1 282/32/1 283/2/1 284/1/1
f 285/41/1 286/42/1 287/38/1 288/37/1
f 289/41/1 290/42/1 291/38/1 292/37/1
f 293/41/1 294/42/1 295/38/1 296/37/1
f 297/41/1 298/42/1 299/38/1 300/37/1
f 301/41/1 302/42/1 303/38/1 304/37/1
f 305/42/1 306/43/1 307/39/1 308/38/1
f 309/43/1 310/44/1 311/40/1 312/39/1
f 313/32/1 314/45/1 315/5/1 316/2/1
f 317/2/1 318/5/1 319/6/1 320/3/1
f 321/1/1 322/2/1 323/3/1 324/4/1
f 325/2/1 326/5/1 327/6/1 328/3/1
f 329/1/1 330/2/1 331/3/1 332/4/1
f 333/2/1 334/5/1 335/6/1 336/3/1

