# Tiled2Unity generated file. Do not modify by hand.
# Wavefront file for 'NewBadManor_mesh_0057.obj'

# Vertices (Count = 512)
v -8.32 -1.92 0
v -8.96 -1.92 0
v -8.96 -1.28 0
v -8.32 -1.28 0
v -8.96 -1.92 0
v -9.599999 -1.92 0
v -9.599999 -1.28 0
v -8.96 -1.28 0
v -9.599999 -1.92 0
v -10.24 -1.92 0
v -10.24 -1.28 0
v -9.599999 -1.28 0
v -10.24 -1.92 0
v -10.88 -1.92 0
v -10.88 -1.28 0
v -10.24 -1.28 0
v -10.88 -1.92 0
v -11.52 -1.92 0
v -11.52 -1.28 0
v -10.88 -1.28 0
v -11.52 -1.92 0
v -12.16 -1.92 0
v -12.16 -1.28 0
v -11.52 -1.28 0
v -12.16 -1.92 0
v -12.8 -1.92 0
v -12.8 -1.28 0
v -12.16 -1.28 0
v -12.8 -1.92 0
v -13.44 -1.92 0
v -13.44 -1.28 0
v -12.8 -1.28 0
v -13.44 -1.92 0
v -14.08 -1.92 0
v -14.08 -1.28 0
v -13.44 -1.28 0
v -14.08 -1.92 0
v -14.72 -1.92 0
v -14.72 -1.28 0
v -14.08 -1.28 0
v -14.72 -1.92 0
v -15.36 -1.92 0
v -15.36 -1.28 0
v -14.72 -1.28 0
v -18.56 -1.92 0
v -19.2 -1.92 0
v -19.2 -1.28 0
v -18.56 -1.28 0
v -19.2 -1.92 0
v -19.84 -1.92 0
v -19.84 -1.28 0
v -19.2 -1.28 0
v -19.84 -1.92 0
v -20.48 -1.92 0
v -20.48 -1.28 0
v -19.84 -1.28 0
v -20.48 -1.92 0
v -21.12 -1.92 0
v -21.12 -1.28 0
v -20.48 -1.28 0
v -21.12 -1.92 0
v -21.76 -1.92 0
v -21.76 -1.28 0
v -21.12 -1.28 0
v -21.76 -1.92 0
v -22.4 -1.92 0
v -22.4 -1.28 0
v -21.76 -1.28 0
v -22.4 -1.92 0
v -23.04 -1.92 0
v -23.04 -1.28 0
v -22.4 -1.28 0
v -23.04 -1.92 0
v -23.68 -1.92 0
v -23.68 -1.28 0
v -23.04 -1.28 0
v -23.68 -1.92 0
v -24.32 -1.92 0
v -24.32 -1.28 0
v -23.68 -1.28 0
v -24.32 -1.92 0
v -24.96 -1.92 0
v -24.96 -1.28 0
v -24.32 -1.28 0
v -24.96 -1.92 0
v -25.6 -1.92 0
v -25.6 -1.28 0
v -24.96 -1.28 0
v -28.8 -1.92 0
v -29.44 -1.92 0
v -29.44 -1.28 0
v -28.8 -1.28 0
v -29.44 -1.92 0
v -30.08 -1.92 0
v -30.08 -1.28 0
v -29.44 -1.28 0
v -30.08 -1.92 0
v -30.72 -1.92 0
v -30.72 -1.28 0
v -30.08 -1.28 0
v -30.72 -1.92 0
v -31.36 -1.92 0
v -31.36 -1.28 0
v -30.72 -1.28 0
v -31.36 -1.92 0
v -32 -1.92 0
v -32 -1.28 0
v -31.36 -1.28 0
v -32 -1.92 0
v -32.64 -1.92 0
v -32.64 -1.28 0
v -32 -1.28 0
v -32.64 -1.92 0
v -33.28 -1.92 0
v -33.28 -1.28 0
v -32.64 -1.28 0
v -33.28 -1.92 0
v -33.92 -1.92 0
v -33.92 -1.28 0
v -33.28 -1.28 0
v -33.92 -1.92 0
v -34.56 -1.92 0
v -34.56 -1.28 0
v -33.92 -1.28 0
v -34.56 -1.92 0
v -35.2 -1.92 0
v -35.2 -1.28 0
v -34.56 -1.28 0
v -35.2 -1.92 0
v -35.84 -1.92 0
v -35.84 -1.28 0
v -35.2 -1.28 0
v -40.96 -3.2 0
v -41.6 -3.2 0
v -41.6 -2.56 0
v -40.96 -2.56 0
v -41.6 -3.2 0
v -42.24 -3.2 0
v -42.24 -2.56 0
v -41.6 -2.56 0
v -42.24 -3.2 0
v -42.88 -3.2 0
v -42.88 -2.56 0
v -42.24 -2.56 0
v -42.88 -3.2 0
v -43.52 -3.2 0
v -43.52 -2.56 0
v -42.88 -2.56 0
v -43.52 -3.2 0
v -44.16 -3.2 0
v -44.16 -2.56 0
v -43.52 -2.56 0
v -51.2 -3.2 0
v -51.84 -3.2 0
v -51.84 -2.56 0
v -51.2 -2.56 0
v -51.84 -3.2 0
v -52.48 -3.2 0
v -52.48 -2.56 0
v -51.84 -2.56 0
v -52.48 -3.2 0
v -53.12 -3.2 0
v -53.12 -2.56 0
v -52.48 -2.56 0
v -53.12 -3.2 0
v -53.76 -3.2 0
v -53.76 -2.56 0
v -53.12 -2.56 0
v -53.76 -3.2 0
v -54.4 -3.2 0
v -54.4 -2.56 0
v -53.76 -2.56 0
v -61.44 -3.2 0
v -62.08 -3.2 0
v -62.08 -2.56 0
v -61.44 -2.56 0
v -62.08 -3.2 0
v -62.72 -3.2 0
v -62.72 -2.56 0
v -62.08 -2.56 0
v -62.72 -3.2 0
v -63.36 -3.2 0
v -63.36 -2.56 0
v -62.72 -2.56 0
v -63.36 -3.2 0
v -64 -3.2 0
v -64 -2.56 0
v -63.36 -2.56 0
v 0 -3.84 0
v -0.64 -3.84 0
v -0.64 -3.2 0
v 0 -3.2 0
v -10.88 -3.84 0
v -11.52 -3.84 0
v -11.52 -3.2 0
v -10.88 -3.2 0
v -11.52 -3.84 0
v -12.16 -3.84 0
v -12.16 -3.2 0
v -11.52 -3.2 0
v -12.16 -3.84 0
v -12.8 -3.84 0
v -12.8 -3.2 0
v -12.16 -3.2 0
v -12.8 -3.84 0
v -13.44 -3.84 0
v -13.44 -3.2 0
v -12.8 -3.2 0
v -13.44 -3.84 0
v -14.08 -3.84 0
v -14.08 -3.2 0
v -13.44 -3.2 0
v -14.08 -3.84 0
v -14.72 -3.84 0
v -14.72 -3.2 0
v -14.08 -3.2 0
v -14.72 -3.84 0
v -15.36 -3.84 0
v -15.36 -3.2 0
v -14.72 -3.2 0
v -15.36 -3.84 0
v -16 -3.84 0
v -16 -3.2 0
v -15.36 -3.2 0
v -16 -3.84 0
v -16.64 -3.84 0
v -16.64 -3.2 0
v -16 -3.2 0
v -16.64 -3.84 0
v -17.28 -3.84 0
v -17.28 -3.2 0
v -16.64 -3.2 0
v -17.28 -3.84 0
v -17.92 -3.84 0
v -17.92 -3.2 0
v -17.28 -3.2 0
v -21.12 -3.84 0
v -21.76 -3.84 0
v -21.76 -3.2 0
v -21.12 -3.2 0
v -21.76 -3.84 0
v -22.4 -3.84 0
v -22.4 -3.2 0
v -21.76 -3.2 0
v -22.4 -3.84 0
v -23.04 -3.84 0
v -23.04 -3.2 0
v -22.4 -3.2 0
v -23.04 -3.84 0
v -23.68 -3.84 0
v -23.68 -3.2 0
v -23.04 -3.2 0
v -23.68 -3.84 0
v -24.32 -3.84 0
v -24.32 -3.2 0
v -23.68 -3.2 0
v -24.32 -3.84 0
v -24.96 -3.84 0
v -24.96 -3.2 0
v -24.32 -3.2 0
v -24.96 -3.84 0
v -25.6 -3.84 0
v -25.6 -3.2 0
v -24.96 -3.2 0
v -25.6 -3.84 0
v -26.24 -3.84 0
v -26.24 -3.2 0
v -25.6 -3.2 0
v -26.24 -3.84 0
v -26.88 -3.84 0
v -26.88 -3.2 0
v -26.24 -3.2 0
v -26.88 -3.84 0
v -27.52 -3.84 0
v -27.52 -3.2 0
v -26.88 -3.2 0
v -27.52 -3.84 0
v -28.16 -3.84 0
v -28.16 -3.2 0
v -27.52 -3.2 0
v -31.36 -3.84 0
v -32 -3.84 0
v -32 -3.2 0
v -31.36 -3.2 0
v -41.6 -3.84 0
v -42.24 -3.84 0
v -42.24 -3.2 0
v -41.6 -3.2 0
v -51.84 -3.84 0
v -52.48 -3.84 0
v -52.48 -3.2 0
v -51.84 -3.2 0
v -62.08 -3.84 0
v -62.72 -3.84 0
v -62.72 -3.2 0
v -62.08 -3.2 0
v -8.32 -4.48 0
v -8.96 -4.48 0
v -8.96 -3.84 0
v -8.32 -3.84 0
v -18.56 -4.48 0
v -19.2 -4.48 0
v -19.2 -3.84 0
v -18.56 -3.84 0
v -28.8 -4.48 0
v -29.44 -4.48 0
v -29.44 -3.84 0
v -28.8 -3.84 0
v -39.04 -4.48 0
v -39.68 -4.48 0
v -39.68 -3.84 0
v -39.04 -3.84 0
v -49.28 -4.48 0
v -49.92 -4.48 0
v -49.92 -3.84 0
v -49.28 -3.84 0
v -59.52 -4.48 0
v -60.16 -4.48 0
v -60.16 -3.84 0
v -59.52 -3.84 0
v -5.76 -5.12 0
v -6.4 -5.12 0
v -6.4 -4.48 0
v -5.76 -4.48 0
v -16 -5.12 0
v -16.64 -5.12 0
v -16.64 -4.48 0
v -16 -4.48 0
v -26.24 -5.12 0
v -26.88 -5.12 0
v -26.88 -4.48 0
v -26.24 -4.48 0
v -43.52 -5.12 0
v -44.16 -5.12 0
v -44.16 -4.48 0
v -43.52 -4.48 0
v -44.16 -5.12 0
v -44.8 -5.12 0
v -44.8 -4.48 0
v -44.16 -4.48 0
v -44.8 -5.12 0
v -45.44 -5.12 0
v -45.44 -4.48 0
v -44.8 -4.48 0
v -45.44 -5.12 0
v -46.08 -5.12 0
v -46.08 -4.48 0
v -45.44 -4.48 0
v -46.08 -5.12 0
v -46.72 -5.12 0
v -46.72 -4.48 0
v -46.08 -4.48 0
v -53.76 -5.12 0
v -54.4 -5.12 0
v -54.4 -4.48 0
v -53.76 -4.48 0
v -54.4 -5.12 0
v -55.04 -5.12 0
v -55.04 -4.48 0
v -54.4 -4.48 0
v -55.04 -5.12 0
v -55.68 -5.12 0
v -55.68 -4.48 0
v -55.04 -4.48 0
v -55.68 -5.12 0
v -56.32 -5.12 0
v -56.32 -4.48 0
v -55.68 -4.48 0
v -56.32 -5.12 0
v -56.96 -5.12 0
v -56.96 -4.48 0
v -56.32 -4.48 0
v -2.56 -5.76 0
v -3.2 -5.76 0
v -3.2 -5.12 0
v -2.56 -5.12 0
v -12.8 -5.76 0
v -13.44 -5.76 0
v -13.44 -5.12 0
v -12.8 -5.12 0
v -23.04 -5.76 0
v -23.68 -5.76 0
v -23.68 -5.12 0
v -23.04 -5.12 0
v -33.28 -5.76 0
v -33.92 -5.76 0
v -33.92 -5.12 0
v -33.28 -5.12 0
v -43.52 -5.76 0
v -44.16 -5.76 0
v -44.16 -5.12 0
v -43.52 -5.12 0
v -53.76 -5.76 0
v -54.4 -5.76 0
v -54.4 -5.12 0
v -53.76 -5.12 0
v 0 -6.4 0
v -0.64 -6.4 0
v -0.64 -5.76 0
v 0 -5.76 0
v -10.24 -6.4 0
v -10.88 -6.4 0
v -10.88 -5.76 0
v -10.24 -5.76 0
v -20.48 -6.4 0
v -21.12 -6.4 0
v -21.12 -5.76 0
v -20.48 -5.76 0
v -30.72 -6.4 0
v -31.36 -6.4 0
v -31.36 -5.76 0
v -30.72 -5.76 0
v -40.96 -6.4 0
v -41.6 -6.4 0
v -41.6 -5.76 0
v -40.96 -5.76 0
v -51.2 -6.4 0
v -51.84 -6.4 0
v -51.84 -5.76 0
v -51.2 -5.76 0
v -61.44 -6.4 0
v -62.08 -6.4 0
v -62.08 -5.76 0
v -61.44 -5.76 0
v -10.24 -9.599999 0
v -10.88 -9.599999 0
v -10.88 -8.96 0
v -10.24 -8.96 0
v -10.88 -9.599999 0
v -11.52 -9.599999 0
v -11.52 -8.96 0
v -10.88 -8.96 0
v -11.52 -9.599999 0
v -12.16 -9.599999 0
v -12.16 -8.96 0
v -11.52 -8.96 0
v -12.16 -9.599999 0
v -12.8 -9.599999 0
v -12.8 -8.96 0
v -12.16 -8.96 0
v -12.8 -9.599999 0
v -13.44 -9.599999 0
v -13.44 -8.96 0
v -12.8 -8.96 0
v -13.44 -9.599999 0
v -14.08 -9.599999 0
v -14.08 -8.96 0
v -13.44 -8.96 0
v -14.08 -9.599999 0
v -14.72 -9.599999 0
v -14.72 -8.96 0
v -14.08 -8.96 0
v -14.72 -9.599999 0
v -15.36 -9.599999 0
v -15.36 -8.96 0
v -14.72 -8.96 0
v -21.12 -9.599999 0
v -21.76 -9.599999 0
v -21.76 -8.96 0
v -21.12 -8.96 0
v -21.76 -9.599999 0
v -22.4 -9.599999 0
v -22.4 -8.96 0
v -21.76 -8.96 0
v -22.4 -9.599999 0
v -23.04 -9.599999 0
v -23.04 -8.96 0
v -22.4 -8.96 0
v -23.04 -9.599999 0
v -23.68 -9.599999 0
v -23.68 -8.96 0
v -23.04 -8.96 0
v -23.68 -9.599999 0
v -24.32 -9.599999 0
v -24.32 -8.96 0
v -23.68 -8.96 0
v -24.32 -9.599999 0
v -24.96 -9.599999 0
v -24.96 -8.96 0
v -24.32 -8.96 0
v -24.96 -9.599999 0
v -25.6 -9.599999 0
v -25.6 -8.96 0
v -24.96 -8.96 0
v -40.96 -10.88 0
v -41.6 -10.88 0
v -41.6 -10.24 0
v -40.96 -10.24 0
v -41.6 -10.88 0
v -42.24 -10.88 0
v -42.24 -10.24 0
v -41.6 -10.24 0
v -51.2 -10.88 0
v -51.84 -10.88 0
v -51.84 -10.24 0
v -51.2 -10.24 0
v -48 -13.44 0
v -48.64 -13.44 0
v -48.64 -12.8 0
v -48 -12.8 0
v -48.64 -13.44 0
v -49.28 -13.44 0
v -49.28 -12.8 0
v -48.64 -12.8 0
v -49.28 -13.44 0
v -49.92 -13.44 0
v -49.92 -12.8 0
v -49.28 -12.8 0
v -49.92 -13.44 0
v -50.56 -13.44 0
v -50.56 -12.8 0
v -49.92 -12.8 0

# Texture cooridinates (Count = 28)
vt 0.15 0.85
vt 0.2 0.85
vt 0.2 0.9
vt 0.15 0.9
vt 0.15 0.8
vt 0.2 0.8
vt 0.25 0.5
vt 0.2 0.5
vt 0.2 0.45
vt 0.25 0.45
vt 0.05 0.95
vt 0.1 0.95
vt 0.1 1
vt 0.05 1
vt 0.15 0.95
vt 0.15 1
vt 0.2 0.95
vt 0.2 1
vt 0.45 0.6
vt 0.45 0.55
vt 0.5 0.55
vt 0.5 0.6
vt 0.25 0.95
vt 0.25 1
vt 0.15 0.5
vt 0.15 0.45
vt 0.2 0.55
vt 0.15 0.55

# Normal
vn 0 0 -1

# Mesh description
g NewBadManor_mesh_0057

# Faces
f 1/1/1 2/2/1 3/3/1 4/4/1
f 5/1/1 6/2/1 7/3/1 8/4/1
f 9/1/1 10/2/1 11/3/1 12/4/1
f 13/1/1 14/2/1 15/3/1 16/4/1
f 17/1/1 18/2/1 19/3/1 20/4/1
f 21/1/1 22/2/1 23/3/1 24/4/1
f 25/1/1 26/2/1 27/3/1 28/4/1
f 29/1/1 30/2/1 31/3/1 32/4/1
f 33/1/1 34/2/1 35/3/1 36/4/1
f 37/1/1 38/2/1 39/3/1 40/4/1
f 41/1/1 42/2/1 43/3/1 44/4/1
f 45/5/1 46/6/1 47/2/1 48/1/1
f 49/5/1 50/6/1 51/2/1 52/1/1
f 53/5/1 54/6/1 55/2/1 56/1/1
f 57/5/1 58/6/1 59/2/1 60/1/1
f 61/5/1 62/6/1 63/2/1 64/1/1
f 65/5/1 66/6/1 67/2/1 68/1/1
f 69/5/1 70/6/1 71/2/1 72/1/1
f 73/5/1 74/6/1 75/2/1 76/1/1
f 77/5/1 78/6/1 79/2/1 80/1/1
f 81/5/1 82/6/1 83/2/1 84/1/1
f 85/5/1 86/6/1 87/2/1 88/1/1
f 89/5/1 90/6/1 91/2/1 92/1/1
f 93/1/1 94/2/1 95/3/1 96/4/1
f 97/1/1 98/2/1 99/3/1 100/4/1
f 101/1/1 102/2/1 103/3/1 104/4/1
f 105/1/1 106/2/1 107/3/1 108/4/1
f 109/1/1 110/2/1 111/3/1 112/4/1
f 113/1/1 114/2/1 115/3/1 116/4/1
f 117/1/1 118/2/1 119/3/1 120/4/1
f 121/1/1 122/2/1 123/3/1 124/4/1
f 125/1/1 126/2/1 127/3/1 128/4/1
f 129/1/1 130/2/1 131/3/1 132/4/1
f 133/1/1 134/2/1 135/3/1 136/4/1
f 137/1/1 138/2/1 139/3/1 140/4/1
f 141/1/1 142/2/1 143/3/1 144/4/1
f 145/1/1 146/2/1 147/3/1 148/4/1
f 149/1/1 150/2/1 151/3/1 152/4/1
f 153/5/1 154/6/1 155/2/1 156/1/1
f 157/5/1 158/6/1 159/2/1 160/1/1
f 161/5/1 162/6/1 163/2/1 164/1/1
f 165/1/1 166/2/1 167/3/1 168/4/1
f 169/1/1 170/2/1 171/3/1 172/4/1
f 173/1/1 174/2/1 175/3/1 176/4/1
f 177/1/1 178/2/1 179/3/1 180/4/1
f 181/1/1 182/2/1 183/3/1 184/4/1
f 185/1/1 186/2/1 187/3/1 188/4/1
f 189/1/1 190/2/1 191/3/1 192/4/1
f 193/1/1 194/2/1 195/3/1 196/4/1
f 197/1/1 198/2/1 199/3/1 200/4/1
f 201/1/1 202/2/1 203/3/1 204/4/1
f 205/1/1 206/2/1 207/3/1 208/4/1
f 209/1/1 210/2/1 211/3/1 212/4/1
f 213/1/1 214/2/1 215/3/1 216/4/1
f 217/1/1 218/2/1 219/3/1 220/4/1
f 221/1/1 222/2/1 223/3/1 224/4/1
f 225/1/1 226/2/1 227/3/1 228/4/1
f 229/1/1 230/2/1 231/3/1 232/4/1
f 233/1/1 234/2/1 235/3/1 236/4/1
f 237/5/1 238/6/1 239/2/1 240/1/1
f 241/5/1 242/6/1 243/2/1 244/1/1
f 245/5/1 246/6/1 247/2/1 248/1/1
f 249/5/1 250/6/1 251/2/1 252/1/1
f 253/5/1 254/6/1 255/2/1 256/1/1
f 257/5/1 258/6/1 259/2/1 260/1/1
f 261/5/1 262/6/1 263/2/1 264/1/1
f 265/5/1 266/6/1 267/2/1 268/1/1
f 269/5/1 270/6/1 271/2/1 272/1/1
f 273/5/1 274/6/1 275/2/1 276/1/1
f 277/5/1 278/6/1 279/2/1 280/1/1
f 281/1/1 282/2/1 283/3/1 284/4/1
f 285/1/1 286/2/1 287/3/1 288/4/1
f 289/1/1 290/2/1 291/3/1 292/4/1
f 293/1/1 294/2/1 295/3/1 296/4/1
f 297/1/1 298/2/1 299/3/1 300/4/1
f 301/1/1 302/2/1 303/3/1 304/4/1
f 305/1/1 306/2/1 307/3/1 308/4/1
f 309/1/1 310/2/1 311/3/1 312/4/1
f 313/1/1 314/2/1 315/3/1 316/4/1
f 317/1/1 318/2/1 319/3/1 320/4/1
f 321/1/1 322/2/1 323/3/1 324/4/1
f 325/1/1 326/2/1 327/3/1 328/4/1
f 329/5/1 330/6/1 331/2/1 332/1/1
f 333/1/1 334/2/1 335/3/1 336/4/1
f 337/1/1 338/2/1 339/3/1 340/4/1
f 341/1/1 342/2/1 343/3/1 344/4/1
f 345/1/1 346/2/1 347/3/1 348/4/1
f 349/1/1 350/2/1 351/3/1 352/4/1
f 353/5/1 354/6/1 355/2/1 356/1/1
f 357/5/1 358/6/1 359/2/1 360/1/1
f 361/5/1 362/6/1 363/2/1 364/1/1
f 365/5/1 366/6/1 367/2/1 368/1/1
f 369/1/1 370/2/1 371/3/1 372/4/1
f 373/1/1 374/2/1 375/3/1 376/4/1
f 377/1/1 378/2/1 379/3/1 380/4/1
f 381/1/1 382/2/1 383/3/1 384/4/1
f 385/1/1 386/2/1 387/3/1 388/4/1
f 389/1/1 390/2/1 391/3/1 392/4/1
f 393/1/1 394/2/1 395/3/1 396/4/1
f 397/1/1 398/2/1 399/3/1 400/4/1
f 401/1/1 402/2/1 403/3/1 404/4/1
f 405/1/1 406/2/1 407/3/1 408/4/1
f 409/1/1 410/2/1 411/3/1 412/4/1
f 413/1/1 414/2/1 415/3/1 416/4/1
f 417/1/1 418/2/1 419/3/1 420/4/1
f 421/5/1 422/6/1 423/2/1 424/1/1
f 425/7/1 426/8/1 427/9/1 428/10/1
f 429/11/1 430/12/1 431/13/1 432/14/1
f 433/11/1 434/12/1 435/13/1 436/14/1
f 437/11/1 438/12/1 439/13/1 440/14/1
f 441/11/1 442/12/1 443/13/1 444/14/1
f 445/11/1 446/12/1 447/13/1 448/14/1
f 449/12/1 450/15/1 451/16/1 452/13/1
f 453/15/1 454/17/1 455/18/1 456/16/1
f 457/19/1 458/20/1 459/21/1 460/22/1
f 461/19/1 462/20/1 463/21/1 464/22/1
f 465/19/1 466/20/1 467/21/1 468/22/1
f 469/19/1 470/20/1 471/21/1 472/22/1
f 473/19/1 474/20/1 475/21/1 476/22/1
f 477/19/1 478/20/1 479/21/1 480/22/1
f 481/19/1 482/20/1 483/21/1 484/22/1
f 485/17/1 486/23/1 487/24/1 488/18/1
f 489/8/1 490/25/1 491/26/1 492/9/1
f 493/19/1 494/20/1 495/21/1 496/22/1
f 497/8/1 498/27/1 499/28/1 500/25/1
f 501/8/1 502/27/1 503/28/1 504/25/1
f 505/8/1 506/27/1 507/28/1 508/25/1
f 509/8/1 510/27/1 511/28/1 512/25/1

