# Tiled2Unity generated file. Do not modify by hand.
# Wavefront file for 'NewBadManor_mesh_0120.obj'

# Vertices (Count = 116)
v -0.96 -3.84 -0.06936416
v -1.28 -3.84 -0.06936416
v -1.28 -3.52 -0.06936416
v -0.96 -3.52 -0.06936416
v -1.28 -3.84 -0.06936416
v -1.6 -3.84 -0.06936416
v -1.6 -3.52 -0.06936416
v -1.28 -3.52 -0.06936416
v -1.6 -3.84 -0.06936416
v -1.92 -3.84 -0.06936416
v -1.92 -3.52 -0.06936416
v -1.6 -3.52 -0.06936416
v -1.92 -3.84 -0.06936416
v -2.24 -3.84 -0.06936416
v -2.24 -3.52 -0.06936416
v -1.92 -3.52 -0.06936416
v -2.24 -3.84 -0.06936416
v -2.56 -3.84 -0.06936416
v -2.56 -3.52 -0.06936416
v -2.24 -3.52 -0.06936416
v -2.56 -3.84 -0.06936416
v -2.88 -3.84 -0.06936416
v -2.88 -3.52 -0.06936416
v -2.56 -3.52 -0.06936416
v -2.88 -3.84 -0.06936416
v -3.2 -3.84 -0.06936416
v -3.2 -3.52 -0.06936416
v -2.88 -3.52 -0.06936416
v -3.2 -3.84 -0.06936416
v -3.52 -3.84 -0.06936416
v -3.52 -3.52 -0.06936416
v -3.2 -3.52 -0.06936416
v -3.52 -3.84 -0.06936416
v -3.84 -3.84 -0.06936416
v -3.84 -3.52 -0.06936416
v -3.52 -3.52 -0.06936416
v -3.84 -3.84 -0.06936416
v -4.16 -3.84 -0.06936416
v -4.16 -3.52 -0.06936416
v -3.84 -3.52 -0.06936416
v -4.16 -3.84 -0.06936416
v -4.48 -3.84 -0.06936416
v -4.48 -3.52 -0.06936416
v -4.16 -3.52 -0.06936416
v -4.48 -3.84 -0.06936416
v -4.8 -3.84 -0.06936416
v -4.8 -3.52 -0.06936416
v -4.48 -3.52 -0.06936416
v -4.8 -3.84 -0.06936416
v -5.12 -3.84 -0.06936416
v -5.12 -3.52 -0.06936416
v -4.8 -3.52 -0.06936416
v -0.96 -4.16 -0.07514451
v -1.28 -4.16 -0.07514451
v -1.28 -3.84 -0.07514451
v -0.96 -3.84 -0.07514451
v -1.28 -4.16 -0.07514451
v -1.6 -4.16 -0.07514451
v -1.6 -3.84 -0.07514451
v -1.28 -3.84 -0.07514451
v -1.6 -4.16 -0.07514451
v -1.92 -4.16 -0.07514451
v -1.92 -3.84 -0.07514451
v -1.6 -3.84 -0.07514451
v -1.92 -4.16 -0.07514451
v -2.24 -4.16 -0.07514451
v -2.24 -3.84 -0.07514451
v -1.92 -3.84 -0.07514451
v -2.24 -4.16 -0.07514451
v -2.56 -4.16 -0.07514451
v -2.56 -3.84 -0.07514451
v -2.24 -3.84 -0.07514451
v -2.56 -4.16 -0.07514451
v -2.88 -4.16 -0.07514451
v -2.88 -3.84 -0.07514451
v -2.56 -3.84 -0.07514451
v -2.88 -4.16 -0.07514451
v -3.2 -4.16 -0.07514451
v -3.2 -3.84 -0.07514451
v -2.88 -3.84 -0.07514451
v -3.2 -4.16 -0.07514451
v -3.52 -4.16 -0.07514451
v -3.52 -3.84 -0.07514451
v -3.2 -3.84 -0.07514451
v -3.52 -4.16 -0.07514451
v -3.84 -4.16 -0.07514451
v -3.84 -3.84 -0.07514451
v -3.52 -3.84 -0.07514451
v -3.84 -4.16 -0.07514451
v -4.16 -4.16 -0.07514451
v -4.16 -3.84 -0.07514451
v -3.84 -3.84 -0.07514451
v -4.16 -4.16 -0.07514451
v -4.48 -4.16 -0.07514451
v -4.48 -3.84 -0.07514451
v -4.16 -3.84 -0.07514451
v -4.48 -4.16 -0.07514451
v -4.8 -4.16 -0.07514451
v -4.8 -3.84 -0.07514451
v -4.48 -3.84 -0.07514451
v -4.8 -4.16 -0.07514451
v -5.12 -4.16 -0.07514451
v -5.12 -3.84 -0.07514451
v -4.8 -3.84 -0.07514451
v -4.8 -4.48 -0.08092485
v -5.12 -4.48 -0.08092485
v -5.12 -4.16 -0.08092485
v -4.8 -4.16 -0.08092485
v -4.8 -4.8 -0.0867052
v -5.12 -4.8 -0.0867052
v -5.12 -4.48 -0.0867052
v -4.8 -4.48 -0.0867052
v -4.8 -5.12 -0.09248555
v -5.12 -5.12 -0.09248555
v -5.12 -4.8 -0.09248555
v -4.8 -4.8 -0.09248555

# Texture cooridinates (Count = 9)
vt 0.1666667 0.7666667
vt 0.2083333 0.7666667
vt 0.2083333 0.8
vt 0.1666667 0.8
vt 0.25 0.7666667
vt 0.25 0.8
vt 0.1666667 0.7333333
vt 0.2083333 0.7333333
vt 0.25 0.7333333

# Normal
vn 0 0 -1

# Mesh description
g NewBadManor_mesh_0120

# Faces
f 1/1/1 2/2/1 3/3/1 4/4/1
f 5/2/1 6/5/1 7/6/1 8/3/1
f 9/1/1 10/2/1 11/3/1 12/4/1
f 13/2/1 14/5/1 15/6/1 16/3/1
f 17/1/1 18/2/1 19/3/1 20/4/1
f 21/2/1 22/5/1 23/6/1 24/3/1
f 25/1/1 26/2/1 27/3/1 28/4/1
f 29/2/1 30/5/1 31/6/1 32/3/1
f 33/1/1 34/2/1 35/3/1 36/4/1
f 37/2/1 38/5/1 39/6/1 40/3/1
f 41/1/1 42/2/1 43/3/1 44/4/1
f 45/2/1 46/5/1 47/6/1 48/3/1
f 49/1/1 50/2/1 51/3/1 52/4/1
f 53/7/1 54/8/1 55/2/1 56/1/1
f 57/8/1 58/9/1 59/5/1 60/2/1
f 61/7/1 62/8/1 63/2/1 64/1/1
f 65/8/1 66/9/1 67/5/1 68/2/1
f 69/7/1 70/8/1 71/2/1 72/1/1
f 73/8/1 74/9/1 75/5/1 76/2/1
f 77/7/1 78/8/1 79/2/1 80/1/1
f 81/8/1 82/9/1 83/5/1 84/2/1
f 85/7/1 86/8/1 87/2/1 88/1/1
f 89/8/1 90/9/1 91/5/1 92/2/1
f 93/7/1 94/8/1 95/2/1 96/1/1
f 97/8/1 98/9/1 99/5/1 100/2/1
f 101/7/1 102/8/1 103/2/1 104/1/1
f 105/1/1 106/2/1 107/3/1 108/4/1
f 109/7/1 110/8/1 111/2/1 112/1/1
f 113/1/1 114/2/1 115/3/1 116/4/1

