# Tiled2Unity generated file. Do not modify by hand.
# Wavefront file for 'NewBadManor_mesh_0272.obj'

# Vertices (Count = 56)
v -4.48 -0.32 -0.005780347
v -4.8 -0.32 -0.005780347
v -4.8 0 -0.005780347
v -4.48 0 -0.005780347
v -4.8 -0.32 -0.005780347
v -5.12 -0.32 -0.005780347
v -5.12 0 -0.005780347
v -4.8 0 -0.005780347
v -4.48 -0.64 -0.01156069
v -4.8 -0.64 -0.01156069
v -4.8 -0.32 -0.01156069
v -4.48 -0.32 -0.01156069
v -4.8 -0.64 -0.01156069
v -5.12 -0.64 -0.01156069
v -5.12 -0.32 -0.01156069
v -4.8 -0.32 -0.01156069
v -4.48 -0.96 -0.01734104
v -4.8 -0.96 -0.01734104
v -4.8 -0.64 -0.01734104
v -4.48 -0.64 -0.01734104
v -4.8 -0.96 -0.01734104
v -5.12 -0.96 -0.01734104
v -5.12 -0.64 -0.01734104
v -4.8 -0.64 -0.01734104
v -4.48 -1.28 -0.02312139
v -4.8 -1.28 -0.02312139
v -4.8 -0.96 -0.02312139
v -4.48 -0.96 -0.02312139
v -4.8 -1.28 -0.02312139
v -5.12 -1.28 -0.02312139
v -5.12 -0.96 -0.02312139
v -4.8 -0.96 -0.02312139
v -4.48 -1.6 -0.02890173
v -4.8 -1.6 -0.02890173
v -4.8 -1.28 -0.02890173
v -4.48 -1.28 -0.02890173
v -4.8 -1.6 -0.02890173
v -5.12 -1.6 -0.02890173
v -5.12 -1.28 -0.02890173
v -4.8 -1.28 -0.02890173
v -4.48 -1.92 -0.03468208
v -4.8 -1.92 -0.03468208
v -4.8 -1.6 -0.03468208
v -4.48 -1.6 -0.03468208
v -4.8 -1.92 -0.03468208
v -5.12 -1.92 -0.03468208
v -5.12 -1.6 -0.03468208
v -4.8 -1.6 -0.03468208
v -4.48 -2.24 -0.04046243
v -4.8 -2.24 -0.04046243
v -4.8 -1.92 -0.04046243
v -4.48 -1.92 -0.04046243
v -4.8 -2.24 -0.04046243
v -5.12 -2.24 -0.04046243
v -5.12 -1.92 -0.04046243
v -4.8 -1.92 -0.04046243

# Texture cooridinates (Count = 18)
vt 0.75 0.3888889
vt 0.7916667 0.3888889
vt 0.7916667 0.4444444
vt 0.75 0.4444444
vt 0.8333333 0.3888889
vt 0.8333333 0.4444444
vt 0.75 0.3333333
vt 0.7916667 0.3333333
vt 0.8333333 0.3333333
vt 0.7916667 0.5
vt 0.75 0.5
vt 0.8333333 0.5
vt 0.75 0.2777778
vt 0.7916667 0.2777778
vt 0.8333333 0.2777778
vt 0.75 0.2222222
vt 0.7916667 0.2222222
vt 0.8333333 0.2222222

# Normal
vn 0 0 -1

# Mesh description
g NewBadManor_mesh_0272

# Faces
f 1/1/1 2/2/1 3/3/1 4/4/1
f 5/2/1 6/5/1 7/6/1 8/3/1
f 9/7/1 10/8/1 11/2/1 12/1/1
f 13/8/1 14/9/1 15/5/1 16/2/1
f 17/4/1 18/3/1 19/10/1 20/11/1
f 21/3/1 22/6/1 23/12/1 24/10/1
f 25/1/1 26/2/1 27/3/1 28/4/1
f 29/2/1 30/5/1 31/6/1 32/3/1
f 33/7/1 34/8/1 35/2/1 36/1/1
f 37/8/1 38/9/1 39/5/1 40/2/1
f 41/13/1 42/14/1 43/8/1 44/7/1
f 45/14/1 46/15/1 47/9/1 48/8/1
f 49/16/1 50/17/1 51/14/1 52/13/1
f 53/17/1 54/18/1 55/15/1 56/14/1

