# Tiled2Unity generated file. Do not modify by hand.
# Wavefront file for 'NewBadManor_mesh_0337.obj'

# Vertices (Count = 152)
v -3.52 -0.64 -0.01156069
v -3.84 -0.64 -0.01156069
v -3.84 -0.32 -0.01156069
v -3.52 -0.32 -0.01156069
v -3.84 -0.64 -0.01156069
v -4.16 -0.64 -0.01156069
v -4.16 -0.32 -0.01156069
v -3.84 -0.32 -0.01156069
v -4.16 -0.64 -0.01156069
v -4.48 -0.64 -0.01156069
v -4.48 -0.32 -0.01156069
v -4.16 -0.32 -0.01156069
v -4.8 -0.64 -0.01156069
v -5.12 -0.64 -0.01156069
v -5.12 -0.32 -0.01156069
v -4.8 -0.32 -0.01156069
v -3.52 -0.96 -0.01734104
v -3.84 -0.96 -0.01734104
v -3.84 -0.64 -0.01734104
v -3.52 -0.64 -0.01734104
v -3.84 -0.96 -0.01734104
v -4.16 -0.96 -0.01734104
v -4.16 -0.64 -0.01734104
v -3.84 -0.64 -0.01734104
v -4.16 -0.96 -0.01734104
v -4.48 -0.96 -0.01734104
v -4.48 -0.64 -0.01734104
v -4.16 -0.64 -0.01734104
v -4.8 -0.96 -0.01734104
v -5.12 -0.96 -0.01734104
v -5.12 -0.64 -0.01734104
v -4.8 -0.64 -0.01734104
v -3.52 -1.28 -0.02312139
v -3.84 -1.28 -0.02312139
v -3.84 -0.96 -0.02312139
v -3.52 -0.96 -0.02312139
v -3.84 -1.28 -0.02312139
v -4.16 -1.28 -0.02312139
v -4.16 -0.96 -0.02312139
v -3.84 -0.96 -0.02312139
v -4.16 -1.28 -0.02312139
v -4.48 -1.28 -0.02312139
v -4.48 -0.96 -0.02312139
v -4.16 -0.96 -0.02312139
v -4.8 -1.28 -0.02312139
v -5.12 -1.28 -0.02312139
v -5.12 -0.96 -0.02312139
v -4.8 -0.96 -0.02312139
v -3.52 -1.6 -0.02890173
v -3.84 -1.6 -0.02890173
v -3.84 -1.28 -0.02890173
v -3.52 -1.28 -0.02890173
v -3.84 -1.6 -0.02890173
v -4.16 -1.6 -0.02890173
v -4.16 -1.28 -0.02890173
v -3.84 -1.28 -0.02890173
v -4.16 -1.6 -0.02890173
v -4.48 -1.6 -0.02890173
v -4.48 -1.28 -0.02890173
v -4.16 -1.28 -0.02890173
v -3.52 -1.92 -0.03468208
v -3.84 -1.92 -0.03468208
v -3.84 -1.6 -0.03468208
v -3.52 -1.6 -0.03468208
v -3.84 -1.92 -0.03468208
v -4.16 -1.92 -0.03468208
v -4.16 -1.6 -0.03468208
v -3.84 -1.6 -0.03468208
v -3.52 -2.24 -0.04046243
v -3.84 -2.24 -0.04046243
v -3.84 -1.92 -0.04046243
v -3.52 -1.92 -0.04046243
v -3.84 -2.24 -0.04046243
v -4.16 -2.24 -0.04046243
v -4.16 -1.92 -0.04046243
v -3.84 -1.92 -0.04046243
v -4.16 -2.24 -0.04046243
v -4.48 -2.24 -0.04046243
v -4.48 -1.92 -0.04046243
v -4.16 -1.92 -0.04046243
v -4.48 -2.24 -0.04046243
v -4.8 -2.24 -0.04046243
v -4.8 -1.92 -0.04046243
v -4.48 -1.92 -0.04046243
v -3.52 -2.56 -0.04624277
v -3.84 -2.56 -0.04624277
v -3.84 -2.24 -0.04624277
v -3.52 -2.24 -0.04624277
v -3.84 -2.56 -0.04624277
v -4.16 -2.56 -0.04624277
v -4.16 -2.24 -0.04624277
v -3.84 -2.24 -0.04624277
v -4.16 -2.56 -0.04624277
v -4.48 -2.56 -0.04624277
v -4.48 -2.24 -0.04624277
v -4.16 -2.24 -0.04624277
v -4.48 -2.56 -0.04624277
v -4.8 -2.56 -0.04624277
v -4.8 -2.24 -0.04624277
v -4.48 -2.24 -0.04624277
v -3.52 -2.88 -0.05202312
v -3.84 -2.88 -0.05202312
v -3.84 -2.56 -0.05202312
v -3.52 -2.56 -0.05202312
v -3.84 -2.88 -0.05202312
v -4.16 -2.88 -0.05202312
v -4.16 -2.56 -0.05202312
v -3.84 -2.56 -0.05202312
v -4.48 -2.88 -0.05202312
v -4.8 -2.88 -0.05202312
v -4.8 -2.56 -0.05202312
v -4.48 -2.56 -0.05202312
v -3.52 -3.2 -0.05780347
v -3.84 -3.2 -0.05780347
v -3.84 -2.88 -0.05780347
v -3.52 -2.88 -0.05780347
v -3.84 -3.2 -0.05780347
v -4.16 -3.2 -0.05780347
v -4.16 -2.88 -0.05780347
v -3.84 -2.88 -0.05780347
v -3.52 -3.52 -0.06358381
v -3.84 -3.52 -0.06358381
v -3.84 -3.2 -0.06358381
v -3.52 -3.2 -0.06358381
v -3.84 -3.52 -0.06358381
v -4.16 -3.52 -0.06358381
v -4.16 -3.2 -0.06358381
v -3.84 -3.2 -0.06358381
v -3.52 -3.84 -0.06936416
v -3.84 -3.84 -0.06936416
v -3.84 -3.52 -0.06936416
v -3.52 -3.52 -0.06936416
v -3.84 -3.84 -0.06936416
v -4.16 -3.84 -0.06936416
v -4.16 -3.52 -0.06936416
v -3.84 -3.52 -0.06936416
v -3.52 -4.16 -0.07514451
v -3.84 -4.16 -0.07514451
v -3.84 -3.84 -0.07514451
v -3.52 -3.84 -0.07514451
v -3.52 -4.48 -0.08092485
v -3.84 -4.48 -0.08092485
v -3.84 -4.16 -0.08092485
v -3.52 -4.16 -0.08092485
v -3.84 -4.48 -0.08092485
v -4.16 -4.48 -0.08092485
v -4.16 -4.16 -0.08092485
v -3.84 -4.16 -0.08092485
v -4.16 -4.48 -0.08092485
v -4.48 -4.48 -0.08092485
v -4.48 -4.16 -0.08092485
v -4.16 -4.16 -0.08092485

# Texture cooridinates (Count = 42)
vt 0.375 0.96875
vt 0.40625 0.96875
vt 0.40625 1
vt 0.375 1
vt 0.5625 0.4375
vt 0.59375 0.4375
vt 0.59375 0.46875
vt 0.5625 0.46875
vt 0.4375 0.71875
vt 0.46875 0.71875
vt 0.46875 0.75
vt 0.4375 0.75
vt 0.5 0.71875
vt 0.5 0.75
vt 0.6875 0.46875
vt 0.71875 0.46875
vt 0.71875 0.5
vt 0.6875 0.5
vt 0.5625 0.71875
vt 0.59375 0.71875
vt 0.59375 0.75
vt 0.5625 0.75
vt 0.625 0.71875
vt 0.625 0.75
vt 0.6875 0.4375
vt 0.71875 0.4375
vt 0.53125 0.71875
vt 0.53125 0.75
vt 0.375 0.84375
vt 0.40625 0.84375
vt 0.40625 0.875
vt 0.375 0.875
vt 0.4375 0.84375
vt 0.4375 0.875
vt 0.3125 0.9375
vt 0.34375 0.9375
vt 0.34375 0.96875
vt 0.3125 0.96875
vt 0.375 0.9375
vt 0.3125 0.90625
vt 0.34375 0.90625
vt 0.375 0.90625

# Normal
vn 0 0 -1

# Mesh description
g NewBadManor_mesh_0337

# Faces
f 1/1/1 2/2/1 3/3/1 4/4/1
f 5/1/1 6/2/1 7/3/1 8/4/1
f 9/1/1 10/2/1 11/3/1 12/4/1
f 13/5/1 14/6/1 15/7/1 16/8/1
f 17/1/1 18/2/1 19/3/1 20/4/1
f 21/9/1 22/10/1 23/11/1 24/12/1
f 25/10/1 26/13/1 27/14/1 28/11/1
f 29/15/1 30/16/1 31/17/1 32/18/1
f 33/1/1 34/2/1 35/3/1 36/4/1
f 37/19/1 38/20/1 39/21/1 40/22/1
f 41/20/1 42/23/1 43/24/1 44/21/1
f 45/25/1 46/26/1 47/16/1 48/15/1
f 49/1/1 50/2/1 51/3/1 52/4/1
f 53/13/1 54/27/1 55/28/1 56/14/1
f 57/27/1 58/19/1 59/22/1 60/28/1
f 61/29/1 62/30/1 63/31/1 64/32/1
f 65/30/1 66/33/1 67/34/1 68/31/1
f 69/29/1 70/30/1 71/31/1 72/32/1
f 73/30/1 74/33/1 75/34/1 76/31/1
f 77/35/1 78/36/1 79/37/1 80/38/1
f 81/36/1 82/39/1 83/1/1 84/37/1
f 85/29/1 86/30/1 87/31/1 88/32/1
f 89/30/1 90/33/1 91/34/1 92/31/1
f 93/40/1 94/41/1 95/36/1 96/35/1
f 97/41/1 98/42/1 99/39/1 100/36/1
f 101/29/1 102/30/1 103/31/1 104/32/1
f 105/30/1 106/33/1 107/34/1 108/31/1
f 109/1/1 110/2/1 111/3/1 112/4/1
f 113/29/1 114/30/1 115/31/1 116/32/1
f 117/30/1 118/33/1 119/34/1 120/31/1
f 121/29/1 122/30/1 123/31/1 124/32/1
f 125/30/1 126/33/1 127/34/1 128/31/1
f 129/29/1 130/30/1 131/31/1 132/32/1
f 133/30/1 134/33/1 135/34/1 136/31/1
f 137/1/1 138/2/1 139/3/1 140/4/1
f 141/1/1 142/2/1 143/3/1 144/4/1
f 145/1/1 146/2/1 147/3/1 148/4/1
f 149/1/1 150/2/1 151/3/1 152/4/1

