# Tiled2Unity generated file. Do not modify by hand.
# Wavefront file for 'NewBadManor_mesh_0107.obj'

# Vertices (Count = 520)
v -0.96 -2.24 -0.04046243
v -1.28 -2.24 -0.04046243
v -1.28 -1.92 -0.04046243
v -0.96 -1.92 -0.04046243
v -1.28 -2.24 -0.04046243
v -1.6 -2.24 -0.04046243
v -1.6 -1.92 -0.04046243
v -1.28 -1.92 -0.04046243
v -1.6 -2.24 -0.04046243
v -1.92 -2.24 -0.04046243
v -1.92 -1.92 -0.04046243
v -1.6 -1.92 -0.04046243
v -1.92 -2.24 -0.04046243
v -2.24 -2.24 -0.04046243
v -2.24 -1.92 -0.04046243
v -1.92 -1.92 -0.04046243
v -2.24 -2.24 -0.04046243
v -2.56 -2.24 -0.04046243
v -2.56 -1.92 -0.04046243
v -2.24 -1.92 -0.04046243
v -2.56 -2.24 -0.04046243
v -2.88 -2.24 -0.04046243
v -2.88 -1.92 -0.04046243
v -2.56 -1.92 -0.04046243
v -2.88 -2.24 -0.04046243
v -3.2 -2.24 -0.04046243
v -3.2 -1.92 -0.04046243
v -2.88 -1.92 -0.04046243
v -3.2 -2.24 -0.04046243
v -3.52 -2.24 -0.04046243
v -3.52 -1.92 -0.04046243
v -3.2 -1.92 -0.04046243
v -3.52 -2.24 -0.04046243
v -3.84 -2.24 -0.04046243
v -3.84 -1.92 -0.04046243
v -3.52 -1.92 -0.04046243
v -3.84 -2.24 -0.04046243
v -4.16 -2.24 -0.04046243
v -4.16 -1.92 -0.04046243
v -3.84 -1.92 -0.04046243
v -4.16 -2.24 -0.04046243
v -4.48 -2.24 -0.04046243
v -4.48 -1.92 -0.04046243
v -4.16 -1.92 -0.04046243
v -4.48 -2.24 -0.04046243
v -4.8 -2.24 -0.04046243
v -4.8 -1.92 -0.04046243
v -4.48 -1.92 -0.04046243
v -4.8 -2.24 -0.04046243
v -5.12 -2.24 -0.04046243
v -5.12 -1.92 -0.04046243
v -4.8 -1.92 -0.04046243
v -0.96 -2.56 -0.04624277
v -1.28 -2.56 -0.04624277
v -1.28 -2.24 -0.04624277
v -0.96 -2.24 -0.04624277
v -1.28 -2.56 -0.04624277
v -1.6 -2.56 -0.04624277
v -1.6 -2.24 -0.04624277
v -1.28 -2.24 -0.04624277
v -1.6 -2.56 -0.04624277
v -1.92 -2.56 -0.04624277
v -1.92 -2.24 -0.04624277
v -1.6 -2.24 -0.04624277
v -1.92 -2.56 -0.04624277
v -2.24 -2.56 -0.04624277
v -2.24 -2.24 -0.04624277
v -1.92 -2.24 -0.04624277
v -2.24 -2.56 -0.04624277
v -2.56 -2.56 -0.04624277
v -2.56 -2.24 -0.04624277
v -2.24 -2.24 -0.04624277
v -2.56 -2.56 -0.04624277
v -2.88 -2.56 -0.04624277
v -2.88 -2.24 -0.04624277
v -2.56 -2.24 -0.04624277
v -2.88 -2.56 -0.04624277
v -3.2 -2.56 -0.04624277
v -3.2 -2.24 -0.04624277
v -2.88 -2.24 -0.04624277
v -3.2 -2.56 -0.04624277
v -3.52 -2.56 -0.04624277
v -3.52 -2.24 -0.04624277
v -3.2 -2.24 -0.04624277
v -3.52 -2.56 -0.04624277
v -3.84 -2.56 -0.04624277
v -3.84 -2.24 -0.04624277
v -3.52 -2.24 -0.04624277
v -3.84 -2.56 -0.04624277
v -4.16 -2.56 -0.04624277
v -4.16 -2.24 -0.04624277
v -3.84 -2.24 -0.04624277
v -4.16 -2.56 -0.04624277
v -4.48 -2.56 -0.04624277
v -4.48 -2.24 -0.04624277
v -4.16 -2.24 -0.04624277
v -4.48 -2.56 -0.04624277
v -4.8 -2.56 -0.04624277
v -4.8 -2.24 -0.04624277
v -4.48 -2.24 -0.04624277
v -4.8 -2.56 -0.04624277
v -5.12 -2.56 -0.04624277
v -5.12 -2.24 -0.04624277
v -4.8 -2.24 -0.04624277
v -0.96 -2.88 -0.05202312
v -1.28 -2.88 -0.05202312
v -1.28 -2.56 -0.05202312
v -0.96 -2.56 -0.05202312
v -1.28 -2.88 -0.05202312
v -1.6 -2.88 -0.05202312
v -1.6 -2.56 -0.05202312
v -1.28 -2.56 -0.05202312
v -1.6 -2.88 -0.05202312
v -1.92 -2.88 -0.05202312
v -1.92 -2.56 -0.05202312
v -1.6 -2.56 -0.05202312
v -1.92 -2.88 -0.05202312
v -2.24 -2.88 -0.05202312
v -2.24 -2.56 -0.05202312
v -1.92 -2.56 -0.05202312
v -2.24 -2.88 -0.05202312
v -2.56 -2.88 -0.05202312
v -2.56 -2.56 -0.05202312
v -2.24 -2.56 -0.05202312
v -2.56 -2.88 -0.05202312
v -2.88 -2.88 -0.05202312
v -2.88 -2.56 -0.05202312
v -2.56 -2.56 -0.05202312
v -2.88 -2.88 -0.05202312
v -3.2 -2.88 -0.05202312
v -3.2 -2.56 -0.05202312
v -2.88 -2.56 -0.05202312
v -3.2 -2.88 -0.05202312
v -3.52 -2.88 -0.05202312
v -3.52 -2.56 -0.05202312
v -3.2 -2.56 -0.05202312
v -3.52 -2.88 -0.05202312
v -3.84 -2.88 -0.05202312
v -3.84 -2.56 -0.05202312
v -3.52 -2.56 -0.05202312
v -3.84 -2.88 -0.05202312
v -4.16 -2.88 -0.05202312
v -4.16 -2.56 -0.05202312
v -3.84 -2.56 -0.05202312
v -4.16 -2.88 -0.05202312
v -4.48 -2.88 -0.05202312
v -4.48 -2.56 -0.05202312
v -4.16 -2.56 -0.05202312
v -4.48 -2.88 -0.05202312
v -4.8 -2.88 -0.05202312
v -4.8 -2.56 -0.05202312
v -4.48 -2.56 -0.05202312
v -4.8 -2.88 -0.05202312
v -5.12 -2.88 -0.05202312
v -5.12 -2.56 -0.05202312
v -4.8 -2.56 -0.05202312
v -0.96 -3.2 -0.05780347
v -1.28 -3.2 -0.05780347
v -1.28 -2.88 -0.05780347
v -0.96 -2.88 -0.05780347
v -1.28 -3.2 -0.05780347
v -1.6 -3.2 -0.05780347
v -1.6 -2.88 -0.05780347
v -1.28 -2.88 -0.05780347
v -1.6 -3.2 -0.05780347
v -1.92 -3.2 -0.05780347
v -1.92 -2.88 -0.05780347
v -1.6 -2.88 -0.05780347
v -1.92 -3.2 -0.05780347
v -2.24 -3.2 -0.05780347
v -2.24 -2.88 -0.05780347
v -1.92 -2.88 -0.05780347
v -2.24 -3.2 -0.05780347
v -2.56 -3.2 -0.05780347
v -2.56 -2.88 -0.05780347
v -2.24 -2.88 -0.05780347
v -2.56 -3.2 -0.05780347
v -2.88 -3.2 -0.05780347
v -2.88 -2.88 -0.05780347
v -2.56 -2.88 -0.05780347
v -2.88 -3.2 -0.05780347
v -3.2 -3.2 -0.05780347
v -3.2 -2.88 -0.05780347
v -2.88 -2.88 -0.05780347
v -3.2 -3.2 -0.05780347
v -3.52 -3.2 -0.05780347
v -3.52 -2.88 -0.05780347
v -3.2 -2.88 -0.05780347
v -3.52 -3.2 -0.05780347
v -3.84 -3.2 -0.05780347
v -3.84 -2.88 -0.05780347
v -3.52 -2.88 -0.05780347
v -3.84 -3.2 -0.05780347
v -4.16 -3.2 -0.05780347
v -4.16 -2.88 -0.05780347
v -3.84 -2.88 -0.05780347
v -4.16 -3.2 -0.05780347
v -4.48 -3.2 -0.05780347
v -4.48 -2.88 -0.05780347
v -4.16 -2.88 -0.05780347
v -4.48 -3.2 -0.05780347
v -4.8 -3.2 -0.05780347
v -4.8 -2.88 -0.05780347
v -4.48 -2.88 -0.05780347
v -4.8 -3.2 -0.05780347
v -5.12 -3.2 -0.05780347
v -5.12 -2.88 -0.05780347
v -4.8 -2.88 -0.05780347
v -0.96 -3.52 -0.06358381
v -1.28 -3.52 -0.06358381
v -1.28 -3.2 -0.06358381
v -0.96 -3.2 -0.06358381
v -1.28 -3.52 -0.06358381
v -1.6 -3.52 -0.06358381
v -1.6 -3.2 -0.06358381
v -1.28 -3.2 -0.06358381
v -1.6 -3.52 -0.06358381
v -1.92 -3.52 -0.06358381
v -1.92 -3.2 -0.06358381
v -1.6 -3.2 -0.06358381
v -1.92 -3.52 -0.06358381
v -2.24 -3.52 -0.06358381
v -2.24 -3.2 -0.06358381
v -1.92 -3.2 -0.06358381
v -2.24 -3.52 -0.06358381
v -2.56 -3.52 -0.06358381
v -2.56 -3.2 -0.06358381
v -2.24 -3.2 -0.06358381
v -2.56 -3.52 -0.06358381
v -2.88 -3.52 -0.06358381
v -2.88 -3.2 -0.06358381
v -2.56 -3.2 -0.06358381
v -2.88 -3.52 -0.06358381
v -3.2 -3.52 -0.06358381
v -3.2 -3.2 -0.06358381
v -2.88 -3.2 -0.06358381
v -3.2 -3.52 -0.06358381
v -3.52 -3.52 -0.06358381
v -3.52 -3.2 -0.06358381
v -3.2 -3.2 -0.06358381
v -3.52 -3.52 -0.06358381
v -3.84 -3.52 -0.06358381
v -3.84 -3.2 -0.06358381
v -3.52 -3.2 -0.06358381
v -3.84 -3.52 -0.06358381
v -4.16 -3.52 -0.06358381
v -4.16 -3.2 -0.06358381
v -3.84 -3.2 -0.06358381
v -4.16 -3.52 -0.06358381
v -4.48 -3.52 -0.06358381
v -4.48 -3.2 -0.06358381
v -4.16 -3.2 -0.06358381
v -4.48 -3.52 -0.06358381
v -4.8 -3.52 -0.06358381
v -4.8 -3.2 -0.06358381
v -4.48 -3.2 -0.06358381
v -4.8 -3.52 -0.06358381
v -5.12 -3.52 -0.06358381
v -5.12 -3.2 -0.06358381
v -4.8 -3.2 -0.06358381
v -0.96 -3.84 -0.06936416
v -1.28 -3.84 -0.06936416
v -1.28 -3.52 -0.06936416
v -0.96 -3.52 -0.06936416
v -1.28 -3.84 -0.06936416
v -1.6 -3.84 -0.06936416
v -1.6 -3.52 -0.06936416
v -1.28 -3.52 -0.06936416
v -1.6 -3.84 -0.06936416
v -1.92 -3.84 -0.06936416
v -1.92 -3.52 -0.06936416
v -1.6 -3.52 -0.06936416
v -1.92 -3.84 -0.06936416
v -2.24 -3.84 -0.06936416
v -2.24 -3.52 -0.06936416
v -1.92 -3.52 -0.06936416
v -2.24 -3.84 -0.06936416
v -2.56 -3.84 -0.06936416
v -2.56 -3.52 -0.06936416
v -2.24 -3.52 -0.06936416
v -2.56 -3.84 -0.06936416
v -2.88 -3.84 -0.06936416
v -2.88 -3.52 -0.06936416
v -2.56 -3.52 -0.06936416
v -2.88 -3.84 -0.06936416
v -3.2 -3.84 -0.06936416
v -3.2 -3.52 -0.06936416
v -2.88 -3.52 -0.06936416
v -3.2 -3.84 -0.06936416
v -3.52 -3.84 -0.06936416
v -3.52 -3.52 -0.06936416
v -3.2 -3.52 -0.06936416
v -3.52 -3.84 -0.06936416
v -3.84 -3.84 -0.06936416
v -3.84 -3.52 -0.06936416
v -3.52 -3.52 -0.06936416
v -3.84 -3.84 -0.06936416
v -4.16 -3.84 -0.06936416
v -4.16 -3.52 -0.06936416
v -3.84 -3.52 -0.06936416
v -4.16 -3.84 -0.06936416
v -4.48 -3.84 -0.06936416
v -4.48 -3.52 -0.06936416
v -4.16 -3.52 -0.06936416
v -4.48 -3.84 -0.06936416
v -4.8 -3.84 -0.06936416
v -4.8 -3.52 -0.06936416
v -4.48 -3.52 -0.06936416
v -4.8 -3.84 -0.06936416
v -5.12 -3.84 -0.06936416
v -5.12 -3.52 -0.06936416
v -4.8 -3.52 -0.06936416
v -0.96 -4.16 -0.07514451
v -1.28 -4.16 -0.07514451
v -1.28 -3.84 -0.07514451
v -0.96 -3.84 -0.07514451
v -1.28 -4.16 -0.07514451
v -1.6 -4.16 -0.07514451
v -1.6 -3.84 -0.07514451
v -1.28 -3.84 -0.07514451
v -1.6 -4.16 -0.07514451
v -1.92 -4.16 -0.07514451
v -1.92 -3.84 -0.07514451
v -1.6 -3.84 -0.07514451
v -1.92 -4.16 -0.07514451
v -2.24 -4.16 -0.07514451
v -2.24 -3.84 -0.07514451
v -1.92 -3.84 -0.07514451
v -2.24 -4.16 -0.07514451
v -2.56 -4.16 -0.07514451
v -2.56 -3.84 -0.07514451
v -2.24 -3.84 -0.07514451
v -2.56 -4.16 -0.07514451
v -2.88 -4.16 -0.07514451
v -2.88 -3.84 -0.07514451
v -2.56 -3.84 -0.07514451
v -2.88 -4.16 -0.07514451
v -3.2 -4.16 -0.07514451
v -3.2 -3.84 -0.07514451
v -2.88 -3.84 -0.07514451
v -3.2 -4.16 -0.07514451
v -3.52 -4.16 -0.07514451
v -3.52 -3.84 -0.07514451
v -3.2 -3.84 -0.07514451
v -3.52 -4.16 -0.07514451
v -3.84 -4.16 -0.07514451
v -3.84 -3.84 -0.07514451
v -3.52 -3.84 -0.07514451
v -3.84 -4.16 -0.07514451
v -4.16 -4.16 -0.07514451
v -4.16 -3.84 -0.07514451
v -3.84 -3.84 -0.07514451
v -4.16 -4.16 -0.07514451
v -4.48 -4.16 -0.07514451
v -4.48 -3.84 -0.07514451
v -4.16 -3.84 -0.07514451
v -4.48 -4.16 -0.07514451
v -4.8 -4.16 -0.07514451
v -4.8 -3.84 -0.07514451
v -4.48 -3.84 -0.07514451
v -4.8 -4.16 -0.07514451
v -5.12 -4.16 -0.07514451
v -5.12 -3.84 -0.07514451
v -4.8 -3.84 -0.07514451
v -0.96 -4.48 -0.08092485
v -1.28 -4.48 -0.08092485
v -1.28 -4.16 -0.08092485
v -0.96 -4.16 -0.08092485
v -1.28 -4.48 -0.08092485
v -1.6 -4.48 -0.08092485
v -1.6 -4.16 -0.08092485
v -1.28 -4.16 -0.08092485
v -1.6 -4.48 -0.08092485
v -1.92 -4.48 -0.08092485
v -1.92 -4.16 -0.08092485
v -1.6 -4.16 -0.08092485
v -1.92 -4.48 -0.08092485
v -2.24 -4.48 -0.08092485
v -2.24 -4.16 -0.08092485
v -1.92 -4.16 -0.08092485
v -2.24 -4.48 -0.08092485
v -2.56 -4.48 -0.08092485
v -2.56 -4.16 -0.08092485
v -2.24 -4.16 -0.08092485
v -2.56 -4.48 -0.08092485
v -2.88 -4.48 -0.08092485
v -2.88 -4.16 -0.08092485
v -2.56 -4.16 -0.08092485
v -2.88 -4.48 -0.08092485
v -3.2 -4.48 -0.08092485
v -3.2 -4.16 -0.08092485
v -2.88 -4.16 -0.08092485
v -3.2 -4.48 -0.08092485
v -3.52 -4.48 -0.08092485
v -3.52 -4.16 -0.08092485
v -3.2 -4.16 -0.08092485
v -3.52 -4.48 -0.08092485
v -3.84 -4.48 -0.08092485
v -3.84 -4.16 -0.08092485
v -3.52 -4.16 -0.08092485
v -3.84 -4.48 -0.08092485
v -4.16 -4.48 -0.08092485
v -4.16 -4.16 -0.08092485
v -3.84 -4.16 -0.08092485
v -4.16 -4.48 -0.08092485
v -4.48 -4.48 -0.08092485
v -4.48 -4.16 -0.08092485
v -4.16 -4.16 -0.08092485
v -4.48 -4.48 -0.08092485
v -4.8 -4.48 -0.08092485
v -4.8 -4.16 -0.08092485
v -4.48 -4.16 -0.08092485
v -4.8 -4.48 -0.08092485
v -5.12 -4.48 -0.08092485
v -5.12 -4.16 -0.08092485
v -4.8 -4.16 -0.08092485
v -0.96 -4.8 -0.0867052
v -1.28 -4.8 -0.0867052
v -1.28 -4.48 -0.0867052
v -0.96 -4.48 -0.0867052
v -1.28 -4.8 -0.0867052
v -1.6 -4.8 -0.0867052
v -1.6 -4.48 -0.0867052
v -1.28 -4.48 -0.0867052
v -1.6 -4.8 -0.0867052
v -1.92 -4.8 -0.0867052
v -1.92 -4.48 -0.0867052
v -1.6 -4.48 -0.0867052
v -1.92 -4.8 -0.0867052
v -2.24 -4.8 -0.0867052
v -2.24 -4.48 -0.0867052
v -1.92 -4.48 -0.0867052
v -2.24 -4.8 -0.0867052
v -2.56 -4.8 -0.0867052
v -2.56 -4.48 -0.0867052
v -2.24 -4.48 -0.0867052
v -2.56 -4.8 -0.0867052
v -2.88 -4.8 -0.0867052
v -2.88 -4.48 -0.0867052
v -2.56 -4.48 -0.0867052
v -2.88 -4.8 -0.0867052
v -3.2 -4.8 -0.0867052
v -3.2 -4.48 -0.0867052
v -2.88 -4.48 -0.0867052
v -3.2 -4.8 -0.0867052
v -3.52 -4.8 -0.0867052
v -3.52 -4.48 -0.0867052
v -3.2 -4.48 -0.0867052
v -3.52 -4.8 -0.0867052
v -3.84 -4.8 -0.0867052
v -3.84 -4.48 -0.0867052
v -3.52 -4.48 -0.0867052
v -3.84 -4.8 -0.0867052
v -4.16 -4.8 -0.0867052
v -4.16 -4.48 -0.0867052
v -3.84 -4.48 -0.0867052
v -4.16 -4.8 -0.0867052
v -4.48 -4.8 -0.0867052
v -4.48 -4.48 -0.0867052
v -4.16 -4.48 -0.0867052
v -4.48 -4.8 -0.0867052
v -4.8 -4.8 -0.0867052
v -4.8 -4.48 -0.0867052
v -4.48 -4.48 -0.0867052
v -4.8 -4.8 -0.0867052
v -5.12 -4.8 -0.0867052
v -5.12 -4.48 -0.0867052
v -4.8 -4.48 -0.0867052
v -0.96 -5.12 -0.09248555
v -1.28 -5.12 -0.09248555
v -1.28 -4.8 -0.09248555
v -0.96 -4.8 -0.09248555
v -1.28 -5.12 -0.09248555
v -1.6 -5.12 -0.09248555
v -1.6 -4.8 -0.09248555
v -1.28 -4.8 -0.09248555
v -1.6 -5.12 -0.09248555
v -1.92 -5.12 -0.09248555
v -1.92 -4.8 -0.09248555
v -1.6 -4.8 -0.09248555
v -1.92 -5.12 -0.09248555
v -2.24 -5.12 -0.09248555
v -2.24 -4.8 -0.09248555
v -1.92 -4.8 -0.09248555
v -2.24 -5.12 -0.09248555
v -2.56 -5.12 -0.09248555
v -2.56 -4.8 -0.09248555
v -2.24 -4.8 -0.09248555
v -2.56 -5.12 -0.09248555
v -2.88 -5.12 -0.09248555
v -2.88 -4.8 -0.09248555
v -2.56 -4.8 -0.09248555
v -2.88 -5.12 -0.09248555
v -3.2 -5.12 -0.09248555
v -3.2 -4.8 -0.09248555
v -2.88 -4.8 -0.09248555
v -3.2 -5.12 -0.09248555
v -3.52 -5.12 -0.09248555
v -3.52 -4.8 -0.09248555
v -3.2 -4.8 -0.09248555
v -3.52 -5.12 -0.09248555
v -3.84 -5.12 -0.09248555
v -3.84 -4.8 -0.09248555
v -3.52 -4.8 -0.09248555
v -3.84 -5.12 -0.09248555
v -4.16 -5.12 -0.09248555
v -4.16 -4.8 -0.09248555
v -3.84 -4.8 -0.09248555
v -4.16 -5.12 -0.09248555
v -4.48 -5.12 -0.09248555
v -4.48 -4.8 -0.09248555
v -4.16 -4.8 -0.09248555
v -4.48 -5.12 -0.09248555
v -4.8 -5.12 -0.09248555
v -4.8 -4.8 -0.09248555
v -4.48 -4.8 -0.09248555
v -4.8 -5.12 -0.09248555
v -5.12 -5.12 -0.09248555
v -5.12 -4.8 -0.09248555
v -4.8 -4.8 -0.09248555

# Texture cooridinates (Count = 40)
vt 0.6 0.85
vt 0.65 0.85
vt 0.65 0.9
vt 0.6 0.9
vt 0.7 0.85
vt 0.7 0.9
vt 0.75 0.85
vt 0.75 0.9
vt 0.8 0.85
vt 0.8 0.9
vt 0.1 0.25
vt 0.15 0.25
vt 0.15 0.3
vt 0.1 0.3
vt 0.6 0.7
vt 0.65 0.7
vt 0.65 0.75
vt 0.6 0.75
vt 0.7 0.75
vt 0.75 0.75
vt 0.75 0.8
vt 0.7 0.8
vt 0.8 0.75
vt 0.8 0.8
vt 0.85 0.75
vt 0.85 0.8
vt 0.65 0.8
vt 0.1 0.2
vt 0.15 0.2
vt 0.6 0.8
vt 0.7 0.7
vt 0.75 0.7
vt 0.8 0.7
vt 0.85 0.7
vt 0.7 0.65
vt 0.75 0.65
vt 0.8 0.65
vt 0.85 0.65
vt 0.65 0.65
vt 0.85 0.85

# Normal
vn 0 0 -1

# Mesh description
g NewBadManor_mesh_0107

# Faces
f 1/1/1 2/2/1 3/3/1 4/4/1
f 5/2/1 6/5/1 7/6/1 8/3/1
f 9/5/1 10/7/1 11/8/1 12/6/1
f 13/2/1 14/5/1 15/6/1 16/3/1
f 17/5/1 18/7/1 19/8/1 20/6/1
f 21/2/1 22/5/1 23/6/1 24/3/1
f 25/5/1 26/7/1 27/8/1 28/6/1
f 29/2/1 30/5/1 31/6/1 32/3/1
f 33/5/1 34/7/1 35/8/1 36/6/1
f 37/2/1 38/5/1 39/6/1 40/3/1
f 41/5/1 42/7/1 43/8/1 44/6/1
f 45/7/1 46/9/1 47/10/1 48/8/1
f 49/11/1 50/12/1 51/13/1 52/14/1
f 53/15/1 54/16/1 55/17/1 56/18/1
f 57/19/1 58/20/1 59/21/1 60/22/1
f 61/20/1 62/23/1 63/24/1 64/21/1
f 65/23/1 66/25/1 67/26/1 68/24/1
f 69/17/1 70/19/1 71/22/1 72/27/1
f 73/19/1 74/20/1 75/21/1 76/22/1
f 77/20/1 78/23/1 79/24/1 80/21/1
f 81/23/1 82/25/1 83/26/1 84/24/1
f 85/17/1 86/19/1 87/22/1 88/27/1
f 89/19/1 90/20/1 91/21/1 92/22/1
f 93/20/1 94/23/1 95/24/1 96/21/1
f 97/23/1 98/25/1 99/26/1 100/24/1
f 101/28/1 102/29/1 103/12/1 104/11/1
f 105/18/1 106/17/1 107/27/1 108/30/1
f 109/31/1 110/32/1 111/20/1 112/19/1
f 113/32/1 114/33/1 115/23/1 116/20/1
f 117/33/1 118/34/1 119/25/1 120/23/1
f 121/16/1 122/31/1 123/19/1 124/17/1
f 125/31/1 126/32/1 127/20/1 128/19/1
f 129/32/1 130/33/1 131/23/1 132/20/1
f 133/33/1 134/34/1 135/25/1 136/23/1
f 137/16/1 138/31/1 139/19/1 140/17/1
f 141/31/1 142/32/1 143/20/1 144/19/1
f 145/32/1 146/33/1 147/23/1 148/20/1
f 149/33/1 150/34/1 151/25/1 152/23/1
f 153/11/1 154/12/1 155/13/1 156/14/1
f 157/15/1 158/16/1 159/17/1 160/18/1
f 161/35/1 162/36/1 163/32/1 164/31/1
f 165/36/1 166/37/1 167/33/1 168/32/1
f 169/37/1 170/38/1 171/34/1 172/33/1
f 173/39/1 174/35/1 175/31/1 176/16/1
f 177/35/1 178/36/1 179/32/1 180/31/1
f 181/36/1 182/37/1 183/33/1 184/32/1
f 185/37/1 186/38/1 187/34/1 188/33/1
f 189/39/1 190/35/1 191/31/1 192/16/1
f 193/35/1 194/36/1 195/32/1 196/31/1
f 197/36/1 198/37/1 199/33/1 200/32/1
f 201/37/1 202/38/1 203/34/1 204/33/1
f 205/28/1 206/29/1 207/12/1 208/11/1
f 209/18/1 210/17/1 211/27/1 212/30/1
f 213/22/1 214/21/1 215/7/1 216/5/1
f 217/21/1 218/24/1 219/9/1 220/7/1
f 221/24/1 222/26/1 223/40/1 224/9/1
f 225/27/1 226/22/1 227/5/1 228/2/1
f 229/22/1 230/21/1 231/7/1 232/5/1
f 233/21/1 234/24/1 235/9/1 236/7/1
f 237/24/1 238/26/1 239/40/1 240/9/1
f 241/27/1 242/22/1 243/5/1 244/2/1
f 245/22/1 246/21/1 247/7/1 248/5/1
f 249/21/1 250/24/1 251/9/1 252/7/1
f 253/24/1 254/26/1 255/40/1 256/9/1
f 257/11/1 258/12/1 259/13/1 260/14/1
f 261/15/1 262/16/1 263/17/1 264/18/1
f 265/19/1 266/20/1 267/21/1 268/22/1
f 269/20/1 270/23/1 271/24/1 272/21/1
f 273/23/1 274/25/1 275/26/1 276/24/1
f 277/17/1 278/19/1 279/22/1 280/27/1
f 281/19/1 282/20/1 283/21/1 284/22/1
f 285/20/1 286/23/1 287/24/1 288/21/1
f 289/23/1 290/25/1 291/26/1 292/24/1
f 293/17/1 294/19/1 295/22/1 296/27/1
f 297/19/1 298/20/1 299/21/1 300/22/1
f 301/20/1 302/23/1 303/24/1 304/21/1
f 305/23/1 306/25/1 307/26/1 308/24/1
f 309/28/1 310/29/1 311/12/1 312/11/1
f 313/18/1 314/17/1 315/27/1 316/30/1
f 317/31/1 318/32/1 319/20/1 320/19/1
f 321/32/1 322/33/1 323/23/1 324/20/1
f 325/33/1 326/34/1 327/25/1 328/23/1
f 329/16/1 330/31/1 331/19/1 332/17/1
f 333/31/1 334/32/1 335/20/1 336/19/1
f 337/32/1 338/33/1 339/23/1 340/20/1
f 341/33/1 342/34/1 343/25/1 344/23/1
f 345/16/1 346/31/1 347/19/1 348/17/1
f 349/31/1 350/32/1 351/20/1 352/19/1
f 353/32/1 354/33/1 355/23/1 356/20/1
f 357/33/1 358/34/1 359/25/1 360/23/1
f 361/11/1 362/12/1 363/13/1 364/14/1
f 365/15/1 366/16/1 367/17/1 368/18/1
f 369/35/1 370/36/1 371/32/1 372/31/1
f 373/36/1 374/37/1 375/33/1 376/32/1
f 377/37/1 378/38/1 379/34/1 380/33/1
f 381/39/1 382/35/1 383/31/1 384/16/1
f 385/35/1 386/36/1 387/32/1 388/31/1
f 389/36/1 390/37/1 391/33/1 392/32/1
f 393/37/1 394/38/1 395/34/1 396/33/1
f 397/39/1 398/35/1 399/31/1 400/16/1
f 401/35/1 402/36/1 403/32/1 404/31/1
f 405/36/1 406/37/1 407/33/1 408/32/1
f 409/37/1 410/38/1 411/34/1 412/33/1
f 413/28/1 414/29/1 415/12/1 416/11/1
f 417/18/1 418/17/1 419/27/1 420/30/1
f 421/22/1 422/21/1 423/7/1 424/5/1
f 425/21/1 426/24/1 427/9/1 428/7/1
f 429/24/1 430/26/1 431/40/1 432/9/1
f 433/27/1 434/22/1 435/5/1 436/2/1
f 437/22/1 438/21/1 439/7/1 440/5/1
f 441/21/1 442/24/1 443/9/1 444/7/1
f 445/24/1 446/26/1 447/40/1 448/9/1
f 449/27/1 450/22/1 451/5/1 452/2/1
f 453/22/1 454/21/1 455/7/1 456/5/1
f 457/21/1 458/24/1 459/9/1 460/7/1
f 461/24/1 462/26/1 463/40/1 464/9/1
f 465/11/1 466/12/1 467/13/1 468/14/1
f 469/15/1 470/16/1 471/17/1 472/18/1
f 473/19/1 474/20/1 475/21/1 476/22/1
f 477/20/1 478/23/1 479/24/1 480/21/1
f 481/23/1 482/25/1 483/26/1 484/24/1
f 485/17/1 486/19/1 487/22/1 488/27/1
f 489/19/1 490/20/1 491/21/1 492/22/1
f 493/20/1 494/23/1 495/24/1 496/21/1
f 497/23/1 498/25/1 499/26/1 500/24/1
f 501/17/1 502/19/1 503/22/1 504/27/1
f 505/19/1 506/20/1 507/21/1 508/22/1
f 509/20/1 510/23/1 511/24/1 512/21/1
f 513/23/1 514/25/1 515/26/1 516/24/1
f 517/28/1 518/29/1 519/12/1 520/11/1

