# Tiled2Unity generated file. Do not modify by hand.
# Wavefront file for 'NewBadManor_mesh_0055.obj'

# Vertices (Count = 72)
v 0 -4.16 -0.07514451
v -0.32 -4.16 -0.07514451
v -0.32 -3.84 -0.07514451
v 0 -3.84 -0.07514451
v -0.32 -4.16 -0.07514451
v -0.64 -4.16 -0.07514451
v -0.64 -3.84 -0.07514451
v -0.32 -3.84 -0.07514451
v -0.64 -4.16 -0.07514451
v -0.96 -4.16 -0.07514451
v -0.96 -3.84 -0.07514451
v -0.64 -3.84 -0.07514451
v -0.96 -4.16 -0.07514451
v -1.28 -4.16 -0.07514451
v -1.28 -3.84 -0.07514451
v -0.96 -3.84 -0.07514451
v -1.28 -4.16 -0.07514451
v -1.6 -4.16 -0.07514451
v -1.6 -3.84 -0.07514451
v -1.28 -3.84 -0.07514451
v -1.6 -4.16 -0.07514451
v -1.92 -4.16 -0.07514451
v -1.92 -3.84 -0.07514451
v -1.6 -3.84 -0.07514451
v -1.92 -4.16 -0.07514451
v -2.24 -4.16 -0.07514451
v -2.24 -3.84 -0.07514451
v -1.92 -3.84 -0.07514451
v 0 -4.48 -0.08092485
v -0.32 -4.48 -0.08092485
v -0.32 -4.16 -0.08092485
v 0 -4.16 -0.08092485
v -0.32 -4.48 -0.08092485
v -0.64 -4.48 -0.08092485
v -0.64 -4.16 -0.08092485
v -0.32 -4.16 -0.08092485
v -0.64 -4.48 -0.08092485
v -0.96 -4.48 -0.08092485
v -0.96 -4.16 -0.08092485
v -0.64 -4.16 -0.08092485
v -0.96 -4.48 -0.08092485
v -1.28 -4.48 -0.08092485
v -1.28 -4.16 -0.08092485
v -0.96 -4.16 -0.08092485
v -1.28 -4.48 -0.08092485
v -1.6 -4.48 -0.08092485
v -1.6 -4.16 -0.08092485
v -1.28 -4.16 -0.08092485
v -1.6 -4.48 -0.08092485
v -1.92 -4.48 -0.08092485
v -1.92 -4.16 -0.08092485
v -1.6 -4.16 -0.08092485
v -1.92 -4.48 -0.08092485
v -2.24 -4.48 -0.08092485
v -2.24 -4.16 -0.08092485
v -1.92 -4.16 -0.08092485
v -1.6 -4.8 -0.0867052
v -1.92 -4.8 -0.0867052
v -1.92 -4.48 -0.0867052
v -1.6 -4.48 -0.0867052
v -1.92 -4.8 -0.0867052
v -2.24 -4.8 -0.0867052
v -2.24 -4.48 -0.0867052
v -1.92 -4.48 -0.0867052
v -1.6 -5.12 -0.09248555
v -1.92 -5.12 -0.09248555
v -1.92 -4.8 -0.09248555
v -1.6 -4.8 -0.09248555
v -1.92 -5.12 -0.09248555
v -2.24 -5.12 -0.09248555
v -2.24 -4.8 -0.09248555
v -1.92 -4.8 -0.09248555

# Texture cooridinates (Count = 9)
vt 0.5 0.4166667
vt 0.6666667 0.4166667
vt 0.6666667 0.5
vt 0.5 0.5
vt 0.3333333 0.4166667
vt 0.3333333 0.5
vt 0.5 0.3333333
vt 0.6666667 0.3333333
vt 0.3333333 0.3333333

# Normal
vn 0 0 -1

# Mesh description
g NewBadManor_mesh_0055

# Faces
f 1/1/1 2/2/1 3/3/1 4/4/1
f 5/5/1 6/1/1 7/4/1 8/6/1
f 9/1/1 10/2/1 11/3/1 12/4/1
f 13/5/1 14/1/1 15/4/1 16/6/1
f 17/1/1 18/2/1 19/3/1 20/4/1
f 21/5/1 22/1/1 23/4/1 24/6/1
f 25/1/1 26/2/1 27/3/1 28/4/1
f 29/7/1 30/8/1 31/2/1 32/1/1
f 33/9/1 34/7/1 35/1/1 36/5/1
f 37/7/1 38/8/1 39/2/1 40/1/1
f 41/9/1 42/7/1 43/1/1 44/5/1
f 45/7/1 46/8/1 47/2/1 48/1/1
f 49/5/1 50/1/1 51/4/1 52/6/1
f 53/1/1 54/2/1 55/3/1 56/4/1
f 57/9/1 58/7/1 59/1/1 60/5/1
f 61/7/1 62/8/1 63/2/1 64/1/1
f 65/5/1 66/1/1 67/4/1 68/6/1
f 69/1/1 70/2/1 71/3/1 72/4/1

