# Tiled2Unity generated file. Do not modify by hand.
# Wavefront file for 'NewBadManor_mesh_0073.obj'

# Vertices (Count = 20)
v -48.64 -1.28 0
v -49.28 -1.28 0
v -49.28 -0.64 0
v -48.64 -0.64 0
v -58.88 -1.28 0
v -59.52 -1.28 0
v -59.52 -0.64 0
v -58.88 -0.64 0
v -5.12 -1.92 0
v -5.76 -1.92 0
v -5.76 -1.28 0
v -5.12 -1.28 0
v -38.4 -3.84 0
v -39.04 -3.84 0
v -39.04 -3.2 0
v -38.4 -3.2 0
v -48.64 -3.84 0
v -49.28 -3.84 0
v -49.28 -3.2 0
v -48.64 -3.2 0

# Texture cooridinates (Count = 8)
vt 0.25 0.9375
vt 0.28125 0.9375
vt 0.28125 0.96875
vt 0.25 0.96875
vt 0.25 0.90625
vt 0.28125 0.90625
vt 0.25 0.875
vt 0.28125 0.875

# Normal
vn 0 0 -1

# Mesh description
g NewBadManor_mesh_0073

# Faces
f 1/1/1 2/2/1 3/3/1 4/4/1
f 5/5/1 6/6/1 7/2/1 8/1/1
f 9/7/1 10/8/1 11/6/1 12/5/1
f 13/1/1 14/2/1 15/3/1 16/4/1
f 17/5/1 18/6/1 19/2/1 20/1/1

