# Tiled2Unity generated file. Do not modify by hand.
# Wavefront file for 'NewBadManor_mesh_0431.obj'

# Vertices (Count = 40)
v -4.48 -2.88 -0.05202312
v -4.8 -2.88 -0.05202312
v -4.8 -2.56 -0.05202312
v -4.48 -2.56 -0.05202312
v -4.8 -2.88 -0.05202312
v -5.12 -2.88 -0.05202312
v -5.12 -2.56 -0.05202312
v -4.8 -2.56 -0.05202312
v -4.48 -3.2 -0.05780347
v -4.8 -3.2 -0.05780347
v -4.8 -2.88 -0.05780347
v -4.48 -2.88 -0.05780347
v -4.8 -3.2 -0.05780347
v -5.12 -3.2 -0.05780347
v -5.12 -2.88 -0.05780347
v -4.8 -2.88 -0.05780347
v -4.48 -3.52 -0.06358381
v -4.8 -3.52 -0.06358381
v -4.8 -3.2 -0.06358381
v -4.48 -3.2 -0.06358381
v -4.8 -3.52 -0.06358381
v -5.12 -3.52 -0.06358381
v -5.12 -3.2 -0.06358381
v -4.8 -3.2 -0.06358381
v -4.48 -3.84 -0.06936416
v -4.8 -3.84 -0.06936416
v -4.8 -3.52 -0.06936416
v -4.48 -3.52 -0.06936416
v -4.8 -3.84 -0.06936416
v -5.12 -3.84 -0.06936416
v -5.12 -3.52 -0.06936416
v -4.8 -3.52 -0.06936416
v -4.48 -4.16 -0.07514451
v -4.8 -4.16 -0.07514451
v -4.8 -3.84 -0.07514451
v -4.48 -3.84 -0.07514451
v -4.8 -4.16 -0.07514451
v -5.12 -4.16 -0.07514451
v -5.12 -3.84 -0.07514451
v -4.8 -3.84 -0.07514451

# Texture cooridinates (Count = 18)
vt 0.75 0.5
vt 0.7916667 0.5
vt 0.7916667 0.5555556
vt 0.75 0.5555556
vt 0.8333333 0.5
vt 0.8333333 0.5555556
vt 0.75 0.4444444
vt 0.7916667 0.4444444
vt 0.8333333 0.4444444
vt 0.75 0.3888889
vt 0.7916667 0.3888889
vt 0.8333333 0.3888889
vt 0.75 0.3333333
vt 0.7916667 0.3333333
vt 0.8333333 0.3333333
vt 0.75 0.2777778
vt 0.7916667 0.2777778
vt 0.8333333 0.2777778

# Normal
vn 0 0 -1

# Mesh description
g NewBadManor_mesh_0431

# Faces
f 1/1/1 2/2/1 3/3/1 4/4/1
f 5/2/1 6/5/1 7/6/1 8/3/1
f 9/7/1 10/8/1 11/2/1 12/1/1
f 13/8/1 14/9/1 15/5/1 16/2/1
f 17/10/1 18/11/1 19/8/1 20/7/1
f 21/11/1 22/12/1 23/9/1 24/8/1
f 25/13/1 26/14/1 27/11/1 28/10/1
f 29/14/1 30/15/1 31/12/1 32/11/1
f 33/16/1 34/17/1 35/14/1 36/13/1
f 37/17/1 38/18/1 39/15/1 40/14/1

