# Tiled2Unity generated file. Do not modify by hand.
# Wavefront file for 'NewBadManor_mesh_0275.obj'

# Vertices (Count = 288)
v -1.28 -0.32 -0.005780347
v -1.6 -0.32 -0.005780347
v -1.6 0 -0.005780347
v -1.28 0 -0.005780347
v -1.6 -0.32 -0.005780347
v -1.92 -0.32 -0.005780347
v -1.92 0 -0.005780347
v -1.6 0 -0.005780347
v -1.92 -0.32 -0.005780347
v -2.24 -0.32 -0.005780347
v -2.24 0 -0.005780347
v -1.92 0 -0.005780347
v -2.24 -0.32 -0.005780347
v -2.56 -0.32 -0.005780347
v -2.56 0 -0.005780347
v -2.24 0 -0.005780347
v -2.56 -0.32 -0.005780347
v -2.88 -0.32 -0.005780347
v -2.88 0 -0.005780347
v -2.56 0 -0.005780347
v -2.88 -0.32 -0.005780347
v -3.2 -0.32 -0.005780347
v -3.2 0 -0.005780347
v -2.88 0 -0.005780347
v -3.2 -0.32 -0.005780347
v -3.52 -0.32 -0.005780347
v -3.52 0 -0.005780347
v -3.2 0 -0.005780347
v -3.52 -0.32 -0.005780347
v -3.84 -0.32 -0.005780347
v -3.84 0 -0.005780347
v -3.52 0 -0.005780347
v -3.84 -0.32 -0.005780347
v -4.16 -0.32 -0.005780347
v -4.16 0 -0.005780347
v -3.84 0 -0.005780347
v -4.16 -0.32 -0.005780347
v -4.48 -0.32 -0.005780347
v -4.48 0 -0.005780347
v -4.16 0 -0.005780347
v -4.48 -0.32 -0.005780347
v -4.8 -0.32 -0.005780347
v -4.8 0 -0.005780347
v -4.48 0 -0.005780347
v -4.8 -0.32 -0.005780347
v -5.12 -0.32 -0.005780347
v -5.12 0 -0.005780347
v -4.8 0 -0.005780347
v -1.28 -0.64 -0.01156069
v -1.6 -0.64 -0.01156069
v -1.6 -0.32 -0.01156069
v -1.28 -0.32 -0.01156069
v -1.6 -0.64 -0.01156069
v -1.92 -0.64 -0.01156069
v -1.92 -0.32 -0.01156069
v -1.6 -0.32 -0.01156069
v -1.92 -0.64 -0.01156069
v -2.24 -0.64 -0.01156069
v -2.24 -0.32 -0.01156069
v -1.92 -0.32 -0.01156069
v -2.24 -0.64 -0.01156069
v -2.56 -0.64 -0.01156069
v -2.56 -0.32 -0.01156069
v -2.24 -0.32 -0.01156069
v -2.56 -0.64 -0.01156069
v -2.88 -0.64 -0.01156069
v -2.88 -0.32 -0.01156069
v -2.56 -0.32 -0.01156069
v -2.88 -0.64 -0.01156069
v -3.2 -0.64 -0.01156069
v -3.2 -0.32 -0.01156069
v -2.88 -0.32 -0.01156069
v -3.2 -0.64 -0.01156069
v -3.52 -0.64 -0.01156069
v -3.52 -0.32 -0.01156069
v -3.2 -0.32 -0.01156069
v -3.52 -0.64 -0.01156069
v -3.84 -0.64 -0.01156069
v -3.84 -0.32 -0.01156069
v -3.52 -0.32 -0.01156069
v -3.84 -0.64 -0.01156069
v -4.16 -0.64 -0.01156069
v -4.16 -0.32 -0.01156069
v -3.84 -0.32 -0.01156069
v -4.16 -0.64 -0.01156069
v -4.48 -0.64 -0.01156069
v -4.48 -0.32 -0.01156069
v -4.16 -0.32 -0.01156069
v -4.48 -0.64 -0.01156069
v -4.8 -0.64 -0.01156069
v -4.8 -0.32 -0.01156069
v -4.48 -0.32 -0.01156069
v -4.8 -0.64 -0.01156069
v -5.12 -0.64 -0.01156069
v -5.12 -0.32 -0.01156069
v -4.8 -0.32 -0.01156069
v -1.28 -0.96 -0.01734104
v -1.6 -0.96 -0.01734104
v -1.6 -0.64 -0.01734104
v -1.28 -0.64 -0.01734104
v -1.6 -0.96 -0.01734104
v -1.92 -0.96 -0.01734104
v -1.92 -0.64 -0.01734104
v -1.6 -0.64 -0.01734104
v -1.92 -0.96 -0.01734104
v -2.24 -0.96 -0.01734104
v -2.24 -0.64 -0.01734104
v -1.92 -0.64 -0.01734104
v -2.24 -0.96 -0.01734104
v -2.56 -0.96 -0.01734104
v -2.56 -0.64 -0.01734104
v -2.24 -0.64 -0.01734104
v -2.56 -0.96 -0.01734104
v -2.88 -0.96 -0.01734104
v -2.88 -0.64 -0.01734104
v -2.56 -0.64 -0.01734104
v -2.88 -0.96 -0.01734104
v -3.2 -0.96 -0.01734104
v -3.2 -0.64 -0.01734104
v -2.88 -0.64 -0.01734104
v -3.2 -0.96 -0.01734104
v -3.52 -0.96 -0.01734104
v -3.52 -0.64 -0.01734104
v -3.2 -0.64 -0.01734104
v -3.52 -0.96 -0.01734104
v -3.84 -0.96 -0.01734104
v -3.84 -0.64 -0.01734104
v -3.52 -0.64 -0.01734104
v -3.84 -0.96 -0.01734104
v -4.16 -0.96 -0.01734104
v -4.16 -0.64 -0.01734104
v -3.84 -0.64 -0.01734104
v -4.16 -0.96 -0.01734104
v -4.48 -0.96 -0.01734104
v -4.48 -0.64 -0.01734104
v -4.16 -0.64 -0.01734104
v -4.48 -0.96 -0.01734104
v -4.8 -0.96 -0.01734104
v -4.8 -0.64 -0.01734104
v -4.48 -0.64 -0.01734104
v -4.8 -0.96 -0.01734104
v -5.12 -0.96 -0.01734104
v -5.12 -0.64 -0.01734104
v -4.8 -0.64 -0.01734104
v -1.28 -1.28 -0.02312139
v -1.6 -1.28 -0.02312139
v -1.6 -0.96 -0.02312139
v -1.28 -0.96 -0.02312139
v -1.6 -1.28 -0.02312139
v -1.92 -1.28 -0.02312139
v -1.92 -0.96 -0.02312139
v -1.6 -0.96 -0.02312139
v -1.92 -1.28 -0.02312139
v -2.24 -1.28 -0.02312139
v -2.24 -0.96 -0.02312139
v -1.92 -0.96 -0.02312139
v -2.24 -1.28 -0.02312139
v -2.56 -1.28 -0.02312139
v -2.56 -0.96 -0.02312139
v -2.24 -0.96 -0.02312139
v -2.56 -1.28 -0.02312139
v -2.88 -1.28 -0.02312139
v -2.88 -0.96 -0.02312139
v -2.56 -0.96 -0.02312139
v -2.88 -1.28 -0.02312139
v -3.2 -1.28 -0.02312139
v -3.2 -0.96 -0.02312139
v -2.88 -0.96 -0.02312139
v -3.2 -1.28 -0.02312139
v -3.52 -1.28 -0.02312139
v -3.52 -0.96 -0.02312139
v -3.2 -0.96 -0.02312139
v -3.52 -1.28 -0.02312139
v -3.84 -1.28 -0.02312139
v -3.84 -0.96 -0.02312139
v -3.52 -0.96 -0.02312139
v -3.84 -1.28 -0.02312139
v -4.16 -1.28 -0.02312139
v -4.16 -0.96 -0.02312139
v -3.84 -0.96 -0.02312139
v -4.16 -1.28 -0.02312139
v -4.48 -1.28 -0.02312139
v -4.48 -0.96 -0.02312139
v -4.16 -0.96 -0.02312139
v -4.48 -1.28 -0.02312139
v -4.8 -1.28 -0.02312139
v -4.8 -0.96 -0.02312139
v -4.48 -0.96 -0.02312139
v -4.8 -1.28 -0.02312139
v -5.12 -1.28 -0.02312139
v -5.12 -0.96 -0.02312139
v -4.8 -0.96 -0.02312139
v -1.28 -1.6 -0.02890173
v -1.6 -1.6 -0.02890173
v -1.6 -1.28 -0.02890173
v -1.28 -1.28 -0.02890173
v -1.6 -1.6 -0.02890173
v -1.92 -1.6 -0.02890173
v -1.92 -1.28 -0.02890173
v -1.6 -1.28 -0.02890173
v -1.92 -1.6 -0.02890173
v -2.24 -1.6 -0.02890173
v -2.24 -1.28 -0.02890173
v -1.92 -1.28 -0.02890173
v -2.24 -1.6 -0.02890173
v -2.56 -1.6 -0.02890173
v -2.56 -1.28 -0.02890173
v -2.24 -1.28 -0.02890173
v -2.56 -1.6 -0.02890173
v -2.88 -1.6 -0.02890173
v -2.88 -1.28 -0.02890173
v -2.56 -1.28 -0.02890173
v -2.88 -1.6 -0.02890173
v -3.2 -1.6 -0.02890173
v -3.2 -1.28 -0.02890173
v -2.88 -1.28 -0.02890173
v -3.2 -1.6 -0.02890173
v -3.52 -1.6 -0.02890173
v -3.52 -1.28 -0.02890173
v -3.2 -1.28 -0.02890173
v -3.52 -1.6 -0.02890173
v -3.84 -1.6 -0.02890173
v -3.84 -1.28 -0.02890173
v -3.52 -1.28 -0.02890173
v -3.84 -1.6 -0.02890173
v -4.16 -1.6 -0.02890173
v -4.16 -1.28 -0.02890173
v -3.84 -1.28 -0.02890173
v -4.16 -1.6 -0.02890173
v -4.48 -1.6 -0.02890173
v -4.48 -1.28 -0.02890173
v -4.16 -1.28 -0.02890173
v -4.48 -1.6 -0.02890173
v -4.8 -1.6 -0.02890173
v -4.8 -1.28 -0.02890173
v -4.48 -1.28 -0.02890173
v -4.8 -1.6 -0.02890173
v -5.12 -1.6 -0.02890173
v -5.12 -1.28 -0.02890173
v -4.8 -1.28 -0.02890173
v -1.28 -1.92 -0.03468208
v -1.6 -1.92 -0.03468208
v -1.6 -1.6 -0.03468208
v -1.28 -1.6 -0.03468208
v -1.6 -1.92 -0.03468208
v -1.92 -1.92 -0.03468208
v -1.92 -1.6 -0.03468208
v -1.6 -1.6 -0.03468208
v -1.92 -1.92 -0.03468208
v -2.24 -1.92 -0.03468208
v -2.24 -1.6 -0.03468208
v -1.92 -1.6 -0.03468208
v -2.24 -1.92 -0.03468208
v -2.56 -1.92 -0.03468208
v -2.56 -1.6 -0.03468208
v -2.24 -1.6 -0.03468208
v -2.56 -1.92 -0.03468208
v -2.88 -1.92 -0.03468208
v -2.88 -1.6 -0.03468208
v -2.56 -1.6 -0.03468208
v -2.88 -1.92 -0.03468208
v -3.2 -1.92 -0.03468208
v -3.2 -1.6 -0.03468208
v -2.88 -1.6 -0.03468208
v -3.2 -1.92 -0.03468208
v -3.52 -1.92 -0.03468208
v -3.52 -1.6 -0.03468208
v -3.2 -1.6 -0.03468208
v -3.52 -1.92 -0.03468208
v -3.84 -1.92 -0.03468208
v -3.84 -1.6 -0.03468208
v -3.52 -1.6 -0.03468208
v -3.84 -1.92 -0.03468208
v -4.16 -1.92 -0.03468208
v -4.16 -1.6 -0.03468208
v -3.84 -1.6 -0.03468208
v -4.16 -1.92 -0.03468208
v -4.48 -1.92 -0.03468208
v -4.48 -1.6 -0.03468208
v -4.16 -1.6 -0.03468208
v -4.48 -1.92 -0.03468208
v -4.8 -1.92 -0.03468208
v -4.8 -1.6 -0.03468208
v -4.48 -1.6 -0.03468208
v -4.8 -1.92 -0.03468208
v -5.12 -1.92 -0.03468208
v -5.12 -1.6 -0.03468208
v -4.8 -1.6 -0.03468208

# Texture cooridinates (Count = 9)
vt 0.0625 0.75
vt 0.0625 0.78125
vt 0.03125 0.78125
vt 0.03125 0.75
vt 0.0625 0.8125
vt 0.03125 0.8125
vt 0 0.78125
vt 0 0.75
vt 0 0.8125

# Normal
vn 0 0 -1

# Mesh description
g NewBadManor_mesh_0275

# Faces
f 1/1/1 2/2/1 3/3/1 4/4/1
f 5/2/1 6/5/1 7/6/1 8/3/1
f 9/1/1 10/2/1 11/3/1 12/4/1
f 13/2/1 14/5/1 15/6/1 16/3/1
f 17/1/1 18/2/1 19/3/1 20/4/1
f 21/2/1 22/5/1 23/6/1 24/3/1
f 25/1/1 26/2/1 27/3/1 28/4/1
f 29/2/1 30/5/1 31/6/1 32/3/1
f 33/1/1 34/2/1 35/3/1 36/4/1
f 37/2/1 38/5/1 39/6/1 40/3/1
f 41/1/1 42/2/1 43/3/1 44/4/1
f 45/2/1 46/5/1 47/6/1 48/3/1
f 49/4/1 50/3/1 51/7/1 52/8/1
f 53/3/1 54/6/1 55/9/1 56/7/1
f 57/4/1 58/3/1 59/7/1 60/8/1
f 61/3/1 62/6/1 63/9/1 64/7/1
f 65/4/1 66/3/1 67/7/1 68/8/1
f 69/3/1 70/6/1 71/9/1 72/7/1
f 73/4/1 74/3/1 75/7/1 76/8/1
f 77/3/1 78/6/1 79/9/1 80/7/1
f 81/4/1 82/3/1 83/7/1 84/8/1
f 85/3/1 86/6/1 87/9/1 88/7/1
f 89/4/1 90/3/1 91/7/1 92/8/1
f 93/3/1 94/6/1 95/9/1 96/7/1
f 97/1/1 98/2/1 99/3/1 100/4/1
f 101/2/1 102/5/1 103/6/1 104/3/1
f 105/1/1 106/2/1 107/3/1 108/4/1
f 109/2/1 110/5/1 111/6/1 112/3/1
f 113/1/1 114/2/1 115/3/1 116/4/1
f 117/2/1 118/5/1 119/6/1 120/3/1
f 121/1/1 122/2/1 123/3/1 124/4/1
f 125/2/1 126/5/1 127/6/1 128/3/1
f 129/1/1 130/2/1 131/3/1 132/4/1
f 133/2/1 134/5/1 135/6/1 136/3/1
f 137/1/1 138/2/1 139/3/1 140/4/1
f 141/2/1 142/5/1 143/6/1 144/3/1
f 145/4/1 146/3/1 147/7/1 148/8/1
f 149/3/1 150/6/1 151/9/1 152/7/1
f 153/4/1 154/3/1 155/7/1 156/8/1
f 157/3/1 158/6/1 159/9/1 160/7/1
f 161/4/1 162/3/1 163/7/1 164/8/1
f 165/3/1 166/6/1 167/9/1 168/7/1
f 169/4/1 170/3/1 171/7/1 172/8/1
f 173/3/1 174/6/1 175/9/1 176/7/1
f 177/4/1 178/3/1 179/7/1 180/8/1
f 181/3/1 182/6/1 183/9/1 184/7/1
f 185/4/1 186/3/1 187/7/1 188/8/1
f 189/3/1 190/6/1 191/9/1 192/7/1
f 193/1/1 194/2/1 195/3/1 196/4/1
f 197/2/1 198/5/1 199/6/1 200/3/1
f 201/1/1 202/2/1 203/3/1 204/4/1
f 205/2/1 206/5/1 207/6/1 208/3/1
f 209/1/1 210/2/1 211/3/1 212/4/1
f 213/2/1 214/5/1 215/6/1 216/3/1
f 217/1/1 218/2/1 219/3/1 220/4/1
f 221/2/1 222/5/1 223/6/1 224/3/1
f 225/1/1 226/2/1 227/3/1 228/4/1
f 229/2/1 230/5/1 231/6/1 232/3/1
f 233/1/1 234/2/1 235/3/1 236/4/1
f 237/2/1 238/5/1 239/6/1 240/3/1
f 241/4/1 242/3/1 243/7/1 244/8/1
f 245/3/1 246/6/1 247/9/1 248/7/1
f 249/4/1 250/3/1 251/7/1 252/8/1
f 253/3/1 254/6/1 255/9/1 256/7/1
f 257/4/1 258/3/1 259/7/1 260/8/1
f 261/3/1 262/6/1 263/9/1 264/7/1
f 265/4/1 266/3/1 267/7/1 268/8/1
f 269/3/1 270/6/1 271/9/1 272/7/1
f 273/4/1 274/3/1 275/7/1 276/8/1
f 277/3/1 278/6/1 279/9/1 280/7/1
f 281/4/1 282/3/1 283/7/1 284/8/1
f 285/3/1 286/6/1 287/9/1 288/7/1

