# Tiled2Unity generated file. Do not modify by hand.
# Wavefront file for 'NewBadManor_mesh_0393.obj'

# Vertices (Count = 80)
v 0 -0.32 -0.005780347
v -0.32 -0.32 -0.005780347
v -0.32 0 -0.005780347
v 0 0 -0.005780347
v -0.32 -0.32 -0.005780347
v -0.64 -0.32 -0.005780347
v -0.64 0 -0.005780347
v -0.32 0 -0.005780347
v -0.64 -0.32 -0.005780347
v -0.96 -0.32 -0.005780347
v -0.96 0 -0.005780347
v -0.64 0 -0.005780347
v -0.96 -0.32 -0.005780347
v -1.28 -0.32 -0.005780347
v -1.28 0 -0.005780347
v -0.96 0 -0.005780347
v -1.28 -0.32 -0.005780347
v -1.6 -0.32 -0.005780347
v -1.6 0 -0.005780347
v -1.28 0 -0.005780347
v 0 -0.64 -0.01156069
v -0.32 -0.64 -0.01156069
v -0.32 -0.32 -0.01156069
v 0 -0.32 -0.01156069
v -0.32 -0.64 -0.01156069
v -0.64 -0.64 -0.01156069
v -0.64 -0.32 -0.01156069
v -0.32 -0.32 -0.01156069
v -0.64 -0.64 -0.01156069
v -0.96 -0.64 -0.01156069
v -0.96 -0.32 -0.01156069
v -0.64 -0.32 -0.01156069
v -0.96 -0.64 -0.01156069
v -1.28 -0.64 -0.01156069
v -1.28 -0.32 -0.01156069
v -0.96 -0.32 -0.01156069
v -1.28 -0.64 -0.01156069
v -1.6 -0.64 -0.01156069
v -1.6 -0.32 -0.01156069
v -1.28 -0.32 -0.01156069
v 0 -0.96 -0.01734104
v -0.32 -0.96 -0.01734104
v -0.32 -0.64 -0.01734104
v 0 -0.64 -0.01734104
v -0.32 -0.96 -0.01734104
v -0.64 -0.96 -0.01734104
v -0.64 -0.64 -0.01734104
v -0.32 -0.64 -0.01734104
v -0.64 -0.96 -0.01734104
v -0.96 -0.96 -0.01734104
v -0.96 -0.64 -0.01734104
v -0.64 -0.64 -0.01734104
v -0.96 -0.96 -0.01734104
v -1.28 -0.96 -0.01734104
v -1.28 -0.64 -0.01734104
v -0.96 -0.64 -0.01734104
v -1.28 -0.96 -0.01734104
v -1.6 -0.96 -0.01734104
v -1.6 -0.64 -0.01734104
v -1.28 -0.64 -0.01734104
v 0 -1.28 -0.02312139
v -0.32 -1.28 -0.02312139
v -0.32 -0.96 -0.02312139
v 0 -0.96 -0.02312139
v -0.32 -1.28 -0.02312139
v -0.64 -1.28 -0.02312139
v -0.64 -0.96 -0.02312139
v -0.32 -0.96 -0.02312139
v -0.64 -1.28 -0.02312139
v -0.96 -1.28 -0.02312139
v -0.96 -0.96 -0.02312139
v -0.64 -0.96 -0.02312139
v -0.96 -1.28 -0.02312139
v -1.28 -1.28 -0.02312139
v -1.28 -0.96 -0.02312139
v -0.96 -0.96 -0.02312139
v -1.28 -1.28 -0.02312139
v -1.6 -1.28 -0.02312139
v -1.6 -0.96 -0.02312139
v -1.28 -0.96 -0.02312139

# Texture cooridinates (Count = 42)
vt 0.40625 0.65625
vt 0.4375 0.65625
vt 0.4375 0.6875
vt 0.40625 0.6875
vt 0.75 0.59375
vt 0.78125 0.59375
vt 0.78125 0.625
vt 0.75 0.625
vt 0.8125 0.59375
vt 0.8125 0.625
vt 0.3125 0.625
vt 0.34375 0.625
vt 0.34375 0.65625
vt 0.3125 0.65625
vt 0.375 0.625
vt 0.375 0.65625
vt 0.40625 0.625
vt 0.4375 0.625
vt 0.75 0.5625
vt 0.78125 0.5625
vt 0.8125 0.5625
vt 0.3125 0.59375
vt 0.34375 0.59375
vt 0.375 0.59375
vt 0.40625 0.59375
vt 0.4375 0.59375
vt 0.75 0.53125
vt 0.78125 0.53125
vt 0.8125 0.53125
vt 0.3125 0.5625
vt 0.34375 0.5625
vt 0.375 0.5625
vt 0.40625 0.5625
vt 0.4375 0.5625
vt 0.75 0.5
vt 0.78125 0.5
vt 0.8125 0.5
vt 0.4375 0.53125
vt 0.46875 0.53125
vt 0.46875 0.5625
vt 0.5 0.53125
vt 0.5 0.5625

# Normal
vn 0 0 -1

# Mesh description
g NewBadManor_mesh_0393

# Faces
f 1/1/1 2/2/1 3/3/1 4/4/1
f 5/5/1 6/6/1 7/7/1 8/8/1
f 9/6/1 10/9/1 11/10/1 12/7/1
f 13/11/1 14/12/1 15/13/1 16/14/1
f 17/12/1 18/15/1 19/16/1 20/13/1
f 21/17/1 22/18/1 23/2/1 24/1/1
f 25/19/1 26/20/1 27/6/1 28/5/1
f 29/20/1 30/21/1 31/9/1 32/6/1
f 33/22/1 34/23/1 35/12/1 36/11/1
f 37/23/1 38/24/1 39/15/1 40/12/1
f 41/25/1 42/26/1 43/18/1 44/17/1
f 45/27/1 46/28/1 47/20/1 48/19/1
f 49/28/1 50/29/1 51/21/1 52/20/1
f 53/30/1 54/31/1 55/23/1 56/22/1
f 57/31/1 58/32/1 59/24/1 60/23/1
f 61/33/1 62/34/1 63/26/1 64/25/1
f 65/35/1 66/36/1 67/28/1 68/27/1
f 69/36/1 70/37/1 71/29/1 72/28/1
f 73/38/1 74/39/1 75/40/1 76/34/1
f 77/39/1 78/41/1 79/42/1 80/40/1

