# Tiled2Unity generated file. Do not modify by hand.
# Wavefront file for 'NewBadManor_mesh_0113.obj'

# Vertices (Count = 12)
v 0 -4.48 -0.08092485
v -0.32 -4.48 -0.08092485
v -0.32 -4.16 -0.08092485
v 0 -4.16 -0.08092485
v -0.32 -4.48 -0.08092485
v -0.64 -4.48 -0.08092485
v -0.64 -4.16 -0.08092485
v -0.32 -4.16 -0.08092485
v -0.64 -4.48 -0.08092485
v -0.96 -4.48 -0.08092485
v -0.96 -4.16 -0.08092485
v -0.64 -4.16 -0.08092485

# Texture cooridinates (Count = 4)
vt 0.3333333 0.03333336
vt 0.2916667 0.03333336
vt 0.2916667 0
vt 0.3333333 0

# Normal
vn 0 0 -1

# Mesh description
g NewBadManor_mesh_0113

# Faces
f 1/1/1 2/2/1 3/3/1 4/4/1
f 5/1/1 6/2/1 7/3/1 8/4/1
f 9/1/1 10/2/1 11/3/1 12/4/1

