# Tiled2Unity generated file. Do not modify by hand.
# Wavefront file for 'NewBadManor_mesh_0320.obj'

# Vertices (Count = 32)
v -3.52 -2.24 -0.04046243
v -3.84 -2.24 -0.04046243
v -3.84 -1.92 -0.04046243
v -3.52 -1.92 -0.04046243
v -3.84 -2.24 -0.04046243
v -4.16 -2.24 -0.04046243
v -4.16 -1.92 -0.04046243
v -3.84 -1.92 -0.04046243
v -4.16 -2.24 -0.04046243
v -4.48 -2.24 -0.04046243
v -4.48 -1.92 -0.04046243
v -4.16 -1.92 -0.04046243
v -4.48 -2.24 -0.04046243
v -4.8 -2.24 -0.04046243
v -4.8 -1.92 -0.04046243
v -4.48 -1.92 -0.04046243
v -3.52 -2.56 -0.04624277
v -3.84 -2.56 -0.04624277
v -3.84 -2.24 -0.04624277
v -3.52 -2.24 -0.04624277
v -3.84 -2.56 -0.04624277
v -4.16 -2.56 -0.04624277
v -4.16 -2.24 -0.04624277
v -3.84 -2.24 -0.04624277
v -4.16 -2.56 -0.04624277
v -4.48 -2.56 -0.04624277
v -4.48 -2.24 -0.04624277
v -4.16 -2.24 -0.04624277
v -4.48 -2.56 -0.04624277
v -4.8 -2.56 -0.04624277
v -4.8 -2.24 -0.04624277
v -4.48 -2.24 -0.04624277

# Texture cooridinates (Count = 9)
vt 0.6 0.75
vt 0.55 0.75
vt 0.55 0.7
vt 0.6 0.7
vt 0.5 0.75
vt 0.5 0.7
vt 0.6 0.8
vt 0.55 0.8
vt 0.5 0.8

# Normal
vn 0 0 -1

# Mesh description
g NewBadManor_mesh_0320

# Faces
f 1/1/1 2/2/1 3/3/1 4/4/1
f 5/2/1 6/5/1 7/6/1 8/3/1
f 9/1/1 10/2/1 11/3/1 12/4/1
f 13/2/1 14/5/1 15/6/1 16/3/1
f 17/7/1 18/8/1 19/2/1 20/1/1
f 21/8/1 22/9/1 23/5/1 24/2/1
f 25/7/1 26/8/1 27/2/1 28/1/1
f 29/8/1 30/9/1 31/5/1 32/2/1

