# Tiled2Unity generated file. Do not modify by hand.
# Wavefront file for 'NewBadManor_mesh_0049.obj'

# Vertices (Count = 456)
v -3.84 -1.92 0
v -4.48 -1.92 0
v -4.48 -1.28 0
v -3.84 -1.28 0
v -4.48 -1.92 0
v -5.12 -1.92 0
v -5.12 -1.28 0
v -4.48 -1.28 0
v -14.08 -1.92 0
v -14.72 -1.92 0
v -14.72 -1.28 0
v -14.08 -1.28 0
v -14.72 -1.92 0
v -15.36 -1.92 0
v -15.36 -1.28 0
v -14.72 -1.28 0
v -24.32 -1.92 0
v -24.96 -1.92 0
v -24.96 -1.28 0
v -24.32 -1.28 0
v -24.96 -1.92 0
v -25.6 -1.92 0
v -25.6 -1.28 0
v -24.96 -1.28 0
v -34.56 -1.92 0
v -35.2 -1.92 0
v -35.2 -1.28 0
v -34.56 -1.28 0
v -35.2 -1.92 0
v -35.84 -1.92 0
v -35.84 -1.28 0
v -35.2 -1.28 0
v -30.72 -3.2 0
v -31.36 -3.2 0
v -31.36 -2.56 0
v -30.72 -2.56 0
v -31.36 -3.2 0
v -32 -3.2 0
v -32 -2.56 0
v -31.36 -2.56 0
v -32 -3.2 0
v -32.64 -3.2 0
v -32.64 -2.56 0
v -32 -2.56 0
v -32.64 -3.2 0
v -33.28 -3.2 0
v -33.28 -2.56 0
v -32.64 -2.56 0
v -40.96 -3.2 0
v -41.6 -3.2 0
v -41.6 -2.56 0
v -40.96 -2.56 0
v -41.6 -3.2 0
v -42.24 -3.2 0
v -42.24 -2.56 0
v -41.6 -2.56 0
v -42.24 -3.2 0
v -42.88 -3.2 0
v -42.88 -2.56 0
v -42.24 -2.56 0
v -42.88 -3.2 0
v -43.52 -3.2 0
v -43.52 -2.56 0
v -42.88 -2.56 0
v -51.2 -3.2 0
v -51.84 -3.2 0
v -51.84 -2.56 0
v -51.2 -2.56 0
v -51.84 -3.2 0
v -52.48 -3.2 0
v -52.48 -2.56 0
v -51.84 -2.56 0
v -52.48 -3.2 0
v -53.12 -3.2 0
v -53.12 -2.56 0
v -52.48 -2.56 0
v -53.12 -3.2 0
v -53.76 -3.2 0
v -53.76 -2.56 0
v -53.12 -2.56 0
v -61.44 -3.2 0
v -62.08 -3.2 0
v -62.08 -2.56 0
v -61.44 -2.56 0
v -62.08 -3.2 0
v -62.72 -3.2 0
v -62.72 -2.56 0
v -62.08 -2.56 0
v -62.72 -3.2 0
v -63.36 -3.2 0
v -63.36 -2.56 0
v -62.72 -2.56 0
v -63.36 -3.2 0
v -64 -3.2 0
v -64 -2.56 0
v -63.36 -2.56 0
v -16.64 -3.84 0
v -17.28 -3.84 0
v -17.28 -3.2 0
v -16.64 -3.2 0
v -17.28 -3.84 0
v -17.92 -3.84 0
v -17.92 -3.2 0
v -17.28 -3.2 0
v -26.88 -3.84 0
v -27.52 -3.84 0
v -27.52 -3.2 0
v -26.88 -3.2 0
v -27.52 -3.84 0
v -28.16 -3.84 0
v -28.16 -3.2 0
v -27.52 -3.2 0
v -37.12 -3.84 0
v -37.76 -3.84 0
v -37.76 -3.2 0
v -37.12 -3.2 0
v -37.76 -3.84 0
v -38.4 -3.84 0
v -38.4 -3.2 0
v -37.76 -3.2 0
v -47.36 -3.84 0
v -48 -3.84 0
v -48 -3.2 0
v -47.36 -3.2 0
v -48 -3.84 0
v -48.64 -3.84 0
v -48.64 -3.2 0
v -48 -3.2 0
v -57.6 -3.84 0
v -58.24 -3.84 0
v -58.24 -3.2 0
v -57.6 -3.2 0
v -58.24 -3.84 0
v -58.88 -3.84 0
v -58.88 -3.2 0
v -58.24 -3.2 0
v -3.84 -4.48 0
v -4.48 -4.48 0
v -4.48 -3.84 0
v -3.84 -3.84 0
v -4.48 -4.48 0
v -5.12 -4.48 0
v -5.12 -3.84 0
v -4.48 -3.84 0
v -14.08 -4.48 0
v -14.72 -4.48 0
v -14.72 -3.84 0
v -14.08 -3.84 0
v -14.72 -4.48 0
v -15.36 -4.48 0
v -15.36 -3.84 0
v -14.72 -3.84 0
v -24.32 -4.48 0
v -24.96 -4.48 0
v -24.96 -3.84 0
v -24.32 -3.84 0
v -24.96 -4.48 0
v -25.6 -4.48 0
v -25.6 -3.84 0
v -24.96 -3.84 0
v -34.56 -4.48 0
v -35.2 -4.48 0
v -35.2 -3.84 0
v -34.56 -3.84 0
v -35.2 -4.48 0
v -35.84 -4.48 0
v -35.84 -3.84 0
v -35.2 -3.84 0
v -44.8 -4.48 0
v -45.44 -4.48 0
v -45.44 -3.84 0
v -44.8 -3.84 0
v -45.44 -4.48 0
v -46.08 -4.48 0
v -46.08 -3.84 0
v -45.44 -3.84 0
v -55.04 -4.48 0
v -55.68 -4.48 0
v -55.68 -3.84 0
v -55.04 -3.84 0
v -55.68 -4.48 0
v -56.32 -4.48 0
v -56.32 -3.84 0
v -55.68 -3.84 0
v -1.28 -5.12 0
v -1.92 -5.12 0
v -1.92 -4.48 0
v -1.28 -4.48 0
v -1.92 -5.12 0
v -2.56 -5.12 0
v -2.56 -4.48 0
v -1.92 -4.48 0
v -11.52 -5.12 0
v -12.16 -5.12 0
v -12.16 -4.48 0
v -11.52 -4.48 0
v -12.16 -5.12 0
v -12.8 -5.12 0
v -12.8 -4.48 0
v -12.16 -4.48 0
v -21.76 -5.12 0
v -22.4 -5.12 0
v -22.4 -4.48 0
v -21.76 -4.48 0
v -22.4 -5.12 0
v -23.04 -5.12 0
v -23.04 -4.48 0
v -22.4 -4.48 0
v -32 -5.12 0
v -32.64 -5.12 0
v -32.64 -4.48 0
v -32 -4.48 0
v -32.64 -5.12 0
v -33.28 -5.12 0
v -33.28 -4.48 0
v -32.64 -4.48 0
v -43.52 -5.12 0
v -44.16 -5.12 0
v -44.16 -4.48 0
v -43.52 -4.48 0
v -44.16 -5.12 0
v -44.8 -5.12 0
v -44.8 -4.48 0
v -44.16 -4.48 0
v -44.8 -5.12 0
v -45.44 -5.12 0
v -45.44 -4.48 0
v -44.8 -4.48 0
v -45.44 -5.12 0
v -46.08 -5.12 0
v -46.08 -4.48 0
v -45.44 -4.48 0
v -53.76 -5.12 0
v -54.4 -5.12 0
v -54.4 -4.48 0
v -53.76 -4.48 0
v -54.4 -5.12 0
v -55.04 -5.12 0
v -55.04 -4.48 0
v -54.4 -4.48 0
v -55.04 -5.12 0
v -55.68 -5.12 0
v -55.68 -4.48 0
v -55.04 -4.48 0
v -55.68 -5.12 0
v -56.32 -5.12 0
v -56.32 -4.48 0
v -55.68 -4.48 0
v 0 -5.76 0
v -0.64 -5.76 0
v -0.64 -5.12 0
v 0 -5.12 0
v -0.64 -5.76 0
v -1.28 -5.76 0
v -1.28 -5.12 0
v -0.64 -5.12 0
v -1.28 -5.76 0
v -1.92 -5.76 0
v -1.92 -5.12 0
v -1.28 -5.12 0
v -1.92 -5.76 0
v -2.56 -5.76 0
v -2.56 -5.12 0
v -1.92 -5.12 0
v -10.24 -5.76 0
v -10.88 -5.76 0
v -10.88 -5.12 0
v -10.24 -5.12 0
v -10.88 -5.76 0
v -11.52 -5.76 0
v -11.52 -5.12 0
v -10.88 -5.12 0
v -11.52 -5.76 0
v -12.16 -5.76 0
v -12.16 -5.12 0
v -11.52 -5.12 0
v -12.16 -5.76 0
v -12.8 -5.76 0
v -12.8 -5.12 0
v -12.16 -5.12 0
v -20.48 -5.76 0
v -21.12 -5.76 0
v -21.12 -5.12 0
v -20.48 -5.12 0
v -21.12 -5.76 0
v -21.76 -5.76 0
v -21.76 -5.12 0
v -21.12 -5.12 0
v -21.76 -5.76 0
v -22.4 -5.76 0
v -22.4 -5.12 0
v -21.76 -5.12 0
v -22.4 -5.76 0
v -23.04 -5.76 0
v -23.04 -5.12 0
v -22.4 -5.12 0
v -30.72 -5.76 0
v -31.36 -5.76 0
v -31.36 -5.12 0
v -30.72 -5.12 0
v -31.36 -5.76 0
v -32 -5.76 0
v -32 -5.12 0
v -31.36 -5.12 0
v -32 -5.76 0
v -32.64 -5.76 0
v -32.64 -5.12 0
v -32 -5.12 0
v -32.64 -5.76 0
v -33.28 -5.76 0
v -33.28 -5.12 0
v -32.64 -5.12 0
v -40.96 -5.76 0
v -41.6 -5.76 0
v -41.6 -5.12 0
v -40.96 -5.12 0
v -41.6 -5.76 0
v -42.24 -5.76 0
v -42.24 -5.12 0
v -41.6 -5.12 0
v -42.24 -5.76 0
v -42.88 -5.76 0
v -42.88 -5.12 0
v -42.24 -5.12 0
v -42.88 -5.76 0
v -43.52 -5.76 0
v -43.52 -5.12 0
v -42.88 -5.12 0
v -51.2 -5.76 0
v -51.84 -5.76 0
v -51.84 -5.12 0
v -51.2 -5.12 0
v -51.84 -5.76 0
v -52.48 -5.76 0
v -52.48 -5.12 0
v -51.84 -5.12 0
v -52.48 -5.76 0
v -53.12 -5.76 0
v -53.12 -5.12 0
v -52.48 -5.12 0
v -53.12 -5.76 0
v -53.76 -5.76 0
v -53.76 -5.12 0
v -53.12 -5.12 0
v -61.44 -5.76 0
v -62.08 -5.76 0
v -62.08 -5.12 0
v -61.44 -5.12 0
v -62.08 -5.76 0
v -62.72 -5.76 0
v -62.72 -5.12 0
v -62.08 -5.12 0
v -62.72 -5.76 0
v -63.36 -5.76 0
v -63.36 -5.12 0
v -62.72 -5.12 0
v -63.36 -5.76 0
v -64 -5.76 0
v -64 -5.12 0
v -63.36 -5.12 0
v -7.68 -6.4 0
v -8.32 -6.4 0
v -8.32 -5.76 0
v -7.68 -5.76 0
v -8.32 -6.4 0
v -8.96 -6.4 0
v -8.96 -5.76 0
v -8.32 -5.76 0
v -8.96 -6.4 0
v -9.599999 -6.4 0
v -9.599999 -5.76 0
v -8.96 -5.76 0
v -9.599999 -6.4 0
v -10.24 -6.4 0
v -10.24 -5.76 0
v -9.599999 -5.76 0
v -17.92 -6.4 0
v -18.56 -6.4 0
v -18.56 -5.76 0
v -17.92 -5.76 0
v -18.56 -6.4 0
v -19.2 -6.4 0
v -19.2 -5.76 0
v -18.56 -5.76 0
v -19.2 -6.4 0
v -19.84 -6.4 0
v -19.84 -5.76 0
v -19.2 -5.76 0
v -19.84 -6.4 0
v -20.48 -6.4 0
v -20.48 -5.76 0
v -19.84 -5.76 0
v -28.16 -6.4 0
v -28.8 -6.4 0
v -28.8 -5.76 0
v -28.16 -5.76 0
v -28.8 -6.4 0
v -29.44 -6.4 0
v -29.44 -5.76 0
v -28.8 -5.76 0
v -29.44 -6.4 0
v -30.08 -6.4 0
v -30.08 -5.76 0
v -29.44 -5.76 0
v -30.08 -6.4 0
v -30.72 -6.4 0
v -30.72 -5.76 0
v -30.08 -5.76 0
v -38.4 -6.4 0
v -39.04 -6.4 0
v -39.04 -5.76 0
v -38.4 -5.76 0
v -39.04 -6.4 0
v -39.68 -6.4 0
v -39.68 -5.76 0
v -39.04 -5.76 0
v -39.68 -6.4 0
v -40.32 -6.4 0
v -40.32 -5.76 0
v -39.68 -5.76 0
v -40.32 -6.4 0
v -40.96 -6.4 0
v -40.96 -5.76 0
v -40.32 -5.76 0
v -48.64 -6.4 0
v -49.28 -6.4 0
v -49.28 -5.76 0
v -48.64 -5.76 0
v -49.28 -6.4 0
v -49.92 -6.4 0
v -49.92 -5.76 0
v -49.28 -5.76 0
v -49.92 -6.4 0
v -50.56 -6.4 0
v -50.56 -5.76 0
v -49.92 -5.76 0
v -50.56 -6.4 0
v -51.2 -6.4 0
v -51.2 -5.76 0
v -50.56 -5.76 0
v -58.88 -6.4 0
v -59.52 -6.4 0
v -59.52 -5.76 0
v -58.88 -5.76 0
v -59.52 -6.4 0
v -60.16 -6.4 0
v -60.16 -5.76 0
v -59.52 -5.76 0
v -60.16 -6.4 0
v -60.8 -6.4 0
v -60.8 -5.76 0
v -60.16 -5.76 0
v -60.8 -6.4 0
v -61.44 -6.4 0
v -61.44 -5.76 0
v -60.8 -5.76 0

# Texture cooridinates (Count = 98)
vt 0.8235294 0.4090909
vt 0.8529412 0.4090909
vt 0.8529412 0.4545454
vt 0.8235294 0.4545454
vt 0.8823529 0.4090909
vt 0.8823529 0.4545454
vt 0.8235294 0.3636364
vt 0.8529412 0.3636364
vt 0.8823529 0.3636364
vt 0.8235294 0.3181818
vt 0.8529412 0.3181818
vt 0.8823529 0.3181818
vt 0.8235294 0.2727273
vt 0.8529412 0.2727273
vt 0.8823529 0.2727273
vt 0.9117647 0.4090909
vt 0.9117647 0.4545454
vt 0.9411765 0.4090909
vt 0.9411765 0.4545454
vt 0.9705882 0.4090909
vt 0.9705882 0.4545454
vt 1 0.4090909
vt 1 0.4545454
vt 0.9117647 0.3636364
vt 0.9411765 0.3636364
vt 0.9705882 0.3636364
vt 1 0.3636364
vt 0.9117647 0.3181818
vt 0.9411765 0.3181818
vt 0.9705882 0.3181818
vt 1 0.3181818
vt 0.9117647 0.2727273
vt 0.9411765 0.2727273
vt 0.9705882 0.2727273
vt 1 0.2727273
vt 0.8235294 0.2272727
vt 0.8529412 0.2272727
vt 0.8823529 0.2272727
vt 0.8235294 0.1818182
vt 0.8529412 0.1818182
vt 0.8823529 0.1818182
vt 0.05882353 0.09090906
vt 0.0882353 0.09090906
vt 0.0882353 0.1363636
vt 0.05882353 0.1363636
vt 0.1176471 0.09090906
vt 0.1176471 0.1363636
vt 0.05882353 0.2272727
vt 0.0882353 0.2272727
vt 0.0882353 0.2727273
vt 0.05882353 0.2727273
vt 0.1176471 0.2272727
vt 0.1176471 0.2727273
vt 0.05882353 0.1818182
vt 0.0882353 0.1818182
vt 0.1176471 0.1818182
vt 0.05882353 0.04545456
vt 0.0882353 0.04545456
vt 0.1176471 0.04545456
vt 0.05882353 0
vt 0.0882353 0
vt 0.1176471 0
vt 0.9117647 0.2272727
vt 0.9411765 0.2272727
vt 0.9705882 0.2272727
vt 1 0.2272727
vt 0.9117647 0.1818182
vt 0.9411765 0.1818182
vt 0.9705882 0.1818182
vt 1 0.1818182
vt 0.1470588 0.09090906
vt 0.1470588 0.1363636
vt 0.1764706 0.09090906
vt 0.1764706 0.1363636
vt 0.2058824 0.09090906
vt 0.2058824 0.1363636
vt 0.2352941 0.09090906
vt 0.2352941 0.1363636
vt 0.1470588 0.2272727
vt 0.1470588 0.2727273
vt 0.1764706 0.2272727
vt 0.1764706 0.2727273
vt 0.2058824 0.2272727
vt 0.2058824 0.2727273
vt 0.2352941 0.2272727
vt 0.2352941 0.2727273
vt 0.1470588 0.1818182
vt 0.1764706 0.1818182
vt 0.2058824 0.1818182
vt 0.2352941 0.1818182
vt 0.1470588 0.04545456
vt 0.1764706 0.04545456
vt 0.2058824 0.04545456
vt 0.2352941 0.04545456
vt 0.1470588 0
vt 0.1764706 0
vt 0.2058824 0
vt 0.2352941 0

# Normal
vn 0 0 -1

# Mesh description
g NewBadManor_mesh_0049

# Faces
f 1/1/1 2/2/1 3/3/1 4/4/1
f 5/2/1 6/5/1 7/6/1 8/3/1
f 9/7/1 10/8/1 11/2/1 12/1/1
f 13/8/1 14/9/1 15/5/1 16/2/1
f 17/10/1 18/11/1 19/8/1 20/7/1
f 21/11/1 22/12/1 23/9/1 24/8/1
f 25/13/1 26/14/1 27/11/1 28/10/1
f 29/14/1 30/15/1 31/12/1 32/11/1
f 33/5/1 34/16/1 35/17/1 36/6/1
f 37/16/1 38/18/1 39/19/1 40/17/1
f 41/18/1 42/20/1 43/21/1 44/19/1
f 45/20/1 46/22/1 47/23/1 48/21/1
f 49/9/1 50/24/1 51/16/1 52/5/1
f 53/24/1 54/25/1 55/18/1 56/16/1
f 57/25/1 58/26/1 59/20/1 60/18/1
f 61/26/1 62/27/1 63/22/1 64/20/1
f 65/12/1 66/28/1 67/24/1 68/9/1
f 69/28/1 70/29/1 71/25/1 72/24/1
f 73/29/1 74/30/1 75/26/1 76/25/1
f 77/30/1 78/31/1 79/27/1 80/26/1
f 81/15/1 82/32/1 83/28/1 84/12/1
f 85/32/1 86/33/1 87/29/1 88/28/1
f 89/33/1 90/34/1 91/30/1 92/29/1
f 93/34/1 94/35/1 95/31/1 96/30/1
f 97/36/1 98/37/1 99/14/1 100/13/1
f 101/37/1 102/38/1 103/15/1 104/14/1
f 105/39/1 106/40/1 107/37/1 108/36/1
f 109/40/1 110/41/1 111/38/1 112/37/1
f 113/42/1 114/43/1 115/44/1 116/45/1
f 117/43/1 118/46/1 119/47/1 120/44/1
f 121/42/1 122/43/1 123/44/1 124/45/1
f 125/43/1 126/46/1 127/47/1 128/44/1
f 129/42/1 130/43/1 131/44/1 132/45/1
f 133/43/1 134/46/1 135/47/1 136/44/1
f 137/42/1 138/43/1 139/44/1 140/45/1
f 141/43/1 142/46/1 143/47/1 144/44/1
f 145/42/1 146/43/1 147/44/1 148/45/1
f 149/43/1 150/46/1 151/47/1 152/44/1
f 153/42/1 154/43/1 155/44/1 156/45/1
f 157/43/1 158/46/1 159/47/1 160/44/1
f 161/42/1 162/43/1 163/44/1 164/45/1
f 165/43/1 166/46/1 167/47/1 168/44/1
f 169/48/1 170/49/1 171/50/1 172/51/1
f 173/49/1 174/52/1 175/53/1 176/50/1
f 177/54/1 178/55/1 179/49/1 180/48/1
f 181/55/1 182/56/1 183/52/1 184/49/1
f 185/45/1 186/44/1 187/55/1 188/54/1
f 189/44/1 190/47/1 191/56/1 192/55/1
f 193/42/1 194/43/1 195/44/1 196/45/1
f 197/43/1 198/46/1 199/47/1 200/44/1
f 201/57/1 202/58/1 203/43/1 204/42/1
f 205/58/1 206/59/1 207/46/1 208/43/1
f 209/60/1 210/61/1 211/58/1 212/57/1
f 213/61/1 214/62/1 215/59/1 216/58/1
f 217/38/1 218/63/1 219/32/1 220/15/1
f 221/63/1 222/64/1 223/33/1 224/32/1
f 225/64/1 226/65/1 227/34/1 228/33/1
f 229/65/1 230/66/1 231/35/1 232/34/1
f 233/41/1 234/67/1 235/63/1 236/38/1
f 237/67/1 238/68/1 239/64/1 240/63/1
f 241/68/1 242/69/1 243/65/1 244/64/1
f 245/69/1 246/70/1 247/66/1 248/65/1
f 249/46/1 250/71/1 251/72/1 252/47/1
f 253/71/1 254/73/1 255/74/1 256/72/1
f 257/73/1 258/75/1 259/76/1 260/74/1
f 261/75/1 262/77/1 263/78/1 264/76/1
f 265/46/1 266/71/1 267/72/1 268/47/1
f 269/71/1 270/73/1 271/74/1 272/72/1
f 273/73/1 274/75/1 275/76/1 276/74/1
f 277/75/1 278/77/1 279/78/1 280/76/1
f 281/46/1 282/71/1 283/72/1 284/47/1
f 285/71/1 286/73/1 287/74/1 288/72/1
f 289/73/1 290/75/1 291/76/1 292/74/1
f 293/75/1 294/77/1 295/78/1 296/76/1
f 297/46/1 298/71/1 299/72/1 300/47/1
f 301/71/1 302/73/1 303/74/1 304/72/1
f 305/73/1 306/75/1 307/76/1 308/74/1
f 309/75/1 310/77/1 311/78/1 312/76/1
f 313/46/1 314/71/1 315/72/1 316/47/1
f 317/71/1 318/73/1 319/74/1 320/72/1
f 321/73/1 322/75/1 323/76/1 324/74/1
f 325/75/1 326/77/1 327/78/1 328/76/1
f 329/46/1 330/71/1 331/72/1 332/47/1
f 333/71/1 334/73/1 335/74/1 336/72/1
f 337/73/1 338/75/1 339/76/1 340/74/1
f 341/75/1 342/77/1 343/78/1 344/76/1
f 345/46/1 346/71/1 347/72/1 348/47/1
f 349/71/1 350/73/1 351/74/1 352/72/1
f 353/73/1 354/75/1 355/76/1 356/74/1
f 357/75/1 358/77/1 359/78/1 360/76/1
f 361/52/1 362/79/1 363/80/1 364/53/1
f 365/79/1 366/81/1 367/82/1 368/80/1
f 369/81/1 370/83/1 371/84/1 372/82/1
f 373/83/1 374/85/1 375/86/1 376/84/1
f 377/56/1 378/87/1 379/79/1 380/52/1
f 381/87/1 382/88/1 383/81/1 384/79/1
f 385/88/1 386/89/1 387/83/1 388/81/1
f 389/89/1 390/90/1 391/85/1 392/83/1
f 393/47/1 394/72/1 395/87/1 396/56/1
f 397/72/1 398/74/1 399/88/1 400/87/1
f 401/74/1 402/76/1 403/89/1 404/88/1
f 405/76/1 406/78/1 407/90/1 408/89/1
f 409/46/1 410/71/1 411/72/1 412/47/1
f 413/71/1 414/73/1 415/74/1 416/72/1
f 417/73/1 418/75/1 419/76/1 420/74/1
f 421/75/1 422/77/1 423/78/1 424/76/1
f 425/59/1 426/91/1 427/71/1 428/46/1
f 429/91/1 430/92/1 431/73/1 432/71/1
f 433/92/1 434/93/1 435/75/1 436/73/1
f 437/93/1 438/94/1 439/77/1 440/75/1
f 441/62/1 442/95/1 443/91/1 444/59/1
f 445/95/1 446/96/1 447/92/1 448/91/1
f 449/96/1 450/97/1 451/93/1 452/92/1
f 453/97/1 454/98/1 455/94/1 456/93/1

