# Tiled2Unity generated file. Do not modify by hand.
# Wavefront file for 'NewBadManor_mesh_0329.obj'

# Vertices (Count = 140)
v 0 -2.56 -0.04624277
v -0.32 -2.56 -0.04624277
v -0.32 -2.24 -0.04624277
v 0 -2.24 -0.04624277
v -0.32 -2.56 -0.04624277
v -0.64 -2.56 -0.04624277
v -0.64 -2.24 -0.04624277
v -0.32 -2.24 -0.04624277
v -0.64 -2.56 -0.04624277
v -0.96 -2.56 -0.04624277
v -0.96 -2.24 -0.04624277
v -0.64 -2.24 -0.04624277
v -0.96 -2.56 -0.04624277
v -1.28 -2.56 -0.04624277
v -1.28 -2.24 -0.04624277
v -0.96 -2.24 -0.04624277
v -1.28 -2.56 -0.04624277
v -1.6 -2.56 -0.04624277
v -1.6 -2.24 -0.04624277
v -1.28 -2.24 -0.04624277
v 0 -2.88 -0.05202312
v -0.32 -2.88 -0.05202312
v -0.32 -2.56 -0.05202312
v 0 -2.56 -0.05202312
v -0.32 -2.88 -0.05202312
v -0.64 -2.88 -0.05202312
v -0.64 -2.56 -0.05202312
v -0.32 -2.56 -0.05202312
v -0.64 -2.88 -0.05202312
v -0.96 -2.88 -0.05202312
v -0.96 -2.56 -0.05202312
v -0.64 -2.56 -0.05202312
v -0.96 -2.88 -0.05202312
v -1.28 -2.88 -0.05202312
v -1.28 -2.56 -0.05202312
v -0.96 -2.56 -0.05202312
v -1.28 -2.88 -0.05202312
v -1.6 -2.88 -0.05202312
v -1.6 -2.56 -0.05202312
v -1.28 -2.56 -0.05202312
v 0 -3.2 -0.05780347
v -0.32 -3.2 -0.05780347
v -0.32 -2.88 -0.05780347
v 0 -2.88 -0.05780347
v -0.32 -3.2 -0.05780347
v -0.64 -3.2 -0.05780347
v -0.64 -2.88 -0.05780347
v -0.32 -2.88 -0.05780347
v -0.64 -3.2 -0.05780347
v -0.96 -3.2 -0.05780347
v -0.96 -2.88 -0.05780347
v -0.64 -2.88 -0.05780347
v -0.96 -3.2 -0.05780347
v -1.28 -3.2 -0.05780347
v -1.28 -2.88 -0.05780347
v -0.96 -2.88 -0.05780347
v -1.28 -3.2 -0.05780347
v -1.6 -3.2 -0.05780347
v -1.6 -2.88 -0.05780347
v -1.28 -2.88 -0.05780347
v 0 -3.52 -0.06358381
v -0.32 -3.52 -0.06358381
v -0.32 -3.2 -0.06358381
v 0 -3.2 -0.06358381
v -0.32 -3.52 -0.06358381
v -0.64 -3.52 -0.06358381
v -0.64 -3.2 -0.06358381
v -0.32 -3.2 -0.06358381
v -0.64 -3.52 -0.06358381
v -0.96 -3.52 -0.06358381
v -0.96 -3.2 -0.06358381
v -0.64 -3.2 -0.06358381
v -0.96 -3.52 -0.06358381
v -1.28 -3.52 -0.06358381
v -1.28 -3.2 -0.06358381
v -0.96 -3.2 -0.06358381
v -1.28 -3.52 -0.06358381
v -1.6 -3.52 -0.06358381
v -1.6 -3.2 -0.06358381
v -1.28 -3.2 -0.06358381
v 0 -3.84 -0.06936416
v -0.32 -3.84 -0.06936416
v -0.32 -3.52 -0.06936416
v 0 -3.52 -0.06936416
v -0.32 -3.84 -0.06936416
v -0.64 -3.84 -0.06936416
v -0.64 -3.52 -0.06936416
v -0.32 -3.52 -0.06936416
v -0.64 -3.84 -0.06936416
v -0.96 -3.84 -0.06936416
v -0.96 -3.52 -0.06936416
v -0.64 -3.52 -0.06936416
v -0.96 -3.84 -0.06936416
v -1.28 -3.84 -0.06936416
v -1.28 -3.52 -0.06936416
v -0.96 -3.52 -0.06936416
v -1.28 -3.84 -0.06936416
v -1.6 -3.84 -0.06936416
v -1.6 -3.52 -0.06936416
v -1.28 -3.52 -0.06936416
v 0 -4.16 -0.07514451
v -0.32 -4.16 -0.07514451
v -0.32 -3.84 -0.07514451
v 0 -3.84 -0.07514451
v -0.32 -4.16 -0.07514451
v -0.64 -4.16 -0.07514451
v -0.64 -3.84 -0.07514451
v -0.32 -3.84 -0.07514451
v -0.64 -4.16 -0.07514451
v -0.96 -4.16 -0.07514451
v -0.96 -3.84 -0.07514451
v -0.64 -3.84 -0.07514451
v -0.96 -4.16 -0.07514451
v -1.28 -4.16 -0.07514451
v -1.28 -3.84 -0.07514451
v -0.96 -3.84 -0.07514451
v -1.28 -4.16 -0.07514451
v -1.6 -4.16 -0.07514451
v -1.6 -3.84 -0.07514451
v -1.28 -3.84 -0.07514451
v 0 -4.48 -0.08092485
v -0.32 -4.48 -0.08092485
v -0.32 -4.16 -0.08092485
v 0 -4.16 -0.08092485
v -0.32 -4.48 -0.08092485
v -0.64 -4.48 -0.08092485
v -0.64 -4.16 -0.08092485
v -0.32 -4.16 -0.08092485
v -0.64 -4.48 -0.08092485
v -0.96 -4.48 -0.08092485
v -0.96 -4.16 -0.08092485
v -0.64 -4.16 -0.08092485
v -0.96 -4.48 -0.08092485
v -1.28 -4.48 -0.08092485
v -1.28 -4.16 -0.08092485
v -0.96 -4.16 -0.08092485
v -1.28 -4.48 -0.08092485
v -1.6 -4.48 -0.08092485
v -1.6 -4.16 -0.08092485
v -1.28 -4.16 -0.08092485

# Texture cooridinates (Count = 56)
vt 0.8125 0.8125
vt 0.84375 0.8125
vt 0.84375 0.84375
vt 0.8125 0.84375
vt 0.875 0.8125
vt 0.875 0.84375
vt 0.90625 0.8125
vt 0.90625 0.84375
vt 0.9375 0.8125
vt 0.9375 0.84375
vt 0.5 0.8125
vt 0.53125 0.8125
vt 0.53125 0.84375
vt 0.5 0.84375
vt 0.8125 0.78125
vt 0.84375 0.78125
vt 0.875 0.78125
vt 0.90625 0.78125
vt 0.9375 0.78125
vt 0.5 0.78125
vt 0.53125 0.78125
vt 0.8125 0.75
vt 0.84375 0.75
vt 0.875 0.75
vt 0.90625 0.75
vt 0.9375 0.75
vt 0.5 0.75
vt 0.53125 0.75
vt 0.8125 0.71875
vt 0.84375 0.71875
vt 0.875 0.71875
vt 0.90625 0.71875
vt 0.9375 0.71875
vt 0.5 0.71875
vt 0.53125 0.71875
vt 0.8125 0.6875
vt 0.84375 0.6875
vt 0.875 0.6875
vt 0.90625 0.6875
vt 0.9375 0.6875
vt 0.5 0.6875
vt 0.53125 0.6875
vt 0.8125 0.65625
vt 0.84375 0.65625
vt 0.875 0.65625
vt 0.90625 0.65625
vt 0.9375 0.65625
vt 0.5 0.65625
vt 0.53125 0.65625
vt 0.8125 0.625
vt 0.84375 0.625
vt 0.875 0.625
vt 0.90625 0.625
vt 0.9375 0.625
vt 0.5 0.625
vt 0.53125 0.625

# Normal
vn 0 0 -1

# Mesh description
g NewBadManor_mesh_0329

# Faces
f 1/1/1 2/2/1 3/3/1 4/4/1
f 5/2/1 6/5/1 7/6/1 8/3/1
f 9/5/1 10/7/1 11/8/1 12/6/1
f 13/7/1 14/9/1 15/10/1 16/8/1
f 17/11/1 18/12/1 19/13/1 20/14/1
f 21/15/1 22/16/1 23/2/1 24/1/1
f 25/16/1 26/17/1 27/5/1 28/2/1
f 29/17/1 30/18/1 31/7/1 32/5/1
f 33/18/1 34/19/1 35/9/1 36/7/1
f 37/20/1 38/21/1 39/12/1 40/11/1
f 41/22/1 42/23/1 43/16/1 44/15/1
f 45/23/1 46/24/1 47/17/1 48/16/1
f 49/24/1 50/25/1 51/18/1 52/17/1
f 53/25/1 54/26/1 55/19/1 56/18/1
f 57/27/1 58/28/1 59/21/1 60/20/1
f 61/29/1 62/30/1 63/23/1 64/22/1
f 65/30/1 66/31/1 67/24/1 68/23/1
f 69/31/1 70/32/1 71/25/1 72/24/1
f 73/32/1 74/33/1 75/26/1 76/25/1
f 77/34/1 78/35/1 79/28/1 80/27/1
f 81/36/1 82/37/1 83/30/1 84/29/1
f 85/37/1 86/38/1 87/31/1 88/30/1
f 89/38/1 90/39/1 91/32/1 92/31/1
f 93/39/1 94/40/1 95/33/1 96/32/1
f 97/41/1 98/42/1 99/35/1 100/34/1
f 101/43/1 102/44/1 103/37/1 104/36/1
f 105/44/1 106/45/1 107/38/1 108/37/1
f 109/45/1 110/46/1 111/39/1 112/38/1
f 113/46/1 114/47/1 115/40/1 116/39/1
f 117/48/1 118/49/1 119/42/1 120/41/1
f 121/50/1 122/51/1 123/44/1 124/43/1
f 125/51/1 126/52/1 127/45/1 128/44/1
f 129/52/1 130/53/1 131/46/1 132/45/1
f 133/53/1 134/54/1 135/47/1 136/46/1
f 137/55/1 138/56/1 139/49/1 140/48/1

