# Tiled2Unity generated file. Do not modify by hand.
# Wavefront file for 'NewBadManor_mesh_0171.obj'

# Vertices (Count = 104)
v 0 -0.32 -0.005780347
v -0.32 -0.32 -0.005780347
v -0.32 0 -0.005780347
v 0 0 -0.005780347
v -0.32 -0.32 -0.005780347
v -0.64 -0.32 -0.005780347
v -0.64 0 -0.005780347
v -0.32 0 -0.005780347
v -0.64 -0.32 -0.005780347
v -0.96 -0.32 -0.005780347
v -0.96 0 -0.005780347
v -0.64 0 -0.005780347
v -0.96 -0.32 -0.005780347
v -1.28 -0.32 -0.005780347
v -1.28 0 -0.005780347
v -0.96 0 -0.005780347
v -1.28 -0.32 -0.005780347
v -1.6 -0.32 -0.005780347
v -1.6 0 -0.005780347
v -1.28 0 -0.005780347
v -1.6 -0.32 -0.005780347
v -1.92 -0.32 -0.005780347
v -1.92 0 -0.005780347
v -1.6 0 -0.005780347
v -1.92 -0.32 -0.005780347
v -2.24 -0.32 -0.005780347
v -2.24 0 -0.005780347
v -1.92 0 -0.005780347
v -2.24 -0.32 -0.005780347
v -2.56 -0.32 -0.005780347
v -2.56 0 -0.005780347
v -2.24 0 -0.005780347
v -2.56 -0.32 -0.005780347
v -2.88 -0.32 -0.005780347
v -2.88 0 -0.005780347
v -2.56 0 -0.005780347
v -2.88 -0.32 -0.005780347
v -3.2 -0.32 -0.005780347
v -3.2 0 -0.005780347
v -2.88 0 -0.005780347
v -3.2 -0.32 -0.005780347
v -3.52 -0.32 -0.005780347
v -3.52 0 -0.005780347
v -3.2 0 -0.005780347
v -3.52 -0.32 -0.005780347
v -3.84 -0.32 -0.005780347
v -3.84 0 -0.005780347
v -3.52 0 -0.005780347
v -3.84 -0.32 -0.005780347
v -4.16 -0.32 -0.005780347
v -4.16 0 -0.005780347
v -3.84 0 -0.005780347
v 0 -0.64 -0.01156069
v -0.32 -0.64 -0.01156069
v -0.32 -0.32 -0.01156069
v 0 -0.32 -0.01156069
v -0.32 -0.64 -0.01156069
v -0.64 -0.64 -0.01156069
v -0.64 -0.32 -0.01156069
v -0.32 -0.32 -0.01156069
v -0.64 -0.64 -0.01156069
v -0.96 -0.64 -0.01156069
v -0.96 -0.32 -0.01156069
v -0.64 -0.32 -0.01156069
v -0.96 -0.64 -0.01156069
v -1.28 -0.64 -0.01156069
v -1.28 -0.32 -0.01156069
v -0.96 -0.32 -0.01156069
v -1.28 -0.64 -0.01156069
v -1.6 -0.64 -0.01156069
v -1.6 -0.32 -0.01156069
v -1.28 -0.32 -0.01156069
v -1.6 -0.64 -0.01156069
v -1.92 -0.64 -0.01156069
v -1.92 -0.32 -0.01156069
v -1.6 -0.32 -0.01156069
v -1.92 -0.64 -0.01156069
v -2.24 -0.64 -0.01156069
v -2.24 -0.32 -0.01156069
v -1.92 -0.32 -0.01156069
v -2.24 -0.64 -0.01156069
v -2.56 -0.64 -0.01156069
v -2.56 -0.32 -0.01156069
v -2.24 -0.32 -0.01156069
v -2.56 -0.64 -0.01156069
v -2.88 -0.64 -0.01156069
v -2.88 -0.32 -0.01156069
v -2.56 -0.32 -0.01156069
v -2.88 -0.64 -0.01156069
v -3.2 -0.64 -0.01156069
v -3.2 -0.32 -0.01156069
v -2.88 -0.32 -0.01156069
v -3.2 -0.64 -0.01156069
v -3.52 -0.64 -0.01156069
v -3.52 -0.32 -0.01156069
v -3.2 -0.32 -0.01156069
v -3.52 -0.64 -0.01156069
v -3.84 -0.64 -0.01156069
v -3.84 -0.32 -0.01156069
v -3.52 -0.32 -0.01156069
v -3.84 -0.64 -0.01156069
v -4.16 -0.64 -0.01156069
v -4.16 -0.32 -0.01156069
v -3.84 -0.32 -0.01156069

# Texture cooridinates (Count = 9)
vt 0.05 0.5
vt 0.1 0.5
vt 0.1 0.55
vt 0.05 0.55
vt 0 0.5
vt 0 0.55
vt 0.1 0.6
vt 0.05 0.6
vt 0 0.6

# Normal
vn 0 0 -1

# Mesh description
g NewBadManor_mesh_0171

# Faces
f 1/1/1 2/2/1 3/3/1 4/4/1
f 5/5/1 6/1/1 7/4/1 8/6/1
f 9/1/1 10/2/1 11/3/1 12/4/1
f 13/5/1 14/1/1 15/4/1 16/6/1
f 17/1/1 18/2/1 19/3/1 20/4/1
f 21/5/1 22/1/1 23/4/1 24/6/1
f 25/1/1 26/2/1 27/3/1 28/4/1
f 29/5/1 30/1/1 31/4/1 32/6/1
f 33/1/1 34/2/1 35/3/1 36/4/1
f 37/5/1 38/1/1 39/4/1 40/6/1
f 41/1/1 42/2/1 43/3/1 44/4/1
f 45/5/1 46/1/1 47/4/1 48/6/1
f 49/1/1 50/2/1 51/3/1 52/4/1
f 53/4/1 54/3/1 55/7/1 56/8/1
f 57/6/1 58/4/1 59/8/1 60/9/1
f 61/4/1 62/3/1 63/7/1 64/8/1
f 65/6/1 66/4/1 67/8/1 68/9/1
f 69/4/1 70/3/1 71/7/1 72/8/1
f 73/6/1 74/4/1 75/8/1 76/9/1
f 77/4/1 78/3/1 79/7/1 80/8/1
f 81/6/1 82/4/1 83/8/1 84/9/1
f 85/4/1 86/3/1 87/7/1 88/8/1
f 89/6/1 90/4/1 91/8/1 92/9/1
f 93/4/1 94/3/1 95/7/1 96/8/1
f 97/6/1 98/4/1 99/8/1 100/9/1
f 101/4/1 102/3/1 103/7/1 104/8/1

