# Tiled2Unity generated file. Do not modify by hand.
# Wavefront file for 'NewBadManor_mesh_0327.obj'

# Vertices (Count = 16)
v -2.56 -4.8 -0.0867052
v -2.88 -4.8 -0.0867052
v -2.88 -4.48 -0.0867052
v -2.56 -4.48 -0.0867052
v -2.88 -4.8 -0.0867052
v -3.2 -4.8 -0.0867052
v -3.2 -4.48 -0.0867052
v -2.88 -4.48 -0.0867052
v -2.56 -5.12 -0.09248555
v -2.88 -5.12 -0.09248555
v -2.88 -4.8 -0.09248555
v -2.56 -4.8 -0.09248555
v -2.88 -5.12 -0.09248555
v -3.2 -5.12 -0.09248555
v -3.2 -4.8 -0.09248555
v -2.88 -4.8 -0.09248555

# Texture cooridinates (Count = 9)
vt 0.4117647 0.8636364
vt 0.4411765 0.8636364
vt 0.4411765 0.9090909
vt 0.4117647 0.9090909
vt 0.4705882 0.8636364
vt 0.4705882 0.9090909
vt 0.4117647 0.8181818
vt 0.4411765 0.8181818
vt 0.4705882 0.8181818

# Normal
vn 0 0 -1

# Mesh description
g NewBadManor_mesh_0327

# Faces
f 1/1/1 2/2/1 3/3/1 4/4/1
f 5/2/1 6/5/1 7/6/1 8/3/1
f 9/7/1 10/8/1 11/2/1 12/1/1
f 13/8/1 14/9/1 15/5/1 16/2/1

