# Tiled2Unity generated file. Do not modify by hand.
# Wavefront file for 'NewBadManor_mesh_0146.obj'

# Vertices (Count = 296)
v -1.6 -0.32 -0.005780347
v -1.92 -0.32 -0.005780347
v -1.92 0 -0.005780347
v -1.6 0 -0.005780347
v -1.92 -0.32 -0.005780347
v -2.24 -0.32 -0.005780347
v -2.24 0 -0.005780347
v -1.92 0 -0.005780347
v -2.88 -0.32 -0.005780347
v -3.2 -0.32 -0.005780347
v -3.2 0 -0.005780347
v -2.88 0 -0.005780347
v -3.2 -0.32 -0.005780347
v -3.52 -0.32 -0.005780347
v -3.52 0 -0.005780347
v -3.2 0 -0.005780347
v -4.16 -0.32 -0.005780347
v -4.48 -0.32 -0.005780347
v -4.48 0 -0.005780347
v -4.16 0 -0.005780347
v -4.48 -0.32 -0.005780347
v -4.8 -0.32 -0.005780347
v -4.8 0 -0.005780347
v -4.48 0 -0.005780347
v -1.6 -0.64 -0.01156069
v -1.92 -0.64 -0.01156069
v -1.92 -0.32 -0.01156069
v -1.6 -0.32 -0.01156069
v -1.92 -0.64 -0.01156069
v -2.24 -0.64 -0.01156069
v -2.24 -0.32 -0.01156069
v -1.92 -0.32 -0.01156069
v -2.24 -0.64 -0.01156069
v -2.56 -0.64 -0.01156069
v -2.56 -0.32 -0.01156069
v -2.24 -0.32 -0.01156069
v -2.56 -0.64 -0.01156069
v -2.88 -0.64 -0.01156069
v -2.88 -0.32 -0.01156069
v -2.56 -0.32 -0.01156069
v -2.88 -0.64 -0.01156069
v -3.2 -0.64 -0.01156069
v -3.2 -0.32 -0.01156069
v -2.88 -0.32 -0.01156069
v -3.2 -0.64 -0.01156069
v -3.52 -0.64 -0.01156069
v -3.52 -0.32 -0.01156069
v -3.2 -0.32 -0.01156069
v -4.16 -0.64 -0.01156069
v -4.48 -0.64 -0.01156069
v -4.48 -0.32 -0.01156069
v -4.16 -0.32 -0.01156069
v -4.48 -0.64 -0.01156069
v -4.8 -0.64 -0.01156069
v -4.8 -0.32 -0.01156069
v -4.48 -0.32 -0.01156069
v -0.96 -0.96 -0.01734104
v -1.28 -0.96 -0.01734104
v -1.28 -0.64 -0.01734104
v -0.96 -0.64 -0.01734104
v -1.28 -0.96 -0.01734104
v -1.6 -0.96 -0.01734104
v -1.6 -0.64 -0.01734104
v -1.28 -0.64 -0.01734104
v -1.6 -0.96 -0.01734104
v -1.92 -0.96 -0.01734104
v -1.92 -0.64 -0.01734104
v -1.6 -0.64 -0.01734104
v -1.92 -0.96 -0.01734104
v -2.24 -0.96 -0.01734104
v -2.24 -0.64 -0.01734104
v -1.92 -0.64 -0.01734104
v -2.24 -0.96 -0.01734104
v -2.56 -0.96 -0.01734104
v -2.56 -0.64 -0.01734104
v -2.24 -0.64 -0.01734104
v -2.56 -0.96 -0.01734104
v -2.88 -0.96 -0.01734104
v -2.88 -0.64 -0.01734104
v -2.56 -0.64 -0.01734104
v -2.88 -0.96 -0.01734104
v -3.2 -0.96 -0.01734104
v -3.2 -0.64 -0.01734104
v -2.88 -0.64 -0.01734104
v -3.2 -0.96 -0.01734104
v -3.52 -0.96 -0.01734104
v -3.52 -0.64 -0.01734104
v -3.2 -0.64 -0.01734104
v -3.52 -0.96 -0.01734104
v -3.84 -0.96 -0.01734104
v -3.84 -0.64 -0.01734104
v -3.52 -0.64 -0.01734104
v -3.84 -0.96 -0.01734104
v -4.16 -0.96 -0.01734104
v -4.16 -0.64 -0.01734104
v -3.84 -0.64 -0.01734104
v -4.16 -0.96 -0.01734104
v -4.48 -0.96 -0.01734104
v -4.48 -0.64 -0.01734104
v -4.16 -0.64 -0.01734104
v -4.48 -0.96 -0.01734104
v -4.8 -0.96 -0.01734104
v -4.8 -0.64 -0.01734104
v -4.48 -0.64 -0.01734104
v -0.96 -1.28 -0.02312139
v -1.28 -1.28 -0.02312139
v -1.28 -0.96 -0.02312139
v -0.96 -0.96 -0.02312139
v -1.28 -1.28 -0.02312139
v -1.6 -1.28 -0.02312139
v -1.6 -0.96 -0.02312139
v -1.28 -0.96 -0.02312139
v -1.6 -1.28 -0.02312139
v -1.92 -1.28 -0.02312139
v -1.92 -0.96 -0.02312139
v -1.6 -0.96 -0.02312139
v -1.92 -1.28 -0.02312139
v -2.24 -1.28 -0.02312139
v -2.24 -0.96 -0.02312139
v -1.92 -0.96 -0.02312139
v -2.24 -1.28 -0.02312139
v -2.56 -1.28 -0.02312139
v -2.56 -0.96 -0.02312139
v -2.24 -0.96 -0.02312139
v -2.56 -1.28 -0.02312139
v -2.88 -1.28 -0.02312139
v -2.88 -0.96 -0.02312139
v -2.56 -0.96 -0.02312139
v -2.88 -1.28 -0.02312139
v -3.2 -1.28 -0.02312139
v -3.2 -0.96 -0.02312139
v -2.88 -0.96 -0.02312139
v -3.2 -1.28 -0.02312139
v -3.52 -1.28 -0.02312139
v -3.52 -0.96 -0.02312139
v -3.2 -0.96 -0.02312139
v -3.52 -1.28 -0.02312139
v -3.84 -1.28 -0.02312139
v -3.84 -0.96 -0.02312139
v -3.52 -0.96 -0.02312139
v -3.84 -1.28 -0.02312139
v -4.16 -1.28 -0.02312139
v -4.16 -0.96 -0.02312139
v -3.84 -0.96 -0.02312139
v -4.16 -1.28 -0.02312139
v -4.48 -1.28 -0.02312139
v -4.48 -0.96 -0.02312139
v -4.16 -0.96 -0.02312139
v -4.48 -1.28 -0.02312139
v -4.8 -1.28 -0.02312139
v -4.8 -0.96 -0.02312139
v -4.48 -0.96 -0.02312139
v -0.96 -1.6 -0.02890173
v -1.28 -1.6 -0.02890173
v -1.28 -1.28 -0.02890173
v -0.96 -1.28 -0.02890173
v -1.28 -1.6 -0.02890173
v -1.6 -1.6 -0.02890173
v -1.6 -1.28 -0.02890173
v -1.28 -1.28 -0.02890173
v -1.6 -1.6 -0.02890173
v -1.92 -1.6 -0.02890173
v -1.92 -1.28 -0.02890173
v -1.6 -1.28 -0.02890173
v -1.92 -1.6 -0.02890173
v -2.24 -1.6 -0.02890173
v -2.24 -1.28 -0.02890173
v -1.92 -1.28 -0.02890173
v -2.24 -1.6 -0.02890173
v -2.56 -1.6 -0.02890173
v -2.56 -1.28 -0.02890173
v -2.24 -1.28 -0.02890173
v -2.56 -1.6 -0.02890173
v -2.88 -1.6 -0.02890173
v -2.88 -1.28 -0.02890173
v -2.56 -1.28 -0.02890173
v -2.88 -1.6 -0.02890173
v -3.2 -1.6 -0.02890173
v -3.2 -1.28 -0.02890173
v -2.88 -1.28 -0.02890173
v -3.2 -1.6 -0.02890173
v -3.52 -1.6 -0.02890173
v -3.52 -1.28 -0.02890173
v -3.2 -1.28 -0.02890173
v -3.52 -1.6 -0.02890173
v -3.84 -1.6 -0.02890173
v -3.84 -1.28 -0.02890173
v -3.52 -1.28 -0.02890173
v -3.84 -1.6 -0.02890173
v -4.16 -1.6 -0.02890173
v -4.16 -1.28 -0.02890173
v -3.84 -1.28 -0.02890173
v -4.16 -1.6 -0.02890173
v -4.48 -1.6 -0.02890173
v -4.48 -1.28 -0.02890173
v -4.16 -1.28 -0.02890173
v -4.48 -1.6 -0.02890173
v -4.8 -1.6 -0.02890173
v -4.8 -1.28 -0.02890173
v -4.48 -1.28 -0.02890173
v -0.96 -1.92 -0.03468208
v -1.28 -1.92 -0.03468208
v -1.28 -1.6 -0.03468208
v -0.96 -1.6 -0.03468208
v -1.28 -1.92 -0.03468208
v -1.6 -1.92 -0.03468208
v -1.6 -1.6 -0.03468208
v -1.28 -1.6 -0.03468208
v -1.6 -1.92 -0.03468208
v -1.92 -1.92 -0.03468208
v -1.92 -1.6 -0.03468208
v -1.6 -1.6 -0.03468208
v -1.92 -1.92 -0.03468208
v -2.24 -1.92 -0.03468208
v -2.24 -1.6 -0.03468208
v -1.92 -1.6 -0.03468208
v -2.24 -1.92 -0.03468208
v -2.56 -1.92 -0.03468208
v -2.56 -1.6 -0.03468208
v -2.24 -1.6 -0.03468208
v -2.56 -1.92 -0.03468208
v -2.88 -1.92 -0.03468208
v -2.88 -1.6 -0.03468208
v -2.56 -1.6 -0.03468208
v -2.88 -1.92 -0.03468208
v -3.2 -1.92 -0.03468208
v -3.2 -1.6 -0.03468208
v -2.88 -1.6 -0.03468208
v -3.2 -1.92 -0.03468208
v -3.52 -1.92 -0.03468208
v -3.52 -1.6 -0.03468208
v -3.2 -1.6 -0.03468208
v -3.52 -1.92 -0.03468208
v -3.84 -1.92 -0.03468208
v -3.84 -1.6 -0.03468208
v -3.52 -1.6 -0.03468208
v -3.84 -1.92 -0.03468208
v -4.16 -1.92 -0.03468208
v -4.16 -1.6 -0.03468208
v -3.84 -1.6 -0.03468208
v -4.16 -1.92 -0.03468208
v -4.48 -1.92 -0.03468208
v -4.48 -1.6 -0.03468208
v -4.16 -1.6 -0.03468208
v -4.48 -1.92 -0.03468208
v -4.8 -1.92 -0.03468208
v -4.8 -1.6 -0.03468208
v -4.48 -1.6 -0.03468208
v -0.96 -2.24 -0.04046243
v -1.28 -2.24 -0.04046243
v -1.28 -1.92 -0.04046243
v -0.96 -1.92 -0.04046243
v -1.28 -2.24 -0.04046243
v -1.6 -2.24 -0.04046243
v -1.6 -1.92 -0.04046243
v -1.28 -1.92 -0.04046243
v -1.6 -2.24 -0.04046243
v -1.92 -2.24 -0.04046243
v -1.92 -1.92 -0.04046243
v -1.6 -1.92 -0.04046243
v -1.92 -2.24 -0.04046243
v -2.24 -2.24 -0.04046243
v -2.24 -1.92 -0.04046243
v -1.92 -1.92 -0.04046243
v -2.24 -2.24 -0.04046243
v -2.56 -2.24 -0.04046243
v -2.56 -1.92 -0.04046243
v -2.24 -1.92 -0.04046243
v -2.56 -2.24 -0.04046243
v -2.88 -2.24 -0.04046243
v -2.88 -1.92 -0.04046243
v -2.56 -1.92 -0.04046243
v -2.88 -2.24 -0.04046243
v -3.2 -2.24 -0.04046243
v -3.2 -1.92 -0.04046243
v -2.88 -1.92 -0.04046243
v -3.2 -2.24 -0.04046243
v -3.52 -2.24 -0.04046243
v -3.52 -1.92 -0.04046243
v -3.2 -1.92 -0.04046243
v -3.52 -2.24 -0.04046243
v -3.84 -2.24 -0.04046243
v -3.84 -1.92 -0.04046243
v -3.52 -1.92 -0.04046243
v -3.84 -2.24 -0.04046243
v -4.16 -2.24 -0.04046243
v -4.16 -1.92 -0.04046243
v -3.84 -1.92 -0.04046243
v -4.16 -2.24 -0.04046243
v -4.48 -2.24 -0.04046243
v -4.48 -1.92 -0.04046243
v -4.16 -1.92 -0.04046243
v -4.48 -2.24 -0.04046243
v -4.8 -2.24 -0.04046243
v -4.8 -1.92 -0.04046243
v -4.48 -1.92 -0.04046243

# Texture cooridinates (Count = 85)
vt 0.1666667 0.9230769
vt 0.25 0.9230769
vt 0.25 0.9615384
vt 0.1666667 0.9615384
vt 0.3333333 0.9230769
vt 0.3333333 0.9615384
vt 0 0.9615384
vt 0.08333334 0.9615384
vt 0.08333334 1
vt 0 1
vt 0.1666667 1
vt 0.5 0.9615384
vt 0.5833333 0.9615384
vt 0.5833333 1
vt 0.5 1
vt 0.6666667 0.9615384
vt 0.6666667 1
vt 0.1666667 0.8846154
vt 0.25 0.8846154
vt 0.3333333 0.8846154
vt 0 0.7307692
vt 0.08333334 0.7307692
vt 0.08333334 0.7692308
vt 0 0.7692308
vt 0.1666667 0.7307692
vt 0.1666667 0.7692308
vt 0 0.9230769
vt 0.08333334 0.9230769
vt 0.5 0.9230769
vt 0.5833333 0.9230769
vt 0.6666667 0.9230769
vt 0.1666667 0.8461539
vt 0.25 0.8461539
vt 0.3333333 0.8461539
vt 0 0.6923077
vt 0.08333334 0.6923077
vt 0.1666667 0.6923077
vt 0 0.8846154
vt 0.08333334 0.8846154
vt 0.25 0.7307692
vt 0.25 0.7692308
vt 0.3333333 0.7307692
vt 0.3333333 0.7692308
vt 0.5 0.8846154
vt 0.5833333 0.8846154
vt 0.6666667 0.8846154
vt 0.4166667 0.9230769
vt 0.4166667 0.9615384
vt 0.25 0.6923077
vt 0.3333333 0.6923077
vt 0.4166667 0.6923077
vt 0.4166667 0.7307692
vt 0.5 0.6923077
vt 0.5 0.7307692
vt 0.4166667 0.8846154
vt 0.1666667 0.6538461
vt 0.25 0.6538461
vt 0.3333333 0.6538461
vt 0.4166667 0.6538461
vt 0.5 0.6538461
vt 0 0.8461539
vt 0.08333334 0.8461539
vt 0.4166667 0.8461539
vt 0.5 0.8461539
vt 0.5833333 0.8461539
vt 0.6666667 0.8461539
vt 0.1666667 0.6153846
vt 0.25 0.6153846
vt 0.3333333 0.6153846
vt 0.4166667 0.6153846
vt 0.5 0.6153846
vt 0 0.8076923
vt 0.08333334 0.8076923
vt 0.1666667 0.8076923
vt 0.25 0.8076923
vt 0.3333333 0.8076923
vt 0.4166667 0.8076923
vt 0.5 0.8076923
vt 0.5833333 0.8076923
vt 0.6666667 0.8076923
vt 0.1666667 0.5769231
vt 0.25 0.5769231
vt 0.3333333 0.5769231
vt 0.4166667 0.5769231
vt 0.5 0.5769231

# Normal
vn 0 0 -1

# Mesh description
g NewBadManor_mesh_0146

# Faces
f 1/1/1 2/2/1 3/3/1 4/4/1
f 5/2/1 6/5/1 7/6/1 8/3/1
f 9/7/1 10/8/1 11/9/1 12/10/1
f 13/8/1 14/4/1 15/11/1 16/9/1
f 17/12/1 18/13/1 19/14/1 20/15/1
f 21/13/1 22/16/1 23/17/1 24/14/1
f 25/18/1 26/19/1 27/2/1 28/1/1
f 29/19/1 30/20/1 31/5/1 32/2/1
f 33/21/1 34/22/1 35/23/1 36/24/1
f 37/22/1 38/25/1 39/26/1 40/23/1
f 41/27/1 42/28/1 43/8/1 44/7/1
f 45/28/1 46/1/1 47/4/1 48/8/1
f 49/29/1 50/30/1 51/13/1 52/12/1
f 53/30/1 54/31/1 55/16/1 56/13/1
f 57/7/1 58/8/1 59/9/1 60/10/1
f 61/8/1 62/4/1 63/11/1 64/9/1
f 65/32/1 66/33/1 67/19/1 68/18/1
f 69/33/1 70/34/1 71/20/1 72/19/1
f 73/35/1 74/36/1 75/22/1 76/21/1
f 77/36/1 78/37/1 79/25/1 80/22/1
f 81/38/1 82/39/1 83/28/1 84/27/1
f 85/39/1 86/18/1 87/1/1 88/28/1
f 89/25/1 90/40/1 91/41/1 92/26/1
f 93/40/1 94/42/1 95/43/1 96/41/1
f 97/44/1 98/45/1 99/30/1 100/29/1
f 101/45/1 102/46/1 103/31/1 104/30/1
f 105/27/1 106/28/1 107/8/1 108/7/1
f 109/28/1 110/1/1 111/4/1 112/8/1
f 113/1/1 114/2/1 115/3/1 116/4/1
f 117/2/1 118/5/1 119/6/1 120/3/1
f 121/5/1 122/47/1 123/48/1 124/6/1
f 125/47/1 126/29/1 127/12/1 128/48/1
f 129/29/1 130/30/1 131/13/1 132/12/1
f 133/30/1 134/31/1 135/16/1 136/13/1
f 137/37/1 138/49/1 139/40/1 140/25/1
f 141/49/1 142/50/1 143/42/1 144/40/1
f 145/50/1 146/51/1 147/52/1 148/42/1
f 149/51/1 150/53/1 151/54/1 152/52/1
f 153/38/1 154/39/1 155/28/1 156/27/1
f 157/39/1 158/18/1 159/1/1 160/28/1
f 161/18/1 162/19/1 163/2/1 164/1/1
f 165/19/1 166/20/1 167/5/1 168/2/1
f 169/20/1 170/55/1 171/47/1 172/5/1
f 173/55/1 174/44/1 175/29/1 176/47/1
f 177/44/1 178/45/1 179/30/1 180/29/1
f 181/45/1 182/46/1 183/31/1 184/30/1
f 185/56/1 186/57/1 187/49/1 188/37/1
f 189/57/1 190/58/1 191/50/1 192/49/1
f 193/58/1 194/59/1 195/51/1 196/50/1
f 197/59/1 198/60/1 199/53/1 200/51/1
f 201/61/1 202/62/1 203/39/1 204/38/1
f 205/62/1 206/32/1 207/18/1 208/39/1
f 209/32/1 210/33/1 211/19/1 212/18/1
f 213/33/1 214/34/1 215/20/1 216/19/1
f 217/34/1 218/63/1 219/55/1 220/20/1
f 221/63/1 222/64/1 223/44/1 224/55/1
f 225/64/1 226/65/1 227/45/1 228/44/1
f 229/65/1 230/66/1 231/46/1 232/45/1
f 233/67/1 234/68/1 235/57/1 236/56/1
f 237/68/1 238/69/1 239/58/1 240/57/1
f 241/69/1 242/70/1 243/59/1 244/58/1
f 245/70/1 246/71/1 247/60/1 248/59/1
f 249/72/1 250/73/1 251/62/1 252/61/1
f 253/73/1 254/74/1 255/32/1 256/62/1
f 257/74/1 258/75/1 259/33/1 260/32/1
f 261/75/1 262/76/1 263/34/1 264/33/1
f 265/76/1 266/77/1 267/63/1 268/34/1
f 269/77/1 270/78/1 271/64/1 272/63/1
f 273/78/1 274/79/1 275/65/1 276/64/1
f 277/79/1 278/80/1 279/66/1 280/65/1
f 281/81/1 282/82/1 283/68/1 284/67/1
f 285/82/1 286/83/1 287/69/1 288/68/1
f 289/83/1 290/84/1 291/70/1 292/69/1
f 293/84/1 294/85/1 295/71/1 296/70/1

