# Tiled2Unity generated file. Do not modify by hand.
# Wavefront file for 'NewBadManor_mesh_0287.obj'

# Vertices (Count = 24)
v -0.96 -0.32 -0.005780347
v -1.28 -0.32 -0.005780347
v -1.28 0 -0.005780347
v -0.96 0 -0.005780347
v -0.96 -0.64 -0.01156069
v -1.28 -0.64 -0.01156069
v -1.28 -0.32 -0.01156069
v -0.96 -0.32 -0.01156069
v -0.96 -0.96 -0.01734104
v -1.28 -0.96 -0.01734104
v -1.28 -0.64 -0.01734104
v -0.96 -0.64 -0.01734104
v -0.96 -1.28 -0.02312139
v -1.28 -1.28 -0.02312139
v -1.28 -0.96 -0.02312139
v -0.96 -0.96 -0.02312139
v -0.96 -1.6 -0.02890173
v -1.28 -1.6 -0.02890173
v -1.28 -1.28 -0.02890173
v -0.96 -1.28 -0.02890173
v -0.96 -1.92 -0.03468208
v -1.28 -1.92 -0.03468208
v -1.28 -1.6 -0.03468208
v -0.96 -1.6 -0.03468208

# Texture cooridinates (Count = 6)
vt 0.15 0.85
vt 0.2 0.85
vt 0.2 0.9
vt 0.15 0.9
vt 0.15 0.8
vt 0.2 0.8

# Normal
vn 0 0 -1

# Mesh description
g NewBadManor_mesh_0287

# Faces
f 1/1/1 2/2/1 3/3/1 4/4/1
f 5/1/1 6/2/1 7/3/1 8/4/1
f 9/1/1 10/2/1 11/3/1 12/4/1
f 13/1/1 14/2/1 15/3/1 16/4/1
f 17/1/1 18/2/1 19/3/1 20/4/1
f 21/5/1 22/6/1 23/2/1 24/1/1

