# Tiled2Unity generated file. Do not modify by hand.
# Wavefront file for 'NewBadManor_mesh_0344.obj'

# Vertices (Count = 120)
v -4.16 -0.64 -0.01156069
v -4.48 -0.64 -0.01156069
v -4.48 -0.32 -0.01156069
v -4.16 -0.32 -0.01156069
v -4.48 -0.64 -0.01156069
v -4.8 -0.64 -0.01156069
v -4.8 -0.32 -0.01156069
v -4.48 -0.32 -0.01156069
v -4.8 -0.64 -0.01156069
v -5.12 -0.64 -0.01156069
v -5.12 -0.32 -0.01156069
v -4.8 -0.32 -0.01156069
v -4.16 -0.96 -0.01734104
v -4.48 -0.96 -0.01734104
v -4.48 -0.64 -0.01734104
v -4.16 -0.64 -0.01734104
v -4.48 -0.96 -0.01734104
v -4.8 -0.96 -0.01734104
v -4.8 -0.64 -0.01734104
v -4.48 -0.64 -0.01734104
v -4.8 -0.96 -0.01734104
v -5.12 -0.96 -0.01734104
v -5.12 -0.64 -0.01734104
v -4.8 -0.64 -0.01734104
v -4.16 -1.28 -0.02312139
v -4.48 -1.28 -0.02312139
v -4.48 -0.96 -0.02312139
v -4.16 -0.96 -0.02312139
v -4.48 -1.28 -0.02312139
v -4.8 -1.28 -0.02312139
v -4.8 -0.96 -0.02312139
v -4.48 -0.96 -0.02312139
v -4.8 -1.28 -0.02312139
v -5.12 -1.28 -0.02312139
v -5.12 -0.96 -0.02312139
v -4.8 -0.96 -0.02312139
v -4.16 -1.6 -0.02890173
v -4.48 -1.6 -0.02890173
v -4.48 -1.28 -0.02890173
v -4.16 -1.28 -0.02890173
v -4.48 -1.6 -0.02890173
v -4.8 -1.6 -0.02890173
v -4.8 -1.28 -0.02890173
v -4.48 -1.28 -0.02890173
v -4.8 -1.6 -0.02890173
v -5.12 -1.6 -0.02890173
v -5.12 -1.28 -0.02890173
v -4.8 -1.28 -0.02890173
v -4.16 -1.92 -0.03468208
v -4.48 -1.92 -0.03468208
v -4.48 -1.6 -0.03468208
v -4.16 -1.6 -0.03468208
v -4.48 -1.92 -0.03468208
v -4.8 -1.92 -0.03468208
v -4.8 -1.6 -0.03468208
v -4.48 -1.6 -0.03468208
v -4.8 -1.92 -0.03468208
v -5.12 -1.92 -0.03468208
v -5.12 -1.6 -0.03468208
v -4.8 -1.6 -0.03468208
v -4.16 -3.52 -0.06358381
v -4.48 -3.52 -0.06358381
v -4.48 -3.2 -0.06358381
v -4.16 -3.2 -0.06358381
v -4.48 -3.52 -0.06358381
v -4.8 -3.52 -0.06358381
v -4.8 -3.2 -0.06358381
v -4.48 -3.2 -0.06358381
v -4.8 -3.52 -0.06358381
v -5.12 -3.52 -0.06358381
v -5.12 -3.2 -0.06358381
v -4.8 -3.2 -0.06358381
v -4.16 -3.84 -0.06936416
v -4.48 -3.84 -0.06936416
v -4.48 -3.52 -0.06936416
v -4.16 -3.52 -0.06936416
v -4.48 -3.84 -0.06936416
v -4.8 -3.84 -0.06936416
v -4.8 -3.52 -0.06936416
v -4.48 -3.52 -0.06936416
v -4.8 -3.84 -0.06936416
v -5.12 -3.84 -0.06936416
v -5.12 -3.52 -0.06936416
v -4.8 -3.52 -0.06936416
v -4.16 -4.16 -0.07514451
v -4.48 -4.16 -0.07514451
v -4.48 -3.84 -0.07514451
v -4.16 -3.84 -0.07514451
v -4.48 -4.16 -0.07514451
v -4.8 -4.16 -0.07514451
v -4.8 -3.84 -0.07514451
v -4.48 -3.84 -0.07514451
v -4.8 -4.16 -0.07514451
v -5.12 -4.16 -0.07514451
v -5.12 -3.84 -0.07514451
v -4.8 -3.84 -0.07514451
v -4.16 -4.48 -0.08092485
v -4.48 -4.48 -0.08092485
v -4.48 -4.16 -0.08092485
v -4.16 -4.16 -0.08092485
v -4.48 -4.48 -0.08092485
v -4.8 -4.48 -0.08092485
v -4.8 -4.16 -0.08092485
v -4.48 -4.16 -0.08092485
v -4.8 -4.48 -0.08092485
v -5.12 -4.48 -0.08092485
v -5.12 -4.16 -0.08092485
v -4.8 -4.16 -0.08092485
v -4.16 -4.8 -0.0867052
v -4.48 -4.8 -0.0867052
v -4.48 -4.48 -0.0867052
v -4.16 -4.48 -0.0867052
v -4.48 -4.8 -0.0867052
v -4.8 -4.8 -0.0867052
v -4.8 -4.48 -0.0867052
v -4.48 -4.48 -0.0867052
v -4.8 -4.8 -0.0867052
v -5.12 -4.8 -0.0867052
v -5.12 -4.48 -0.0867052
v -4.8 -4.48 -0.0867052

# Texture cooridinates (Count = 8)
vt 0.4375 0.78125
vt 0.46875 0.78125
vt 0.46875 0.8125
vt 0.4375 0.8125
vt 0.5 0.78125
vt 0.5 0.8125
vt 0.4375 0.75
vt 0.46875 0.75

# Normal
vn 0 0 -1

# Mesh description
g NewBadManor_mesh_0344

# Faces
f 1/1/1 2/2/1 3/3/1 4/4/1
f 5/1/1 6/2/1 7/3/1 8/4/1
f 9/2/1 10/5/1 11/6/1 12/3/1
f 13/1/1 14/2/1 15/3/1 16/4/1
f 17/1/1 18/2/1 19/3/1 20/4/1
f 21/1/1 22/2/1 23/3/1 24/4/1
f 25/1/1 26/2/1 27/3/1 28/4/1
f 29/7/1 30/8/1 31/2/1 32/1/1
f 33/7/1 34/8/1 35/2/1 36/1/1
f 37/1/1 38/2/1 39/3/1 40/4/1
f 41/1/1 42/2/1 43/3/1 44/4/1
f 45/1/1 46/2/1 47/3/1 48/4/1
f 49/7/1 50/8/1 51/2/1 52/1/1
f 53/7/1 54/8/1 55/2/1 56/1/1
f 57/7/1 58/8/1 59/2/1 60/1/1
f 61/1/1 62/2/1 63/3/1 64/4/1
f 65/1/1 66/2/1 67/3/1 68/4/1
f 69/2/1 70/5/1 71/6/1 72/3/1
f 73/1/1 74/2/1 75/3/1 76/4/1
f 77/1/1 78/2/1 79/3/1 80/4/1
f 81/1/1 82/2/1 83/3/1 84/4/1
f 85/1/1 86/2/1 87/3/1 88/4/1
f 89/7/1 90/8/1 91/2/1 92/1/1
f 93/7/1 94/8/1 95/2/1 96/1/1
f 97/1/1 98/2/1 99/3/1 100/4/1
f 101/1/1 102/2/1 103/3/1 104/4/1
f 105/1/1 106/2/1 107/3/1 108/4/1
f 109/7/1 110/8/1 111/2/1 112/1/1
f 113/7/1 114/8/1 115/2/1 116/1/1
f 117/7/1 118/8/1 119/2/1 120/1/1

