# Tiled2Unity generated file. Do not modify by hand.
# Wavefront file for 'NewBadManor_mesh_0063.obj'

# Vertices (Count = 112)
v -35.2 -3.84 0
v -35.84 -3.84 0
v -35.84 -3.2 0
v -35.2 -3.2 0
v -35.84 -3.84 0
v -36.48 -3.84 0
v -36.48 -3.2 0
v -35.84 -3.2 0
v -36.48 -3.84 0
v -37.12 -3.84 0
v -37.12 -3.2 0
v -36.48 -3.2 0
v -37.12 -3.84 0
v -37.76 -3.84 0
v -37.76 -3.2 0
v -37.12 -3.2 0
v -43.52 -3.84 0
v -44.16 -3.84 0
v -44.16 -3.2 0
v -43.52 -3.2 0
v -44.16 -3.84 0
v -44.8 -3.84 0
v -44.8 -3.2 0
v -44.16 -3.2 0
v -45.44 -3.84 0
v -46.08 -3.84 0
v -46.08 -3.2 0
v -45.44 -3.2 0
v -46.08 -3.84 0
v -46.72 -3.84 0
v -46.72 -3.2 0
v -46.08 -3.2 0
v -46.72 -3.84 0
v -47.36 -3.84 0
v -47.36 -3.2 0
v -46.72 -3.2 0
v -47.36 -3.84 0
v -48 -3.84 0
v -48 -3.2 0
v -47.36 -3.2 0
v -53.76 -3.84 0
v -54.4 -3.84 0
v -54.4 -3.2 0
v -53.76 -3.2 0
v -54.4 -3.84 0
v -55.04 -3.84 0
v -55.04 -3.2 0
v -54.4 -3.2 0
v -55.68 -3.84 0
v -56.32 -3.84 0
v -56.32 -3.2 0
v -55.68 -3.2 0
v -56.32 -3.84 0
v -56.96 -3.84 0
v -56.96 -3.2 0
v -56.32 -3.2 0
v -56.96 -3.84 0
v -57.6 -3.84 0
v -57.6 -3.2 0
v -56.96 -3.2 0
v -57.6 -3.84 0
v -58.24 -3.84 0
v -58.24 -3.2 0
v -57.6 -3.2 0
v -1.92 -4.48 0
v -2.56 -4.48 0
v -2.56 -3.84 0
v -1.92 -3.84 0
v -2.56 -4.48 0
v -3.2 -4.48 0
v -3.2 -3.84 0
v -2.56 -3.84 0
v -3.2 -4.48 0
v -3.84 -4.48 0
v -3.84 -3.84 0
v -3.2 -3.84 0
v -3.84 -4.48 0
v -4.48 -4.48 0
v -4.48 -3.84 0
v -3.84 -3.84 0
v -12.16 -4.48 0
v -12.8 -4.48 0
v -12.8 -3.84 0
v -12.16 -3.84 0
v -12.8 -4.48 0
v -13.44 -4.48 0
v -13.44 -3.84 0
v -12.8 -3.84 0
v -13.44 -4.48 0
v -14.08 -4.48 0
v -14.08 -3.84 0
v -13.44 -3.84 0
v -14.08 -4.48 0
v -14.72 -4.48 0
v -14.72 -3.84 0
v -14.08 -3.84 0
v -10.24 -5.76 0
v -10.88 -5.76 0
v -10.88 -5.12 0
v -10.24 -5.12 0
v -10.88 -5.76 0
v -11.52 -5.76 0
v -11.52 -5.12 0
v -10.88 -5.12 0
v -20.48 -5.76 0
v -21.12 -5.76 0
v -21.12 -5.12 0
v -20.48 -5.12 0
v -21.12 -5.76 0
v -21.76 -5.76 0
v -21.76 -5.12 0
v -21.12 -5.12 0

# Texture cooridinates (Count = 39)
vt 0.4583333 0.4047619
vt 0.4791667 0.4047619
vt 0.4791667 0.4285714
vt 0.4583333 0.4285714
vt 0.5 0.4047619
vt 0.5 0.4285714
vt 0.5208333 0.4047619
vt 0.5208333 0.4285714
vt 0.5416667 0.4047619
vt 0.5416667 0.4285714
vt 0.25 0.7857143
vt 0.2708333 0.7857143
vt 0.2708333 0.8095238
vt 0.25 0.8095238
vt 0.2916667 0.7857143
vt 0.2916667 0.8095238
vt 0.4583333 0.3809524
vt 0.4791667 0.3809524
vt 0.5 0.3809524
vt 0.5208333 0.3809524
vt 0.5416667 0.3809524
vt 0.25 0.7619048
vt 0.2708333 0.7619048
vt 0.2916667 0.7619048
vt 0.4583333 0.3571429
vt 0.4791667 0.3571429
vt 0.5 0.3571429
vt 0.5208333 0.3571429
vt 0.5416667 0.3571429
vt 0.4583333 0.3333333
vt 0.4791667 0.3333333
vt 0.5 0.3333333
vt 0.5208333 0.3333333
vt 0.5416667 0.3333333
vt 0.4583333 0.3095238
vt 0.4791667 0.3095238
vt 0.5 0.3095238
vt 0.5208333 0.3095238
vt 0.5416667 0.3095238

# Normal
vn 0 0 -1

# Mesh description
g NewBadManor_mesh_0063

# Faces
f 1/1/1 2/2/1 3/3/1 4/4/1
f 5/2/1 6/5/1 7/6/1 8/3/1
f 9/5/1 10/7/1 11/8/1 12/6/1
f 13/7/1 14/9/1 15/10/1 16/8/1
f 17/11/1 18/12/1 19/13/1 20/14/1
f 21/12/1 22/15/1 23/16/1 24/13/1
f 25/17/1 26/18/1 27/2/1 28/1/1
f 29/18/1 30/19/1 31/5/1 32/2/1
f 33/19/1 34/20/1 35/7/1 36/5/1
f 37/20/1 38/21/1 39/9/1 40/7/1
f 41/22/1 42/23/1 43/12/1 44/11/1
f 45/23/1 46/24/1 47/15/1 48/12/1
f 49/25/1 50/26/1 51/18/1 52/17/1
f 53/26/1 54/27/1 55/19/1 56/18/1
f 57/27/1 58/28/1 59/20/1 60/19/1
f 61/28/1 62/29/1 63/21/1 64/20/1
f 65/30/1 66/31/1 67/26/1 68/25/1
f 69/31/1 70/32/1 71/27/1 72/26/1
f 73/32/1 74/33/1 75/28/1 76/27/1
f 77/33/1 78/34/1 79/29/1 80/28/1
f 81/35/1 82/36/1 83/31/1 84/30/1
f 85/36/1 86/37/1 87/32/1 88/31/1
f 89/37/1 90/38/1 91/33/1 92/32/1
f 93/38/1 94/39/1 95/34/1 96/33/1
f 97/11/1 98/12/1 99/13/1 100/14/1
f 101/12/1 102/15/1 103/16/1 104/13/1
f 105/22/1 106/23/1 107/12/1 108/11/1
f 109/23/1 110/24/1 111/15/1 112/12/1

