# Tiled2Unity generated file. Do not modify by hand.
# Wavefront file for 'NewBadManor_mesh_0325.obj'

# Vertices (Count = 8)
v 0 -2.24 -0.04046243
v -0.32 -2.24 -0.04046243
v -0.32 -1.92 -0.04046243
v 0 -1.92 -0.04046243
v 0 -2.56 -0.04624277
v -0.32 -2.56 -0.04624277
v -0.32 -2.24 -0.04624277
v 0 -2.24 -0.04624277

# Texture cooridinates (Count = 6)
vt 0.5 0.125
vt 0.6 0.125
vt 0.6 0.25
vt 0.5 0.25
vt 0.5 0
vt 0.6 0

# Normal
vn 0 0 -1

# Mesh description
g NewBadManor_mesh_0325

# Faces
f 1/1/1 2/2/1 3/3/1 4/4/1
f 5/5/1 6/6/1 7/2/1 8/1/1

