# Tiled2Unity generated file. Do not modify by hand.
# Wavefront file for 'NewBadManor_mesh_0130.obj'

# Vertices (Count = 40)
v -0.32 -0.32 -0.005780347
v -0.64 -0.32 -0.005780347
v -0.64 0 -0.005780347
v -0.32 0 -0.005780347
v -0.64 -0.32 -0.005780347
v -0.96 -0.32 -0.005780347
v -0.96 0 -0.005780347
v -0.64 0 -0.005780347
v -0.32 -0.64 -0.01156069
v -0.64 -0.64 -0.01156069
v -0.64 -0.32 -0.01156069
v -0.32 -0.32 -0.01156069
v -0.64 -0.64 -0.01156069
v -0.96 -0.64 -0.01156069
v -0.96 -0.32 -0.01156069
v -0.64 -0.32 -0.01156069
v -0.32 -0.96 -0.01734104
v -0.64 -0.96 -0.01734104
v -0.64 -0.64 -0.01734104
v -0.32 -0.64 -0.01734104
v -0.64 -0.96 -0.01734104
v -0.96 -0.96 -0.01734104
v -0.96 -0.64 -0.01734104
v -0.64 -0.64 -0.01734104
v -0.32 -1.28 -0.02312139
v -0.64 -1.28 -0.02312139
v -0.64 -0.96 -0.02312139
v -0.32 -0.96 -0.02312139
v -0.64 -1.28 -0.02312139
v -0.96 -1.28 -0.02312139
v -0.96 -0.96 -0.02312139
v -0.64 -0.96 -0.02312139
v -0.32 -1.6 -0.02890173
v -0.64 -1.6 -0.02890173
v -0.64 -1.28 -0.02890173
v -0.32 -1.28 -0.02890173
v -0.64 -1.6 -0.02890173
v -0.96 -1.6 -0.02890173
v -0.96 -1.28 -0.02890173
v -0.64 -1.28 -0.02890173

# Texture cooridinates (Count = 9)
vt 0.1666667 0.7333333
vt 0.2083333 0.7333333
vt 0.2083333 0.7666667
vt 0.1666667 0.7666667
vt 0.25 0.7333333
vt 0.25 0.7666667
vt 0.2083333 0.8
vt 0.1666667 0.8
vt 0.25 0.8

# Normal
vn 0 0 -1

# Mesh description
g NewBadManor_mesh_0130

# Faces
f 1/1/1 2/2/1 3/3/1 4/4/1
f 5/2/1 6/5/1 7/6/1 8/3/1
f 9/4/1 10/3/1 11/7/1 12/8/1
f 13/3/1 14/6/1 15/9/1 16/7/1
f 17/1/1 18/2/1 19/3/1 20/4/1
f 21/2/1 22/5/1 23/6/1 24/3/1
f 25/4/1 26/3/1 27/7/1 28/8/1
f 29/3/1 30/6/1 31/9/1 32/7/1
f 33/1/1 34/2/1 35/3/1 36/4/1
f 37/2/1 38/5/1 39/6/1 40/3/1

