# Tiled2Unity generated file. Do not modify by hand.
# Wavefront file for 'NewBadManor_mesh_0159.obj'

# Vertices (Count = 64)
v -1.92 -0.96 -0.01734104
v -2.24 -0.96 -0.01734104
v -2.24 -0.64 -0.01734104
v -1.92 -0.64 -0.01734104
v -2.24 -0.96 -0.01734104
v -2.56 -0.96 -0.01734104
v -2.56 -0.64 -0.01734104
v -2.24 -0.64 -0.01734104
v -3.2 -0.96 -0.01734104
v -3.52 -0.96 -0.01734104
v -3.52 -0.64 -0.01734104
v -3.2 -0.64 -0.01734104
v -3.52 -0.96 -0.01734104
v -3.84 -0.96 -0.01734104
v -3.84 -0.64 -0.01734104
v -3.52 -0.64 -0.01734104
v -1.92 -1.28 -0.02312139
v -2.24 -1.28 -0.02312139
v -2.24 -0.96 -0.02312139
v -1.92 -0.96 -0.02312139
v -2.24 -1.28 -0.02312139
v -2.56 -1.28 -0.02312139
v -2.56 -0.96 -0.02312139
v -2.24 -0.96 -0.02312139
v -3.2 -1.28 -0.02312139
v -3.52 -1.28 -0.02312139
v -3.52 -0.96 -0.02312139
v -3.2 -0.96 -0.02312139
v -3.52 -1.28 -0.02312139
v -3.84 -1.28 -0.02312139
v -3.84 -0.96 -0.02312139
v -3.52 -0.96 -0.02312139
v -1.92 -3.2 -0.05780347
v -2.24 -3.2 -0.05780347
v -2.24 -2.88 -0.05780347
v -1.92 -2.88 -0.05780347
v -2.24 -3.2 -0.05780347
v -2.56 -3.2 -0.05780347
v -2.56 -2.88 -0.05780347
v -2.24 -2.88 -0.05780347
v -3.2 -3.2 -0.05780347
v -3.52 -3.2 -0.05780347
v -3.52 -2.88 -0.05780347
v -3.2 -2.88 -0.05780347
v -3.52 -3.2 -0.05780347
v -3.84 -3.2 -0.05780347
v -3.84 -2.88 -0.05780347
v -3.52 -2.88 -0.05780347
v -1.92 -3.52 -0.06358381
v -2.24 -3.52 -0.06358381
v -2.24 -3.2 -0.06358381
v -1.92 -3.2 -0.06358381
v -2.24 -3.52 -0.06358381
v -2.56 -3.52 -0.06358381
v -2.56 -3.2 -0.06358381
v -2.24 -3.2 -0.06358381
v -3.2 -3.52 -0.06358381
v -3.52 -3.52 -0.06358381
v -3.52 -3.2 -0.06358381
v -3.2 -3.2 -0.06358381
v -3.52 -3.52 -0.06358381
v -3.84 -3.52 -0.06358381
v -3.84 -3.2 -0.06358381
v -3.52 -3.2 -0.06358381

# Texture cooridinates (Count = 9)
vt 0.6363636 0.7
vt 0.6818182 0.7
vt 0.6818182 0.8
vt 0.6363636 0.8
vt 0.7272727 0.7
vt 0.7272727 0.8
vt 0.6363636 0.6
vt 0.6818182 0.6
vt 0.7272727 0.6

# Normal
vn 0 0 -1

# Mesh description
g NewBadManor_mesh_0159

# Faces
f 1/1/1 2/2/1 3/3/1 4/4/1
f 5/2/1 6/5/1 7/6/1 8/3/1
f 9/1/1 10/2/1 11/3/1 12/4/1
f 13/2/1 14/5/1 15/6/1 16/3/1
f 17/7/1 18/8/1 19/2/1 20/1/1
f 21/8/1 22/9/1 23/5/1 24/2/1
f 25/7/1 26/8/1 27/2/1 28/1/1
f 29/8/1 30/9/1 31/5/1 32/2/1
f 33/1/1 34/2/1 35/3/1 36/4/1
f 37/2/1 38/5/1 39/6/1 40/3/1
f 41/1/1 42/2/1 43/3/1 44/4/1
f 45/2/1 46/5/1 47/6/1 48/3/1
f 49/7/1 50/8/1 51/2/1 52/1/1
f 53/8/1 54/9/1 55/5/1 56/2/1
f 57/7/1 58/8/1 59/2/1 60/1/1
f 61/8/1 62/9/1 63/5/1 64/2/1

