# Tiled2Unity generated file. Do not modify by hand.
# Wavefront file for 'NewBadManor_mesh_0347.obj'

# Vertices (Count = 8)
v -4.8 -4.8 -0.0867052
v -5.12 -4.8 -0.0867052
v -5.12 -4.48 -0.0867052
v -4.8 -4.48 -0.0867052
v -4.8 -5.12 -0.09248555
v -5.12 -5.12 -0.09248555
v -5.12 -4.8 -0.09248555
v -4.8 -4.8 -0.09248555

# Texture cooridinates (Count = 6)
vt 0.25 0.3
vt 0.375 0.3
vt 0.375 0.4
vt 0.25 0.4
vt 0.25 0.2
vt 0.375 0.2

# Normal
vn 0 0 -1

# Mesh description
g NewBadManor_mesh_0347

# Faces
f 1/1/1 2/2/1 3/3/1 4/4/1
f 5/5/1 6/6/1 7/2/1 8/1/1

