# Tiled2Unity generated file. Do not modify by hand.
# Wavefront file for 'NewBadManor_mesh_0374.obj'

# Vertices (Count = 360)
v -0.32 -3.2 -0.05780347
v -0.64 -3.2 -0.05780347
v -0.64 -2.88 -0.05780347
v -0.32 -2.88 -0.05780347
v -0.64 -3.2 -0.05780347
v -0.96 -3.2 -0.05780347
v -0.96 -2.88 -0.05780347
v -0.64 -2.88 -0.05780347
v -0.96 -3.2 -0.05780347
v -1.28 -3.2 -0.05780347
v -1.28 -2.88 -0.05780347
v -0.96 -2.88 -0.05780347
v -1.28 -3.2 -0.05780347
v -1.6 -3.2 -0.05780347
v -1.6 -2.88 -0.05780347
v -1.28 -2.88 -0.05780347
v -1.6 -3.2 -0.05780347
v -1.92 -3.2 -0.05780347
v -1.92 -2.88 -0.05780347
v -1.6 -2.88 -0.05780347
v -1.92 -3.2 -0.05780347
v -2.24 -3.2 -0.05780347
v -2.24 -2.88 -0.05780347
v -1.92 -2.88 -0.05780347
v -2.24 -3.2 -0.05780347
v -2.56 -3.2 -0.05780347
v -2.56 -2.88 -0.05780347
v -2.24 -2.88 -0.05780347
v -2.56 -3.2 -0.05780347
v -2.88 -3.2 -0.05780347
v -2.88 -2.88 -0.05780347
v -2.56 -2.88 -0.05780347
v -2.88 -3.2 -0.05780347
v -3.2 -3.2 -0.05780347
v -3.2 -2.88 -0.05780347
v -2.88 -2.88 -0.05780347
v -3.2 -3.2 -0.05780347
v -3.52 -3.2 -0.05780347
v -3.52 -2.88 -0.05780347
v -3.2 -2.88 -0.05780347
v -3.52 -3.2 -0.05780347
v -3.84 -3.2 -0.05780347
v -3.84 -2.88 -0.05780347
v -3.52 -2.88 -0.05780347
v -3.84 -3.2 -0.05780347
v -4.16 -3.2 -0.05780347
v -4.16 -2.88 -0.05780347
v -3.84 -2.88 -0.05780347
v -4.16 -3.2 -0.05780347
v -4.48 -3.2 -0.05780347
v -4.48 -2.88 -0.05780347
v -4.16 -2.88 -0.05780347
v -4.48 -3.2 -0.05780347
v -4.8 -3.2 -0.05780347
v -4.8 -2.88 -0.05780347
v -4.48 -2.88 -0.05780347
v -4.8 -3.2 -0.05780347
v -5.12 -3.2 -0.05780347
v -5.12 -2.88 -0.05780347
v -4.8 -2.88 -0.05780347
v -0.32 -3.52 -0.06358381
v -0.64 -3.52 -0.06358381
v -0.64 -3.2 -0.06358381
v -0.32 -3.2 -0.06358381
v -0.64 -3.52 -0.06358381
v -0.96 -3.52 -0.06358381
v -0.96 -3.2 -0.06358381
v -0.64 -3.2 -0.06358381
v -0.96 -3.52 -0.06358381
v -1.28 -3.52 -0.06358381
v -1.28 -3.2 -0.06358381
v -0.96 -3.2 -0.06358381
v -1.28 -3.52 -0.06358381
v -1.6 -3.52 -0.06358381
v -1.6 -3.2 -0.06358381
v -1.28 -3.2 -0.06358381
v -1.6 -3.52 -0.06358381
v -1.92 -3.52 -0.06358381
v -1.92 -3.2 -0.06358381
v -1.6 -3.2 -0.06358381
v -1.92 -3.52 -0.06358381
v -2.24 -3.52 -0.06358381
v -2.24 -3.2 -0.06358381
v -1.92 -3.2 -0.06358381
v -2.24 -3.52 -0.06358381
v -2.56 -3.52 -0.06358381
v -2.56 -3.2 -0.06358381
v -2.24 -3.2 -0.06358381
v -2.56 -3.52 -0.06358381
v -2.88 -3.52 -0.06358381
v -2.88 -3.2 -0.06358381
v -2.56 -3.2 -0.06358381
v -2.88 -3.52 -0.06358381
v -3.2 -3.52 -0.06358381
v -3.2 -3.2 -0.06358381
v -2.88 -3.2 -0.06358381
v -3.2 -3.52 -0.06358381
v -3.52 -3.52 -0.06358381
v -3.52 -3.2 -0.06358381
v -3.2 -3.2 -0.06358381
v -3.52 -3.52 -0.06358381
v -3.84 -3.52 -0.06358381
v -3.84 -3.2 -0.06358381
v -3.52 -3.2 -0.06358381
v -3.84 -3.52 -0.06358381
v -4.16 -3.52 -0.06358381
v -4.16 -3.2 -0.06358381
v -3.84 -3.2 -0.06358381
v -4.16 -3.52 -0.06358381
v -4.48 -3.52 -0.06358381
v -4.48 -3.2 -0.06358381
v -4.16 -3.2 -0.06358381
v -4.48 -3.52 -0.06358381
v -4.8 -3.52 -0.06358381
v -4.8 -3.2 -0.06358381
v -4.48 -3.2 -0.06358381
v -4.8 -3.52 -0.06358381
v -5.12 -3.52 -0.06358381
v -5.12 -3.2 -0.06358381
v -4.8 -3.2 -0.06358381
v -0.32 -3.84 -0.06936416
v -0.64 -3.84 -0.06936416
v -0.64 -3.52 -0.06936416
v -0.32 -3.52 -0.06936416
v -0.64 -3.84 -0.06936416
v -0.96 -3.84 -0.06936416
v -0.96 -3.52 -0.06936416
v -0.64 -3.52 -0.06936416
v -0.96 -3.84 -0.06936416
v -1.28 -3.84 -0.06936416
v -1.28 -3.52 -0.06936416
v -0.96 -3.52 -0.06936416
v -1.28 -3.84 -0.06936416
v -1.6 -3.84 -0.06936416
v -1.6 -3.52 -0.06936416
v -1.28 -3.52 -0.06936416
v -1.6 -3.84 -0.06936416
v -1.92 -3.84 -0.06936416
v -1.92 -3.52 -0.06936416
v -1.6 -3.52 -0.06936416
v -1.92 -3.84 -0.06936416
v -2.24 -3.84 -0.06936416
v -2.24 -3.52 -0.06936416
v -1.92 -3.52 -0.06936416
v -2.24 -3.84 -0.06936416
v -2.56 -3.84 -0.06936416
v -2.56 -3.52 -0.06936416
v -2.24 -3.52 -0.06936416
v -2.56 -3.84 -0.06936416
v -2.88 -3.84 -0.06936416
v -2.88 -3.52 -0.06936416
v -2.56 -3.52 -0.06936416
v -2.88 -3.84 -0.06936416
v -3.2 -3.84 -0.06936416
v -3.2 -3.52 -0.06936416
v -2.88 -3.52 -0.06936416
v -3.2 -3.84 -0.06936416
v -3.52 -3.84 -0.06936416
v -3.52 -3.52 -0.06936416
v -3.2 -3.52 -0.06936416
v -3.52 -3.84 -0.06936416
v -3.84 -3.84 -0.06936416
v -3.84 -3.52 -0.06936416
v -3.52 -3.52 -0.06936416
v -3.84 -3.84 -0.06936416
v -4.16 -3.84 -0.06936416
v -4.16 -3.52 -0.06936416
v -3.84 -3.52 -0.06936416
v -4.16 -3.84 -0.06936416
v -4.48 -3.84 -0.06936416
v -4.48 -3.52 -0.06936416
v -4.16 -3.52 -0.06936416
v -4.48 -3.84 -0.06936416
v -4.8 -3.84 -0.06936416
v -4.8 -3.52 -0.06936416
v -4.48 -3.52 -0.06936416
v -4.8 -3.84 -0.06936416
v -5.12 -3.84 -0.06936416
v -5.12 -3.52 -0.06936416
v -4.8 -3.52 -0.06936416
v -0.32 -4.16 -0.07514451
v -0.64 -4.16 -0.07514451
v -0.64 -3.84 -0.07514451
v -0.32 -3.84 -0.07514451
v -0.64 -4.16 -0.07514451
v -0.96 -4.16 -0.07514451
v -0.96 -3.84 -0.07514451
v -0.64 -3.84 -0.07514451
v -0.96 -4.16 -0.07514451
v -1.28 -4.16 -0.07514451
v -1.28 -3.84 -0.07514451
v -0.96 -3.84 -0.07514451
v -1.28 -4.16 -0.07514451
v -1.6 -4.16 -0.07514451
v -1.6 -3.84 -0.07514451
v -1.28 -3.84 -0.07514451
v -1.6 -4.16 -0.07514451
v -1.92 -4.16 -0.07514451
v -1.92 -3.84 -0.07514451
v -1.6 -3.84 -0.07514451
v -1.92 -4.16 -0.07514451
v -2.24 -4.16 -0.07514451
v -2.24 -3.84 -0.07514451
v -1.92 -3.84 -0.07514451
v -2.24 -4.16 -0.07514451
v -2.56 -4.16 -0.07514451
v -2.56 -3.84 -0.07514451
v -2.24 -3.84 -0.07514451
v -2.56 -4.16 -0.07514451
v -2.88 -4.16 -0.07514451
v -2.88 -3.84 -0.07514451
v -2.56 -3.84 -0.07514451
v -2.88 -4.16 -0.07514451
v -3.2 -4.16 -0.07514451
v -3.2 -3.84 -0.07514451
v -2.88 -3.84 -0.07514451
v -3.2 -4.16 -0.07514451
v -3.52 -4.16 -0.07514451
v -3.52 -3.84 -0.07514451
v -3.2 -3.84 -0.07514451
v -3.52 -4.16 -0.07514451
v -3.84 -4.16 -0.07514451
v -3.84 -3.84 -0.07514451
v -3.52 -3.84 -0.07514451
v -3.84 -4.16 -0.07514451
v -4.16 -4.16 -0.07514451
v -4.16 -3.84 -0.07514451
v -3.84 -3.84 -0.07514451
v -4.16 -4.16 -0.07514451
v -4.48 -4.16 -0.07514451
v -4.48 -3.84 -0.07514451
v -4.16 -3.84 -0.07514451
v -4.48 -4.16 -0.07514451
v -4.8 -4.16 -0.07514451
v -4.8 -3.84 -0.07514451
v -4.48 -3.84 -0.07514451
v -4.8 -4.16 -0.07514451
v -5.12 -4.16 -0.07514451
v -5.12 -3.84 -0.07514451
v -4.8 -3.84 -0.07514451
v -0.32 -4.8 -0.0867052
v -0.64 -4.8 -0.0867052
v -0.64 -4.48 -0.0867052
v -0.32 -4.48 -0.0867052
v -0.64 -4.8 -0.0867052
v -0.96 -4.8 -0.0867052
v -0.96 -4.48 -0.0867052
v -0.64 -4.48 -0.0867052
v -0.96 -4.8 -0.0867052
v -1.28 -4.8 -0.0867052
v -1.28 -4.48 -0.0867052
v -0.96 -4.48 -0.0867052
v -1.28 -4.8 -0.0867052
v -1.6 -4.8 -0.0867052
v -1.6 -4.48 -0.0867052
v -1.28 -4.48 -0.0867052
v -1.6 -4.8 -0.0867052
v -1.92 -4.8 -0.0867052
v -1.92 -4.48 -0.0867052
v -1.6 -4.48 -0.0867052
v -1.92 -4.8 -0.0867052
v -2.24 -4.8 -0.0867052
v -2.24 -4.48 -0.0867052
v -1.92 -4.48 -0.0867052
v -2.24 -4.8 -0.0867052
v -2.56 -4.8 -0.0867052
v -2.56 -4.48 -0.0867052
v -2.24 -4.48 -0.0867052
v -2.56 -4.8 -0.0867052
v -2.88 -4.8 -0.0867052
v -2.88 -4.48 -0.0867052
v -2.56 -4.48 -0.0867052
v -2.88 -4.8 -0.0867052
v -3.2 -4.8 -0.0867052
v -3.2 -4.48 -0.0867052
v -2.88 -4.48 -0.0867052
v -3.2 -4.8 -0.0867052
v -3.52 -4.8 -0.0867052
v -3.52 -4.48 -0.0867052
v -3.2 -4.48 -0.0867052
v -3.52 -4.8 -0.0867052
v -3.84 -4.8 -0.0867052
v -3.84 -4.48 -0.0867052
v -3.52 -4.48 -0.0867052
v -3.84 -4.8 -0.0867052
v -4.16 -4.8 -0.0867052
v -4.16 -4.48 -0.0867052
v -3.84 -4.48 -0.0867052
v -4.16 -4.8 -0.0867052
v -4.48 -4.8 -0.0867052
v -4.48 -4.48 -0.0867052
v -4.16 -4.48 -0.0867052
v -4.48 -4.8 -0.0867052
v -4.8 -4.8 -0.0867052
v -4.8 -4.48 -0.0867052
v -4.48 -4.48 -0.0867052
v -4.8 -4.8 -0.0867052
v -5.12 -4.8 -0.0867052
v -5.12 -4.48 -0.0867052
v -4.8 -4.48 -0.0867052
v -0.32 -5.12 -0.09248555
v -0.64 -5.12 -0.09248555
v -0.64 -4.8 -0.09248555
v -0.32 -4.8 -0.09248555
v -0.64 -5.12 -0.09248555
v -0.96 -5.12 -0.09248555
v -0.96 -4.8 -0.09248555
v -0.64 -4.8 -0.09248555
v -0.96 -5.12 -0.09248555
v -1.28 -5.12 -0.09248555
v -1.28 -4.8 -0.09248555
v -0.96 -4.8 -0.09248555
v -1.28 -5.12 -0.09248555
v -1.6 -5.12 -0.09248555
v -1.6 -4.8 -0.09248555
v -1.28 -4.8 -0.09248555
v -1.6 -5.12 -0.09248555
v -1.92 -5.12 -0.09248555
v -1.92 -4.8 -0.09248555
v -1.6 -4.8 -0.09248555
v -1.92 -5.12 -0.09248555
v -2.24 -5.12 -0.09248555
v -2.24 -4.8 -0.09248555
v -1.92 -4.8 -0.09248555
v -2.24 -5.12 -0.09248555
v -2.56 -5.12 -0.09248555
v -2.56 -4.8 -0.09248555
v -2.24 -4.8 -0.09248555
v -2.56 -5.12 -0.09248555
v -2.88 -5.12 -0.09248555
v -2.88 -4.8 -0.09248555
v -2.56 -4.8 -0.09248555
v -2.88 -5.12 -0.09248555
v -3.2 -5.12 -0.09248555
v -3.2 -4.8 -0.09248555
v -2.88 -4.8 -0.09248555
v -3.2 -5.12 -0.09248555
v -3.52 -5.12 -0.09248555
v -3.52 -4.8 -0.09248555
v -3.2 -4.8 -0.09248555
v -3.52 -5.12 -0.09248555
v -3.84 -5.12 -0.09248555
v -3.84 -4.8 -0.09248555
v -3.52 -4.8 -0.09248555
v -3.84 -5.12 -0.09248555
v -4.16 -5.12 -0.09248555
v -4.16 -4.8 -0.09248555
v -3.84 -4.8 -0.09248555
v -4.16 -5.12 -0.09248555
v -4.48 -5.12 -0.09248555
v -4.48 -4.8 -0.09248555
v -4.16 -4.8 -0.09248555
v -4.48 -5.12 -0.09248555
v -4.8 -5.12 -0.09248555
v -4.8 -4.8 -0.09248555
v -4.48 -4.8 -0.09248555
v -4.8 -5.12 -0.09248555
v -5.12 -5.12 -0.09248555
v -5.12 -4.8 -0.09248555
v -4.8 -4.8 -0.09248555

# Texture cooridinates (Count = 41)
vt 0.1666667 0.5
vt 0.3333333 0.5
vt 0.3333333 0.5833334
vt 0.1666667 0.5833334
vt 0.5 0.08333331
vt 0.3333333 0.08333331
vt 0.3333333 0
vt 0.5 0
vt 0.1666667 0.08333331
vt 0.1666667 0
vt 0.6666667 0.5
vt 0.8333333 0.5
vt 0.8333333 0.5833334
vt 0.6666667 0.5833334
vt 0.6666667 0.08333331
vt 0.8333333 0.08333331
vt 0.8333333 0.1666667
vt 0.6666667 0.1666667
vt 1 0.08333331
vt 1 0.1666667
vt 0.5 0.5
vt 0.5 0.5833334
vt 0.5 0.1666667
vt 0.3333333 0.1666667
vt 0.1666667 0.1666667
vt 0.6666667 0
vt 0.8333333 0
vt 1 0
vt 0.1666667 0.25
vt 0.3333333 0.25
vt 0.3333333 0.3333333
vt 0.1666667 0.3333333
vt 0.5 0.25
vt 0.5 0.3333333
vt 0.6666667 0.25
vt 0.6666667 0.3333333
vt 0.8333333 0.25
vt 0.8333333 0.3333333
vt 0 0.08333331
vt 0 0
vt 0 0.1666667

# Normal
vn 0 0 -1

# Mesh description
g NewBadManor_mesh_0374

# Faces
f 1/1/1 2/2/1 3/3/1 4/4/1
f 5/5/1 6/6/1 7/7/1 8/8/1
f 9/6/1 10/9/1 11/10/1 12/7/1
f 13/11/1 14/12/1 15/13/1 16/14/1
f 17/1/1 18/2/1 19/3/1 20/4/1
f 21/15/1 22/16/1 23/17/1 24/18/1
f 25/16/1 26/19/1 27/20/1 28/17/1
f 29/11/1 30/12/1 31/13/1 32/14/1
f 33/1/1 34/2/1 35/3/1 36/4/1
f 37/2/1 38/21/1 39/22/1 40/3/1
f 41/21/1 42/11/1 43/14/1 44/22/1
f 45/11/1 46/12/1 47/13/1 48/14/1
f 49/1/1 50/2/1 51/3/1 52/4/1
f 53/2/1 54/21/1 55/22/1 56/3/1
f 57/21/1 58/11/1 59/14/1 60/22/1
f 61/1/1 62/2/1 63/3/1 64/4/1
f 65/23/1 66/24/1 67/6/1 68/5/1
f 69/24/1 70/25/1 71/9/1 72/6/1
f 73/11/1 74/12/1 75/13/1 76/14/1
f 77/1/1 78/2/1 79/3/1 80/4/1
f 81/26/1 82/27/1 83/16/1 84/15/1
f 85/27/1 86/28/1 87/19/1 88/16/1
f 89/11/1 90/12/1 91/13/1 92/14/1
f 93/1/1 94/2/1 95/3/1 96/4/1
f 97/2/1 98/21/1 99/22/1 100/3/1
f 101/21/1 102/11/1 103/14/1 104/22/1
f 105/11/1 106/12/1 107/13/1 108/14/1
f 109/1/1 110/2/1 111/3/1 112/4/1
f 113/2/1 114/21/1 115/22/1 116/3/1
f 117/21/1 118/11/1 119/14/1 120/22/1
f 121/29/1 122/30/1 123/31/1 124/32/1
f 125/30/1 126/33/1 127/34/1 128/31/1
f 129/33/1 130/35/1 131/36/1 132/34/1
f 133/35/1 134/37/1 135/38/1 136/36/1
f 137/29/1 138/30/1 139/31/1 140/32/1
f 141/30/1 142/33/1 143/34/1 144/31/1
f 145/33/1 146/35/1 147/36/1 148/34/1
f 149/35/1 150/37/1 151/38/1 152/36/1
f 153/29/1 154/30/1 155/31/1 156/32/1
f 157/30/1 158/33/1 159/34/1 160/31/1
f 161/33/1 162/35/1 163/36/1 164/34/1
f 165/35/1 166/37/1 167/38/1 168/36/1
f 169/29/1 170/30/1 171/31/1 172/32/1
f 173/30/1 174/33/1 175/34/1 176/31/1
f 177/33/1 178/35/1 179/36/1 180/34/1
f 181/25/1 182/24/1 183/30/1 184/29/1
f 185/24/1 186/23/1 187/33/1 188/30/1
f 189/23/1 190/18/1 191/35/1 192/33/1
f 193/18/1 194/17/1 195/37/1 196/35/1
f 197/25/1 198/24/1 199/30/1 200/29/1
f 201/24/1 202/23/1 203/33/1 204/30/1
f 205/23/1 206/18/1 207/35/1 208/33/1
f 209/18/1 210/17/1 211/37/1 212/35/1
f 213/25/1 214/24/1 215/30/1 216/29/1
f 217/24/1 218/23/1 219/33/1 220/30/1
f 221/23/1 222/18/1 223/35/1 224/33/1
f 225/18/1 226/17/1 227/37/1 228/35/1
f 229/25/1 230/24/1 231/30/1 232/29/1
f 233/24/1 234/23/1 235/33/1 236/30/1
f 237/23/1 238/18/1 239/35/1 240/33/1
f 241/1/1 242/2/1 243/3/1 244/4/1
f 245/6/1 246/9/1 247/10/1 248/7/1
f 249/9/1 250/39/1 251/40/1 252/10/1
f 253/11/1 254/12/1 255/13/1 256/14/1
f 257/1/1 258/2/1 259/3/1 260/4/1
f 261/2/1 262/21/1 263/22/1 264/3/1
f 265/21/1 266/11/1 267/14/1 268/22/1
f 269/11/1 270/12/1 271/13/1 272/14/1
f 273/1/1 274/2/1 275/3/1 276/4/1
f 277/6/1 278/5/1 279/23/1 280/24/1
f 281/5/1 282/15/1 283/18/1 284/23/1
f 285/11/1 286/12/1 287/13/1 288/14/1
f 289/1/1 290/2/1 291/3/1 292/4/1
f 293/39/1 294/9/1 295/25/1 296/41/1
f 297/9/1 298/6/1 299/24/1 300/25/1
f 301/1/1 302/2/1 303/3/1 304/4/1
f 305/24/1 306/25/1 307/9/1 308/6/1
f 309/25/1 310/41/1 311/39/1 312/9/1
f 313/11/1 314/12/1 315/13/1 316/14/1
f 317/1/1 318/2/1 319/3/1 320/4/1
f 321/2/1 322/21/1 323/22/1 324/3/1
f 325/21/1 326/11/1 327/14/1 328/22/1
f 329/11/1 330/12/1 331/13/1 332/14/1
f 333/1/1 334/2/1 335/3/1 336/4/1
f 337/7/1 338/8/1 339/5/1 340/6/1
f 341/8/1 342/26/1 343/15/1 344/5/1
f 345/11/1 346/12/1 347/13/1 348/14/1
f 349/1/1 350/2/1 351/3/1 352/4/1
f 353/40/1 354/10/1 355/9/1 356/39/1
f 357/10/1 358/7/1 359/6/1 360/9/1

