# Tiled2Unity generated file. Do not modify by hand.
# Wavefront file for 'NewBadManor_mesh_0318.obj'

# Vertices (Count = 192)
v 0 -0.32 -0.005780347
v -0.32 -0.32 -0.005780347
v -0.32 0 -0.005780347
v 0 0 -0.005780347
v -0.32 -0.32 -0.005780347
v -0.64 -0.32 -0.005780347
v -0.64 0 -0.005780347
v -0.32 0 -0.005780347
v -0.64 -0.32 -0.005780347
v -0.96 -0.32 -0.005780347
v -0.96 0 -0.005780347
v -0.64 0 -0.005780347
v 0 -0.64 -0.01156069
v -0.32 -0.64 -0.01156069
v -0.32 -0.32 -0.01156069
v 0 -0.32 -0.01156069
v -0.32 -0.64 -0.01156069
v -0.64 -0.64 -0.01156069
v -0.64 -0.32 -0.01156069
v -0.32 -0.32 -0.01156069
v -0.64 -0.64 -0.01156069
v -0.96 -0.64 -0.01156069
v -0.96 -0.32 -0.01156069
v -0.64 -0.32 -0.01156069
v 0 -0.96 -0.01734104
v -0.32 -0.96 -0.01734104
v -0.32 -0.64 -0.01734104
v 0 -0.64 -0.01734104
v -0.32 -0.96 -0.01734104
v -0.64 -0.96 -0.01734104
v -0.64 -0.64 -0.01734104
v -0.32 -0.64 -0.01734104
v -0.64 -0.96 -0.01734104
v -0.96 -0.96 -0.01734104
v -0.96 -0.64 -0.01734104
v -0.64 -0.64 -0.01734104
v 0 -1.28 -0.02312139
v -0.32 -1.28 -0.02312139
v -0.32 -0.96 -0.02312139
v 0 -0.96 -0.02312139
v -0.32 -1.28 -0.02312139
v -0.64 -1.28 -0.02312139
v -0.64 -0.96 -0.02312139
v -0.32 -0.96 -0.02312139
v -0.64 -1.28 -0.02312139
v -0.96 -1.28 -0.02312139
v -0.96 -0.96 -0.02312139
v -0.64 -0.96 -0.02312139
v 0 -1.6 -0.02890173
v -0.32 -1.6 -0.02890173
v -0.32 -1.28 -0.02890173
v 0 -1.28 -0.02890173
v -0.32 -1.6 -0.02890173
v -0.64 -1.6 -0.02890173
v -0.64 -1.28 -0.02890173
v -0.32 -1.28 -0.02890173
v -0.64 -1.6 -0.02890173
v -0.96 -1.6 -0.02890173
v -0.96 -1.28 -0.02890173
v -0.64 -1.28 -0.02890173
v 0 -1.92 -0.03468208
v -0.32 -1.92 -0.03468208
v -0.32 -1.6 -0.03468208
v 0 -1.6 -0.03468208
v -0.32 -1.92 -0.03468208
v -0.64 -1.92 -0.03468208
v -0.64 -1.6 -0.03468208
v -0.32 -1.6 -0.03468208
v -0.64 -1.92 -0.03468208
v -0.96 -1.92 -0.03468208
v -0.96 -1.6 -0.03468208
v -0.64 -1.6 -0.03468208
v 0 -2.24 -0.04046243
v -0.32 -2.24 -0.04046243
v -0.32 -1.92 -0.04046243
v 0 -1.92 -0.04046243
v -0.32 -2.24 -0.04046243
v -0.64 -2.24 -0.04046243
v -0.64 -1.92 -0.04046243
v -0.32 -1.92 -0.04046243
v -0.64 -2.24 -0.04046243
v -0.96 -2.24 -0.04046243
v -0.96 -1.92 -0.04046243
v -0.64 -1.92 -0.04046243
v 0 -2.56 -0.04624277
v -0.32 -2.56 -0.04624277
v -0.32 -2.24 -0.04624277
v 0 -2.24 -0.04624277
v -0.32 -2.56 -0.04624277
v -0.64 -2.56 -0.04624277
v -0.64 -2.24 -0.04624277
v -0.32 -2.24 -0.04624277
v -0.64 -2.56 -0.04624277
v -0.96 -2.56 -0.04624277
v -0.96 -2.24 -0.04624277
v -0.64 -2.24 -0.04624277
v 0 -2.88 -0.05202312
v -0.32 -2.88 -0.05202312
v -0.32 -2.56 -0.05202312
v 0 -2.56 -0.05202312
v -0.32 -2.88 -0.05202312
v -0.64 -2.88 -0.05202312
v -0.64 -2.56 -0.05202312
v -0.32 -2.56 -0.05202312
v -0.64 -2.88 -0.05202312
v -0.96 -2.88 -0.05202312
v -0.96 -2.56 -0.05202312
v -0.64 -2.56 -0.05202312
v 0 -3.2 -0.05780347
v -0.32 -3.2 -0.05780347
v -0.32 -2.88 -0.05780347
v 0 -2.88 -0.05780347
v -0.32 -3.2 -0.05780347
v -0.64 -3.2 -0.05780347
v -0.64 -2.88 -0.05780347
v -0.32 -2.88 -0.05780347
v -0.64 -3.2 -0.05780347
v -0.96 -3.2 -0.05780347
v -0.96 -2.88 -0.05780347
v -0.64 -2.88 -0.05780347
v 0 -3.52 -0.06358381
v -0.32 -3.52 -0.06358381
v -0.32 -3.2 -0.06358381
v 0 -3.2 -0.06358381
v -0.32 -3.52 -0.06358381
v -0.64 -3.52 -0.06358381
v -0.64 -3.2 -0.06358381
v -0.32 -3.2 -0.06358381
v -0.64 -3.52 -0.06358381
v -0.96 -3.52 -0.06358381
v -0.96 -3.2 -0.06358381
v -0.64 -3.2 -0.06358381
v 0 -3.84 -0.06936416
v -0.32 -3.84 -0.06936416
v -0.32 -3.52 -0.06936416
v 0 -3.52 -0.06936416
v -0.32 -3.84 -0.06936416
v -0.64 -3.84 -0.06936416
v -0.64 -3.52 -0.06936416
v -0.32 -3.52 -0.06936416
v -0.64 -3.84 -0.06936416
v -0.96 -3.84 -0.06936416
v -0.96 -3.52 -0.06936416
v -0.64 -3.52 -0.06936416
v 0 -4.16 -0.07514451
v -0.32 -4.16 -0.07514451
v -0.32 -3.84 -0.07514451
v 0 -3.84 -0.07514451
v -0.32 -4.16 -0.07514451
v -0.64 -4.16 -0.07514451
v -0.64 -3.84 -0.07514451
v -0.32 -3.84 -0.07514451
v -0.64 -4.16 -0.07514451
v -0.96 -4.16 -0.07514451
v -0.96 -3.84 -0.07514451
v -0.64 -3.84 -0.07514451
v 0 -4.48 -0.08092485
v -0.32 -4.48 -0.08092485
v -0.32 -4.16 -0.08092485
v 0 -4.16 -0.08092485
v -0.32 -4.48 -0.08092485
v -0.64 -4.48 -0.08092485
v -0.64 -4.16 -0.08092485
v -0.32 -4.16 -0.08092485
v -0.64 -4.48 -0.08092485
v -0.96 -4.48 -0.08092485
v -0.96 -4.16 -0.08092485
v -0.64 -4.16 -0.08092485
v 0 -4.8 -0.0867052
v -0.32 -4.8 -0.0867052
v -0.32 -4.48 -0.0867052
v 0 -4.48 -0.0867052
v -0.32 -4.8 -0.0867052
v -0.64 -4.8 -0.0867052
v -0.64 -4.48 -0.0867052
v -0.32 -4.48 -0.0867052
v -0.64 -4.8 -0.0867052
v -0.96 -4.8 -0.0867052
v -0.96 -4.48 -0.0867052
v -0.64 -4.48 -0.0867052
v 0 -5.12 -0.09248555
v -0.32 -5.12 -0.09248555
v -0.32 -4.8 -0.09248555
v 0 -4.8 -0.09248555
v -0.32 -5.12 -0.09248555
v -0.64 -5.12 -0.09248555
v -0.64 -4.8 -0.09248555
v -0.32 -4.8 -0.09248555
v -0.64 -5.12 -0.09248555
v -0.96 -5.12 -0.09248555
v -0.96 -4.8 -0.09248555
v -0.64 -4.8 -0.09248555

# Texture cooridinates (Count = 9)
vt 0.375 0.46875
vt 0.40625 0.46875
vt 0.40625 0.5
vt 0.375 0.5
vt 0.4375 0.46875
vt 0.4375 0.5
vt 0.375 0.4375
vt 0.40625 0.4375
vt 0.4375 0.4375

# Normal
vn 0 0 -1

# Mesh description
g NewBadManor_mesh_0318

# Faces
f 1/1/1 2/2/1 3/3/1 4/4/1
f 5/2/1 6/5/1 7/6/1 8/3/1
f 9/1/1 10/2/1 11/3/1 12/4/1
f 13/7/1 14/8/1 15/2/1 16/1/1
f 17/8/1 18/9/1 19/5/1 20/2/1
f 21/7/1 22/8/1 23/2/1 24/1/1
f 25/1/1 26/2/1 27/3/1 28/4/1
f 29/2/1 30/5/1 31/6/1 32/3/1
f 33/1/1 34/2/1 35/3/1 36/4/1
f 37/7/1 38/8/1 39/2/1 40/1/1
f 41/8/1 42/9/1 43/5/1 44/2/1
f 45/7/1 46/8/1 47/2/1 48/1/1
f 49/1/1 50/2/1 51/3/1 52/4/1
f 53/2/1 54/5/1 55/6/1 56/3/1
f 57/1/1 58/2/1 59/3/1 60/4/1
f 61/7/1 62/8/1 63/2/1 64/1/1
f 65/8/1 66/9/1 67/5/1 68/2/1
f 69/7/1 70/8/1 71/2/1 72/1/1
f 73/1/1 74/2/1 75/3/1 76/4/1
f 77/2/1 78/5/1 79/6/1 80/3/1
f 81/1/1 82/2/1 83/3/1 84/4/1
f 85/7/1 86/8/1 87/2/1 88/1/1
f 89/8/1 90/9/1 91/5/1 92/2/1
f 93/7/1 94/8/1 95/2/1 96/1/1
f 97/1/1 98/2/1 99/3/1 100/4/1
f 101/2/1 102/5/1 103/6/1 104/3/1
f 105/1/1 106/2/1 107/3/1 108/4/1
f 109/7/1 110/8/1 111/2/1 112/1/1
f 113/8/1 114/9/1 115/5/1 116/2/1
f 117/7/1 118/8/1 119/2/1 120/1/1
f 121/1/1 122/2/1 123/3/1 124/4/1
f 125/2/1 126/5/1 127/6/1 128/3/1
f 129/1/1 130/2/1 131/3/1 132/4/1
f 133/7/1 134/8/1 135/2/1 136/1/1
f 137/8/1 138/9/1 139/5/1 140/2/1
f 141/7/1 142/8/1 143/2/1 144/1/1
f 145/1/1 146/2/1 147/3/1 148/4/1
f 149/2/1 150/5/1 151/6/1 152/3/1
f 153/1/1 154/2/1 155/3/1 156/4/1
f 157/7/1 158/8/1 159/2/1 160/1/1
f 161/8/1 162/9/1 163/5/1 164/2/1
f 165/7/1 166/8/1 167/2/1 168/1/1
f 169/1/1 170/2/1 171/3/1 172/4/1
f 173/2/1 174/5/1 175/6/1 176/3/1
f 177/1/1 178/2/1 179/3/1 180/4/1
f 181/7/1 182/8/1 183/2/1 184/1/1
f 185/8/1 186/9/1 187/5/1 188/2/1
f 189/7/1 190/8/1 191/2/1 192/1/1

