# Tiled2Unity generated file. Do not modify by hand.
# Wavefront file for 'NewBadManor_mesh_0358.obj'

# Vertices (Count = 84)
v 0 -0.32 -0.005780347
v -0.32 -0.32 -0.005780347
v -0.32 0 -0.005780347
v 0 0 -0.005780347
v -0.32 -0.32 -0.005780347
v -0.64 -0.32 -0.005780347
v -0.64 0 -0.005780347
v -0.32 0 -0.005780347
v -0.64 -0.32 -0.005780347
v -0.96 -0.32 -0.005780347
v -0.96 0 -0.005780347
v -0.64 0 -0.005780347
v 0 -0.64 -0.01156069
v -0.32 -0.64 -0.01156069
v -0.32 -0.32 -0.01156069
v 0 -0.32 -0.01156069
v -0.32 -0.64 -0.01156069
v -0.64 -0.64 -0.01156069
v -0.64 -0.32 -0.01156069
v -0.32 -0.32 -0.01156069
v -0.64 -0.64 -0.01156069
v -0.96 -0.64 -0.01156069
v -0.96 -0.32 -0.01156069
v -0.64 -0.32 -0.01156069
v 0 -0.96 -0.01734104
v -0.32 -0.96 -0.01734104
v -0.32 -0.64 -0.01734104
v 0 -0.64 -0.01734104
v -0.32 -0.96 -0.01734104
v -0.64 -0.96 -0.01734104
v -0.64 -0.64 -0.01734104
v -0.32 -0.64 -0.01734104
v -0.64 -0.96 -0.01734104
v -0.96 -0.96 -0.01734104
v -0.96 -0.64 -0.01734104
v -0.64 -0.64 -0.01734104
v 0 -1.28 -0.02312139
v -0.32 -1.28 -0.02312139
v -0.32 -0.96 -0.02312139
v 0 -0.96 -0.02312139
v -0.32 -1.28 -0.02312139
v -0.64 -1.28 -0.02312139
v -0.64 -0.96 -0.02312139
v -0.32 -0.96 -0.02312139
v -0.64 -1.28 -0.02312139
v -0.96 -1.28 -0.02312139
v -0.96 -0.96 -0.02312139
v -0.64 -0.96 -0.02312139
v 0 -1.6 -0.02890173
v -0.32 -1.6 -0.02890173
v -0.32 -1.28 -0.02890173
v 0 -1.28 -0.02890173
v -0.32 -1.6 -0.02890173
v -0.64 -1.6 -0.02890173
v -0.64 -1.28 -0.02890173
v -0.32 -1.28 -0.02890173
v -0.64 -1.6 -0.02890173
v -0.96 -1.6 -0.02890173
v -0.96 -1.28 -0.02890173
v -0.64 -1.28 -0.02890173
v 0 -1.92 -0.03468208
v -0.32 -1.92 -0.03468208
v -0.32 -1.6 -0.03468208
v 0 -1.6 -0.03468208
v -0.32 -1.92 -0.03468208
v -0.64 -1.92 -0.03468208
v -0.64 -1.6 -0.03468208
v -0.32 -1.6 -0.03468208
v -0.64 -1.92 -0.03468208
v -0.96 -1.92 -0.03468208
v -0.96 -1.6 -0.03468208
v -0.64 -1.6 -0.03468208
v 0 -2.24 -0.04046243
v -0.32 -2.24 -0.04046243
v -0.32 -1.92 -0.04046243
v 0 -1.92 -0.04046243
v -0.32 -2.24 -0.04046243
v -0.64 -2.24 -0.04046243
v -0.64 -1.92 -0.04046243
v -0.32 -1.92 -0.04046243
v -0.64 -2.24 -0.04046243
v -0.96 -2.24 -0.04046243
v -0.96 -1.92 -0.04046243
v -0.64 -1.92 -0.04046243

# Texture cooridinates (Count = 20)
vt 0.375 0.1
vt 0.5 0.1
vt 0.5 0.2
vt 0.375 0.2
vt 0.625 0.1
vt 0.625 0.2
vt 0.75 0.1
vt 0.75 0.2
vt 0.375 0
vt 0.5 0
vt 0.625 0
vt 0.75 0
vt 0.375 0.3
vt 0.5 0.3
vt 0.5 0.4
vt 0.375 0.4
vt 0.625 0.3
vt 0.625 0.4
vt 0.75 0.3
vt 0.75 0.4

# Normal
vn 0 0 -1

# Mesh description
g NewBadManor_mesh_0358

# Faces
f 1/1/1 2/2/1 3/3/1 4/4/1
f 5/2/1 6/5/1 7/6/1 8/3/1
f 9/5/1 10/7/1 11/8/1 12/6/1
f 13/9/1 14/10/1 15/2/1 16/1/1
f 17/10/1 18/11/1 19/5/1 20/2/1
f 21/11/1 22/12/1 23/7/1 24/5/1
f 25/13/1 26/14/1 27/15/1 28/16/1
f 29/14/1 30/17/1 31/18/1 32/15/1
f 33/17/1 34/19/1 35/20/1 36/18/1
f 37/4/1 38/3/1 39/14/1 40/13/1
f 41/3/1 42/6/1 43/17/1 44/14/1
f 45/6/1 46/8/1 47/19/1 48/17/1
f 49/1/1 50/2/1 51/3/1 52/4/1
f 53/2/1 54/5/1 55/6/1 56/3/1
f 57/5/1 58/7/1 59/8/1 60/6/1
f 61/9/1 62/10/1 63/2/1 64/1/1
f 65/10/1 66/11/1 67/5/1 68/2/1
f 69/11/1 70/12/1 71/7/1 72/5/1
f 73/13/1 74/14/1 75/15/1 76/16/1
f 77/14/1 78/17/1 79/18/1 80/15/1
f 81/17/1 82/19/1 83/20/1 84/18/1

