# Tiled2Unity generated file. Do not modify by hand.
# Wavefront file for 'NewBadManor_mesh_0415.obj'

# Vertices (Count = 32)
v -2.56 -0.32 -0.005780347
v -2.88 -0.32 -0.005780347
v -2.88 0 -0.005780347
v -2.56 0 -0.005780347
v -2.88 -0.32 -0.005780347
v -3.2 -0.32 -0.005780347
v -3.2 0 -0.005780347
v -2.88 0 -0.005780347
v -3.2 -0.32 -0.005780347
v -3.52 -0.32 -0.005780347
v -3.52 0 -0.005780347
v -3.2 0 -0.005780347
v -3.52 -0.32 -0.005780347
v -3.84 -0.32 -0.005780347
v -3.84 0 -0.005780347
v -3.52 0 -0.005780347
v -3.84 -0.32 -0.005780347
v -4.16 -0.32 -0.005780347
v -4.16 0 -0.005780347
v -3.84 0 -0.005780347
v -4.16 -0.32 -0.005780347
v -4.48 -0.32 -0.005780347
v -4.48 0 -0.005780347
v -4.16 0 -0.005780347
v -4.48 -0.32 -0.005780347
v -4.8 -0.32 -0.005780347
v -4.8 0 -0.005780347
v -4.48 0 -0.005780347
v -4.8 -0.32 -0.005780347
v -5.12 -0.32 -0.005780347
v -5.12 0 -0.005780347
v -4.8 0 -0.005780347

# Texture cooridinates (Count = 6)
vt 0 0.5
vt 0.05 0.5
vt 0.05 0.55
vt 0 0.55
vt 0.1 0.5
vt 0.1 0.55

# Normal
vn 0 0 -1

# Mesh description
g NewBadManor_mesh_0415

# Faces
f 1/1/1 2/2/1 3/3/1 4/4/1
f 5/2/1 6/5/1 7/6/1 8/3/1
f 9/1/1 10/2/1 11/3/1 12/4/1
f 13/2/1 14/5/1 15/6/1 16/3/1
f 17/1/1 18/2/1 19/3/1 20/4/1
f 21/2/1 22/5/1 23/6/1 24/3/1
f 25/1/1 26/2/1 27/3/1 28/4/1
f 29/2/1 30/5/1 31/6/1 32/3/1

