# Tiled2Unity generated file. Do not modify by hand.
# Wavefront file for 'NewBadManor_mesh_0382.obj'

# Vertices (Count = 48)
v -1.92 -0.64 -0.01156069
v -2.24 -0.64 -0.01156069
v -2.24 -0.32 -0.01156069
v -1.92 -0.32 -0.01156069
v -2.24 -0.64 -0.01156069
v -2.56 -0.64 -0.01156069
v -2.56 -0.32 -0.01156069
v -2.24 -0.32 -0.01156069
v -2.56 -0.64 -0.01156069
v -2.88 -0.64 -0.01156069
v -2.88 -0.32 -0.01156069
v -2.56 -0.32 -0.01156069
v -2.88 -0.64 -0.01156069
v -3.2 -0.64 -0.01156069
v -3.2 -0.32 -0.01156069
v -2.88 -0.32 -0.01156069
v -3.2 -0.64 -0.01156069
v -3.52 -0.64 -0.01156069
v -3.52 -0.32 -0.01156069
v -3.2 -0.32 -0.01156069
v -3.52 -0.64 -0.01156069
v -3.84 -0.64 -0.01156069
v -3.84 -0.32 -0.01156069
v -3.52 -0.32 -0.01156069
v -1.92 -0.96 -0.01734104
v -2.24 -0.96 -0.01734104
v -2.24 -0.64 -0.01734104
v -1.92 -0.64 -0.01734104
v -2.24 -0.96 -0.01734104
v -2.56 -0.96 -0.01734104
v -2.56 -0.64 -0.01734104
v -2.24 -0.64 -0.01734104
v -2.56 -0.96 -0.01734104
v -2.88 -0.96 -0.01734104
v -2.88 -0.64 -0.01734104
v -2.56 -0.64 -0.01734104
v -2.88 -0.96 -0.01734104
v -3.2 -0.96 -0.01734104
v -3.2 -0.64 -0.01734104
v -2.88 -0.64 -0.01734104
v -3.2 -0.96 -0.01734104
v -3.52 -0.96 -0.01734104
v -3.52 -0.64 -0.01734104
v -3.2 -0.64 -0.01734104
v -3.52 -0.96 -0.01734104
v -3.84 -0.96 -0.01734104
v -3.84 -0.64 -0.01734104
v -3.52 -0.64 -0.01734104

# Texture cooridinates (Count = 18)
vt 0.5 0.8333333
vt 0.75 0.8333333
vt 0.75 1
vt 0.5 1
vt 1 0.8333333
vt 1 1
vt 0 0.1666667
vt 0.25 0.1666667
vt 0.25 0.3333333
vt 0 0.3333333
vt 0.5 0.1666667
vt 0.5 0.3333333
vt 0.5 0.6666666
vt 0.75 0.6666666
vt 1 0.6666666
vt 0 0
vt 0.25 0
vt 0.5 0

# Normal
vn 0 0 -1

# Mesh description
g NewBadManor_mesh_0382

# Faces
f 1/1/1 2/2/1 3/3/1 4/4/1
f 5/2/1 6/5/1 7/6/1 8/3/1
f 9/7/1 10/8/1 11/9/1 12/10/1
f 13/8/1 14/11/1 15/12/1 16/9/1
f 17/7/1 18/8/1 19/9/1 20/10/1
f 21/8/1 22/11/1 23/12/1 24/9/1
f 25/13/1 26/14/1 27/2/1 28/1/1
f 29/14/1 30/15/1 31/5/1 32/2/1
f 33/16/1 34/17/1 35/8/1 36/7/1
f 37/17/1 38/18/1 39/11/1 40/8/1
f 41/16/1 42/17/1 43/8/1 44/7/1
f 45/17/1 46/18/1 47/11/1 48/8/1

