# Tiled2Unity generated file. Do not modify by hand.
# Wavefront file for 'NewBadManor_mesh_0290.obj'

# Vertices (Count = 64)
v -0.64 -0.32 -0.005780347
v -0.96 -0.32 -0.005780347
v -0.96 0 -0.005780347
v -0.64 0 -0.005780347
v -0.64 -0.64 -0.01156069
v -0.96 -0.64 -0.01156069
v -0.96 -0.32 -0.01156069
v -0.64 -0.32 -0.01156069
v -0.64 -0.96 -0.01734104
v -0.96 -0.96 -0.01734104
v -0.96 -0.64 -0.01734104
v -0.64 -0.64 -0.01734104
v -0.64 -1.28 -0.02312139
v -0.96 -1.28 -0.02312139
v -0.96 -0.96 -0.02312139
v -0.64 -0.96 -0.02312139
v -0.64 -1.6 -0.02890173
v -0.96 -1.6 -0.02890173
v -0.96 -1.28 -0.02890173
v -0.64 -1.28 -0.02890173
v -0.64 -1.92 -0.03468208
v -0.96 -1.92 -0.03468208
v -0.96 -1.6 -0.03468208
v -0.64 -1.6 -0.03468208
v -1.92 -5.12 -0.09248555
v -2.24 -5.12 -0.09248555
v -2.24 -4.8 -0.09248555
v -1.92 -4.8 -0.09248555
v -2.24 -5.12 -0.09248555
v -2.56 -5.12 -0.09248555
v -2.56 -4.8 -0.09248555
v -2.24 -4.8 -0.09248555
v -2.56 -5.12 -0.09248555
v -2.88 -5.12 -0.09248555
v -2.88 -4.8 -0.09248555
v -2.56 -4.8 -0.09248555
v -2.88 -5.12 -0.09248555
v -3.2 -5.12 -0.09248555
v -3.2 -4.8 -0.09248555
v -2.88 -4.8 -0.09248555
v -3.2 -5.12 -0.09248555
v -3.52 -5.12 -0.09248555
v -3.52 -4.8 -0.09248555
v -3.2 -4.8 -0.09248555
v -3.52 -5.12 -0.09248555
v -3.84 -5.12 -0.09248555
v -3.84 -4.8 -0.09248555
v -3.52 -4.8 -0.09248555
v -3.84 -5.12 -0.09248555
v -4.16 -5.12 -0.09248555
v -4.16 -4.8 -0.09248555
v -3.84 -4.8 -0.09248555
v -4.16 -5.12 -0.09248555
v -4.48 -5.12 -0.09248555
v -4.48 -4.8 -0.09248555
v -4.16 -4.8 -0.09248555
v -4.48 -5.12 -0.09248555
v -4.8 -5.12 -0.09248555
v -4.8 -4.8 -0.09248555
v -4.48 -4.8 -0.09248555
v -4.8 -5.12 -0.09248555
v -5.12 -5.12 -0.09248555
v -5.12 -4.8 -0.09248555
v -4.8 -4.8 -0.09248555

# Texture cooridinates (Count = 22)
vt 0.15 0.85
vt 0.2 0.85
vt 0.2 0.9
vt 0.15 0.9
vt 0.15 0.8
vt 0.2 0.8
vt 0.25 0.5
vt 0.2 0.5
vt 0.2 0.45
vt 0.25 0.45
vt 0.05 0.95
vt 0.1 0.95
vt 0.1 1
vt 0.05 1
vt 0.15 0.95
vt 0.15 1
vt 0.2 0.95
vt 0.2 1
vt 0.25 0.95
vt 0.25 1
vt 0.15 0.5
vt 0.15 0.45

# Normal
vn 0 0 -1

# Mesh description
g NewBadManor_mesh_0290

# Faces
f 1/1/1 2/2/1 3/3/1 4/4/1
f 5/1/1 6/2/1 7/3/1 8/4/1
f 9/1/1 10/2/1 11/3/1 12/4/1
f 13/1/1 14/2/1 15/3/1 16/4/1
f 17/1/1 18/2/1 19/3/1 20/4/1
f 21/5/1 22/6/1 23/2/1 24/1/1
f 25/7/1 26/8/1 27/9/1 28/10/1
f 29/11/1 30/12/1 31/13/1 32/14/1
f 33/11/1 34/12/1 35/13/1 36/14/1
f 37/11/1 38/12/1 39/13/1 40/14/1
f 41/11/1 42/12/1 43/13/1 44/14/1
f 45/11/1 46/12/1 47/13/1 48/14/1
f 49/12/1 50/15/1 51/16/1 52/13/1
f 53/15/1 54/17/1 55/18/1 56/16/1
f 57/17/1 58/19/1 59/20/1 60/18/1
f 61/8/1 62/21/1 63/22/1 64/9/1

