# Tiled2Unity generated file. Do not modify by hand.
# Wavefront file for 'NewBadManor_mesh_0261.obj'

# Vertices (Count = 32)
v -2.56 -1.28 -0.02312139
v -2.88 -1.28 -0.02312139
v -2.88 -0.96 -0.02312139
v -2.56 -0.96 -0.02312139
v -2.88 -1.28 -0.02312139
v -3.2 -1.28 -0.02312139
v -3.2 -0.96 -0.02312139
v -2.88 -0.96 -0.02312139
v -3.2 -1.28 -0.02312139
v -3.52 -1.28 -0.02312139
v -3.52 -0.96 -0.02312139
v -3.2 -0.96 -0.02312139
v -3.52 -1.28 -0.02312139
v -3.84 -1.28 -0.02312139
v -3.84 -0.96 -0.02312139
v -3.52 -0.96 -0.02312139
v -3.84 -1.28 -0.02312139
v -4.16 -1.28 -0.02312139
v -4.16 -0.96 -0.02312139
v -3.84 -0.96 -0.02312139
v -4.16 -1.28 -0.02312139
v -4.48 -1.28 -0.02312139
v -4.48 -0.96 -0.02312139
v -4.16 -0.96 -0.02312139
v -4.48 -1.28 -0.02312139
v -4.8 -1.28 -0.02312139
v -4.8 -0.96 -0.02312139
v -4.48 -0.96 -0.02312139
v -4.8 -1.28 -0.02312139
v -5.12 -1.28 -0.02312139
v -5.12 -0.96 -0.02312139
v -4.8 -0.96 -0.02312139

# Texture cooridinates (Count = 6)
vt 0.6666667 0.3333333
vt 0.5 0.3333333
vt 0.5 0.25
vt 0.6666667 0.25
vt 0.3333333 0.3333333
vt 0.3333333 0.25

# Normal
vn 0 0 -1

# Mesh description
g NewBadManor_mesh_0261

# Faces
f 1/1/1 2/2/1 3/3/1 4/4/1
f 5/2/1 6/5/1 7/6/1 8/3/1
f 9/1/1 10/2/1 11/3/1 12/4/1
f 13/2/1 14/5/1 15/6/1 16/3/1
f 17/1/1 18/2/1 19/3/1 20/4/1
f 21/2/1 22/5/1 23/6/1 24/3/1
f 25/1/1 26/2/1 27/3/1 28/4/1
f 29/2/1 30/5/1 31/6/1 32/3/1

