# Tiled2Unity generated file. Do not modify by hand.
# Wavefront file for 'NewBadManor_mesh_0198.obj'

# Vertices (Count = 52)
v -1.28 -4.8 -0.0867052
v -1.6 -4.8 -0.0867052
v -1.6 -4.48 -0.0867052
v -1.28 -4.48 -0.0867052
v -1.6 -4.8 -0.0867052
v -1.92 -4.8 -0.0867052
v -1.92 -4.48 -0.0867052
v -1.6 -4.48 -0.0867052
v -1.92 -4.8 -0.0867052
v -2.24 -4.8 -0.0867052
v -2.24 -4.48 -0.0867052
v -1.92 -4.48 -0.0867052
v -2.24 -4.8 -0.0867052
v -2.56 -4.8 -0.0867052
v -2.56 -4.48 -0.0867052
v -2.24 -4.48 -0.0867052
v -2.56 -4.8 -0.0867052
v -2.88 -4.8 -0.0867052
v -2.88 -4.48 -0.0867052
v -2.56 -4.48 -0.0867052
v -2.88 -4.8 -0.0867052
v -3.2 -4.8 -0.0867052
v -3.2 -4.48 -0.0867052
v -2.88 -4.48 -0.0867052
v -3.84 -4.8 -0.0867052
v -4.16 -4.8 -0.0867052
v -4.16 -4.48 -0.0867052
v -3.84 -4.48 -0.0867052
v -4.16 -4.8 -0.0867052
v -4.48 -4.8 -0.0867052
v -4.48 -4.48 -0.0867052
v -4.16 -4.48 -0.0867052
v -4.48 -4.8 -0.0867052
v -4.8 -4.8 -0.0867052
v -4.8 -4.48 -0.0867052
v -4.48 -4.48 -0.0867052
v -4.8 -4.8 -0.0867052
v -5.12 -4.8 -0.0867052
v -5.12 -4.48 -0.0867052
v -4.8 -4.48 -0.0867052
v -1.28 -5.12 -0.09248555
v -1.6 -5.12 -0.09248555
v -1.6 -4.8 -0.09248555
v -1.28 -4.8 -0.09248555
v -2.88 -5.12 -0.09248555
v -3.2 -5.12 -0.09248555
v -3.2 -4.8 -0.09248555
v -2.88 -4.8 -0.09248555
v -3.84 -5.12 -0.09248555
v -4.16 -5.12 -0.09248555
v -4.16 -4.8 -0.09248555
v -3.84 -4.8 -0.09248555

# Texture cooridinates (Count = 10)
vt 0.25 0.85
vt 0.3 0.85
vt 0.3 0.9
vt 0.25 0.9
vt 0 0.85
vt 0.05 0.85
vt 0.05 0.9
vt 0 0.9
vt 0.1 0.85
vt 0.1 0.9

# Normal
vn 0 0 -1

# Mesh description
g NewBadManor_mesh_0198

# Faces
f 1/1/1 2/2/1 3/3/1 4/4/1
f 5/5/1 6/6/1 7/7/1 8/8/1
f 9/5/1 10/6/1 11/7/1 12/8/1
f 13/5/1 14/6/1 15/7/1 16/8/1
f 17/6/1 18/9/1 19/10/1 20/7/1
f 21/1/1 22/2/1 23/3/1 24/4/1
f 25/1/1 26/2/1 27/3/1 28/4/1
f 29/5/1 30/6/1 31/7/1 32/8/1
f 33/5/1 34/6/1 35/7/1 36/8/1
f 37/5/1 38/6/1 39/7/1 40/8/1
f 41/1/1 42/2/1 43/3/1 44/4/1
f 45/1/1 46/2/1 47/3/1 48/4/1
f 49/1/1 50/2/1 51/3/1 52/4/1

