# Tiled2Unity generated file. Do not modify by hand.
# Wavefront file for 'NewBadManor_mesh_0020.obj'

# Vertices (Count = 144)
v 0 -3.52 -0.06358381
v -0.32 -3.52 -0.06358381
v -0.32 -3.2 -0.06358381
v 0 -3.2 -0.06358381
v -0.32 -3.52 -0.06358381
v -0.64 -3.52 -0.06358381
v -0.64 -3.2 -0.06358381
v -0.32 -3.2 -0.06358381
v -0.64 -3.52 -0.06358381
v -0.96 -3.52 -0.06358381
v -0.96 -3.2 -0.06358381
v -0.64 -3.2 -0.06358381
v -0.96 -3.52 -0.06358381
v -1.28 -3.52 -0.06358381
v -1.28 -3.2 -0.06358381
v -0.96 -3.2 -0.06358381
v -1.28 -3.52 -0.06358381
v -1.6 -3.52 -0.06358381
v -1.6 -3.2 -0.06358381
v -1.28 -3.2 -0.06358381
v -1.6 -3.52 -0.06358381
v -1.92 -3.52 -0.06358381
v -1.92 -3.2 -0.06358381
v -1.6 -3.2 -0.06358381
v -1.92 -3.52 -0.06358381
v -2.24 -3.52 -0.06358381
v -2.24 -3.2 -0.06358381
v -1.92 -3.2 -0.06358381
v -2.24 -3.52 -0.06358381
v -2.56 -3.52 -0.06358381
v -2.56 -3.2 -0.06358381
v -2.24 -3.2 -0.06358381
v -2.56 -3.52 -0.06358381
v -2.88 -3.52 -0.06358381
v -2.88 -3.2 -0.06358381
v -2.56 -3.2 -0.06358381
v -2.88 -3.52 -0.06358381
v -3.2 -3.52 -0.06358381
v -3.2 -3.2 -0.06358381
v -2.88 -3.2 -0.06358381
v -3.2 -3.52 -0.06358381
v -3.52 -3.52 -0.06358381
v -3.52 -3.2 -0.06358381
v -3.2 -3.2 -0.06358381
v -3.52 -3.52 -0.06358381
v -3.84 -3.52 -0.06358381
v -3.84 -3.2 -0.06358381
v -3.52 -3.2 -0.06358381
v -3.84 -3.52 -0.06358381
v -4.16 -3.52 -0.06358381
v -4.16 -3.2 -0.06358381
v -3.84 -3.2 -0.06358381
v -4.16 -3.52 -0.06358381
v -4.48 -3.52 -0.06358381
v -4.48 -3.2 -0.06358381
v -4.16 -3.2 -0.06358381
v -4.48 -3.52 -0.06358381
v -4.8 -3.52 -0.06358381
v -4.8 -3.2 -0.06358381
v -4.48 -3.2 -0.06358381
v 0 -3.84 -0.06936416
v -0.32 -3.84 -0.06936416
v -0.32 -3.52 -0.06936416
v 0 -3.52 -0.06936416
v -0.32 -3.84 -0.06936416
v -0.64 -3.84 -0.06936416
v -0.64 -3.52 -0.06936416
v -0.32 -3.52 -0.06936416
v -0.64 -3.84 -0.06936416
v -0.96 -3.84 -0.06936416
v -0.96 -3.52 -0.06936416
v -0.64 -3.52 -0.06936416
v -0.96 -3.84 -0.06936416
v -1.28 -3.84 -0.06936416
v -1.28 -3.52 -0.06936416
v -0.96 -3.52 -0.06936416
v -1.28 -3.84 -0.06936416
v -1.6 -3.84 -0.06936416
v -1.6 -3.52 -0.06936416
v -1.28 -3.52 -0.06936416
v -1.6 -3.84 -0.06936416
v -1.92 -3.84 -0.06936416
v -1.92 -3.52 -0.06936416
v -1.6 -3.52 -0.06936416
v -1.92 -3.84 -0.06936416
v -2.24 -3.84 -0.06936416
v -2.24 -3.52 -0.06936416
v -1.92 -3.52 -0.06936416
v -2.24 -3.84 -0.06936416
v -2.56 -3.84 -0.06936416
v -2.56 -3.52 -0.06936416
v -2.24 -3.52 -0.06936416
v -2.56 -3.84 -0.06936416
v -2.88 -3.84 -0.06936416
v -2.88 -3.52 -0.06936416
v -2.56 -3.52 -0.06936416
v -2.88 -3.84 -0.06936416
v -3.2 -3.84 -0.06936416
v -3.2 -3.52 -0.06936416
v -2.88 -3.52 -0.06936416
v -3.2 -3.84 -0.06936416
v -3.52 -3.84 -0.06936416
v -3.52 -3.52 -0.06936416
v -3.2 -3.52 -0.06936416
v -3.52 -3.84 -0.06936416
v -3.84 -3.84 -0.06936416
v -3.84 -3.52 -0.06936416
v -3.52 -3.52 -0.06936416
v -3.84 -3.84 -0.06936416
v -4.16 -3.84 -0.06936416
v -4.16 -3.52 -0.06936416
v -3.84 -3.52 -0.06936416
v -4.16 -3.84 -0.06936416
v -4.48 -3.84 -0.06936416
v -4.48 -3.52 -0.06936416
v -4.16 -3.52 -0.06936416
v -4.48 -3.84 -0.06936416
v -4.8 -3.84 -0.06936416
v -4.8 -3.52 -0.06936416
v -4.48 -3.52 -0.06936416
v -4.16 -4.16 -0.07514451
v -4.48 -4.16 -0.07514451
v -4.48 -3.84 -0.07514451
v -4.16 -3.84 -0.07514451
v -4.48 -4.16 -0.07514451
v -4.8 -4.16 -0.07514451
v -4.8 -3.84 -0.07514451
v -4.48 -3.84 -0.07514451
v -4.16 -4.48 -0.08092485
v -4.48 -4.48 -0.08092485
v -4.48 -4.16 -0.08092485
v -4.16 -4.16 -0.08092485
v -4.48 -4.48 -0.08092485
v -4.8 -4.48 -0.08092485
v -4.8 -4.16 -0.08092485
v -4.48 -4.16 -0.08092485
v -4.16 -4.8 -0.0867052
v -4.48 -4.8 -0.0867052
v -4.48 -4.48 -0.0867052
v -4.16 -4.48 -0.0867052
v -4.16 -5.12 -0.09248555
v -4.48 -5.12 -0.09248555
v -4.48 -4.8 -0.09248555
v -4.16 -4.8 -0.09248555

# Texture cooridinates (Count = 9)
vt 0.5 0.4166667
vt 0.6666667 0.4166667
vt 0.6666667 0.5
vt 0.5 0.5
vt 0.3333333 0.4166667
vt 0.3333333 0.5
vt 0.5 0.3333333
vt 0.6666667 0.3333333
vt 0.3333333 0.3333333

# Normal
vn 0 0 -1

# Mesh description
g NewBadManor_mesh_0020

# Faces
f 1/1/1 2/2/1 3/3/1 4/4/1
f 5/5/1 6/1/1 7/4/1 8/6/1
f 9/1/1 10/2/1 11/3/1 12/4/1
f 13/5/1 14/1/1 15/4/1 16/6/1
f 17/1/1 18/2/1 19/3/1 20/4/1
f 21/5/1 22/1/1 23/4/1 24/6/1
f 25/1/1 26/2/1 27/3/1 28/4/1
f 29/5/1 30/1/1 31/4/1 32/6/1
f 33/1/1 34/2/1 35/3/1 36/4/1
f 37/5/1 38/1/1 39/4/1 40/6/1
f 41/1/1 42/2/1 43/3/1 44/4/1
f 45/5/1 46/1/1 47/4/1 48/6/1
f 49/1/1 50/2/1 51/3/1 52/4/1
f 53/5/1 54/1/1 55/4/1 56/6/1
f 57/1/1 58/2/1 59/3/1 60/4/1
f 61/7/1 62/8/1 63/2/1 64/1/1
f 65/9/1 66/7/1 67/1/1 68/5/1
f 69/7/1 70/8/1 71/2/1 72/1/1
f 73/9/1 74/7/1 75/1/1 76/5/1
f 77/7/1 78/8/1 79/2/1 80/1/1
f 81/9/1 82/7/1 83/1/1 84/5/1
f 85/7/1 86/8/1 87/2/1 88/1/1
f 89/9/1 90/7/1 91/1/1 92/5/1
f 93/7/1 94/8/1 95/2/1 96/1/1
f 97/9/1 98/7/1 99/1/1 100/5/1
f 101/7/1 102/8/1 103/2/1 104/1/1
f 105/9/1 106/7/1 107/1/1 108/5/1
f 109/7/1 110/8/1 111/2/1 112/1/1
f 113/9/1 114/7/1 115/1/1 116/5/1
f 117/7/1 118/8/1 119/2/1 120/1/1
f 121/5/1 122/1/1 123/4/1 124/6/1
f 125/1/1 126/2/1 127/3/1 128/4/1
f 129/9/1 130/7/1 131/1/1 132/5/1
f 133/7/1 134/8/1 135/2/1 136/1/1
f 137/5/1 138/1/1 139/4/1 140/6/1
f 141/9/1 142/7/1 143/1/1 144/5/1

