# Tiled2Unity generated file. Do not modify by hand.
# Wavefront file for 'NewBadManor_mesh_0007.obj'

# Vertices (Count = 608)
v -19.84 -1.92 0
v -20.48 -1.92 0
v -20.48 -1.28 0
v -19.84 -1.28 0
v -20.48 -1.92 0
v -21.12 -1.92 0
v -21.12 -1.28 0
v -20.48 -1.28 0
v -21.12 -1.92 0
v -21.76 -1.92 0
v -21.76 -1.28 0
v -21.12 -1.28 0
v -21.76 -1.92 0
v -22.4 -1.92 0
v -22.4 -1.28 0
v -21.76 -1.28 0
v -22.4 -1.92 0
v -23.04 -1.92 0
v -23.04 -1.28 0
v -22.4 -1.28 0
v -23.04 -1.92 0
v -23.68 -1.92 0
v -23.68 -1.28 0
v -23.04 -1.28 0
v -23.68 -1.92 0
v -24.32 -1.92 0
v -24.32 -1.28 0
v -23.68 -1.28 0
v -24.32 -1.92 0
v -24.96 -1.92 0
v -24.96 -1.28 0
v -24.32 -1.28 0
v -24.96 -1.92 0
v -25.6 -1.92 0
v -25.6 -1.28 0
v -24.96 -1.28 0
v -30.08 -1.92 0
v -30.72 -1.92 0
v -30.72 -1.28 0
v -30.08 -1.28 0
v -30.72 -1.92 0
v -31.36 -1.92 0
v -31.36 -1.28 0
v -30.72 -1.28 0
v -31.36 -1.92 0
v -32 -1.92 0
v -32 -1.28 0
v -31.36 -1.28 0
v -32 -1.92 0
v -32.64 -1.92 0
v -32.64 -1.28 0
v -32 -1.28 0
v -32.64 -1.92 0
v -33.28 -1.92 0
v -33.28 -1.28 0
v -32.64 -1.28 0
v -33.28 -1.92 0
v -33.92 -1.92 0
v -33.92 -1.28 0
v -33.28 -1.28 0
v -33.92 -1.92 0
v -34.56 -1.92 0
v -34.56 -1.28 0
v -33.92 -1.28 0
v -34.56 -1.92 0
v -35.2 -1.92 0
v -35.2 -1.28 0
v -34.56 -1.28 0
v -35.2 -1.92 0
v -35.84 -1.92 0
v -35.84 -1.28 0
v -35.2 -1.28 0
v -51.2 -3.2 0
v -51.84 -3.2 0
v -51.84 -2.56 0
v -51.2 -2.56 0
v -51.84 -3.2 0
v -52.48 -3.2 0
v -52.48 -2.56 0
v -51.84 -2.56 0
v -52.48 -3.2 0
v -53.12 -3.2 0
v -53.12 -2.56 0
v -52.48 -2.56 0
v -53.12 -3.2 0
v -53.76 -3.2 0
v -53.76 -2.56 0
v -53.12 -2.56 0
v -53.76 -3.2 0
v -54.4 -3.2 0
v -54.4 -2.56 0
v -53.76 -2.56 0
v -61.44 -3.2 0
v -62.08 -3.2 0
v -62.08 -2.56 0
v -61.44 -2.56 0
v -62.08 -3.2 0
v -62.72 -3.2 0
v -62.72 -2.56 0
v -62.08 -2.56 0
v -62.72 -3.2 0
v -63.36 -3.2 0
v -63.36 -2.56 0
v -62.72 -2.56 0
v -63.36 -3.2 0
v -64 -3.2 0
v -64 -2.56 0
v -63.36 -2.56 0
v 0 -3.84 0
v -0.64 -3.84 0
v -0.64 -3.2 0
v 0 -3.2 0
v -23.68 -5.12 0
v -24.32 -5.12 0
v -24.32 -4.48 0
v -23.68 -4.48 0
v -24.32 -5.12 0
v -24.96 -5.12 0
v -24.96 -4.48 0
v -24.32 -4.48 0
v -24.96 -5.12 0
v -25.6 -5.12 0
v -25.6 -4.48 0
v -24.96 -4.48 0
v -25.6 -5.12 0
v -26.24 -5.12 0
v -26.24 -4.48 0
v -25.6 -4.48 0
v -26.24 -5.12 0
v -26.88 -5.12 0
v -26.88 -4.48 0
v -26.24 -4.48 0
v -26.88 -5.12 0
v -27.52 -5.12 0
v -27.52 -4.48 0
v -26.88 -4.48 0
v -27.52 -5.12 0
v -28.16 -5.12 0
v -28.16 -4.48 0
v -27.52 -4.48 0
v -28.16 -5.12 0
v -28.8 -5.12 0
v -28.8 -4.48 0
v -28.16 -4.48 0
v -28.8 -5.12 0
v -29.44 -5.12 0
v -29.44 -4.48 0
v -28.8 -4.48 0
v -29.44 -5.12 0
v -30.08 -5.12 0
v -30.08 -4.48 0
v -29.44 -4.48 0
v -30.08 -5.12 0
v -30.72 -5.12 0
v -30.72 -4.48 0
v -30.08 -4.48 0
v -30.72 -5.12 0
v -31.36 -5.12 0
v -31.36 -4.48 0
v -30.72 -4.48 0
v -31.36 -5.12 0
v -32 -5.12 0
v -32 -4.48 0
v -31.36 -4.48 0
v -32 -5.12 0
v -32.64 -5.12 0
v -32.64 -4.48 0
v -32 -4.48 0
v -33.92 -5.12 0
v -34.56 -5.12 0
v -34.56 -4.48 0
v -33.92 -4.48 0
v -34.56 -5.12 0
v -35.2 -5.12 0
v -35.2 -4.48 0
v -34.56 -4.48 0
v -35.2 -5.12 0
v -35.84 -5.12 0
v -35.84 -4.48 0
v -35.2 -4.48 0
v -35.84 -5.12 0
v -36.48 -5.12 0
v -36.48 -4.48 0
v -35.84 -4.48 0
v -36.48 -5.12 0
v -37.12 -5.12 0
v -37.12 -4.48 0
v -36.48 -4.48 0
v -37.12 -5.12 0
v -37.76 -5.12 0
v -37.76 -4.48 0
v -37.12 -4.48 0
v -37.76 -5.12 0
v -38.4 -5.12 0
v -38.4 -4.48 0
v -37.76 -4.48 0
v -38.4 -5.12 0
v -39.04 -5.12 0
v -39.04 -4.48 0
v -38.4 -4.48 0
v -39.04 -5.12 0
v -39.68 -5.12 0
v -39.68 -4.48 0
v -39.04 -4.48 0
v -39.68 -5.12 0
v -40.32 -5.12 0
v -40.32 -4.48 0
v -39.68 -4.48 0
v -40.32 -5.12 0
v -40.96 -5.12 0
v -40.96 -4.48 0
v -40.32 -4.48 0
v -40.96 -5.12 0
v -41.6 -5.12 0
v -41.6 -4.48 0
v -40.96 -4.48 0
v -41.6 -5.12 0
v -42.24 -5.12 0
v -42.24 -4.48 0
v -41.6 -4.48 0
v -42.24 -5.12 0
v -42.88 -5.12 0
v -42.88 -4.48 0
v -42.24 -4.48 0
v -48 -5.12 0
v -48.64 -5.12 0
v -48.64 -4.48 0
v -48 -4.48 0
v -48.64 -5.12 0
v -49.28 -5.12 0
v -49.28 -4.48 0
v -48.64 -4.48 0
v -58.24 -5.12 0
v -58.88 -5.12 0
v -58.88 -4.48 0
v -58.24 -4.48 0
v -58.88 -5.12 0
v -59.52 -5.12 0
v -59.52 -4.48 0
v -58.88 -4.48 0
v -4.48 -5.76 0
v -5.12 -5.76 0
v -5.12 -5.12 0
v -4.48 -5.12 0
v -5.12 -5.76 0
v -5.76 -5.76 0
v -5.76 -5.12 0
v -5.12 -5.12 0
v -14.72 -5.76 0
v -15.36 -5.76 0
v -15.36 -5.12 0
v -14.72 -5.12 0
v -15.36 -5.76 0
v -16 -5.76 0
v -16 -5.12 0
v -15.36 -5.12 0
v -24.96 -5.76 0
v -25.6 -5.76 0
v -25.6 -5.12 0
v -24.96 -5.12 0
v -25.6 -5.76 0
v -26.24 -5.76 0
v -26.24 -5.12 0
v -25.6 -5.12 0
v -26.24 -5.76 0
v -26.88 -5.76 0
v -26.88 -5.12 0
v -26.24 -5.12 0
v -26.88 -5.76 0
v -27.52 -5.76 0
v -27.52 -5.12 0
v -26.88 -5.12 0
v -27.52 -5.76 0
v -28.16 -5.76 0
v -28.16 -5.12 0
v -27.52 -5.12 0
v -28.16 -5.76 0
v -28.8 -5.76 0
v -28.8 -5.12 0
v -28.16 -5.12 0
v -28.8 -5.76 0
v -29.44 -5.76 0
v -29.44 -5.12 0
v -28.8 -5.12 0
v -29.44 -5.76 0
v -30.08 -5.76 0
v -30.08 -5.12 0
v -29.44 -5.12 0
v -30.08 -5.76 0
v -30.72 -5.76 0
v -30.72 -5.12 0
v -30.08 -5.12 0
v -35.2 -5.76 0
v -35.84 -5.76 0
v -35.84 -5.12 0
v -35.2 -5.12 0
v -35.84 -5.76 0
v -36.48 -5.76 0
v -36.48 -5.12 0
v -35.84 -5.12 0
v -36.48 -5.76 0
v -37.12 -5.76 0
v -37.12 -5.12 0
v -36.48 -5.12 0
v -37.12 -5.76 0
v -37.76 -5.76 0
v -37.76 -5.12 0
v -37.12 -5.12 0
v -37.76 -5.76 0
v -38.4 -5.76 0
v -38.4 -5.12 0
v -37.76 -5.12 0
v -38.4 -5.76 0
v -39.04 -5.76 0
v -39.04 -5.12 0
v -38.4 -5.12 0
v -39.04 -5.76 0
v -39.68 -5.76 0
v -39.68 -5.12 0
v -39.04 -5.12 0
v -39.68 -5.76 0
v -40.32 -5.76 0
v -40.32 -5.12 0
v -39.68 -5.12 0
v -40.32 -5.76 0
v -40.96 -5.76 0
v -40.96 -5.12 0
v -40.32 -5.12 0
v -56.32 -7.04 0
v -56.96 -7.04 0
v -56.96 -6.4 0
v -56.32 -6.4 0
v -56.96 -7.04 0
v -57.6 -7.04 0
v -57.6 -6.4 0
v -56.96 -6.4 0
v -57.6 -7.04 0
v -58.24 -7.04 0
v -58.24 -6.4 0
v -57.6 -6.4 0
v -58.24 -7.04 0
v -58.88 -7.04 0
v -58.88 -6.4 0
v -58.24 -6.4 0
v -58.88 -7.04 0
v -59.52 -7.04 0
v -59.52 -6.4 0
v -58.88 -6.4 0
v -2.56 -7.68 0
v -3.2 -7.68 0
v -3.2 -7.04 0
v -2.56 -7.04 0
v -3.2 -7.68 0
v -3.84 -7.68 0
v -3.84 -7.04 0
v -3.2 -7.04 0
v -3.84 -7.68 0
v -4.48 -7.68 0
v -4.48 -7.04 0
v -3.84 -7.04 0
v -4.48 -7.68 0
v -5.12 -7.68 0
v -5.12 -7.04 0
v -4.48 -7.04 0
v -5.12 -7.68 0
v -5.76 -7.68 0
v -5.76 -7.04 0
v -5.12 -7.04 0
v -51.84 -8.32 0
v -52.48 -8.32 0
v -52.48 -7.68 0
v -51.84 -7.68 0
v -52.48 -8.32 0
v -53.12 -8.32 0
v -53.12 -7.68 0
v -52.48 -7.68 0
v -53.12 -8.32 0
v -53.76 -8.32 0
v -53.76 -7.68 0
v -53.12 -7.68 0
v -53.76 -8.32 0
v -54.4 -8.32 0
v -54.4 -7.68 0
v -53.76 -7.68 0
v -54.4 -8.32 0
v -55.04 -8.32 0
v -55.04 -7.68 0
v -54.4 -7.68 0
v -58.88 -8.32 0
v -59.52 -8.32 0
v -59.52 -7.68 0
v -58.88 -7.68 0
v -59.52 -8.32 0
v -60.16 -8.32 0
v -60.16 -7.68 0
v -59.52 -7.68 0
v -60.16 -8.32 0
v -60.8 -8.32 0
v -60.8 -7.68 0
v -60.16 -7.68 0
v -62.08 -8.32 0
v -62.72 -8.32 0
v -62.72 -7.68 0
v -62.08 -7.68 0
v -62.72 -8.32 0
v -63.36 -8.32 0
v -63.36 -7.68 0
v -62.72 -7.68 0
v -5.12 -8.96 0
v -5.76 -8.96 0
v -5.76 -8.32 0
v -5.12 -8.32 0
v -5.76 -8.96 0
v -6.4 -8.96 0
v -6.4 -8.32 0
v -5.76 -8.32 0
v -6.4 -8.96 0
v -7.04 -8.96 0
v -7.04 -8.32 0
v -6.4 -8.32 0
v -8.32 -8.96 0
v -8.96 -8.96 0
v -8.96 -8.32 0
v -8.32 -8.32 0
v -8.96 -8.96 0
v -9.599999 -8.96 0
v -9.599999 -8.32 0
v -8.96 -8.32 0
v -15.36 -8.96 0
v -16 -8.96 0
v -16 -8.32 0
v -15.36 -8.32 0
v -16 -8.96 0
v -16.64 -8.96 0
v -16.64 -8.32 0
v -16 -8.32 0
v -16.64 -8.96 0
v -17.28 -8.96 0
v -17.28 -8.32 0
v -16.64 -8.32 0
v -18.56 -8.96 0
v -19.2 -8.96 0
v -19.2 -8.32 0
v -18.56 -8.32 0
v -19.2 -8.96 0
v -19.84 -8.96 0
v -19.84 -8.32 0
v -19.2 -8.32 0
v -19.84 -8.96 0
v -20.48 -8.96 0
v -20.48 -8.32 0
v -19.84 -8.32 0
v -20.48 -8.96 0
v -21.12 -8.96 0
v -21.12 -8.32 0
v -20.48 -8.32 0
v -21.12 -8.96 0
v -21.76 -8.96 0
v -21.76 -8.32 0
v -21.12 -8.32 0
v -21.76 -8.96 0
v -22.4 -8.96 0
v -22.4 -8.32 0
v -21.76 -8.32 0
v -22.4 -8.96 0
v -23.04 -8.96 0
v -23.04 -8.32 0
v -22.4 -8.32 0
v -23.04 -8.96 0
v -23.68 -8.96 0
v -23.68 -8.32 0
v -23.04 -8.32 0
v -23.68 -8.96 0
v -24.32 -8.96 0
v -24.32 -8.32 0
v -23.68 -8.32 0
v -24.32 -8.96 0
v -24.96 -8.96 0
v -24.96 -8.32 0
v -24.32 -8.32 0
v -24.96 -8.96 0
v -25.6 -8.96 0
v -25.6 -8.32 0
v -24.96 -8.32 0
v -25.6 -8.96 0
v -26.24 -8.96 0
v -26.24 -8.32 0
v -25.6 -8.32 0
v -26.24 -8.96 0
v -26.88 -8.96 0
v -26.88 -8.32 0
v -26.24 -8.32 0
v -26.88 -8.96 0
v -27.52 -8.96 0
v -27.52 -8.32 0
v -26.88 -8.32 0
v -28.8 -8.96 0
v -29.44 -8.96 0
v -29.44 -8.32 0
v -28.8 -8.32 0
v -29.44 -8.96 0
v -30.08 -8.96 0
v -30.08 -8.32 0
v -29.44 -8.32 0
v -30.08 -8.96 0
v -30.72 -8.96 0
v -30.72 -8.32 0
v -30.08 -8.32 0
v -30.72 -8.96 0
v -31.36 -8.96 0
v -31.36 -8.32 0
v -30.72 -8.32 0
v -31.36 -8.96 0
v -32 -8.96 0
v -32 -8.32 0
v -31.36 -8.32 0
v -32 -8.96 0
v -32.64 -8.96 0
v -32.64 -8.32 0
v -32 -8.32 0
v -32.64 -8.96 0
v -33.28 -8.96 0
v -33.28 -8.32 0
v -32.64 -8.32 0
v -33.28 -8.96 0
v -33.92 -8.96 0
v -33.92 -8.32 0
v -33.28 -8.32 0
v -33.92 -8.96 0
v -34.56 -8.96 0
v -34.56 -8.32 0
v -33.92 -8.32 0
v -34.56 -8.96 0
v -35.2 -8.96 0
v -35.2 -8.32 0
v -34.56 -8.32 0
v -35.2 -8.96 0
v -35.84 -8.96 0
v -35.84 -8.32 0
v -35.2 -8.32 0
v -35.84 -8.96 0
v -36.48 -8.96 0
v -36.48 -8.32 0
v -35.84 -8.32 0
v -36.48 -8.96 0
v -37.12 -8.96 0
v -37.12 -8.32 0
v -36.48 -8.32 0
v -37.12 -8.96 0
v -37.76 -8.96 0
v -37.76 -8.32 0
v -37.12 -8.32 0
v -39.04 -8.96 0
v -39.68 -8.96 0
v -39.68 -8.32 0
v -39.04 -8.32 0
v -39.68 -8.96 0
v -40.32 -8.96 0
v -40.32 -8.32 0
v -39.68 -8.32 0
v -40.32 -8.96 0
v -40.96 -8.96 0
v -40.96 -8.32 0
v -40.32 -8.32 0
v -40.96 -8.96 0
v -41.6 -8.96 0
v -41.6 -8.32 0
v -40.96 -8.32 0
v -41.6 -8.96 0
v -42.24 -8.96 0
v -42.24 -8.32 0
v -41.6 -8.32 0
v -42.24 -8.96 0
v -42.88 -8.96 0
v -42.88 -8.32 0
v -42.24 -8.32 0
v -42.88 -8.96 0
v -43.52 -8.96 0
v -43.52 -8.32 0
v -42.88 -8.32 0
v -43.52 -8.96 0
v -44.16 -8.96 0
v -44.16 -8.32 0
v -43.52 -8.32 0
v -44.16 -8.96 0
v -44.8 -8.96 0
v -44.8 -8.32 0
v -44.16 -8.32 0
v -44.8 -8.96 0
v -45.44 -8.96 0
v -45.44 -8.32 0
v -44.8 -8.32 0
v -45.44 -8.96 0
v -46.08 -8.96 0
v -46.08 -8.32 0
v -45.44 -8.32 0
v -46.08 -8.96 0
v -46.72 -8.96 0
v -46.72 -8.32 0
v -46.08 -8.32 0
v -46.72 -8.96 0
v -47.36 -8.96 0
v -47.36 -8.32 0
v -46.72 -8.32 0
v -47.36 -8.96 0
v -48 -8.96 0
v -48 -8.32 0
v -47.36 -8.32 0

# Texture cooridinates (Count = 9)
vt 0.1666667 0.7666667
vt 0.2083333 0.7666667
vt 0.2083333 0.8
vt 0.1666667 0.8
vt 0.1666667 0.7333333
vt 0.2083333 0.7333333
vt 0.25 0.7666667
vt 0.25 0.8
vt 0.25 0.7333333

# Normal
vn 0 0 -1

# Mesh description
g NewBadManor_mesh_0007

# Faces
f 1/1/1 2/2/1 3/3/1 4/4/1
f 5/1/1 6/2/1 7/3/1 8/4/1
f 9/1/1 10/2/1 11/3/1 12/4/1
f 13/1/1 14/2/1 15/3/1 16/4/1
f 17/1/1 18/2/1 19/3/1 20/4/1
f 21/1/1 22/2/1 23/3/1 24/4/1
f 25/1/1 26/2/1 27/3/1 28/4/1
f 29/1/1 30/2/1 31/3/1 32/4/1
f 33/1/1 34/2/1 35/3/1 36/4/1
f 37/5/1 38/6/1 39/2/1 40/1/1
f 41/5/1 42/6/1 43/2/1 44/1/1
f 45/5/1 46/6/1 47/2/1 48/1/1
f 49/5/1 50/6/1 51/2/1 52/1/1
f 53/5/1 54/6/1 55/2/1 56/1/1
f 57/5/1 58/6/1 59/2/1 60/1/1
f 61/5/1 62/6/1 63/2/1 64/1/1
f 65/5/1 66/6/1 67/2/1 68/1/1
f 69/5/1 70/6/1 71/2/1 72/1/1
f 73/1/1 74/2/1 75/3/1 76/4/1
f 77/1/1 78/2/1 79/3/1 80/4/1
f 81/1/1 82/2/1 83/3/1 84/4/1
f 85/1/1 86/2/1 87/3/1 88/4/1
f 89/2/1 90/7/1 91/8/1 92/3/1
f 93/5/1 94/6/1 95/2/1 96/1/1
f 97/5/1 98/6/1 99/2/1 100/1/1
f 101/5/1 102/6/1 103/2/1 104/1/1
f 105/5/1 106/6/1 107/2/1 108/1/1
f 109/6/1 110/9/1 111/7/1 112/2/1
f 113/1/1 114/2/1 115/3/1 116/4/1
f 117/2/1 118/7/1 119/8/1 120/3/1
f 121/1/1 122/2/1 123/3/1 124/4/1
f 125/1/1 126/2/1 127/3/1 128/4/1
f 129/1/1 130/2/1 131/3/1 132/4/1
f 133/1/1 134/2/1 135/3/1 136/4/1
f 137/1/1 138/2/1 139/3/1 140/4/1
f 141/1/1 142/2/1 143/3/1 144/4/1
f 145/1/1 146/2/1 147/3/1 148/4/1
f 149/1/1 150/2/1 151/3/1 152/4/1
f 153/1/1 154/2/1 155/3/1 156/4/1
f 157/2/1 158/7/1 159/8/1 160/3/1
f 161/1/1 162/2/1 163/3/1 164/4/1
f 165/2/1 166/7/1 167/8/1 168/3/1
f 169/1/1 170/2/1 171/3/1 172/4/1
f 173/2/1 174/7/1 175/8/1 176/3/1
f 177/5/1 178/6/1 179/2/1 180/1/1
f 181/5/1 182/6/1 183/2/1 184/1/1
f 185/5/1 186/6/1 187/2/1 188/1/1
f 189/5/1 190/6/1 191/2/1 192/1/1
f 193/5/1 194/6/1 195/2/1 196/1/1
f 197/5/1 198/6/1 199/2/1 200/1/1
f 201/5/1 202/6/1 203/2/1 204/1/1
f 205/5/1 206/6/1 207/2/1 208/1/1
f 209/5/1 210/6/1 211/2/1 212/1/1
f 213/6/1 214/9/1 215/7/1 216/2/1
f 217/1/1 218/2/1 219/3/1 220/4/1
f 221/2/1 222/7/1 223/8/1 224/3/1
f 225/5/1 226/6/1 227/2/1 228/1/1
f 229/6/1 230/9/1 231/7/1 232/2/1
f 233/5/1 234/6/1 235/2/1 236/1/1
f 237/6/1 238/9/1 239/7/1 240/2/1
f 241/5/1 242/6/1 243/2/1 244/1/1
f 245/6/1 246/9/1 247/7/1 248/2/1
f 249/5/1 250/6/1 251/2/1 252/1/1
f 253/6/1 254/9/1 255/7/1 256/2/1
f 257/5/1 258/6/1 259/2/1 260/1/1
f 261/6/1 262/9/1 263/7/1 264/2/1
f 265/2/1 266/7/1 267/8/1 268/3/1
f 269/2/1 270/7/1 271/8/1 272/3/1
f 273/2/1 274/7/1 275/8/1 276/3/1
f 277/2/1 278/7/1 279/8/1 280/3/1
f 281/2/1 282/7/1 283/8/1 284/3/1
f 285/2/1 286/7/1 287/8/1 288/3/1
f 289/2/1 290/7/1 291/8/1 292/3/1
f 293/5/1 294/6/1 295/2/1 296/1/1
f 297/6/1 298/9/1 299/7/1 300/2/1
f 301/6/1 302/9/1 303/7/1 304/2/1
f 305/6/1 306/9/1 307/7/1 308/2/1
f 309/6/1 310/9/1 311/7/1 312/2/1
f 313/6/1 314/9/1 315/7/1 316/2/1
f 317/6/1 318/9/1 319/7/1 320/2/1
f 321/6/1 322/9/1 323/7/1 324/2/1
f 325/6/1 326/9/1 327/7/1 328/2/1
f 329/2/1 330/7/1 331/8/1 332/3/1
f 333/2/1 334/7/1 335/8/1 336/3/1
f 337/2/1 338/7/1 339/8/1 340/3/1
f 341/2/1 342/7/1 343/8/1 344/3/1
f 345/2/1 346/7/1 347/8/1 348/3/1
f 349/6/1 350/9/1 351/7/1 352/2/1
f 353/6/1 354/9/1 355/7/1 356/2/1
f 357/6/1 358/9/1 359/7/1 360/2/1
f 361/6/1 362/9/1 363/7/1 364/2/1
f 365/6/1 366/9/1 367/7/1 368/2/1
f 369/1/1 370/2/1 371/3/1 372/4/1
f 373/2/1 374/7/1 375/8/1 376/3/1
f 377/5/1 378/6/1 379/2/1 380/1/1
f 381/5/1 382/6/1 383/2/1 384/1/1
f 385/6/1 386/9/1 387/7/1 388/2/1
f 389/1/1 390/2/1 391/3/1 392/4/1
f 393/2/1 394/7/1 395/8/1 396/3/1
f 397/2/1 398/7/1 399/8/1 400/3/1
f 401/1/1 402/2/1 403/3/1 404/4/1
f 405/2/1 406/7/1 407/8/1 408/3/1
f 409/1/1 410/2/1 411/3/1 412/4/1
f 413/1/1 414/2/1 415/3/1 416/4/1
f 417/2/1 418/7/1 419/8/1 420/3/1
f 421/1/1 422/2/1 423/3/1 424/4/1
f 425/2/1 426/7/1 427/8/1 428/3/1
f 429/1/1 430/2/1 431/3/1 432/4/1
f 433/5/1 434/6/1 435/2/1 436/1/1
f 437/6/1 438/9/1 439/7/1 440/2/1
f 441/1/1 442/2/1 443/3/1 444/4/1
f 445/2/1 446/7/1 447/8/1 448/3/1
f 449/1/1 450/2/1 451/3/1 452/4/1
f 453/1/1 454/2/1 455/3/1 456/4/1
f 457/1/1 458/2/1 459/3/1 460/4/1
f 461/1/1 462/2/1 463/3/1 464/4/1
f 465/1/1 466/2/1 467/3/1 468/4/1
f 469/2/1 470/7/1 471/8/1 472/3/1
f 473/1/1 474/2/1 475/3/1 476/4/1
f 477/1/1 478/2/1 479/3/1 480/4/1
f 481/1/1 482/2/1 483/3/1 484/4/1
f 485/1/1 486/2/1 487/3/1 488/4/1
f 489/5/1 490/6/1 491/2/1 492/1/1
f 493/6/1 494/9/1 495/7/1 496/2/1
f 497/1/1 498/2/1 499/3/1 500/4/1
f 501/2/1 502/7/1 503/8/1 504/3/1
f 505/5/1 506/6/1 507/2/1 508/1/1
f 509/5/1 510/6/1 511/2/1 512/1/1
f 513/1/1 514/2/1 515/3/1 516/4/1
f 517/1/1 518/2/1 519/3/1 520/4/1
f 521/1/1 522/2/1 523/3/1 524/4/1
f 525/1/1 526/2/1 527/3/1 528/4/1
f 529/5/1 530/6/1 531/2/1 532/1/1
f 533/5/1 534/6/1 535/2/1 536/1/1
f 537/1/1 538/2/1 539/3/1 540/4/1
f 541/5/1 542/6/1 543/2/1 544/1/1
f 545/5/1 546/6/1 547/2/1 548/1/1
f 549/6/1 550/9/1 551/7/1 552/2/1
f 553/5/1 554/6/1 555/2/1 556/1/1
f 557/6/1 558/9/1 559/7/1 560/2/1
f 561/5/1 562/6/1 563/2/1 564/1/1
f 565/6/1 566/9/1 567/7/1 568/2/1
f 569/5/1 570/6/1 571/2/1 572/1/1
f 573/5/1 574/6/1 575/2/1 576/1/1
f 577/5/1 578/6/1 579/2/1 580/1/1
f 581/5/1 582/6/1 583/2/1 584/1/1
f 585/5/1 586/6/1 587/2/1 588/1/1
f 589/6/1 590/9/1 591/7/1 592/2/1
f 593/5/1 594/6/1 595/2/1 596/1/1
f 597/6/1 598/9/1 599/7/1 600/2/1
f 601/5/1 602/6/1 603/2/1 604/1/1
f 605/6/1 606/9/1 607/7/1 608/2/1

