# Tiled2Unity generated file. Do not modify by hand.
# Wavefront file for 'NewBadManor_mesh_0015.obj'

# Vertices (Count = 176)
v -13.44 -2.56 0
v -14.08 -2.56 0
v -14.08 -1.92 0
v -13.44 -1.92 0
v -14.08 -2.56 0
v -14.72 -2.56 0
v -14.72 -1.92 0
v -14.08 -1.92 0
v -14.72 -2.56 0
v -15.36 -2.56 0
v -15.36 -1.92 0
v -14.72 -1.92 0
v -15.36 -2.56 0
v -16 -2.56 0
v -16 -1.92 0
v -15.36 -1.92 0
v -23.68 -2.56 0
v -24.32 -2.56 0
v -24.32 -1.92 0
v -23.68 -1.92 0
v -24.32 -2.56 0
v -24.96 -2.56 0
v -24.96 -1.92 0
v -24.32 -1.92 0
v -24.96 -2.56 0
v -25.6 -2.56 0
v -25.6 -1.92 0
v -24.96 -1.92 0
v -25.6 -2.56 0
v -26.24 -2.56 0
v -26.24 -1.92 0
v -25.6 -1.92 0
v -33.92 -2.56 0
v -34.56 -2.56 0
v -34.56 -1.92 0
v -33.92 -1.92 0
v -34.56 -2.56 0
v -35.2 -2.56 0
v -35.2 -1.92 0
v -34.56 -1.92 0
v -35.2 -2.56 0
v -35.84 -2.56 0
v -35.84 -1.92 0
v -35.2 -1.92 0
v -35.84 -2.56 0
v -36.48 -2.56 0
v -36.48 -1.92 0
v -35.84 -1.92 0
v -44.16 -2.56 0
v -44.8 -2.56 0
v -44.8 -1.92 0
v -44.16 -1.92 0
v -44.8 -2.56 0
v -45.44 -2.56 0
v -45.44 -1.92 0
v -44.8 -1.92 0
v -45.44 -2.56 0
v -46.08 -2.56 0
v -46.08 -1.92 0
v -45.44 -1.92 0
v -46.08 -2.56 0
v -46.72 -2.56 0
v -46.72 -1.92 0
v -46.08 -1.92 0
v -54.4 -2.56 0
v -55.04 -2.56 0
v -55.04 -1.92 0
v -54.4 -1.92 0
v -55.04 -2.56 0
v -55.68 -2.56 0
v -55.68 -1.92 0
v -55.04 -1.92 0
v -55.68 -2.56 0
v -56.32 -2.56 0
v -56.32 -1.92 0
v -55.68 -1.92 0
v -56.32 -2.56 0
v -56.96 -2.56 0
v -56.96 -1.92 0
v -56.32 -1.92 0
v -0.64 -3.2 0
v -1.28 -3.2 0
v -1.28 -2.56 0
v -0.64 -2.56 0
v -1.28 -3.2 0
v -1.92 -3.2 0
v -1.92 -2.56 0
v -1.28 -2.56 0
v -1.92 -3.2 0
v -2.56 -3.2 0
v -2.56 -2.56 0
v -1.92 -2.56 0
v -2.56 -3.2 0
v -3.2 -3.2 0
v -3.2 -2.56 0
v -2.56 -2.56 0
v -10.88 -3.2 0
v -11.52 -3.2 0
v -11.52 -2.56 0
v -10.88 -2.56 0
v -11.52 -3.2 0
v -12.16 -3.2 0
v -12.16 -2.56 0
v -11.52 -2.56 0
v -12.16 -3.2 0
v -12.8 -3.2 0
v -12.8 -2.56 0
v -12.16 -2.56 0
v -12.8 -3.2 0
v -13.44 -3.2 0
v -13.44 -2.56 0
v -12.8 -2.56 0
v -21.12 -3.2 0
v -21.76 -3.2 0
v -21.76 -2.56 0
v -21.12 -2.56 0
v -21.76 -3.2 0
v -22.4 -3.2 0
v -22.4 -2.56 0
v -21.76 -2.56 0
v -22.4 -3.2 0
v -23.04 -3.2 0
v -23.04 -2.56 0
v -22.4 -2.56 0
v -23.04 -3.2 0
v -23.68 -3.2 0
v -23.68 -2.56 0
v -23.04 -2.56 0
v -31.36 -3.2 0
v -32 -3.2 0
v -32 -2.56 0
v -31.36 -2.56 0
v -32 -3.2 0
v -32.64 -3.2 0
v -32.64 -2.56 0
v -32 -2.56 0
v -32.64 -3.2 0
v -33.28 -3.2 0
v -33.28 -2.56 0
v -32.64 -2.56 0
v -33.28 -3.2 0
v -33.92 -3.2 0
v -33.92 -2.56 0
v -33.28 -2.56 0
v -41.6 -3.2 0
v -42.24 -3.2 0
v -42.24 -2.56 0
v -41.6 -2.56 0
v -42.24 -3.2 0
v -42.88 -3.2 0
v -42.88 -2.56 0
v -42.24 -2.56 0
v -42.88 -3.2 0
v -43.52 -3.2 0
v -43.52 -2.56 0
v -42.88 -2.56 0
v -43.52 -3.2 0
v -44.16 -3.2 0
v -44.16 -2.56 0
v -43.52 -2.56 0
v -51.84 -3.2 0
v -52.48 -3.2 0
v -52.48 -2.56 0
v -51.84 -2.56 0
v -52.48 -3.2 0
v -53.12 -3.2 0
v -53.12 -2.56 0
v -52.48 -2.56 0
v -53.12 -3.2 0
v -53.76 -3.2 0
v -53.76 -2.56 0
v -53.12 -2.56 0
v -53.76 -3.2 0
v -54.4 -3.2 0
v -54.4 -2.56 0
v -53.76 -2.56 0

# Texture cooridinates (Count = 28)
vt 0.125 0.1071429
vt 0.1875 0.1071429
vt 0.1875 0.1428571
vt 0.125 0.1428571
vt 0.0625 0.1071429
vt 0.0625 0.1428571
vt 0.25 0.1071429
vt 0.25 0.1428571
vt 0.125 0.0714286
vt 0.1875 0.0714286
vt 0.0625 0.0714286
vt 0.25 0.0714286
vt 0.4375 0.1071429
vt 0.5 0.1071429
vt 0.5 0.1428571
vt 0.4375 0.1428571
vt 0.4375 0.0714286
vt 0.5 0.0714286
vt 0.125 0.03571427
vt 0.1875 0.03571427
vt 0.4375 0.03571427
vt 0.5 0.03571427
vt 0.25 0.03571427
vt 0.4375 0
vt 0.5 0
vt 0.125 0
vt 0.1875 0
vt 0.25 0

# Normal
vn 0 0 -1

# Mesh description
g NewBadManor_mesh_0015

# Faces
f 1/1/1 2/2/1 3/3/1 4/4/1
f 5/5/1 6/1/1 7/4/1 8/6/1
f 9/5/1 10/1/1 11/4/1 12/6/1
f 13/2/1 14/7/1 15/8/1 16/3/1
f 17/9/1 18/10/1 19/2/1 20/1/1
f 21/5/1 22/1/1 23/4/1 24/6/1
f 25/11/1 26/9/1 27/1/1 28/5/1
f 29/10/1 30/12/1 31/7/1 32/2/1
f 33/9/1 34/10/1 35/2/1 36/1/1
f 37/11/1 38/9/1 39/1/1 40/5/1
f 41/11/1 42/9/1 43/1/1 44/5/1
f 45/10/1 46/12/1 47/7/1 48/2/1
f 49/1/1 50/2/1 51/3/1 52/4/1
f 53/13/1 54/14/1 55/15/1 56/16/1
f 57/13/1 58/14/1 59/15/1 60/16/1
f 61/2/1 62/7/1 63/8/1 64/3/1
f 65/9/1 66/10/1 67/2/1 68/1/1
f 69/17/1 70/18/1 71/14/1 72/13/1
f 73/17/1 74/18/1 75/14/1 76/13/1
f 77/10/1 78/12/1 79/7/1 80/2/1
f 81/19/1 82/20/1 83/10/1 84/9/1
f 85/21/1 86/22/1 87/18/1 88/17/1
f 89/21/1 90/22/1 91/18/1 92/17/1
f 93/20/1 94/23/1 95/12/1 96/10/1
f 97/19/1 98/20/1 99/10/1 100/9/1
f 101/24/1 102/25/1 103/22/1 104/21/1
f 105/24/1 106/25/1 107/22/1 108/21/1
f 109/20/1 110/23/1 111/12/1 112/10/1
f 113/1/1 114/2/1 115/3/1 116/4/1
f 117/13/1 118/14/1 119/15/1 120/16/1
f 121/13/1 122/14/1 123/15/1 124/16/1
f 125/2/1 126/7/1 127/8/1 128/3/1
f 129/9/1 130/10/1 131/2/1 132/1/1
f 133/17/1 134/18/1 135/14/1 136/13/1
f 137/17/1 138/18/1 139/14/1 140/13/1
f 141/10/1 142/12/1 143/7/1 144/2/1
f 145/19/1 146/20/1 147/10/1 148/9/1
f 149/21/1 150/22/1 151/18/1 152/17/1
f 153/21/1 154/22/1 155/18/1 156/17/1
f 157/20/1 158/23/1 159/12/1 160/10/1
f 161/26/1 162/27/1 163/20/1 164/19/1
f 165/24/1 166/25/1 167/22/1 168/21/1
f 169/24/1 170/25/1 171/22/1 172/21/1
f 173/27/1 174/28/1 175/23/1 176/20/1

