# Tiled2Unity generated file. Do not modify by hand.
# Wavefront file for 'NewBadManor_mesh_0013.obj'

# Vertices (Count = 16)
v -33.92 -2.56 0
v -34.56 -2.56 0
v -34.56 -1.92 0
v -33.92 -1.92 0
v -34.56 -2.56 0
v -35.2 -2.56 0
v -35.2 -1.92 0
v -34.56 -1.92 0
v -35.2 -2.56 0
v -35.84 -2.56 0
v -35.84 -1.92 0
v -35.2 -1.92 0
v -35.84 -2.56 0
v -36.48 -2.56 0
v -36.48 -1.92 0
v -35.84 -1.92 0

# Texture cooridinates (Count = 4)
vt 0.3333333 0.03333336
vt 0.2916667 0.03333336
vt 0.2916667 0
vt 0.3333333 0

# Normal
vn 0 0 -1

# Mesh description
g NewBadManor_mesh_0013

# Faces
f 1/1/1 2/2/1 3/3/1 4/4/1
f 5/1/1 6/2/1 7/3/1 8/4/1
f 9/1/1 10/2/1 11/3/1 12/4/1
f 13/1/1 14/2/1 15/3/1 16/4/1

