# Tiled2Unity generated file. Do not modify by hand.
# Wavefront file for 'NewBadManor_mesh_0219.obj'

# Vertices (Count = 64)
v -0.96 -0.96 -0.01734104
v -1.28 -0.96 -0.01734104
v -1.28 -0.64 -0.01734104
v -0.96 -0.64 -0.01734104
v -1.28 -0.96 -0.01734104
v -1.6 -0.96 -0.01734104
v -1.6 -0.64 -0.01734104
v -1.28 -0.64 -0.01734104
v -0.96 -1.28 -0.02312139
v -1.28 -1.28 -0.02312139
v -1.28 -0.96 -0.02312139
v -0.96 -0.96 -0.02312139
v -1.28 -1.28 -0.02312139
v -1.6 -1.28 -0.02312139
v -1.6 -0.96 -0.02312139
v -1.28 -0.96 -0.02312139
v -0.96 -1.6 -0.02890173
v -1.28 -1.6 -0.02890173
v -1.28 -1.28 -0.02890173
v -0.96 -1.28 -0.02890173
v -1.28 -1.6 -0.02890173
v -1.6 -1.6 -0.02890173
v -1.6 -1.28 -0.02890173
v -1.28 -1.28 -0.02890173
v -0.96 -1.92 -0.03468208
v -1.28 -1.92 -0.03468208
v -1.28 -1.6 -0.03468208
v -0.96 -1.6 -0.03468208
v -1.28 -1.92 -0.03468208
v -1.6 -1.92 -0.03468208
v -1.6 -1.6 -0.03468208
v -1.28 -1.6 -0.03468208
v -0.96 -2.24 -0.04046243
v -1.28 -2.24 -0.04046243
v -1.28 -1.92 -0.04046243
v -0.96 -1.92 -0.04046243
v -1.28 -2.24 -0.04046243
v -1.6 -2.24 -0.04046243
v -1.6 -1.92 -0.04046243
v -1.28 -1.92 -0.04046243
v -0.96 -2.56 -0.04624277
v -1.28 -2.56 -0.04624277
v -1.28 -2.24 -0.04624277
v -0.96 -2.24 -0.04624277
v -1.28 -2.56 -0.04624277
v -1.6 -2.56 -0.04624277
v -1.6 -2.24 -0.04624277
v -1.28 -2.24 -0.04624277
v -0.96 -2.88 -0.05202312
v -1.28 -2.88 -0.05202312
v -1.28 -2.56 -0.05202312
v -0.96 -2.56 -0.05202312
v -1.28 -2.88 -0.05202312
v -1.6 -2.88 -0.05202312
v -1.6 -2.56 -0.05202312
v -1.28 -2.56 -0.05202312
v -0.96 -3.2 -0.05780347
v -1.28 -3.2 -0.05780347
v -1.28 -2.88 -0.05780347
v -0.96 -2.88 -0.05780347
v -1.28 -3.2 -0.05780347
v -1.6 -3.2 -0.05780347
v -1.6 -2.88 -0.05780347
v -1.28 -2.88 -0.05780347

# Texture cooridinates (Count = 12)
vt 0 0.375
vt 0.1 0.375
vt 0.1 0.5
vt 0 0.5
vt 0.2 0.375
vt 0.2 0.5
vt 0 0.25
vt 0.1 0.25
vt 0.2 0.25
vt 0 0.125
vt 0.1 0.125
vt 0.2 0.125

# Normal
vn 0 0 -1

# Mesh description
g NewBadManor_mesh_0219

# Faces
f 1/1/1 2/2/1 3/3/1 4/4/1
f 5/2/1 6/5/1 7/6/1 8/3/1
f 9/1/1 10/2/1 11/3/1 12/4/1
f 13/2/1 14/5/1 15/6/1 16/3/1
f 17/1/1 18/2/1 19/3/1 20/4/1
f 21/2/1 22/5/1 23/6/1 24/3/1
f 25/1/1 26/2/1 27/3/1 28/4/1
f 29/2/1 30/5/1 31/6/1 32/3/1
f 33/7/1 34/8/1 35/2/1 36/1/1
f 37/8/1 38/9/1 39/5/1 40/2/1
f 41/10/1 42/11/1 43/8/1 44/7/1
f 45/11/1 46/12/1 47/9/1 48/8/1
f 49/7/1 50/8/1 51/2/1 52/1/1
f 53/8/1 54/9/1 55/5/1 56/2/1
f 57/7/1 58/8/1 59/2/1 60/1/1
f 61/8/1 62/9/1 63/5/1 64/2/1

