# Tiled2Unity generated file. Do not modify by hand.
# Wavefront file for 'NewBadManor_mesh_0072.obj'

# Vertices (Count = 32)
v -13.44 -7.04 0
v -14.08 -7.04 0
v -14.08 -6.4 0
v -13.44 -6.4 0
v -14.08 -7.04 0
v -14.72 -7.04 0
v -14.72 -6.4 0
v -14.08 -6.4 0
v -14.72 -7.04 0
v -15.36 -7.04 0
v -15.36 -6.4 0
v -14.72 -6.4 0
v -40.96 -8.32 0
v -41.6 -8.32 0
v -41.6 -7.68 0
v -40.96 -7.68 0
v -31.36 -10.24 0
v -32 -10.24 0
v -32 -9.599999 0
v -31.36 -9.599999 0
v -32 -10.24 0
v -32.64 -10.24 0
v -32.64 -9.599999 0
v -32 -9.599999 0
v -32.64 -10.24 0
v -33.28 -10.24 0
v -33.28 -9.599999 0
v -32.64 -9.599999 0
v -58.88 -11.52 0
v -59.52 -11.52 0
v -59.52 -10.88 0
v -58.88 -10.88 0

# Texture cooridinates (Count = 9)
vt 0.6 0.75
vt 0.55 0.75
vt 0.55 0.7
vt 0.6 0.7
vt 0.5 0.75
vt 0.5 0.7
vt 0.6 0.8
vt 0.55 0.8
vt 0.5 0.8

# Normal
vn 0 0 -1

# Mesh description
g NewBadManor_mesh_0072

# Faces
f 1/1/1 2/2/1 3/3/1 4/4/1
f 5/2/1 6/5/1 7/6/1 8/3/1
f 9/1/1 10/2/1 11/3/1 12/4/1
f 13/2/1 14/5/1 15/6/1 16/3/1
f 17/7/1 18/8/1 19/2/1 20/1/1
f 21/8/1 22/9/1 23/5/1 24/2/1
f 25/7/1 26/8/1 27/2/1 28/1/1
f 29/8/1 30/9/1 31/5/1 32/2/1

