# Tiled2Unity generated file. Do not modify by hand.
# Wavefront file for 'NewBadManor_mesh_0097.obj'

# Vertices (Count = 384)
v -14.72 -1.92 0
v -15.36 -1.92 0
v -15.36 -1.28 0
v -14.72 -1.28 0
v -24.96 -1.92 0
v -25.6 -1.92 0
v -25.6 -1.28 0
v -24.96 -1.28 0
v -31.36 -1.92 0
v -32 -1.92 0
v -32 -1.28 0
v -31.36 -1.28 0
v -32 -1.92 0
v -32.64 -1.92 0
v -32.64 -1.28 0
v -32 -1.28 0
v -32.64 -1.92 0
v -33.28 -1.92 0
v -33.28 -1.28 0
v -32.64 -1.28 0
v -33.28 -1.92 0
v -33.92 -1.92 0
v -33.92 -1.28 0
v -33.28 -1.28 0
v -40.96 -3.2 0
v -41.6 -3.2 0
v -41.6 -2.56 0
v -40.96 -2.56 0
v -51.2 -3.2 0
v -51.84 -3.2 0
v -51.84 -2.56 0
v -51.2 -2.56 0
v -63.36 -3.2 0
v -64 -3.2 0
v -64 -2.56 0
v -63.36 -2.56 0
v 0 -3.84 0
v -0.64 -3.84 0
v -0.64 -3.2 0
v 0 -3.2 0
v -0.64 -3.84 0
v -1.28 -3.84 0
v -1.28 -3.2 0
v -0.64 -3.2 0
v -1.28 -3.84 0
v -1.92 -3.84 0
v -1.92 -3.2 0
v -1.28 -3.2 0
v -13.44 -3.84 0
v -14.08 -3.84 0
v -14.08 -3.2 0
v -13.44 -3.2 0
v -14.08 -3.84 0
v -14.72 -3.84 0
v -14.72 -3.2 0
v -14.08 -3.2 0
v -14.72 -3.84 0
v -15.36 -3.84 0
v -15.36 -3.2 0
v -14.72 -3.2 0
v -15.36 -3.84 0
v -16 -3.84 0
v -16 -3.2 0
v -15.36 -3.2 0
v -21.12 -4.48 0
v -21.76 -4.48 0
v -21.76 -3.84 0
v -21.12 -3.84 0
v -21.76 -4.48 0
v -22.4 -4.48 0
v -22.4 -3.84 0
v -21.76 -3.84 0
v -23.68 -4.48 0
v -24.32 -4.48 0
v -24.32 -3.84 0
v -23.68 -3.84 0
v -24.32 -4.48 0
v -24.96 -4.48 0
v -24.96 -3.84 0
v -24.32 -3.84 0
v -31.36 -4.48 0
v -32 -4.48 0
v -32 -3.84 0
v -31.36 -3.84 0
v -32 -4.48 0
v -32.64 -4.48 0
v -32.64 -3.84 0
v -32 -3.84 0
v -33.92 -4.48 0
v -34.56 -4.48 0
v -34.56 -3.84 0
v -33.92 -3.84 0
v -34.56 -4.48 0
v -35.2 -4.48 0
v -35.2 -3.84 0
v -34.56 -3.84 0
v -62.08 -4.48 0
v -62.72 -4.48 0
v -62.72 -3.84 0
v -62.08 -3.84 0
v -62.72 -4.48 0
v -63.36 -4.48 0
v -63.36 -3.84 0
v -62.72 -3.84 0
v -8.32 -5.12 0
v -8.96 -5.12 0
v -8.96 -4.48 0
v -8.32 -4.48 0
v -8.96 -5.12 0
v -9.599999 -5.12 0
v -9.599999 -4.48 0
v -8.96 -4.48 0
v -45.44 -5.12 0
v -46.08 -5.12 0
v -46.08 -4.48 0
v -45.44 -4.48 0
v -46.08 -5.12 0
v -46.72 -5.12 0
v -46.72 -4.48 0
v -46.08 -4.48 0
v -46.72 -5.12 0
v -47.36 -5.12 0
v -47.36 -4.48 0
v -46.72 -4.48 0
v -47.36 -5.12 0
v -48 -5.12 0
v -48 -4.48 0
v -47.36 -4.48 0
v -51.84 -5.76 0
v -52.48 -5.76 0
v -52.48 -5.12 0
v -51.84 -5.12 0
v -52.48 -5.76 0
v -53.12 -5.76 0
v -53.12 -5.12 0
v -52.48 -5.12 0
v -54.4 -5.76 0
v -55.04 -5.76 0
v -55.04 -5.12 0
v -54.4 -5.12 0
v -55.04 -5.76 0
v -55.68 -5.76 0
v -55.68 -5.12 0
v -55.04 -5.12 0
v -62.08 -5.76 0
v -62.72 -5.76 0
v -62.72 -5.12 0
v -62.08 -5.12 0
v -62.72 -5.76 0
v -63.36 -5.76 0
v -63.36 -5.12 0
v -62.72 -5.12 0
v -0.64 -6.4 0
v -1.28 -6.4 0
v -1.28 -5.76 0
v -0.64 -5.76 0
v -1.28 -6.4 0
v -1.92 -6.4 0
v -1.92 -5.76 0
v -1.28 -5.76 0
v -31.36 -6.4 0
v -32 -6.4 0
v -32 -5.76 0
v -31.36 -5.76 0
v -32 -6.4 0
v -32.64 -6.4 0
v -32.64 -5.76 0
v -32 -5.76 0
v -41.6 -6.4 0
v -42.24 -6.4 0
v -42.24 -5.76 0
v -41.6 -5.76 0
v -42.24 -6.4 0
v -42.88 -6.4 0
v -42.88 -5.76 0
v -42.24 -5.76 0
v -21.12 -7.04 0
v -21.76 -7.04 0
v -21.76 -6.4 0
v -21.12 -6.4 0
v -21.76 -7.04 0
v -22.4 -7.04 0
v -22.4 -6.4 0
v -21.76 -6.4 0
v -31.36 -7.04 0
v -32 -7.04 0
v -32 -6.4 0
v -31.36 -6.4 0
v -32 -7.04 0
v -32.64 -7.04 0
v -32.64 -6.4 0
v -32 -6.4 0
v -62.08 -7.04 0
v -62.72 -7.04 0
v -62.72 -6.4 0
v -62.08 -6.4 0
v -62.72 -7.04 0
v -63.36 -7.04 0
v -63.36 -6.4 0
v -62.72 -6.4 0
v -0.64 -7.68 0
v -1.28 -7.68 0
v -1.28 -7.04 0
v -0.64 -7.04 0
v -1.28 -7.68 0
v -1.92 -7.68 0
v -1.92 -7.04 0
v -1.28 -7.04 0
v -8.32 -7.68 0
v -8.96 -7.68 0
v -8.96 -7.04 0
v -8.32 -7.04 0
v -8.96 -7.68 0
v -9.599999 -7.68 0
v -9.599999 -7.04 0
v -8.96 -7.04 0
v -10.88 -7.68 0
v -11.52 -7.68 0
v -11.52 -7.04 0
v -10.88 -7.04 0
v -11.52 -7.68 0
v -12.16 -7.68 0
v -12.16 -7.04 0
v -11.52 -7.04 0
v -49.28 -7.68 0
v -49.92 -7.68 0
v -49.92 -7.04 0
v -49.28 -7.04 0
v -49.92 -7.68 0
v -50.56 -7.68 0
v -50.56 -7.04 0
v -49.92 -7.04 0
v -51.84 -7.68 0
v -52.48 -7.68 0
v -52.48 -7.04 0
v -51.84 -7.04 0
v -52.48 -7.68 0
v -53.12 -7.68 0
v -53.12 -7.04 0
v -52.48 -7.04 0
v -59.52 -7.68 0
v -60.16 -7.68 0
v -60.16 -7.04 0
v -59.52 -7.04 0
v -60.16 -7.68 0
v -60.8 -7.68 0
v -60.8 -7.04 0
v -60.16 -7.04 0
v -62.08 -7.68 0
v -62.72 -7.68 0
v -62.72 -7.04 0
v -62.08 -7.04 0
v -62.72 -7.68 0
v -63.36 -7.68 0
v -63.36 -7.04 0
v -62.72 -7.04 0
v -26.24 -8.32 0
v -26.88 -8.32 0
v -26.88 -7.68 0
v -26.24 -7.68 0
v -26.88 -8.32 0
v -27.52 -8.32 0
v -27.52 -7.68 0
v -26.88 -7.68 0
v -36.48 -8.32 0
v -37.12 -8.32 0
v -37.12 -7.68 0
v -36.48 -7.68 0
v -37.12 -8.32 0
v -37.76 -8.32 0
v -37.76 -7.68 0
v -37.12 -7.68 0
v -40.32 -8.32 0
v -40.96 -8.32 0
v -40.96 -7.68 0
v -40.32 -7.68 0
v -50.56 -8.32 0
v -51.2 -8.32 0
v -51.2 -7.68 0
v -50.56 -7.68 0
v -54.4 -8.32 0
v -55.04 -8.32 0
v -55.04 -7.68 0
v -54.4 -7.68 0
v -55.04 -8.32 0
v -55.68 -8.32 0
v -55.68 -7.68 0
v -55.04 -7.68 0
v -0.64 -8.96 0
v -1.28 -8.96 0
v -1.28 -8.32 0
v -0.64 -8.32 0
v -1.28 -8.96 0
v -1.92 -8.96 0
v -1.92 -8.32 0
v -1.28 -8.32 0
v -30.08 -8.96 0
v -30.72 -8.96 0
v -30.72 -8.32 0
v -30.08 -8.32 0
v -30.72 -8.96 0
v -31.36 -8.96 0
v -31.36 -8.32 0
v -30.72 -8.32 0
v -40.32 -8.96 0
v -40.96 -8.96 0
v -40.96 -8.32 0
v -40.32 -8.32 0
v -40.96 -8.96 0
v -41.6 -8.96 0
v -41.6 -8.32 0
v -40.96 -8.32 0
v -17.28 -9.599999 0
v -17.92 -9.599999 0
v -17.92 -8.96 0
v -17.28 -8.96 0
v -17.92 -9.599999 0
v -18.56 -9.599999 0
v -18.56 -8.96 0
v -17.92 -8.96 0
v -27.52 -9.599999 0
v -28.16 -9.599999 0
v -28.16 -8.96 0
v -27.52 -8.96 0
v -28.16 -9.599999 0
v -28.8 -9.599999 0
v -28.8 -8.96 0
v -28.16 -8.96 0
v -59.52 -9.599999 0
v -60.16 -9.599999 0
v -60.16 -8.96 0
v -59.52 -8.96 0
v -60.16 -9.599999 0
v -60.8 -9.599999 0
v -60.8 -8.96 0
v -60.16 -8.96 0
v -2.56 -10.24 0
v -3.2 -10.24 0
v -3.2 -9.599999 0
v -2.56 -9.599999 0
v -5.76 -10.24 0
v -6.4 -10.24 0
v -6.4 -9.599999 0
v -5.76 -9.599999 0
v -6.4 -10.24 0
v -7.04 -10.24 0
v -7.04 -9.599999 0
v -6.4 -9.599999 0
v -12.8 -10.24 0
v -13.44 -10.24 0
v -13.44 -9.599999 0
v -12.8 -9.599999 0
v -49.28 -10.24 0
v -49.92 -10.24 0
v -49.92 -9.599999 0
v -49.28 -9.599999 0
v -49.92 -10.24 0
v -50.56 -10.24 0
v -50.56 -9.599999 0
v -49.92 -9.599999 0
v -59.52 -10.24 0
v -60.16 -10.24 0
v -60.16 -9.599999 0
v -59.52 -9.599999 0
v -60.16 -10.24 0
v -60.8 -10.24 0
v -60.8 -9.599999 0
v -60.16 -9.599999 0
v -18.56 -12.16 0
v -19.2 -12.16 0
v -19.2 -11.52 0
v -18.56 -11.52 0
v -19.2 -12.16 0
v -19.84 -12.16 0
v -19.84 -11.52 0
v -19.2 -11.52 0
v -28.8 -12.16 0
v -29.44 -12.16 0
v -29.44 -11.52 0
v -28.8 -11.52 0
v -29.44 -12.16 0
v -30.08 -12.16 0
v -30.08 -11.52 0
v -29.44 -11.52 0

# Texture cooridinates (Count = 16)
vt 0.1 0.35
vt 0.15 0.35
vt 0.15 0.4
vt 0.1 0.4
vt 0.1 0.1
vt 0.15 0.1
vt 0.15 0.15
vt 0.1 0.15
vt 0.35 0.35
vt 0.4 0.35
vt 0.4 0.4
vt 0.35 0.4
vt 0.35 0.1
vt 0.4 0.1
vt 0.4 0.15
vt 0.35 0.15

# Normal
vn 0 0 -1

# Mesh description
g NewBadManor_mesh_0097

# Faces
f 1/1/1 2/2/1 3/3/1 4/4/1
f 5/5/1 6/6/1 7/7/1 8/8/1
f 9/1/1 10/2/1 11/3/1 12/4/1
f 13/9/1 14/10/1 15/11/1 16/12/1
f 17/1/1 18/2/1 19/3/1 20/4/1
f 21/9/1 22/10/1 23/11/1 24/12/1
f 25/9/1 26/10/1 27/11/1 28/12/1
f 29/13/1 30/14/1 31/15/1 32/16/1
f 33/1/1 34/2/1 35/3/1 36/4/1
f 37/9/1 38/10/1 39/11/1 40/12/1
f 41/1/1 42/2/1 43/3/1 44/4/1
f 45/9/1 46/10/1 47/11/1 48/12/1
f 49/5/1 50/6/1 51/7/1 52/8/1
f 53/13/1 54/14/1 55/15/1 56/16/1
f 57/5/1 58/6/1 59/7/1 60/8/1
f 61/13/1 62/14/1 63/15/1 64/16/1
f 65/1/1 66/2/1 67/3/1 68/4/1
f 69/9/1 70/10/1 71/11/1 72/12/1
f 73/1/1 74/2/1 75/3/1 76/4/1
f 77/9/1 78/10/1 79/11/1 80/12/1
f 81/5/1 82/6/1 83/7/1 84/8/1
f 85/13/1 86/14/1 87/15/1 88/16/1
f 89/5/1 90/6/1 91/7/1 92/8/1
f 93/13/1 94/14/1 95/15/1 96/16/1
f 97/1/1 98/2/1 99/3/1 100/4/1
f 101/9/1 102/10/1 103/11/1 104/12/1
f 105/5/1 106/6/1 107/7/1 108/8/1
f 109/13/1 110/14/1 111/15/1 112/16/1
f 113/5/1 114/6/1 115/7/1 116/8/1
f 117/13/1 118/14/1 119/15/1 120/16/1
f 121/5/1 122/6/1 123/7/1 124/8/1
f 125/13/1 126/14/1 127/15/1 128/16/1
f 129/1/1 130/2/1 131/3/1 132/4/1
f 133/9/1 134/10/1 135/11/1 136/12/1
f 137/1/1 138/2/1 139/3/1 140/4/1
f 141/9/1 142/10/1 143/11/1 144/12/1
f 145/5/1 146/6/1 147/7/1 148/8/1
f 149/13/1 150/14/1 151/15/1 152/16/1
f 153/5/1 154/6/1 155/7/1 156/8/1
f 157/13/1 158/14/1 159/15/1 160/16/1
f 161/1/1 162/2/1 163/3/1 164/4/1
f 165/9/1 166/10/1 167/11/1 168/12/1
f 169/5/1 170/6/1 171/7/1 172/8/1
f 173/13/1 174/14/1 175/15/1 176/16/1
f 177/1/1 178/2/1 179/3/1 180/4/1
f 181/9/1 182/10/1 183/11/1 184/12/1
f 185/5/1 186/6/1 187/7/1 188/8/1
f 189/13/1 190/14/1 191/15/1 192/16/1
f 193/1/1 194/2/1 195/3/1 196/4/1
f 197/9/1 198/10/1 199/11/1 200/12/1
f 201/1/1 202/2/1 203/3/1 204/4/1
f 205/9/1 206/10/1 207/11/1 208/12/1
f 209/5/1 210/6/1 211/7/1 212/8/1
f 213/13/1 214/14/1 215/15/1 216/16/1
f 217/5/1 218/6/1 219/7/1 220/8/1
f 221/13/1 222/14/1 223/15/1 224/16/1
f 225/1/1 226/2/1 227/3/1 228/4/1
f 229/9/1 230/10/1 231/11/1 232/12/1
f 233/1/1 234/2/1 235/3/1 236/4/1
f 237/9/1 238/10/1 239/11/1 240/12/1
f 241/5/1 242/6/1 243/7/1 244/8/1
f 245/13/1 246/14/1 247/15/1 248/16/1
f 249/5/1 250/6/1 251/7/1 252/8/1
f 253/13/1 254/14/1 255/15/1 256/16/1
f 257/1/1 258/2/1 259/3/1 260/4/1
f 261/9/1 262/10/1 263/11/1 264/12/1
f 265/5/1 266/6/1 267/7/1 268/8/1
f 269/13/1 270/14/1 271/15/1 272/16/1
f 273/1/1 274/2/1 275/3/1 276/4/1
f 277/5/1 278/6/1 279/7/1 280/8/1
f 281/1/1 282/2/1 283/3/1 284/4/1
f 285/9/1 286/10/1 287/11/1 288/12/1
f 289/5/1 290/6/1 291/7/1 292/8/1
f 293/13/1 294/14/1 295/15/1 296/16/1
f 297/1/1 298/2/1 299/3/1 300/4/1
f 301/9/1 302/10/1 303/11/1 304/12/1
f 305/5/1 306/6/1 307/7/1 308/8/1
f 309/13/1 310/14/1 311/15/1 312/16/1
f 313/1/1 314/2/1 315/3/1 316/4/1
f 317/9/1 318/10/1 319/11/1 320/12/1
f 321/5/1 322/6/1 323/7/1 324/8/1
f 325/13/1 326/14/1 327/15/1 328/16/1
f 329/1/1 330/2/1 331/3/1 332/4/1
f 333/9/1 334/10/1 335/11/1 336/12/1
f 337/9/1 338/10/1 339/11/1 340/12/1
f 341/5/1 342/6/1 343/7/1 344/8/1
f 345/13/1 346/14/1 347/15/1 348/16/1
f 349/13/1 350/14/1 351/15/1 352/16/1
f 353/1/1 354/2/1 355/3/1 356/4/1
f 357/9/1 358/10/1 359/11/1 360/12/1
f 361/5/1 362/6/1 363/7/1 364/8/1
f 365/13/1 366/14/1 367/15/1 368/16/1
f 369/1/1 370/2/1 371/3/1 372/4/1
f 373/9/1 374/10/1 375/11/1 376/12/1
f 377/5/1 378/6/1 379/7/1 380/8/1
f 381/13/1 382/14/1 383/15/1 384/16/1

