# Tiled2Unity generated file. Do not modify by hand.
# Wavefront file for 'NewBadManor_mesh_0369.obj'

# Vertices (Count = 512)
v 0 -0.64 -0.01156069
v -0.32 -0.64 -0.01156069
v -0.32 -0.32 -0.01156069
v 0 -0.32 -0.01156069
v -0.32 -0.64 -0.01156069
v -0.64 -0.64 -0.01156069
v -0.64 -0.32 -0.01156069
v -0.32 -0.32 -0.01156069
v -0.64 -0.64 -0.01156069
v -0.96 -0.64 -0.01156069
v -0.96 -0.32 -0.01156069
v -0.64 -0.32 -0.01156069
v -0.96 -0.64 -0.01156069
v -1.28 -0.64 -0.01156069
v -1.28 -0.32 -0.01156069
v -0.96 -0.32 -0.01156069
v -1.28 -0.64 -0.01156069
v -1.6 -0.64 -0.01156069
v -1.6 -0.32 -0.01156069
v -1.28 -0.32 -0.01156069
v -1.6 -0.64 -0.01156069
v -1.92 -0.64 -0.01156069
v -1.92 -0.32 -0.01156069
v -1.6 -0.32 -0.01156069
v -1.92 -0.64 -0.01156069
v -2.24 -0.64 -0.01156069
v -2.24 -0.32 -0.01156069
v -1.92 -0.32 -0.01156069
v -2.24 -0.64 -0.01156069
v -2.56 -0.64 -0.01156069
v -2.56 -0.32 -0.01156069
v -2.24 -0.32 -0.01156069
v -2.56 -0.64 -0.01156069
v -2.88 -0.64 -0.01156069
v -2.88 -0.32 -0.01156069
v -2.56 -0.32 -0.01156069
v -2.88 -0.64 -0.01156069
v -3.2 -0.64 -0.01156069
v -3.2 -0.32 -0.01156069
v -2.88 -0.32 -0.01156069
v -3.2 -0.64 -0.01156069
v -3.52 -0.64 -0.01156069
v -3.52 -0.32 -0.01156069
v -3.2 -0.32 -0.01156069
v -3.52 -0.64 -0.01156069
v -3.84 -0.64 -0.01156069
v -3.84 -0.32 -0.01156069
v -3.52 -0.32 -0.01156069
v -3.84 -0.64 -0.01156069
v -4.16 -0.64 -0.01156069
v -4.16 -0.32 -0.01156069
v -3.84 -0.32 -0.01156069
v -4.16 -0.64 -0.01156069
v -4.48 -0.64 -0.01156069
v -4.48 -0.32 -0.01156069
v -4.16 -0.32 -0.01156069
v -4.48 -0.64 -0.01156069
v -4.8 -0.64 -0.01156069
v -4.8 -0.32 -0.01156069
v -4.48 -0.32 -0.01156069
v -4.8 -0.64 -0.01156069
v -5.12 -0.64 -0.01156069
v -5.12 -0.32 -0.01156069
v -4.8 -0.32 -0.01156069
v 0 -0.96 -0.01734104
v -0.32 -0.96 -0.01734104
v -0.32 -0.64 -0.01734104
v 0 -0.64 -0.01734104
v -0.32 -0.96 -0.01734104
v -0.64 -0.96 -0.01734104
v -0.64 -0.64 -0.01734104
v -0.32 -0.64 -0.01734104
v -0.64 -0.96 -0.01734104
v -0.96 -0.96 -0.01734104
v -0.96 -0.64 -0.01734104
v -0.64 -0.64 -0.01734104
v -0.96 -0.96 -0.01734104
v -1.28 -0.96 -0.01734104
v -1.28 -0.64 -0.01734104
v -0.96 -0.64 -0.01734104
v -1.28 -0.96 -0.01734104
v -1.6 -0.96 -0.01734104
v -1.6 -0.64 -0.01734104
v -1.28 -0.64 -0.01734104
v -1.6 -0.96 -0.01734104
v -1.92 -0.96 -0.01734104
v -1.92 -0.64 -0.01734104
v -1.6 -0.64 -0.01734104
v -1.92 -0.96 -0.01734104
v -2.24 -0.96 -0.01734104
v -2.24 -0.64 -0.01734104
v -1.92 -0.64 -0.01734104
v -2.24 -0.96 -0.01734104
v -2.56 -0.96 -0.01734104
v -2.56 -0.64 -0.01734104
v -2.24 -0.64 -0.01734104
v -2.56 -0.96 -0.01734104
v -2.88 -0.96 -0.01734104
v -2.88 -0.64 -0.01734104
v -2.56 -0.64 -0.01734104
v -2.88 -0.96 -0.01734104
v -3.2 -0.96 -0.01734104
v -3.2 -0.64 -0.01734104
v -2.88 -0.64 -0.01734104
v -3.2 -0.96 -0.01734104
v -3.52 -0.96 -0.01734104
v -3.52 -0.64 -0.01734104
v -3.2 -0.64 -0.01734104
v -3.52 -0.96 -0.01734104
v -3.84 -0.96 -0.01734104
v -3.84 -0.64 -0.01734104
v -3.52 -0.64 -0.01734104
v -3.84 -0.96 -0.01734104
v -4.16 -0.96 -0.01734104
v -4.16 -0.64 -0.01734104
v -3.84 -0.64 -0.01734104
v -4.16 -0.96 -0.01734104
v -4.48 -0.96 -0.01734104
v -4.48 -0.64 -0.01734104
v -4.16 -0.64 -0.01734104
v -4.48 -0.96 -0.01734104
v -4.8 -0.96 -0.01734104
v -4.8 -0.64 -0.01734104
v -4.48 -0.64 -0.01734104
v -4.8 -0.96 -0.01734104
v -5.12 -0.96 -0.01734104
v -5.12 -0.64 -0.01734104
v -4.8 -0.64 -0.01734104
v 0 -1.28 -0.02312139
v -0.32 -1.28 -0.02312139
v -0.32 -0.96 -0.02312139
v 0 -0.96 -0.02312139
v -0.32 -1.28 -0.02312139
v -0.64 -1.28 -0.02312139
v -0.64 -0.96 -0.02312139
v -0.32 -0.96 -0.02312139
v -0.64 -1.28 -0.02312139
v -0.96 -1.28 -0.02312139
v -0.96 -0.96 -0.02312139
v -0.64 -0.96 -0.02312139
v -0.96 -1.28 -0.02312139
v -1.28 -1.28 -0.02312139
v -1.28 -0.96 -0.02312139
v -0.96 -0.96 -0.02312139
v -1.28 -1.28 -0.02312139
v -1.6 -1.28 -0.02312139
v -1.6 -0.96 -0.02312139
v -1.28 -0.96 -0.02312139
v -1.6 -1.28 -0.02312139
v -1.92 -1.28 -0.02312139
v -1.92 -0.96 -0.02312139
v -1.6 -0.96 -0.02312139
v -1.92 -1.28 -0.02312139
v -2.24 -1.28 -0.02312139
v -2.24 -0.96 -0.02312139
v -1.92 -0.96 -0.02312139
v -2.24 -1.28 -0.02312139
v -2.56 -1.28 -0.02312139
v -2.56 -0.96 -0.02312139
v -2.24 -0.96 -0.02312139
v -2.56 -1.28 -0.02312139
v -2.88 -1.28 -0.02312139
v -2.88 -0.96 -0.02312139
v -2.56 -0.96 -0.02312139
v -2.88 -1.28 -0.02312139
v -3.2 -1.28 -0.02312139
v -3.2 -0.96 -0.02312139
v -2.88 -0.96 -0.02312139
v -3.2 -1.28 -0.02312139
v -3.52 -1.28 -0.02312139
v -3.52 -0.96 -0.02312139
v -3.2 -0.96 -0.02312139
v -3.52 -1.28 -0.02312139
v -3.84 -1.28 -0.02312139
v -3.84 -0.96 -0.02312139
v -3.52 -0.96 -0.02312139
v -3.84 -1.28 -0.02312139
v -4.16 -1.28 -0.02312139
v -4.16 -0.96 -0.02312139
v -3.84 -0.96 -0.02312139
v -4.16 -1.28 -0.02312139
v -4.48 -1.28 -0.02312139
v -4.48 -0.96 -0.02312139
v -4.16 -0.96 -0.02312139
v -4.48 -1.28 -0.02312139
v -4.8 -1.28 -0.02312139
v -4.8 -0.96 -0.02312139
v -4.48 -0.96 -0.02312139
v -4.8 -1.28 -0.02312139
v -5.12 -1.28 -0.02312139
v -5.12 -0.96 -0.02312139
v -4.8 -0.96 -0.02312139
v 0 -1.6 -0.02890173
v -0.32 -1.6 -0.02890173
v -0.32 -1.28 -0.02890173
v 0 -1.28 -0.02890173
v -0.32 -1.6 -0.02890173
v -0.64 -1.6 -0.02890173
v -0.64 -1.28 -0.02890173
v -0.32 -1.28 -0.02890173
v -0.64 -1.6 -0.02890173
v -0.96 -1.6 -0.02890173
v -0.96 -1.28 -0.02890173
v -0.64 -1.28 -0.02890173
v -0.96 -1.6 -0.02890173
v -1.28 -1.6 -0.02890173
v -1.28 -1.28 -0.02890173
v -0.96 -1.28 -0.02890173
v -1.28 -1.6 -0.02890173
v -1.6 -1.6 -0.02890173
v -1.6 -1.28 -0.02890173
v -1.28 -1.28 -0.02890173
v -1.6 -1.6 -0.02890173
v -1.92 -1.6 -0.02890173
v -1.92 -1.28 -0.02890173
v -1.6 -1.28 -0.02890173
v -1.92 -1.6 -0.02890173
v -2.24 -1.6 -0.02890173
v -2.24 -1.28 -0.02890173
v -1.92 -1.28 -0.02890173
v -2.24 -1.6 -0.02890173
v -2.56 -1.6 -0.02890173
v -2.56 -1.28 -0.02890173
v -2.24 -1.28 -0.02890173
v -2.56 -1.6 -0.02890173
v -2.88 -1.6 -0.02890173
v -2.88 -1.28 -0.02890173
v -2.56 -1.28 -0.02890173
v -2.88 -1.6 -0.02890173
v -3.2 -1.6 -0.02890173
v -3.2 -1.28 -0.02890173
v -2.88 -1.28 -0.02890173
v -3.2 -1.6 -0.02890173
v -3.52 -1.6 -0.02890173
v -3.52 -1.28 -0.02890173
v -3.2 -1.28 -0.02890173
v -3.52 -1.6 -0.02890173
v -3.84 -1.6 -0.02890173
v -3.84 -1.28 -0.02890173
v -3.52 -1.28 -0.02890173
v -3.84 -1.6 -0.02890173
v -4.16 -1.6 -0.02890173
v -4.16 -1.28 -0.02890173
v -3.84 -1.28 -0.02890173
v -4.16 -1.6 -0.02890173
v -4.48 -1.6 -0.02890173
v -4.48 -1.28 -0.02890173
v -4.16 -1.28 -0.02890173
v -4.48 -1.6 -0.02890173
v -4.8 -1.6 -0.02890173
v -4.8 -1.28 -0.02890173
v -4.48 -1.28 -0.02890173
v -4.8 -1.6 -0.02890173
v -5.12 -1.6 -0.02890173
v -5.12 -1.28 -0.02890173
v -4.8 -1.28 -0.02890173
v 0 -1.92 -0.03468208
v -0.32 -1.92 -0.03468208
v -0.32 -1.6 -0.03468208
v 0 -1.6 -0.03468208
v -0.32 -1.92 -0.03468208
v -0.64 -1.92 -0.03468208
v -0.64 -1.6 -0.03468208
v -0.32 -1.6 -0.03468208
v -0.64 -1.92 -0.03468208
v -0.96 -1.92 -0.03468208
v -0.96 -1.6 -0.03468208
v -0.64 -1.6 -0.03468208
v -0.96 -1.92 -0.03468208
v -1.28 -1.92 -0.03468208
v -1.28 -1.6 -0.03468208
v -0.96 -1.6 -0.03468208
v -1.28 -1.92 -0.03468208
v -1.6 -1.92 -0.03468208
v -1.6 -1.6 -0.03468208
v -1.28 -1.6 -0.03468208
v -1.6 -1.92 -0.03468208
v -1.92 -1.92 -0.03468208
v -1.92 -1.6 -0.03468208
v -1.6 -1.6 -0.03468208
v -1.92 -1.92 -0.03468208
v -2.24 -1.92 -0.03468208
v -2.24 -1.6 -0.03468208
v -1.92 -1.6 -0.03468208
v -2.24 -1.92 -0.03468208
v -2.56 -1.92 -0.03468208
v -2.56 -1.6 -0.03468208
v -2.24 -1.6 -0.03468208
v -2.56 -1.92 -0.03468208
v -2.88 -1.92 -0.03468208
v -2.88 -1.6 -0.03468208
v -2.56 -1.6 -0.03468208
v -2.88 -1.92 -0.03468208
v -3.2 -1.92 -0.03468208
v -3.2 -1.6 -0.03468208
v -2.88 -1.6 -0.03468208
v -3.2 -1.92 -0.03468208
v -3.52 -1.92 -0.03468208
v -3.52 -1.6 -0.03468208
v -3.2 -1.6 -0.03468208
v -3.52 -1.92 -0.03468208
v -3.84 -1.92 -0.03468208
v -3.84 -1.6 -0.03468208
v -3.52 -1.6 -0.03468208
v -3.84 -1.92 -0.03468208
v -4.16 -1.92 -0.03468208
v -4.16 -1.6 -0.03468208
v -3.84 -1.6 -0.03468208
v -4.16 -1.92 -0.03468208
v -4.48 -1.92 -0.03468208
v -4.48 -1.6 -0.03468208
v -4.16 -1.6 -0.03468208
v -4.48 -1.92 -0.03468208
v -4.8 -1.92 -0.03468208
v -4.8 -1.6 -0.03468208
v -4.48 -1.6 -0.03468208
v -4.8 -1.92 -0.03468208
v -5.12 -1.92 -0.03468208
v -5.12 -1.6 -0.03468208
v -4.8 -1.6 -0.03468208
v 0 -2.24 -0.04046243
v -0.32 -2.24 -0.04046243
v -0.32 -1.92 -0.04046243
v 0 -1.92 -0.04046243
v -0.32 -2.24 -0.04046243
v -0.64 -2.24 -0.04046243
v -0.64 -1.92 -0.04046243
v -0.32 -1.92 -0.04046243
v -0.64 -2.24 -0.04046243
v -0.96 -2.24 -0.04046243
v -0.96 -1.92 -0.04046243
v -0.64 -1.92 -0.04046243
v -0.96 -2.24 -0.04046243
v -1.28 -2.24 -0.04046243
v -1.28 -1.92 -0.04046243
v -0.96 -1.92 -0.04046243
v -1.28 -2.24 -0.04046243
v -1.6 -2.24 -0.04046243
v -1.6 -1.92 -0.04046243
v -1.28 -1.92 -0.04046243
v -1.6 -2.24 -0.04046243
v -1.92 -2.24 -0.04046243
v -1.92 -1.92 -0.04046243
v -1.6 -1.92 -0.04046243
v -1.92 -2.24 -0.04046243
v -2.24 -2.24 -0.04046243
v -2.24 -1.92 -0.04046243
v -1.92 -1.92 -0.04046243
v -2.24 -2.24 -0.04046243
v -2.56 -2.24 -0.04046243
v -2.56 -1.92 -0.04046243
v -2.24 -1.92 -0.04046243
v -2.56 -2.24 -0.04046243
v -2.88 -2.24 -0.04046243
v -2.88 -1.92 -0.04046243
v -2.56 -1.92 -0.04046243
v -2.88 -2.24 -0.04046243
v -3.2 -2.24 -0.04046243
v -3.2 -1.92 -0.04046243
v -2.88 -1.92 -0.04046243
v -3.2 -2.24 -0.04046243
v -3.52 -2.24 -0.04046243
v -3.52 -1.92 -0.04046243
v -3.2 -1.92 -0.04046243
v -3.52 -2.24 -0.04046243
v -3.84 -2.24 -0.04046243
v -3.84 -1.92 -0.04046243
v -3.52 -1.92 -0.04046243
v -3.84 -2.24 -0.04046243
v -4.16 -2.24 -0.04046243
v -4.16 -1.92 -0.04046243
v -3.84 -1.92 -0.04046243
v -4.16 -2.24 -0.04046243
v -4.48 -2.24 -0.04046243
v -4.48 -1.92 -0.04046243
v -4.16 -1.92 -0.04046243
v -4.48 -2.24 -0.04046243
v -4.8 -2.24 -0.04046243
v -4.8 -1.92 -0.04046243
v -4.48 -1.92 -0.04046243
v -4.8 -2.24 -0.04046243
v -5.12 -2.24 -0.04046243
v -5.12 -1.92 -0.04046243
v -4.8 -1.92 -0.04046243
v 0 -2.56 -0.04624277
v -0.32 -2.56 -0.04624277
v -0.32 -2.24 -0.04624277
v 0 -2.24 -0.04624277
v -0.32 -2.56 -0.04624277
v -0.64 -2.56 -0.04624277
v -0.64 -2.24 -0.04624277
v -0.32 -2.24 -0.04624277
v -0.64 -2.56 -0.04624277
v -0.96 -2.56 -0.04624277
v -0.96 -2.24 -0.04624277
v -0.64 -2.24 -0.04624277
v -0.96 -2.56 -0.04624277
v -1.28 -2.56 -0.04624277
v -1.28 -2.24 -0.04624277
v -0.96 -2.24 -0.04624277
v -1.28 -2.56 -0.04624277
v -1.6 -2.56 -0.04624277
v -1.6 -2.24 -0.04624277
v -1.28 -2.24 -0.04624277
v -1.6 -2.56 -0.04624277
v -1.92 -2.56 -0.04624277
v -1.92 -2.24 -0.04624277
v -1.6 -2.24 -0.04624277
v -1.92 -2.56 -0.04624277
v -2.24 -2.56 -0.04624277
v -2.24 -2.24 -0.04624277
v -1.92 -2.24 -0.04624277
v -2.24 -2.56 -0.04624277
v -2.56 -2.56 -0.04624277
v -2.56 -2.24 -0.04624277
v -2.24 -2.24 -0.04624277
v -2.56 -2.56 -0.04624277
v -2.88 -2.56 -0.04624277
v -2.88 -2.24 -0.04624277
v -2.56 -2.24 -0.04624277
v -2.88 -2.56 -0.04624277
v -3.2 -2.56 -0.04624277
v -3.2 -2.24 -0.04624277
v -2.88 -2.24 -0.04624277
v -3.2 -2.56 -0.04624277
v -3.52 -2.56 -0.04624277
v -3.52 -2.24 -0.04624277
v -3.2 -2.24 -0.04624277
v -3.52 -2.56 -0.04624277
v -3.84 -2.56 -0.04624277
v -3.84 -2.24 -0.04624277
v -3.52 -2.24 -0.04624277
v -3.84 -2.56 -0.04624277
v -4.16 -2.56 -0.04624277
v -4.16 -2.24 -0.04624277
v -3.84 -2.24 -0.04624277
v -4.16 -2.56 -0.04624277
v -4.48 -2.56 -0.04624277
v -4.48 -2.24 -0.04624277
v -4.16 -2.24 -0.04624277
v -4.48 -2.56 -0.04624277
v -4.8 -2.56 -0.04624277
v -4.8 -2.24 -0.04624277
v -4.48 -2.24 -0.04624277
v -4.8 -2.56 -0.04624277
v -5.12 -2.56 -0.04624277
v -5.12 -2.24 -0.04624277
v -4.8 -2.24 -0.04624277
v 0 -2.88 -0.05202312
v -0.32 -2.88 -0.05202312
v -0.32 -2.56 -0.05202312
v 0 -2.56 -0.05202312
v -0.32 -2.88 -0.05202312
v -0.64 -2.88 -0.05202312
v -0.64 -2.56 -0.05202312
v -0.32 -2.56 -0.05202312
v -0.64 -2.88 -0.05202312
v -0.96 -2.88 -0.05202312
v -0.96 -2.56 -0.05202312
v -0.64 -2.56 -0.05202312
v -0.96 -2.88 -0.05202312
v -1.28 -2.88 -0.05202312
v -1.28 -2.56 -0.05202312
v -0.96 -2.56 -0.05202312
v -1.28 -2.88 -0.05202312
v -1.6 -2.88 -0.05202312
v -1.6 -2.56 -0.05202312
v -1.28 -2.56 -0.05202312
v -1.6 -2.88 -0.05202312
v -1.92 -2.88 -0.05202312
v -1.92 -2.56 -0.05202312
v -1.6 -2.56 -0.05202312
v -1.92 -2.88 -0.05202312
v -2.24 -2.88 -0.05202312
v -2.24 -2.56 -0.05202312
v -1.92 -2.56 -0.05202312
v -2.24 -2.88 -0.05202312
v -2.56 -2.88 -0.05202312
v -2.56 -2.56 -0.05202312
v -2.24 -2.56 -0.05202312
v -2.56 -2.88 -0.05202312
v -2.88 -2.88 -0.05202312
v -2.88 -2.56 -0.05202312
v -2.56 -2.56 -0.05202312
v -2.88 -2.88 -0.05202312
v -3.2 -2.88 -0.05202312
v -3.2 -2.56 -0.05202312
v -2.88 -2.56 -0.05202312
v -3.2 -2.88 -0.05202312
v -3.52 -2.88 -0.05202312
v -3.52 -2.56 -0.05202312
v -3.2 -2.56 -0.05202312
v -3.52 -2.88 -0.05202312
v -3.84 -2.88 -0.05202312
v -3.84 -2.56 -0.05202312
v -3.52 -2.56 -0.05202312
v -3.84 -2.88 -0.05202312
v -4.16 -2.88 -0.05202312
v -4.16 -2.56 -0.05202312
v -3.84 -2.56 -0.05202312
v -4.16 -2.88 -0.05202312
v -4.48 -2.88 -0.05202312
v -4.48 -2.56 -0.05202312
v -4.16 -2.56 -0.05202312
v -4.48 -2.88 -0.05202312
v -4.8 -2.88 -0.05202312
v -4.8 -2.56 -0.05202312
v -4.48 -2.56 -0.05202312
v -4.8 -2.88 -0.05202312
v -5.12 -2.88 -0.05202312
v -5.12 -2.56 -0.05202312
v -4.8 -2.56 -0.05202312

# Texture cooridinates (Count = 78)
vt 0.04166667 0.5666667
vt 0.08333334 0.5666667
vt 0.08333334 0.6
vt 0.04166667 0.6
vt 0 0.5666667
vt 0 0.6
vt 0.125 0.5666667
vt 0.125 0.6
vt 0.1666667 0.5666667
vt 0.1666667 0.6
vt 0.2083333 0.5666667
vt 0.2083333 0.6
vt 0.25 0.5666667
vt 0.25 0.6
vt 0.2916667 0.5666667
vt 0.2916667 0.6
vt 0.3333333 0.5666667
vt 0.3333333 0.6
vt 0.04166667 0.5333333
vt 0.08333334 0.5333333
vt 0 0.5333333
vt 0.125 0.5333333
vt 0.1666667 0.5333333
vt 0.2083333 0.5333333
vt 0.25 0.5333333
vt 0.2916667 0.5333333
vt 0.3333333 0.5333333
vt 0 0.4333333
vt 0.04166667 0.4333333
vt 0.04166667 0.4666666
vt 0 0.4666666
vt 0 0.5
vt 0.04166667 0.5
vt 0.08333334 0.5
vt 0.08333334 0.4333333
vt 0.08333334 0.4666666
vt 0.125 0.5
vt 0.1666667 0.5
vt 0.2083333 0.5
vt 0.25 0.5
vt 0.2916667 0.5
vt 0.3333333 0.5
vt 0 0.4
vt 0.04166667 0.4
vt 0.08333334 0.4
vt 0.125 0.4666666
vt 0.1666667 0.4666666
vt 0.2083333 0.4666666
vt 0.25 0.4666666
vt 0.2916667 0.4666666
vt 0.3333333 0.4666666
vt 0.125 0.4333333
vt 0.1666667 0.4333333
vt 0.2083333 0.4333333
vt 0.25 0.4333333
vt 0.2916667 0.4333333
vt 0.3333333 0.4333333
vt 0.125 0.4
vt 0.1666667 0.4
vt 0.25 0.4
vt 0.2916667 0.4
vt 0.3333333 0.4
vt 0.04166667 0.3666667
vt 0.08333334 0.3666667
vt 0 0.3666667
vt 0.125 0.3666667
vt 0.1666667 0.3666667
vt 0.25 0.3666667
vt 0.2916667 0.3666667
vt 0.3333333 0.3666667
vt 0.04166667 0.3333333
vt 0.08333334 0.3333333
vt 0.125 0.3333333
vt 0.1666667 0.3333333
vt 0.2083333 0.4
vt 0.25 0.3333333
vt 0.2916667 0.3333333
vt 0.3333333 0.3333333

# Normal
vn 0 0 -1

# Mesh description
g NewBadManor_mesh_0369

# Faces
f 1/1/1 2/2/1 3/3/1 4/4/1
f 5/5/1 6/1/1 7/4/1 8/6/1
f 9/1/1 10/2/1 11/3/1 12/4/1
f 13/5/1 14/1/1 15/4/1 16/6/1
f 17/1/1 18/2/1 19/3/1 20/4/1
f 21/5/1 22/1/1 23/4/1 24/6/1
f 25/2/1 26/7/1 27/8/1 28/3/1
f 29/7/1 30/9/1 31/10/1 32/8/1
f 33/9/1 34/11/1 35/12/1 36/10/1
f 37/11/1 38/13/1 39/14/1 40/12/1
f 41/13/1 42/15/1 43/16/1 44/14/1
f 45/15/1 46/17/1 47/18/1 48/16/1
f 49/1/1 50/2/1 51/3/1 52/4/1
f 53/5/1 54/1/1 55/4/1 56/6/1
f 57/1/1 58/2/1 59/3/1 60/4/1
f 61/5/1 62/1/1 63/4/1 64/6/1
f 65/19/1 66/20/1 67/2/1 68/1/1
f 69/21/1 70/19/1 71/1/1 72/5/1
f 73/19/1 74/20/1 75/2/1 76/1/1
f 77/21/1 78/19/1 79/1/1 80/5/1
f 81/19/1 82/20/1 83/2/1 84/1/1
f 85/21/1 86/19/1 87/1/1 88/5/1
f 89/20/1 90/22/1 91/7/1 92/2/1
f 93/22/1 94/23/1 95/9/1 96/7/1
f 97/23/1 98/24/1 99/11/1 100/9/1
f 101/24/1 102/25/1 103/13/1 104/11/1
f 105/25/1 106/26/1 107/15/1 108/13/1
f 109/26/1 110/27/1 111/17/1 112/15/1
f 113/19/1 114/20/1 115/2/1 116/1/1
f 117/21/1 118/19/1 119/1/1 120/5/1
f 121/19/1 122/20/1 123/2/1 124/1/1
f 125/21/1 126/19/1 127/1/1 128/5/1
f 129/28/1 130/29/1 131/30/1 132/31/1
f 133/32/1 134/33/1 135/19/1 136/21/1
f 137/33/1 138/34/1 139/20/1 140/19/1
f 141/29/1 142/35/1 143/36/1 144/30/1
f 145/28/1 146/29/1 147/30/1 148/31/1
f 149/29/1 150/35/1 151/36/1 152/30/1
f 153/34/1 154/37/1 155/22/1 156/20/1
f 157/37/1 158/38/1 159/23/1 160/22/1
f 161/38/1 162/39/1 163/24/1 164/23/1
f 165/39/1 166/40/1 167/25/1 168/24/1
f 169/40/1 170/41/1 171/26/1 172/25/1
f 173/41/1 174/42/1 175/27/1 176/26/1
f 177/28/1 178/29/1 179/30/1 180/31/1
f 181/29/1 182/35/1 183/36/1 184/30/1
f 185/28/1 186/29/1 187/30/1 188/31/1
f 189/32/1 190/33/1 191/19/1 192/21/1
f 193/43/1 194/44/1 195/29/1 196/28/1
f 197/31/1 198/30/1 199/33/1 200/32/1
f 201/30/1 202/36/1 203/34/1 204/33/1
f 205/44/1 206/45/1 207/35/1 208/29/1
f 209/43/1 210/44/1 211/29/1 212/28/1
f 213/44/1 214/45/1 215/35/1 216/29/1
f 217/36/1 218/46/1 219/37/1 220/34/1
f 221/46/1 222/47/1 223/38/1 224/37/1
f 225/47/1 226/48/1 227/39/1 228/38/1
f 229/48/1 230/49/1 231/40/1 232/39/1
f 233/49/1 234/50/1 235/41/1 236/40/1
f 237/50/1 238/51/1 239/42/1 240/41/1
f 241/43/1 242/44/1 243/29/1 244/28/1
f 245/44/1 246/45/1 247/35/1 248/29/1
f 249/43/1 250/44/1 251/29/1 252/28/1
f 253/31/1 254/30/1 255/33/1 256/32/1
f 257/29/1 258/35/1 259/36/1 260/30/1
f 261/28/1 262/29/1 263/30/1 264/31/1
f 265/29/1 266/35/1 267/36/1 268/30/1
f 269/28/1 270/29/1 271/30/1 272/31/1
f 273/29/1 274/35/1 275/36/1 276/30/1
f 277/28/1 278/29/1 279/30/1 280/31/1
f 281/35/1 282/52/1 283/46/1 284/36/1
f 285/52/1 286/53/1 287/47/1 288/46/1
f 289/53/1 290/54/1 291/48/1 292/47/1
f 293/54/1 294/55/1 295/49/1 296/48/1
f 297/55/1 298/56/1 299/50/1 300/49/1
f 301/56/1 302/57/1 303/51/1 304/50/1
f 305/29/1 306/35/1 307/36/1 308/30/1
f 309/28/1 310/29/1 311/30/1 312/31/1
f 313/29/1 314/35/1 315/36/1 316/30/1
f 317/28/1 318/29/1 319/30/1 320/31/1
f 321/44/1 322/45/1 323/35/1 324/29/1
f 325/43/1 326/44/1 327/29/1 328/28/1
f 329/44/1 330/45/1 331/35/1 332/29/1
f 333/43/1 334/44/1 335/29/1 336/28/1
f 337/44/1 338/45/1 339/35/1 340/29/1
f 341/43/1 342/44/1 343/29/1 344/28/1
f 345/45/1 346/58/1 347/52/1 348/35/1
f 349/58/1 350/59/1 351/53/1 352/52/1
f 353/47/1 354/48/1 355/39/1 356/38/1
f 357/48/1 358/49/1 359/40/1 360/39/1
f 361/60/1 362/61/1 363/56/1 364/55/1
f 365/61/1 366/62/1 367/57/1 368/56/1
f 369/44/1 370/45/1 371/35/1 372/29/1
f 373/43/1 374/44/1 375/29/1 376/28/1
f 377/44/1 378/45/1 379/35/1 380/29/1
f 381/43/1 382/44/1 383/29/1 384/28/1
f 385/63/1 386/64/1 387/45/1 388/44/1
f 389/65/1 390/63/1 391/44/1 392/43/1
f 393/63/1 394/64/1 395/45/1 396/44/1
f 397/65/1 398/63/1 399/44/1 400/43/1
f 401/63/1 402/64/1 403/45/1 404/44/1
f 405/65/1 406/63/1 407/44/1 408/43/1
f 409/64/1 410/66/1 411/58/1 412/45/1
f 413/66/1 414/67/1 415/59/1 416/58/1
f 417/53/1 418/54/1 419/48/1 420/47/1
f 421/54/1 422/55/1 423/49/1 424/48/1
f 425/68/1 426/69/1 427/61/1 428/60/1
f 429/69/1 430/70/1 431/62/1 432/61/1
f 433/63/1 434/64/1 435/45/1 436/44/1
f 437/65/1 438/63/1 439/44/1 440/43/1
f 441/63/1 442/64/1 443/45/1 444/44/1
f 445/65/1 446/63/1 447/44/1 448/43/1
f 449/71/1 450/72/1 451/64/1 452/63/1
f 453/71/1 454/72/1 455/64/1 456/63/1
f 457/71/1 458/72/1 459/64/1 460/63/1
f 461/71/1 462/72/1 463/64/1 464/63/1
f 465/71/1 466/72/1 467/64/1 468/63/1
f 469/71/1 470/72/1 471/64/1 472/63/1
f 473/72/1 474/73/1 475/66/1 476/64/1
f 477/73/1 478/74/1 479/67/1 480/66/1
f 481/59/1 482/75/1 483/54/1 484/53/1
f 485/75/1 486/60/1 487/55/1 488/54/1
f 489/76/1 490/77/1 491/69/1 492/68/1
f 493/77/1 494/78/1 495/70/1 496/69/1
f 497/71/1 498/72/1 499/64/1 500/63/1
f 501/71/1 502/72/1 503/64/1 504/63/1
f 505/71/1 506/72/1 507/64/1 508/63/1
f 509/71/1 510/72/1 511/64/1 512/63/1

