# Tiled2Unity generated file. Do not modify by hand.
# Wavefront file for 'NewBadManor_mesh_0100.obj'

# Vertices (Count = 16)
v -61.44 -3.2 0
v -62.08 -3.2 0
v -62.08 -2.56 0
v -61.44 -2.56 0
v -62.08 -3.2 0
v -62.72 -3.2 0
v -62.72 -2.56 0
v -62.08 -2.56 0
v -20.48 -10.88 0
v -21.12 -10.88 0
v -21.12 -10.24 0
v -20.48 -10.24 0
v -21.12 -10.88 0
v -21.76 -10.88 0
v -21.76 -10.24 0
v -21.12 -10.24 0

# Texture cooridinates (Count = 6)
vt 0.3333333 0.4166667
vt 0.5 0.4166667
vt 0.5 0.5
vt 0.3333333 0.5
vt 0.6666667 0.4166667
vt 0.6666667 0.5

# Normal
vn 0 0 -1

# Mesh description
g NewBadManor_mesh_0100

# Faces
f 1/1/1 2/2/1 3/3/1 4/4/1
f 5/2/1 6/5/1 7/6/1 8/3/1
f 9/1/1 10/2/1 11/3/1 12/4/1
f 13/2/1 14/5/1 15/6/1 16/3/1

