# Tiled2Unity generated file. Do not modify by hand.
# Wavefront file for 'NewBadManor_mesh_0041.obj'

# Vertices (Count = 40)
v -14.72 -13.44 0
v -15.36 -13.44 0
v -15.36 -12.8 0
v -14.72 -12.8 0
v -15.36 -13.44 0
v -16 -13.44 0
v -16 -12.8 0
v -15.36 -12.8 0
v -24.96 -13.44 0
v -25.6 -13.44 0
v -25.6 -12.8 0
v -24.96 -12.8 0
v -25.6 -13.44 0
v -26.24 -13.44 0
v -26.24 -12.8 0
v -25.6 -12.8 0
v -35.2 -13.44 0
v -35.84 -13.44 0
v -35.84 -12.8 0
v -35.2 -12.8 0
v -35.84 -13.44 0
v -36.48 -13.44 0
v -36.48 -12.8 0
v -35.84 -12.8 0
v -45.44 -13.44 0
v -46.08 -13.44 0
v -46.08 -12.8 0
v -45.44 -12.8 0
v -46.08 -13.44 0
v -46.72 -13.44 0
v -46.72 -12.8 0
v -46.08 -12.8 0
v -55.68 -13.44 0
v -56.32 -13.44 0
v -56.32 -12.8 0
v -55.68 -12.8 0
v -56.32 -13.44 0
v -56.96 -13.44 0
v -56.96 -12.8 0
v -56.32 -12.8 0

# Texture cooridinates (Count = 18)
vt 0 0.5
vt 0.1 0.5
vt 0.1 0.625
vt 0 0.625
vt 0.2 0.5
vt 0.2 0.625
vt 0 0.75
vt 0.1 0.75
vt 0.1 0.875
vt 0 0.875
vt 0.2 0.75
vt 0.2 0.875
vt 0 0.375
vt 0.1 0.375
vt 0.2 0.375
vt 0 0.25
vt 0.1 0.25
vt 0.2 0.25

# Normal
vn 0 0 -1

# Mesh description
g NewBadManor_mesh_0041

# Faces
f 1/1/1 2/2/1 3/3/1 4/4/1
f 5/2/1 6/5/1 7/6/1 8/3/1
f 9/7/1 10/8/1 11/9/1 12/10/1
f 13/8/1 14/11/1 15/12/1 16/9/1
f 17/13/1 18/14/1 19/2/1 20/1/1
f 21/14/1 22/15/1 23/5/1 24/2/1
f 25/16/1 26/17/1 27/14/1 28/13/1
f 29/17/1 30/18/1 31/15/1 32/14/1
f 33/13/1 34/14/1 35/2/1 36/1/1
f 37/14/1 38/15/1 39/5/1 40/2/1

