# Tiled2Unity generated file. Do not modify by hand.
# Wavefront file for 'NewBadManor_mesh_0282.obj'

# Vertices (Count = 168)
v -1.92 -0.32 -0.005780347
v -2.24 -0.32 -0.005780347
v -2.24 0 -0.005780347
v -1.92 0 -0.005780347
v -2.24 -0.32 -0.005780347
v -2.56 -0.32 -0.005780347
v -2.56 0 -0.005780347
v -2.24 0 -0.005780347
v -2.56 -0.32 -0.005780347
v -2.88 -0.32 -0.005780347
v -2.88 0 -0.005780347
v -2.56 0 -0.005780347
v -2.88 -0.32 -0.005780347
v -3.2 -0.32 -0.005780347
v -3.2 0 -0.005780347
v -2.88 0 -0.005780347
v -3.2 -0.32 -0.005780347
v -3.52 -0.32 -0.005780347
v -3.52 0 -0.005780347
v -3.2 0 -0.005780347
v -3.52 -0.32 -0.005780347
v -3.84 -0.32 -0.005780347
v -3.84 0 -0.005780347
v -3.52 0 -0.005780347
v -3.84 -0.32 -0.005780347
v -4.16 -0.32 -0.005780347
v -4.16 0 -0.005780347
v -3.84 0 -0.005780347
v -4.16 -0.32 -0.005780347
v -4.48 -0.32 -0.005780347
v -4.48 0 -0.005780347
v -4.16 0 -0.005780347
v -4.48 -0.32 -0.005780347
v -4.8 -0.32 -0.005780347
v -4.8 0 -0.005780347
v -4.48 0 -0.005780347
v -4.8 -0.32 -0.005780347
v -5.12 -0.32 -0.005780347
v -5.12 0 -0.005780347
v -4.8 0 -0.005780347
v -1.92 -0.64 -0.01156069
v -2.24 -0.64 -0.01156069
v -2.24 -0.32 -0.01156069
v -1.92 -0.32 -0.01156069
v -2.24 -0.64 -0.01156069
v -2.56 -0.64 -0.01156069
v -2.56 -0.32 -0.01156069
v -2.24 -0.32 -0.01156069
v -4.48 -0.64 -0.01156069
v -4.8 -0.64 -0.01156069
v -4.8 -0.32 -0.01156069
v -4.48 -0.32 -0.01156069
v -4.8 -0.64 -0.01156069
v -5.12 -0.64 -0.01156069
v -5.12 -0.32 -0.01156069
v -4.8 -0.32 -0.01156069
v -1.92 -0.96 -0.01734104
v -2.24 -0.96 -0.01734104
v -2.24 -0.64 -0.01734104
v -1.92 -0.64 -0.01734104
v -2.24 -0.96 -0.01734104
v -2.56 -0.96 -0.01734104
v -2.56 -0.64 -0.01734104
v -2.24 -0.64 -0.01734104
v -4.48 -0.96 -0.01734104
v -4.8 -0.96 -0.01734104
v -4.8 -0.64 -0.01734104
v -4.48 -0.64 -0.01734104
v -4.8 -0.96 -0.01734104
v -5.12 -0.96 -0.01734104
v -5.12 -0.64 -0.01734104
v -4.8 -0.64 -0.01734104
v -1.92 -1.28 -0.02312139
v -2.24 -1.28 -0.02312139
v -2.24 -0.96 -0.02312139
v -1.92 -0.96 -0.02312139
v -2.24 -1.28 -0.02312139
v -2.56 -1.28 -0.02312139
v -2.56 -0.96 -0.02312139
v -2.24 -0.96 -0.02312139
v -4.48 -1.28 -0.02312139
v -4.8 -1.28 -0.02312139
v -4.8 -0.96 -0.02312139
v -4.48 -0.96 -0.02312139
v -4.8 -1.28 -0.02312139
v -5.12 -1.28 -0.02312139
v -5.12 -0.96 -0.02312139
v -4.8 -0.96 -0.02312139
v -1.92 -1.6 -0.02890173
v -2.24 -1.6 -0.02890173
v -2.24 -1.28 -0.02890173
v -1.92 -1.28 -0.02890173
v -2.24 -1.6 -0.02890173
v -2.56 -1.6 -0.02890173
v -2.56 -1.28 -0.02890173
v -2.24 -1.28 -0.02890173
v -4.48 -1.6 -0.02890173
v -4.8 -1.6 -0.02890173
v -4.8 -1.28 -0.02890173
v -4.48 -1.28 -0.02890173
v -4.8 -1.6 -0.02890173
v -5.12 -1.6 -0.02890173
v -5.12 -1.28 -0.02890173
v -4.8 -1.28 -0.02890173
v -1.92 -1.92 -0.03468208
v -2.24 -1.92 -0.03468208
v -2.24 -1.6 -0.03468208
v -1.92 -1.6 -0.03468208
v -2.24 -1.92 -0.03468208
v -2.56 -1.92 -0.03468208
v -2.56 -1.6 -0.03468208
v -2.24 -1.6 -0.03468208
v -4.48 -1.92 -0.03468208
v -4.8 -1.92 -0.03468208
v -4.8 -1.6 -0.03468208
v -4.48 -1.6 -0.03468208
v -4.8 -1.92 -0.03468208
v -5.12 -1.92 -0.03468208
v -5.12 -1.6 -0.03468208
v -4.8 -1.6 -0.03468208
v -1.92 -2.24 -0.04046243
v -2.24 -2.24 -0.04046243
v -2.24 -1.92 -0.04046243
v -1.92 -1.92 -0.04046243
v -2.24 -2.24 -0.04046243
v -2.56 -2.24 -0.04046243
v -2.56 -1.92 -0.04046243
v -2.24 -1.92 -0.04046243
v -4.48 -2.24 -0.04046243
v -4.8 -2.24 -0.04046243
v -4.8 -1.92 -0.04046243
v -4.48 -1.92 -0.04046243
v -4.8 -2.24 -0.04046243
v -5.12 -2.24 -0.04046243
v -5.12 -1.92 -0.04046243
v -4.8 -1.92 -0.04046243
v -1.92 -2.56 -0.04624277
v -2.24 -2.56 -0.04624277
v -2.24 -2.24 -0.04624277
v -1.92 -2.24 -0.04624277
v -2.24 -2.56 -0.04624277
v -2.56 -2.56 -0.04624277
v -2.56 -2.24 -0.04624277
v -2.24 -2.24 -0.04624277
v -4.48 -2.56 -0.04624277
v -4.8 -2.56 -0.04624277
v -4.8 -2.24 -0.04624277
v -4.48 -2.24 -0.04624277
v -4.8 -2.56 -0.04624277
v -5.12 -2.56 -0.04624277
v -5.12 -2.24 -0.04624277
v -4.8 -2.24 -0.04624277
v -1.92 -2.88 -0.05202312
v -2.24 -2.88 -0.05202312
v -2.24 -2.56 -0.05202312
v -1.92 -2.56 -0.05202312
v -2.24 -2.88 -0.05202312
v -2.56 -2.88 -0.05202312
v -2.56 -2.56 -0.05202312
v -2.24 -2.56 -0.05202312
v -4.48 -2.88 -0.05202312
v -4.8 -2.88 -0.05202312
v -4.8 -2.56 -0.05202312
v -4.48 -2.56 -0.05202312
v -4.8 -2.88 -0.05202312
v -5.12 -2.88 -0.05202312
v -5.12 -2.56 -0.05202312
v -4.8 -2.56 -0.05202312

# Texture cooridinates (Count = 12)
vt 0.15 0.65
vt 0.15 0.7
vt 0.1 0.7
vt 0.1 0.65
vt 0.15 0.75
vt 0.1 0.75
vt 0.25 0.75
vt 0.2 0.75
vt 0.2 0.7
vt 0.25 0.7
vt 0.2 0.65
vt 0.25 0.65

# Normal
vn 0 0 -1

# Mesh description
g NewBadManor_mesh_0282

# Faces
f 1/1/1 2/2/1 3/3/1 4/4/1
f 5/2/1 6/5/1 7/6/1 8/3/1
f 9/7/1 10/8/1 11/9/1 12/10/1
f 13/8/1 14/5/1 15/2/1 16/9/1
f 17/5/1 18/6/1 19/3/1 20/2/1
f 21/5/1 22/6/1 23/3/1 24/2/1
f 25/5/1 26/6/1 27/3/1 28/2/1
f 29/5/1 30/6/1 31/3/1 32/2/1
f 33/8/1 34/9/1 35/10/1 36/7/1
f 37/9/1 38/11/1 39/12/1 40/10/1
f 41/11/1 42/9/1 43/2/1 44/1/1
f 45/9/1 46/8/1 47/5/1 48/2/1
f 49/5/1 50/2/1 51/9/1 52/8/1
f 53/2/1 54/1/1 55/11/1 56/9/1
f 57/12/1 58/10/1 59/9/1 60/11/1
f 61/10/1 62/7/1 63/8/1 64/9/1
f 65/6/1 66/3/1 67/2/1 68/5/1
f 69/3/1 70/4/1 71/1/1 72/2/1
f 73/12/1 74/10/1 75/9/1 76/11/1
f 77/10/1 78/7/1 79/8/1 80/9/1
f 81/6/1 82/3/1 83/2/1 84/5/1
f 85/3/1 86/4/1 87/1/1 88/2/1
f 89/12/1 90/10/1 91/9/1 92/11/1
f 93/10/1 94/7/1 95/8/1 96/9/1
f 97/6/1 98/3/1 99/2/1 100/5/1
f 101/3/1 102/4/1 103/1/1 104/2/1
f 105/12/1 106/10/1 107/9/1 108/11/1
f 109/10/1 110/7/1 111/8/1 112/9/1
f 113/6/1 114/3/1 115/2/1 116/5/1
f 117/3/1 118/4/1 119/1/1 120/2/1
f 121/12/1 122/10/1 123/9/1 124/11/1
f 125/10/1 126/7/1 127/8/1 128/9/1
f 129/6/1 130/3/1 131/2/1 132/5/1
f 133/3/1 134/4/1 135/1/1 136/2/1
f 137/12/1 138/10/1 139/9/1 140/11/1
f 141/10/1 142/7/1 143/8/1 144/9/1
f 145/6/1 146/3/1 147/2/1 148/5/1
f 149/3/1 150/4/1 151/1/1 152/2/1
f 153/12/1 154/10/1 155/9/1 156/11/1
f 157/10/1 158/7/1 159/8/1 160/9/1
f 161/6/1 162/3/1 163/2/1 164/5/1
f 165/3/1 166/4/1 167/1/1 168/2/1

