# Tiled2Unity generated file. Do not modify by hand.
# Wavefront file for 'NewBadManor_mesh_0306.obj'

# Vertices (Count = 8)
v -4.8 -2.88 -0.05202312
v -5.12 -2.88 -0.05202312
v -5.12 -2.56 -0.05202312
v -4.8 -2.56 -0.05202312
v -4.8 -3.2 -0.05780347
v -5.12 -3.2 -0.05780347
v -5.12 -2.88 -0.05780347
v -4.8 -2.88 -0.05780347

# Texture cooridinates (Count = 6)
vt 0.3125 0.78125
vt 0.34375 0.78125
vt 0.34375 0.8125
vt 0.3125 0.8125
vt 0.3125 0.75
vt 0.34375 0.75

# Normal
vn 0 0 -1

# Mesh description
g NewBadManor_mesh_0306

# Faces
f 1/1/1 2/2/1 3/3/1 4/4/1
f 5/5/1 6/6/1 7/2/1 8/1/1

