# Tiled2Unity generated file. Do not modify by hand.
# Wavefront file for 'NewBadManor_mesh_0093.obj'

# Vertices (Count = 336)
v -13.44 -1.28 0
v -14.08 -1.28 0
v -14.08 -0.64 0
v -13.44 -0.64 0
v -14.08 -1.28 0
v -14.72 -1.28 0
v -14.72 -0.64 0
v -14.08 -0.64 0
v -14.72 -1.28 0
v -15.36 -1.28 0
v -15.36 -0.64 0
v -14.72 -0.64 0
v -15.36 -1.28 0
v -16 -1.28 0
v -16 -0.64 0
v -15.36 -0.64 0
v -16 -1.28 0
v -16.64 -1.28 0
v -16.64 -0.64 0
v -16 -0.64 0
v -16.64 -1.28 0
v -17.28 -1.28 0
v -17.28 -0.64 0
v -16.64 -0.64 0
v -17.28 -1.28 0
v -17.92 -1.28 0
v -17.92 -0.64 0
v -17.28 -0.64 0
v -23.68 -1.28 0
v -24.32 -1.28 0
v -24.32 -0.64 0
v -23.68 -0.64 0
v -24.32 -1.28 0
v -24.96 -1.28 0
v -24.96 -0.64 0
v -24.32 -0.64 0
v -24.96 -1.28 0
v -25.6 -1.28 0
v -25.6 -0.64 0
v -24.96 -0.64 0
v -25.6 -1.28 0
v -26.24 -1.28 0
v -26.24 -0.64 0
v -25.6 -0.64 0
v -26.24 -1.28 0
v -26.88 -1.28 0
v -26.88 -0.64 0
v -26.24 -0.64 0
v -26.88 -1.28 0
v -27.52 -1.28 0
v -27.52 -0.64 0
v -26.88 -0.64 0
v -27.52 -1.28 0
v -28.16 -1.28 0
v -28.16 -0.64 0
v -27.52 -0.64 0
v -33.92 -1.28 0
v -34.56 -1.28 0
v -34.56 -0.64 0
v -33.92 -0.64 0
v -34.56 -1.28 0
v -35.2 -1.28 0
v -35.2 -0.64 0
v -34.56 -0.64 0
v -35.2 -1.28 0
v -35.84 -1.28 0
v -35.84 -0.64 0
v -35.2 -0.64 0
v -35.84 -1.28 0
v -36.48 -1.28 0
v -36.48 -0.64 0
v -35.84 -0.64 0
v -36.48 -1.28 0
v -37.12 -1.28 0
v -37.12 -0.64 0
v -36.48 -0.64 0
v -37.12 -1.28 0
v -37.76 -1.28 0
v -37.76 -0.64 0
v -37.12 -0.64 0
v -37.76 -1.28 0
v -38.4 -1.28 0
v -38.4 -0.64 0
v -37.76 -0.64 0
v -44.16 -1.28 0
v -44.8 -1.28 0
v -44.8 -0.64 0
v -44.16 -0.64 0
v -44.8 -1.28 0
v -45.44 -1.28 0
v -45.44 -0.64 0
v -44.8 -0.64 0
v -45.44 -1.28 0
v -46.08 -1.28 0
v -46.08 -0.64 0
v -45.44 -0.64 0
v -46.08 -1.28 0
v -46.72 -1.28 0
v -46.72 -0.64 0
v -46.08 -0.64 0
v -46.72 -1.28 0
v -47.36 -1.28 0
v -47.36 -0.64 0
v -46.72 -0.64 0
v -47.36 -1.28 0
v -48 -1.28 0
v -48 -0.64 0
v -47.36 -0.64 0
v -48 -1.28 0
v -48.64 -1.28 0
v -48.64 -0.64 0
v -48 -0.64 0
v -54.4 -1.28 0
v -55.04 -1.28 0
v -55.04 -0.64 0
v -54.4 -0.64 0
v -55.04 -1.28 0
v -55.68 -1.28 0
v -55.68 -0.64 0
v -55.04 -0.64 0
v -55.68 -1.28 0
v -56.32 -1.28 0
v -56.32 -0.64 0
v -55.68 -0.64 0
v -56.32 -1.28 0
v -56.96 -1.28 0
v -56.96 -0.64 0
v -56.32 -0.64 0
v -56.96 -1.28 0
v -57.6 -1.28 0
v -57.6 -0.64 0
v -56.96 -0.64 0
v -57.6 -1.28 0
v -58.24 -1.28 0
v -58.24 -0.64 0
v -57.6 -0.64 0
v -58.24 -1.28 0
v -58.88 -1.28 0
v -58.88 -0.64 0
v -58.24 -0.64 0
v -0.64 -1.92 0
v -1.28 -1.92 0
v -1.28 -1.28 0
v -0.64 -1.28 0
v -1.28 -1.92 0
v -1.92 -1.92 0
v -1.92 -1.28 0
v -1.28 -1.28 0
v -1.92 -1.92 0
v -2.56 -1.92 0
v -2.56 -1.28 0
v -1.92 -1.28 0
v -2.56 -1.92 0
v -3.2 -1.92 0
v -3.2 -1.28 0
v -2.56 -1.28 0
v -3.2 -1.92 0
v -3.84 -1.92 0
v -3.84 -1.28 0
v -3.2 -1.28 0
v -3.84 -1.92 0
v -4.48 -1.92 0
v -4.48 -1.28 0
v -3.84 -1.28 0
v -4.48 -1.92 0
v -5.12 -1.92 0
v -5.12 -1.28 0
v -4.48 -1.28 0
v -43.52 -2.56 0
v -44.16 -2.56 0
v -44.16 -1.92 0
v -43.52 -1.92 0
v -44.16 -2.56 0
v -44.8 -2.56 0
v -44.8 -1.92 0
v -44.16 -1.92 0
v -44.8 -2.56 0
v -45.44 -2.56 0
v -45.44 -1.92 0
v -44.8 -1.92 0
v -45.44 -2.56 0
v -46.08 -2.56 0
v -46.08 -1.92 0
v -45.44 -1.92 0
v -46.08 -2.56 0
v -46.72 -2.56 0
v -46.72 -1.92 0
v -46.08 -1.92 0
v -46.72 -2.56 0
v -47.36 -2.56 0
v -47.36 -1.92 0
v -46.72 -1.92 0
v -47.36 -2.56 0
v -48 -2.56 0
v -48 -1.92 0
v -47.36 -1.92 0
v -53.76 -2.56 0
v -54.4 -2.56 0
v -54.4 -1.92 0
v -53.76 -1.92 0
v -54.4 -2.56 0
v -55.04 -2.56 0
v -55.04 -1.92 0
v -54.4 -1.92 0
v -55.04 -2.56 0
v -55.68 -2.56 0
v -55.68 -1.92 0
v -55.04 -1.92 0
v -55.68 -2.56 0
v -56.32 -2.56 0
v -56.32 -1.92 0
v -55.68 -1.92 0
v -56.32 -2.56 0
v -56.96 -2.56 0
v -56.96 -1.92 0
v -56.32 -1.92 0
v -56.96 -2.56 0
v -57.6 -2.56 0
v -57.6 -1.92 0
v -56.96 -1.92 0
v -57.6 -2.56 0
v -58.24 -2.56 0
v -58.24 -1.92 0
v -57.6 -1.92 0
v 0 -3.2 0
v -0.64 -3.2 0
v -0.64 -2.56 0
v 0 -2.56 0
v -0.64 -3.2 0
v -1.28 -3.2 0
v -1.28 -2.56 0
v -0.64 -2.56 0
v -1.28 -3.2 0
v -1.92 -3.2 0
v -1.92 -2.56 0
v -1.28 -2.56 0
v -1.92 -3.2 0
v -2.56 -3.2 0
v -2.56 -2.56 0
v -1.92 -2.56 0
v -2.56 -3.2 0
v -3.2 -3.2 0
v -3.2 -2.56 0
v -2.56 -2.56 0
v -3.2 -3.2 0
v -3.84 -3.2 0
v -3.84 -2.56 0
v -3.2 -2.56 0
v -3.84 -3.2 0
v -4.48 -3.2 0
v -4.48 -2.56 0
v -3.84 -2.56 0
v -10.24 -3.2 0
v -10.88 -3.2 0
v -10.88 -2.56 0
v -10.24 -2.56 0
v -10.88 -3.2 0
v -11.52 -3.2 0
v -11.52 -2.56 0
v -10.88 -2.56 0
v -11.52 -3.2 0
v -12.16 -3.2 0
v -12.16 -2.56 0
v -11.52 -2.56 0
v -12.16 -3.2 0
v -12.8 -3.2 0
v -12.8 -2.56 0
v -12.16 -2.56 0
v -12.8 -3.2 0
v -13.44 -3.2 0
v -13.44 -2.56 0
v -12.8 -2.56 0
v -13.44 -3.2 0
v -14.08 -3.2 0
v -14.08 -2.56 0
v -13.44 -2.56 0
v -14.08 -3.2 0
v -14.72 -3.2 0
v -14.72 -2.56 0
v -14.08 -2.56 0
v -20.48 -3.2 0
v -21.12 -3.2 0
v -21.12 -2.56 0
v -20.48 -2.56 0
v -21.12 -3.2 0
v -21.76 -3.2 0
v -21.76 -2.56 0
v -21.12 -2.56 0
v -21.76 -3.2 0
v -22.4 -3.2 0
v -22.4 -2.56 0
v -21.76 -2.56 0
v -22.4 -3.2 0
v -23.04 -3.2 0
v -23.04 -2.56 0
v -22.4 -2.56 0
v -23.04 -3.2 0
v -23.68 -3.2 0
v -23.68 -2.56 0
v -23.04 -2.56 0
v -23.68 -3.2 0
v -24.32 -3.2 0
v -24.32 -2.56 0
v -23.68 -2.56 0
v -24.32 -3.2 0
v -24.96 -3.2 0
v -24.96 -2.56 0
v -24.32 -2.56 0
v -30.72 -3.2 0
v -31.36 -3.2 0
v -31.36 -2.56 0
v -30.72 -2.56 0
v -31.36 -3.2 0
v -32 -3.2 0
v -32 -2.56 0
v -31.36 -2.56 0
v -32 -3.2 0
v -32.64 -3.2 0
v -32.64 -2.56 0
v -32 -2.56 0
v -32.64 -3.2 0
v -33.28 -3.2 0
v -33.28 -2.56 0
v -32.64 -2.56 0
v -33.28 -3.2 0
v -33.92 -3.2 0
v -33.92 -2.56 0
v -33.28 -2.56 0
v -33.92 -3.2 0
v -34.56 -3.2 0
v -34.56 -2.56 0
v -33.92 -2.56 0
v -34.56 -3.2 0
v -35.2 -3.2 0
v -35.2 -2.56 0
v -34.56 -2.56 0

# Texture cooridinates (Count = 79)
vt 0.53125 0.5
vt 0.53125 0.46875
vt 0.5625 0.46875
vt 0.5625 0.5
vt 0.53125 0.4375
vt 0.5625 0.4375
vt 0.5 0.46875
vt 0.5 0.4375
vt 0.5 0.5
vt 0.375 0.625
vt 0.40625 0.625
vt 0.40625 0.65625
vt 0.375 0.65625
vt 0.28125 0.6875
vt 0.3125 0.6875
vt 0.3125 0.71875
vt 0.28125 0.71875
vt 0.34375 0.6875
vt 0.34375 0.71875
vt 0.6875 0.59375
vt 0.71875 0.59375
vt 0.71875 0.625
vt 0.6875 0.625
vt 0.75 0.59375
vt 0.75 0.625
vt 0.25 0.65625
vt 0.28125 0.65625
vt 0.25 0.6875
vt 0.3125 0.65625
vt 0.34375 0.65625
vt 0.6875 0.5625
vt 0.71875 0.5625
vt 0.75 0.5625
vt 0.25 0.625
vt 0.28125 0.625
vt 0.3125 0.625
vt 0.34375 0.625
vt 0.6875 0.53125
vt 0.71875 0.53125
vt 0.75 0.53125
vt 0.25 0.59375
vt 0.28125 0.59375
vt 0.3125 0.59375
vt 0.34375 0.59375
vt 0.6875 0.5
vt 0.71875 0.5
vt 0.75 0.5
vt 0.25 0.5625
vt 0.28125 0.5625
vt 0.3125 0.5625
vt 0.34375 0.5625
vt 0.375 0.6875
vt 0.375 0.71875
vt 0.40625 0.6875
vt 0.40625 0.71875
vt 0.4375 0.65625
vt 0.4375 0.6875
vt 0.78125 0.59375
vt 0.78125 0.625
vt 0.8125 0.59375
vt 0.8125 0.625
vt 0.4375 0.625
vt 0.78125 0.5625
vt 0.8125 0.5625
vt 0.375 0.59375
vt 0.40625 0.59375
vt 0.4375 0.59375
vt 0.78125 0.53125
vt 0.8125 0.53125
vt 0.375 0.5625
vt 0.40625 0.5625
vt 0.4375 0.5625
vt 0.78125 0.5
vt 0.8125 0.5
vt 0.4375 0.53125
vt 0.46875 0.53125
vt 0.46875 0.5625
vt 0.5 0.53125
vt 0.5 0.5625

# Normal
vn 0 0 -1

# Mesh description
g NewBadManor_mesh_0093

# Faces
f 1/1/1 2/2/1 3/3/1 4/4/1
f 5/2/1 6/5/1 7/6/1 8/3/1
f 9/1/1 10/2/1 11/3/1 12/4/1
f 13/5/1 14/2/1 15/7/1 16/8/1
f 17/5/1 18/2/1 19/7/1 20/8/1
f 21/5/1 22/2/1 23/7/1 24/8/1
f 25/5/1 26/2/1 27/7/1 28/8/1
f 29/9/1 30/7/1 31/2/1 32/1/1
f 33/7/1 34/8/1 35/5/1 36/2/1
f 37/9/1 38/7/1 39/2/1 40/1/1
f 41/7/1 42/8/1 43/5/1 44/2/1
f 45/10/1 46/11/1 47/12/1 48/13/1
f 49/14/1 50/15/1 51/16/1 52/17/1
f 53/15/1 54/18/1 55/19/1 56/16/1
f 57/20/1 58/21/1 59/22/1 60/23/1
f 61/21/1 62/24/1 63/25/1 64/22/1
f 65/20/1 66/21/1 67/22/1 68/23/1
f 69/21/1 70/24/1 71/25/1 72/22/1
f 73/26/1 74/27/1 75/14/1 76/28/1
f 77/27/1 78/29/1 79/15/1 80/14/1
f 81/29/1 82/30/1 83/18/1 84/15/1
f 85/31/1 86/32/1 87/21/1 88/20/1
f 89/32/1 90/33/1 91/24/1 92/21/1
f 93/31/1 94/32/1 95/21/1 96/20/1
f 97/32/1 98/33/1 99/24/1 100/21/1
f 101/34/1 102/35/1 103/27/1 104/26/1
f 105/35/1 106/36/1 107/29/1 108/27/1
f 109/36/1 110/37/1 111/30/1 112/29/1
f 113/38/1 114/39/1 115/32/1 116/31/1
f 117/39/1 118/40/1 119/33/1 120/32/1
f 121/38/1 122/39/1 123/32/1 124/31/1
f 125/39/1 126/40/1 127/33/1 128/32/1
f 129/41/1 130/42/1 131/35/1 132/34/1
f 133/42/1 134/43/1 135/36/1 136/35/1
f 137/43/1 138/44/1 139/37/1 140/36/1
f 141/45/1 142/46/1 143/39/1 144/38/1
f 145/46/1 146/47/1 147/40/1 148/39/1
f 149/45/1 150/46/1 151/39/1 152/38/1
f 153/46/1 154/47/1 155/40/1 156/39/1
f 157/48/1 158/49/1 159/42/1 160/41/1
f 161/49/1 162/50/1 163/43/1 164/42/1
f 165/50/1 166/51/1 167/44/1 168/43/1
f 169/5/1 170/2/1 171/7/1 172/8/1
f 173/5/1 174/2/1 175/7/1 176/8/1
f 177/5/1 178/2/1 179/7/1 180/8/1
f 181/2/1 182/1/1 183/9/1 184/7/1
f 185/2/1 186/5/1 187/6/1 188/3/1
f 189/1/1 190/2/1 191/3/1 192/4/1
f 193/2/1 194/5/1 195/6/1 196/3/1
f 197/18/1 198/52/1 199/53/1 200/19/1
f 201/52/1 202/54/1 203/55/1 204/53/1
f 205/10/1 206/11/1 207/12/1 208/13/1
f 209/9/1 210/7/1 211/2/1 212/1/1
f 213/7/1 214/8/1 215/5/1 216/2/1
f 217/29/1 218/30/1 219/18/1 220/15/1
f 221/30/1 222/13/1 223/52/1 224/18/1
f 225/30/1 226/13/1 227/52/1 228/18/1
f 229/13/1 230/12/1 231/54/1 232/52/1
f 233/12/1 234/56/1 235/57/1 236/54/1
f 237/24/1 238/58/1 239/59/1 240/25/1
f 241/58/1 242/60/1 243/61/1 244/59/1
f 245/36/1 246/37/1 247/30/1 248/29/1
f 249/37/1 250/10/1 251/13/1 252/30/1
f 253/37/1 254/10/1 255/13/1 256/30/1
f 257/10/1 258/11/1 259/12/1 260/13/1
f 261/11/1 262/62/1 263/56/1 264/12/1
f 265/33/1 266/63/1 267/58/1 268/24/1
f 269/63/1 270/64/1 271/60/1 272/58/1
f 273/43/1 274/44/1 275/37/1 276/36/1
f 277/44/1 278/65/1 279/10/1 280/37/1
f 281/44/1 282/65/1 283/10/1 284/37/1
f 285/65/1 286/66/1 287/11/1 288/10/1
f 289/66/1 290/67/1 291/62/1 292/11/1
f 293/40/1 294/68/1 295/63/1 296/33/1
f 297/68/1 298/69/1 299/64/1 300/63/1
f 301/50/1 302/51/1 303/44/1 304/43/1
f 305/51/1 306/70/1 307/65/1 308/44/1
f 309/51/1 310/70/1 311/65/1 312/44/1
f 313/70/1 314/71/1 315/66/1 316/65/1
f 317/71/1 318/72/1 319/67/1 320/66/1
f 321/47/1 322/73/1 323/68/1 324/40/1
f 325/73/1 326/74/1 327/69/1 328/68/1
f 329/75/1 330/76/1 331/77/1 332/72/1
f 333/76/1 334/78/1 335/79/1 336/77/1

