# Tiled2Unity generated file. Do not modify by hand.
# Wavefront file for 'NewBadManor_mesh_0101.obj'

# Vertices (Count = 736)
v -3.84 -1.92 0
v -4.48 -1.92 0
v -4.48 -1.28 0
v -3.84 -1.28 0
v -4.48 -1.92 0
v -5.12 -1.92 0
v -5.12 -1.28 0
v -4.48 -1.28 0
v -14.08 -1.92 0
v -14.72 -1.92 0
v -14.72 -1.28 0
v -14.08 -1.28 0
v -14.72 -1.92 0
v -15.36 -1.92 0
v -15.36 -1.28 0
v -14.72 -1.28 0
v -24.32 -1.92 0
v -24.96 -1.92 0
v -24.96 -1.28 0
v -24.32 -1.28 0
v -24.96 -1.92 0
v -25.6 -1.92 0
v -25.6 -1.28 0
v -24.96 -1.28 0
v -34.56 -1.92 0
v -35.2 -1.92 0
v -35.2 -1.28 0
v -34.56 -1.28 0
v -35.2 -1.92 0
v -35.84 -1.92 0
v -35.84 -1.28 0
v -35.2 -1.28 0
v -34.56 -3.2 0
v -35.2 -3.2 0
v -35.2 -2.56 0
v -34.56 -2.56 0
v -35.2 -3.2 0
v -35.84 -3.2 0
v -35.84 -2.56 0
v -35.2 -2.56 0
v -37.12 -3.2 0
v -37.76 -3.2 0
v -37.76 -2.56 0
v -37.12 -2.56 0
v -37.76 -3.2 0
v -38.4 -3.2 0
v -38.4 -2.56 0
v -37.76 -2.56 0
v -44.8 -3.2 0
v -45.44 -3.2 0
v -45.44 -2.56 0
v -44.8 -2.56 0
v -45.44 -3.2 0
v -46.08 -3.2 0
v -46.08 -2.56 0
v -45.44 -2.56 0
v -47.36 -3.2 0
v -48 -3.2 0
v -48 -2.56 0
v -47.36 -2.56 0
v -48 -3.2 0
v -48.64 -3.2 0
v -48.64 -2.56 0
v -48 -2.56 0
v -52.48 -3.2 0
v -53.12 -3.2 0
v -53.12 -2.56 0
v -52.48 -2.56 0
v -53.12 -3.2 0
v -53.76 -3.2 0
v -53.76 -2.56 0
v -53.12 -2.56 0
v -55.04 -3.2 0
v -55.68 -3.2 0
v -55.68 -2.56 0
v -55.04 -2.56 0
v -55.68 -3.2 0
v -56.32 -3.2 0
v -56.32 -2.56 0
v -55.68 -2.56 0
v -57.6 -3.2 0
v -58.24 -3.2 0
v -58.24 -2.56 0
v -57.6 -2.56 0
v -58.24 -3.2 0
v -58.88 -3.2 0
v -58.88 -2.56 0
v -58.24 -2.56 0
v -60.16 -3.2 0
v -60.8 -3.2 0
v -60.8 -2.56 0
v -60.16 -2.56 0
v -60.8 -3.2 0
v -61.44 -3.2 0
v -61.44 -2.56 0
v -60.8 -2.56 0
v -62.72 -3.2 0
v -63.36 -3.2 0
v -63.36 -2.56 0
v -62.72 -2.56 0
v -63.36 -3.2 0
v -64 -3.2 0
v -64 -2.56 0
v -63.36 -2.56 0
v -1.28 -3.84 0
v -1.92 -3.84 0
v -1.92 -3.2 0
v -1.28 -3.2 0
v -1.92 -3.84 0
v -2.56 -3.84 0
v -2.56 -3.2 0
v -1.92 -3.2 0
v -3.84 -3.84 0
v -4.48 -3.84 0
v -4.48 -3.2 0
v -3.84 -3.2 0
v -4.48 -3.84 0
v -5.12 -3.84 0
v -5.12 -3.2 0
v -4.48 -3.2 0
v -6.4 -3.84 0
v -7.04 -3.84 0
v -7.04 -3.2 0
v -6.4 -3.2 0
v -7.04 -3.84 0
v -7.68 -3.84 0
v -7.68 -3.2 0
v -7.04 -3.2 0
v -6.4 -5.12 0
v -7.04 -5.12 0
v -7.04 -4.48 0
v -6.4 -4.48 0
v -7.04 -5.12 0
v -7.68 -5.12 0
v -7.68 -4.48 0
v -7.04 -4.48 0
v -16.64 -5.12 0
v -17.28 -5.12 0
v -17.28 -4.48 0
v -16.64 -4.48 0
v -17.28 -5.12 0
v -17.92 -5.12 0
v -17.92 -4.48 0
v -17.28 -4.48 0
v -24.32 -5.12 0
v -24.96 -5.12 0
v -24.96 -4.48 0
v -24.32 -4.48 0
v -24.96 -5.12 0
v -25.6 -5.12 0
v -25.6 -4.48 0
v -24.96 -4.48 0
v -26.88 -5.12 0
v -27.52 -5.12 0
v -27.52 -4.48 0
v -26.88 -4.48 0
v -27.52 -5.12 0
v -28.16 -5.12 0
v -28.16 -4.48 0
v -27.52 -4.48 0
v -34.56 -5.12 0
v -35.2 -5.12 0
v -35.2 -4.48 0
v -34.56 -4.48 0
v -35.2 -5.12 0
v -35.84 -5.12 0
v -35.84 -4.48 0
v -35.2 -4.48 0
v -37.12 -5.12 0
v -37.76 -5.12 0
v -37.76 -4.48 0
v -37.12 -4.48 0
v -37.76 -5.12 0
v -38.4 -5.12 0
v -38.4 -4.48 0
v -37.76 -4.48 0
v -43.52 -7.04 0
v -44.16 -7.04 0
v -44.16 -6.4 0
v -43.52 -6.4 0
v -44.16 -7.04 0
v -44.8 -7.04 0
v -44.8 -6.4 0
v -44.16 -6.4 0
v -44.8 -7.04 0
v -45.44 -7.04 0
v -45.44 -6.4 0
v -44.8 -6.4 0
v -45.44 -7.04 0
v -46.08 -7.04 0
v -46.08 -6.4 0
v -45.44 -6.4 0
v -53.76 -7.04 0
v -54.4 -7.04 0
v -54.4 -6.4 0
v -53.76 -6.4 0
v -54.4 -7.04 0
v -55.04 -7.04 0
v -55.04 -6.4 0
v -54.4 -6.4 0
v -55.04 -7.04 0
v -55.68 -7.04 0
v -55.68 -6.4 0
v -55.04 -6.4 0
v -55.68 -7.04 0
v -56.32 -7.04 0
v -56.32 -6.4 0
v -55.68 -6.4 0
v -19.2 -7.68 0
v -19.84 -7.68 0
v -19.84 -7.04 0
v -19.2 -7.04 0
v -19.84 -7.68 0
v -20.48 -7.68 0
v -20.48 -7.04 0
v -19.84 -7.04 0
v -20.48 -7.68 0
v -21.12 -7.68 0
v -21.12 -7.04 0
v -20.48 -7.04 0
v -21.12 -7.68 0
v -21.76 -7.68 0
v -21.76 -7.04 0
v -21.12 -7.04 0
v -21.76 -7.68 0
v -22.4 -7.68 0
v -22.4 -7.04 0
v -21.76 -7.04 0
v -22.4 -7.68 0
v -23.04 -7.68 0
v -23.04 -7.04 0
v -22.4 -7.04 0
v -29.44 -7.68 0
v -30.08 -7.68 0
v -30.08 -7.04 0
v -29.44 -7.04 0
v -30.08 -7.68 0
v -30.72 -7.68 0
v -30.72 -7.04 0
v -30.08 -7.04 0
v -30.72 -7.68 0
v -31.36 -7.68 0
v -31.36 -7.04 0
v -30.72 -7.04 0
v -31.36 -7.68 0
v -32 -7.68 0
v -32 -7.04 0
v -31.36 -7.04 0
v -32 -7.68 0
v -32.64 -7.68 0
v -32.64 -7.04 0
v -32 -7.04 0
v -32.64 -7.68 0
v -33.28 -7.68 0
v -33.28 -7.04 0
v -32.64 -7.04 0
v -55.04 -8.32 0
v -55.68 -8.32 0
v -55.68 -7.68 0
v -55.04 -7.68 0
v -55.68 -8.32 0
v -56.32 -8.32 0
v -56.32 -7.68 0
v -55.68 -7.68 0
v -57.6 -8.32 0
v -58.24 -8.32 0
v -58.24 -7.68 0
v -57.6 -7.68 0
v -58.24 -8.32 0
v -58.88 -8.32 0
v -58.88 -7.68 0
v -58.24 -7.68 0
v -60.16 -8.32 0
v -60.8 -8.32 0
v -60.8 -7.68 0
v -60.16 -7.68 0
v -60.8 -8.32 0
v -61.44 -8.32 0
v -61.44 -7.68 0
v -60.8 -7.68 0
v -1.28 -8.96 0
v -1.92 -8.96 0
v -1.92 -8.32 0
v -1.28 -8.32 0
v -1.92 -8.96 0
v -2.56 -8.96 0
v -2.56 -8.32 0
v -1.92 -8.32 0
v -3.84 -8.96 0
v -4.48 -8.96 0
v -4.48 -8.32 0
v -3.84 -8.32 0
v -4.48 -8.96 0
v -5.12 -8.96 0
v -5.12 -8.32 0
v -4.48 -8.32 0
v -6.4 -8.96 0
v -7.04 -8.96 0
v -7.04 -8.32 0
v -6.4 -8.32 0
v -7.04 -8.96 0
v -7.68 -8.96 0
v -7.68 -8.32 0
v -7.04 -8.32 0
v -7.68 -8.96 0
v -8.32 -8.96 0
v -8.32 -8.32 0
v -7.68 -8.32 0
v -8.32 -8.96 0
v -8.96 -8.96 0
v -8.96 -8.32 0
v -8.32 -8.32 0
v -8.96 -8.96 0
v -9.599999 -8.96 0
v -9.599999 -8.32 0
v -8.96 -8.32 0
v -9.599999 -8.96 0
v -10.24 -8.96 0
v -10.24 -8.32 0
v -9.599999 -8.32 0
v -10.24 -8.96 0
v -10.88 -8.96 0
v -10.88 -8.32 0
v -10.24 -8.32 0
v -10.88 -8.96 0
v -11.52 -8.96 0
v -11.52 -8.32 0
v -10.88 -8.32 0
v -11.52 -8.96 0
v -12.16 -8.96 0
v -12.16 -8.32 0
v -11.52 -8.32 0
v -12.16 -8.96 0
v -12.8 -8.96 0
v -12.8 -8.32 0
v -12.16 -8.32 0
v -14.08 -8.96 0
v -14.72 -8.96 0
v -14.72 -8.32 0
v -14.08 -8.32 0
v -14.72 -8.96 0
v -15.36 -8.96 0
v -15.36 -8.32 0
v -14.72 -8.32 0
v -16.64 -8.96 0
v -17.28 -8.96 0
v -17.28 -8.32 0
v -16.64 -8.32 0
v -17.28 -8.96 0
v -17.92 -8.96 0
v -17.92 -8.32 0
v -17.28 -8.32 0
v -17.92 -8.96 0
v -18.56 -8.96 0
v -18.56 -8.32 0
v -17.92 -8.32 0
v -18.56 -8.96 0
v -19.2 -8.96 0
v -19.2 -8.32 0
v -18.56 -8.32 0
v -19.2 -8.96 0
v -19.84 -8.96 0
v -19.84 -8.32 0
v -19.2 -8.32 0
v -19.84 -8.96 0
v -20.48 -8.96 0
v -20.48 -8.32 0
v -19.84 -8.32 0
v -20.48 -8.96 0
v -21.12 -8.96 0
v -21.12 -8.32 0
v -20.48 -8.32 0
v -21.12 -8.96 0
v -21.76 -8.96 0
v -21.76 -8.32 0
v -21.12 -8.32 0
v -21.76 -8.96 0
v -22.4 -8.96 0
v -22.4 -8.32 0
v -21.76 -8.32 0
v -22.4 -8.96 0
v -23.04 -8.96 0
v -23.04 -8.32 0
v -22.4 -8.32 0
v -24.32 -8.96 0
v -24.96 -8.96 0
v -24.96 -8.32 0
v -24.32 -8.32 0
v -24.96 -8.96 0
v -25.6 -8.96 0
v -25.6 -8.32 0
v -24.96 -8.32 0
v -26.88 -8.96 0
v -27.52 -8.96 0
v -27.52 -8.32 0
v -26.88 -8.32 0
v -27.52 -8.96 0
v -28.16 -8.96 0
v -28.16 -8.32 0
v -27.52 -8.32 0
v -32 -8.96 0
v -32.64 -8.96 0
v -32.64 -8.32 0
v -32 -8.32 0
v -32.64 -8.96 0
v -33.28 -8.96 0
v -33.28 -8.32 0
v -32.64 -8.32 0
v -34.56 -8.96 0
v -35.2 -8.96 0
v -35.2 -8.32 0
v -34.56 -8.32 0
v -35.2 -8.96 0
v -35.84 -8.96 0
v -35.84 -8.32 0
v -35.2 -8.32 0
v -37.12 -8.96 0
v -37.76 -8.96 0
v -37.76 -8.32 0
v -37.12 -8.32 0
v -37.76 -8.96 0
v -38.4 -8.96 0
v -38.4 -8.32 0
v -37.76 -8.32 0
v -42.24 -8.96 0
v -42.88 -8.96 0
v -42.88 -8.32 0
v -42.24 -8.32 0
v -42.88 -8.96 0
v -43.52 -8.96 0
v -43.52 -8.32 0
v -42.88 -8.32 0
v -44.8 -8.96 0
v -45.44 -8.96 0
v -45.44 -8.32 0
v -44.8 -8.32 0
v -45.44 -8.96 0
v -46.08 -8.96 0
v -46.08 -8.32 0
v -45.44 -8.32 0
v -47.36 -8.96 0
v -48 -8.96 0
v -48 -8.32 0
v -47.36 -8.32 0
v -48 -8.96 0
v -48.64 -8.96 0
v -48.64 -8.32 0
v -48 -8.32 0
v -49.92 -8.96 0
v -50.56 -8.96 0
v -50.56 -8.32 0
v -49.92 -8.32 0
v -50.56 -8.96 0
v -51.2 -8.96 0
v -51.2 -8.32 0
v -50.56 -8.32 0
v -52.48 -8.96 0
v -53.12 -8.96 0
v -53.12 -8.32 0
v -52.48 -8.32 0
v -53.12 -8.96 0
v -53.76 -8.96 0
v -53.76 -8.32 0
v -53.12 -8.32 0
v -55.04 -8.96 0
v -55.68 -8.96 0
v -55.68 -8.32 0
v -55.04 -8.32 0
v -55.68 -8.96 0
v -56.32 -8.96 0
v -56.32 -8.32 0
v -55.68 -8.32 0
v -60.16 -8.96 0
v -60.8 -8.96 0
v -60.8 -8.32 0
v -60.16 -8.32 0
v -60.8 -8.96 0
v -61.44 -8.96 0
v -61.44 -8.32 0
v -60.8 -8.32 0
v -62.72 -8.96 0
v -63.36 -8.96 0
v -63.36 -8.32 0
v -62.72 -8.32 0
v -63.36 -8.96 0
v -64 -8.96 0
v -64 -8.32 0
v -63.36 -8.32 0
v -1.28 -9.599999 0
v -1.92 -9.599999 0
v -1.92 -8.96 0
v -1.28 -8.96 0
v -1.92 -9.599999 0
v -2.56 -9.599999 0
v -2.56 -8.96 0
v -1.92 -8.96 0
v -8.96 -9.599999 0
v -9.599999 -9.599999 0
v -9.599999 -8.96 0
v -8.96 -8.96 0
v -9.599999 -9.599999 0
v -10.24 -9.599999 0
v -10.24 -8.96 0
v -9.599999 -8.96 0
v -11.52 -9.599999 0
v -12.16 -9.599999 0
v -12.16 -8.96 0
v -11.52 -8.96 0
v -12.16 -9.599999 0
v -12.8 -9.599999 0
v -12.8 -8.96 0
v -12.16 -8.96 0
v -12.8 -9.599999 0
v -13.44 -9.599999 0
v -13.44 -8.96 0
v -12.8 -8.96 0
v -13.44 -9.599999 0
v -14.08 -9.599999 0
v -14.08 -8.96 0
v -13.44 -8.96 0
v -14.08 -9.599999 0
v -14.72 -9.599999 0
v -14.72 -8.96 0
v -14.08 -8.96 0
v -14.72 -9.599999 0
v -15.36 -9.599999 0
v -15.36 -8.96 0
v -14.72 -8.96 0
v -19.2 -9.599999 0
v -19.84 -9.599999 0
v -19.84 -8.96 0
v -19.2 -8.96 0
v -19.84 -9.599999 0
v -20.48 -9.599999 0
v -20.48 -8.96 0
v -19.84 -8.96 0
v -21.76 -9.599999 0
v -22.4 -9.599999 0
v -22.4 -8.96 0
v -21.76 -8.96 0
v -22.4 -9.599999 0
v -23.04 -9.599999 0
v -23.04 -8.96 0
v -22.4 -8.96 0
v -23.04 -9.599999 0
v -23.68 -9.599999 0
v -23.68 -8.96 0
v -23.04 -8.96 0
v -23.68 -9.599999 0
v -24.32 -9.599999 0
v -24.32 -8.96 0
v -23.68 -8.96 0
v -24.32 -9.599999 0
v -24.96 -9.599999 0
v -24.96 -8.96 0
v -24.32 -8.96 0
v -24.96 -9.599999 0
v -25.6 -9.599999 0
v -25.6 -8.96 0
v -24.96 -8.96 0
v -26.88 -10.24 0
v -27.52 -10.24 0
v -27.52 -9.599999 0
v -26.88 -9.599999 0
v -27.52 -10.24 0
v -28.16 -10.24 0
v -28.16 -9.599999 0
v -27.52 -9.599999 0
v -37.12 -10.24 0
v -37.76 -10.24 0
v -37.76 -9.599999 0
v -37.12 -9.599999 0
v -37.76 -10.24 0
v -38.4 -10.24 0
v -38.4 -9.599999 0
v -37.76 -9.599999 0
v -43.52 -10.24 0
v -44.16 -10.24 0
v -44.16 -9.599999 0
v -43.52 -9.599999 0
v -44.16 -10.24 0
v -44.8 -10.24 0
v -44.8 -9.599999 0
v -44.16 -9.599999 0
v -44.8 -10.24 0
v -45.44 -10.24 0
v -45.44 -9.599999 0
v -44.8 -9.599999 0
v -45.44 -10.24 0
v -46.08 -10.24 0
v -46.08 -9.599999 0
v -45.44 -9.599999 0
v -46.08 -10.24 0
v -46.72 -10.24 0
v -46.72 -9.599999 0
v -46.08 -9.599999 0
v -46.72 -10.24 0
v -47.36 -10.24 0
v -47.36 -9.599999 0
v -46.72 -9.599999 0
v -47.36 -10.24 0
v -48 -10.24 0
v -48 -9.599999 0
v -47.36 -9.599999 0
v -48 -10.24 0
v -48.64 -10.24 0
v -48.64 -9.599999 0
v -48 -9.599999 0
v -53.76 -10.24 0
v -54.4 -10.24 0
v -54.4 -9.599999 0
v -53.76 -9.599999 0
v -54.4 -10.24 0
v -55.04 -10.24 0
v -55.04 -9.599999 0
v -54.4 -9.599999 0
v -55.04 -10.24 0
v -55.68 -10.24 0
v -55.68 -9.599999 0
v -55.04 -9.599999 0
v -55.68 -10.24 0
v -56.32 -10.24 0
v -56.32 -9.599999 0
v -55.68 -9.599999 0
v -56.32 -10.24 0
v -56.96 -10.24 0
v -56.96 -9.599999 0
v -56.32 -9.599999 0
v -56.96 -10.24 0
v -57.6 -10.24 0
v -57.6 -9.599999 0
v -56.96 -9.599999 0
v -57.6 -10.24 0
v -58.24 -10.24 0
v -58.24 -9.599999 0
v -57.6 -9.599999 0
v -58.24 -10.24 0
v -58.88 -10.24 0
v -58.88 -9.599999 0
v -58.24 -9.599999 0
v -3.84 -10.88 0
v -4.48 -10.88 0
v -4.48 -10.24 0
v -3.84 -10.24 0
v -4.48 -10.88 0
v -5.12 -10.88 0
v -5.12 -10.24 0
v -4.48 -10.24 0
v -14.08 -10.88 0
v -14.72 -10.88 0
v -14.72 -10.24 0
v -14.08 -10.24 0
v -14.72 -10.88 0
v -15.36 -10.88 0
v -15.36 -10.24 0
v -14.72 -10.24 0
v -24.32 -10.88 0
v -24.96 -10.88 0
v -24.96 -10.24 0
v -24.32 -10.24 0
v -24.96 -10.88 0
v -25.6 -10.88 0
v -25.6 -10.24 0
v -24.96 -10.24 0
v -34.56 -10.88 0
v -35.2 -10.88 0
v -35.2 -10.24 0
v -34.56 -10.24 0
v -35.2 -10.88 0
v -35.84 -10.88 0
v -35.84 -10.24 0
v -35.2 -10.24 0
v -40.96 -10.88 0
v -41.6 -10.88 0
v -41.6 -10.24 0
v -40.96 -10.24 0
v -41.6 -10.88 0
v -42.24 -10.88 0
v -42.24 -10.24 0
v -41.6 -10.24 0
v -42.24 -10.88 0
v -42.88 -10.88 0
v -42.88 -10.24 0
v -42.24 -10.24 0
v -42.88 -10.88 0
v -43.52 -10.88 0
v -43.52 -10.24 0
v -42.88 -10.24 0
v -43.52 -10.88 0
v -44.16 -10.88 0
v -44.16 -10.24 0
v -43.52 -10.24 0
v -44.16 -10.88 0
v -44.8 -10.88 0
v -44.8 -10.24 0
v -44.16 -10.24 0
v -44.8 -10.88 0
v -45.44 -10.88 0
v -45.44 -10.24 0
v -44.8 -10.24 0
v -45.44 -10.88 0
v -46.08 -10.88 0
v -46.08 -10.24 0
v -45.44 -10.24 0
v -51.2 -10.88 0
v -51.84 -10.88 0
v -51.84 -10.24 0
v -51.2 -10.24 0
v -51.84 -10.88 0
v -52.48 -10.88 0
v -52.48 -10.24 0
v -51.84 -10.24 0
v -52.48 -10.88 0
v -53.12 -10.88 0
v -53.12 -10.24 0
v -52.48 -10.24 0
v -53.12 -10.88 0
v -53.76 -10.88 0
v -53.76 -10.24 0
v -53.12 -10.24 0
v -53.76 -10.88 0
v -54.4 -10.88 0
v -54.4 -10.24 0
v -53.76 -10.24 0
v -54.4 -10.88 0
v -55.04 -10.88 0
v -55.04 -10.24 0
v -54.4 -10.24 0
v -55.04 -10.88 0
v -55.68 -10.88 0
v -55.68 -10.24 0
v -55.04 -10.24 0
v -55.68 -10.88 0
v -56.32 -10.88 0
v -56.32 -10.24 0
v -55.68 -10.24 0

# Texture cooridinates (Count = 9)
vt 0.0625 0.96875
vt 0.09375 0.96875
vt 0.09375 1
vt 0.0625 1
vt 0.125 0.96875
vt 0.125 1
vt 0.0625 0.9375
vt 0.09375 0.9375
vt 0.125 0.9375

# Normal
vn 0 0 -1

# Mesh description
g NewBadManor_mesh_0101

# Faces
f 1/1/1 2/2/1 3/3/1 4/4/1
f 5/2/1 6/5/1 7/6/1 8/3/1
f 9/7/1 10/8/1 11/2/1 12/1/1
f 13/8/1 14/9/1 15/5/1 16/2/1
f 17/1/1 18/2/1 19/3/1 20/4/1
f 21/2/1 22/5/1 23/6/1 24/3/1
f 25/7/1 26/8/1 27/2/1 28/1/1
f 29/8/1 30/9/1 31/5/1 32/2/1
f 33/1/1 34/2/1 35/3/1 36/4/1
f 37/2/1 38/5/1 39/6/1 40/3/1
f 41/1/1 42/2/1 43/3/1 44/4/1
f 45/2/1 46/5/1 47/6/1 48/3/1
f 49/7/1 50/8/1 51/2/1 52/1/1
f 53/8/1 54/9/1 55/5/1 56/2/1
f 57/7/1 58/8/1 59/2/1 60/1/1
f 61/8/1 62/9/1 63/5/1 64/2/1
f 65/1/1 66/2/1 67/3/1 68/4/1
f 69/2/1 70/5/1 71/6/1 72/3/1
f 73/1/1 74/2/1 75/3/1 76/4/1
f 77/2/1 78/5/1 79/6/1 80/3/1
f 81/1/1 82/2/1 83/3/1 84/4/1
f 85/2/1 86/5/1 87/6/1 88/3/1
f 89/1/1 90/2/1 91/3/1 92/4/1
f 93/2/1 94/5/1 95/6/1 96/3/1
f 97/7/1 98/8/1 99/2/1 100/1/1
f 101/8/1 102/9/1 103/5/1 104/2/1
f 105/7/1 106/8/1 107/2/1 108/1/1
f 109/8/1 110/9/1 111/5/1 112/2/1
f 113/7/1 114/8/1 115/2/1 116/1/1
f 117/8/1 118/9/1 119/5/1 120/2/1
f 121/7/1 122/8/1 123/2/1 124/1/1
f 125/8/1 126/9/1 127/5/1 128/2/1
f 129/1/1 130/2/1 131/3/1 132/4/1
f 133/2/1 134/5/1 135/6/1 136/3/1
f 137/7/1 138/8/1 139/2/1 140/1/1
f 141/8/1 142/9/1 143/5/1 144/2/1
f 145/1/1 146/2/1 147/3/1 148/4/1
f 149/2/1 150/5/1 151/6/1 152/3/1
f 153/1/1 154/2/1 155/3/1 156/4/1
f 157/2/1 158/5/1 159/6/1 160/3/1
f 161/7/1 162/8/1 163/2/1 164/1/1
f 165/8/1 166/9/1 167/5/1 168/2/1
f 169/7/1 170/8/1 171/2/1 172/1/1
f 173/8/1 174/9/1 175/5/1 176/2/1
f 177/1/1 178/2/1 179/3/1 180/4/1
f 181/2/1 182/5/1 183/6/1 184/3/1
f 185/1/1 186/2/1 187/3/1 188/4/1
f 189/2/1 190/5/1 191/6/1 192/3/1
f 193/7/1 194/8/1 195/2/1 196/1/1
f 197/8/1 198/9/1 199/5/1 200/2/1
f 201/7/1 202/8/1 203/2/1 204/1/1
f 205/8/1 206/9/1 207/5/1 208/2/1
f 209/1/1 210/2/1 211/3/1 212/4/1
f 213/2/1 214/5/1 215/6/1 216/3/1
f 217/1/1 218/2/1 219/3/1 220/4/1
f 221/2/1 222/5/1 223/6/1 224/3/1
f 225/1/1 226/2/1 227/3/1 228/4/1
f 229/2/1 230/5/1 231/6/1 232/3/1
f 233/7/1 234/8/1 235/2/1 236/1/1
f 237/8/1 238/9/1 239/5/1 240/2/1
f 241/7/1 242/8/1 243/2/1 244/1/1
f 245/8/1 246/9/1 247/5/1 248/2/1
f 249/7/1 250/8/1 251/2/1 252/1/1
f 253/8/1 254/9/1 255/5/1 256/2/1
f 257/1/1 258/2/1 259/3/1 260/4/1
f 261/2/1 262/5/1 263/6/1 264/3/1
f 265/1/1 266/2/1 267/3/1 268/4/1
f 269/2/1 270/5/1 271/6/1 272/3/1
f 273/1/1 274/2/1 275/3/1 276/4/1
f 277/2/1 278/5/1 279/6/1 280/3/1
f 281/7/1 282/8/1 283/2/1 284/1/1
f 285/8/1 286/9/1 287/5/1 288/2/1
f 289/7/1 290/8/1 291/2/1 292/1/1
f 293/8/1 294/9/1 295/5/1 296/2/1
f 297/7/1 298/8/1 299/2/1 300/1/1
f 301/8/1 302/9/1 303/5/1 304/2/1
f 305/1/1 306/2/1 307/3/1 308/4/1
f 309/2/1 310/5/1 311/6/1 312/3/1
f 313/1/1 314/2/1 315/3/1 316/4/1
f 317/2/1 318/5/1 319/6/1 320/3/1
f 321/1/1 322/2/1 323/3/1 324/4/1
f 325/2/1 326/5/1 327/6/1 328/3/1
f 329/1/1 330/2/1 331/3/1 332/4/1
f 333/2/1 334/5/1 335/6/1 336/3/1
f 337/1/1 338/2/1 339/3/1 340/4/1
f 341/2/1 342/5/1 343/6/1 344/3/1
f 345/1/1 346/2/1 347/3/1 348/4/1
f 349/2/1 350/5/1 351/6/1 352/3/1
f 353/7/1 354/8/1 355/2/1 356/1/1
f 357/8/1 358/9/1 359/5/1 360/2/1
f 361/7/1 362/8/1 363/2/1 364/1/1
f 365/8/1 366/9/1 367/5/1 368/2/1
f 369/7/1 370/8/1 371/2/1 372/1/1
f 373/8/1 374/9/1 375/5/1 376/2/1
f 377/7/1 378/8/1 379/2/1 380/1/1
f 381/8/1 382/9/1 383/5/1 384/2/1
f 385/7/1 386/8/1 387/2/1 388/1/1
f 389/8/1 390/9/1 391/5/1 392/2/1
f 393/7/1 394/8/1 395/2/1 396/1/1
f 397/8/1 398/9/1 399/5/1 400/2/1
f 401/1/1 402/2/1 403/3/1 404/4/1
f 405/2/1 406/5/1 407/6/1 408/3/1
f 409/1/1 410/2/1 411/3/1 412/4/1
f 413/2/1 414/5/1 415/6/1 416/3/1
f 417/1/1 418/2/1 419/3/1 420/4/1
f 421/2/1 422/5/1 423/6/1 424/3/1
f 425/7/1 426/8/1 427/2/1 428/1/1
f 429/8/1 430/9/1 431/5/1 432/2/1
f 433/7/1 434/8/1 435/2/1 436/1/1
f 437/8/1 438/9/1 439/5/1 440/2/1
f 441/7/1 442/8/1 443/2/1 444/1/1
f 445/8/1 446/9/1 447/5/1 448/2/1
f 449/1/1 450/2/1 451/3/1 452/4/1
f 453/2/1 454/5/1 455/6/1 456/3/1
f 457/1/1 458/2/1 459/3/1 460/4/1
f 461/2/1 462/5/1 463/6/1 464/3/1
f 465/1/1 466/2/1 467/3/1 468/4/1
f 469/2/1 470/5/1 471/6/1 472/3/1
f 473/7/1 474/8/1 475/2/1 476/1/1
f 477/8/1 478/9/1 479/5/1 480/2/1
f 481/7/1 482/8/1 483/2/1 484/1/1
f 485/8/1 486/9/1 487/5/1 488/2/1
f 489/7/1 490/8/1 491/2/1 492/1/1
f 493/8/1 494/9/1 495/5/1 496/2/1
f 497/1/1 498/2/1 499/3/1 500/4/1
f 501/2/1 502/5/1 503/6/1 504/3/1
f 505/1/1 506/2/1 507/3/1 508/4/1
f 509/2/1 510/5/1 511/6/1 512/3/1
f 513/1/1 514/2/1 515/3/1 516/4/1
f 517/2/1 518/5/1 519/6/1 520/3/1
f 521/1/1 522/2/1 523/3/1 524/4/1
f 525/2/1 526/5/1 527/6/1 528/3/1
f 529/7/1 530/8/1 531/2/1 532/1/1
f 533/8/1 534/9/1 535/5/1 536/2/1
f 537/7/1 538/8/1 539/2/1 540/1/1
f 541/8/1 542/9/1 543/5/1 544/2/1
f 545/7/1 546/8/1 547/2/1 548/1/1
f 549/8/1 550/9/1 551/5/1 552/2/1
f 553/7/1 554/8/1 555/2/1 556/1/1
f 557/8/1 558/9/1 559/5/1 560/2/1
f 561/1/1 562/2/1 563/3/1 564/4/1
f 565/2/1 566/5/1 567/6/1 568/3/1
f 569/7/1 570/8/1 571/2/1 572/1/1
f 573/8/1 574/9/1 575/5/1 576/2/1
f 577/1/1 578/2/1 579/3/1 580/4/1
f 581/2/1 582/5/1 583/6/1 584/3/1
f 585/1/1 586/2/1 587/3/1 588/4/1
f 589/2/1 590/5/1 591/6/1 592/3/1
f 593/1/1 594/2/1 595/3/1 596/4/1
f 597/2/1 598/5/1 599/6/1 600/3/1
f 601/1/1 602/2/1 603/3/1 604/4/1
f 605/2/1 606/5/1 607/6/1 608/3/1
f 609/7/1 610/8/1 611/2/1 612/1/1
f 613/8/1 614/9/1 615/5/1 616/2/1
f 617/7/1 618/8/1 619/2/1 620/1/1
f 621/8/1 622/9/1 623/5/1 624/2/1
f 625/7/1 626/8/1 627/2/1 628/1/1
f 629/8/1 630/9/1 631/5/1 632/2/1
f 633/7/1 634/8/1 635/2/1 636/1/1
f 637/8/1 638/9/1 639/5/1 640/2/1
f 641/1/1 642/2/1 643/3/1 644/4/1
f 645/2/1 646/5/1 647/6/1 648/3/1
f 649/7/1 650/8/1 651/2/1 652/1/1
f 653/8/1 654/9/1 655/5/1 656/2/1
f 657/1/1 658/2/1 659/3/1 660/4/1
f 661/2/1 662/5/1 663/6/1 664/3/1
f 665/7/1 666/8/1 667/2/1 668/1/1
f 669/8/1 670/9/1 671/5/1 672/2/1
f 673/1/1 674/2/1 675/3/1 676/4/1
f 677/2/1 678/5/1 679/6/1 680/3/1
f 681/1/1 682/2/1 683/3/1 684/4/1
f 685/2/1 686/5/1 687/6/1 688/3/1
f 689/1/1 690/2/1 691/3/1 692/4/1
f 693/2/1 694/5/1 695/6/1 696/3/1
f 697/1/1 698/2/1 699/3/1 700/4/1
f 701/2/1 702/5/1 703/6/1 704/3/1
f 705/7/1 706/8/1 707/2/1 708/1/1
f 709/8/1 710/9/1 711/5/1 712/2/1
f 713/7/1 714/8/1 715/2/1 716/1/1
f 717/8/1 718/9/1 719/5/1 720/2/1
f 721/7/1 722/8/1 723/2/1 724/1/1
f 725/8/1 726/9/1 727/5/1 728/2/1
f 729/7/1 730/8/1 731/2/1 732/1/1
f 733/8/1 734/9/1 735/5/1 736/2/1

