# Tiled2Unity generated file. Do not modify by hand.
# Wavefront file for 'NewBadManor_mesh_0075.obj'

# Vertices (Count = 812)
v -6.4 -0.64 0
v -7.04 -0.64 0
v -7.04 0 0
v -6.4 0 0
v -7.04 -0.64 0
v -7.68 -0.64 0
v -7.68 0 0
v -7.04 0 0
v -7.68 -0.64 0
v -8.32 -0.64 0
v -8.32 0 0
v -7.68 0 0
v -8.32 -0.64 0
v -8.96 -0.64 0
v -8.96 0 0
v -8.32 0 0
v -8.96 -0.64 0
v -9.599999 -0.64 0
v -9.599999 0 0
v -8.96 0 0
v -9.599999 -0.64 0
v -10.24 -0.64 0
v -10.24 0 0
v -9.599999 0 0
v -16.64 -0.64 0
v -17.28 -0.64 0
v -17.28 0 0
v -16.64 0 0
v -17.28 -0.64 0
v -17.92 -0.64 0
v -17.92 0 0
v -17.28 0 0
v -17.92 -0.64 0
v -18.56 -0.64 0
v -18.56 0 0
v -17.92 0 0
v -18.56 -0.64 0
v -19.2 -0.64 0
v -19.2 0 0
v -18.56 0 0
v -19.2 -0.64 0
v -19.84 -0.64 0
v -19.84 0 0
v -19.2 0 0
v -19.84 -0.64 0
v -20.48 -0.64 0
v -20.48 0 0
v -19.84 0 0
v -26.88 -0.64 0
v -27.52 -0.64 0
v -27.52 0 0
v -26.88 0 0
v -27.52 -0.64 0
v -28.16 -0.64 0
v -28.16 0 0
v -27.52 0 0
v -28.16 -0.64 0
v -28.8 -0.64 0
v -28.8 0 0
v -28.16 0 0
v -28.8 -0.64 0
v -29.44 -0.64 0
v -29.44 0 0
v -28.8 0 0
v -29.44 -0.64 0
v -30.08 -0.64 0
v -30.08 0 0
v -29.44 0 0
v -30.08 -0.64 0
v -30.72 -0.64 0
v -30.72 0 0
v -30.08 0 0
v -37.12 -0.64 0
v -37.76 -0.64 0
v -37.76 0 0
v -37.12 0 0
v -37.76 -0.64 0
v -38.4 -0.64 0
v -38.4 0 0
v -37.76 0 0
v -38.4 -0.64 0
v -39.04 -0.64 0
v -39.04 0 0
v -38.4 0 0
v -39.04 -0.64 0
v -39.68 -0.64 0
v -39.68 0 0
v -39.04 0 0
v -39.68 -0.64 0
v -40.32 -0.64 0
v -40.32 0 0
v -39.68 0 0
v -40.32 -0.64 0
v -40.96 -0.64 0
v -40.96 0 0
v -40.32 0 0
v -47.36 -0.64 0
v -48 -0.64 0
v -48 0 0
v -47.36 0 0
v -48 -0.64 0
v -48.64 -0.64 0
v -48.64 0 0
v -48 0 0
v -48.64 -0.64 0
v -49.28 -0.64 0
v -49.28 0 0
v -48.64 0 0
v -49.28 -0.64 0
v -49.92 -0.64 0
v -49.92 0 0
v -49.28 0 0
v -49.92 -0.64 0
v -50.56 -0.64 0
v -50.56 0 0
v -49.92 0 0
v -50.56 -0.64 0
v -51.2 -0.64 0
v -51.2 0 0
v -50.56 0 0
v -57.6 -0.64 0
v -58.24 -0.64 0
v -58.24 0 0
v -57.6 0 0
v -58.24 -0.64 0
v -58.88 -0.64 0
v -58.88 0 0
v -58.24 0 0
v -58.88 -0.64 0
v -59.52 -0.64 0
v -59.52 0 0
v -58.88 0 0
v -59.52 -0.64 0
v -60.16 -0.64 0
v -60.16 0 0
v -59.52 0 0
v -60.16 -0.64 0
v -60.8 -0.64 0
v -60.8 0 0
v -60.16 0 0
v -60.8 -0.64 0
v -61.44 -0.64 0
v -61.44 0 0
v -60.8 0 0
v -3.84 -1.28 0
v -4.48 -1.28 0
v -4.48 -0.64 0
v -3.84 -0.64 0
v -4.48 -1.28 0
v -5.12 -1.28 0
v -5.12 -0.64 0
v -4.48 -0.64 0
v -5.12 -1.28 0
v -5.76 -1.28 0
v -5.76 -0.64 0
v -5.12 -0.64 0
v -5.76 -1.28 0
v -6.4 -1.28 0
v -6.4 -0.64 0
v -5.76 -0.64 0
v -6.4 -1.28 0
v -7.04 -1.28 0
v -7.04 -0.64 0
v -6.4 -0.64 0
v -7.04 -1.28 0
v -7.68 -1.28 0
v -7.68 -0.64 0
v -7.04 -0.64 0
v -35.84 -1.92 0
v -36.48 -1.92 0
v -36.48 -1.28 0
v -35.84 -1.28 0
v -36.48 -1.92 0
v -37.12 -1.92 0
v -37.12 -1.28 0
v -36.48 -1.28 0
v -37.12 -1.92 0
v -37.76 -1.92 0
v -37.76 -1.28 0
v -37.12 -1.28 0
v -37.76 -1.92 0
v -38.4 -1.92 0
v -38.4 -1.28 0
v -37.76 -1.28 0
v -38.4 -1.92 0
v -39.04 -1.92 0
v -39.04 -1.28 0
v -38.4 -1.28 0
v -39.04 -1.92 0
v -39.68 -1.92 0
v -39.68 -1.28 0
v -39.04 -1.28 0
v -39.68 -1.92 0
v -40.32 -1.92 0
v -40.32 -1.28 0
v -39.68 -1.28 0
v -40.32 -1.92 0
v -40.96 -1.92 0
v -40.96 -1.28 0
v -40.32 -1.28 0
v -40.96 -1.92 0
v -41.6 -1.92 0
v -41.6 -1.28 0
v -40.96 -1.28 0
v -41.6 -1.92 0
v -42.24 -1.92 0
v -42.24 -1.28 0
v -41.6 -1.28 0
v -42.24 -1.92 0
v -42.88 -1.92 0
v -42.88 -1.28 0
v -42.24 -1.28 0
v -42.88 -1.92 0
v -43.52 -1.92 0
v -43.52 -1.28 0
v -42.88 -1.28 0
v -43.52 -1.92 0
v -44.16 -1.92 0
v -44.16 -1.28 0
v -43.52 -1.28 0
v -44.16 -1.92 0
v -44.8 -1.92 0
v -44.8 -1.28 0
v -44.16 -1.28 0
v -44.8 -1.92 0
v -45.44 -1.92 0
v -45.44 -1.28 0
v -44.8 -1.28 0
v -45.44 -1.92 0
v -46.08 -1.92 0
v -46.08 -1.28 0
v -45.44 -1.28 0
v -46.08 -1.92 0
v -46.72 -1.92 0
v -46.72 -1.28 0
v -46.08 -1.28 0
v -46.72 -1.92 0
v -47.36 -1.92 0
v -47.36 -1.28 0
v -46.72 -1.28 0
v -47.36 -1.92 0
v -48 -1.92 0
v -48 -1.28 0
v -47.36 -1.28 0
v -48 -1.92 0
v -48.64 -1.92 0
v -48.64 -1.28 0
v -48 -1.28 0
v -48.64 -1.92 0
v -49.28 -1.92 0
v -49.28 -1.28 0
v -48.64 -1.28 0
v -49.28 -1.92 0
v -49.92 -1.92 0
v -49.92 -1.28 0
v -49.28 -1.28 0
v -49.92 -1.92 0
v -50.56 -1.92 0
v -50.56 -1.28 0
v -49.92 -1.28 0
v -50.56 -1.92 0
v -51.2 -1.92 0
v -51.2 -1.28 0
v -50.56 -1.28 0
v -51.2 -1.92 0
v -51.84 -1.92 0
v -51.84 -1.28 0
v -51.2 -1.28 0
v -51.84 -1.92 0
v -52.48 -1.92 0
v -52.48 -1.28 0
v -51.84 -1.28 0
v -52.48 -1.92 0
v -53.12 -1.92 0
v -53.12 -1.28 0
v -52.48 -1.28 0
v -53.12 -1.92 0
v -53.76 -1.92 0
v -53.76 -1.28 0
v -53.12 -1.28 0
v -53.76 -1.92 0
v -54.4 -1.92 0
v -54.4 -1.28 0
v -53.76 -1.28 0
v -54.4 -1.92 0
v -55.04 -1.92 0
v -55.04 -1.28 0
v -54.4 -1.28 0
v -55.04 -1.92 0
v -55.68 -1.92 0
v -55.68 -1.28 0
v -55.04 -1.28 0
v -55.68 -1.92 0
v -56.32 -1.92 0
v -56.32 -1.28 0
v -55.68 -1.28 0
v -56.32 -1.92 0
v -56.96 -1.92 0
v -56.96 -1.28 0
v -56.32 -1.28 0
v -56.96 -1.92 0
v -57.6 -1.92 0
v -57.6 -1.28 0
v -56.96 -1.28 0
v -57.6 -1.92 0
v -58.24 -1.92 0
v -58.24 -1.28 0
v -57.6 -1.28 0
v -58.24 -1.92 0
v -58.88 -1.92 0
v -58.88 -1.28 0
v -58.24 -1.28 0
v -58.88 -1.92 0
v -59.52 -1.92 0
v -59.52 -1.28 0
v -58.88 -1.28 0
v -59.52 -1.92 0
v -60.16 -1.92 0
v -60.16 -1.28 0
v -59.52 -1.28 0
v -60.16 -1.92 0
v -60.8 -1.92 0
v -60.8 -1.28 0
v -60.16 -1.28 0
v -60.8 -1.92 0
v -61.44 -1.92 0
v -61.44 -1.28 0
v -60.8 -1.28 0
v -61.44 -1.92 0
v -62.08 -1.92 0
v -62.08 -1.28 0
v -61.44 -1.28 0
v -62.08 -1.92 0
v -62.72 -1.92 0
v -62.72 -1.28 0
v -62.08 -1.28 0
v -62.72 -1.92 0
v -63.36 -1.92 0
v -63.36 -1.28 0
v -62.72 -1.28 0
v -63.36 -1.92 0
v -64 -1.92 0
v -64 -1.28 0
v -63.36 -1.28 0
v 0 -2.56 0
v -0.64 -2.56 0
v -0.64 -1.92 0
v 0 -1.92 0
v -0.64 -2.56 0
v -1.28 -2.56 0
v -1.28 -1.92 0
v -0.64 -1.92 0
v -1.28 -2.56 0
v -1.92 -2.56 0
v -1.92 -1.92 0
v -1.28 -1.92 0
v -1.92 -2.56 0
v -2.56 -2.56 0
v -2.56 -1.92 0
v -1.92 -1.92 0
v -2.56 -2.56 0
v -3.2 -2.56 0
v -3.2 -1.92 0
v -2.56 -1.92 0
v -3.2 -2.56 0
v -3.84 -2.56 0
v -3.84 -1.92 0
v -3.2 -1.92 0
v -3.84 -2.56 0
v -4.48 -2.56 0
v -4.48 -1.92 0
v -3.84 -1.92 0
v -4.48 -2.56 0
v -5.12 -2.56 0
v -5.12 -1.92 0
v -4.48 -1.92 0
v -5.12 -2.56 0
v -5.76 -2.56 0
v -5.76 -1.92 0
v -5.12 -1.92 0
v -5.76 -2.56 0
v -6.4 -2.56 0
v -6.4 -1.92 0
v -5.76 -1.92 0
v -6.4 -2.56 0
v -7.04 -2.56 0
v -7.04 -1.92 0
v -6.4 -1.92 0
v -7.04 -2.56 0
v -7.68 -2.56 0
v -7.68 -1.92 0
v -7.04 -1.92 0
v -7.68 -2.56 0
v -8.32 -2.56 0
v -8.32 -1.92 0
v -7.68 -1.92 0
v -8.32 -2.56 0
v -8.96 -2.56 0
v -8.96 -1.92 0
v -8.32 -1.92 0
v -8.96 -2.56 0
v -9.599999 -2.56 0
v -9.599999 -1.92 0
v -8.96 -1.92 0
v -9.599999 -2.56 0
v -10.24 -2.56 0
v -10.24 -1.92 0
v -9.599999 -1.92 0
v -10.24 -2.56 0
v -10.88 -2.56 0
v -10.88 -1.92 0
v -10.24 -1.92 0
v -10.88 -2.56 0
v -11.52 -2.56 0
v -11.52 -1.92 0
v -10.88 -1.92 0
v -11.52 -2.56 0
v -12.16 -2.56 0
v -12.16 -1.92 0
v -11.52 -1.92 0
v -12.16 -2.56 0
v -12.8 -2.56 0
v -12.8 -1.92 0
v -12.16 -1.92 0
v -12.8 -2.56 0
v -13.44 -2.56 0
v -13.44 -1.92 0
v -12.8 -1.92 0
v -13.44 -2.56 0
v -14.08 -2.56 0
v -14.08 -1.92 0
v -13.44 -1.92 0
v -14.08 -2.56 0
v -14.72 -2.56 0
v -14.72 -1.92 0
v -14.08 -1.92 0
v -14.72 -2.56 0
v -15.36 -2.56 0
v -15.36 -1.92 0
v -14.72 -1.92 0
v -15.36 -2.56 0
v -16 -2.56 0
v -16 -1.92 0
v -15.36 -1.92 0
v -16 -2.56 0
v -16.64 -2.56 0
v -16.64 -1.92 0
v -16 -1.92 0
v -16.64 -2.56 0
v -17.28 -2.56 0
v -17.28 -1.92 0
v -16.64 -1.92 0
v -17.28 -2.56 0
v -17.92 -2.56 0
v -17.92 -1.92 0
v -17.28 -1.92 0
v -17.92 -2.56 0
v -18.56 -2.56 0
v -18.56 -1.92 0
v -17.92 -1.92 0
v -18.56 -2.56 0
v -19.2 -2.56 0
v -19.2 -1.92 0
v -18.56 -1.92 0
v -19.2 -2.56 0
v -19.84 -2.56 0
v -19.84 -1.92 0
v -19.2 -1.92 0
v -19.84 -2.56 0
v -20.48 -2.56 0
v -20.48 -1.92 0
v -19.84 -1.92 0
v -20.48 -2.56 0
v -21.12 -2.56 0
v -21.12 -1.92 0
v -20.48 -1.92 0
v -21.12 -2.56 0
v -21.76 -2.56 0
v -21.76 -1.92 0
v -21.12 -1.92 0
v -21.76 -2.56 0
v -22.4 -2.56 0
v -22.4 -1.92 0
v -21.76 -1.92 0
v -22.4 -2.56 0
v -23.04 -2.56 0
v -23.04 -1.92 0
v -22.4 -1.92 0
v -23.04 -2.56 0
v -23.68 -2.56 0
v -23.68 -1.92 0
v -23.04 -1.92 0
v -23.68 -2.56 0
v -24.32 -2.56 0
v -24.32 -1.92 0
v -23.68 -1.92 0
v -24.32 -2.56 0
v -24.96 -2.56 0
v -24.96 -1.92 0
v -24.32 -1.92 0
v -24.96 -2.56 0
v -25.6 -2.56 0
v -25.6 -1.92 0
v -24.96 -1.92 0
v -25.6 -2.56 0
v -26.24 -2.56 0
v -26.24 -1.92 0
v -25.6 -1.92 0
v -26.24 -2.56 0
v -26.88 -2.56 0
v -26.88 -1.92 0
v -26.24 -1.92 0
v -26.88 -2.56 0
v -27.52 -2.56 0
v -27.52 -1.92 0
v -26.88 -1.92 0
v -27.52 -2.56 0
v -28.16 -2.56 0
v -28.16 -1.92 0
v -27.52 -1.92 0
v -28.16 -2.56 0
v -28.8 -2.56 0
v -28.8 -1.92 0
v -28.16 -1.92 0
v -28.8 -2.56 0
v -29.44 -2.56 0
v -29.44 -1.92 0
v -28.8 -1.92 0
v -29.44 -2.56 0
v -30.08 -2.56 0
v -30.08 -1.92 0
v -29.44 -1.92 0
v -30.08 -2.56 0
v -30.72 -2.56 0
v -30.72 -1.92 0
v -30.08 -1.92 0
v -30.72 -2.56 0
v -31.36 -2.56 0
v -31.36 -1.92 0
v -30.72 -1.92 0
v -31.36 -2.56 0
v -32 -2.56 0
v -32 -1.92 0
v -31.36 -1.92 0
v -32 -2.56 0
v -32.64 -2.56 0
v -32.64 -1.92 0
v -32 -1.92 0
v -32.64 -2.56 0
v -33.28 -2.56 0
v -33.28 -1.92 0
v -32.64 -1.92 0
v -33.28 -2.56 0
v -33.92 -2.56 0
v -33.92 -1.92 0
v -33.28 -1.92 0
v -33.92 -2.56 0
v -34.56 -2.56 0
v -34.56 -1.92 0
v -33.92 -1.92 0
v -34.56 -2.56 0
v -35.2 -2.56 0
v -35.2 -1.92 0
v -34.56 -1.92 0
v -35.2 -2.56 0
v -35.84 -2.56 0
v -35.84 -1.92 0
v -35.2 -1.92 0
v -35.84 -2.56 0
v -36.48 -2.56 0
v -36.48 -1.92 0
v -35.84 -1.92 0
v -36.48 -2.56 0
v -37.12 -2.56 0
v -37.12 -1.92 0
v -36.48 -1.92 0
v -37.12 -2.56 0
v -37.76 -2.56 0
v -37.76 -1.92 0
v -37.12 -1.92 0
v -37.76 -2.56 0
v -38.4 -2.56 0
v -38.4 -1.92 0
v -37.76 -1.92 0
v -38.4 -2.56 0
v -39.04 -2.56 0
v -39.04 -1.92 0
v -38.4 -1.92 0
v -39.04 -2.56 0
v -39.68 -2.56 0
v -39.68 -1.92 0
v -39.04 -1.92 0
v -39.68 -2.56 0
v -40.32 -2.56 0
v -40.32 -1.92 0
v -39.68 -1.92 0
v -40.32 -2.56 0
v -40.96 -2.56 0
v -40.96 -1.92 0
v -40.32 -1.92 0
v -40.96 -2.56 0
v -41.6 -2.56 0
v -41.6 -1.92 0
v -40.96 -1.92 0
v -41.6 -2.56 0
v -42.24 -2.56 0
v -42.24 -1.92 0
v -41.6 -1.92 0
v -42.24 -2.56 0
v -42.88 -2.56 0
v -42.88 -1.92 0
v -42.24 -1.92 0
v -42.88 -2.56 0
v -43.52 -2.56 0
v -43.52 -1.92 0
v -42.88 -1.92 0
v -7.68 -3.84 0
v -8.32 -3.84 0
v -8.32 -3.2 0
v -7.68 -3.2 0
v -8.32 -3.84 0
v -8.96 -3.84 0
v -8.96 -3.2 0
v -8.32 -3.2 0
v -8.96 -3.84 0
v -9.599999 -3.84 0
v -9.599999 -3.2 0
v -8.96 -3.2 0
v -9.599999 -3.84 0
v -10.24 -3.84 0
v -10.24 -3.2 0
v -9.599999 -3.2 0
v -10.24 -3.84 0
v -10.88 -3.84 0
v -10.88 -3.2 0
v -10.24 -3.2 0
v -10.88 -3.84 0
v -11.52 -3.84 0
v -11.52 -3.2 0
v -10.88 -3.2 0
v -11.52 -3.84 0
v -12.16 -3.84 0
v -12.16 -3.2 0
v -11.52 -3.2 0
v -17.92 -3.84 0
v -18.56 -3.84 0
v -18.56 -3.2 0
v -17.92 -3.2 0
v -18.56 -3.84 0
v -19.2 -3.84 0
v -19.2 -3.2 0
v -18.56 -3.2 0
v -19.2 -3.84 0
v -19.84 -3.84 0
v -19.84 -3.2 0
v -19.2 -3.2 0
v -19.84 -3.84 0
v -20.48 -3.84 0
v -20.48 -3.2 0
v -19.84 -3.2 0
v -20.48 -3.84 0
v -21.12 -3.84 0
v -21.12 -3.2 0
v -20.48 -3.2 0
v -21.12 -3.84 0
v -21.76 -3.84 0
v -21.76 -3.2 0
v -21.12 -3.2 0
v -21.76 -3.84 0
v -22.4 -3.84 0
v -22.4 -3.2 0
v -21.76 -3.2 0
v -28.16 -3.84 0
v -28.8 -3.84 0
v -28.8 -3.2 0
v -28.16 -3.2 0
v -28.8 -3.84 0
v -29.44 -3.84 0
v -29.44 -3.2 0
v -28.8 -3.2 0
v -29.44 -3.84 0
v -30.08 -3.84 0
v -30.08 -3.2 0
v -29.44 -3.2 0
v -30.08 -3.84 0
v -30.72 -3.84 0
v -30.72 -3.2 0
v -30.08 -3.2 0
v -30.72 -3.84 0
v -31.36 -3.84 0
v -31.36 -3.2 0
v -30.72 -3.2 0
v -31.36 -3.84 0
v -32 -3.84 0
v -32 -3.2 0
v -31.36 -3.2 0
v -32 -3.84 0
v -32.64 -3.84 0
v -32.64 -3.2 0
v -32 -3.2 0
v -38.4 -3.84 0
v -39.04 -3.84 0
v -39.04 -3.2 0
v -38.4 -3.2 0
v -39.04 -3.84 0
v -39.68 -3.84 0
v -39.68 -3.2 0
v -39.04 -3.2 0
v -39.68 -3.84 0
v -40.32 -3.84 0
v -40.32 -3.2 0
v -39.68 -3.2 0
v -40.32 -3.84 0
v -40.96 -3.84 0
v -40.96 -3.2 0
v -40.32 -3.2 0
v -40.96 -3.84 0
v -41.6 -3.84 0
v -41.6 -3.2 0
v -40.96 -3.2 0
v -41.6 -3.84 0
v -42.24 -3.84 0
v -42.24 -3.2 0
v -41.6 -3.2 0
v -42.24 -3.84 0
v -42.88 -3.84 0
v -42.88 -3.2 0
v -42.24 -3.2 0
v -48.64 -3.84 0
v -49.28 -3.84 0
v -49.28 -3.2 0
v -48.64 -3.2 0
v -49.28 -3.84 0
v -49.92 -3.84 0
v -49.92 -3.2 0
v -49.28 -3.2 0
v -49.92 -3.84 0
v -50.56 -3.84 0
v -50.56 -3.2 0
v -49.92 -3.2 0
v -50.56 -3.84 0
v -51.2 -3.84 0
v -51.2 -3.2 0
v -50.56 -3.2 0
v -51.2 -3.84 0
v -51.84 -3.84 0
v -51.84 -3.2 0
v -51.2 -3.2 0
v -51.84 -3.84 0
v -52.48 -3.84 0
v -52.48 -3.2 0
v -51.84 -3.2 0
v -52.48 -3.84 0
v -53.12 -3.84 0
v -53.12 -3.2 0
v -52.48 -3.2 0
v -58.88 -3.84 0
v -59.52 -3.84 0
v -59.52 -3.2 0
v -58.88 -3.2 0
v -59.52 -3.84 0
v -60.16 -3.84 0
v -60.16 -3.2 0
v -59.52 -3.2 0
v -60.16 -3.84 0
v -60.8 -3.84 0
v -60.8 -3.2 0
v -60.16 -3.2 0
v -60.8 -3.84 0
v -61.44 -3.84 0
v -61.44 -3.2 0
v -60.8 -3.2 0
v -61.44 -3.84 0
v -62.08 -3.84 0
v -62.08 -3.2 0
v -61.44 -3.2 0
v -62.08 -3.84 0
v -62.72 -3.84 0
v -62.72 -3.2 0
v -62.08 -3.2 0
v -62.72 -3.84 0
v -63.36 -3.84 0
v -63.36 -3.2 0
v -62.72 -3.2 0
v -5.12 -4.48 0
v -5.76 -4.48 0
v -5.76 -3.84 0
v -5.12 -3.84 0
v -5.76 -4.48 0
v -6.4 -4.48 0
v -6.4 -3.84 0
v -5.76 -3.84 0
v -6.4 -4.48 0
v -7.04 -4.48 0
v -7.04 -3.84 0
v -6.4 -3.84 0
v -7.04 -4.48 0
v -7.68 -4.48 0
v -7.68 -3.84 0
v -7.04 -3.84 0
v -7.68 -4.48 0
v -8.32 -4.48 0
v -8.32 -3.84 0
v -7.68 -3.84 0
v -8.32 -4.48 0
v -8.96 -4.48 0
v -8.96 -3.84 0
v -8.32 -3.84 0
v -8.96 -4.48 0
v -9.599999 -4.48 0
v -9.599999 -3.84 0
v -8.96 -3.84 0

# Texture cooridinates (Count = 120)
vt 0.5 0.8125
vt 0.53125 0.8125
vt 0.53125 0.84375
vt 0.5 0.84375
vt 0.5625 0.8125
vt 0.5625 0.84375
vt 0.59375 0.8125
vt 0.59375 0.84375
vt 0.625 0.8125
vt 0.625 0.84375
vt 0.65625 0.8125
vt 0.65625 0.84375
vt 0.6875 0.8125
vt 0.6875 0.84375
vt 0.5 0.78125
vt 0.53125 0.78125
vt 0.5625 0.78125
vt 0.59375 0.78125
vt 0.625 0.78125
vt 0.65625 0.78125
vt 0.6875 0.78125
vt 0.5 0.75
vt 0.53125 0.75
vt 0.5625 0.75
vt 0.59375 0.75
vt 0.625 0.75
vt 0.65625 0.75
vt 0.6875 0.75
vt 0.5 0.71875
vt 0.53125 0.71875
vt 0.5625 0.71875
vt 0.59375 0.71875
vt 0.625 0.71875
vt 0.65625 0.71875
vt 0.6875 0.71875
vt 0.5 0.6875
vt 0.53125 0.6875
vt 0.5625 0.6875
vt 0.59375 0.6875
vt 0.625 0.6875
vt 0.65625 0.6875
vt 0.6875 0.6875
vt 0.5 0.65625
vt 0.53125 0.65625
vt 0.5625 0.65625
vt 0.59375 0.65625
vt 0.625 0.65625
vt 0.65625 0.65625
vt 0.6875 0.65625
vt 0.5 0.625
vt 0.53125 0.625
vt 0.5625 0.625
vt 0.59375 0.625
vt 0.625 0.625
vt 0.65625 0.625
vt 0.6875 0.625
vt 0.71875 0.8125
vt 0.71875 0.84375
vt 0.75 0.8125
vt 0.75 0.84375
vt 0.78125 0.8125
vt 0.78125 0.84375
vt 0.8125 0.8125
vt 0.8125 0.84375
vt 0.84375 0.8125
vt 0.84375 0.84375
vt 0.875 0.8125
vt 0.875 0.84375
vt 0.90625 0.8125
vt 0.90625 0.84375
vt 0.9375 0.8125
vt 0.9375 0.84375
vt 0.71875 0.78125
vt 0.75 0.78125
vt 0.78125 0.78125
vt 0.8125 0.78125
vt 0.84375 0.78125
vt 0.875 0.78125
vt 0.90625 0.78125
vt 0.9375 0.78125
vt 0.71875 0.75
vt 0.75 0.75
vt 0.78125 0.75
vt 0.8125 0.75
vt 0.84375 0.75
vt 0.875 0.75
vt 0.90625 0.75
vt 0.9375 0.75
vt 0.71875 0.71875
vt 0.75 0.71875
vt 0.78125 0.71875
vt 0.8125 0.71875
vt 0.84375 0.71875
vt 0.875 0.71875
vt 0.90625 0.71875
vt 0.9375 0.71875
vt 0.71875 0.6875
vt 0.75 0.6875
vt 0.78125 0.6875
vt 0.8125 0.6875
vt 0.84375 0.6875
vt 0.875 0.6875
vt 0.90625 0.6875
vt 0.9375 0.6875
vt 0.71875 0.65625
vt 0.75 0.65625
vt 0.78125 0.65625
vt 0.8125 0.65625
vt 0.84375 0.65625
vt 0.875 0.65625
vt 0.90625 0.65625
vt 0.9375 0.65625
vt 0.71875 0.625
vt 0.75 0.625
vt 0.78125 0.625
vt 0.8125 0.625
vt 0.84375 0.625
vt 0.875 0.625
vt 0.90625 0.625
vt 0.9375 0.625

# Normal
vn 0 0 -1

# Mesh description
g NewBadManor_mesh_0075

# Faces
f 1/1/1 2/2/1 3/3/1 4/4/1
f 5/2/1 6/5/1 7/6/1 8/3/1
f 9/5/1 10/7/1 11/8/1 12/6/1
f 13/7/1 14/9/1 15/10/1 16/8/1
f 17/9/1 18/11/1 19/12/1 20/10/1
f 21/11/1 22/13/1 23/14/1 24/12/1
f 25/15/1 26/16/1 27/2/1 28/1/1
f 29/16/1 30/17/1 31/5/1 32/2/1
f 33/17/1 34/18/1 35/7/1 36/5/1
f 37/18/1 38/19/1 39/9/1 40/7/1
f 41/19/1 42/20/1 43/11/1 44/9/1
f 45/20/1 46/21/1 47/13/1 48/11/1
f 49/22/1 50/23/1 51/16/1 52/15/1
f 53/23/1 54/24/1 55/17/1 56/16/1
f 57/24/1 58/25/1 59/18/1 60/17/1
f 61/25/1 62/26/1 63/19/1 64/18/1
f 65/26/1 66/27/1 67/20/1 68/19/1
f 69/27/1 70/28/1 71/21/1 72/20/1
f 73/29/1 74/30/1 75/23/1 76/22/1
f 77/30/1 78/31/1 79/24/1 80/23/1
f 81/31/1 82/32/1 83/25/1 84/24/1
f 85/32/1 86/33/1 87/26/1 88/25/1
f 89/33/1 90/34/1 91/27/1 92/26/1
f 93/34/1 94/35/1 95/28/1 96/27/1
f 97/36/1 98/37/1 99/30/1 100/29/1
f 101/37/1 102/38/1 103/31/1 104/30/1
f 105/38/1 106/39/1 107/32/1 108/31/1
f 109/39/1 110/40/1 111/33/1 112/32/1
f 113/40/1 114/41/1 115/34/1 116/33/1
f 117/41/1 118/42/1 119/35/1 120/34/1
f 121/43/1 122/44/1 123/37/1 124/36/1
f 125/44/1 126/45/1 127/38/1 128/37/1
f 129/45/1 130/46/1 131/39/1 132/38/1
f 133/46/1 134/47/1 135/40/1 136/39/1
f 137/47/1 138/48/1 139/41/1 140/40/1
f 141/48/1 142/49/1 143/42/1 144/41/1
f 145/50/1 146/51/1 147/44/1 148/43/1
f 149/51/1 150/52/1 151/45/1 152/44/1
f 153/52/1 154/53/1 155/46/1 156/45/1
f 157/53/1 158/54/1 159/47/1 160/46/1
f 161/54/1 162/55/1 163/48/1 164/47/1
f 165/55/1 166/56/1 167/49/1 168/48/1
f 169/13/1 170/57/1 171/58/1 172/14/1
f 173/57/1 174/59/1 175/60/1 176/58/1
f 177/59/1 178/61/1 179/62/1 180/60/1
f 181/61/1 182/63/1 183/64/1 184/62/1
f 185/63/1 186/65/1 187/66/1 188/64/1
f 189/65/1 190/67/1 191/68/1 192/66/1
f 193/67/1 194/69/1 195/70/1 196/68/1
f 197/69/1 198/71/1 199/72/1 200/70/1
f 201/1/1 202/2/1 203/3/1 204/4/1
f 205/2/1 206/5/1 207/6/1 208/3/1
f 209/5/1 210/7/1 211/8/1 212/6/1
f 213/7/1 214/9/1 215/10/1 216/8/1
f 217/9/1 218/11/1 219/12/1 220/10/1
f 221/11/1 222/13/1 223/14/1 224/12/1
f 225/13/1 226/57/1 227/58/1 228/14/1
f 229/57/1 230/59/1 231/60/1 232/58/1
f 233/21/1 234/73/1 235/57/1 236/13/1
f 237/73/1 238/74/1 239/59/1 240/57/1
f 241/74/1 242/75/1 243/61/1 244/59/1
f 245/75/1 246/76/1 247/63/1 248/61/1
f 249/76/1 250/77/1 251/65/1 252/63/1
f 253/77/1 254/78/1 255/67/1 256/65/1
f 257/78/1 258/79/1 259/69/1 260/67/1
f 261/79/1 262/80/1 263/71/1 264/69/1
f 265/15/1 266/16/1 267/2/1 268/1/1
f 269/16/1 270/17/1 271/5/1 272/2/1
f 273/17/1 274/18/1 275/7/1 276/5/1
f 277/18/1 278/19/1 279/9/1 280/7/1
f 281/19/1 282/20/1 283/11/1 284/9/1
f 285/20/1 286/21/1 287/13/1 288/11/1
f 289/21/1 290/73/1 291/57/1 292/13/1
f 293/73/1 294/74/1 295/59/1 296/57/1
f 297/28/1 298/81/1 299/73/1 300/21/1
f 301/81/1 302/82/1 303/74/1 304/73/1
f 305/82/1 306/83/1 307/75/1 308/74/1
f 309/83/1 310/84/1 311/76/1 312/75/1
f 313/84/1 314/85/1 315/77/1 316/76/1
f 317/85/1 318/86/1 319/78/1 320/77/1
f 321/86/1 322/87/1 323/79/1 324/78/1
f 325/87/1 326/88/1 327/80/1 328/79/1
f 329/22/1 330/23/1 331/16/1 332/15/1
f 333/23/1 334/24/1 335/17/1 336/16/1
f 337/24/1 338/25/1 339/18/1 340/17/1
f 341/25/1 342/26/1 343/19/1 344/18/1
f 345/26/1 346/27/1 347/20/1 348/19/1
f 349/27/1 350/28/1 351/21/1 352/20/1
f 353/28/1 354/81/1 355/73/1 356/21/1
f 357/81/1 358/82/1 359/74/1 360/73/1
f 361/35/1 362/89/1 363/81/1 364/28/1
f 365/89/1 366/90/1 367/82/1 368/81/1
f 369/90/1 370/91/1 371/83/1 372/82/1
f 373/91/1 374/92/1 375/84/1 376/83/1
f 377/92/1 378/93/1 379/85/1 380/84/1
f 381/93/1 382/94/1 383/86/1 384/85/1
f 385/94/1 386/95/1 387/87/1 388/86/1
f 389/95/1 390/96/1 391/88/1 392/87/1
f 393/29/1 394/30/1 395/23/1 396/22/1
f 397/30/1 398/31/1 399/24/1 400/23/1
f 401/31/1 402/32/1 403/25/1 404/24/1
f 405/32/1 406/33/1 407/26/1 408/25/1
f 409/33/1 410/34/1 411/27/1 412/26/1
f 413/34/1 414/35/1 415/28/1 416/27/1
f 417/35/1 418/89/1 419/81/1 420/28/1
f 421/89/1 422/90/1 423/82/1 424/81/1
f 425/42/1 426/97/1 427/89/1 428/35/1
f 429/97/1 430/98/1 431/90/1 432/89/1
f 433/98/1 434/99/1 435/91/1 436/90/1
f 437/99/1 438/100/1 439/92/1 440/91/1
f 441/100/1 442/101/1 443/93/1 444/92/1
f 445/101/1 446/102/1 447/94/1 448/93/1
f 449/102/1 450/103/1 451/95/1 452/94/1
f 453/103/1 454/104/1 455/96/1 456/95/1
f 457/36/1 458/37/1 459/30/1 460/29/1
f 461/37/1 462/38/1 463/31/1 464/30/1
f 465/38/1 466/39/1 467/32/1 468/31/1
f 469/39/1 470/40/1 471/33/1 472/32/1
f 473/40/1 474/41/1 475/34/1 476/33/1
f 477/41/1 478/42/1 479/35/1 480/34/1
f 481/42/1 482/97/1 483/89/1 484/35/1
f 485/97/1 486/98/1 487/90/1 488/89/1
f 489/49/1 490/105/1 491/97/1 492/42/1
f 493/105/1 494/106/1 495/98/1 496/97/1
f 497/106/1 498/107/1 499/99/1 500/98/1
f 501/107/1 502/108/1 503/100/1 504/99/1
f 505/108/1 506/109/1 507/101/1 508/100/1
f 509/109/1 510/110/1 511/102/1 512/101/1
f 513/110/1 514/111/1 515/103/1 516/102/1
f 517/111/1 518/112/1 519/104/1 520/103/1
f 521/43/1 522/44/1 523/37/1 524/36/1
f 525/44/1 526/45/1 527/38/1 528/37/1
f 529/45/1 530/46/1 531/39/1 532/38/1
f 533/46/1 534/47/1 535/40/1 536/39/1
f 537/47/1 538/48/1 539/41/1 540/40/1
f 541/48/1 542/49/1 543/42/1 544/41/1
f 545/49/1 546/105/1 547/97/1 548/42/1
f 549/105/1 550/106/1 551/98/1 552/97/1
f 553/56/1 554/113/1 555/105/1 556/49/1
f 557/113/1 558/114/1 559/106/1 560/105/1
f 561/114/1 562/115/1 563/107/1 564/106/1
f 565/115/1 566/116/1 567/108/1 568/107/1
f 569/116/1 570/117/1 571/109/1 572/108/1
f 573/117/1 574/118/1 575/110/1 576/109/1
f 577/118/1 578/119/1 579/111/1 580/110/1
f 581/119/1 582/120/1 583/112/1 584/111/1
f 585/50/1 586/51/1 587/44/1 588/43/1
f 589/51/1 590/52/1 591/45/1 592/44/1
f 593/52/1 594/53/1 595/46/1 596/45/1
f 597/53/1 598/54/1 599/47/1 600/46/1
f 601/54/1 602/55/1 603/48/1 604/47/1
f 605/55/1 606/56/1 607/49/1 608/48/1
f 609/56/1 610/113/1 611/105/1 612/49/1
f 613/113/1 614/114/1 615/106/1 616/105/1
f 617/59/1 618/61/1 619/62/1 620/60/1
f 621/61/1 622/63/1 623/64/1 624/62/1
f 625/63/1 626/65/1 627/66/1 628/64/1
f 629/65/1 630/67/1 631/68/1 632/66/1
f 633/67/1 634/69/1 635/70/1 636/68/1
f 637/69/1 638/71/1 639/72/1 640/70/1
f 641/1/1 642/2/1 643/3/1 644/4/1
f 645/74/1 646/75/1 647/61/1 648/59/1
f 649/75/1 650/76/1 651/63/1 652/61/1
f 653/76/1 654/77/1 655/65/1 656/63/1
f 657/77/1 658/78/1 659/67/1 660/65/1
f 661/78/1 662/79/1 663/69/1 664/67/1
f 665/79/1 666/80/1 667/71/1 668/69/1
f 669/15/1 670/16/1 671/2/1 672/1/1
f 673/82/1 674/83/1 675/75/1 676/74/1
f 677/83/1 678/84/1 679/76/1 680/75/1
f 681/84/1 682/85/1 683/77/1 684/76/1
f 685/85/1 686/86/1 687/78/1 688/77/1
f 689/86/1 690/87/1 691/79/1 692/78/1
f 693/87/1 694/88/1 695/80/1 696/79/1
f 697/22/1 698/23/1 699/16/1 700/15/1
f 701/90/1 702/91/1 703/83/1 704/82/1
f 705/91/1 706/92/1 707/84/1 708/83/1
f 709/92/1 710/93/1 711/85/1 712/84/1
f 713/93/1 714/94/1 715/86/1 716/85/1
f 717/94/1 718/95/1 719/87/1 720/86/1
f 721/95/1 722/96/1 723/88/1 724/87/1
f 725/29/1 726/30/1 727/23/1 728/22/1
f 729/98/1 730/99/1 731/91/1 732/90/1
f 733/99/1 734/100/1 735/92/1 736/91/1
f 737/100/1 738/101/1 739/93/1 740/92/1
f 741/101/1 742/102/1 743/94/1 744/93/1
f 745/102/1 746/103/1 747/95/1 748/94/1
f 749/103/1 750/104/1 751/96/1 752/95/1
f 753/36/1 754/37/1 755/30/1 756/29/1
f 757/106/1 758/107/1 759/99/1 760/98/1
f 761/107/1 762/108/1 763/100/1 764/99/1
f 765/108/1 766/109/1 767/101/1 768/100/1
f 769/109/1 770/110/1 771/102/1 772/101/1
f 773/110/1 774/111/1 775/103/1 776/102/1
f 777/111/1 778/112/1 779/104/1 780/103/1
f 781/43/1 782/44/1 783/37/1 784/36/1
f 785/114/1 786/115/1 787/107/1 788/106/1
f 789/115/1 790/116/1 791/108/1 792/107/1
f 793/116/1 794/117/1 795/109/1 796/108/1
f 797/117/1 798/118/1 799/110/1 800/109/1
f 801/118/1 802/119/1 803/111/1 804/110/1
f 805/119/1 806/120/1 807/112/1 808/111/1
f 809/50/1 810/51/1 811/44/1 812/43/1

