# Tiled2Unity generated file. Do not modify by hand.
# Wavefront file for 'NewBadManor_mesh_0349.obj'

# Vertices (Count = 24)
v 0 -4.8 -0.0867052
v -0.32 -4.8 -0.0867052
v -0.32 -4.48 -0.0867052
v 0 -4.48 -0.0867052
v -0.32 -4.8 -0.0867052
v -0.64 -4.8 -0.0867052
v -0.64 -4.48 -0.0867052
v -0.32 -4.48 -0.0867052
v -0.64 -4.8 -0.0867052
v -0.96 -4.8 -0.0867052
v -0.96 -4.48 -0.0867052
v -0.64 -4.48 -0.0867052
v 0 -5.12 -0.09248555
v -0.32 -5.12 -0.09248555
v -0.32 -4.8 -0.09248555
v 0 -4.8 -0.09248555
v -0.32 -5.12 -0.09248555
v -0.64 -5.12 -0.09248555
v -0.64 -4.8 -0.09248555
v -0.32 -4.8 -0.09248555
v -0.64 -5.12 -0.09248555
v -0.96 -5.12 -0.09248555
v -0.96 -4.8 -0.09248555
v -0.64 -4.8 -0.09248555

# Texture cooridinates (Count = 8)
vt 0.375 0.3
vt 0.5 0.3
vt 0.5 0.4
vt 0.375 0.4
vt 0.625 0.3
vt 0.625 0.4
vt 0.75 0.3
vt 0.75 0.4

# Normal
vn 0 0 -1

# Mesh description
g NewBadManor_mesh_0349

# Faces
f 1/1/1 2/2/1 3/3/1 4/4/1
f 5/2/1 6/5/1 7/6/1 8/3/1
f 9/5/1 10/7/1 11/8/1 12/6/1
f 13/1/1 14/2/1 15/3/1 16/4/1
f 17/2/1 18/5/1 19/6/1 20/3/1
f 21/5/1 22/7/1 23/8/1 24/6/1

