# Tiled2Unity generated file. Do not modify by hand.
# Wavefront file for 'NewBadManor_mesh_0013.obj'

# Vertices (Count = 228)
v -0.32 -0.32 -0.005780347
v -0.64 -0.32 -0.005780347
v -0.64 0 -0.005780347
v -0.32 0 -0.005780347
v -0.64 -0.32 -0.005780347
v -0.96 -0.32 -0.005780347
v -0.96 0 -0.005780347
v -0.64 0 -0.005780347
v -0.96 -0.32 -0.005780347
v -1.28 -0.32 -0.005780347
v -1.28 0 -0.005780347
v -0.96 0 -0.005780347
v -0.32 -0.64 -0.01156069
v -0.64 -0.64 -0.01156069
v -0.64 -0.32 -0.01156069
v -0.32 -0.32 -0.01156069
v -0.64 -0.64 -0.01156069
v -0.96 -0.64 -0.01156069
v -0.96 -0.32 -0.01156069
v -0.64 -0.32 -0.01156069
v -0.32 -0.96 -0.01734104
v -0.64 -0.96 -0.01734104
v -0.64 -0.64 -0.01734104
v -0.32 -0.64 -0.01734104
v -0.64 -0.96 -0.01734104
v -0.96 -0.96 -0.01734104
v -0.96 -0.64 -0.01734104
v -0.64 -0.64 -0.01734104
v -0.32 -1.28 -0.02312139
v -0.64 -1.28 -0.02312139
v -0.64 -0.96 -0.02312139
v -0.32 -0.96 -0.02312139
v -0.64 -1.28 -0.02312139
v -0.96 -1.28 -0.02312139
v -0.96 -0.96 -0.02312139
v -0.64 -0.96 -0.02312139
v -0.32 -1.6 -0.02890173
v -0.64 -1.6 -0.02890173
v -0.64 -1.28 -0.02890173
v -0.32 -1.28 -0.02890173
v -0.64 -1.6 -0.02890173
v -0.96 -1.6 -0.02890173
v -0.96 -1.28 -0.02890173
v -0.64 -1.28 -0.02890173
v -0.96 -1.6 -0.02890173
v -1.28 -1.6 -0.02890173
v -1.28 -1.28 -0.02890173
v -0.96 -1.28 -0.02890173
v -1.28 -1.6 -0.02890173
v -1.6 -1.6 -0.02890173
v -1.6 -1.28 -0.02890173
v -1.28 -1.28 -0.02890173
v -0.32 -1.92 -0.03468208
v -0.64 -1.92 -0.03468208
v -0.64 -1.6 -0.03468208
v -0.32 -1.6 -0.03468208
v -0.64 -1.92 -0.03468208
v -0.96 -1.92 -0.03468208
v -0.96 -1.6 -0.03468208
v -0.64 -1.6 -0.03468208
v -0.96 -1.92 -0.03468208
v -1.28 -1.92 -0.03468208
v -1.28 -1.6 -0.03468208
v -0.96 -1.6 -0.03468208
v -1.28 -1.92 -0.03468208
v -1.6 -1.92 -0.03468208
v -1.6 -1.6 -0.03468208
v -1.28 -1.6 -0.03468208
v -0.32 -2.24 -0.04046243
v -0.64 -2.24 -0.04046243
v -0.64 -1.92 -0.04046243
v -0.32 -1.92 -0.04046243
v -0.64 -2.24 -0.04046243
v -0.96 -2.24 -0.04046243
v -0.96 -1.92 -0.04046243
v -0.64 -1.92 -0.04046243
v -0.96 -2.24 -0.04046243
v -1.28 -2.24 -0.04046243
v -1.28 -1.92 -0.04046243
v -0.96 -1.92 -0.04046243
v -1.28 -2.24 -0.04046243
v -1.6 -2.24 -0.04046243
v -1.6 -1.92 -0.04046243
v -1.28 -1.92 -0.04046243
v -0.32 -2.56 -0.04624277
v -0.64 -2.56 -0.04624277
v -0.64 -2.24 -0.04624277
v -0.32 -2.24 -0.04624277
v -0.64 -2.56 -0.04624277
v -0.96 -2.56 -0.04624277
v -0.96 -2.24 -0.04624277
v -0.64 -2.24 -0.04624277
v -0.96 -2.56 -0.04624277
v -1.28 -2.56 -0.04624277
v -1.28 -2.24 -0.04624277
v -0.96 -2.24 -0.04624277
v -1.28 -2.56 -0.04624277
v -1.6 -2.56 -0.04624277
v -1.6 -2.24 -0.04624277
v -1.28 -2.24 -0.04624277
v -0.32 -2.88 -0.05202312
v -0.64 -2.88 -0.05202312
v -0.64 -2.56 -0.05202312
v -0.32 -2.56 -0.05202312
v -0.64 -2.88 -0.05202312
v -0.96 -2.88 -0.05202312
v -0.96 -2.56 -0.05202312
v -0.64 -2.56 -0.05202312
v -0.96 -2.88 -0.05202312
v -1.28 -2.88 -0.05202312
v -1.28 -2.56 -0.05202312
v -0.96 -2.56 -0.05202312
v -1.28 -2.88 -0.05202312
v -1.6 -2.88 -0.05202312
v -1.6 -2.56 -0.05202312
v -1.28 -2.56 -0.05202312
v -1.6 -2.88 -0.05202312
v -1.92 -2.88 -0.05202312
v -1.92 -2.56 -0.05202312
v -1.6 -2.56 -0.05202312
v -1.92 -2.88 -0.05202312
v -2.24 -2.88 -0.05202312
v -2.24 -2.56 -0.05202312
v -1.92 -2.56 -0.05202312
v -2.24 -2.88 -0.05202312
v -2.56 -2.88 -0.05202312
v -2.56 -2.56 -0.05202312
v -2.24 -2.56 -0.05202312
v -2.56 -2.88 -0.05202312
v -2.88 -2.88 -0.05202312
v -2.88 -2.56 -0.05202312
v -2.56 -2.56 -0.05202312
v -2.88 -2.88 -0.05202312
v -3.2 -2.88 -0.05202312
v -3.2 -2.56 -0.05202312
v -2.88 -2.56 -0.05202312
v -3.2 -2.88 -0.05202312
v -3.52 -2.88 -0.05202312
v -3.52 -2.56 -0.05202312
v -3.2 -2.56 -0.05202312
v -3.52 -2.88 -0.05202312
v -3.84 -2.88 -0.05202312
v -3.84 -2.56 -0.05202312
v -3.52 -2.56 -0.05202312
v -3.84 -2.88 -0.05202312
v -4.16 -2.88 -0.05202312
v -4.16 -2.56 -0.05202312
v -3.84 -2.56 -0.05202312
v -4.16 -2.88 -0.05202312
v -4.48 -2.88 -0.05202312
v -4.48 -2.56 -0.05202312
v -4.16 -2.56 -0.05202312
v -4.48 -2.88 -0.05202312
v -4.8 -2.88 -0.05202312
v -4.8 -2.56 -0.05202312
v -4.48 -2.56 -0.05202312
v -4.8 -2.88 -0.05202312
v -5.12 -2.88 -0.05202312
v -5.12 -2.56 -0.05202312
v -4.8 -2.56 -0.05202312
v -0.32 -3.2 -0.05780347
v -0.64 -3.2 -0.05780347
v -0.64 -2.88 -0.05780347
v -0.32 -2.88 -0.05780347
v -0.64 -3.2 -0.05780347
v -0.96 -3.2 -0.05780347
v -0.96 -2.88 -0.05780347
v -0.64 -2.88 -0.05780347
v -0.96 -3.2 -0.05780347
v -1.28 -3.2 -0.05780347
v -1.28 -2.88 -0.05780347
v -0.96 -2.88 -0.05780347
v -1.28 -3.2 -0.05780347
v -1.6 -3.2 -0.05780347
v -1.6 -2.88 -0.05780347
v -1.28 -2.88 -0.05780347
v -1.6 -3.2 -0.05780347
v -1.92 -3.2 -0.05780347
v -1.92 -2.88 -0.05780347
v -1.6 -2.88 -0.05780347
v -1.92 -3.2 -0.05780347
v -2.24 -3.2 -0.05780347
v -2.24 -2.88 -0.05780347
v -1.92 -2.88 -0.05780347
v -2.24 -3.2 -0.05780347
v -2.56 -3.2 -0.05780347
v -2.56 -2.88 -0.05780347
v -2.24 -2.88 -0.05780347
v -2.56 -3.2 -0.05780347
v -2.88 -3.2 -0.05780347
v -2.88 -2.88 -0.05780347
v -2.56 -2.88 -0.05780347
v -2.88 -3.2 -0.05780347
v -3.2 -3.2 -0.05780347
v -3.2 -2.88 -0.05780347
v -2.88 -2.88 -0.05780347
v -3.2 -3.2 -0.05780347
v -3.52 -3.2 -0.05780347
v -3.52 -2.88 -0.05780347
v -3.2 -2.88 -0.05780347
v -3.52 -3.2 -0.05780347
v -3.84 -3.2 -0.05780347
v -3.84 -2.88 -0.05780347
v -3.52 -2.88 -0.05780347
v -3.84 -3.2 -0.05780347
v -4.16 -3.2 -0.05780347
v -4.16 -2.88 -0.05780347
v -3.84 -2.88 -0.05780347
v -4.16 -3.2 -0.05780347
v -4.48 -3.2 -0.05780347
v -4.48 -2.88 -0.05780347
v -4.16 -2.88 -0.05780347
v -4.48 -3.2 -0.05780347
v -4.8 -3.2 -0.05780347
v -4.8 -2.88 -0.05780347
v -4.48 -2.88 -0.05780347
v -4.8 -3.2 -0.05780347
v -5.12 -3.2 -0.05780347
v -5.12 -2.88 -0.05780347
v -4.8 -2.88 -0.05780347
v -0.32 -3.52 -0.06358381
v -0.64 -3.52 -0.06358381
v -0.64 -3.2 -0.06358381
v -0.32 -3.2 -0.06358381
v -0.64 -3.52 -0.06358381
v -0.96 -3.52 -0.06358381
v -0.96 -3.2 -0.06358381
v -0.64 -3.2 -0.06358381

# Texture cooridinates (Count = 9)
vt 0.03125 0.875
vt 0.0625 0.875
vt 0.0625 0.90625
vt 0.03125 0.90625
vt 0.09375 0.875
vt 0.09375 0.90625
vt 0.0625 0.84375
vt 0.09375 0.84375
vt 0.03125 0.84375

# Normal
vn 0 0 -1

# Mesh description
g NewBadManor_mesh_0013

# Faces
f 1/1/1 2/2/1 3/3/1 4/4/1
f 5/2/1 6/5/1 7/6/1 8/3/1
f 9/7/1 10/8/1 11/5/1 12/2/1
f 13/1/1 14/2/1 15/3/1 16/4/1
f 17/2/1 18/5/1 19/6/1 20/3/1
f 21/1/1 22/2/1 23/3/1 24/4/1
f 25/2/1 26/5/1 27/6/1 28/3/1
f 29/1/1 30/2/1 31/3/1 32/4/1
f 33/2/1 34/5/1 35/6/1 36/3/1
f 37/1/1 38/2/1 39/3/1 40/4/1
f 41/2/1 42/5/1 43/6/1 44/3/1
f 45/1/1 46/2/1 47/3/1 48/4/1
f 49/2/1 50/5/1 51/6/1 52/3/1
f 53/1/1 54/2/1 55/3/1 56/4/1
f 57/2/1 58/5/1 59/6/1 60/3/1
f 61/9/1 62/7/1 63/2/1 64/1/1
f 65/7/1 66/8/1 67/5/1 68/2/1
f 69/1/1 70/2/1 71/3/1 72/4/1
f 73/2/1 74/5/1 75/6/1 76/3/1
f 77/9/1 78/7/1 79/2/1 80/1/1
f 81/7/1 82/8/1 83/5/1 84/2/1
f 85/1/1 86/2/1 87/3/1 88/4/1
f 89/2/1 90/5/1 91/6/1 92/3/1
f 93/9/1 94/7/1 95/2/1 96/1/1
f 97/7/1 98/8/1 99/5/1 100/2/1
f 101/1/1 102/2/1 103/3/1 104/4/1
f 105/2/1 106/5/1 107/6/1 108/3/1
f 109/9/1 110/7/1 111/2/1 112/1/1
f 113/1/1 114/2/1 115/3/1 116/4/1
f 117/1/1 118/2/1 119/3/1 120/4/1
f 121/1/1 122/2/1 123/3/1 124/4/1
f 125/1/1 126/2/1 127/3/1 128/4/1
f 129/1/1 130/2/1 131/3/1 132/4/1
f 133/1/1 134/2/1 135/3/1 136/4/1
f 137/1/1 138/2/1 139/3/1 140/4/1
f 141/1/1 142/2/1 143/3/1 144/4/1
f 145/1/1 146/2/1 147/3/1 148/4/1
f 149/1/1 150/2/1 151/3/1 152/4/1
f 153/1/1 154/2/1 155/3/1 156/4/1
f 157/1/1 158/2/1 159/3/1 160/4/1
f 161/1/1 162/2/1 163/3/1 164/4/1
f 165/2/1 166/5/1 167/6/1 168/3/1
f 169/9/1 170/7/1 171/2/1 172/1/1
f 173/9/1 174/7/1 175/2/1 176/1/1
f 177/9/1 178/7/1 179/2/1 180/1/1
f 181/9/1 182/7/1 183/2/1 184/1/1
f 185/9/1 186/7/1 187/2/1 188/1/1
f 189/9/1 190/7/1 191/2/1 192/1/1
f 193/9/1 194/7/1 195/2/1 196/1/1
f 197/9/1 198/7/1 199/2/1 200/1/1
f 201/9/1 202/7/1 203/2/1 204/1/1
f 205/9/1 206/7/1 207/2/1 208/1/1
f 209/9/1 210/7/1 211/2/1 212/1/1
f 213/9/1 214/7/1 215/2/1 216/1/1
f 217/9/1 218/7/1 219/2/1 220/1/1
f 221/9/1 222/7/1 223/2/1 224/1/1
f 225/7/1 226/8/1 227/5/1 228/2/1

