# Tiled2Unity generated file. Do not modify by hand.
# Wavefront file for 'NewBadManor_mesh_0100.obj'

# Vertices (Count = 72)
v 0 -2.24 -0.04046243
v -0.32 -2.24 -0.04046243
v -0.32 -1.92 -0.04046243
v 0 -1.92 -0.04046243
v -0.32 -2.24 -0.04046243
v -0.64 -2.24 -0.04046243
v -0.64 -1.92 -0.04046243
v -0.32 -1.92 -0.04046243
v -0.64 -2.24 -0.04046243
v -0.96 -2.24 -0.04046243
v -0.96 -1.92 -0.04046243
v -0.64 -1.92 -0.04046243
v 0 -2.56 -0.04624277
v -0.32 -2.56 -0.04624277
v -0.32 -2.24 -0.04624277
v 0 -2.24 -0.04624277
v -0.32 -2.56 -0.04624277
v -0.64 -2.56 -0.04624277
v -0.64 -2.24 -0.04624277
v -0.32 -2.24 -0.04624277
v -0.64 -2.56 -0.04624277
v -0.96 -2.56 -0.04624277
v -0.96 -2.24 -0.04624277
v -0.64 -2.24 -0.04624277
v 0 -2.88 -0.05202312
v -0.32 -2.88 -0.05202312
v -0.32 -2.56 -0.05202312
v 0 -2.56 -0.05202312
v -0.32 -2.88 -0.05202312
v -0.64 -2.88 -0.05202312
v -0.64 -2.56 -0.05202312
v -0.32 -2.56 -0.05202312
v -0.64 -2.88 -0.05202312
v -0.96 -2.88 -0.05202312
v -0.96 -2.56 -0.05202312
v -0.64 -2.56 -0.05202312
v 0 -3.2 -0.05780347
v -0.32 -3.2 -0.05780347
v -0.32 -2.88 -0.05780347
v 0 -2.88 -0.05780347
v -0.32 -3.2 -0.05780347
v -0.64 -3.2 -0.05780347
v -0.64 -2.88 -0.05780347
v -0.32 -2.88 -0.05780347
v -0.64 -3.2 -0.05780347
v -0.96 -3.2 -0.05780347
v -0.96 -2.88 -0.05780347
v -0.64 -2.88 -0.05780347
v 0 -3.52 -0.06358381
v -0.32 -3.52 -0.06358381
v -0.32 -3.2 -0.06358381
v 0 -3.2 -0.06358381
v -0.32 -3.52 -0.06358381
v -0.64 -3.52 -0.06358381
v -0.64 -3.2 -0.06358381
v -0.32 -3.2 -0.06358381
v -0.64 -3.52 -0.06358381
v -0.96 -3.52 -0.06358381
v -0.96 -3.2 -0.06358381
v -0.64 -3.2 -0.06358381
v 0 -3.84 -0.06936416
v -0.32 -3.84 -0.06936416
v -0.32 -3.52 -0.06936416
v 0 -3.52 -0.06936416
v -0.32 -3.84 -0.06936416
v -0.64 -3.84 -0.06936416
v -0.64 -3.52 -0.06936416
v -0.32 -3.52 -0.06936416
v -0.64 -3.84 -0.06936416
v -0.96 -3.84 -0.06936416
v -0.96 -3.52 -0.06936416
v -0.64 -3.52 -0.06936416

# Texture cooridinates (Count = 30)
vt 0.15 0.95
vt 0.2 0.95
vt 0.2 1
vt 0.15 1
vt 0.25 0.95
vt 0.25 1
vt 0.3 0.95
vt 0.3 1
vt 0.15 0.9
vt 0.2 0.9
vt 0.25 0.9
vt 0.3 0.9
vt 0.2 0.1
vt 0.2 0.15
vt 0.15 0.15
vt 0.15 0.1
vt 0.25 0.1
vt 0.25 0.15
vt 0.15 0.7
vt 0.2 0.7
vt 0.2 0.75
vt 0.15 0.75
vt 0.25 0.7
vt 0.25 0.75
vt 0.3 0.7
vt 0.3 0.75
vt 0.15 0.65
vt 0.2 0.65
vt 0.25 0.65
vt 0.3 0.65

# Normal
vn 0 0 -1

# Mesh description
g NewBadManor_mesh_0100

# Faces
f 1/1/1 2/2/1 3/3/1 4/4/1
f 5/2/1 6/5/1 7/6/1 8/3/1
f 9/5/1 10/7/1 11/8/1 12/6/1
f 13/9/1 14/10/1 15/2/1 16/1/1
f 17/10/1 18/11/1 19/5/1 20/2/1
f 21/11/1 22/12/1 23/7/1 24/5/1
f 25/13/1 26/14/1 27/15/1 28/16/1
f 29/13/1 30/14/1 31/15/1 32/16/1
f 33/13/1 34/14/1 35/15/1 36/16/1
f 37/17/1 38/18/1 39/14/1 40/13/1
f 41/17/1 42/18/1 43/14/1 44/13/1
f 45/17/1 46/18/1 47/14/1 48/13/1
f 49/19/1 50/20/1 51/21/1 52/22/1
f 53/20/1 54/23/1 55/24/1 56/21/1
f 57/23/1 58/25/1 59/26/1 60/24/1
f 61/27/1 62/28/1 63/20/1 64/19/1
f 65/28/1 66/29/1 67/23/1 68/20/1
f 69/29/1 70/30/1 71/25/1 72/23/1

