# Tiled2Unity generated file. Do not modify by hand.
# Wavefront file for 'NewBadManor_mesh_0350.obj'

# Vertices (Count = 52)
v -4.8 -0.32 -0.005780347
v -5.12 -0.32 -0.005780347
v -5.12 0 -0.005780347
v -4.8 0 -0.005780347
v -4.8 -0.64 -0.01156069
v -5.12 -0.64 -0.01156069
v -5.12 -0.32 -0.01156069
v -4.8 -0.32 -0.01156069
v -4.8 -0.96 -0.01734104
v -5.12 -0.96 -0.01734104
v -5.12 -0.64 -0.01734104
v -4.8 -0.64 -0.01734104
v -4.8 -1.28 -0.02312139
v -5.12 -1.28 -0.02312139
v -5.12 -0.96 -0.02312139
v -4.8 -0.96 -0.02312139
v -4.8 -1.6 -0.02890173
v -5.12 -1.6 -0.02890173
v -5.12 -1.28 -0.02890173
v -4.8 -1.28 -0.02890173
v -4.8 -1.92 -0.03468208
v -5.12 -1.92 -0.03468208
v -5.12 -1.6 -0.03468208
v -4.8 -1.6 -0.03468208
v -4.8 -2.24 -0.04046243
v -5.12 -2.24 -0.04046243
v -5.12 -1.92 -0.04046243
v -4.8 -1.92 -0.04046243
v -4.8 -2.56 -0.04624277
v -5.12 -2.56 -0.04624277
v -5.12 -2.24 -0.04624277
v -4.8 -2.24 -0.04624277
v -4.8 -2.88 -0.05202312
v -5.12 -2.88 -0.05202312
v -5.12 -2.56 -0.05202312
v -4.8 -2.56 -0.05202312
v -4.8 -3.2 -0.05780347
v -5.12 -3.2 -0.05780347
v -5.12 -2.88 -0.05780347
v -4.8 -2.88 -0.05780347
v -4.8 -3.52 -0.06358381
v -5.12 -3.52 -0.06358381
v -5.12 -3.2 -0.06358381
v -4.8 -3.2 -0.06358381
v -4.8 -3.84 -0.06936416
v -5.12 -3.84 -0.06936416
v -5.12 -3.52 -0.06936416
v -4.8 -3.52 -0.06936416
v -4.8 -4.16 -0.07514451
v -5.12 -4.16 -0.07514451
v -5.12 -3.84 -0.07514451
v -4.8 -3.84 -0.07514451

# Texture cooridinates (Count = 20)
vt 0.25 0.1
vt 0.375 0.1
vt 0.375 0.2
vt 0.25 0.2
vt 0.25 0
vt 0.375 0
vt 0.25 0.3
vt 0.375 0.3
vt 0.375 0.4
vt 0.25 0.4
vt 0.75 0.1
vt 0.625 0.1
vt 0.625 0
vt 0.75 0
vt 0.75 0.2
vt 0.625 0.2
vt 0.75 0.3
vt 0.625 0.3
vt 0.75 0.4
vt 0.625 0.4

# Normal
vn 0 0 -1

# Mesh description
g NewBadManor_mesh_0350

# Faces
f 1/1/1 2/2/1 3/3/1 4/4/1
f 5/5/1 6/6/1 7/2/1 8/1/1
f 9/7/1 10/8/1 11/9/1 12/10/1
f 13/4/1 14/3/1 15/8/1 16/7/1
f 17/1/1 18/2/1 19/3/1 20/4/1
f 21/5/1 22/6/1 23/2/1 24/1/1
f 25/7/1 26/8/1 27/9/1 28/10/1
f 29/4/1 30/3/1 31/8/1 32/7/1
f 33/1/1 34/2/1 35/3/1 36/4/1
f 37/11/1 38/12/1 39/13/1 40/14/1
f 41/15/1 42/16/1 43/12/1 44/11/1
f 45/17/1 46/18/1 47/16/1 48/15/1
f 49/19/1 50/20/1 51/18/1 52/17/1

