# Tiled2Unity generated file. Do not modify by hand.
# Wavefront file for 'NewBadManor_mesh_0153.obj'

# Vertices (Count = 24)
v -4.48 -4.16 -0.07514451
v -4.8 -4.16 -0.07514451
v -4.8 -3.84 -0.07514451
v -4.48 -3.84 -0.07514451
v -4.8 -4.16 -0.07514451
v -5.12 -4.16 -0.07514451
v -5.12 -3.84 -0.07514451
v -4.8 -3.84 -0.07514451
v -4.48 -4.48 -0.08092485
v -4.8 -4.48 -0.08092485
v -4.8 -4.16 -0.08092485
v -4.48 -4.16 -0.08092485
v -4.8 -4.48 -0.08092485
v -5.12 -4.48 -0.08092485
v -5.12 -4.16 -0.08092485
v -4.8 -4.16 -0.08092485
v -4.48 -4.8 -0.0867052
v -4.8 -4.8 -0.0867052
v -4.8 -4.48 -0.0867052
v -4.48 -4.48 -0.0867052
v -4.8 -4.8 -0.0867052
v -5.12 -4.8 -0.0867052
v -5.12 -4.48 -0.0867052
v -4.8 -4.48 -0.0867052

# Texture cooridinates (Count = 12)
vt 0.7 0.875
vt 0.8 0.875
vt 0.8 1
vt 0.7 1
vt 0.9 0.875
vt 0.9 1
vt 0.7 0.75
vt 0.8 0.75
vt 0.9 0.75
vt 0.7 0.625
vt 0.8 0.625
vt 0.9 0.625

# Normal
vn 0 0 -1

# Mesh description
g NewBadManor_mesh_0153

# Faces
f 1/1/1 2/2/1 3/3/1 4/4/1
f 5/2/1 6/5/1 7/6/1 8/3/1
f 9/7/1 10/8/1 11/2/1 12/1/1
f 13/8/1 14/9/1 15/5/1 16/2/1
f 17/10/1 18/11/1 19/8/1 20/7/1
f 21/11/1 22/12/1 23/9/1 24/8/1

