# Tiled2Unity generated file. Do not modify by hand.
# Wavefront file for 'NewBadManor_mesh_0076.obj'

# Vertices (Count = 680)
v -14.08 -1.28 0
v -14.72 -1.28 0
v -14.72 -0.64 0
v -14.08 -0.64 0
v -14.72 -1.28 0
v -15.36 -1.28 0
v -15.36 -0.64 0
v -14.72 -0.64 0
v -24.32 -1.28 0
v -24.96 -1.28 0
v -24.96 -0.64 0
v -24.32 -0.64 0
v -24.96 -1.28 0
v -25.6 -1.28 0
v -25.6 -0.64 0
v -24.96 -0.64 0
v -34.56 -1.28 0
v -35.2 -1.28 0
v -35.2 -0.64 0
v -34.56 -0.64 0
v -35.2 -1.28 0
v -35.84 -1.28 0
v -35.84 -0.64 0
v -35.2 -0.64 0
v -44.8 -1.28 0
v -45.44 -1.28 0
v -45.44 -0.64 0
v -44.8 -0.64 0
v -45.44 -1.28 0
v -46.08 -1.28 0
v -46.08 -0.64 0
v -45.44 -0.64 0
v -55.04 -1.28 0
v -55.68 -1.28 0
v -55.68 -0.64 0
v -55.04 -0.64 0
v -55.68 -1.28 0
v -56.32 -1.28 0
v -56.32 -0.64 0
v -55.68 -0.64 0
v -1.28 -1.92 0
v -1.92 -1.92 0
v -1.92 -1.28 0
v -1.28 -1.28 0
v -1.92 -1.92 0
v -2.56 -1.92 0
v -2.56 -1.28 0
v -1.92 -1.28 0
v -11.52 -1.92 0
v -12.16 -1.92 0
v -12.16 -1.28 0
v -11.52 -1.28 0
v -12.16 -1.92 0
v -12.8 -1.92 0
v -12.8 -1.28 0
v -12.16 -1.28 0
v -21.76 -1.92 0
v -22.4 -1.92 0
v -22.4 -1.28 0
v -21.76 -1.28 0
v -22.4 -1.92 0
v -23.04 -1.92 0
v -23.04 -1.28 0
v -22.4 -1.28 0
v -32 -1.92 0
v -32.64 -1.92 0
v -32.64 -1.28 0
v -32 -1.28 0
v -32.64 -1.92 0
v -33.28 -1.92 0
v -33.28 -1.28 0
v -32.64 -1.28 0
v -18.56 -4.48 0
v -19.2 -4.48 0
v -19.2 -3.84 0
v -18.56 -3.84 0
v -19.2 -4.48 0
v -19.84 -4.48 0
v -19.84 -3.84 0
v -19.2 -3.84 0
v -28.8 -4.48 0
v -29.44 -4.48 0
v -29.44 -3.84 0
v -28.8 -3.84 0
v -29.44 -4.48 0
v -30.08 -4.48 0
v -30.08 -3.84 0
v -29.44 -3.84 0
v -39.04 -4.48 0
v -39.68 -4.48 0
v -39.68 -3.84 0
v -39.04 -3.84 0
v -39.68 -4.48 0
v -40.32 -4.48 0
v -40.32 -3.84 0
v -39.68 -3.84 0
v -49.28 -4.48 0
v -49.92 -4.48 0
v -49.92 -3.84 0
v -49.28 -3.84 0
v -49.92 -4.48 0
v -50.56 -4.48 0
v -50.56 -3.84 0
v -49.92 -3.84 0
v -59.52 -4.48 0
v -60.16 -4.48 0
v -60.16 -3.84 0
v -59.52 -3.84 0
v -60.16 -4.48 0
v -60.8 -4.48 0
v -60.8 -3.84 0
v -60.16 -3.84 0
v -5.76 -5.12 0
v -6.4 -5.12 0
v -6.4 -4.48 0
v -5.76 -4.48 0
v -6.4 -5.12 0
v -7.04 -5.12 0
v -7.04 -4.48 0
v -6.4 -4.48 0
v -16 -5.12 0
v -16.64 -5.12 0
v -16.64 -4.48 0
v -16 -4.48 0
v -16.64 -5.12 0
v -17.28 -5.12 0
v -17.28 -4.48 0
v -16.64 -4.48 0
v -26.24 -5.12 0
v -26.88 -5.12 0
v -26.88 -4.48 0
v -26.24 -4.48 0
v -26.88 -5.12 0
v -27.52 -5.12 0
v -27.52 -4.48 0
v -26.88 -4.48 0
v -36.48 -5.12 0
v -37.12 -5.12 0
v -37.12 -4.48 0
v -36.48 -4.48 0
v -37.12 -5.12 0
v -37.76 -5.12 0
v -37.76 -4.48 0
v -37.12 -4.48 0
v -49.92 -5.12 0
v -50.56 -5.12 0
v -50.56 -4.48 0
v -49.92 -4.48 0
v -50.56 -5.12 0
v -51.2 -5.12 0
v -51.2 -4.48 0
v -50.56 -4.48 0
v -60.16 -5.12 0
v -60.8 -5.12 0
v -60.8 -4.48 0
v -60.16 -4.48 0
v -60.8 -5.12 0
v -61.44 -5.12 0
v -61.44 -4.48 0
v -60.8 -4.48 0
v -6.4 -5.76 0
v -7.04 -5.76 0
v -7.04 -5.12 0
v -6.4 -5.12 0
v -7.04 -5.76 0
v -7.68 -5.76 0
v -7.68 -5.12 0
v -7.04 -5.12 0
v -16.64 -5.76 0
v -17.28 -5.76 0
v -17.28 -5.12 0
v -16.64 -5.12 0
v -17.28 -5.76 0
v -17.92 -5.76 0
v -17.92 -5.12 0
v -17.28 -5.12 0
v -26.88 -5.76 0
v -27.52 -5.76 0
v -27.52 -5.12 0
v -26.88 -5.12 0
v -27.52 -5.76 0
v -28.16 -5.76 0
v -28.16 -5.12 0
v -27.52 -5.12 0
v -37.12 -5.76 0
v -37.76 -5.76 0
v -37.76 -5.12 0
v -37.12 -5.12 0
v -37.76 -5.76 0
v -38.4 -5.76 0
v -38.4 -5.12 0
v -37.76 -5.12 0
v -47.36 -5.76 0
v -48 -5.76 0
v -48 -5.12 0
v -47.36 -5.12 0
v -48 -5.76 0
v -48.64 -5.76 0
v -48.64 -5.12 0
v -48 -5.12 0
v -57.6 -5.76 0
v -58.24 -5.76 0
v -58.24 -5.12 0
v -57.6 -5.12 0
v -58.24 -5.76 0
v -58.88 -5.76 0
v -58.88 -5.12 0
v -58.24 -5.12 0
v -3.84 -6.4 0
v -4.48 -6.4 0
v -4.48 -5.76 0
v -3.84 -5.76 0
v -4.48 -6.4 0
v -5.12 -6.4 0
v -5.12 -5.76 0
v -4.48 -5.76 0
v -14.08 -6.4 0
v -14.72 -6.4 0
v -14.72 -5.76 0
v -14.08 -5.76 0
v -14.72 -6.4 0
v -15.36 -6.4 0
v -15.36 -5.76 0
v -14.72 -5.76 0
v -24.32 -6.4 0
v -24.96 -6.4 0
v -24.96 -5.76 0
v -24.32 -5.76 0
v -24.96 -6.4 0
v -25.6 -6.4 0
v -25.6 -5.76 0
v -24.96 -5.76 0
v -34.56 -6.4 0
v -35.2 -6.4 0
v -35.2 -5.76 0
v -34.56 -5.76 0
v -35.2 -6.4 0
v -35.84 -6.4 0
v -35.84 -5.76 0
v -35.2 -5.76 0
v -44.8 -6.4 0
v -45.44 -6.4 0
v -45.44 -5.76 0
v -44.8 -5.76 0
v -45.44 -6.4 0
v -46.08 -6.4 0
v -46.08 -5.76 0
v -45.44 -5.76 0
v -55.04 -6.4 0
v -55.68 -6.4 0
v -55.68 -5.76 0
v -55.04 -5.76 0
v -55.68 -6.4 0
v -56.32 -6.4 0
v -56.32 -5.76 0
v -55.68 -5.76 0
v -1.28 -7.04 0
v -1.92 -7.04 0
v -1.92 -6.4 0
v -1.28 -6.4 0
v -1.92 -7.04 0
v -2.56 -7.04 0
v -2.56 -6.4 0
v -1.92 -6.4 0
v -11.52 -7.04 0
v -12.16 -7.04 0
v -12.16 -6.4 0
v -11.52 -6.4 0
v -12.16 -7.04 0
v -12.8 -7.04 0
v -12.8 -6.4 0
v -12.16 -6.4 0
v -28.8 -8.32 0
v -29.44 -8.32 0
v -29.44 -7.68 0
v -28.8 -7.68 0
v -29.44 -8.32 0
v -30.08 -8.32 0
v -30.08 -7.68 0
v -29.44 -7.68 0
v -30.08 -8.32 0
v -30.72 -8.32 0
v -30.72 -7.68 0
v -30.08 -7.68 0
v -39.04 -8.32 0
v -39.68 -8.32 0
v -39.68 -7.68 0
v -39.04 -7.68 0
v -39.68 -8.32 0
v -40.32 -8.32 0
v -40.32 -7.68 0
v -39.68 -7.68 0
v -40.32 -8.32 0
v -40.96 -8.32 0
v -40.96 -7.68 0
v -40.32 -7.68 0
v -49.28 -8.32 0
v -49.92 -8.32 0
v -49.92 -7.68 0
v -49.28 -7.68 0
v -49.92 -8.32 0
v -50.56 -8.32 0
v -50.56 -7.68 0
v -49.92 -7.68 0
v -54.4 -8.32 0
v -55.04 -8.32 0
v -55.04 -7.68 0
v -54.4 -7.68 0
v -55.04 -8.32 0
v -55.68 -8.32 0
v -55.68 -7.68 0
v -55.04 -7.68 0
v -0.64 -8.96 0
v -1.28 -8.96 0
v -1.28 -8.32 0
v -0.64 -8.32 0
v -1.28 -8.96 0
v -1.92 -8.96 0
v -1.92 -8.32 0
v -1.28 -8.32 0
v -10.88 -8.96 0
v -11.52 -8.96 0
v -11.52 -8.32 0
v -10.88 -8.32 0
v -11.52 -8.96 0
v -12.16 -8.96 0
v -12.16 -8.32 0
v -11.52 -8.32 0
v -21.12 -8.96 0
v -21.76 -8.96 0
v -21.76 -8.32 0
v -21.12 -8.32 0
v -21.76 -8.96 0
v -22.4 -8.96 0
v -22.4 -8.32 0
v -21.76 -8.32 0
v -31.36 -8.96 0
v -32 -8.96 0
v -32 -8.32 0
v -31.36 -8.32 0
v -32 -8.96 0
v -32.64 -8.96 0
v -32.64 -8.32 0
v -32 -8.32 0
v -41.6 -8.96 0
v -42.24 -8.96 0
v -42.24 -8.32 0
v -41.6 -8.32 0
v -42.24 -8.96 0
v -42.88 -8.96 0
v -42.88 -8.32 0
v -42.24 -8.32 0
v -51.84 -8.96 0
v -52.48 -8.96 0
v -52.48 -8.32 0
v -51.84 -8.32 0
v -52.48 -8.96 0
v -53.12 -8.96 0
v -53.12 -8.32 0
v -52.48 -8.32 0
v -62.08 -8.96 0
v -62.72 -8.96 0
v -62.72 -8.32 0
v -62.08 -8.32 0
v -62.72 -8.96 0
v -63.36 -8.96 0
v -63.36 -8.32 0
v -62.72 -8.32 0
v -8.32 -9.599999 0
v -8.96 -9.599999 0
v -8.96 -8.96 0
v -8.32 -8.96 0
v -8.96 -9.599999 0
v -9.599999 -9.599999 0
v -9.599999 -8.96 0
v -8.96 -8.96 0
v -18.56 -9.599999 0
v -19.2 -9.599999 0
v -19.2 -8.96 0
v -18.56 -8.96 0
v -19.2 -9.599999 0
v -19.84 -9.599999 0
v -19.84 -8.96 0
v -19.2 -8.96 0
v -28.8 -9.599999 0
v -29.44 -9.599999 0
v -29.44 -8.96 0
v -28.8 -8.96 0
v -29.44 -9.599999 0
v -30.08 -9.599999 0
v -30.08 -8.96 0
v -29.44 -8.96 0
v -39.04 -9.599999 0
v -39.68 -9.599999 0
v -39.68 -8.96 0
v -39.04 -8.96 0
v -39.68 -9.599999 0
v -40.32 -9.599999 0
v -40.32 -8.96 0
v -39.68 -8.96 0
v -49.28 -9.599999 0
v -49.92 -9.599999 0
v -49.92 -8.96 0
v -49.28 -8.96 0
v -49.92 -9.599999 0
v -50.56 -9.599999 0
v -50.56 -8.96 0
v -49.92 -8.96 0
v -56.32 -9.599999 0
v -56.96 -9.599999 0
v -56.96 -8.96 0
v -56.32 -8.96 0
v -56.96 -9.599999 0
v -57.6 -9.599999 0
v -57.6 -8.96 0
v -56.96 -8.96 0
v -57.6 -9.599999 0
v -58.24 -9.599999 0
v -58.24 -8.96 0
v -57.6 -8.96 0
v -59.52 -9.599999 0
v -60.16 -9.599999 0
v -60.16 -8.96 0
v -59.52 -8.96 0
v -60.16 -9.599999 0
v -60.8 -9.599999 0
v -60.8 -8.96 0
v -60.16 -8.96 0
v -2.56 -10.24 0
v -3.2 -10.24 0
v -3.2 -9.599999 0
v -2.56 -9.599999 0
v -3.2 -10.24 0
v -3.84 -10.24 0
v -3.84 -9.599999 0
v -3.2 -9.599999 0
v -3.84 -10.24 0
v -4.48 -10.24 0
v -4.48 -9.599999 0
v -3.84 -9.599999 0
v -5.76 -10.24 0
v -6.4 -10.24 0
v -6.4 -9.599999 0
v -5.76 -9.599999 0
v -6.4 -10.24 0
v -7.04 -10.24 0
v -7.04 -9.599999 0
v -6.4 -9.599999 0
v -16 -10.24 0
v -16.64 -10.24 0
v -16.64 -9.599999 0
v -16 -9.599999 0
v -16.64 -10.24 0
v -17.28 -10.24 0
v -17.28 -9.599999 0
v -16.64 -9.599999 0
v -29.44 -10.24 0
v -30.08 -10.24 0
v -30.08 -9.599999 0
v -29.44 -9.599999 0
v -30.08 -10.24 0
v -30.72 -10.24 0
v -30.72 -9.599999 0
v -30.08 -9.599999 0
v -39.68 -10.24 0
v -40.32 -10.24 0
v -40.32 -9.599999 0
v -39.68 -9.599999 0
v -40.32 -10.24 0
v -40.96 -10.24 0
v -40.96 -9.599999 0
v -40.32 -9.599999 0
v -40.96 -10.24 0
v -41.6 -10.24 0
v -41.6 -9.599999 0
v -40.96 -9.599999 0
v -49.92 -10.24 0
v -50.56 -10.24 0
v -50.56 -9.599999 0
v -49.92 -9.599999 0
v -50.56 -10.24 0
v -51.2 -10.24 0
v -51.2 -9.599999 0
v -50.56 -9.599999 0
v -51.2 -10.24 0
v -51.84 -10.24 0
v -51.84 -9.599999 0
v -51.2 -9.599999 0
v -3.2 -12.16 0
v -3.84 -12.16 0
v -3.84 -11.52 0
v -3.2 -11.52 0
v -3.84 -12.16 0
v -4.48 -12.16 0
v -4.48 -11.52 0
v -3.84 -11.52 0
v -5.76 -12.16 0
v -6.4 -12.16 0
v -6.4 -11.52 0
v -5.76 -11.52 0
v -6.4 -12.16 0
v -7.04 -12.16 0
v -7.04 -11.52 0
v -6.4 -11.52 0
v -7.04 -12.16 0
v -7.68 -12.16 0
v -7.68 -11.52 0
v -7.04 -11.52 0
v -7.68 -12.16 0
v -8.32 -12.16 0
v -8.32 -11.52 0
v -7.68 -11.52 0
v -8.32 -12.16 0
v -8.96 -12.16 0
v -8.96 -11.52 0
v -8.32 -11.52 0
v -8.96 -12.16 0
v -9.599999 -12.16 0
v -9.599999 -11.52 0
v -8.96 -11.52 0
v -9.599999 -12.16 0
v -10.24 -12.16 0
v -10.24 -11.52 0
v -9.599999 -11.52 0
v -10.24 -12.16 0
v -10.88 -12.16 0
v -10.88 -11.52 0
v -10.24 -11.52 0
v -10.88 -12.16 0
v -11.52 -12.16 0
v -11.52 -11.52 0
v -10.88 -11.52 0
v -11.52 -12.16 0
v -12.16 -12.16 0
v -12.16 -11.52 0
v -11.52 -11.52 0
v -12.16 -12.16 0
v -12.8 -12.16 0
v -12.8 -11.52 0
v -12.16 -11.52 0
v -12.8 -12.16 0
v -13.44 -12.16 0
v -13.44 -11.52 0
v -12.8 -11.52 0
v -13.44 -12.16 0
v -14.08 -12.16 0
v -14.08 -11.52 0
v -13.44 -11.52 0
v -14.08 -12.16 0
v -14.72 -12.16 0
v -14.72 -11.52 0
v -14.08 -11.52 0
v -14.72 -12.16 0
v -15.36 -12.16 0
v -15.36 -11.52 0
v -14.72 -11.52 0
v -16 -12.16 0
v -16.64 -12.16 0
v -16.64 -11.52 0
v -16 -11.52 0
v -16.64 -12.16 0
v -17.28 -12.16 0
v -17.28 -11.52 0
v -16.64 -11.52 0
v -17.28 -12.16 0
v -17.92 -12.16 0
v -17.92 -11.52 0
v -17.28 -11.52 0
v -17.92 -12.16 0
v -18.56 -12.16 0
v -18.56 -11.52 0
v -17.92 -11.52 0
v -18.56 -12.16 0
v -19.2 -12.16 0
v -19.2 -11.52 0
v -18.56 -11.52 0
v -19.2 -12.16 0
v -19.84 -12.16 0
v -19.84 -11.52 0
v -19.2 -11.52 0
v -19.84 -12.16 0
v -20.48 -12.16 0
v -20.48 -11.52 0
v -19.84 -11.52 0
v -20.48 -12.16 0
v -21.12 -12.16 0
v -21.12 -11.52 0
v -20.48 -11.52 0
v -21.12 -12.16 0
v -21.76 -12.16 0
v -21.76 -11.52 0
v -21.12 -11.52 0
v -21.76 -12.16 0
v -22.4 -12.16 0
v -22.4 -11.52 0
v -21.76 -11.52 0
v -22.4 -12.16 0
v -23.04 -12.16 0
v -23.04 -11.52 0
v -22.4 -11.52 0
v -23.04 -12.16 0
v -23.68 -12.16 0
v -23.68 -11.52 0
v -23.04 -11.52 0
v -23.68 -12.16 0
v -24.32 -12.16 0
v -24.32 -11.52 0
v -23.68 -11.52 0
v -24.32 -12.16 0
v -24.96 -12.16 0
v -24.96 -11.52 0
v -24.32 -11.52 0
v -24.96 -12.16 0
v -25.6 -12.16 0
v -25.6 -11.52 0
v -24.96 -11.52 0
v -33.92 -13.44 0
v -34.56 -13.44 0
v -34.56 -12.8 0
v -33.92 -12.8 0
v -34.56 -13.44 0
v -35.2 -13.44 0
v -35.2 -12.8 0
v -34.56 -12.8 0
v -40.96 -13.44 0
v -41.6 -13.44 0
v -41.6 -12.8 0
v -40.96 -12.8 0
v -41.6 -13.44 0
v -42.24 -13.44 0
v -42.24 -12.8 0
v -41.6 -12.8 0
v -42.24 -13.44 0
v -42.88 -13.44 0
v -42.88 -12.8 0
v -42.24 -12.8 0
v -42.88 -13.44 0
v -43.52 -13.44 0
v -43.52 -12.8 0
v -42.88 -12.8 0
v -43.52 -13.44 0
v -44.16 -13.44 0
v -44.16 -12.8 0
v -43.52 -12.8 0
v -44.16 -13.44 0
v -44.8 -13.44 0
v -44.8 -12.8 0
v -44.16 -12.8 0
v -44.8 -13.44 0
v -45.44 -13.44 0
v -45.44 -12.8 0
v -44.8 -12.8 0
v -51.2 -13.44 0
v -51.84 -13.44 0
v -51.84 -12.8 0
v -51.2 -12.8 0
v -51.84 -13.44 0
v -52.48 -13.44 0
v -52.48 -12.8 0
v -51.84 -12.8 0
v -52.48 -13.44 0
v -53.12 -13.44 0
v -53.12 -12.8 0
v -52.48 -12.8 0
v -53.12 -13.44 0
v -53.76 -13.44 0
v -53.76 -12.8 0
v -53.12 -12.8 0
v -53.76 -13.44 0
v -54.4 -13.44 0
v -54.4 -12.8 0
v -53.76 -12.8 0
v -54.4 -13.44 0
v -55.04 -13.44 0
v -55.04 -12.8 0
v -54.4 -12.8 0
v -55.04 -13.44 0
v -55.68 -13.44 0
v -55.68 -12.8 0
v -55.04 -12.8 0

# Texture cooridinates (Count = 9)
vt 0.4117647 0.8636364
vt 0.4411765 0.8636364
vt 0.4411765 0.9090909
vt 0.4117647 0.9090909
vt 0.4705882 0.8636364
vt 0.4705882 0.9090909
vt 0.4117647 0.8181818
vt 0.4411765 0.8181818
vt 0.4705882 0.8181818

# Normal
vn 0 0 -1

# Mesh description
g NewBadManor_mesh_0076

# Faces
f 1/1/1 2/2/1 3/3/1 4/4/1
f 5/2/1 6/5/1 7/6/1 8/3/1
f 9/7/1 10/8/1 11/2/1 12/1/1
f 13/8/1 14/9/1 15/5/1 16/2/1
f 17/1/1 18/2/1 19/3/1 20/4/1
f 21/2/1 22/5/1 23/6/1 24/3/1
f 25/7/1 26/8/1 27/2/1 28/1/1
f 29/8/1 30/9/1 31/5/1 32/2/1
f 33/1/1 34/2/1 35/3/1 36/4/1
f 37/2/1 38/5/1 39/6/1 40/3/1
f 41/7/1 42/8/1 43/2/1 44/1/1
f 45/8/1 46/9/1 47/5/1 48/2/1
f 49/1/1 50/2/1 51/3/1 52/4/1
f 53/2/1 54/5/1 55/6/1 56/3/1
f 57/7/1 58/8/1 59/2/1 60/1/1
f 61/8/1 62/9/1 63/5/1 64/2/1
f 65/1/1 66/2/1 67/3/1 68/4/1
f 69/2/1 70/5/1 71/6/1 72/3/1
f 73/1/1 74/2/1 75/3/1 76/4/1
f 77/2/1 78/5/1 79/6/1 80/3/1
f 81/7/1 82/8/1 83/2/1 84/1/1
f 85/8/1 86/9/1 87/5/1 88/2/1
f 89/1/1 90/2/1 91/3/1 92/4/1
f 93/2/1 94/5/1 95/6/1 96/3/1
f 97/7/1 98/8/1 99/2/1 100/1/1
f 101/8/1 102/9/1 103/5/1 104/2/1
f 105/1/1 106/2/1 107/3/1 108/4/1
f 109/2/1 110/5/1 111/6/1 112/3/1
f 113/7/1 114/8/1 115/2/1 116/1/1
f 117/8/1 118/9/1 119/5/1 120/2/1
f 121/1/1 122/2/1 123/3/1 124/4/1
f 125/2/1 126/5/1 127/6/1 128/3/1
f 129/7/1 130/8/1 131/2/1 132/1/1
f 133/8/1 134/9/1 135/5/1 136/2/1
f 137/1/1 138/2/1 139/3/1 140/4/1
f 141/2/1 142/5/1 143/6/1 144/3/1
f 145/7/1 146/8/1 147/2/1 148/1/1
f 149/8/1 150/9/1 151/5/1 152/2/1
f 153/1/1 154/2/1 155/3/1 156/4/1
f 157/2/1 158/5/1 159/6/1 160/3/1
f 161/7/1 162/8/1 163/2/1 164/1/1
f 165/8/1 166/9/1 167/5/1 168/2/1
f 169/1/1 170/2/1 171/3/1 172/4/1
f 173/2/1 174/5/1 175/6/1 176/3/1
f 177/7/1 178/8/1 179/2/1 180/1/1
f 181/8/1 182/9/1 183/5/1 184/2/1
f 185/1/1 186/2/1 187/3/1 188/4/1
f 189/2/1 190/5/1 191/6/1 192/3/1
f 193/7/1 194/8/1 195/2/1 196/1/1
f 197/8/1 198/9/1 199/5/1 200/2/1
f 201/1/1 202/2/1 203/3/1 204/4/1
f 205/2/1 206/5/1 207/6/1 208/3/1
f 209/7/1 210/8/1 211/2/1 212/1/1
f 213/8/1 214/9/1 215/5/1 216/2/1
f 217/1/1 218/2/1 219/3/1 220/4/1
f 221/2/1 222/5/1 223/6/1 224/3/1
f 225/7/1 226/8/1 227/2/1 228/1/1
f 229/8/1 230/9/1 231/5/1 232/2/1
f 233/1/1 234/2/1 235/3/1 236/4/1
f 237/2/1 238/5/1 239/6/1 240/3/1
f 241/7/1 242/8/1 243/2/1 244/1/1
f 245/8/1 246/9/1 247/5/1 248/2/1
f 249/1/1 250/2/1 251/3/1 252/4/1
f 253/2/1 254/5/1 255/6/1 256/3/1
f 257/7/1 258/8/1 259/2/1 260/1/1
f 261/8/1 262/9/1 263/5/1 264/2/1
f 265/1/1 266/2/1 267/3/1 268/4/1
f 269/2/1 270/5/1 271/6/1 272/3/1
f 273/1/1 274/2/1 275/3/1 276/4/1
f 277/1/1 278/2/1 279/3/1 280/4/1
f 281/1/1 282/2/1 283/3/1 284/4/1
f 285/7/1 286/8/1 287/2/1 288/1/1
f 289/7/1 290/8/1 291/2/1 292/1/1
f 293/7/1 294/8/1 295/2/1 296/1/1
f 297/7/1 298/8/1 299/2/1 300/1/1
f 301/8/1 302/9/1 303/5/1 304/2/1
f 305/7/1 306/8/1 307/2/1 308/1/1
f 309/8/1 310/9/1 311/5/1 312/2/1
f 313/1/1 314/2/1 315/3/1 316/4/1
f 317/2/1 318/5/1 319/6/1 320/3/1
f 321/7/1 322/8/1 323/2/1 324/1/1
f 325/8/1 326/9/1 327/5/1 328/2/1
f 329/1/1 330/2/1 331/3/1 332/4/1
f 333/2/1 334/5/1 335/6/1 336/3/1
f 337/7/1 338/8/1 339/2/1 340/1/1
f 341/8/1 342/9/1 343/5/1 344/2/1
f 345/1/1 346/2/1 347/3/1 348/4/1
f 349/2/1 350/5/1 351/6/1 352/3/1
f 353/7/1 354/8/1 355/2/1 356/1/1
f 357/8/1 358/9/1 359/5/1 360/2/1
f 361/1/1 362/2/1 363/3/1 364/4/1
f 365/2/1 366/5/1 367/6/1 368/3/1
f 369/7/1 370/8/1 371/2/1 372/1/1
f 373/8/1 374/9/1 375/5/1 376/2/1
f 377/1/1 378/2/1 379/3/1 380/4/1
f 381/2/1 382/5/1 383/6/1 384/3/1
f 385/7/1 386/8/1 387/2/1 388/1/1
f 389/8/1 390/9/1 391/5/1 392/2/1
f 393/1/1 394/2/1 395/3/1 396/4/1
f 397/2/1 398/5/1 399/6/1 400/3/1
f 401/7/1 402/8/1 403/2/1 404/1/1
f 405/8/1 406/9/1 407/5/1 408/2/1
f 409/1/1 410/2/1 411/3/1 412/4/1
f 413/1/1 414/2/1 415/3/1 416/4/1
f 417/2/1 418/5/1 419/6/1 420/3/1
f 421/1/1 422/2/1 423/3/1 424/4/1
f 425/2/1 426/5/1 427/6/1 428/3/1
f 429/7/1 430/8/1 431/2/1 432/1/1
f 433/7/1 434/8/1 435/2/1 436/1/1
f 437/8/1 438/9/1 439/5/1 440/2/1
f 441/7/1 442/8/1 443/2/1 444/1/1
f 445/8/1 446/9/1 447/5/1 448/2/1
f 449/1/1 450/2/1 451/3/1 452/4/1
f 453/2/1 454/5/1 455/6/1 456/3/1
f 457/7/1 458/8/1 459/2/1 460/1/1
f 461/8/1 462/9/1 463/5/1 464/2/1
f 465/1/1 466/2/1 467/3/1 468/4/1
f 469/1/1 470/2/1 471/3/1 472/4/1
f 473/2/1 474/5/1 475/6/1 476/3/1
f 477/7/1 478/8/1 479/2/1 480/1/1
f 481/7/1 482/8/1 483/2/1 484/1/1
f 485/8/1 486/9/1 487/5/1 488/2/1
f 489/7/1 490/8/1 491/2/1 492/1/1
f 493/8/1 494/9/1 495/5/1 496/2/1
f 497/1/1 498/2/1 499/3/1 500/4/1
f 501/1/1 502/2/1 503/3/1 504/4/1
f 505/1/1 506/2/1 507/3/1 508/4/1
f 509/1/1 510/2/1 511/3/1 512/4/1
f 513/1/1 514/2/1 515/3/1 516/4/1
f 517/1/1 518/2/1 519/3/1 520/4/1
f 521/1/1 522/2/1 523/3/1 524/4/1
f 525/1/1 526/2/1 527/3/1 528/4/1
f 529/1/1 530/2/1 531/3/1 532/4/1
f 533/1/1 534/2/1 535/3/1 536/4/1
f 537/1/1 538/2/1 539/3/1 540/4/1
f 541/1/1 542/2/1 543/3/1 544/4/1
f 545/1/1 546/2/1 547/3/1 548/4/1
f 549/1/1 550/2/1 551/3/1 552/4/1
f 553/1/1 554/2/1 555/3/1 556/4/1
f 557/7/1 558/8/1 559/2/1 560/1/1
f 561/7/1 562/8/1 563/2/1 564/1/1
f 565/7/1 566/8/1 567/2/1 568/1/1
f 569/7/1 570/8/1 571/2/1 572/1/1
f 573/7/1 574/8/1 575/2/1 576/1/1
f 577/7/1 578/8/1 579/2/1 580/1/1
f 581/7/1 582/8/1 583/2/1 584/1/1
f 585/7/1 586/8/1 587/2/1 588/1/1
f 589/7/1 590/8/1 591/2/1 592/1/1
f 593/7/1 594/8/1 595/2/1 596/1/1
f 597/7/1 598/8/1 599/2/1 600/1/1
f 601/7/1 602/8/1 603/2/1 604/1/1
f 605/7/1 606/8/1 607/2/1 608/1/1
f 609/7/1 610/8/1 611/2/1 612/1/1
f 613/7/1 614/8/1 615/2/1 616/1/1
f 617/7/1 618/8/1 619/2/1 620/1/1
f 621/8/1 622/9/1 623/5/1 624/2/1
f 625/1/1 626/2/1 627/3/1 628/4/1
f 629/1/1 630/2/1 631/3/1 632/4/1
f 633/1/1 634/2/1 635/3/1 636/4/1
f 637/1/1 638/2/1 639/3/1 640/4/1
f 641/1/1 642/2/1 643/3/1 644/4/1
f 645/1/1 646/2/1 647/3/1 648/4/1
f 649/2/1 650/5/1 651/6/1 652/3/1
f 653/7/1 654/8/1 655/2/1 656/1/1
f 657/7/1 658/8/1 659/2/1 660/1/1
f 661/7/1 662/8/1 663/2/1 664/1/1
f 665/7/1 666/8/1 667/2/1 668/1/1
f 669/7/1 670/8/1 671/2/1 672/1/1
f 673/7/1 674/8/1 675/2/1 676/1/1
f 677/8/1 678/9/1 679/5/1 680/2/1

