# Tiled2Unity generated file. Do not modify by hand.
# Wavefront file for 'NewBadManor_mesh_0043.obj'

# Vertices (Count = 816)
v -47.36 -0.64 0
v -48 -0.64 0
v -48 0 0
v -47.36 0 0
v -48 -0.64 0
v -48.64 -0.64 0
v -48.64 0 0
v -48 0 0
v -48.64 -0.64 0
v -49.28 -0.64 0
v -49.28 0 0
v -48.64 0 0
v -49.28 -0.64 0
v -49.92 -0.64 0
v -49.92 0 0
v -49.28 0 0
v -49.92 -0.64 0
v -50.56 -0.64 0
v -50.56 0 0
v -49.92 0 0
v -50.56 -0.64 0
v -51.2 -0.64 0
v -51.2 0 0
v -50.56 0 0
v -57.6 -0.64 0
v -58.24 -0.64 0
v -58.24 0 0
v -57.6 0 0
v -58.24 -0.64 0
v -58.88 -0.64 0
v -58.88 0 0
v -58.24 0 0
v -58.88 -0.64 0
v -59.52 -0.64 0
v -59.52 0 0
v -58.88 0 0
v -59.52 -0.64 0
v -60.16 -0.64 0
v -60.16 0 0
v -59.52 0 0
v -60.16 -0.64 0
v -60.8 -0.64 0
v -60.8 0 0
v -60.16 0 0
v -60.8 -0.64 0
v -61.44 -0.64 0
v -61.44 0 0
v -60.8 0 0
v -3.84 -1.28 0
v -4.48 -1.28 0
v -4.48 -0.64 0
v -3.84 -0.64 0
v -4.48 -1.28 0
v -5.12 -1.28 0
v -5.12 -0.64 0
v -4.48 -0.64 0
v -5.12 -1.28 0
v -5.76 -1.28 0
v -5.76 -0.64 0
v -5.12 -0.64 0
v -5.76 -1.28 0
v -6.4 -1.28 0
v -6.4 -0.64 0
v -5.76 -0.64 0
v -6.4 -1.28 0
v -7.04 -1.28 0
v -7.04 -0.64 0
v -6.4 -0.64 0
v -7.04 -1.28 0
v -7.68 -1.28 0
v -7.68 -0.64 0
v -7.04 -0.64 0
v -14.08 -1.28 0
v -14.72 -1.28 0
v -14.72 -0.64 0
v -14.08 -0.64 0
v -14.72 -1.28 0
v -15.36 -1.28 0
v -15.36 -0.64 0
v -14.72 -0.64 0
v -15.36 -1.28 0
v -16 -1.28 0
v -16 -0.64 0
v -15.36 -0.64 0
v -16 -1.28 0
v -16.64 -1.28 0
v -16.64 -0.64 0
v -16 -0.64 0
v -16.64 -1.28 0
v -17.28 -1.28 0
v -17.28 -0.64 0
v -16.64 -0.64 0
v -17.28 -1.28 0
v -17.92 -1.28 0
v -17.92 -0.64 0
v -17.28 -0.64 0
v -24.32 -1.28 0
v -24.96 -1.28 0
v -24.96 -0.64 0
v -24.32 -0.64 0
v -24.96 -1.28 0
v -25.6 -1.28 0
v -25.6 -0.64 0
v -24.96 -0.64 0
v -25.6 -1.28 0
v -26.24 -1.28 0
v -26.24 -0.64 0
v -25.6 -0.64 0
v -26.24 -1.28 0
v -26.88 -1.28 0
v -26.88 -0.64 0
v -26.24 -0.64 0
v -26.88 -1.28 0
v -27.52 -1.28 0
v -27.52 -0.64 0
v -26.88 -0.64 0
v -27.52 -1.28 0
v -28.16 -1.28 0
v -28.16 -0.64 0
v -27.52 -0.64 0
v -34.56 -1.28 0
v -35.2 -1.28 0
v -35.2 -0.64 0
v -34.56 -0.64 0
v -35.2 -1.28 0
v -35.84 -1.28 0
v -35.84 -0.64 0
v -35.2 -0.64 0
v -35.84 -1.28 0
v -36.48 -1.28 0
v -36.48 -0.64 0
v -35.84 -0.64 0
v -36.48 -1.28 0
v -37.12 -1.28 0
v -37.12 -0.64 0
v -36.48 -0.64 0
v -37.12 -1.28 0
v -37.76 -1.28 0
v -37.76 -0.64 0
v -37.12 -0.64 0
v -37.76 -1.28 0
v -38.4 -1.28 0
v -38.4 -0.64 0
v -37.76 -0.64 0
v -44.8 -1.28 0
v -45.44 -1.28 0
v -45.44 -0.64 0
v -44.8 -0.64 0
v -45.44 -1.28 0
v -46.08 -1.28 0
v -46.08 -0.64 0
v -45.44 -0.64 0
v -46.08 -1.28 0
v -46.72 -1.28 0
v -46.72 -0.64 0
v -46.08 -0.64 0
v -46.72 -1.28 0
v -47.36 -1.28 0
v -47.36 -0.64 0
v -46.72 -0.64 0
v -47.36 -1.28 0
v -48 -1.28 0
v -48 -0.64 0
v -47.36 -0.64 0
v -48 -1.28 0
v -48.64 -1.28 0
v -48.64 -0.64 0
v -48 -0.64 0
v -55.04 -1.28 0
v -55.68 -1.28 0
v -55.68 -0.64 0
v -55.04 -0.64 0
v -55.68 -1.28 0
v -56.32 -1.28 0
v -56.32 -0.64 0
v -55.68 -0.64 0
v -56.32 -1.28 0
v -56.96 -1.28 0
v -56.96 -0.64 0
v -56.32 -0.64 0
v -56.96 -1.28 0
v -57.6 -1.28 0
v -57.6 -0.64 0
v -56.96 -0.64 0
v -57.6 -1.28 0
v -58.24 -1.28 0
v -58.24 -0.64 0
v -57.6 -0.64 0
v -58.24 -1.28 0
v -58.88 -1.28 0
v -58.88 -0.64 0
v -58.24 -0.64 0
v -1.28 -1.92 0
v -1.92 -1.92 0
v -1.92 -1.28 0
v -1.28 -1.28 0
v -1.92 -1.92 0
v -2.56 -1.92 0
v -2.56 -1.28 0
v -1.92 -1.28 0
v -2.56 -1.92 0
v -3.2 -1.92 0
v -3.2 -1.28 0
v -2.56 -1.28 0
v -3.2 -1.92 0
v -3.84 -1.92 0
v -3.84 -1.28 0
v -3.2 -1.28 0
v -3.84 -1.92 0
v -4.48 -1.92 0
v -4.48 -1.28 0
v -3.84 -1.28 0
v -4.48 -1.92 0
v -5.12 -1.92 0
v -5.12 -1.28 0
v -4.48 -1.28 0
v -11.52 -1.92 0
v -12.16 -1.92 0
v -12.16 -1.28 0
v -11.52 -1.28 0
v -12.16 -1.92 0
v -12.8 -1.92 0
v -12.8 -1.28 0
v -12.16 -1.28 0
v -12.8 -1.92 0
v -13.44 -1.92 0
v -13.44 -1.28 0
v -12.8 -1.28 0
v -13.44 -1.92 0
v -14.08 -1.92 0
v -14.08 -1.28 0
v -13.44 -1.28 0
v -14.08 -1.92 0
v -14.72 -1.92 0
v -14.72 -1.28 0
v -14.08 -1.28 0
v -14.72 -1.92 0
v -15.36 -1.92 0
v -15.36 -1.28 0
v -14.72 -1.28 0
v -12.8 -2.56 0
v -13.44 -2.56 0
v -13.44 -1.92 0
v -12.8 -1.92 0
v -13.44 -2.56 0
v -14.08 -2.56 0
v -14.08 -1.92 0
v -13.44 -1.92 0
v -14.08 -2.56 0
v -14.72 -2.56 0
v -14.72 -1.92 0
v -14.08 -1.92 0
v -14.72 -2.56 0
v -15.36 -2.56 0
v -15.36 -1.92 0
v -14.72 -1.92 0
v -15.36 -2.56 0
v -16 -2.56 0
v -16 -1.92 0
v -15.36 -1.92 0
v -16 -2.56 0
v -16.64 -2.56 0
v -16.64 -1.92 0
v -16 -1.92 0
v -16.64 -2.56 0
v -17.28 -2.56 0
v -17.28 -1.92 0
v -16.64 -1.92 0
v -17.28 -2.56 0
v -17.92 -2.56 0
v -17.92 -1.92 0
v -17.28 -1.92 0
v -17.92 -2.56 0
v -18.56 -2.56 0
v -18.56 -1.92 0
v -17.92 -1.92 0
v -18.56 -2.56 0
v -19.2 -2.56 0
v -19.2 -1.92 0
v -18.56 -1.92 0
v -19.2 -2.56 0
v -19.84 -2.56 0
v -19.84 -1.92 0
v -19.2 -1.92 0
v -19.84 -2.56 0
v -20.48 -2.56 0
v -20.48 -1.92 0
v -19.84 -1.92 0
v -20.48 -2.56 0
v -21.12 -2.56 0
v -21.12 -1.92 0
v -20.48 -1.92 0
v -21.12 -2.56 0
v -21.76 -2.56 0
v -21.76 -1.92 0
v -21.12 -1.92 0
v -21.76 -2.56 0
v -22.4 -2.56 0
v -22.4 -1.92 0
v -21.76 -1.92 0
v -22.4 -2.56 0
v -23.04 -2.56 0
v -23.04 -1.92 0
v -22.4 -1.92 0
v -23.04 -2.56 0
v -23.68 -2.56 0
v -23.68 -1.92 0
v -23.04 -1.92 0
v -23.68 -2.56 0
v -24.32 -2.56 0
v -24.32 -1.92 0
v -23.68 -1.92 0
v -24.32 -2.56 0
v -24.96 -2.56 0
v -24.96 -1.92 0
v -24.32 -1.92 0
v -24.96 -2.56 0
v -25.6 -2.56 0
v -25.6 -1.92 0
v -24.96 -1.92 0
v -25.6 -2.56 0
v -26.24 -2.56 0
v -26.24 -1.92 0
v -25.6 -1.92 0
v -26.24 -2.56 0
v -26.88 -2.56 0
v -26.88 -1.92 0
v -26.24 -1.92 0
v -26.88 -2.56 0
v -27.52 -2.56 0
v -27.52 -1.92 0
v -26.88 -1.92 0
v -27.52 -2.56 0
v -28.16 -2.56 0
v -28.16 -1.92 0
v -27.52 -1.92 0
v -28.16 -2.56 0
v -28.8 -2.56 0
v -28.8 -1.92 0
v -28.16 -1.92 0
v -28.8 -2.56 0
v -29.44 -2.56 0
v -29.44 -1.92 0
v -28.8 -1.92 0
v -29.44 -2.56 0
v -30.08 -2.56 0
v -30.08 -1.92 0
v -29.44 -1.92 0
v -30.08 -2.56 0
v -30.72 -2.56 0
v -30.72 -1.92 0
v -30.08 -1.92 0
v -30.72 -2.56 0
v -31.36 -2.56 0
v -31.36 -1.92 0
v -30.72 -1.92 0
v -31.36 -2.56 0
v -32 -2.56 0
v -32 -1.92 0
v -31.36 -1.92 0
v -32 -2.56 0
v -32.64 -2.56 0
v -32.64 -1.92 0
v -32 -1.92 0
v -32.64 -2.56 0
v -33.28 -2.56 0
v -33.28 -1.92 0
v -32.64 -1.92 0
v -33.28 -2.56 0
v -33.92 -2.56 0
v -33.92 -1.92 0
v -33.28 -1.92 0
v -33.92 -2.56 0
v -34.56 -2.56 0
v -34.56 -1.92 0
v -33.92 -1.92 0
v -34.56 -2.56 0
v -35.2 -2.56 0
v -35.2 -1.92 0
v -34.56 -1.92 0
v -42.24 -2.56 0
v -42.88 -2.56 0
v -42.88 -1.92 0
v -42.24 -1.92 0
v -42.88 -2.56 0
v -43.52 -2.56 0
v -43.52 -1.92 0
v -42.88 -1.92 0
v -43.52 -2.56 0
v -44.16 -2.56 0
v -44.16 -1.92 0
v -43.52 -1.92 0
v -44.16 -2.56 0
v -44.8 -2.56 0
v -44.8 -1.92 0
v -44.16 -1.92 0
v -44.8 -2.56 0
v -45.44 -2.56 0
v -45.44 -1.92 0
v -44.8 -1.92 0
v -52.48 -2.56 0
v -53.12 -2.56 0
v -53.12 -1.92 0
v -52.48 -1.92 0
v -53.12 -2.56 0
v -53.76 -2.56 0
v -53.76 -1.92 0
v -53.12 -1.92 0
v -53.76 -2.56 0
v -54.4 -2.56 0
v -54.4 -1.92 0
v -53.76 -1.92 0
v -54.4 -2.56 0
v -55.04 -2.56 0
v -55.04 -1.92 0
v -54.4 -1.92 0
v -55.04 -2.56 0
v -55.68 -2.56 0
v -55.68 -1.92 0
v -55.04 -1.92 0
v -62.72 -2.56 0
v -63.36 -2.56 0
v -63.36 -1.92 0
v -62.72 -1.92 0
v -63.36 -2.56 0
v -64 -2.56 0
v -64 -1.92 0
v -63.36 -1.92 0
v 0 -3.2 0
v -0.64 -3.2 0
v -0.64 -2.56 0
v 0 -2.56 0
v -0.64 -3.2 0
v -1.28 -3.2 0
v -1.28 -2.56 0
v -0.64 -2.56 0
v -1.28 -3.2 0
v -1.92 -3.2 0
v -1.92 -2.56 0
v -1.28 -2.56 0
v -8.96 -3.2 0
v -9.599999 -3.2 0
v -9.599999 -2.56 0
v -8.96 -2.56 0
v -9.599999 -3.2 0
v -10.24 -3.2 0
v -10.24 -2.56 0
v -9.599999 -2.56 0
v -10.24 -3.2 0
v -10.88 -3.2 0
v -10.88 -2.56 0
v -10.24 -2.56 0
v -10.88 -3.2 0
v -11.52 -3.2 0
v -11.52 -2.56 0
v -10.88 -2.56 0
v -11.52 -3.2 0
v -12.16 -3.2 0
v -12.16 -2.56 0
v -11.52 -2.56 0
v -19.2 -3.2 0
v -19.84 -3.2 0
v -19.84 -2.56 0
v -19.2 -2.56 0
v -19.84 -3.2 0
v -20.48 -3.2 0
v -20.48 -2.56 0
v -19.84 -2.56 0
v -20.48 -3.2 0
v -21.12 -3.2 0
v -21.12 -2.56 0
v -20.48 -2.56 0
v -21.12 -3.2 0
v -21.76 -3.2 0
v -21.76 -2.56 0
v -21.12 -2.56 0
v -21.76 -3.2 0
v -22.4 -3.2 0
v -22.4 -2.56 0
v -21.76 -2.56 0
v -29.44 -3.2 0
v -30.08 -3.2 0
v -30.08 -2.56 0
v -29.44 -2.56 0
v -30.08 -3.2 0
v -30.72 -3.2 0
v -30.72 -2.56 0
v -30.08 -2.56 0
v -30.72 -3.2 0
v -31.36 -3.2 0
v -31.36 -2.56 0
v -30.72 -2.56 0
v -31.36 -3.2 0
v -32 -3.2 0
v -32 -2.56 0
v -31.36 -2.56 0
v -32 -3.2 0
v -32.64 -3.2 0
v -32.64 -2.56 0
v -32 -2.56 0
v -32.64 -3.2 0
v -33.28 -3.2 0
v -33.28 -2.56 0
v -32.64 -2.56 0
v -33.28 -3.2 0
v -33.92 -3.2 0
v -33.92 -2.56 0
v -33.28 -2.56 0
v -33.92 -3.2 0
v -34.56 -3.2 0
v -34.56 -2.56 0
v -33.92 -2.56 0
v -34.56 -3.2 0
v -35.2 -3.2 0
v -35.2 -2.56 0
v -34.56 -2.56 0
v -35.2 -3.2 0
v -35.84 -3.2 0
v -35.84 -2.56 0
v -35.2 -2.56 0
v -35.84 -3.2 0
v -36.48 -3.2 0
v -36.48 -2.56 0
v -35.84 -2.56 0
v -36.48 -3.2 0
v -37.12 -3.2 0
v -37.12 -2.56 0
v -36.48 -2.56 0
v -37.12 -3.2 0
v -37.76 -3.2 0
v -37.76 -2.56 0
v -37.12 -2.56 0
v -37.76 -3.2 0
v -38.4 -3.2 0
v -38.4 -2.56 0
v -37.76 -2.56 0
v -38.4 -3.2 0
v -39.04 -3.2 0
v -39.04 -2.56 0
v -38.4 -2.56 0
v -39.04 -3.2 0
v -39.68 -3.2 0
v -39.68 -2.56 0
v -39.04 -2.56 0
v -39.68 -3.2 0
v -40.32 -3.2 0
v -40.32 -2.56 0
v -39.68 -2.56 0
v -40.32 -3.2 0
v -40.96 -3.2 0
v -40.96 -2.56 0
v -40.32 -2.56 0
v -40.96 -3.2 0
v -41.6 -3.2 0
v -41.6 -2.56 0
v -40.96 -2.56 0
v -41.6 -3.2 0
v -42.24 -3.2 0
v -42.24 -2.56 0
v -41.6 -2.56 0
v -42.24 -3.2 0
v -42.88 -3.2 0
v -42.88 -2.56 0
v -42.24 -2.56 0
v -42.88 -3.2 0
v -43.52 -3.2 0
v -43.52 -2.56 0
v -42.88 -2.56 0
v -43.52 -3.2 0
v -44.16 -3.2 0
v -44.16 -2.56 0
v -43.52 -2.56 0
v -44.16 -3.2 0
v -44.8 -3.2 0
v -44.8 -2.56 0
v -44.16 -2.56 0
v -44.8 -3.2 0
v -45.44 -3.2 0
v -45.44 -2.56 0
v -44.8 -2.56 0
v -45.44 -3.2 0
v -46.08 -3.2 0
v -46.08 -2.56 0
v -45.44 -2.56 0
v -46.08 -3.2 0
v -46.72 -3.2 0
v -46.72 -2.56 0
v -46.08 -2.56 0
v -46.72 -3.2 0
v -47.36 -3.2 0
v -47.36 -2.56 0
v -46.72 -2.56 0
v -47.36 -3.2 0
v -48 -3.2 0
v -48 -2.56 0
v -47.36 -2.56 0
v -48 -3.2 0
v -48.64 -3.2 0
v -48.64 -2.56 0
v -48 -2.56 0
v -48.64 -3.2 0
v -49.28 -3.2 0
v -49.28 -2.56 0
v -48.64 -2.56 0
v -49.28 -3.2 0
v -49.92 -3.2 0
v -49.92 -2.56 0
v -49.28 -2.56 0
v -49.92 -3.2 0
v -50.56 -3.2 0
v -50.56 -2.56 0
v -49.92 -2.56 0
v -50.56 -3.2 0
v -51.2 -3.2 0
v -51.2 -2.56 0
v -50.56 -2.56 0
v -48.64 -3.84 0
v -49.28 -3.84 0
v -49.28 -3.2 0
v -48.64 -3.2 0
v -49.28 -3.84 0
v -49.92 -3.84 0
v -49.92 -3.2 0
v -49.28 -3.2 0
v -49.92 -3.84 0
v -50.56 -3.84 0
v -50.56 -3.2 0
v -49.92 -3.2 0
v -50.56 -3.84 0
v -51.2 -3.84 0
v -51.2 -3.2 0
v -50.56 -3.2 0
v -51.2 -3.84 0
v -51.84 -3.84 0
v -51.84 -3.2 0
v -51.2 -3.2 0
v -58.88 -3.84 0
v -59.52 -3.84 0
v -59.52 -3.2 0
v -58.88 -3.2 0
v -59.52 -3.84 0
v -60.16 -3.84 0
v -60.16 -3.2 0
v -59.52 -3.2 0
v -60.16 -3.84 0
v -60.8 -3.84 0
v -60.8 -3.2 0
v -60.16 -3.2 0
v -60.8 -3.84 0
v -61.44 -3.84 0
v -61.44 -3.2 0
v -60.8 -3.2 0
v -61.44 -3.84 0
v -62.08 -3.84 0
v -62.08 -3.2 0
v -61.44 -3.2 0
v -5.12 -4.48 0
v -5.76 -4.48 0
v -5.76 -3.84 0
v -5.12 -3.84 0
v -5.76 -4.48 0
v -6.4 -4.48 0
v -6.4 -3.84 0
v -5.76 -3.84 0
v -6.4 -4.48 0
v -7.04 -4.48 0
v -7.04 -3.84 0
v -6.4 -3.84 0
v -7.04 -4.48 0
v -7.68 -4.48 0
v -7.68 -3.84 0
v -7.04 -3.84 0
v -7.68 -4.48 0
v -8.32 -4.48 0
v -8.32 -3.84 0
v -7.68 -3.84 0
v -15.36 -4.48 0
v -16 -4.48 0
v -16 -3.84 0
v -15.36 -3.84 0
v -16 -4.48 0
v -16.64 -4.48 0
v -16.64 -3.84 0
v -16 -3.84 0
v -16.64 -4.48 0
v -17.28 -4.48 0
v -17.28 -3.84 0
v -16.64 -3.84 0
v -17.28 -4.48 0
v -17.92 -4.48 0
v -17.92 -3.84 0
v -17.28 -3.84 0
v -17.92 -4.48 0
v -18.56 -4.48 0
v -18.56 -3.84 0
v -17.92 -3.84 0
v -25.6 -4.48 0
v -26.24 -4.48 0
v -26.24 -3.84 0
v -25.6 -3.84 0
v -26.24 -4.48 0
v -26.88 -4.48 0
v -26.88 -3.84 0
v -26.24 -3.84 0
v -26.88 -4.48 0
v -27.52 -4.48 0
v -27.52 -3.84 0
v -26.88 -3.84 0
v -27.52 -4.48 0
v -28.16 -4.48 0
v -28.16 -3.84 0
v -27.52 -3.84 0
v -28.16 -4.48 0
v -28.8 -4.48 0
v -28.8 -3.84 0
v -28.16 -3.84 0
v -35.84 -4.48 0
v -36.48 -4.48 0
v -36.48 -3.84 0
v -35.84 -3.84 0
v -36.48 -4.48 0
v -37.12 -4.48 0
v -37.12 -3.84 0
v -36.48 -3.84 0
v -37.12 -4.48 0
v -37.76 -4.48 0
v -37.76 -3.84 0
v -37.12 -3.84 0
v -37.76 -4.48 0
v -38.4 -4.48 0
v -38.4 -3.84 0
v -37.76 -3.84 0
v -38.4 -4.48 0
v -39.04 -4.48 0
v -39.04 -3.84 0
v -38.4 -3.84 0
v -46.08 -4.48 0
v -46.72 -4.48 0
v -46.72 -3.84 0
v -46.08 -3.84 0
v -46.72 -4.48 0
v -47.36 -4.48 0
v -47.36 -3.84 0
v -46.72 -3.84 0
v -47.36 -4.48 0
v -48 -4.48 0
v -48 -3.84 0
v -47.36 -3.84 0
v -48 -4.48 0
v -48.64 -4.48 0
v -48.64 -3.84 0
v -48 -3.84 0
v -48.64 -4.48 0
v -49.28 -4.48 0
v -49.28 -3.84 0
v -48.64 -3.84 0
v -56.32 -4.48 0
v -56.96 -4.48 0
v -56.96 -3.84 0
v -56.32 -3.84 0
v -56.96 -4.48 0
v -57.6 -4.48 0
v -57.6 -3.84 0
v -56.96 -3.84 0
v -57.6 -4.48 0
v -58.24 -4.48 0
v -58.24 -3.84 0
v -57.6 -3.84 0
v -58.24 -4.48 0
v -58.88 -4.48 0
v -58.88 -3.84 0
v -58.24 -3.84 0
v -58.88 -4.48 0
v -59.52 -4.48 0
v -59.52 -3.84 0
v -58.88 -3.84 0
v -2.56 -5.12 0
v -3.2 -5.12 0
v -3.2 -4.48 0
v -2.56 -4.48 0
v -3.2 -5.12 0
v -3.84 -5.12 0
v -3.84 -4.48 0
v -3.2 -4.48 0
v -3.84 -5.12 0
v -4.48 -5.12 0
v -4.48 -4.48 0
v -3.84 -4.48 0
v -4.48 -5.12 0
v -5.12 -5.12 0
v -5.12 -4.48 0
v -4.48 -4.48 0
v -5.12 -5.12 0
v -5.76 -5.12 0
v -5.76 -4.48 0
v -5.12 -4.48 0
v -12.8 -5.12 0
v -13.44 -5.12 0
v -13.44 -4.48 0
v -12.8 -4.48 0
v -13.44 -5.12 0
v -14.08 -5.12 0
v -14.08 -4.48 0
v -13.44 -4.48 0
v -14.08 -5.12 0
v -14.72 -5.12 0
v -14.72 -4.48 0
v -14.08 -4.48 0
v -14.72 -5.12 0
v -15.36 -5.12 0
v -15.36 -4.48 0
v -14.72 -4.48 0
v -15.36 -5.12 0
v -16 -5.12 0
v -16 -4.48 0
v -15.36 -4.48 0

# Texture cooridinates (Count = 63)
vt 0 0.5833334
vt 0.1666667 0.5833334
vt 0.1666667 0.6666666
vt 0 0.6666666
vt 0.3333333 0.5833334
vt 0.3333333 0.6666666
vt 0.5 0.5833334
vt 0.5 0.6666666
vt 0.6666667 0.5833334
vt 0.6666667 0.6666666
vt 0 0.5
vt 0.1666667 0.5
vt 0.3333333 0.5
vt 0.5 0.5
vt 0.6666667 0.5
vt 0 0.4166667
vt 0.1666667 0.4166667
vt 0.3333333 0.4166667
vt 0.5 0.4166667
vt 0.6666667 0.4166667
vt 0 0.3333333
vt 0.1666667 0.3333333
vt 0.3333333 0.3333333
vt 0.5 0.3333333
vt 0.6666667 0.3333333
vt 0 0.08333331
vt 0.1666667 0.08333331
vt 0.1666667 0.1666667
vt 0 0.1666667
vt 0.3333333 0.08333331
vt 0.3333333 0.1666667
vt 0 0
vt 0.1666667 0
vt 0.3333333 0
vt 0.5 0.08333331
vt 0.5 0.1666667
vt 0.6666667 0.08333331
vt 0.6666667 0.1666667
vt 0.5 0
vt 0.6666667 0
vt 0 0.25
vt 0.1666667 0.25
vt 0.3333333 0.25
vt 0.5 0.25
vt 0.6666667 0.25
vt 0.8333333 0.08333331
vt 1 0.08333331
vt 1 0.1666667
vt 0.8333333 0.1666667
vt 0.8333333 0
vt 1 0
vt 0.8333333 0.5833334
vt 0.8333333 0.6666666
vt 1 0.5833334
vt 1 0.6666666
vt 0.8333333 0.5
vt 1 0.5
vt 0.8333333 0.4166667
vt 1 0.4166667
vt 0.8333333 0.3333333
vt 1 0.3333333
vt 0.8333333 0.25
vt 1 0.25

# Normal
vn 0 0 -1

# Mesh description
g NewBadManor_mesh_0043

# Faces
f 1/1/1 2/2/1 3/3/1 4/4/1
f 5/2/1 6/5/1 7/6/1 8/3/1
f 9/5/1 10/7/1 11/8/1 12/6/1
f 13/7/1 14/9/1 15/10/1 16/8/1
f 17/5/1 18/7/1 19/8/1 20/6/1
f 21/7/1 22/9/1 23/10/1 24/8/1
f 25/11/1 26/12/1 27/2/1 28/1/1
f 29/12/1 30/13/1 31/5/1 32/2/1
f 33/13/1 34/14/1 35/7/1 36/5/1
f 37/14/1 38/15/1 39/9/1 40/7/1
f 41/13/1 42/14/1 43/7/1 44/5/1
f 45/14/1 46/15/1 47/9/1 48/7/1
f 49/16/1 50/17/1 51/12/1 52/11/1
f 53/17/1 54/18/1 55/13/1 56/12/1
f 57/18/1 58/19/1 59/14/1 60/13/1
f 61/19/1 62/20/1 63/15/1 64/14/1
f 65/18/1 66/19/1 67/14/1 68/13/1
f 69/19/1 70/20/1 71/15/1 72/14/1
f 73/21/1 74/22/1 75/17/1 76/16/1
f 77/22/1 78/23/1 79/18/1 80/17/1
f 81/23/1 82/24/1 83/19/1 84/18/1
f 85/24/1 86/25/1 87/20/1 88/19/1
f 89/26/1 90/27/1 91/28/1 92/29/1
f 93/27/1 94/30/1 95/31/1 96/28/1
f 97/16/1 98/17/1 99/12/1 100/11/1
f 101/17/1 102/18/1 103/13/1 104/12/1
f 105/18/1 106/19/1 107/14/1 108/13/1
f 109/19/1 110/20/1 111/15/1 112/14/1
f 113/32/1 114/33/1 115/27/1 116/26/1
f 117/33/1 118/34/1 119/30/1 120/27/1
f 121/21/1 122/22/1 123/17/1 124/16/1
f 125/22/1 126/23/1 127/18/1 128/17/1
f 129/23/1 130/24/1 131/19/1 132/18/1
f 133/24/1 134/25/1 135/20/1 136/19/1
f 137/23/1 138/24/1 139/19/1 140/18/1
f 141/24/1 142/25/1 143/20/1 144/19/1
f 145/16/1 146/17/1 147/12/1 148/11/1
f 149/17/1 150/18/1 151/13/1 152/12/1
f 153/18/1 154/19/1 155/14/1 156/13/1
f 157/30/1 158/35/1 159/36/1 160/31/1
f 161/35/1 162/37/1 163/38/1 164/36/1
f 165/19/1 166/20/1 167/15/1 168/14/1
f 169/21/1 170/22/1 171/17/1 172/16/1
f 173/22/1 174/23/1 175/18/1 176/17/1
f 177/23/1 178/24/1 179/19/1 180/18/1
f 181/34/1 182/39/1 183/35/1 184/30/1
f 185/39/1 186/40/1 187/37/1 188/35/1
f 189/24/1 190/25/1 191/20/1 192/19/1
f 193/41/1 194/42/1 195/22/1 196/21/1
f 197/42/1 198/43/1 199/23/1 200/22/1
f 201/43/1 202/44/1 203/24/1 204/23/1
f 205/44/1 206/45/1 207/25/1 208/24/1
f 209/43/1 210/44/1 211/24/1 212/23/1
f 213/44/1 214/45/1 215/25/1 216/24/1
f 217/29/1 218/28/1 219/42/1 220/41/1
f 221/28/1 222/31/1 223/43/1 224/42/1
f 225/31/1 226/36/1 227/44/1 228/43/1
f 229/36/1 230/38/1 231/45/1 232/44/1
f 233/36/1 234/38/1 235/45/1 236/44/1
f 237/31/1 238/36/1 239/44/1 240/43/1
f 241/5/1 242/7/1 243/8/1 244/6/1
f 245/7/1 246/9/1 247/10/1 248/8/1
f 249/5/1 250/7/1 251/8/1 252/6/1
f 253/7/1 254/9/1 255/10/1 256/8/1
f 257/5/1 258/7/1 259/8/1 260/6/1
f 261/7/1 262/9/1 263/10/1 264/8/1
f 265/5/1 266/7/1 267/8/1 268/6/1
f 269/7/1 270/9/1 271/10/1 272/8/1
f 273/5/1 274/7/1 275/8/1 276/6/1
f 277/7/1 278/9/1 279/10/1 280/8/1
f 281/5/1 282/7/1 283/8/1 284/6/1
f 285/7/1 286/9/1 287/10/1 288/8/1
f 289/5/1 290/7/1 291/8/1 292/6/1
f 293/7/1 294/9/1 295/10/1 296/8/1
f 297/5/1 298/7/1 299/8/1 300/6/1
f 301/7/1 302/9/1 303/10/1 304/8/1
f 305/13/1 306/14/1 307/7/1 308/5/1
f 309/14/1 310/15/1 311/9/1 312/7/1
f 313/13/1 314/14/1 315/7/1 316/5/1
f 317/14/1 318/15/1 319/9/1 320/7/1
f 321/13/1 322/14/1 323/7/1 324/5/1
f 325/14/1 326/15/1 327/9/1 328/7/1
f 329/13/1 330/14/1 331/7/1 332/5/1
f 333/14/1 334/15/1 335/9/1 336/7/1
f 337/13/1 338/14/1 339/7/1 340/5/1
f 341/14/1 342/15/1 343/9/1 344/7/1
f 345/13/1 346/14/1 347/7/1 348/5/1
f 349/14/1 350/15/1 351/9/1 352/7/1
f 353/13/1 354/14/1 355/7/1 356/5/1
f 357/14/1 358/15/1 359/9/1 360/7/1
f 361/13/1 362/14/1 363/7/1 364/5/1
f 365/14/1 366/15/1 367/9/1 368/7/1
f 369/18/1 370/19/1 371/14/1 372/13/1
f 373/19/1 374/20/1 375/15/1 376/14/1
f 377/18/1 378/19/1 379/14/1 380/13/1
f 381/46/1 382/47/1 383/48/1 384/49/1
f 385/19/1 386/20/1 387/15/1 388/14/1
f 389/23/1 390/24/1 391/19/1 392/18/1
f 393/24/1 394/25/1 395/20/1 396/19/1
f 397/23/1 398/24/1 399/19/1 400/18/1
f 401/50/1 402/51/1 403/47/1 404/46/1
f 405/24/1 406/25/1 407/20/1 408/19/1
f 409/18/1 410/19/1 411/14/1 412/13/1
f 413/19/1 414/20/1 415/15/1 416/14/1
f 417/18/1 418/19/1 419/14/1 420/13/1
f 421/18/1 422/19/1 423/14/1 424/13/1
f 425/19/1 426/20/1 427/15/1 428/14/1
f 429/23/1 430/24/1 431/19/1 432/18/1
f 433/24/1 434/25/1 435/20/1 436/19/1
f 437/23/1 438/24/1 439/19/1 440/18/1
f 441/23/1 442/24/1 443/19/1 444/18/1
f 445/24/1 446/25/1 447/20/1 448/19/1
f 449/18/1 450/19/1 451/14/1 452/13/1
f 453/19/1 454/20/1 455/15/1 456/14/1
f 457/18/1 458/19/1 459/14/1 460/13/1
f 461/18/1 462/19/1 463/14/1 464/13/1
f 465/19/1 466/20/1 467/15/1 468/14/1
f 469/23/1 470/24/1 471/19/1 472/18/1
f 473/24/1 474/25/1 475/20/1 476/19/1
f 477/23/1 478/24/1 479/19/1 480/18/1
f 481/23/1 482/24/1 483/19/1 484/18/1
f 485/24/1 486/25/1 487/20/1 488/19/1
f 489/43/1 490/44/1 491/24/1 492/23/1
f 493/44/1 494/45/1 495/25/1 496/24/1
f 497/43/1 498/44/1 499/24/1 500/23/1
f 501/44/1 502/45/1 503/25/1 504/24/1
f 505/43/1 506/44/1 507/24/1 508/23/1
f 509/44/1 510/45/1 511/25/1 512/24/1
f 513/43/1 514/44/1 515/24/1 516/23/1
f 517/44/1 518/45/1 519/25/1 520/24/1
f 521/43/1 522/44/1 523/24/1 524/23/1
f 525/44/1 526/45/1 527/25/1 528/24/1
f 529/43/1 530/44/1 531/24/1 532/23/1
f 533/44/1 534/45/1 535/25/1 536/24/1
f 537/43/1 538/44/1 539/24/1 540/23/1
f 541/44/1 542/45/1 543/25/1 544/24/1
f 545/43/1 546/44/1 547/24/1 548/23/1
f 549/44/1 550/45/1 551/25/1 552/24/1
f 553/36/1 554/38/1 555/45/1 556/44/1
f 557/31/1 558/36/1 559/44/1 560/43/1
f 561/36/1 562/38/1 563/45/1 564/44/1
f 565/31/1 566/36/1 567/44/1 568/43/1
f 569/36/1 570/38/1 571/45/1 572/44/1
f 573/31/1 574/36/1 575/44/1 576/43/1
f 577/36/1 578/38/1 579/45/1 580/44/1
f 581/31/1 582/36/1 583/44/1 584/43/1
f 585/36/1 586/38/1 587/45/1 588/44/1
f 589/31/1 590/36/1 591/44/1 592/43/1
f 593/36/1 594/38/1 595/45/1 596/44/1
f 597/31/1 598/36/1 599/44/1 600/43/1
f 601/36/1 602/38/1 603/45/1 604/44/1
f 605/31/1 606/36/1 607/44/1 608/43/1
f 609/36/1 610/38/1 611/45/1 612/44/1
f 613/31/1 614/36/1 615/44/1 616/43/1
f 617/5/1 618/7/1 619/8/1 620/6/1
f 621/7/1 622/9/1 623/10/1 624/8/1
f 625/5/1 626/7/1 627/8/1 628/6/1
f 629/9/1 630/52/1 631/53/1 632/10/1
f 633/52/1 634/54/1 635/55/1 636/53/1
f 637/13/1 638/14/1 639/7/1 640/5/1
f 641/13/1 642/14/1 643/7/1 644/5/1
f 645/14/1 646/15/1 647/9/1 648/7/1
f 649/15/1 650/56/1 651/52/1 652/9/1
f 653/56/1 654/57/1 655/54/1 656/52/1
f 657/18/1 658/19/1 659/14/1 660/13/1
f 661/18/1 662/19/1 663/14/1 664/13/1
f 665/19/1 666/20/1 667/15/1 668/14/1
f 669/20/1 670/58/1 671/56/1 672/15/1
f 673/58/1 674/59/1 675/57/1 676/56/1
f 677/23/1 678/24/1 679/19/1 680/18/1
f 681/23/1 682/24/1 683/19/1 684/18/1
f 685/24/1 686/25/1 687/20/1 688/19/1
f 689/25/1 690/60/1 691/58/1 692/20/1
f 693/60/1 694/61/1 695/59/1 696/58/1
f 697/18/1 698/19/1 699/14/1 700/13/1
f 701/19/1 702/20/1 703/15/1 704/14/1
f 705/19/1 706/20/1 707/15/1 708/14/1
f 709/20/1 710/58/1 711/56/1 712/15/1
f 713/58/1 714/59/1 715/57/1 716/56/1
f 717/26/1 718/27/1 719/28/1 720/29/1
f 721/27/1 722/30/1 723/31/1 724/28/1
f 725/24/1 726/25/1 727/20/1 728/19/1
f 729/25/1 730/60/1 731/58/1 732/20/1
f 733/60/1 734/61/1 735/59/1 736/58/1
f 737/32/1 738/33/1 739/27/1 740/26/1
f 741/33/1 742/34/1 743/30/1 744/27/1
f 745/19/1 746/20/1 747/15/1 748/14/1
f 749/20/1 750/58/1 751/56/1 752/15/1
f 753/58/1 754/59/1 755/57/1 756/56/1
f 757/23/1 758/24/1 759/19/1 760/18/1
f 761/24/1 762/25/1 763/20/1 764/19/1
f 765/24/1 766/25/1 767/20/1 768/19/1
f 769/25/1 770/60/1 771/58/1 772/20/1
f 773/60/1 774/61/1 775/59/1 776/58/1
f 777/43/1 778/44/1 779/24/1 780/23/1
f 781/44/1 782/45/1 783/25/1 784/24/1
f 785/43/1 786/44/1 787/24/1 788/23/1
f 789/45/1 790/62/1 791/60/1 792/25/1
f 793/62/1 794/63/1 795/61/1 796/60/1
f 797/36/1 798/38/1 799/45/1 800/44/1
f 801/31/1 802/36/1 803/44/1 804/43/1
f 805/36/1 806/38/1 807/45/1 808/44/1
f 809/38/1 810/49/1 811/62/1 812/45/1
f 813/49/1 814/48/1 815/63/1 816/62/1

