# Tiled2Unity generated file. Do not modify by hand.
# Wavefront file for 'NewBadManor_mesh_0037.obj'

# Vertices (Count = 64)
v -51.84 -1.28 0
v -52.48 -1.28 0
v -52.48 -0.64 0
v -51.84 -0.64 0
v -52.48 -1.28 0
v -53.12 -1.28 0
v -53.12 -0.64 0
v -52.48 -0.64 0
v -62.08 -1.28 0
v -62.72 -1.28 0
v -62.72 -0.64 0
v -62.08 -0.64 0
v -62.72 -1.28 0
v -63.36 -1.28 0
v -63.36 -0.64 0
v -62.72 -0.64 0
v -8.32 -1.92 0
v -8.96 -1.92 0
v -8.96 -1.28 0
v -8.32 -1.28 0
v -8.96 -1.92 0
v -9.599999 -1.92 0
v -9.599999 -1.28 0
v -8.96 -1.28 0
v -18.56 -1.92 0
v -19.2 -1.92 0
v -19.2 -1.28 0
v -18.56 -1.28 0
v -19.2 -1.92 0
v -19.84 -1.92 0
v -19.84 -1.28 0
v -19.2 -1.28 0
v -28.8 -1.92 0
v -29.44 -1.92 0
v -29.44 -1.28 0
v -28.8 -1.28 0
v -29.44 -1.92 0
v -30.08 -1.92 0
v -30.08 -1.28 0
v -29.44 -1.28 0
v -10.88 -3.84 0
v -11.52 -3.84 0
v -11.52 -3.2 0
v -10.88 -3.2 0
v -11.52 -3.84 0
v -12.16 -3.84 0
v -12.16 -3.2 0
v -11.52 -3.2 0
v -21.12 -3.84 0
v -21.76 -3.84 0
v -21.76 -3.2 0
v -21.12 -3.2 0
v -21.76 -3.84 0
v -22.4 -3.84 0
v -22.4 -3.2 0
v -21.76 -3.2 0
v -31.36 -3.84 0
v -32 -3.84 0
v -32 -3.2 0
v -31.36 -3.2 0
v -32 -3.84 0
v -32.64 -3.84 0
v -32.64 -3.2 0
v -32 -3.2 0

# Texture cooridinates (Count = 12)
vt 0 0.375
vt 0.1 0.375
vt 0.1 0.5
vt 0 0.5
vt 0.2 0.375
vt 0.2 0.5
vt 0 0.25
vt 0.1 0.25
vt 0.2 0.25
vt 0 0.125
vt 0.1 0.125
vt 0.2 0.125

# Normal
vn 0 0 -1

# Mesh description
g NewBadManor_mesh_0037

# Faces
f 1/1/1 2/2/1 3/3/1 4/4/1
f 5/2/1 6/5/1 7/6/1 8/3/1
f 9/1/1 10/2/1 11/3/1 12/4/1
f 13/2/1 14/5/1 15/6/1 16/3/1
f 17/1/1 18/2/1 19/3/1 20/4/1
f 21/2/1 22/5/1 23/6/1 24/3/1
f 25/1/1 26/2/1 27/3/1 28/4/1
f 29/2/1 30/5/1 31/6/1 32/3/1
f 33/7/1 34/8/1 35/2/1 36/1/1
f 37/8/1 38/9/1 39/5/1 40/2/1
f 41/10/1 42/11/1 43/8/1 44/7/1
f 45/11/1 46/12/1 47/9/1 48/8/1
f 49/7/1 50/8/1 51/2/1 52/1/1
f 53/8/1 54/9/1 55/5/1 56/2/1
f 57/7/1 58/8/1 59/2/1 60/1/1
f 61/8/1 62/9/1 63/5/1 64/2/1

