# Tiled2Unity generated file. Do not modify by hand.
# Wavefront file for 'NewBadManor_mesh_0031.obj'

# Vertices (Count = 432)
v -14.08 -1.28 0
v -14.72 -1.28 0
v -14.72 -0.64 0
v -14.08 -0.64 0
v -14.72 -1.28 0
v -15.36 -1.28 0
v -15.36 -0.64 0
v -14.72 -0.64 0
v -15.36 -1.28 0
v -16 -1.28 0
v -16 -0.64 0
v -15.36 -0.64 0
v -16 -1.28 0
v -16.64 -1.28 0
v -16.64 -0.64 0
v -16 -0.64 0
v -16.64 -1.28 0
v -17.28 -1.28 0
v -17.28 -0.64 0
v -16.64 -0.64 0
v -17.28 -1.28 0
v -17.92 -1.28 0
v -17.92 -0.64 0
v -17.28 -0.64 0
v -24.32 -1.28 0
v -24.96 -1.28 0
v -24.96 -0.64 0
v -24.32 -0.64 0
v -27.52 -1.28 0
v -28.16 -1.28 0
v -28.16 -0.64 0
v -27.52 -0.64 0
v -34.56 -1.28 0
v -35.2 -1.28 0
v -35.2 -0.64 0
v -34.56 -0.64 0
v -37.76 -1.28 0
v -38.4 -1.28 0
v -38.4 -0.64 0
v -37.76 -0.64 0
v -44.8 -1.28 0
v -45.44 -1.28 0
v -45.44 -0.64 0
v -44.8 -0.64 0
v -48 -1.28 0
v -48.64 -1.28 0
v -48.64 -0.64 0
v -48 -0.64 0
v -55.04 -1.28 0
v -55.68 -1.28 0
v -55.68 -0.64 0
v -55.04 -0.64 0
v -58.24 -1.28 0
v -58.88 -1.28 0
v -58.88 -0.64 0
v -58.24 -0.64 0
v -1.28 -1.92 0
v -1.92 -1.92 0
v -1.92 -1.28 0
v -1.28 -1.28 0
v -4.48 -1.92 0
v -5.12 -1.92 0
v -5.12 -1.28 0
v -4.48 -1.28 0
v -11.52 -1.92 0
v -12.16 -1.92 0
v -12.16 -1.28 0
v -11.52 -1.28 0
v -14.72 -1.92 0
v -15.36 -1.92 0
v -15.36 -1.28 0
v -14.72 -1.28 0
v -44.8 -2.56 0
v -45.44 -2.56 0
v -45.44 -1.92 0
v -44.8 -1.92 0
v -45.44 -2.56 0
v -46.08 -2.56 0
v -46.08 -1.92 0
v -45.44 -1.92 0
v -46.08 -2.56 0
v -46.72 -2.56 0
v -46.72 -1.92 0
v -46.08 -1.92 0
v -46.72 -2.56 0
v -47.36 -2.56 0
v -47.36 -1.92 0
v -46.72 -1.92 0
v -47.36 -2.56 0
v -48 -2.56 0
v -48 -1.92 0
v -47.36 -1.92 0
v -48 -2.56 0
v -48.64 -2.56 0
v -48.64 -1.92 0
v -48 -1.92 0
v -49.92 -2.56 0
v -50.56 -2.56 0
v -50.56 -1.92 0
v -49.92 -1.92 0
v -50.56 -2.56 0
v -51.2 -2.56 0
v -51.2 -1.92 0
v -50.56 -1.92 0
v -51.2 -2.56 0
v -51.84 -2.56 0
v -51.84 -1.92 0
v -51.2 -1.92 0
v -51.84 -2.56 0
v -52.48 -2.56 0
v -52.48 -1.92 0
v -51.84 -1.92 0
v -52.48 -2.56 0
v -53.12 -2.56 0
v -53.12 -1.92 0
v -52.48 -1.92 0
v -53.12 -2.56 0
v -53.76 -2.56 0
v -53.76 -1.92 0
v -53.12 -1.92 0
v -55.04 -2.56 0
v -55.68 -2.56 0
v -55.68 -1.92 0
v -55.04 -1.92 0
v -58.24 -2.56 0
v -58.88 -2.56 0
v -58.88 -1.92 0
v -58.24 -1.92 0
v -60.16 -2.56 0
v -60.8 -2.56 0
v -60.8 -1.92 0
v -60.16 -1.92 0
v -63.36 -2.56 0
v -64 -2.56 0
v -64 -1.92 0
v -63.36 -1.92 0
v -1.28 -3.2 0
v -1.92 -3.2 0
v -1.92 -2.56 0
v -1.28 -2.56 0
v -4.48 -3.2 0
v -5.12 -3.2 0
v -5.12 -2.56 0
v -4.48 -2.56 0
v -6.4 -3.2 0
v -7.04 -3.2 0
v -7.04 -2.56 0
v -6.4 -2.56 0
v -9.599999 -3.2 0
v -10.24 -3.2 0
v -10.24 -2.56 0
v -9.599999 -2.56 0
v -11.52 -3.2 0
v -12.16 -3.2 0
v -12.16 -2.56 0
v -11.52 -2.56 0
v -14.72 -3.2 0
v -15.36 -3.2 0
v -15.36 -2.56 0
v -14.72 -2.56 0
v -16.64 -3.2 0
v -17.28 -3.2 0
v -17.28 -2.56 0
v -16.64 -2.56 0
v -19.84 -3.2 0
v -20.48 -3.2 0
v -20.48 -2.56 0
v -19.84 -2.56 0
v -21.76 -3.2 0
v -22.4 -3.2 0
v -22.4 -2.56 0
v -21.76 -2.56 0
v -24.96 -3.2 0
v -25.6 -3.2 0
v -25.6 -2.56 0
v -24.96 -2.56 0
v -26.88 -3.2 0
v -27.52 -3.2 0
v -27.52 -2.56 0
v -26.88 -2.56 0
v -30.08 -3.2 0
v -30.72 -3.2 0
v -30.72 -2.56 0
v -30.08 -2.56 0
v -32 -3.2 0
v -32.64 -3.2 0
v -32.64 -2.56 0
v -32 -2.56 0
v -35.2 -3.2 0
v -35.84 -3.2 0
v -35.84 -2.56 0
v -35.2 -2.56 0
v -37.12 -3.2 0
v -37.76 -3.2 0
v -37.76 -2.56 0
v -37.12 -2.56 0
v -40.32 -3.2 0
v -40.96 -3.2 0
v -40.96 -2.56 0
v -40.32 -2.56 0
v -42.24 -3.2 0
v -42.88 -3.2 0
v -42.88 -2.56 0
v -42.24 -2.56 0
v -45.44 -3.2 0
v -46.08 -3.2 0
v -46.08 -2.56 0
v -45.44 -2.56 0
v -47.36 -3.2 0
v -48 -3.2 0
v -48 -2.56 0
v -47.36 -2.56 0
v -50.56 -3.2 0
v -51.2 -3.2 0
v -51.2 -2.56 0
v -50.56 -2.56 0
v -19.2 -4.48 0
v -19.84 -4.48 0
v -19.84 -3.84 0
v -19.2 -3.84 0
v -19.84 -4.48 0
v -20.48 -4.48 0
v -20.48 -3.84 0
v -19.84 -3.84 0
v -20.48 -4.48 0
v -21.12 -4.48 0
v -21.12 -3.84 0
v -20.48 -3.84 0
v -21.12 -4.48 0
v -21.76 -4.48 0
v -21.76 -3.84 0
v -21.12 -3.84 0
v -21.76 -4.48 0
v -22.4 -4.48 0
v -22.4 -3.84 0
v -21.76 -3.84 0
v -22.4 -4.48 0
v -23.04 -4.48 0
v -23.04 -3.84 0
v -22.4 -3.84 0
v -24.32 -4.48 0
v -24.96 -4.48 0
v -24.96 -3.84 0
v -24.32 -3.84 0
v -24.96 -4.48 0
v -25.6 -4.48 0
v -25.6 -3.84 0
v -24.96 -3.84 0
v -29.44 -4.48 0
v -30.08 -4.48 0
v -30.08 -3.84 0
v -29.44 -3.84 0
v -32.64 -4.48 0
v -33.28 -4.48 0
v -33.28 -3.84 0
v -32.64 -3.84 0
v -34.56 -4.48 0
v -35.2 -4.48 0
v -35.2 -3.84 0
v -34.56 -3.84 0
v -39.68 -4.48 0
v -40.32 -4.48 0
v -40.32 -3.84 0
v -39.68 -3.84 0
v -42.88 -4.48 0
v -43.52 -4.48 0
v -43.52 -3.84 0
v -42.88 -3.84 0
v -44.8 -4.48 0
v -45.44 -4.48 0
v -45.44 -3.84 0
v -44.8 -3.84 0
v -49.92 -4.48 0
v -50.56 -4.48 0
v -50.56 -3.84 0
v -49.92 -3.84 0
v -53.12 -4.48 0
v -53.76 -4.48 0
v -53.76 -3.84 0
v -53.12 -3.84 0
v -55.04 -4.48 0
v -55.68 -4.48 0
v -55.68 -3.84 0
v -55.04 -3.84 0
v -60.16 -4.48 0
v -60.8 -4.48 0
v -60.8 -3.84 0
v -60.16 -3.84 0
v -63.36 -4.48 0
v -64 -4.48 0
v -64 -3.84 0
v -63.36 -3.84 0
v -1.28 -5.12 0
v -1.92 -5.12 0
v -1.92 -4.48 0
v -1.28 -4.48 0
v -6.4 -5.12 0
v -7.04 -5.12 0
v -7.04 -4.48 0
v -6.4 -4.48 0
v -9.599999 -5.12 0
v -10.24 -5.12 0
v -10.24 -4.48 0
v -9.599999 -4.48 0
v -11.52 -5.12 0
v -12.16 -5.12 0
v -12.16 -4.48 0
v -11.52 -4.48 0
v -16.64 -5.12 0
v -17.28 -5.12 0
v -17.28 -4.48 0
v -16.64 -4.48 0
v -19.84 -5.12 0
v -20.48 -5.12 0
v -20.48 -4.48 0
v -19.84 -4.48 0
v -21.76 -5.12 0
v -22.4 -5.12 0
v -22.4 -4.48 0
v -21.76 -4.48 0
v -51.2 -5.76 0
v -51.84 -5.76 0
v -51.84 -5.12 0
v -51.2 -5.12 0
v -51.84 -5.76 0
v -52.48 -5.76 0
v -52.48 -5.12 0
v -51.84 -5.12 0
v -52.48 -5.76 0
v -53.12 -5.76 0
v -53.12 -5.12 0
v -52.48 -5.12 0
v -53.12 -5.76 0
v -53.76 -5.76 0
v -53.76 -5.12 0
v -53.12 -5.12 0
v -55.04 -5.76 0
v -55.68 -5.76 0
v -55.68 -5.12 0
v -55.04 -5.12 0
v -55.68 -5.76 0
v -56.32 -5.76 0
v -56.32 -5.12 0
v -55.68 -5.12 0
v -56.32 -5.76 0
v -56.96 -5.76 0
v -56.96 -5.12 0
v -56.32 -5.12 0
v -56.96 -5.76 0
v -57.6 -5.76 0
v -57.6 -5.12 0
v -56.96 -5.12 0
v -57.6 -5.76 0
v -58.24 -5.76 0
v -58.24 -5.12 0
v -57.6 -5.12 0
v -58.24 -5.76 0
v -58.88 -5.76 0
v -58.88 -5.12 0
v -58.24 -5.12 0
v -63.36 -5.76 0
v -64 -5.76 0
v -64 -5.12 0
v -63.36 -5.12 0
v -1.28 -6.4 0
v -1.92 -6.4 0
v -1.92 -5.76 0
v -1.28 -5.76 0
v -4.48 -6.4 0
v -5.12 -6.4 0
v -5.12 -5.76 0
v -4.48 -5.76 0
v -9.599999 -6.4 0
v -10.24 -6.4 0
v -10.24 -5.76 0
v -9.599999 -5.76 0
v -11.52 -6.4 0
v -12.16 -6.4 0
v -12.16 -5.76 0
v -11.52 -5.76 0
v -14.72 -6.4 0
v -15.36 -6.4 0
v -15.36 -5.76 0
v -14.72 -5.76 0
v -19.84 -6.4 0
v -20.48 -6.4 0
v -20.48 -5.76 0
v -19.84 -5.76 0
v -21.76 -6.4 0
v -22.4 -6.4 0
v -22.4 -5.76 0
v -21.76 -5.76 0
v -24.96 -6.4 0
v -25.6 -6.4 0
v -25.6 -5.76 0
v -24.96 -5.76 0
v -30.08 -6.4 0
v -30.72 -6.4 0
v -30.72 -5.76 0
v -30.08 -5.76 0
v -32 -6.4 0
v -32.64 -6.4 0
v -32.64 -5.76 0
v -32 -5.76 0
v -35.2 -6.4 0
v -35.84 -6.4 0
v -35.84 -5.76 0
v -35.2 -5.76 0
v -40.32 -6.4 0
v -40.96 -6.4 0
v -40.96 -5.76 0
v -40.32 -5.76 0
v -42.24 -6.4 0
v -42.88 -6.4 0
v -42.88 -5.76 0
v -42.24 -5.76 0
v -45.44 -6.4 0
v -46.08 -6.4 0
v -46.08 -5.76 0
v -45.44 -5.76 0
v -50.56 -6.4 0
v -51.2 -6.4 0
v -51.2 -5.76 0
v -50.56 -5.76 0
v -52.48 -6.4 0
v -53.12 -6.4 0
v -53.12 -5.76 0
v -52.48 -5.76 0
v -55.68 -6.4 0
v -56.32 -6.4 0
v -56.32 -5.76 0
v -55.68 -5.76 0

# Texture cooridinates (Count = 14)
vt 0.25 0.85
vt 0.3 0.85
vt 0.3 0.9
vt 0.25 0.9
vt 0 0.85
vt 0.05 0.85
vt 0.05 0.9
vt 0 0.9
vt 0.1 0.85
vt 0.1 0.9
vt 0.25 0.8
vt 0.3 0.8
vt 0.25 0.75
vt 0.3 0.75

# Normal
vn 0 0 -1

# Mesh description
g NewBadManor_mesh_0031

# Faces
f 1/1/1 2/2/1 3/3/1 4/4/1
f 5/5/1 6/6/1 7/7/1 8/8/1
f 9/5/1 10/6/1 11/7/1 12/8/1
f 13/5/1 14/6/1 15/7/1 16/8/1
f 17/6/1 18/9/1 19/10/1 20/7/1
f 21/1/1 22/2/1 23/3/1 24/4/1
f 25/1/1 26/2/1 27/3/1 28/4/1
f 29/1/1 30/2/1 31/3/1 32/4/1
f 33/1/1 34/2/1 35/3/1 36/4/1
f 37/1/1 38/2/1 39/3/1 40/4/1
f 41/1/1 42/2/1 43/3/1 44/4/1
f 45/1/1 46/2/1 47/3/1 48/4/1
f 49/1/1 50/2/1 51/3/1 52/4/1
f 53/1/1 54/2/1 55/3/1 56/4/1
f 57/11/1 58/12/1 59/2/1 60/1/1
f 61/11/1 62/12/1 63/2/1 64/1/1
f 65/13/1 66/14/1 67/12/1 68/11/1
f 69/13/1 70/14/1 71/12/1 72/11/1
f 73/1/1 74/2/1 75/3/1 76/4/1
f 77/5/1 78/6/1 79/7/1 80/8/1
f 81/5/1 82/6/1 83/7/1 84/8/1
f 85/5/1 86/6/1 87/7/1 88/8/1
f 89/6/1 90/9/1 91/10/1 92/7/1
f 93/1/1 94/2/1 95/3/1 96/4/1
f 97/1/1 98/2/1 99/3/1 100/4/1
f 101/5/1 102/6/1 103/7/1 104/8/1
f 105/5/1 106/6/1 107/7/1 108/8/1
f 109/5/1 110/6/1 111/7/1 112/8/1
f 113/6/1 114/9/1 115/10/1 116/7/1
f 117/1/1 118/2/1 119/3/1 120/4/1
f 121/1/1 122/2/1 123/3/1 124/4/1
f 125/1/1 126/2/1 127/3/1 128/4/1
f 129/1/1 130/2/1 131/3/1 132/4/1
f 133/1/1 134/2/1 135/3/1 136/4/1
f 137/1/1 138/2/1 139/3/1 140/4/1
f 141/1/1 142/2/1 143/3/1 144/4/1
f 145/1/1 146/2/1 147/3/1 148/4/1
f 149/1/1 150/2/1 151/3/1 152/4/1
f 153/1/1 154/2/1 155/3/1 156/4/1
f 157/1/1 158/2/1 159/3/1 160/4/1
f 161/1/1 162/2/1 163/3/1 164/4/1
f 165/1/1 166/2/1 167/3/1 168/4/1
f 169/1/1 170/2/1 171/3/1 172/4/1
f 173/1/1 174/2/1 175/3/1 176/4/1
f 177/1/1 178/2/1 179/3/1 180/4/1
f 181/1/1 182/2/1 183/3/1 184/4/1
f 185/11/1 186/12/1 187/2/1 188/1/1
f 189/11/1 190/12/1 191/2/1 192/1/1
f 193/11/1 194/12/1 195/2/1 196/1/1
f 197/11/1 198/12/1 199/2/1 200/1/1
f 201/13/1 202/14/1 203/12/1 204/11/1
f 205/13/1 206/14/1 207/12/1 208/11/1
f 209/13/1 210/14/1 211/12/1 212/11/1
f 213/13/1 214/14/1 215/12/1 216/11/1
f 217/1/1 218/2/1 219/3/1 220/4/1
f 221/5/1 222/6/1 223/7/1 224/8/1
f 225/5/1 226/6/1 227/7/1 228/8/1
f 229/5/1 230/6/1 231/7/1 232/8/1
f 233/6/1 234/9/1 235/10/1 236/7/1
f 237/1/1 238/2/1 239/3/1 240/4/1
f 241/1/1 242/2/1 243/3/1 244/4/1
f 245/5/1 246/6/1 247/7/1 248/8/1
f 249/1/1 250/2/1 251/3/1 252/4/1
f 253/1/1 254/2/1 255/3/1 256/4/1
f 257/1/1 258/2/1 259/3/1 260/4/1
f 261/1/1 262/2/1 263/3/1 264/4/1
f 265/1/1 266/2/1 267/3/1 268/4/1
f 269/1/1 270/2/1 271/3/1 272/4/1
f 273/1/1 274/2/1 275/3/1 276/4/1
f 277/1/1 278/2/1 279/3/1 280/4/1
f 281/1/1 282/2/1 283/3/1 284/4/1
f 285/1/1 286/2/1 287/3/1 288/4/1
f 289/1/1 290/2/1 291/3/1 292/4/1
f 293/1/1 294/2/1 295/3/1 296/4/1
f 297/11/1 298/12/1 299/2/1 300/1/1
f 301/11/1 302/12/1 303/2/1 304/1/1
f 305/11/1 306/12/1 307/2/1 308/1/1
f 309/13/1 310/14/1 311/12/1 312/11/1
f 313/13/1 314/14/1 315/12/1 316/11/1
f 317/13/1 318/14/1 319/12/1 320/11/1
f 321/5/1 322/6/1 323/7/1 324/8/1
f 325/5/1 326/6/1 327/7/1 328/8/1
f 329/6/1 330/9/1 331/10/1 332/7/1
f 333/1/1 334/2/1 335/3/1 336/4/1
f 337/1/1 338/2/1 339/3/1 340/4/1
f 341/5/1 342/6/1 343/7/1 344/8/1
f 345/5/1 346/6/1 347/7/1 348/8/1
f 349/5/1 350/6/1 351/7/1 352/8/1
f 353/6/1 354/9/1 355/10/1 356/7/1
f 357/1/1 358/2/1 359/3/1 360/4/1
f 361/1/1 362/2/1 363/3/1 364/4/1
f 365/1/1 366/2/1 367/3/1 368/4/1
f 369/1/1 370/2/1 371/3/1 372/4/1
f 373/1/1 374/2/1 375/3/1 376/4/1
f 377/1/1 378/2/1 379/3/1 380/4/1
f 381/1/1 382/2/1 383/3/1 384/4/1
f 385/1/1 386/2/1 387/3/1 388/4/1
f 389/1/1 390/2/1 391/3/1 392/4/1
f 393/1/1 394/2/1 395/3/1 396/4/1
f 397/1/1 398/2/1 399/3/1 400/4/1
f 401/1/1 402/2/1 403/3/1 404/4/1
f 405/1/1 406/2/1 407/3/1 408/4/1
f 409/11/1 410/12/1 411/2/1 412/1/1
f 413/11/1 414/12/1 415/2/1 416/1/1
f 417/11/1 418/12/1 419/2/1 420/1/1
f 421/13/1 422/14/1 423/12/1 424/11/1
f 425/13/1 426/14/1 427/12/1 428/11/1
f 429/13/1 430/14/1 431/12/1 432/11/1

