# Tiled2Unity generated file. Do not modify by hand.
# Wavefront file for 'NewBadManor_mesh_0241.obj'

# Vertices (Count = 132)
v -0.32 -4.48 -0.08092485
v -0.64 -4.48 -0.08092485
v -0.64 -4.16 -0.08092485
v -0.32 -4.16 -0.08092485
v -0.64 -4.48 -0.08092485
v -0.96 -4.48 -0.08092485
v -0.96 -4.16 -0.08092485
v -0.64 -4.16 -0.08092485
v -0.96 -4.48 -0.08092485
v -1.28 -4.48 -0.08092485
v -1.28 -4.16 -0.08092485
v -0.96 -4.16 -0.08092485
v -1.28 -4.48 -0.08092485
v -1.6 -4.48 -0.08092485
v -1.6 -4.16 -0.08092485
v -1.28 -4.16 -0.08092485
v -1.6 -4.48 -0.08092485
v -1.92 -4.48 -0.08092485
v -1.92 -4.16 -0.08092485
v -1.6 -4.16 -0.08092485
v -1.92 -4.48 -0.08092485
v -2.24 -4.48 -0.08092485
v -2.24 -4.16 -0.08092485
v -1.92 -4.16 -0.08092485
v -2.24 -4.48 -0.08092485
v -2.56 -4.48 -0.08092485
v -2.56 -4.16 -0.08092485
v -2.24 -4.16 -0.08092485
v -2.56 -4.48 -0.08092485
v -2.88 -4.48 -0.08092485
v -2.88 -4.16 -0.08092485
v -2.56 -4.16 -0.08092485
v -2.88 -4.48 -0.08092485
v -3.2 -4.48 -0.08092485
v -3.2 -4.16 -0.08092485
v -2.88 -4.16 -0.08092485
v -3.2 -4.48 -0.08092485
v -3.52 -4.48 -0.08092485
v -3.52 -4.16 -0.08092485
v -3.2 -4.16 -0.08092485
v -3.52 -4.48 -0.08092485
v -3.84 -4.48 -0.08092485
v -3.84 -4.16 -0.08092485
v -3.52 -4.16 -0.08092485
v -0.32 -4.8 -0.0867052
v -0.64 -4.8 -0.0867052
v -0.64 -4.48 -0.0867052
v -0.32 -4.48 -0.0867052
v -0.64 -4.8 -0.0867052
v -0.96 -4.8 -0.0867052
v -0.96 -4.48 -0.0867052
v -0.64 -4.48 -0.0867052
v -0.96 -4.8 -0.0867052
v -1.28 -4.8 -0.0867052
v -1.28 -4.48 -0.0867052
v -0.96 -4.48 -0.0867052
v -1.28 -4.8 -0.0867052
v -1.6 -4.8 -0.0867052
v -1.6 -4.48 -0.0867052
v -1.28 -4.48 -0.0867052
v -1.6 -4.8 -0.0867052
v -1.92 -4.8 -0.0867052
v -1.92 -4.48 -0.0867052
v -1.6 -4.48 -0.0867052
v -1.92 -4.8 -0.0867052
v -2.24 -4.8 -0.0867052
v -2.24 -4.48 -0.0867052
v -1.92 -4.48 -0.0867052
v -2.24 -4.8 -0.0867052
v -2.56 -4.8 -0.0867052
v -2.56 -4.48 -0.0867052
v -2.24 -4.48 -0.0867052
v -2.56 -4.8 -0.0867052
v -2.88 -4.8 -0.0867052
v -2.88 -4.48 -0.0867052
v -2.56 -4.48 -0.0867052
v -2.88 -4.8 -0.0867052
v -3.2 -4.8 -0.0867052
v -3.2 -4.48 -0.0867052
v -2.88 -4.48 -0.0867052
v -3.2 -4.8 -0.0867052
v -3.52 -4.8 -0.0867052
v -3.52 -4.48 -0.0867052
v -3.2 -4.48 -0.0867052
v -3.52 -4.8 -0.0867052
v -3.84 -4.8 -0.0867052
v -3.84 -4.48 -0.0867052
v -3.52 -4.48 -0.0867052
v -0.32 -5.12 -0.09248555
v -0.64 -5.12 -0.09248555
v -0.64 -4.8 -0.09248555
v -0.32 -4.8 -0.09248555
v -0.64 -5.12 -0.09248555
v -0.96 -5.12 -0.09248555
v -0.96 -4.8 -0.09248555
v -0.64 -4.8 -0.09248555
v -0.96 -5.12 -0.09248555
v -1.28 -5.12 -0.09248555
v -1.28 -4.8 -0.09248555
v -0.96 -4.8 -0.09248555
v -1.28 -5.12 -0.09248555
v -1.6 -5.12 -0.09248555
v -1.6 -4.8 -0.09248555
v -1.28 -4.8 -0.09248555
v -1.6 -5.12 -0.09248555
v -1.92 -5.12 -0.09248555
v -1.92 -4.8 -0.09248555
v -1.6 -4.8 -0.09248555
v -1.92 -5.12 -0.09248555
v -2.24 -5.12 -0.09248555
v -2.24 -4.8 -0.09248555
v -1.92 -4.8 -0.09248555
v -2.24 -5.12 -0.09248555
v -2.56 -5.12 -0.09248555
v -2.56 -4.8 -0.09248555
v -2.24 -4.8 -0.09248555
v -2.56 -5.12 -0.09248555
v -2.88 -5.12 -0.09248555
v -2.88 -4.8 -0.09248555
v -2.56 -4.8 -0.09248555
v -2.88 -5.12 -0.09248555
v -3.2 -5.12 -0.09248555
v -3.2 -4.8 -0.09248555
v -2.88 -4.8 -0.09248555
v -3.2 -5.12 -0.09248555
v -3.52 -5.12 -0.09248555
v -3.52 -4.8 -0.09248555
v -3.2 -4.8 -0.09248555
v -3.52 -5.12 -0.09248555
v -3.84 -5.12 -0.09248555
v -3.84 -4.8 -0.09248555
v -3.52 -4.8 -0.09248555

# Texture cooridinates (Count = 28)
vt 0 0.5833334
vt 0.1666667 0.5833334
vt 0.1666667 0.6666666
vt 0 0.6666666
vt 0.3333333 0.5833334
vt 0.3333333 0.6666666
vt 0.5 0.5833334
vt 0.5 0.6666666
vt 0.6666667 0.5833334
vt 0.6666667 0.6666666
vt 0.8333333 0.5833334
vt 0.8333333 0.6666666
vt 1 0.5833334
vt 1 0.6666666
vt 0 0.5
vt 0.1666667 0.5
vt 0.3333333 0.5
vt 0.5 0.5
vt 0.6666667 0.5
vt 0.8333333 0.5
vt 1 0.5
vt 0 0.4166667
vt 0.1666667 0.4166667
vt 0.3333333 0.4166667
vt 0.5 0.4166667
vt 0.6666667 0.4166667
vt 0.8333333 0.4166667
vt 1 0.4166667

# Normal
vn 0 0 -1

# Mesh description
g NewBadManor_mesh_0241

# Faces
f 1/1/1 2/2/1 3/3/1 4/4/1
f 5/2/1 6/5/1 7/6/1 8/3/1
f 9/5/1 10/7/1 11/8/1 12/6/1
f 13/7/1 14/9/1 15/10/1 16/8/1
f 17/7/1 18/9/1 19/10/1 20/8/1
f 21/7/1 22/9/1 23/10/1 24/8/1
f 25/7/1 26/9/1 27/10/1 28/8/1
f 29/7/1 30/9/1 31/10/1 32/8/1
f 33/7/1 34/9/1 35/10/1 36/8/1
f 37/9/1 38/11/1 39/12/1 40/10/1
f 41/11/1 42/13/1 43/14/1 44/12/1
f 45/15/1 46/16/1 47/2/1 48/1/1
f 49/16/1 50/17/1 51/5/1 52/2/1
f 53/17/1 54/18/1 55/7/1 56/5/1
f 57/18/1 58/19/1 59/9/1 60/7/1
f 61/18/1 62/19/1 63/9/1 64/7/1
f 65/18/1 66/19/1 67/9/1 68/7/1
f 69/18/1 70/19/1 71/9/1 72/7/1
f 73/18/1 74/19/1 75/9/1 76/7/1
f 77/18/1 78/19/1 79/9/1 80/7/1
f 81/19/1 82/20/1 83/11/1 84/9/1
f 85/20/1 86/21/1 87/13/1 88/11/1
f 89/22/1 90/23/1 91/16/1 92/15/1
f 93/23/1 94/24/1 95/17/1 96/16/1
f 97/24/1 98/25/1 99/18/1 100/17/1
f 101/25/1 102/26/1 103/19/1 104/18/1
f 105/25/1 106/26/1 107/19/1 108/18/1
f 109/25/1 110/26/1 111/19/1 112/18/1
f 113/25/1 114/26/1 115/19/1 116/18/1
f 117/25/1 118/26/1 119/19/1 120/18/1
f 121/25/1 122/26/1 123/19/1 124/18/1
f 125/26/1 126/27/1 127/20/1 128/19/1
f 129/27/1 130/28/1 131/21/1 132/20/1

