# Tiled2Unity generated file. Do not modify by hand.
# Wavefront file for 'NewBadManor_mesh_0088.obj'

# Vertices (Count = 104)
v 0 -0.32 -0.005780347
v -0.32 -0.32 -0.005780347
v -0.32 0 -0.005780347
v 0 0 -0.005780347
v -0.32 -0.32 -0.005780347
v -0.64 -0.32 -0.005780347
v -0.64 0 -0.005780347
v -0.32 0 -0.005780347
v -0.64 -0.32 -0.005780347
v -0.96 -0.32 -0.005780347
v -0.96 0 -0.005780347
v -0.64 0 -0.005780347
v -0.96 -0.32 -0.005780347
v -1.28 -0.32 -0.005780347
v -1.28 0 -0.005780347
v -0.96 0 -0.005780347
v -1.28 -0.32 -0.005780347
v -1.6 -0.32 -0.005780347
v -1.6 0 -0.005780347
v -1.28 0 -0.005780347
v -1.6 -0.32 -0.005780347
v -1.92 -0.32 -0.005780347
v -1.92 0 -0.005780347
v -1.6 0 -0.005780347
v -1.92 -0.32 -0.005780347
v -2.24 -0.32 -0.005780347
v -2.24 0 -0.005780347
v -1.92 0 -0.005780347
v -2.24 -0.32 -0.005780347
v -2.56 -0.32 -0.005780347
v -2.56 0 -0.005780347
v -2.24 0 -0.005780347
v -2.56 -0.32 -0.005780347
v -2.88 -0.32 -0.005780347
v -2.88 0 -0.005780347
v -2.56 0 -0.005780347
v -2.88 -0.32 -0.005780347
v -3.2 -0.32 -0.005780347
v -3.2 0 -0.005780347
v -2.88 0 -0.005780347
v -3.2 -0.32 -0.005780347
v -3.52 -0.32 -0.005780347
v -3.52 0 -0.005780347
v -3.2 0 -0.005780347
v -3.52 -0.32 -0.005780347
v -3.84 -0.32 -0.005780347
v -3.84 0 -0.005780347
v -3.52 0 -0.005780347
v -3.84 -0.32 -0.005780347
v -4.16 -0.32 -0.005780347
v -4.16 0 -0.005780347
v -3.84 0 -0.005780347
v 0 -0.64 -0.01156069
v -0.32 -0.64 -0.01156069
v -0.32 -0.32 -0.01156069
v 0 -0.32 -0.01156069
v -0.32 -0.64 -0.01156069
v -0.64 -0.64 -0.01156069
v -0.64 -0.32 -0.01156069
v -0.32 -0.32 -0.01156069
v -0.64 -0.64 -0.01156069
v -0.96 -0.64 -0.01156069
v -0.96 -0.32 -0.01156069
v -0.64 -0.32 -0.01156069
v -0.96 -0.64 -0.01156069
v -1.28 -0.64 -0.01156069
v -1.28 -0.32 -0.01156069
v -0.96 -0.32 -0.01156069
v -1.28 -0.64 -0.01156069
v -1.6 -0.64 -0.01156069
v -1.6 -0.32 -0.01156069
v -1.28 -0.32 -0.01156069
v -1.6 -0.64 -0.01156069
v -1.92 -0.64 -0.01156069
v -1.92 -0.32 -0.01156069
v -1.6 -0.32 -0.01156069
v -1.92 -0.64 -0.01156069
v -2.24 -0.64 -0.01156069
v -2.24 -0.32 -0.01156069
v -1.92 -0.32 -0.01156069
v -2.24 -0.64 -0.01156069
v -2.56 -0.64 -0.01156069
v -2.56 -0.32 -0.01156069
v -2.24 -0.32 -0.01156069
v -2.56 -0.64 -0.01156069
v -2.88 -0.64 -0.01156069
v -2.88 -0.32 -0.01156069
v -2.56 -0.32 -0.01156069
v -2.88 -0.64 -0.01156069
v -3.2 -0.64 -0.01156069
v -3.2 -0.32 -0.01156069
v -2.88 -0.32 -0.01156069
v -3.2 -0.64 -0.01156069
v -3.52 -0.64 -0.01156069
v -3.52 -0.32 -0.01156069
v -3.2 -0.32 -0.01156069
v -3.52 -0.64 -0.01156069
v -3.84 -0.64 -0.01156069
v -3.84 -0.32 -0.01156069
v -3.52 -0.32 -0.01156069
v -3.84 -0.64 -0.01156069
v -4.16 -0.64 -0.01156069
v -4.16 -0.32 -0.01156069
v -3.84 -0.32 -0.01156069

# Texture cooridinates (Count = 9)
vt 0.2083333 0.7666667
vt 0.25 0.7666667
vt 0.25 0.8
vt 0.2083333 0.8
vt 0.1666667 0.7666667
vt 0.1666667 0.8
vt 0.2083333 0.7333333
vt 0.25 0.7333333
vt 0.1666667 0.7333333

# Normal
vn 0 0 -1

# Mesh description
g NewBadManor_mesh_0088

# Faces
f 1/1/1 2/2/1 3/3/1 4/4/1
f 5/5/1 6/1/1 7/4/1 8/6/1
f 9/5/1 10/1/1 11/4/1 12/6/1
f 13/5/1 14/1/1 15/4/1 16/6/1
f 17/5/1 18/1/1 19/4/1 20/6/1
f 21/5/1 22/1/1 23/4/1 24/6/1
f 25/5/1 26/1/1 27/4/1 28/6/1
f 29/5/1 30/1/1 31/4/1 32/6/1
f 33/5/1 34/1/1 35/4/1 36/6/1
f 37/5/1 38/1/1 39/4/1 40/6/1
f 41/5/1 42/1/1 43/4/1 44/6/1
f 45/1/1 46/2/1 47/3/1 48/4/1
f 49/1/1 50/2/1 51/3/1 52/4/1
f 53/7/1 54/8/1 55/2/1 56/1/1
f 57/9/1 58/7/1 59/1/1 60/5/1
f 61/9/1 62/7/1 63/1/1 64/5/1
f 65/9/1 66/7/1 67/1/1 68/5/1
f 69/9/1 70/7/1 71/1/1 72/5/1
f 73/9/1 74/7/1 75/1/1 76/5/1
f 77/9/1 78/7/1 79/1/1 80/5/1
f 81/9/1 82/7/1 83/1/1 84/5/1
f 85/9/1 86/7/1 87/1/1 88/5/1
f 89/9/1 90/7/1 91/1/1 92/5/1
f 93/9/1 94/7/1 95/1/1 96/5/1
f 97/7/1 98/8/1 99/2/1 100/1/1
f 101/7/1 102/8/1 103/2/1 104/1/1

