# Tiled2Unity generated file. Do not modify by hand.
# Wavefront file for 'NewBadManor_mesh_0090.obj'

# Vertices (Count = 212)
v -12.16 -3.84 0
v -12.8 -3.84 0
v -12.8 -3.2 0
v -12.16 -3.2 0
v -12.8 -3.84 0
v -13.44 -3.84 0
v -13.44 -3.2 0
v -12.8 -3.2 0
v -22.4 -3.84 0
v -23.04 -3.84 0
v -23.04 -3.2 0
v -22.4 -3.2 0
v -23.04 -3.84 0
v -23.68 -3.84 0
v -23.68 -3.2 0
v -23.04 -3.2 0
v -26.88 -3.84 0
v -27.52 -3.84 0
v -27.52 -3.2 0
v -26.88 -3.2 0
v -27.52 -3.84 0
v -28.16 -3.84 0
v -28.16 -3.2 0
v -27.52 -3.2 0
v -32.64 -3.84 0
v -33.28 -3.84 0
v -33.28 -3.2 0
v -32.64 -3.2 0
v -33.28 -3.84 0
v -33.92 -3.84 0
v -33.92 -3.2 0
v -33.28 -3.2 0
v -37.12 -3.84 0
v -37.76 -3.84 0
v -37.76 -3.2 0
v -37.12 -3.2 0
v -37.76 -3.84 0
v -38.4 -3.84 0
v -38.4 -3.2 0
v -37.76 -3.2 0
v -47.36 -3.84 0
v -48 -3.84 0
v -48 -3.2 0
v -47.36 -3.2 0
v -48 -3.84 0
v -48.64 -3.84 0
v -48.64 -3.2 0
v -48 -3.2 0
v -60.16 -3.84 0
v -60.8 -3.84 0
v -60.8 -3.2 0
v -60.16 -3.2 0
v -60.8 -3.84 0
v -61.44 -3.84 0
v -61.44 -3.2 0
v -60.8 -3.2 0
v -2.56 -4.48 0
v -3.2 -4.48 0
v -3.2 -3.84 0
v -2.56 -3.84 0
v -3.2 -4.48 0
v -3.84 -4.48 0
v -3.84 -3.84 0
v -3.2 -3.84 0
v -6.4 -4.48 0
v -7.04 -4.48 0
v -7.04 -3.84 0
v -6.4 -3.84 0
v -7.04 -4.48 0
v -7.68 -4.48 0
v -7.68 -3.84 0
v -7.04 -3.84 0
v -12.8 -4.48 0
v -13.44 -4.48 0
v -13.44 -3.84 0
v -12.8 -3.84 0
v -13.44 -4.48 0
v -14.08 -4.48 0
v -14.08 -3.84 0
v -13.44 -3.84 0
v -14.72 -4.48 0
v -15.36 -4.48 0
v -15.36 -3.84 0
v -14.72 -3.84 0
v -16.64 -4.48 0
v -17.28 -4.48 0
v -17.28 -3.84 0
v -16.64 -3.84 0
v -23.04 -4.48 0
v -23.68 -4.48 0
v -23.68 -3.84 0
v -23.04 -3.84 0
v -23.68 -4.48 0
v -24.32 -4.48 0
v -24.32 -3.84 0
v -23.68 -3.84 0
v -24.96 -4.48 0
v -25.6 -4.48 0
v -25.6 -3.84 0
v -24.96 -3.84 0
v -35.2 -4.48 0
v -35.84 -4.48 0
v -35.84 -3.84 0
v -35.2 -3.84 0
v -46.72 -4.48 0
v -47.36 -4.48 0
v -47.36 -3.84 0
v -46.72 -3.84 0
v -47.36 -4.48 0
v -48 -4.48 0
v -48 -3.84 0
v -47.36 -3.84 0
v -48 -4.48 0
v -48.64 -4.48 0
v -48.64 -3.84 0
v -48 -3.84 0
v -56.96 -4.48 0
v -57.6 -4.48 0
v -57.6 -3.84 0
v -56.96 -3.84 0
v -57.6 -4.48 0
v -58.24 -4.48 0
v -58.24 -3.84 0
v -57.6 -3.84 0
v -58.24 -4.48 0
v -58.88 -4.48 0
v -58.88 -3.84 0
v -58.24 -3.84 0
v -1.92 -5.12 0
v -2.56 -5.12 0
v -2.56 -4.48 0
v -1.92 -4.48 0
v -3.2 -5.12 0
v -3.84 -5.12 0
v -3.84 -4.48 0
v -3.2 -4.48 0
v -3.84 -5.12 0
v -4.48 -5.12 0
v -4.48 -4.48 0
v -3.84 -4.48 0
v -4.48 -5.12 0
v -5.12 -5.12 0
v -5.12 -4.48 0
v -4.48 -4.48 0
v -12.16 -5.12 0
v -12.8 -5.12 0
v -12.8 -4.48 0
v -12.16 -4.48 0
v -13.44 -5.12 0
v -14.08 -5.12 0
v -14.08 -4.48 0
v -13.44 -4.48 0
v -14.08 -5.12 0
v -14.72 -5.12 0
v -14.72 -4.48 0
v -14.08 -4.48 0
v -14.72 -5.12 0
v -15.36 -5.12 0
v -15.36 -4.48 0
v -14.72 -4.48 0
v -22.4 -5.12 0
v -23.04 -5.12 0
v -23.04 -4.48 0
v -22.4 -4.48 0
v -32.64 -5.12 0
v -33.28 -5.12 0
v -33.28 -4.48 0
v -32.64 -4.48 0
v -40.96 -5.76 0
v -41.6 -5.76 0
v -41.6 -5.12 0
v -40.96 -5.12 0
v -51.2 -5.76 0
v -51.84 -5.76 0
v -51.84 -5.12 0
v -51.2 -5.12 0
v -61.44 -5.76 0
v -62.08 -5.76 0
v -62.08 -5.12 0
v -61.44 -5.12 0
v -28.16 -6.4 0
v -28.8 -6.4 0
v -28.8 -5.76 0
v -28.16 -5.76 0
v -28.8 -6.4 0
v -29.44 -6.4 0
v -29.44 -5.76 0
v -28.8 -5.76 0
v -38.4 -6.4 0
v -39.04 -6.4 0
v -39.04 -5.76 0
v -38.4 -5.76 0
v -39.04 -6.4 0
v -39.68 -6.4 0
v -39.68 -5.76 0
v -39.04 -5.76 0
v -48.64 -6.4 0
v -49.28 -6.4 0
v -49.28 -5.76 0
v -48.64 -5.76 0
v -49.28 -6.4 0
v -49.92 -6.4 0
v -49.92 -5.76 0
v -49.28 -5.76 0
v -58.88 -6.4 0
v -59.52 -6.4 0
v -59.52 -5.76 0
v -58.88 -5.76 0
v -59.52 -6.4 0
v -60.16 -6.4 0
v -60.16 -5.76 0
v -59.52 -5.76 0

# Texture cooridinates (Count = 37)
vt 0 0.75
vt 0.125 0.75
vt 0.125 1
vt 0 1
vt 0.25 0.75
vt 0.25 1
vt 0 0.5
vt 0.125 0.5
vt 0.25 0.5
vt 0 0.25
vt 0.125 0.25
vt 0.25 0.25
vt 0.375 0.5
vt 0.375 0.75
vt 0.5 0.5
vt 0.5 0.75
vt 0.375 0.25
vt 0.5 0.25
vt 0.25 0
vt 0.375 0
vt 0.5 0
vt 0.625 0.75
vt 0.625 1
vt 0.5 1
vt 0.75 0.75
vt 0.75 1
vt 0.875 0.75
vt 0.875 1
vt 0.625 0.5
vt 0.75 0.5
vt 0.875 0.5
vt 0.625 0.25
vt 0.75 0.25
vt 0.875 0.25
vt 0.625 0
vt 0.75 0
vt 0.875 0

# Normal
vn 0 0 -1

# Mesh description
g NewBadManor_mesh_0090

# Faces
f 1/1/1 2/2/1 3/3/1 4/4/1
f 5/2/1 6/5/1 7/6/1 8/3/1
f 9/7/1 10/8/1 11/2/1 12/1/1
f 13/8/1 14/9/1 15/5/1 16/2/1
f 17/1/1 18/2/1 19/3/1 20/4/1
f 21/2/1 22/5/1 23/6/1 24/3/1
f 25/10/1 26/11/1 27/8/1 28/7/1
f 29/11/1 30/12/1 31/9/1 32/8/1
f 33/7/1 34/8/1 35/2/1 36/1/1
f 37/8/1 38/9/1 39/5/1 40/2/1
f 41/10/1 42/11/1 43/8/1 44/7/1
f 45/11/1 46/12/1 47/9/1 48/8/1
f 49/1/1 50/2/1 51/3/1 52/4/1
f 53/2/1 54/5/1 55/6/1 56/3/1
f 57/9/1 58/13/1 59/14/1 60/5/1
f 61/13/1 62/15/1 63/16/1 64/14/1
f 65/7/1 66/8/1 67/2/1 68/1/1
f 69/8/1 70/9/1 71/5/1 72/2/1
f 73/12/1 74/17/1 75/13/1 76/9/1
f 77/17/1 78/18/1 79/15/1 80/13/1
f 81/9/1 82/13/1 83/14/1 84/5/1
f 85/10/1 86/11/1 87/8/1 88/7/1
f 89/19/1 90/20/1 91/17/1 92/12/1
f 93/20/1 94/21/1 95/18/1 96/17/1
f 97/12/1 98/17/1 99/13/1 100/9/1
f 101/19/1 102/20/1 103/17/1 104/12/1
f 105/16/1 106/22/1 107/23/1 108/24/1
f 109/22/1 110/25/1 111/26/1 112/23/1
f 113/25/1 114/27/1 115/28/1 116/26/1
f 117/15/1 118/29/1 119/22/1 120/16/1
f 121/29/1 122/30/1 123/25/1 124/22/1
f 125/30/1 126/31/1 127/27/1 128/25/1
f 129/16/1 130/22/1 131/23/1 132/24/1
f 133/18/1 134/32/1 135/29/1 136/15/1
f 137/32/1 138/33/1 139/30/1 140/29/1
f 141/33/1 142/34/1 143/31/1 144/30/1
f 145/15/1 146/29/1 147/22/1 148/16/1
f 149/21/1 150/35/1 151/32/1 152/18/1
f 153/35/1 154/36/1 155/33/1 156/32/1
f 157/36/1 158/37/1 159/34/1 160/33/1
f 161/18/1 162/32/1 163/29/1 164/15/1
f 165/21/1 166/35/1 167/32/1 168/18/1
f 169/13/1 170/15/1 171/16/1 172/14/1
f 173/17/1 174/18/1 175/15/1 176/13/1
f 177/20/1 178/21/1 179/18/1 180/17/1
f 181/22/1 182/25/1 183/26/1 184/23/1
f 185/25/1 186/27/1 187/28/1 188/26/1
f 189/29/1 190/30/1 191/25/1 192/22/1
f 193/30/1 194/31/1 195/27/1 196/25/1
f 197/32/1 198/33/1 199/30/1 200/29/1
f 201/33/1 202/34/1 203/31/1 204/30/1
f 205/35/1 206/36/1 207/33/1 208/32/1
f 209/36/1 210/37/1 211/34/1 212/33/1

