# Tiled2Unity generated file. Do not modify by hand.
# Wavefront file for 'NewBadManor_mesh_0008.obj'

# Vertices (Count = 624)
v -30.72 -1.92 0
v -31.36 -1.92 0
v -31.36 -1.28 0
v -30.72 -1.28 0
v -31.36 -1.92 0
v -32 -1.92 0
v -32 -1.28 0
v -31.36 -1.28 0
v -32 -1.92 0
v -32.64 -1.92 0
v -32.64 -1.28 0
v -32 -1.28 0
v -32.64 -1.92 0
v -33.28 -1.92 0
v -33.28 -1.28 0
v -32.64 -1.28 0
v -33.28 -1.92 0
v -33.92 -1.92 0
v -33.92 -1.28 0
v -33.28 -1.28 0
v -33.92 -1.92 0
v -34.56 -1.92 0
v -34.56 -1.28 0
v -33.92 -1.28 0
v -34.56 -1.92 0
v -35.2 -1.92 0
v -35.2 -1.28 0
v -34.56 -1.28 0
v -35.2 -1.92 0
v -35.84 -1.92 0
v -35.84 -1.28 0
v -35.2 -1.28 0
v -61.44 -3.2 0
v -62.08 -3.2 0
v -62.08 -2.56 0
v -61.44 -2.56 0
v -62.08 -3.2 0
v -62.72 -3.2 0
v -62.72 -2.56 0
v -62.08 -2.56 0
v -62.72 -3.2 0
v -63.36 -3.2 0
v -63.36 -2.56 0
v -62.72 -2.56 0
v -63.36 -3.2 0
v -64 -3.2 0
v -64 -2.56 0
v -63.36 -2.56 0
v 0 -3.84 0
v -0.64 -3.84 0
v -0.64 -3.2 0
v 0 -3.2 0
v -33.92 -5.12 0
v -34.56 -5.12 0
v -34.56 -4.48 0
v -33.92 -4.48 0
v -34.56 -5.12 0
v -35.2 -5.12 0
v -35.2 -4.48 0
v -34.56 -4.48 0
v -35.2 -5.12 0
v -35.84 -5.12 0
v -35.84 -4.48 0
v -35.2 -4.48 0
v -35.84 -5.12 0
v -36.48 -5.12 0
v -36.48 -4.48 0
v -35.84 -4.48 0
v -36.48 -5.12 0
v -37.12 -5.12 0
v -37.12 -4.48 0
v -36.48 -4.48 0
v -37.12 -5.12 0
v -37.76 -5.12 0
v -37.76 -4.48 0
v -37.12 -4.48 0
v -37.76 -5.12 0
v -38.4 -5.12 0
v -38.4 -4.48 0
v -37.76 -4.48 0
v -38.4 -5.12 0
v -39.04 -5.12 0
v -39.04 -4.48 0
v -38.4 -4.48 0
v -39.04 -5.12 0
v -39.68 -5.12 0
v -39.68 -4.48 0
v -39.04 -4.48 0
v -39.68 -5.12 0
v -40.32 -5.12 0
v -40.32 -4.48 0
v -39.68 -4.48 0
v -40.32 -5.12 0
v -40.96 -5.12 0
v -40.96 -4.48 0
v -40.32 -4.48 0
v -40.96 -5.12 0
v -41.6 -5.12 0
v -41.6 -4.48 0
v -40.96 -4.48 0
v -41.6 -5.12 0
v -42.24 -5.12 0
v -42.24 -4.48 0
v -41.6 -4.48 0
v -48.64 -5.12 0
v -49.28 -5.12 0
v -49.28 -4.48 0
v -48.64 -4.48 0
v -49.28 -5.12 0
v -49.92 -5.12 0
v -49.92 -4.48 0
v -49.28 -4.48 0
v -49.92 -5.12 0
v -50.56 -5.12 0
v -50.56 -4.48 0
v -49.92 -4.48 0
v -50.56 -5.12 0
v -51.2 -5.12 0
v -51.2 -4.48 0
v -50.56 -4.48 0
v -51.2 -5.12 0
v -51.84 -5.12 0
v -51.84 -4.48 0
v -51.2 -4.48 0
v -51.84 -5.12 0
v -52.48 -5.12 0
v -52.48 -4.48 0
v -51.84 -4.48 0
v -52.48 -5.12 0
v -53.12 -5.12 0
v -53.12 -4.48 0
v -52.48 -4.48 0
v -53.12 -5.12 0
v -53.76 -5.12 0
v -53.76 -4.48 0
v -53.12 -4.48 0
v -58.88 -5.12 0
v -59.52 -5.12 0
v -59.52 -4.48 0
v -58.88 -4.48 0
v -59.52 -5.12 0
v -60.16 -5.12 0
v -60.16 -4.48 0
v -59.52 -4.48 0
v -60.16 -5.12 0
v -60.8 -5.12 0
v -60.8 -4.48 0
v -60.16 -4.48 0
v -60.8 -5.12 0
v -61.44 -5.12 0
v -61.44 -4.48 0
v -60.8 -4.48 0
v -61.44 -5.12 0
v -62.08 -5.12 0
v -62.08 -4.48 0
v -61.44 -4.48 0
v -62.08 -5.12 0
v -62.72 -5.12 0
v -62.72 -4.48 0
v -62.08 -4.48 0
v -62.72 -5.12 0
v -63.36 -5.12 0
v -63.36 -4.48 0
v -62.72 -4.48 0
v -63.36 -5.12 0
v -64 -5.12 0
v -64 -4.48 0
v -63.36 -4.48 0
v -5.12 -5.76 0
v -5.76 -5.76 0
v -5.76 -5.12 0
v -5.12 -5.12 0
v -5.76 -5.76 0
v -6.4 -5.76 0
v -6.4 -5.12 0
v -5.76 -5.12 0
v -6.4 -5.76 0
v -7.04 -5.76 0
v -7.04 -5.12 0
v -6.4 -5.12 0
v -7.04 -5.76 0
v -7.68 -5.76 0
v -7.68 -5.12 0
v -7.04 -5.12 0
v -7.68 -5.76 0
v -8.32 -5.76 0
v -8.32 -5.12 0
v -7.68 -5.12 0
v -8.32 -5.76 0
v -8.96 -5.76 0
v -8.96 -5.12 0
v -8.32 -5.12 0
v -8.96 -5.76 0
v -9.599999 -5.76 0
v -9.599999 -5.12 0
v -8.96 -5.12 0
v -9.599999 -5.76 0
v -10.24 -5.76 0
v -10.24 -5.12 0
v -9.599999 -5.12 0
v -15.36 -5.76 0
v -16 -5.76 0
v -16 -5.12 0
v -15.36 -5.12 0
v -16 -5.76 0
v -16.64 -5.76 0
v -16.64 -5.12 0
v -16 -5.12 0
v -16.64 -5.76 0
v -17.28 -5.76 0
v -17.28 -5.12 0
v -16.64 -5.12 0
v -17.28 -5.76 0
v -17.92 -5.76 0
v -17.92 -5.12 0
v -17.28 -5.12 0
v -17.92 -5.76 0
v -18.56 -5.76 0
v -18.56 -5.12 0
v -17.92 -5.12 0
v -18.56 -5.76 0
v -19.2 -5.76 0
v -19.2 -5.12 0
v -18.56 -5.12 0
v -19.2 -5.76 0
v -19.84 -5.76 0
v -19.84 -5.12 0
v -19.2 -5.12 0
v -19.84 -5.76 0
v -20.48 -5.76 0
v -20.48 -5.12 0
v -19.84 -5.12 0
v -25.6 -5.76 0
v -26.24 -5.76 0
v -26.24 -5.12 0
v -25.6 -5.12 0
v -26.24 -5.76 0
v -26.88 -5.76 0
v -26.88 -5.12 0
v -26.24 -5.12 0
v -26.88 -5.76 0
v -27.52 -5.76 0
v -27.52 -5.12 0
v -26.88 -5.12 0
v -27.52 -5.76 0
v -28.16 -5.76 0
v -28.16 -5.12 0
v -27.52 -5.12 0
v -28.16 -5.76 0
v -28.8 -5.76 0
v -28.8 -5.12 0
v -28.16 -5.12 0
v -28.8 -5.76 0
v -29.44 -5.76 0
v -29.44 -5.12 0
v -28.8 -5.12 0
v -29.44 -5.76 0
v -30.08 -5.76 0
v -30.08 -5.12 0
v -29.44 -5.12 0
v -30.08 -5.76 0
v -30.72 -5.76 0
v -30.72 -5.12 0
v -30.08 -5.12 0
v -15.36 -7.04 0
v -16 -7.04 0
v -16 -6.4 0
v -15.36 -6.4 0
v -16 -7.04 0
v -16.64 -7.04 0
v -16.64 -6.4 0
v -16 -6.4 0
v -16.64 -7.04 0
v -17.28 -7.04 0
v -17.28 -6.4 0
v -16.64 -6.4 0
v -17.28 -7.04 0
v -17.92 -7.04 0
v -17.92 -6.4 0
v -17.28 -6.4 0
v -17.92 -7.04 0
v -18.56 -7.04 0
v -18.56 -6.4 0
v -17.92 -6.4 0
v -25.6 -7.04 0
v -26.24 -7.04 0
v -26.24 -6.4 0
v -25.6 -6.4 0
v -26.24 -7.04 0
v -26.88 -7.04 0
v -26.88 -6.4 0
v -26.24 -6.4 0
v -26.88 -7.04 0
v -27.52 -7.04 0
v -27.52 -6.4 0
v -26.88 -6.4 0
v -27.52 -7.04 0
v -28.16 -7.04 0
v -28.16 -6.4 0
v -27.52 -6.4 0
v -28.16 -7.04 0
v -28.8 -7.04 0
v -28.8 -6.4 0
v -28.16 -6.4 0
v -35.84 -7.04 0
v -36.48 -7.04 0
v -36.48 -6.4 0
v -35.84 -6.4 0
v -36.48 -7.04 0
v -37.12 -7.04 0
v -37.12 -6.4 0
v -36.48 -6.4 0
v -37.12 -7.04 0
v -37.76 -7.04 0
v -37.76 -6.4 0
v -37.12 -6.4 0
v -37.76 -7.04 0
v -38.4 -7.04 0
v -38.4 -6.4 0
v -37.76 -6.4 0
v -38.4 -7.04 0
v -39.04 -7.04 0
v -39.04 -6.4 0
v -38.4 -6.4 0
v -46.08 -7.04 0
v -46.72 -7.04 0
v -46.72 -6.4 0
v -46.08 -6.4 0
v -46.72 -7.04 0
v -47.36 -7.04 0
v -47.36 -6.4 0
v -46.72 -6.4 0
v -47.36 -7.04 0
v -48 -7.04 0
v -48 -6.4 0
v -47.36 -6.4 0
v -48 -7.04 0
v -48.64 -7.04 0
v -48.64 -6.4 0
v -48 -6.4 0
v -48.64 -7.04 0
v -49.28 -7.04 0
v -49.28 -6.4 0
v -48.64 -6.4 0
v -56.32 -7.04 0
v -56.96 -7.04 0
v -56.96 -6.4 0
v -56.32 -6.4 0
v -56.96 -7.04 0
v -57.6 -7.04 0
v -57.6 -6.4 0
v -56.96 -6.4 0
v -57.6 -7.04 0
v -58.24 -7.04 0
v -58.24 -6.4 0
v -57.6 -6.4 0
v -58.24 -7.04 0
v -58.88 -7.04 0
v -58.88 -6.4 0
v -58.24 -6.4 0
v -58.88 -7.04 0
v -59.52 -7.04 0
v -59.52 -6.4 0
v -58.88 -6.4 0
v -51.84 -8.32 0
v -52.48 -8.32 0
v -52.48 -7.68 0
v -51.84 -7.68 0
v -52.48 -8.32 0
v -53.12 -8.32 0
v -53.12 -7.68 0
v -52.48 -7.68 0
v -53.12 -8.32 0
v -53.76 -8.32 0
v -53.76 -7.68 0
v -53.12 -7.68 0
v -53.76 -8.32 0
v -54.4 -8.32 0
v -54.4 -7.68 0
v -53.76 -7.68 0
v -54.4 -8.32 0
v -55.04 -8.32 0
v -55.04 -7.68 0
v -54.4 -7.68 0
v -55.04 -8.32 0
v -55.68 -8.32 0
v -55.68 -7.68 0
v -55.04 -7.68 0
v -55.68 -8.32 0
v -56.32 -8.32 0
v -56.32 -7.68 0
v -55.68 -7.68 0
v -56.32 -8.32 0
v -56.96 -8.32 0
v -56.96 -7.68 0
v -56.32 -7.68 0
v -56.96 -8.32 0
v -57.6 -8.32 0
v -57.6 -7.68 0
v -56.96 -7.68 0
v -57.6 -8.32 0
v -58.24 -8.32 0
v -58.24 -7.68 0
v -57.6 -7.68 0
v -58.24 -8.32 0
v -58.88 -8.32 0
v -58.88 -7.68 0
v -58.24 -7.68 0
v -58.88 -8.32 0
v -59.52 -8.32 0
v -59.52 -7.68 0
v -58.88 -7.68 0
v -59.52 -8.32 0
v -60.16 -8.32 0
v -60.16 -7.68 0
v -59.52 -7.68 0
v -62.08 -8.32 0
v -62.72 -8.32 0
v -62.72 -7.68 0
v -62.08 -7.68 0
v -62.72 -8.32 0
v -63.36 -8.32 0
v -63.36 -7.68 0
v -62.72 -7.68 0
v -63.36 -8.32 0
v -64 -8.32 0
v -64 -7.68 0
v -63.36 -7.68 0
v 0 -8.96 0
v -0.64 -8.96 0
v -0.64 -8.32 0
v 0 -8.32 0
v -0.64 -8.96 0
v -1.28 -8.96 0
v -1.28 -8.32 0
v -0.64 -8.32 0
v -1.28 -8.96 0
v -1.92 -8.96 0
v -1.92 -8.32 0
v -1.28 -8.32 0
v -1.92 -8.96 0
v -2.56 -8.96 0
v -2.56 -8.32 0
v -1.92 -8.32 0
v -2.56 -8.96 0
v -3.2 -8.96 0
v -3.2 -8.32 0
v -2.56 -8.32 0
v -3.2 -8.96 0
v -3.84 -8.96 0
v -3.84 -8.32 0
v -3.2 -8.32 0
v -3.84 -8.96 0
v -4.48 -8.96 0
v -4.48 -8.32 0
v -3.84 -8.32 0
v -4.48 -8.96 0
v -5.12 -8.96 0
v -5.12 -8.32 0
v -4.48 -8.32 0
v -5.12 -8.96 0
v -5.76 -8.96 0
v -5.76 -8.32 0
v -5.12 -8.32 0
v -5.76 -8.96 0
v -6.4 -8.96 0
v -6.4 -8.32 0
v -5.76 -8.32 0
v -8.32 -8.96 0
v -8.96 -8.96 0
v -8.96 -8.32 0
v -8.32 -8.32 0
v -8.96 -8.96 0
v -9.599999 -8.96 0
v -9.599999 -8.32 0
v -8.96 -8.32 0
v -9.599999 -8.96 0
v -10.24 -8.96 0
v -10.24 -8.32 0
v -9.599999 -8.32 0
v -10.24 -8.96 0
v -10.88 -8.96 0
v -10.88 -8.32 0
v -10.24 -8.32 0
v -10.88 -8.96 0
v -11.52 -8.96 0
v -11.52 -8.32 0
v -10.88 -8.32 0
v -11.52 -8.96 0
v -12.16 -8.96 0
v -12.16 -8.32 0
v -11.52 -8.32 0
v -12.16 -8.96 0
v -12.8 -8.96 0
v -12.8 -8.32 0
v -12.16 -8.32 0
v -12.8 -8.96 0
v -13.44 -8.96 0
v -13.44 -8.32 0
v -12.8 -8.32 0
v -13.44 -8.96 0
v -14.08 -8.96 0
v -14.08 -8.32 0
v -13.44 -8.32 0
v -14.08 -8.96 0
v -14.72 -8.96 0
v -14.72 -8.32 0
v -14.08 -8.32 0
v -14.72 -8.96 0
v -15.36 -8.96 0
v -15.36 -8.32 0
v -14.72 -8.32 0
v -15.36 -8.96 0
v -16 -8.96 0
v -16 -8.32 0
v -15.36 -8.32 0
v -16 -8.96 0
v -16.64 -8.96 0
v -16.64 -8.32 0
v -16 -8.32 0
v -18.56 -8.96 0
v -19.2 -8.96 0
v -19.2 -8.32 0
v -18.56 -8.32 0
v -19.2 -8.96 0
v -19.84 -8.96 0
v -19.84 -8.32 0
v -19.2 -8.32 0
v -19.84 -8.96 0
v -20.48 -8.96 0
v -20.48 -8.32 0
v -19.84 -8.32 0
v -20.48 -8.96 0
v -21.12 -8.96 0
v -21.12 -8.32 0
v -20.48 -8.32 0
v -21.12 -8.96 0
v -21.76 -8.96 0
v -21.76 -8.32 0
v -21.12 -8.32 0
v -21.76 -8.96 0
v -22.4 -8.96 0
v -22.4 -8.32 0
v -21.76 -8.32 0
v -22.4 -8.96 0
v -23.04 -8.96 0
v -23.04 -8.32 0
v -22.4 -8.32 0
v -23.04 -8.96 0
v -23.68 -8.96 0
v -23.68 -8.32 0
v -23.04 -8.32 0
v -23.68 -8.96 0
v -24.32 -8.96 0
v -24.32 -8.32 0
v -23.68 -8.32 0
v -24.32 -8.96 0
v -24.96 -8.96 0
v -24.96 -8.32 0
v -24.32 -8.32 0
v -24.96 -8.96 0
v -25.6 -8.96 0
v -25.6 -8.32 0
v -24.96 -8.32 0
v -25.6 -8.96 0
v -26.24 -8.96 0
v -26.24 -8.32 0
v -25.6 -8.32 0
v -26.24 -8.96 0
v -26.88 -8.96 0
v -26.88 -8.32 0
v -26.24 -8.32 0
v -28.8 -8.96 0
v -29.44 -8.96 0
v -29.44 -8.32 0
v -28.8 -8.32 0
v -29.44 -8.96 0
v -30.08 -8.96 0
v -30.08 -8.32 0
v -29.44 -8.32 0
v -30.08 -8.96 0
v -30.72 -8.96 0
v -30.72 -8.32 0
v -30.08 -8.32 0
v -30.72 -8.96 0
v -31.36 -8.96 0
v -31.36 -8.32 0
v -30.72 -8.32 0
v -31.36 -8.96 0
v -32 -8.96 0
v -32 -8.32 0
v -31.36 -8.32 0
v -32 -8.96 0
v -32.64 -8.96 0
v -32.64 -8.32 0
v -32 -8.32 0
v -32.64 -8.96 0
v -33.28 -8.96 0
v -33.28 -8.32 0
v -32.64 -8.32 0
v -33.28 -8.96 0
v -33.92 -8.96 0
v -33.92 -8.32 0
v -33.28 -8.32 0
v -33.92 -8.96 0
v -34.56 -8.96 0
v -34.56 -8.32 0
v -33.92 -8.32 0
v -34.56 -8.96 0
v -35.2 -8.96 0
v -35.2 -8.32 0
v -34.56 -8.32 0
v -35.2 -8.96 0
v -35.84 -8.96 0
v -35.84 -8.32 0
v -35.2 -8.32 0
v -35.84 -8.96 0
v -36.48 -8.96 0
v -36.48 -8.32 0
v -35.84 -8.32 0
v -36.48 -8.96 0
v -37.12 -8.96 0
v -37.12 -8.32 0
v -36.48 -8.32 0

# Texture cooridinates (Count = 68)
vt 0.55 0.95
vt 0.6 0.95
vt 0.6 1
vt 0.55 1
vt 0 0.95
vt 0.05 0.95
vt 0.05 1
vt 0 1
vt 0.1 0.95
vt 0.15 0.95
vt 0.15 1
vt 0.1 1
vt 0.2 0.95
vt 0.2 1
vt 0.25 0.95
vt 0.25 1
vt 0.3 0.95
vt 0.3 1
vt 0.2 0.5
vt 0.25 0.5
vt 0.25 0.55
vt 0.2 0.55
vt 0.55 0.9
vt 0.6 0.9
vt 0 0.9
vt 0.05 0.9
vt 0.1 0.9
vt 0.15 0.9
vt 0.2 0.9
vt 0.2 0.1
vt 0.2 0.15
vt 0.15 0.15
vt 0.15 0.1
vt 0.25 0.1
vt 0.25 0.15
vt 0 0.7
vt 0.05 0.7
vt 0.05 0.75
vt 0 0.75
vt 0.1 0.7
vt 0.15 0.7
vt 0.15 0.75
vt 0.1 0.75
vt 0.2 0.7
vt 0.2 0.75
vt 0.15 0.35
vt 0.2 0.35
vt 0.2 0.4
vt 0.15 0.4
vt 0 0.65
vt 0.05 0.65
vt 0.1 0.65
vt 0.15 0.65
vt 0.2 0.65
vt 0.25 0.9
vt 0.3 0.9
vt 0.25 0.7
vt 0.25 0.75
vt 0.3 0.7
vt 0.3 0.75
vt 0.25 0.65
vt 0.3 0.65
vt 0.4 0.9
vt 0.45 0.9
vt 0.45 0.95
vt 0.4 0.95
vt 0.25 0.35
vt 0.25 0.4

# Normal
vn 0 0 -1

# Mesh description
g NewBadManor_mesh_0008

# Faces
f 1/1/1 2/2/1 3/3/1 4/4/1
f 5/5/1 6/6/1 7/7/1 8/8/1
f 9/9/1 10/10/1 11/11/1 12/12/1
f 13/10/1 14/13/1 15/14/1 16/11/1
f 17/9/1 18/10/1 19/11/1 20/12/1
f 21/10/1 22/13/1 23/14/1 24/11/1
f 25/9/1 26/10/1 27/11/1 28/12/1
f 29/10/1 30/13/1 31/14/1 32/11/1
f 33/6/1 34/9/1 35/12/1 36/7/1
f 37/9/1 38/10/1 39/11/1 40/12/1
f 41/10/1 42/13/1 43/14/1 44/11/1
f 45/13/1 46/15/1 47/16/1 48/14/1
f 49/15/1 50/17/1 51/18/1 52/16/1
f 53/5/1 54/6/1 55/7/1 56/8/1
f 57/6/1 58/9/1 59/12/1 60/7/1
f 61/6/1 62/9/1 63/12/1 64/7/1
f 65/6/1 66/9/1 67/12/1 68/7/1
f 69/6/1 70/9/1 71/12/1 72/7/1
f 73/6/1 74/9/1 75/12/1 76/7/1
f 77/6/1 78/9/1 79/12/1 80/7/1
f 81/6/1 82/9/1 83/12/1 84/7/1
f 85/6/1 86/9/1 87/12/1 88/7/1
f 89/6/1 90/9/1 91/12/1 92/7/1
f 93/6/1 94/9/1 95/12/1 96/7/1
f 97/6/1 98/9/1 99/12/1 100/7/1
f 101/19/1 102/20/1 103/21/1 104/22/1
f 105/23/1 106/24/1 107/2/1 108/1/1
f 109/25/1 110/26/1 111/6/1 112/5/1
f 113/27/1 114/28/1 115/10/1 116/9/1
f 117/28/1 118/29/1 119/13/1 120/10/1
f 121/27/1 122/28/1 123/10/1 124/9/1
f 125/28/1 126/29/1 127/13/1 128/10/1
f 129/27/1 130/28/1 131/10/1 132/9/1
f 133/28/1 134/29/1 135/13/1 136/10/1
f 137/1/1 138/2/1 139/3/1 140/4/1
f 141/30/1 142/31/1 143/32/1 144/33/1
f 145/30/1 146/31/1 147/32/1 148/33/1
f 149/30/1 150/31/1 151/32/1 152/33/1
f 153/30/1 154/31/1 155/32/1 156/33/1
f 157/30/1 158/31/1 159/32/1 160/33/1
f 161/30/1 162/31/1 163/32/1 164/33/1
f 165/30/1 166/31/1 167/32/1 168/33/1
f 169/1/1 170/2/1 171/3/1 172/4/1
f 173/34/1 174/35/1 175/31/1 176/30/1
f 177/34/1 178/35/1 179/31/1 180/30/1
f 181/34/1 182/35/1 183/31/1 184/30/1
f 185/34/1 186/35/1 187/31/1 188/30/1
f 189/34/1 190/35/1 191/31/1 192/30/1
f 193/34/1 194/35/1 195/31/1 196/30/1
f 197/34/1 198/35/1 199/31/1 200/30/1
f 201/23/1 202/24/1 203/2/1 204/1/1
f 205/36/1 206/37/1 207/38/1 208/39/1
f 209/40/1 210/41/1 211/42/1 212/43/1
f 213/41/1 214/44/1 215/45/1 216/42/1
f 217/41/1 218/44/1 219/45/1 220/42/1
f 221/40/1 222/41/1 223/42/1 224/43/1
f 225/40/1 226/41/1 227/42/1 228/43/1
f 229/41/1 230/44/1 231/45/1 232/42/1
f 233/46/1 234/47/1 235/48/1 236/49/1
f 237/50/1 238/51/1 239/37/1 240/36/1
f 241/52/1 242/53/1 243/41/1 244/40/1
f 245/53/1 246/54/1 247/44/1 248/41/1
f 249/53/1 250/54/1 251/44/1 252/41/1
f 253/52/1 254/53/1 255/41/1 256/40/1
f 257/52/1 258/53/1 259/41/1 260/40/1
f 261/53/1 262/54/1 263/44/1 264/41/1
f 265/26/1 266/27/1 267/9/1 268/6/1
f 269/27/1 270/28/1 271/10/1 272/9/1
f 273/28/1 274/29/1 275/13/1 276/10/1
f 277/29/1 278/55/1 279/15/1 280/13/1
f 281/55/1 282/56/1 283/17/1 284/15/1
f 285/30/1 286/31/1 287/32/1 288/33/1
f 289/30/1 290/31/1 291/32/1 292/33/1
f 293/30/1 294/31/1 295/32/1 296/33/1
f 297/30/1 298/31/1 299/32/1 300/33/1
f 301/30/1 302/31/1 303/32/1 304/33/1
f 305/34/1 306/35/1 307/31/1 308/30/1
f 309/34/1 310/35/1 311/31/1 312/30/1
f 313/34/1 314/35/1 315/31/1 316/30/1
f 317/34/1 318/35/1 319/31/1 320/30/1
f 321/34/1 322/35/1 323/31/1 324/30/1
f 325/37/1 326/40/1 327/43/1 328/38/1
f 329/40/1 330/41/1 331/42/1 332/43/1
f 333/41/1 334/44/1 335/45/1 336/42/1
f 337/44/1 338/57/1 339/58/1 340/45/1
f 341/57/1 342/59/1 343/60/1 344/58/1
f 345/51/1 346/52/1 347/40/1 348/37/1
f 349/52/1 350/53/1 351/41/1 352/40/1
f 353/53/1 354/54/1 355/44/1 356/41/1
f 357/54/1 358/61/1 359/57/1 360/44/1
f 361/61/1 362/62/1 363/59/1 364/57/1
f 365/25/1 366/26/1 367/6/1 368/5/1
f 369/26/1 370/27/1 371/9/1 372/6/1
f 373/26/1 374/27/1 375/9/1 376/6/1
f 377/26/1 378/27/1 379/9/1 380/6/1
f 381/26/1 382/27/1 383/9/1 384/6/1
f 385/26/1 386/27/1 387/9/1 388/6/1
f 389/26/1 390/27/1 391/9/1 392/6/1
f 393/26/1 394/27/1 395/9/1 396/6/1
f 397/26/1 398/27/1 399/9/1 400/6/1
f 401/26/1 402/27/1 403/9/1 404/6/1
f 405/26/1 406/27/1 407/9/1 408/6/1
f 409/26/1 410/27/1 411/9/1 412/6/1
f 413/19/1 414/20/1 415/21/1 416/22/1
f 417/30/1 418/31/1 419/32/1 420/33/1
f 421/30/1 422/31/1 423/32/1 424/33/1
f 425/30/1 426/31/1 427/32/1 428/33/1
f 429/30/1 430/31/1 431/32/1 432/33/1
f 433/30/1 434/31/1 435/32/1 436/33/1
f 437/30/1 438/31/1 439/32/1 440/33/1
f 441/30/1 442/31/1 443/32/1 444/33/1
f 445/30/1 446/31/1 447/32/1 448/33/1
f 449/30/1 450/31/1 451/32/1 452/33/1
f 453/30/1 454/31/1 455/32/1 456/33/1
f 457/30/1 458/31/1 459/32/1 460/33/1
f 461/30/1 462/31/1 463/32/1 464/33/1
f 465/19/1 466/20/1 467/21/1 468/22/1
f 469/34/1 470/35/1 471/31/1 472/30/1
f 473/34/1 474/35/1 475/31/1 476/30/1
f 477/34/1 478/35/1 479/31/1 480/30/1
f 481/34/1 482/35/1 483/31/1 484/30/1
f 485/34/1 486/35/1 487/31/1 488/30/1
f 489/34/1 490/35/1 491/31/1 492/30/1
f 493/34/1 494/35/1 495/31/1 496/30/1
f 497/34/1 498/35/1 499/31/1 500/30/1
f 501/34/1 502/35/1 503/31/1 504/30/1
f 505/34/1 506/35/1 507/31/1 508/30/1
f 509/34/1 510/35/1 511/31/1 512/30/1
f 513/34/1 514/35/1 515/31/1 516/30/1
f 517/19/1 518/20/1 519/21/1 520/22/1
f 521/40/1 522/41/1 523/42/1 524/43/1
f 525/40/1 526/41/1 527/42/1 528/43/1
f 529/40/1 530/41/1 531/42/1 532/43/1
f 533/40/1 534/41/1 535/42/1 536/43/1
f 537/40/1 538/41/1 539/42/1 540/43/1
f 541/40/1 542/41/1 543/42/1 544/43/1
f 545/40/1 546/41/1 547/42/1 548/43/1
f 549/40/1 550/41/1 551/42/1 552/43/1
f 553/40/1 554/41/1 555/42/1 556/43/1
f 557/40/1 558/41/1 559/42/1 560/43/1
f 561/40/1 562/41/1 563/42/1 564/43/1
f 565/40/1 566/41/1 567/42/1 568/43/1
f 569/63/1 570/64/1 571/65/1 572/66/1
f 573/52/1 574/53/1 575/41/1 576/40/1
f 577/52/1 578/53/1 579/41/1 580/40/1
f 581/52/1 582/53/1 583/41/1 584/40/1
f 585/52/1 586/53/1 587/41/1 588/40/1
f 589/52/1 590/53/1 591/41/1 592/40/1
f 593/52/1 594/53/1 595/41/1 596/40/1
f 597/52/1 598/53/1 599/41/1 600/40/1
f 601/52/1 602/53/1 603/41/1 604/40/1
f 605/52/1 606/53/1 607/41/1 608/40/1
f 609/52/1 610/53/1 611/41/1 612/40/1
f 613/52/1 614/53/1 615/41/1 616/40/1
f 617/52/1 618/53/1 619/41/1 620/40/1
f 621/47/1 622/67/1 623/68/1 624/48/1

