# Tiled2Unity generated file. Do not modify by hand.
# Wavefront file for 'NewBadManor_mesh_0132.obj'

# Vertices (Count = 20)
v 0 -0.32 -0.005780347
v -0.32 -0.32 -0.005780347
v -0.32 0 -0.005780347
v 0 0 -0.005780347
v 0 -0.64 -0.01156069
v -0.32 -0.64 -0.01156069
v -0.32 -0.32 -0.01156069
v 0 -0.32 -0.01156069
v 0 -0.96 -0.01734104
v -0.32 -0.96 -0.01734104
v -0.32 -0.64 -0.01734104
v 0 -0.64 -0.01734104
v 0 -1.28 -0.02312139
v -0.32 -1.28 -0.02312139
v -0.32 -0.96 -0.02312139
v 0 -0.96 -0.02312139
v 0 -1.6 -0.02890173
v -0.32 -1.6 -0.02890173
v -0.32 -1.28 -0.02890173
v 0 -1.28 -0.02890173

# Texture cooridinates (Count = 6)
vt 0.2083333 0.7333333
vt 0.25 0.7333333
vt 0.25 0.7666667
vt 0.2083333 0.7666667
vt 0.25 0.8
vt 0.2083333 0.8

# Normal
vn 0 0 -1

# Mesh description
g NewBadManor_mesh_0132

# Faces
f 1/1/1 2/2/1 3/3/1 4/4/1
f 5/4/1 6/3/1 7/5/1 8/6/1
f 9/1/1 10/2/1 11/3/1 12/4/1
f 13/4/1 14/3/1 15/5/1 16/6/1
f 17/1/1 18/2/1 19/3/1 20/4/1

