# Tiled2Unity generated file. Do not modify by hand.
# Wavefront file for 'NewBadManor_mesh_0301.obj'

# Vertices (Count = 32)
v -2.88 -2.56 -0.04624277
v -3.2 -2.56 -0.04624277
v -3.2 -2.24 -0.04624277
v -2.88 -2.24 -0.04624277
v -3.2 -2.56 -0.04624277
v -3.52 -2.56 -0.04624277
v -3.52 -2.24 -0.04624277
v -3.2 -2.24 -0.04624277
v -3.52 -2.56 -0.04624277
v -3.84 -2.56 -0.04624277
v -3.84 -2.24 -0.04624277
v -3.52 -2.24 -0.04624277
v -3.84 -2.56 -0.04624277
v -4.16 -2.56 -0.04624277
v -4.16 -2.24 -0.04624277
v -3.84 -2.24 -0.04624277
v -2.88 -2.88 -0.05202312
v -3.2 -2.88 -0.05202312
v -3.2 -2.56 -0.05202312
v -2.88 -2.56 -0.05202312
v -3.2 -2.88 -0.05202312
v -3.52 -2.88 -0.05202312
v -3.52 -2.56 -0.05202312
v -3.2 -2.56 -0.05202312
v -3.52 -2.88 -0.05202312
v -3.84 -2.88 -0.05202312
v -3.84 -2.56 -0.05202312
v -3.52 -2.56 -0.05202312
v -3.84 -2.88 -0.05202312
v -4.16 -2.88 -0.05202312
v -4.16 -2.56 -0.05202312
v -3.84 -2.56 -0.05202312

# Texture cooridinates (Count = 28)
vt 0.1 0.35
vt 0.15 0.35
vt 0.15 0.4
vt 0.1 0.4
vt 0.2 0.35
vt 0.25 0.35
vt 0.25 0.4
vt 0.2 0.4
vt 0.3 0.35
vt 0.3 0.4
vt 0.35 0.35
vt 0.4 0.35
vt 0.4 0.4
vt 0.35 0.4
vt 0.1 0.1
vt 0.15 0.1
vt 0.15 0.15
vt 0.1 0.15
vt 0.2 0.1
vt 0.25 0.1
vt 0.25 0.15
vt 0.2 0.15
vt 0.3 0.1
vt 0.3 0.15
vt 0.35 0.1
vt 0.4 0.1
vt 0.4 0.15
vt 0.35 0.15

# Normal
vn 0 0 -1

# Mesh description
g NewBadManor_mesh_0301

# Faces
f 1/1/1 2/2/1 3/3/1 4/4/1
f 5/5/1 6/6/1 7/7/1 8/8/1
f 9/6/1 10/9/1 11/10/1 12/7/1
f 13/11/1 14/12/1 15/13/1 16/14/1
f 17/15/1 18/16/1 19/17/1 20/18/1
f 21/19/1 22/20/1 23/21/1 24/22/1
f 25/20/1 26/23/1 27/24/1 28/21/1
f 29/25/1 30/26/1 31/27/1 32/28/1

