# Tiled2Unity generated file. Do not modify by hand.
# Wavefront file for 'NewBadManor_mesh_0046.obj'

# Vertices (Count = 360)
v -28.16 -0.64 0
v -28.8 -0.64 0
v -28.8 0 0
v -28.16 0 0
v -28.8 -0.64 0
v -29.44 -0.64 0
v -29.44 0 0
v -28.8 0 0
v -29.44 -0.64 0
v -30.08 -0.64 0
v -30.08 0 0
v -29.44 0 0
v -30.08 -0.64 0
v -30.72 -0.64 0
v -30.72 0 0
v -30.08 0 0
v -38.4 -0.64 0
v -39.04 -0.64 0
v -39.04 0 0
v -38.4 0 0
v -39.04 -0.64 0
v -39.68 -0.64 0
v -39.68 0 0
v -39.04 0 0
v -39.68 -0.64 0
v -40.32 -0.64 0
v -40.32 0 0
v -39.68 0 0
v -40.32 -0.64 0
v -40.96 -0.64 0
v -40.96 0 0
v -40.32 0 0
v -48.64 -0.64 0
v -49.28 -0.64 0
v -49.28 0 0
v -48.64 0 0
v -49.28 -0.64 0
v -49.92 -0.64 0
v -49.92 0 0
v -49.28 0 0
v -49.92 -0.64 0
v -50.56 -0.64 0
v -50.56 0 0
v -49.92 0 0
v -50.56 -0.64 0
v -51.2 -0.64 0
v -51.2 0 0
v -50.56 0 0
v -58.88 -0.64 0
v -59.52 -0.64 0
v -59.52 0 0
v -58.88 0 0
v -59.52 -0.64 0
v -60.16 -0.64 0
v -60.16 0 0
v -59.52 0 0
v -60.16 -0.64 0
v -60.8 -0.64 0
v -60.8 0 0
v -60.16 0 0
v -60.8 -0.64 0
v -61.44 -0.64 0
v -61.44 0 0
v -60.8 0 0
v -5.12 -1.28 0
v -5.76 -1.28 0
v -5.76 -0.64 0
v -5.12 -0.64 0
v -5.76 -1.28 0
v -6.4 -1.28 0
v -6.4 -0.64 0
v -5.76 -0.64 0
v -6.4 -1.28 0
v -7.04 -1.28 0
v -7.04 -0.64 0
v -6.4 -0.64 0
v -7.04 -1.28 0
v -7.68 -1.28 0
v -7.68 -0.64 0
v -7.04 -0.64 0
v -35.84 -1.28 0
v -36.48 -1.28 0
v -36.48 -0.64 0
v -35.84 -0.64 0
v -36.48 -1.28 0
v -37.12 -1.28 0
v -37.12 -0.64 0
v -36.48 -0.64 0
v -37.12 -1.28 0
v -37.76 -1.28 0
v -37.76 -0.64 0
v -37.12 -0.64 0
v -37.76 -1.28 0
v -38.4 -1.28 0
v -38.4 -0.64 0
v -37.76 -0.64 0
v -46.08 -1.28 0
v -46.72 -1.28 0
v -46.72 -0.64 0
v -46.08 -0.64 0
v -46.72 -1.28 0
v -47.36 -1.28 0
v -47.36 -0.64 0
v -46.72 -0.64 0
v -47.36 -1.28 0
v -48 -1.28 0
v -48 -0.64 0
v -47.36 -0.64 0
v -48 -1.28 0
v -48.64 -1.28 0
v -48.64 -0.64 0
v -48 -0.64 0
v -56.32 -1.28 0
v -56.96 -1.28 0
v -56.96 -0.64 0
v -56.32 -0.64 0
v -56.96 -1.28 0
v -57.6 -1.28 0
v -57.6 -0.64 0
v -56.96 -0.64 0
v -57.6 -1.28 0
v -58.24 -1.28 0
v -58.24 -0.64 0
v -57.6 -0.64 0
v -58.24 -1.28 0
v -58.88 -1.28 0
v -58.88 -0.64 0
v -58.24 -0.64 0
v -2.56 -1.92 0
v -3.2 -1.92 0
v -3.2 -1.28 0
v -2.56 -1.28 0
v -3.2 -1.92 0
v -3.84 -1.92 0
v -3.84 -1.28 0
v -3.2 -1.28 0
v -3.84 -1.92 0
v -4.48 -1.92 0
v -4.48 -1.28 0
v -3.84 -1.28 0
v -4.48 -1.92 0
v -5.12 -1.92 0
v -5.12 -1.28 0
v -4.48 -1.28 0
v -12.8 -1.92 0
v -13.44 -1.92 0
v -13.44 -1.28 0
v -12.8 -1.28 0
v -13.44 -1.92 0
v -14.08 -1.92 0
v -14.08 -1.28 0
v -13.44 -1.28 0
v -14.08 -1.92 0
v -14.72 -1.92 0
v -14.72 -1.28 0
v -14.08 -1.28 0
v -14.72 -1.92 0
v -15.36 -1.92 0
v -15.36 -1.28 0
v -14.72 -1.28 0
v -1.92 -2.56 0
v -2.56 -2.56 0
v -2.56 -1.92 0
v -1.92 -1.92 0
v -12.16 -2.56 0
v -12.8 -2.56 0
v -12.8 -1.92 0
v -12.16 -1.92 0
v -22.4 -2.56 0
v -23.04 -2.56 0
v -23.04 -1.92 0
v -22.4 -1.92 0
v -32.64 -2.56 0
v -33.28 -2.56 0
v -33.28 -1.92 0
v -32.64 -1.92 0
v -42.88 -2.56 0
v -43.52 -2.56 0
v -43.52 -1.92 0
v -42.88 -1.92 0
v -8.96 -3.2 0
v -9.599999 -3.2 0
v -9.599999 -2.56 0
v -8.96 -2.56 0
v -9.599999 -3.2 0
v -10.24 -3.2 0
v -10.24 -2.56 0
v -9.599999 -2.56 0
v -19.2 -3.2 0
v -19.84 -3.2 0
v -19.84 -2.56 0
v -19.2 -2.56 0
v -19.84 -3.2 0
v -20.48 -3.2 0
v -20.48 -2.56 0
v -19.84 -2.56 0
v -29.44 -3.2 0
v -30.08 -3.2 0
v -30.08 -2.56 0
v -29.44 -2.56 0
v -30.08 -3.2 0
v -30.72 -3.2 0
v -30.72 -2.56 0
v -30.08 -2.56 0
v -39.68 -3.2 0
v -40.32 -3.2 0
v -40.32 -2.56 0
v -39.68 -2.56 0
v -40.32 -3.2 0
v -40.96 -3.2 0
v -40.96 -2.56 0
v -40.32 -2.56 0
v -49.92 -3.2 0
v -50.56 -3.2 0
v -50.56 -2.56 0
v -49.92 -2.56 0
v -50.56 -3.2 0
v -51.2 -3.2 0
v -51.2 -2.56 0
v -50.56 -2.56 0
v -28.16 -3.84 0
v -28.8 -3.84 0
v -28.8 -3.2 0
v -28.16 -3.2 0
v -28.8 -3.84 0
v -29.44 -3.84 0
v -29.44 -3.2 0
v -28.8 -3.2 0
v -29.44 -3.84 0
v -30.08 -3.84 0
v -30.08 -3.2 0
v -29.44 -3.2 0
v -38.4 -3.84 0
v -39.04 -3.84 0
v -39.04 -3.2 0
v -38.4 -3.2 0
v -39.04 -3.84 0
v -39.68 -3.84 0
v -39.68 -3.2 0
v -39.04 -3.2 0
v -39.68 -3.84 0
v -40.32 -3.84 0
v -40.32 -3.2 0
v -39.68 -3.2 0
v -48.64 -3.84 0
v -49.28 -3.84 0
v -49.28 -3.2 0
v -48.64 -3.2 0
v -49.28 -3.84 0
v -49.92 -3.84 0
v -49.92 -3.2 0
v -49.28 -3.2 0
v -49.92 -3.84 0
v -50.56 -3.84 0
v -50.56 -3.2 0
v -49.92 -3.2 0
v -58.88 -3.84 0
v -59.52 -3.84 0
v -59.52 -3.2 0
v -58.88 -3.2 0
v -59.52 -3.84 0
v -60.16 -3.84 0
v -60.16 -3.2 0
v -59.52 -3.2 0
v -60.16 -3.84 0
v -60.8 -3.84 0
v -60.8 -3.2 0
v -60.16 -3.2 0
v -5.12 -4.48 0
v -5.76 -4.48 0
v -5.76 -3.84 0
v -5.12 -3.84 0
v -5.76 -4.48 0
v -6.4 -4.48 0
v -6.4 -3.84 0
v -5.76 -3.84 0
v -6.4 -4.48 0
v -7.04 -4.48 0
v -7.04 -3.84 0
v -6.4 -3.84 0
v -35.84 -4.48 0
v -36.48 -4.48 0
v -36.48 -3.84 0
v -35.84 -3.84 0
v -36.48 -4.48 0
v -37.12 -4.48 0
v -37.12 -3.84 0
v -36.48 -3.84 0
v -37.12 -4.48 0
v -37.76 -4.48 0
v -37.76 -3.84 0
v -37.12 -3.84 0
v -37.76 -4.48 0
v -38.4 -4.48 0
v -38.4 -3.84 0
v -37.76 -3.84 0
v -46.08 -4.48 0
v -46.72 -4.48 0
v -46.72 -3.84 0
v -46.08 -3.84 0
v -46.72 -4.48 0
v -47.36 -4.48 0
v -47.36 -3.84 0
v -46.72 -3.84 0
v -47.36 -4.48 0
v -48 -4.48 0
v -48 -3.84 0
v -47.36 -3.84 0
v -48 -4.48 0
v -48.64 -4.48 0
v -48.64 -3.84 0
v -48 -3.84 0
v -56.32 -4.48 0
v -56.96 -4.48 0
v -56.96 -3.84 0
v -56.32 -3.84 0
v -56.96 -4.48 0
v -57.6 -4.48 0
v -57.6 -3.84 0
v -56.96 -3.84 0
v -57.6 -4.48 0
v -58.24 -4.48 0
v -58.24 -3.84 0
v -57.6 -3.84 0
v -58.24 -4.48 0
v -58.88 -4.48 0
v -58.88 -3.84 0
v -58.24 -3.84 0
v -2.56 -5.12 0
v -3.2 -5.12 0
v -3.2 -4.48 0
v -2.56 -4.48 0
v -3.2 -5.12 0
v -3.84 -5.12 0
v -3.84 -4.48 0
v -3.2 -4.48 0
v -3.84 -5.12 0
v -4.48 -5.12 0
v -4.48 -4.48 0
v -3.84 -4.48 0
v -4.48 -5.12 0
v -5.12 -5.12 0
v -5.12 -4.48 0
v -4.48 -4.48 0
v -12.8 -5.12 0
v -13.44 -5.12 0
v -13.44 -4.48 0
v -12.8 -4.48 0
v -13.44 -5.12 0
v -14.08 -5.12 0
v -14.08 -4.48 0
v -13.44 -4.48 0
v -14.08 -5.12 0
v -14.72 -5.12 0
v -14.72 -4.48 0
v -14.08 -4.48 0
v -14.72 -5.12 0
v -15.36 -5.12 0
v -15.36 -4.48 0
v -14.72 -4.48 0

# Texture cooridinates (Count = 72)
vt 0.5833333 0.8333333
vt 0.6666667 0.8333333
vt 0.6666667 1
vt 0.5833333 1
vt 0.75 0.8333333
vt 0.75 1
vt 0.8333333 0.8333333
vt 0.8333333 1
vt 0.9166667 0.8333333
vt 0.9166667 1
vt 0.5833333 0.6666666
vt 0.6666667 0.6666666
vt 0.75 0.6666666
vt 0.8333333 0.6666666
vt 0.9166667 0.6666666
vt 0.5833333 0.5
vt 0.6666667 0.5
vt 0.75 0.5
vt 0.8333333 0.5
vt 0.9166667 0.5
vt 0.5833333 0.3333333
vt 0.6666667 0.3333333
vt 0.75 0.3333333
vt 0.8333333 0.3333333
vt 0.9166667 0.3333333
vt 0.5833333 0.1666667
vt 0.6666667 0.1666667
vt 0.75 0.1666667
vt 0.8333333 0.1666667
vt 0.9166667 0.1666667
vt 0 0.8333333
vt 0.08333334 0.8333333
vt 0.08333334 1
vt 0 1
vt 0.1666667 0.8333333
vt 0.1666667 1
vt 0 0.6666666
vt 0.08333334 0.6666666
vt 0.1666667 0.6666666
vt 0 0.5
vt 0.08333334 0.5
vt 0.1666667 0.5
vt 0 0.3333333
vt 0.08333334 0.3333333
vt 0.1666667 0.3333333
vt 0 0.1666667
vt 0.08333334 0.1666667
vt 0.1666667 0.1666667
vt 0.25 0.8333333
vt 0.25 1
vt 0.3333333 0.8333333
vt 0.3333333 1
vt 0.4166667 0.8333333
vt 0.4166667 1
vt 0.5 0.8333333
vt 0.5 1
vt 0.25 0.6666666
vt 0.3333333 0.6666666
vt 0.4166667 0.6666666
vt 0.5 0.6666666
vt 0.25 0.5
vt 0.3333333 0.5
vt 0.4166667 0.5
vt 0.5 0.5
vt 0.25 0.3333333
vt 0.3333333 0.3333333
vt 0.4166667 0.3333333
vt 0.5 0.3333333
vt 0.25 0.1666667
vt 0.3333333 0.1666667
vt 0.4166667 0.1666667
vt 0.5 0.1666667

# Normal
vn 0 0 -1

# Mesh description
g NewBadManor_mesh_0046

# Faces
f 1/1/1 2/2/1 3/3/1 4/4/1
f 5/2/1 6/5/1 7/6/1 8/3/1
f 9/5/1 10/7/1 11/8/1 12/6/1
f 13/7/1 14/9/1 15/10/1 16/8/1
f 17/11/1 18/12/1 19/2/1 20/1/1
f 21/12/1 22/13/1 23/5/1 24/2/1
f 25/13/1 26/14/1 27/7/1 28/5/1
f 29/14/1 30/15/1 31/9/1 32/7/1
f 33/16/1 34/17/1 35/12/1 36/11/1
f 37/17/1 38/18/1 39/13/1 40/12/1
f 41/18/1 42/19/1 43/14/1 44/13/1
f 45/19/1 46/20/1 47/15/1 48/14/1
f 49/21/1 50/22/1 51/17/1 52/16/1
f 53/22/1 54/23/1 55/18/1 56/17/1
f 57/23/1 58/24/1 59/19/1 60/18/1
f 61/24/1 62/25/1 63/20/1 64/19/1
f 65/26/1 66/27/1 67/22/1 68/21/1
f 69/27/1 70/28/1 71/23/1 72/22/1
f 73/28/1 74/29/1 75/24/1 76/23/1
f 77/29/1 78/30/1 79/25/1 80/24/1
f 81/1/1 82/2/1 83/3/1 84/4/1
f 85/2/1 86/5/1 87/6/1 88/3/1
f 89/5/1 90/7/1 91/8/1 92/6/1
f 93/7/1 94/9/1 95/10/1 96/8/1
f 97/11/1 98/12/1 99/2/1 100/1/1
f 101/12/1 102/13/1 103/5/1 104/2/1
f 105/13/1 106/14/1 107/7/1 108/5/1
f 109/14/1 110/15/1 111/9/1 112/7/1
f 113/16/1 114/17/1 115/12/1 116/11/1
f 117/17/1 118/18/1 119/13/1 120/12/1
f 121/18/1 122/19/1 123/14/1 124/13/1
f 125/19/1 126/20/1 127/15/1 128/14/1
f 129/21/1 130/22/1 131/17/1 132/16/1
f 133/22/1 134/23/1 135/18/1 136/17/1
f 137/23/1 138/24/1 139/19/1 140/18/1
f 141/24/1 142/25/1 143/20/1 144/19/1
f 145/26/1 146/27/1 147/22/1 148/21/1
f 149/27/1 150/28/1 151/23/1 152/22/1
f 153/28/1 154/29/1 155/24/1 156/23/1
f 157/29/1 158/30/1 159/25/1 160/24/1
f 161/1/1 162/2/1 163/3/1 164/4/1
f 165/11/1 166/12/1 167/2/1 168/1/1
f 169/16/1 170/17/1 171/12/1 172/11/1
f 173/21/1 174/22/1 175/17/1 176/16/1
f 177/26/1 178/27/1 179/22/1 180/21/1
f 181/31/1 182/32/1 183/33/1 184/34/1
f 185/32/1 186/35/1 187/36/1 188/33/1
f 189/37/1 190/38/1 191/32/1 192/31/1
f 193/38/1 194/39/1 195/35/1 196/32/1
f 197/40/1 198/41/1 199/38/1 200/37/1
f 201/41/1 202/42/1 203/39/1 204/38/1
f 205/43/1 206/44/1 207/41/1 208/40/1
f 209/44/1 210/45/1 211/42/1 212/41/1
f 213/46/1 214/47/1 215/44/1 216/43/1
f 217/47/1 218/48/1 219/45/1 220/44/1
f 221/2/1 222/5/1 223/6/1 224/3/1
f 225/5/1 226/7/1 227/8/1 228/6/1
f 229/7/1 230/9/1 231/10/1 232/8/1
f 233/12/1 234/13/1 235/5/1 236/2/1
f 237/13/1 238/14/1 239/7/1 240/5/1
f 241/14/1 242/15/1 243/9/1 244/7/1
f 245/17/1 246/18/1 247/13/1 248/12/1
f 249/18/1 250/19/1 251/14/1 252/13/1
f 253/19/1 254/20/1 255/15/1 256/14/1
f 257/22/1 258/23/1 259/18/1 260/17/1
f 261/23/1 262/24/1 263/19/1 264/18/1
f 265/24/1 266/25/1 267/20/1 268/19/1
f 269/27/1 270/28/1 271/23/1 272/22/1
f 273/28/1 274/29/1 275/24/1 276/23/1
f 277/29/1 278/30/1 279/25/1 280/24/1
f 281/35/1 282/49/1 283/50/1 284/36/1
f 285/49/1 286/51/1 287/52/1 288/50/1
f 289/51/1 290/53/1 291/54/1 292/52/1
f 293/53/1 294/55/1 295/56/1 296/54/1
f 297/39/1 298/57/1 299/49/1 300/35/1
f 301/57/1 302/58/1 303/51/1 304/49/1
f 305/58/1 306/59/1 307/53/1 308/51/1
f 309/59/1 310/60/1 311/55/1 312/53/1
f 313/42/1 314/61/1 315/57/1 316/39/1
f 317/61/1 318/62/1 319/58/1 320/57/1
f 321/62/1 322/63/1 323/59/1 324/58/1
f 325/63/1 326/64/1 327/60/1 328/59/1
f 329/45/1 330/65/1 331/61/1 332/42/1
f 333/65/1 334/66/1 335/62/1 336/61/1
f 337/66/1 338/67/1 339/63/1 340/62/1
f 341/67/1 342/68/1 343/64/1 344/63/1
f 345/48/1 346/69/1 347/65/1 348/45/1
f 349/69/1 350/70/1 351/66/1 352/65/1
f 353/70/1 354/71/1 355/67/1 356/66/1
f 357/71/1 358/72/1 359/68/1 360/67/1

