# Tiled2Unity generated file. Do not modify by hand.
# Wavefront file for 'NewBadManor_mesh_0077.obj'

# Vertices (Count = 360)
v -46.08 -1.28 0
v -46.72 -1.28 0
v -46.72 -0.64 0
v -46.08 -0.64 0
v -46.72 -1.28 0
v -47.36 -1.28 0
v -47.36 -0.64 0
v -46.72 -0.64 0
v -47.36 -1.28 0
v -48 -1.28 0
v -48 -0.64 0
v -47.36 -0.64 0
v -48 -1.28 0
v -48.64 -1.28 0
v -48.64 -0.64 0
v -48 -0.64 0
v -56.32 -1.28 0
v -56.96 -1.28 0
v -56.96 -0.64 0
v -56.32 -0.64 0
v -56.96 -1.28 0
v -57.6 -1.28 0
v -57.6 -0.64 0
v -56.96 -0.64 0
v -57.6 -1.28 0
v -58.24 -1.28 0
v -58.24 -0.64 0
v -57.6 -0.64 0
v -58.24 -1.28 0
v -58.88 -1.28 0
v -58.88 -0.64 0
v -58.24 -0.64 0
v -2.56 -1.92 0
v -3.2 -1.92 0
v -3.2 -1.28 0
v -2.56 -1.28 0
v -3.2 -1.92 0
v -3.84 -1.92 0
v -3.84 -1.28 0
v -3.2 -1.28 0
v -3.84 -1.92 0
v -4.48 -1.92 0
v -4.48 -1.28 0
v -3.84 -1.28 0
v -4.48 -1.92 0
v -5.12 -1.92 0
v -5.12 -1.28 0
v -4.48 -1.28 0
v -12.8 -1.92 0
v -13.44 -1.92 0
v -13.44 -1.28 0
v -12.8 -1.28 0
v -13.44 -1.92 0
v -14.08 -1.92 0
v -14.08 -1.28 0
v -13.44 -1.28 0
v -14.08 -1.92 0
v -14.72 -1.92 0
v -14.72 -1.28 0
v -14.08 -1.28 0
v -14.72 -1.92 0
v -15.36 -1.92 0
v -15.36 -1.28 0
v -14.72 -1.28 0
v -23.04 -1.92 0
v -23.68 -1.92 0
v -23.68 -1.28 0
v -23.04 -1.28 0
v -23.68 -1.92 0
v -24.32 -1.92 0
v -24.32 -1.28 0
v -23.68 -1.28 0
v -24.32 -1.92 0
v -24.96 -1.92 0
v -24.96 -1.28 0
v -24.32 -1.28 0
v -24.96 -1.92 0
v -25.6 -1.92 0
v -25.6 -1.28 0
v -24.96 -1.28 0
v -33.28 -1.92 0
v -33.92 -1.92 0
v -33.92 -1.28 0
v -33.28 -1.28 0
v -33.92 -1.92 0
v -34.56 -1.92 0
v -34.56 -1.28 0
v -33.92 -1.28 0
v -34.56 -1.92 0
v -35.2 -1.92 0
v -35.2 -1.28 0
v -34.56 -1.28 0
v -35.2 -1.92 0
v -35.84 -1.92 0
v -35.84 -1.28 0
v -35.2 -1.28 0
v -10.24 -3.2 0
v -10.88 -3.2 0
v -10.88 -2.56 0
v -10.24 -2.56 0
v -10.88 -3.2 0
v -11.52 -3.2 0
v -11.52 -2.56 0
v -10.88 -2.56 0
v -20.48 -3.2 0
v -21.12 -3.2 0
v -21.12 -2.56 0
v -20.48 -2.56 0
v -21.12 -3.2 0
v -21.76 -3.2 0
v -21.76 -2.56 0
v -21.12 -2.56 0
v -30.72 -3.2 0
v -31.36 -3.2 0
v -31.36 -2.56 0
v -30.72 -2.56 0
v -31.36 -3.2 0
v -32 -3.2 0
v -32 -2.56 0
v -31.36 -2.56 0
v -40.96 -3.2 0
v -41.6 -3.2 0
v -41.6 -2.56 0
v -40.96 -2.56 0
v -41.6 -3.2 0
v -42.24 -3.2 0
v -42.24 -2.56 0
v -41.6 -2.56 0
v -51.2 -3.2 0
v -51.84 -3.2 0
v -51.84 -2.56 0
v -51.2 -2.56 0
v -51.84 -3.2 0
v -52.48 -3.2 0
v -52.48 -2.56 0
v -51.84 -2.56 0
v -61.44 -3.2 0
v -62.08 -3.2 0
v -62.08 -2.56 0
v -61.44 -2.56 0
v -62.08 -3.2 0
v -62.72 -3.2 0
v -62.72 -2.56 0
v -62.08 -2.56 0
v -15.36 -3.84 0
v -16 -3.84 0
v -16 -3.2 0
v -15.36 -3.2 0
v -16 -3.84 0
v -16.64 -3.84 0
v -16.64 -3.2 0
v -16 -3.2 0
v -16.64 -3.84 0
v -17.28 -3.84 0
v -17.28 -3.2 0
v -16.64 -3.2 0
v -17.28 -3.84 0
v -17.92 -3.84 0
v -17.92 -3.2 0
v -17.28 -3.2 0
v -25.6 -3.84 0
v -26.24 -3.84 0
v -26.24 -3.2 0
v -25.6 -3.2 0
v -26.24 -3.84 0
v -26.88 -3.84 0
v -26.88 -3.2 0
v -26.24 -3.2 0
v -26.88 -3.84 0
v -27.52 -3.84 0
v -27.52 -3.2 0
v -26.88 -3.2 0
v -27.52 -3.84 0
v -28.16 -3.84 0
v -28.16 -3.2 0
v -27.52 -3.2 0
v -35.84 -3.84 0
v -36.48 -3.84 0
v -36.48 -3.2 0
v -35.84 -3.2 0
v -36.48 -3.84 0
v -37.12 -3.84 0
v -37.12 -3.2 0
v -36.48 -3.2 0
v -37.12 -3.84 0
v -37.76 -3.84 0
v -37.76 -3.2 0
v -37.12 -3.2 0
v -37.76 -3.84 0
v -38.4 -3.84 0
v -38.4 -3.2 0
v -37.76 -3.2 0
v -46.08 -3.84 0
v -46.72 -3.84 0
v -46.72 -3.2 0
v -46.08 -3.2 0
v -46.72 -3.84 0
v -47.36 -3.84 0
v -47.36 -3.2 0
v -46.72 -3.2 0
v -47.36 -3.84 0
v -48 -3.84 0
v -48 -3.2 0
v -47.36 -3.2 0
v -48 -3.84 0
v -48.64 -3.84 0
v -48.64 -3.2 0
v -48 -3.2 0
v -56.32 -3.84 0
v -56.96 -3.84 0
v -56.96 -3.2 0
v -56.32 -3.2 0
v -56.96 -3.84 0
v -57.6 -3.84 0
v -57.6 -3.2 0
v -56.96 -3.2 0
v -57.6 -3.84 0
v -58.24 -3.84 0
v -58.24 -3.2 0
v -57.6 -3.2 0
v -58.24 -3.84 0
v -58.88 -3.84 0
v -58.88 -3.2 0
v -58.24 -3.2 0
v -2.56 -4.48 0
v -3.2 -4.48 0
v -3.2 -3.84 0
v -2.56 -3.84 0
v -3.2 -4.48 0
v -3.84 -4.48 0
v -3.84 -3.84 0
v -3.2 -3.84 0
v -3.84 -4.48 0
v -4.48 -4.48 0
v -4.48 -3.84 0
v -3.84 -3.84 0
v -4.48 -4.48 0
v -5.12 -4.48 0
v -5.12 -3.84 0
v -4.48 -3.84 0
v -12.8 -4.48 0
v -13.44 -4.48 0
v -13.44 -3.84 0
v -12.8 -3.84 0
v -13.44 -4.48 0
v -14.08 -4.48 0
v -14.08 -3.84 0
v -13.44 -3.84 0
v -14.08 -4.48 0
v -14.72 -4.48 0
v -14.72 -3.84 0
v -14.08 -3.84 0
v -14.72 -4.48 0
v -15.36 -4.48 0
v -15.36 -3.84 0
v -14.72 -3.84 0
v -23.04 -4.48 0
v -23.68 -4.48 0
v -23.68 -3.84 0
v -23.04 -3.84 0
v -23.68 -4.48 0
v -24.32 -4.48 0
v -24.32 -3.84 0
v -23.68 -3.84 0
v -24.32 -4.48 0
v -24.96 -4.48 0
v -24.96 -3.84 0
v -24.32 -3.84 0
v -24.96 -4.48 0
v -25.6 -4.48 0
v -25.6 -3.84 0
v -24.96 -3.84 0
v -33.28 -4.48 0
v -33.92 -4.48 0
v -33.92 -3.84 0
v -33.28 -3.84 0
v -33.92 -4.48 0
v -34.56 -4.48 0
v -34.56 -3.84 0
v -33.92 -3.84 0
v -34.56 -4.48 0
v -35.2 -4.48 0
v -35.2 -3.84 0
v -34.56 -3.84 0
v -35.2 -4.48 0
v -35.84 -4.48 0
v -35.84 -3.84 0
v -35.2 -3.84 0
v -43.52 -5.12 0
v -44.16 -5.12 0
v -44.16 -4.48 0
v -43.52 -4.48 0
v -44.16 -5.12 0
v -44.8 -5.12 0
v -44.8 -4.48 0
v -44.16 -4.48 0
v -53.76 -5.12 0
v -54.4 -5.12 0
v -54.4 -4.48 0
v -53.76 -4.48 0
v -54.4 -5.12 0
v -55.04 -5.12 0
v -55.04 -4.48 0
v -54.4 -4.48 0
v 0 -5.76 0
v -0.64 -5.76 0
v -0.64 -5.12 0
v 0 -5.12 0
v -0.64 -5.76 0
v -1.28 -5.76 0
v -1.28 -5.12 0
v -0.64 -5.12 0
v -10.24 -5.76 0
v -10.88 -5.76 0
v -10.88 -5.12 0
v -10.24 -5.12 0
v -10.88 -5.76 0
v -11.52 -5.76 0
v -11.52 -5.12 0
v -10.88 -5.12 0
v -20.48 -5.76 0
v -21.12 -5.76 0
v -21.12 -5.12 0
v -20.48 -5.12 0
v -21.12 -5.76 0
v -21.76 -5.76 0
v -21.76 -5.12 0
v -21.12 -5.12 0
v -30.72 -5.76 0
v -31.36 -5.76 0
v -31.36 -5.12 0
v -30.72 -5.12 0
v -31.36 -5.76 0
v -32 -5.76 0
v -32 -5.12 0
v -31.36 -5.12 0
v -40.96 -5.76 0
v -41.6 -5.76 0
v -41.6 -5.12 0
v -40.96 -5.12 0
v -41.6 -5.76 0
v -42.24 -5.76 0
v -42.24 -5.12 0
v -41.6 -5.12 0
v -51.2 -5.76 0
v -51.84 -5.76 0
v -51.84 -5.12 0
v -51.2 -5.12 0
v -51.84 -5.76 0
v -52.48 -5.76 0
v -52.48 -5.12 0
v -51.84 -5.12 0
v -61.44 -5.76 0
v -62.08 -5.76 0
v -62.08 -5.12 0
v -61.44 -5.12 0
v -62.08 -5.76 0
v -62.72 -5.76 0
v -62.72 -5.12 0
v -62.08 -5.12 0

# Texture cooridinates (Count = 49)
vt 0 0.96875
vt 0.03125 0.96875
vt 0.03125 1
vt 0 1
vt 0.0625 0.96875
vt 0.0625 1
vt 0.09375 0.96875
vt 0.09375 1
vt 0.125 0.96875
vt 0.125 1
vt 0 0.9375
vt 0.03125 0.9375
vt 0.0625 0.9375
vt 0.09375 0.9375
vt 0.125 0.9375
vt 0 0.90625
vt 0.03125 0.90625
vt 0.0625 0.90625
vt 0.09375 0.90625
vt 0.125 0.90625
vt 0 0.875
vt 0.03125 0.875
vt 0.0625 0.875
vt 0.09375 0.875
vt 0.125 0.875
vt 0.15625 0.96875
vt 0.15625 1
vt 0.1875 0.96875
vt 0.1875 1
vt 0.15625 0.9375
vt 0.1875 0.9375
vt 0.15625 0.90625
vt 0.1875 0.90625
vt 0.15625 0.875
vt 0.1875 0.875
vt 0 0.84375
vt 0.03125 0.84375
vt 0.0625 0.84375
vt 0.09375 0.84375
vt 0.125 0.84375
vt 0 0.8125
vt 0.03125 0.8125
vt 0.0625 0.8125
vt 0.09375 0.8125
vt 0.125 0.8125
vt 0.15625 0.84375
vt 0.1875 0.84375
vt 0.15625 0.8125
vt 0.1875 0.8125

# Normal
vn 0 0 -1

# Mesh description
g NewBadManor_mesh_0077

# Faces
f 1/1/1 2/2/1 3/3/1 4/4/1
f 5/2/1 6/5/1 7/6/1 8/3/1
f 9/5/1 10/7/1 11/8/1 12/6/1
f 13/7/1 14/9/1 15/10/1 16/8/1
f 17/11/1 18/12/1 19/2/1 20/1/1
f 21/12/1 22/13/1 23/5/1 24/2/1
f 25/13/1 26/14/1 27/7/1 28/5/1
f 29/14/1 30/15/1 31/9/1 32/7/1
f 33/16/1 34/17/1 35/12/1 36/11/1
f 37/17/1 38/18/1 39/13/1 40/12/1
f 41/18/1 42/19/1 43/14/1 44/13/1
f 45/19/1 46/20/1 47/15/1 48/14/1
f 49/21/1 50/22/1 51/17/1 52/16/1
f 53/22/1 54/23/1 55/18/1 56/17/1
f 57/23/1 58/24/1 59/19/1 60/18/1
f 61/24/1 62/25/1 63/20/1 64/19/1
f 65/16/1 66/17/1 67/12/1 68/11/1
f 69/17/1 70/18/1 71/13/1 72/12/1
f 73/18/1 74/19/1 75/14/1 76/13/1
f 77/19/1 78/20/1 79/15/1 80/14/1
f 81/16/1 82/17/1 83/12/1 84/11/1
f 85/17/1 86/18/1 87/13/1 88/12/1
f 89/18/1 90/19/1 91/14/1 92/13/1
f 93/19/1 94/20/1 95/15/1 96/14/1
f 97/9/1 98/26/1 99/27/1 100/10/1
f 101/26/1 102/28/1 103/29/1 104/27/1
f 105/15/1 106/30/1 107/26/1 108/9/1
f 109/30/1 110/31/1 111/28/1 112/26/1
f 113/20/1 114/32/1 115/30/1 116/15/1
f 117/32/1 118/33/1 119/31/1 120/30/1
f 121/25/1 122/34/1 123/32/1 124/20/1
f 125/34/1 126/35/1 127/33/1 128/32/1
f 129/20/1 130/32/1 131/30/1 132/15/1
f 133/32/1 134/33/1 135/31/1 136/30/1
f 137/20/1 138/32/1 139/30/1 140/15/1
f 141/32/1 142/33/1 143/31/1 144/30/1
f 145/16/1 146/17/1 147/12/1 148/11/1
f 149/17/1 150/18/1 151/13/1 152/12/1
f 153/18/1 154/19/1 155/14/1 156/13/1
f 157/19/1 158/20/1 159/15/1 160/14/1
f 161/16/1 162/17/1 163/12/1 164/11/1
f 165/17/1 166/18/1 167/13/1 168/12/1
f 169/18/1 170/19/1 171/14/1 172/13/1
f 173/19/1 174/20/1 175/15/1 176/14/1
f 177/16/1 178/17/1 179/12/1 180/11/1
f 181/17/1 182/18/1 183/13/1 184/12/1
f 185/18/1 186/19/1 187/14/1 188/13/1
f 189/19/1 190/20/1 191/15/1 192/14/1
f 193/16/1 194/17/1 195/12/1 196/11/1
f 197/17/1 198/18/1 199/13/1 200/12/1
f 201/18/1 202/19/1 203/14/1 204/13/1
f 205/19/1 206/20/1 207/15/1 208/14/1
f 209/16/1 210/17/1 211/12/1 212/11/1
f 213/17/1 214/18/1 215/13/1 216/12/1
f 217/18/1 218/19/1 219/14/1 220/13/1
f 221/19/1 222/20/1 223/15/1 224/14/1
f 225/16/1 226/17/1 227/12/1 228/11/1
f 229/17/1 230/18/1 231/13/1 232/12/1
f 233/18/1 234/19/1 235/14/1 236/13/1
f 237/19/1 238/20/1 239/15/1 240/14/1
f 241/21/1 242/22/1 243/17/1 244/16/1
f 245/22/1 246/23/1 247/18/1 248/17/1
f 249/23/1 250/24/1 251/19/1 252/18/1
f 253/24/1 254/25/1 255/20/1 256/19/1
f 257/36/1 258/37/1 259/22/1 260/21/1
f 261/37/1 262/38/1 263/23/1 264/22/1
f 265/38/1 266/39/1 267/24/1 268/23/1
f 269/39/1 270/40/1 271/25/1 272/24/1
f 273/41/1 274/42/1 275/37/1 276/36/1
f 277/42/1 278/43/1 279/38/1 280/37/1
f 281/43/1 282/44/1 283/39/1 284/38/1
f 285/44/1 286/45/1 287/40/1 288/39/1
f 289/20/1 290/32/1 291/30/1 292/15/1
f 293/32/1 294/33/1 295/31/1 296/30/1
f 297/20/1 298/32/1 299/30/1 300/15/1
f 301/32/1 302/33/1 303/31/1 304/30/1
f 305/20/1 306/32/1 307/30/1 308/15/1
f 309/32/1 310/33/1 311/31/1 312/30/1
f 313/20/1 314/32/1 315/30/1 316/15/1
f 317/32/1 318/33/1 319/31/1 320/30/1
f 321/20/1 322/32/1 323/30/1 324/15/1
f 325/32/1 326/33/1 327/31/1 328/30/1
f 329/20/1 330/32/1 331/30/1 332/15/1
f 333/32/1 334/33/1 335/31/1 336/30/1
f 337/25/1 338/34/1 339/32/1 340/20/1
f 341/34/1 342/35/1 343/33/1 344/32/1
f 345/40/1 346/46/1 347/34/1 348/25/1
f 349/46/1 350/47/1 351/35/1 352/34/1
f 353/45/1 354/48/1 355/46/1 356/40/1
f 357/48/1 358/49/1 359/47/1 360/46/1

