# Tiled2Unity generated file. Do not modify by hand.
# Wavefront file for 'NewBadManor_mesh_0019.obj'

# Vertices (Count = 288)
v -30.72 -1.92 0
v -31.36 -1.92 0
v -31.36 -1.28 0
v -30.72 -1.28 0
v -31.36 -1.92 0
v -32 -1.92 0
v -32 -1.28 0
v -31.36 -1.28 0
v -33.28 -1.92 0
v -33.92 -1.92 0
v -33.92 -1.28 0
v -33.28 -1.28 0
v -33.92 -1.92 0
v -34.56 -1.92 0
v -34.56 -1.28 0
v -33.92 -1.28 0
v -2.56 -3.84 0
v -3.2 -3.84 0
v -3.2 -3.2 0
v -2.56 -3.2 0
v -3.2 -3.84 0
v -3.84 -3.84 0
v -3.84 -3.2 0
v -3.2 -3.2 0
v -5.12 -3.84 0
v -5.76 -3.84 0
v -5.76 -3.2 0
v -5.12 -3.2 0
v -5.76 -3.84 0
v -6.4 -3.84 0
v -6.4 -3.2 0
v -5.76 -3.2 0
v -12.8 -3.84 0
v -13.44 -3.84 0
v -13.44 -3.2 0
v -12.8 -3.2 0
v -13.44 -3.84 0
v -14.08 -3.84 0
v -14.08 -3.2 0
v -13.44 -3.2 0
v -15.36 -3.84 0
v -16 -3.84 0
v -16 -3.2 0
v -15.36 -3.2 0
v -16 -3.84 0
v -16.64 -3.84 0
v -16.64 -3.2 0
v -16 -3.2 0
v -23.04 -3.84 0
v -23.68 -3.84 0
v -23.68 -3.2 0
v -23.04 -3.2 0
v -23.68 -3.84 0
v -24.32 -3.84 0
v -24.32 -3.2 0
v -23.68 -3.2 0
v -25.6 -3.84 0
v -26.24 -3.84 0
v -26.24 -3.2 0
v -25.6 -3.2 0
v -26.24 -3.84 0
v -26.88 -3.84 0
v -26.88 -3.2 0
v -26.24 -3.2 0
v -10.24 -4.48 0
v -10.88 -4.48 0
v -10.88 -3.84 0
v -10.24 -3.84 0
v -10.88 -4.48 0
v -11.52 -4.48 0
v -11.52 -3.84 0
v -10.88 -3.84 0
v -12.8 -4.48 0
v -13.44 -4.48 0
v -13.44 -3.84 0
v -12.8 -3.84 0
v -13.44 -4.48 0
v -14.08 -4.48 0
v -14.08 -3.84 0
v -13.44 -3.84 0
v -20.48 -4.48 0
v -21.12 -4.48 0
v -21.12 -3.84 0
v -20.48 -3.84 0
v -21.12 -4.48 0
v -21.76 -4.48 0
v -21.76 -3.84 0
v -21.12 -3.84 0
v -23.04 -4.48 0
v -23.68 -4.48 0
v -23.68 -3.84 0
v -23.04 -3.84 0
v -23.68 -4.48 0
v -24.32 -4.48 0
v -24.32 -3.84 0
v -23.68 -3.84 0
v -30.72 -4.48 0
v -31.36 -4.48 0
v -31.36 -3.84 0
v -30.72 -3.84 0
v -31.36 -4.48 0
v -32 -4.48 0
v -32 -3.84 0
v -31.36 -3.84 0
v -33.28 -4.48 0
v -33.92 -4.48 0
v -33.92 -3.84 0
v -33.28 -3.84 0
v -33.92 -4.48 0
v -34.56 -4.48 0
v -34.56 -3.84 0
v -33.92 -3.84 0
v -17.92 -5.12 0
v -18.56 -5.12 0
v -18.56 -4.48 0
v -17.92 -4.48 0
v -18.56 -5.12 0
v -19.2 -5.12 0
v -19.2 -4.48 0
v -18.56 -4.48 0
v -20.48 -5.12 0
v -21.12 -5.12 0
v -21.12 -4.48 0
v -20.48 -4.48 0
v -21.12 -5.12 0
v -21.76 -5.12 0
v -21.76 -4.48 0
v -21.12 -4.48 0
v -28.16 -5.12 0
v -28.8 -5.12 0
v -28.8 -4.48 0
v -28.16 -4.48 0
v -28.8 -5.12 0
v -29.44 -5.12 0
v -29.44 -4.48 0
v -28.8 -4.48 0
v -30.72 -5.12 0
v -31.36 -5.12 0
v -31.36 -4.48 0
v -30.72 -4.48 0
v -31.36 -5.12 0
v -32 -5.12 0
v -32 -4.48 0
v -31.36 -4.48 0
v -38.4 -5.12 0
v -39.04 -5.12 0
v -39.04 -4.48 0
v -38.4 -4.48 0
v -39.04 -5.12 0
v -39.68 -5.12 0
v -39.68 -4.48 0
v -39.04 -4.48 0
v -40.96 -5.12 0
v -41.6 -5.12 0
v -41.6 -4.48 0
v -40.96 -4.48 0
v -41.6 -5.12 0
v -42.24 -5.12 0
v -42.24 -4.48 0
v -41.6 -4.48 0
v -48.64 -5.12 0
v -49.28 -5.12 0
v -49.28 -4.48 0
v -48.64 -4.48 0
v -49.28 -5.12 0
v -49.92 -5.12 0
v -49.92 -4.48 0
v -49.28 -4.48 0
v -51.2 -5.12 0
v -51.84 -5.12 0
v -51.84 -4.48 0
v -51.2 -4.48 0
v -51.84 -5.12 0
v -52.48 -5.12 0
v -52.48 -4.48 0
v -51.84 -4.48 0
v -58.88 -5.12 0
v -59.52 -5.12 0
v -59.52 -4.48 0
v -58.88 -4.48 0
v -59.52 -5.12 0
v -60.16 -5.12 0
v -60.16 -4.48 0
v -59.52 -4.48 0
v -61.44 -5.12 0
v -62.08 -5.12 0
v -62.08 -4.48 0
v -61.44 -4.48 0
v -62.08 -5.12 0
v -62.72 -5.12 0
v -62.72 -4.48 0
v -62.08 -4.48 0
v -46.08 -5.76 0
v -46.72 -5.76 0
v -46.72 -5.12 0
v -46.08 -5.12 0
v -46.72 -5.76 0
v -47.36 -5.76 0
v -47.36 -5.12 0
v -46.72 -5.12 0
v -48.64 -5.76 0
v -49.28 -5.76 0
v -49.28 -5.12 0
v -48.64 -5.12 0
v -49.28 -5.76 0
v -49.92 -5.76 0
v -49.92 -5.12 0
v -49.28 -5.12 0
v -56.32 -5.76 0
v -56.96 -5.76 0
v -56.96 -5.12 0
v -56.32 -5.12 0
v -56.96 -5.76 0
v -57.6 -5.76 0
v -57.6 -5.12 0
v -56.96 -5.12 0
v -58.88 -5.76 0
v -59.52 -5.76 0
v -59.52 -5.12 0
v -58.88 -5.12 0
v -59.52 -5.76 0
v -60.16 -5.76 0
v -60.16 -5.12 0
v -59.52 -5.12 0
v -2.56 -6.4 0
v -3.2 -6.4 0
v -3.2 -5.76 0
v -2.56 -5.76 0
v -3.2 -6.4 0
v -3.84 -6.4 0
v -3.84 -5.76 0
v -3.2 -5.76 0
v -5.12 -6.4 0
v -5.76 -6.4 0
v -5.76 -5.76 0
v -5.12 -5.76 0
v -5.76 -6.4 0
v -6.4 -6.4 0
v -6.4 -5.76 0
v -5.76 -5.76 0
v -53.76 -6.4 0
v -54.4 -6.4 0
v -54.4 -5.76 0
v -53.76 -5.76 0
v -54.4 -6.4 0
v -55.04 -6.4 0
v -55.04 -5.76 0
v -54.4 -5.76 0
v -56.32 -6.4 0
v -56.96 -6.4 0
v -56.96 -5.76 0
v -56.32 -5.76 0
v -56.96 -6.4 0
v -57.6 -6.4 0
v -57.6 -5.76 0
v -56.96 -5.76 0
v 0 -7.04 0
v -0.64 -7.04 0
v -0.64 -6.4 0
v 0 -6.4 0
v -0.64 -7.04 0
v -1.28 -7.04 0
v -1.28 -6.4 0
v -0.64 -6.4 0
v -2.56 -7.04 0
v -3.2 -7.04 0
v -3.2 -6.4 0
v -2.56 -6.4 0
v -3.2 -7.04 0
v -3.84 -7.04 0
v -3.84 -6.4 0
v -3.2 -6.4 0
v -10.24 -7.04 0
v -10.88 -7.04 0
v -10.88 -6.4 0
v -10.24 -6.4 0
v -10.88 -7.04 0
v -11.52 -7.04 0
v -11.52 -6.4 0
v -10.88 -6.4 0
v -12.8 -7.04 0
v -13.44 -7.04 0
v -13.44 -6.4 0
v -12.8 -6.4 0
v -13.44 -7.04 0
v -14.08 -7.04 0
v -14.08 -6.4 0
v -13.44 -6.4 0

# Texture cooridinates (Count = 12)
vt 0.5454546 0.7
vt 0.5909091 0.7
vt 0.5909091 0.8
vt 0.5454546 0.8
vt 0.6363636 0.7
vt 0.6363636 0.8
vt 0.5454546 0.6
vt 0.5909091 0.6
vt 0.6363636 0.6
vt 0.5454546 0.5
vt 0.5909091 0.5
vt 0.6363636 0.5

# Normal
vn 0 0 -1

# Mesh description
g NewBadManor_mesh_0019

# Faces
f 1/1/1 2/2/1 3/3/1 4/4/1
f 5/2/1 6/5/1 7/6/1 8/3/1
f 9/1/1 10/2/1 11/3/1 12/4/1
f 13/2/1 14/5/1 15/6/1 16/3/1
f 17/1/1 18/2/1 19/3/1 20/4/1
f 21/2/1 22/5/1 23/6/1 24/3/1
f 25/1/1 26/2/1 27/3/1 28/4/1
f 29/2/1 30/5/1 31/6/1 32/3/1
f 33/7/1 34/8/1 35/2/1 36/1/1
f 37/8/1 38/9/1 39/5/1 40/2/1
f 41/7/1 42/8/1 43/2/1 44/1/1
f 45/8/1 46/9/1 47/5/1 48/2/1
f 49/10/1 50/11/1 51/8/1 52/7/1
f 53/11/1 54/12/1 55/9/1 56/8/1
f 57/10/1 58/11/1 59/8/1 60/7/1
f 61/11/1 62/12/1 63/9/1 64/8/1
f 65/1/1 66/2/1 67/3/1 68/4/1
f 69/2/1 70/5/1 71/6/1 72/3/1
f 73/1/1 74/2/1 75/3/1 76/4/1
f 77/2/1 78/5/1 79/6/1 80/3/1
f 81/7/1 82/8/1 83/2/1 84/1/1
f 85/8/1 86/9/1 87/5/1 88/2/1
f 89/7/1 90/8/1 91/2/1 92/1/1
f 93/8/1 94/9/1 95/5/1 96/2/1
f 97/10/1 98/11/1 99/8/1 100/7/1
f 101/11/1 102/12/1 103/9/1 104/8/1
f 105/10/1 106/11/1 107/8/1 108/7/1
f 109/11/1 110/12/1 111/9/1 112/8/1
f 113/1/1 114/2/1 115/3/1 116/4/1
f 117/2/1 118/5/1 119/6/1 120/3/1
f 121/1/1 122/2/1 123/3/1 124/4/1
f 125/2/1 126/5/1 127/6/1 128/3/1
f 129/7/1 130/8/1 131/2/1 132/1/1
f 133/8/1 134/9/1 135/5/1 136/2/1
f 137/7/1 138/8/1 139/2/1 140/1/1
f 141/8/1 142/9/1 143/5/1 144/2/1
f 145/10/1 146/11/1 147/8/1 148/7/1
f 149/11/1 150/12/1 151/9/1 152/8/1
f 153/10/1 154/11/1 155/8/1 156/7/1
f 157/11/1 158/12/1 159/9/1 160/8/1
f 161/7/1 162/8/1 163/2/1 164/1/1
f 165/8/1 166/9/1 167/5/1 168/2/1
f 169/7/1 170/8/1 171/2/1 172/1/1
f 173/8/1 174/9/1 175/5/1 176/2/1
f 177/10/1 178/11/1 179/8/1 180/7/1
f 181/11/1 182/12/1 183/9/1 184/8/1
f 185/10/1 186/11/1 187/8/1 188/7/1
f 189/11/1 190/12/1 191/9/1 192/8/1
f 193/1/1 194/2/1 195/3/1 196/4/1
f 197/2/1 198/5/1 199/6/1 200/3/1
f 201/1/1 202/2/1 203/3/1 204/4/1
f 205/2/1 206/5/1 207/6/1 208/3/1
f 209/7/1 210/8/1 211/2/1 212/1/1
f 213/8/1 214/9/1 215/5/1 216/2/1
f 217/7/1 218/8/1 219/2/1 220/1/1
f 221/8/1 222/9/1 223/5/1 224/2/1
f 225/10/1 226/11/1 227/8/1 228/7/1
f 229/11/1 230/12/1 231/9/1 232/8/1
f 233/10/1 234/11/1 235/8/1 236/7/1
f 237/11/1 238/12/1 239/9/1 240/8/1
f 241/1/1 242/2/1 243/3/1 244/4/1
f 245/2/1 246/5/1 247/6/1 248/3/1
f 249/1/1 250/2/1 251/3/1 252/4/1
f 253/2/1 254/5/1 255/6/1 256/3/1
f 257/7/1 258/8/1 259/2/1 260/1/1
f 261/8/1 262/9/1 263/5/1 264/2/1
f 265/7/1 266/8/1 267/2/1 268/1/1
f 269/8/1 270/9/1 271/5/1 272/2/1
f 273/10/1 274/11/1 275/8/1 276/7/1
f 277/11/1 278/12/1 279/9/1 280/8/1
f 281/10/1 282/11/1 283/8/1 284/7/1
f 285/11/1 286/12/1 287/9/1 288/8/1

