# Tiled2Unity generated file. Do not modify by hand.
# Wavefront file for 'NewBadManor_mesh_0064.obj'

# Vertices (Count = 112)
v -60.16 -5.12 0
v -60.8 -5.12 0
v -60.8 -4.48 0
v -60.16 -4.48 0
v -63.36 -5.12 0
v -64 -5.12 0
v -64 -4.48 0
v -63.36 -4.48 0
v -6.4 -5.76 0
v -7.04 -5.76 0
v -7.04 -5.12 0
v -6.4 -5.12 0
v -9.599999 -5.76 0
v -10.24 -5.76 0
v -10.24 -5.12 0
v -9.599999 -5.12 0
v -16.64 -5.76 0
v -17.28 -5.76 0
v -17.28 -5.12 0
v -16.64 -5.12 0
v -19.84 -5.76 0
v -20.48 -5.76 0
v -20.48 -5.12 0
v -19.84 -5.12 0
v -26.88 -5.76 0
v -27.52 -5.76 0
v -27.52 -5.12 0
v -26.88 -5.12 0
v -30.08 -5.76 0
v -30.72 -5.76 0
v -30.72 -5.12 0
v -30.08 -5.12 0
v -48 -5.76 0
v -48.64 -5.76 0
v -48.64 -5.12 0
v -48 -5.12 0
v -48.64 -5.76 0
v -49.28 -5.76 0
v -49.28 -5.12 0
v -48.64 -5.12 0
v -49.28 -5.76 0
v -49.92 -5.76 0
v -49.92 -5.12 0
v -49.28 -5.12 0
v -49.92 -5.76 0
v -50.56 -5.76 0
v -50.56 -5.12 0
v -49.92 -5.12 0
v -24.32 -6.4 0
v -24.96 -6.4 0
v -24.96 -5.76 0
v -24.32 -5.76 0
v -24.96 -6.4 0
v -25.6 -6.4 0
v -25.6 -5.76 0
v -24.96 -5.76 0
v -25.6 -6.4 0
v -26.24 -6.4 0
v -26.24 -5.76 0
v -25.6 -5.76 0
v -26.24 -6.4 0
v -26.88 -6.4 0
v -26.88 -5.76 0
v -26.24 -5.76 0
v -26.88 -6.4 0
v -27.52 -6.4 0
v -27.52 -5.76 0
v -26.88 -5.76 0
v -27.52 -6.4 0
v -28.16 -6.4 0
v -28.16 -5.76 0
v -27.52 -5.76 0
v -34.56 -6.4 0
v -35.2 -6.4 0
v -35.2 -5.76 0
v -34.56 -5.76 0
v -37.76 -6.4 0
v -38.4 -6.4 0
v -38.4 -5.76 0
v -37.76 -5.76 0
v -44.8 -6.4 0
v -45.44 -6.4 0
v -45.44 -5.76 0
v -44.8 -5.76 0
v -48 -6.4 0
v -48.64 -6.4 0
v -48.64 -5.76 0
v -48 -5.76 0
v -55.04 -6.4 0
v -55.68 -6.4 0
v -55.68 -5.76 0
v -55.04 -5.76 0
v -55.68 -6.4 0
v -56.32 -6.4 0
v -56.32 -5.76 0
v -55.68 -5.76 0
v -56.32 -6.4 0
v -56.96 -6.4 0
v -56.96 -5.76 0
v -56.32 -5.76 0
v -56.96 -6.4 0
v -57.6 -6.4 0
v -57.6 -5.76 0
v -56.96 -5.76 0
v -57.6 -6.4 0
v -58.24 -6.4 0
v -58.24 -5.76 0
v -57.6 -5.76 0
v -58.24 -6.4 0
v -58.88 -6.4 0
v -58.88 -5.76 0
v -58.24 -5.76 0

# Texture cooridinates (Count = 18)
vt 0.2 0.1
vt 0.25 0.1
vt 0.25 0.15
vt 0.2 0.15
vt 0.5 0.55
vt 0.5 0.5
vt 0.55 0.5
vt 0.55 0.55
vt 0.25 0.4
vt 0.2 0.4
vt 0.2 0.35
vt 0.25 0.35
vt 0.15 0.4
vt 0.15 0.35
vt 0.25 0.55
vt 0.2 0.55
vt 0.2 0.5
vt 0.25 0.5

# Normal
vn 0 0 -1

# Mesh description
g NewBadManor_mesh_0064

# Faces
f 1/1/1 2/2/1 3/3/1 4/4/1
f 5/1/1 6/2/1 7/3/1 8/4/1
f 9/1/1 10/2/1 11/3/1 12/4/1
f 13/1/1 14/2/1 15/3/1 16/4/1
f 17/1/1 18/2/1 19/3/1 20/4/1
f 21/1/1 22/2/1 23/3/1 24/4/1
f 25/1/1 26/2/1 27/3/1 28/4/1
f 29/1/1 30/2/1 31/3/1 32/4/1
f 33/5/1 34/6/1 35/7/1 36/8/1
f 37/5/1 38/6/1 39/7/1 40/8/1
f 41/5/1 42/6/1 43/7/1 44/8/1
f 45/5/1 46/6/1 47/7/1 48/8/1
f 49/9/1 50/10/1 51/11/1 52/12/1
f 53/5/1 54/6/1 55/7/1 56/8/1
f 57/5/1 58/6/1 59/7/1 60/8/1
f 61/5/1 62/6/1 63/7/1 64/8/1
f 65/5/1 66/6/1 67/7/1 68/8/1
f 69/10/1 70/13/1 71/14/1 72/11/1
f 73/15/1 74/16/1 75/17/1 76/18/1
f 77/17/1 78/18/1 79/15/1 80/16/1
f 81/15/1 82/16/1 83/17/1 84/18/1
f 85/17/1 86/18/1 87/15/1 88/16/1
f 89/14/1 90/11/1 91/10/1 92/13/1
f 93/7/1 94/8/1 95/5/1 96/6/1
f 97/7/1 98/8/1 99/5/1 100/6/1
f 101/7/1 102/8/1 103/5/1 104/6/1
f 105/7/1 106/8/1 107/5/1 108/6/1
f 109/11/1 110/12/1 111/9/1 112/10/1

