# Tiled2Unity generated file. Do not modify by hand.
# Wavefront file for 'NewBadManor_mesh_0012.obj'

# Vertices (Count = 200)
v -1.92 -0.32 -0.005780347
v -2.24 -0.32 -0.005780347
v -2.24 0 -0.005780347
v -1.92 0 -0.005780347
v -2.24 -0.32 -0.005780347
v -2.56 -0.32 -0.005780347
v -2.56 0 -0.005780347
v -2.24 0 -0.005780347
v 0 -0.64 -0.01156069
v -0.32 -0.64 -0.01156069
v -0.32 -0.32 -0.01156069
v 0 -0.32 -0.01156069
v -0.32 -0.64 -0.01156069
v -0.64 -0.64 -0.01156069
v -0.64 -0.32 -0.01156069
v -0.32 -0.32 -0.01156069
v -0.64 -0.64 -0.01156069
v -0.96 -0.64 -0.01156069
v -0.96 -0.32 -0.01156069
v -0.64 -0.32 -0.01156069
v -0.96 -0.64 -0.01156069
v -1.28 -0.64 -0.01156069
v -1.28 -0.32 -0.01156069
v -0.96 -0.32 -0.01156069
v -1.28 -0.64 -0.01156069
v -1.6 -0.64 -0.01156069
v -1.6 -0.32 -0.01156069
v -1.28 -0.32 -0.01156069
v -1.6 -0.64 -0.01156069
v -1.92 -0.64 -0.01156069
v -1.92 -0.32 -0.01156069
v -1.6 -0.32 -0.01156069
v -1.92 -0.64 -0.01156069
v -2.24 -0.64 -0.01156069
v -2.24 -0.32 -0.01156069
v -1.92 -0.32 -0.01156069
v -2.24 -0.64 -0.01156069
v -2.56 -0.64 -0.01156069
v -2.56 -0.32 -0.01156069
v -2.24 -0.32 -0.01156069
v 0 -0.96 -0.01734104
v -0.32 -0.96 -0.01734104
v -0.32 -0.64 -0.01734104
v 0 -0.64 -0.01734104
v -0.32 -0.96 -0.01734104
v -0.64 -0.96 -0.01734104
v -0.64 -0.64 -0.01734104
v -0.32 -0.64 -0.01734104
v -0.64 -0.96 -0.01734104
v -0.96 -0.96 -0.01734104
v -0.96 -0.64 -0.01734104
v -0.64 -0.64 -0.01734104
v -0.96 -0.96 -0.01734104
v -1.28 -0.96 -0.01734104
v -1.28 -0.64 -0.01734104
v -0.96 -0.64 -0.01734104
v -1.28 -0.96 -0.01734104
v -1.6 -0.96 -0.01734104
v -1.6 -0.64 -0.01734104
v -1.28 -0.64 -0.01734104
v -1.6 -0.96 -0.01734104
v -1.92 -0.96 -0.01734104
v -1.92 -0.64 -0.01734104
v -1.6 -0.64 -0.01734104
v -1.92 -0.96 -0.01734104
v -2.24 -0.96 -0.01734104
v -2.24 -0.64 -0.01734104
v -1.92 -0.64 -0.01734104
v -2.24 -0.96 -0.01734104
v -2.56 -0.96 -0.01734104
v -2.56 -0.64 -0.01734104
v -2.24 -0.64 -0.01734104
v 0 -1.28 -0.02312139
v -0.32 -1.28 -0.02312139
v -0.32 -0.96 -0.02312139
v 0 -0.96 -0.02312139
v -0.32 -1.28 -0.02312139
v -0.64 -1.28 -0.02312139
v -0.64 -0.96 -0.02312139
v -0.32 -0.96 -0.02312139
v -0.64 -1.28 -0.02312139
v -0.96 -1.28 -0.02312139
v -0.96 -0.96 -0.02312139
v -0.64 -0.96 -0.02312139
v -0.96 -1.28 -0.02312139
v -1.28 -1.28 -0.02312139
v -1.28 -0.96 -0.02312139
v -0.96 -0.96 -0.02312139
v -1.28 -1.28 -0.02312139
v -1.6 -1.28 -0.02312139
v -1.6 -0.96 -0.02312139
v -1.28 -0.96 -0.02312139
v -1.6 -1.28 -0.02312139
v -1.92 -1.28 -0.02312139
v -1.92 -0.96 -0.02312139
v -1.6 -0.96 -0.02312139
v -1.92 -1.28 -0.02312139
v -2.24 -1.28 -0.02312139
v -2.24 -0.96 -0.02312139
v -1.92 -0.96 -0.02312139
v -2.24 -1.28 -0.02312139
v -2.56 -1.28 -0.02312139
v -2.56 -0.96 -0.02312139
v -2.24 -0.96 -0.02312139
v -1.92 -1.6 -0.02890173
v -2.24 -1.6 -0.02890173
v -2.24 -1.28 -0.02890173
v -1.92 -1.28 -0.02890173
v -2.24 -1.6 -0.02890173
v -2.56 -1.6 -0.02890173
v -2.56 -1.28 -0.02890173
v -2.24 -1.28 -0.02890173
v -1.92 -1.92 -0.03468208
v -2.24 -1.92 -0.03468208
v -2.24 -1.6 -0.03468208
v -1.92 -1.6 -0.03468208
v -2.24 -1.92 -0.03468208
v -2.56 -1.92 -0.03468208
v -2.56 -1.6 -0.03468208
v -2.24 -1.6 -0.03468208
v -1.92 -2.24 -0.04046243
v -2.24 -2.24 -0.04046243
v -2.24 -1.92 -0.04046243
v -1.92 -1.92 -0.04046243
v -2.24 -2.24 -0.04046243
v -2.56 -2.24 -0.04046243
v -2.56 -1.92 -0.04046243
v -2.24 -1.92 -0.04046243
v -1.92 -2.56 -0.04624277
v -2.24 -2.56 -0.04624277
v -2.24 -2.24 -0.04624277
v -1.92 -2.24 -0.04624277
v -2.24 -2.56 -0.04624277
v -2.56 -2.56 -0.04624277
v -2.56 -2.24 -0.04624277
v -2.24 -2.24 -0.04624277
v -1.92 -2.88 -0.05202312
v -2.24 -2.88 -0.05202312
v -2.24 -2.56 -0.05202312
v -1.92 -2.56 -0.05202312
v -2.24 -2.88 -0.05202312
v -2.56 -2.88 -0.05202312
v -2.56 -2.56 -0.05202312
v -2.24 -2.56 -0.05202312
v -1.92 -3.2 -0.05780347
v -2.24 -3.2 -0.05780347
v -2.24 -2.88 -0.05780347
v -1.92 -2.88 -0.05780347
v -2.24 -3.2 -0.05780347
v -2.56 -3.2 -0.05780347
v -2.56 -2.88 -0.05780347
v -2.24 -2.88 -0.05780347
v -1.92 -3.52 -0.06358381
v -2.24 -3.52 -0.06358381
v -2.24 -3.2 -0.06358381
v -1.92 -3.2 -0.06358381
v -2.24 -3.52 -0.06358381
v -2.56 -3.52 -0.06358381
v -2.56 -3.2 -0.06358381
v -2.24 -3.2 -0.06358381
v -1.92 -3.84 -0.06936416
v -2.24 -3.84 -0.06936416
v -2.24 -3.52 -0.06936416
v -1.92 -3.52 -0.06936416
v -2.24 -3.84 -0.06936416
v -2.56 -3.84 -0.06936416
v -2.56 -3.52 -0.06936416
v -2.24 -3.52 -0.06936416
v -1.92 -4.16 -0.07514451
v -2.24 -4.16 -0.07514451
v -2.24 -3.84 -0.07514451
v -1.92 -3.84 -0.07514451
v -2.24 -4.16 -0.07514451
v -2.56 -4.16 -0.07514451
v -2.56 -3.84 -0.07514451
v -2.24 -3.84 -0.07514451
v -1.92 -4.48 -0.08092485
v -2.24 -4.48 -0.08092485
v -2.24 -4.16 -0.08092485
v -1.92 -4.16 -0.08092485
v -2.24 -4.48 -0.08092485
v -2.56 -4.48 -0.08092485
v -2.56 -4.16 -0.08092485
v -2.24 -4.16 -0.08092485
v -1.92 -4.8 -0.0867052
v -2.24 -4.8 -0.0867052
v -2.24 -4.48 -0.0867052
v -1.92 -4.48 -0.0867052
v -2.24 -4.8 -0.0867052
v -2.56 -4.8 -0.0867052
v -2.56 -4.48 -0.0867052
v -2.24 -4.48 -0.0867052
v -1.92 -5.12 -0.09248555
v -2.24 -5.12 -0.09248555
v -2.24 -4.8 -0.09248555
v -1.92 -4.8 -0.09248555
v -2.24 -5.12 -0.09248555
v -2.56 -5.12 -0.09248555
v -2.56 -4.8 -0.09248555
v -2.24 -4.8 -0.09248555

# Texture cooridinates (Count = 9)
vt 0.1875 0.875
vt 0.21875 0.875
vt 0.21875 0.90625
vt 0.1875 0.90625
vt 0.25 0.875
vt 0.25 0.90625
vt 0.21875 0.9375
vt 0.1875 0.9375
vt 0.25 0.9375

# Normal
vn 0 0 -1

# Mesh description
g NewBadManor_mesh_0012

# Faces
f 1/1/1 2/2/1 3/3/1 4/4/1
f 5/2/1 6/5/1 7/6/1 8/3/1
f 9/4/1 10/3/1 11/7/1 12/8/1
f 13/3/1 14/6/1 15/9/1 16/7/1
f 17/4/1 18/3/1 19/7/1 20/8/1
f 21/3/1 22/6/1 23/9/1 24/7/1
f 25/4/1 26/3/1 27/7/1 28/8/1
f 29/3/1 30/6/1 31/9/1 32/7/1
f 33/4/1 34/3/1 35/7/1 36/8/1
f 37/3/1 38/6/1 39/9/1 40/7/1
f 41/1/1 42/2/1 43/3/1 44/4/1
f 45/2/1 46/5/1 47/6/1 48/3/1
f 49/1/1 50/2/1 51/3/1 52/4/1
f 53/2/1 54/5/1 55/6/1 56/3/1
f 57/1/1 58/2/1 59/3/1 60/4/1
f 61/2/1 62/5/1 63/6/1 64/3/1
f 65/1/1 66/2/1 67/3/1 68/4/1
f 69/2/1 70/5/1 71/6/1 72/3/1
f 73/1/1 74/2/1 75/3/1 76/4/1
f 77/2/1 78/5/1 79/6/1 80/3/1
f 81/1/1 82/2/1 83/3/1 84/4/1
f 85/2/1 86/5/1 87/6/1 88/3/1
f 89/1/1 90/2/1 91/3/1 92/4/1
f 93/2/1 94/5/1 95/6/1 96/3/1
f 97/1/1 98/2/1 99/3/1 100/4/1
f 101/2/1 102/5/1 103/6/1 104/3/1
f 105/4/1 106/3/1 107/7/1 108/8/1
f 109/3/1 110/6/1 111/9/1 112/7/1
f 113/1/1 114/2/1 115/3/1 116/4/1
f 117/2/1 118/5/1 119/6/1 120/3/1
f 121/4/1 122/3/1 123/7/1 124/8/1
f 125/3/1 126/6/1 127/9/1 128/7/1
f 129/1/1 130/2/1 131/3/1 132/4/1
f 133/2/1 134/5/1 135/6/1 136/3/1
f 137/4/1 138/3/1 139/7/1 140/8/1
f 141/3/1 142/6/1 143/9/1 144/7/1
f 145/1/1 146/2/1 147/3/1 148/4/1
f 149/2/1 150/5/1 151/6/1 152/3/1
f 153/4/1 154/3/1 155/7/1 156/8/1
f 157/3/1 158/6/1 159/9/1 160/7/1
f 161/1/1 162/2/1 163/3/1 164/4/1
f 165/2/1 166/5/1 167/6/1 168/3/1
f 169/4/1 170/3/1 171/7/1 172/8/1
f 173/3/1 174/6/1 175/9/1 176/7/1
f 177/1/1 178/2/1 179/3/1 180/4/1
f 181/2/1 182/5/1 183/6/1 184/3/1
f 185/4/1 186/3/1 187/7/1 188/8/1
f 189/3/1 190/6/1 191/9/1 192/7/1
f 193/1/1 194/2/1 195/3/1 196/4/1
f 197/2/1 198/5/1 199/6/1 200/3/1

