# Tiled2Unity generated file. Do not modify by hand.
# Wavefront file for 'NewBadManor_mesh_0236.obj'

# Vertices (Count = 120)
v -2.24 -0.32 -0.005780347
v -2.56 -0.32 -0.005780347
v -2.56 0 -0.005780347
v -2.24 0 -0.005780347
v -2.56 -0.32 -0.005780347
v -2.88 -0.32 -0.005780347
v -2.88 0 -0.005780347
v -2.56 0 -0.005780347
v -2.88 -0.32 -0.005780347
v -3.2 -0.32 -0.005780347
v -3.2 0 -0.005780347
v -2.88 0 -0.005780347
v -2.24 -0.64 -0.01156069
v -2.56 -0.64 -0.01156069
v -2.56 -0.32 -0.01156069
v -2.24 -0.32 -0.01156069
v -2.56 -0.64 -0.01156069
v -2.88 -0.64 -0.01156069
v -2.88 -0.32 -0.01156069
v -2.56 -0.32 -0.01156069
v -2.88 -0.64 -0.01156069
v -3.2 -0.64 -0.01156069
v -3.2 -0.32 -0.01156069
v -2.88 -0.32 -0.01156069
v -2.24 -0.96 -0.01734104
v -2.56 -0.96 -0.01734104
v -2.56 -0.64 -0.01734104
v -2.24 -0.64 -0.01734104
v -2.56 -0.96 -0.01734104
v -2.88 -0.96 -0.01734104
v -2.88 -0.64 -0.01734104
v -2.56 -0.64 -0.01734104
v -2.88 -0.96 -0.01734104
v -3.2 -0.96 -0.01734104
v -3.2 -0.64 -0.01734104
v -2.88 -0.64 -0.01734104
v -2.24 -1.28 -0.02312139
v -2.56 -1.28 -0.02312139
v -2.56 -0.96 -0.02312139
v -2.24 -0.96 -0.02312139
v -2.56 -1.28 -0.02312139
v -2.88 -1.28 -0.02312139
v -2.88 -0.96 -0.02312139
v -2.56 -0.96 -0.02312139
v -2.88 -1.28 -0.02312139
v -3.2 -1.28 -0.02312139
v -3.2 -0.96 -0.02312139
v -2.88 -0.96 -0.02312139
v -2.24 -1.6 -0.02890173
v -2.56 -1.6 -0.02890173
v -2.56 -1.28 -0.02890173
v -2.24 -1.28 -0.02890173
v -2.56 -1.6 -0.02890173
v -2.88 -1.6 -0.02890173
v -2.88 -1.28 -0.02890173
v -2.56 -1.28 -0.02890173
v -2.88 -1.6 -0.02890173
v -3.2 -1.6 -0.02890173
v -3.2 -1.28 -0.02890173
v -2.88 -1.28 -0.02890173
v -3.2 -1.6 -0.02890173
v -3.52 -1.6 -0.02890173
v -3.52 -1.28 -0.02890173
v -3.2 -1.28 -0.02890173
v -3.52 -1.6 -0.02890173
v -3.84 -1.6 -0.02890173
v -3.84 -1.28 -0.02890173
v -3.52 -1.28 -0.02890173
v -3.84 -1.6 -0.02890173
v -4.16 -1.6 -0.02890173
v -4.16 -1.28 -0.02890173
v -3.84 -1.28 -0.02890173
v -4.16 -1.6 -0.02890173
v -4.48 -1.6 -0.02890173
v -4.48 -1.28 -0.02890173
v -4.16 -1.28 -0.02890173
v -4.48 -1.6 -0.02890173
v -4.8 -1.6 -0.02890173
v -4.8 -1.28 -0.02890173
v -4.48 -1.28 -0.02890173
v -4.8 -1.6 -0.02890173
v -5.12 -1.6 -0.02890173
v -5.12 -1.28 -0.02890173
v -4.8 -1.28 -0.02890173
v -2.24 -1.92 -0.03468208
v -2.56 -1.92 -0.03468208
v -2.56 -1.6 -0.03468208
v -2.24 -1.6 -0.03468208
v -2.56 -1.92 -0.03468208
v -2.88 -1.92 -0.03468208
v -2.88 -1.6 -0.03468208
v -2.56 -1.6 -0.03468208
v -2.88 -1.92 -0.03468208
v -3.2 -1.92 -0.03468208
v -3.2 -1.6 -0.03468208
v -2.88 -1.6 -0.03468208
v -3.2 -1.92 -0.03468208
v -3.52 -1.92 -0.03468208
v -3.52 -1.6 -0.03468208
v -3.2 -1.6 -0.03468208
v -3.52 -1.92 -0.03468208
v -3.84 -1.92 -0.03468208
v -3.84 -1.6 -0.03468208
v -3.52 -1.6 -0.03468208
v -3.84 -1.92 -0.03468208
v -4.16 -1.92 -0.03468208
v -4.16 -1.6 -0.03468208
v -3.84 -1.6 -0.03468208
v -4.16 -1.92 -0.03468208
v -4.48 -1.92 -0.03468208
v -4.48 -1.6 -0.03468208
v -4.16 -1.6 -0.03468208
v -4.48 -1.92 -0.03468208
v -4.8 -1.92 -0.03468208
v -4.8 -1.6 -0.03468208
v -4.48 -1.6 -0.03468208
v -4.8 -1.92 -0.03468208
v -5.12 -1.92 -0.03468208
v -5.12 -1.6 -0.03468208
v -4.8 -1.6 -0.03468208

# Texture cooridinates (Count = 23)
vt 0 0.4166667
vt 0.1666667 0.4166667
vt 0.1666667 0.5
vt 0 0.5
vt 0.3333333 0.4166667
vt 0.3333333 0.5
vt 0.5 0.4166667
vt 0.5 0.5
vt 0 0.3333333
vt 0.1666667 0.3333333
vt 0.3333333 0.3333333
vt 0.5 0.3333333
vt 0 0.25
vt 0.1666667 0.25
vt 0.3333333 0.25
vt 0.5 0.25
vt 0.6666667 0.25
vt 0.6666667 0.3333333
vt 0 0.1666667
vt 0.1666667 0.1666667
vt 0.3333333 0.1666667
vt 0.5 0.1666667
vt 0.6666667 0.1666667

# Normal
vn 0 0 -1

# Mesh description
g NewBadManor_mesh_0236

# Faces
f 1/1/1 2/2/1 3/3/1 4/4/1
f 5/2/1 6/5/1 7/6/1 8/3/1
f 9/5/1 10/7/1 11/8/1 12/6/1
f 13/9/1 14/10/1 15/2/1 16/1/1
f 17/10/1 18/11/1 19/5/1 20/2/1
f 21/11/1 22/12/1 23/7/1 24/5/1
f 25/1/1 26/2/1 27/3/1 28/4/1
f 29/2/1 30/5/1 31/6/1 32/3/1
f 33/5/1 34/7/1 35/8/1 36/6/1
f 37/9/1 38/10/1 39/2/1 40/1/1
f 41/10/1 42/11/1 43/5/1 44/2/1
f 45/11/1 46/12/1 47/7/1 48/5/1
f 49/13/1 50/14/1 51/10/1 52/9/1
f 53/14/1 54/15/1 55/11/1 56/10/1
f 57/15/1 58/16/1 59/12/1 60/11/1
f 61/15/1 62/16/1 63/12/1 64/11/1
f 65/16/1 66/17/1 67/18/1 68/12/1
f 69/15/1 70/16/1 71/12/1 72/11/1
f 73/16/1 74/17/1 75/18/1 76/12/1
f 77/15/1 78/16/1 79/12/1 80/11/1
f 81/16/1 82/17/1 83/18/1 84/12/1
f 85/19/1 86/20/1 87/14/1 88/13/1
f 89/20/1 90/21/1 91/15/1 92/14/1
f 93/21/1 94/22/1 95/16/1 96/15/1
f 97/21/1 98/22/1 99/16/1 100/15/1
f 101/22/1 102/23/1 103/17/1 104/16/1
f 105/21/1 106/22/1 107/16/1 108/15/1
f 109/22/1 110/23/1 111/17/1 112/16/1
f 113/21/1 114/22/1 115/16/1 116/15/1
f 117/22/1 118/23/1 119/17/1 120/16/1

