# Tiled2Unity generated file. Do not modify by hand.
# Wavefront file for 'NewBadManor_mesh_0096.obj'

# Vertices (Count = 32)
v -37.12 -1.28 0
v -37.76 -1.28 0
v -37.76 -0.64 0
v -37.12 -0.64 0
v -37.76 -1.28 0
v -38.4 -1.28 0
v -38.4 -0.64 0
v -37.76 -0.64 0
v -47.36 -1.28 0
v -48 -1.28 0
v -48 -0.64 0
v -47.36 -0.64 0
v -48 -1.28 0
v -48.64 -1.28 0
v -48.64 -0.64 0
v -48 -0.64 0
v 0 -3.2 0
v -0.64 -3.2 0
v -0.64 -2.56 0
v 0 -2.56 0
v -0.64 -3.2 0
v -1.28 -3.2 0
v -1.28 -2.56 0
v -0.64 -2.56 0
v -10.24 -3.2 0
v -10.88 -3.2 0
v -10.88 -2.56 0
v -10.24 -2.56 0
v -10.88 -3.2 0
v -11.52 -3.2 0
v -11.52 -2.56 0
v -10.88 -2.56 0

# Texture cooridinates (Count = 9)
vt 0 0.78125
vt 0.03125 0.78125
vt 0.03125 0.8125
vt 0 0.8125
vt 0.0625 0.78125
vt 0.0625 0.8125
vt 0 0.75
vt 0.03125 0.75
vt 0.0625 0.75

# Normal
vn 0 0 -1

# Mesh description
g NewBadManor_mesh_0096

# Faces
f 1/1/1 2/2/1 3/3/1 4/4/1
f 5/2/1 6/5/1 7/6/1 8/3/1
f 9/7/1 10/8/1 11/2/1 12/1/1
f 13/8/1 14/9/1 15/5/1 16/2/1
f 17/1/1 18/2/1 19/3/1 20/4/1
f 21/2/1 22/5/1 23/6/1 24/3/1
f 25/7/1 26/8/1 27/2/1 28/1/1
f 29/8/1 30/9/1 31/5/1 32/2/1

