# Tiled2Unity generated file. Do not modify by hand.
# Wavefront file for 'NewBadManor_mesh_0314.obj'

# Vertices (Count = 128)
v 0 -4.8 -0.0867052
v -0.32 -4.8 -0.0867052
v -0.32 -4.48 -0.0867052
v 0 -4.48 -0.0867052
v -0.32 -4.8 -0.0867052
v -0.64 -4.8 -0.0867052
v -0.64 -4.48 -0.0867052
v -0.32 -4.48 -0.0867052
v -0.64 -4.8 -0.0867052
v -0.96 -4.8 -0.0867052
v -0.96 -4.48 -0.0867052
v -0.64 -4.48 -0.0867052
v -0.96 -4.8 -0.0867052
v -1.28 -4.8 -0.0867052
v -1.28 -4.48 -0.0867052
v -0.96 -4.48 -0.0867052
v -1.28 -4.8 -0.0867052
v -1.6 -4.8 -0.0867052
v -1.6 -4.48 -0.0867052
v -1.28 -4.48 -0.0867052
v -1.6 -4.8 -0.0867052
v -1.92 -4.8 -0.0867052
v -1.92 -4.48 -0.0867052
v -1.6 -4.48 -0.0867052
v -1.92 -4.8 -0.0867052
v -2.24 -4.8 -0.0867052
v -2.24 -4.48 -0.0867052
v -1.92 -4.48 -0.0867052
v -2.24 -4.8 -0.0867052
v -2.56 -4.8 -0.0867052
v -2.56 -4.48 -0.0867052
v -2.24 -4.48 -0.0867052
v -2.56 -4.8 -0.0867052
v -2.88 -4.8 -0.0867052
v -2.88 -4.48 -0.0867052
v -2.56 -4.48 -0.0867052
v -2.88 -4.8 -0.0867052
v -3.2 -4.8 -0.0867052
v -3.2 -4.48 -0.0867052
v -2.88 -4.48 -0.0867052
v -3.2 -4.8 -0.0867052
v -3.52 -4.8 -0.0867052
v -3.52 -4.48 -0.0867052
v -3.2 -4.48 -0.0867052
v -3.52 -4.8 -0.0867052
v -3.84 -4.8 -0.0867052
v -3.84 -4.48 -0.0867052
v -3.52 -4.48 -0.0867052
v -3.84 -4.8 -0.0867052
v -4.16 -4.8 -0.0867052
v -4.16 -4.48 -0.0867052
v -3.84 -4.48 -0.0867052
v -4.16 -4.8 -0.0867052
v -4.48 -4.8 -0.0867052
v -4.48 -4.48 -0.0867052
v -4.16 -4.48 -0.0867052
v -4.48 -4.8 -0.0867052
v -4.8 -4.8 -0.0867052
v -4.8 -4.48 -0.0867052
v -4.48 -4.48 -0.0867052
v -4.8 -4.8 -0.0867052
v -5.12 -4.8 -0.0867052
v -5.12 -4.48 -0.0867052
v -4.8 -4.48 -0.0867052
v 0 -5.12 -0.09248555
v -0.32 -5.12 -0.09248555
v -0.32 -4.8 -0.09248555
v 0 -4.8 -0.09248555
v -0.32 -5.12 -0.09248555
v -0.64 -5.12 -0.09248555
v -0.64 -4.8 -0.09248555
v -0.32 -4.8 -0.09248555
v -0.64 -5.12 -0.09248555
v -0.96 -5.12 -0.09248555
v -0.96 -4.8 -0.09248555
v -0.64 -4.8 -0.09248555
v -0.96 -5.12 -0.09248555
v -1.28 -5.12 -0.09248555
v -1.28 -4.8 -0.09248555
v -0.96 -4.8 -0.09248555
v -1.28 -5.12 -0.09248555
v -1.6 -5.12 -0.09248555
v -1.6 -4.8 -0.09248555
v -1.28 -4.8 -0.09248555
v -1.6 -5.12 -0.09248555
v -1.92 -5.12 -0.09248555
v -1.92 -4.8 -0.09248555
v -1.6 -4.8 -0.09248555
v -1.92 -5.12 -0.09248555
v -2.24 -5.12 -0.09248555
v -2.24 -4.8 -0.09248555
v -1.92 -4.8 -0.09248555
v -2.24 -5.12 -0.09248555
v -2.56 -5.12 -0.09248555
v -2.56 -4.8 -0.09248555
v -2.24 -4.8 -0.09248555
v -2.56 -5.12 -0.09248555
v -2.88 -5.12 -0.09248555
v -2.88 -4.8 -0.09248555
v -2.56 -4.8 -0.09248555
v -2.88 -5.12 -0.09248555
v -3.2 -5.12 -0.09248555
v -3.2 -4.8 -0.09248555
v -2.88 -4.8 -0.09248555
v -3.2 -5.12 -0.09248555
v -3.52 -5.12 -0.09248555
v -3.52 -4.8 -0.09248555
v -3.2 -4.8 -0.09248555
v -3.52 -5.12 -0.09248555
v -3.84 -5.12 -0.09248555
v -3.84 -4.8 -0.09248555
v -3.52 -4.8 -0.09248555
v -3.84 -5.12 -0.09248555
v -4.16 -5.12 -0.09248555
v -4.16 -4.8 -0.09248555
v -3.84 -4.8 -0.09248555
v -4.16 -5.12 -0.09248555
v -4.48 -5.12 -0.09248555
v -4.48 -4.8 -0.09248555
v -4.16 -4.8 -0.09248555
v -4.48 -5.12 -0.09248555
v -4.8 -5.12 -0.09248555
v -4.8 -4.8 -0.09248555
v -4.48 -4.8 -0.09248555
v -4.8 -5.12 -0.09248555
v -5.12 -5.12 -0.09248555
v -5.12 -4.8 -0.09248555
v -4.8 -4.8 -0.09248555

# Texture cooridinates (Count = 9)
vt 0.375 0.46875
vt 0.40625 0.46875
vt 0.40625 0.5
vt 0.375 0.5
vt 0.4375 0.46875
vt 0.4375 0.5
vt 0.375 0.4375
vt 0.40625 0.4375
vt 0.4375 0.4375

# Normal
vn 0 0 -1

# Mesh description
g NewBadManor_mesh_0314

# Faces
f 1/1/1 2/2/1 3/3/1 4/4/1
f 5/2/1 6/5/1 7/6/1 8/3/1
f 9/1/1 10/2/1 11/3/1 12/4/1
f 13/2/1 14/5/1 15/6/1 16/3/1
f 17/1/1 18/2/1 19/3/1 20/4/1
f 21/2/1 22/5/1 23/6/1 24/3/1
f 25/1/1 26/2/1 27/3/1 28/4/1
f 29/2/1 30/5/1 31/6/1 32/3/1
f 33/1/1 34/2/1 35/3/1 36/4/1
f 37/2/1 38/5/1 39/6/1 40/3/1
f 41/1/1 42/2/1 43/3/1 44/4/1
f 45/2/1 46/5/1 47/6/1 48/3/1
f 49/1/1 50/2/1 51/3/1 52/4/1
f 53/2/1 54/5/1 55/6/1 56/3/1
f 57/1/1 58/2/1 59/3/1 60/4/1
f 61/2/1 62/5/1 63/6/1 64/3/1
f 65/7/1 66/8/1 67/2/1 68/1/1
f 69/8/1 70/9/1 71/5/1 72/2/1
f 73/7/1 74/8/1 75/2/1 76/1/1
f 77/8/1 78/9/1 79/5/1 80/2/1
f 81/7/1 82/8/1 83/2/1 84/1/1
f 85/8/1 86/9/1 87/5/1 88/2/1
f 89/7/1 90/8/1 91/2/1 92/1/1
f 93/8/1 94/9/1 95/5/1 96/2/1
f 97/7/1 98/8/1 99/2/1 100/1/1
f 101/8/1 102/9/1 103/5/1 104/2/1
f 105/7/1 106/8/1 107/2/1 108/1/1
f 109/8/1 110/9/1 111/5/1 112/2/1
f 113/7/1 114/8/1 115/2/1 116/1/1
f 117/8/1 118/9/1 119/5/1 120/2/1
f 121/7/1 122/8/1 123/2/1 124/1/1
f 125/8/1 126/9/1 127/5/1 128/2/1

