# Tiled2Unity generated file. Do not modify by hand.
# Wavefront file for 'NewBadManor_mesh_0052.obj'

# Vertices (Count = 488)
v 0 -0.32 -0.005780347
v -0.32 -0.32 -0.005780347
v -0.32 0 -0.005780347
v 0 0 -0.005780347
v -0.32 -0.32 -0.005780347
v -0.64 -0.32 -0.005780347
v -0.64 0 -0.005780347
v -0.32 0 -0.005780347
v -0.64 -0.32 -0.005780347
v -0.96 -0.32 -0.005780347
v -0.96 0 -0.005780347
v -0.64 0 -0.005780347
v -3.52 -0.32 -0.005780347
v -3.84 -0.32 -0.005780347
v -3.84 0 -0.005780347
v -3.52 0 -0.005780347
v -3.84 -0.32 -0.005780347
v -4.16 -0.32 -0.005780347
v -4.16 0 -0.005780347
v -3.84 0 -0.005780347
v 0 -0.64 -0.01156069
v -0.32 -0.64 -0.01156069
v -0.32 -0.32 -0.01156069
v 0 -0.32 -0.01156069
v -0.32 -0.64 -0.01156069
v -0.64 -0.64 -0.01156069
v -0.64 -0.32 -0.01156069
v -0.32 -0.32 -0.01156069
v -0.64 -0.64 -0.01156069
v -0.96 -0.64 -0.01156069
v -0.96 -0.32 -0.01156069
v -0.64 -0.32 -0.01156069
v -3.52 -0.64 -0.01156069
v -3.84 -0.64 -0.01156069
v -3.84 -0.32 -0.01156069
v -3.52 -0.32 -0.01156069
v -3.84 -0.64 -0.01156069
v -4.16 -0.64 -0.01156069
v -4.16 -0.32 -0.01156069
v -3.84 -0.32 -0.01156069
v 0 -0.96 -0.01734104
v -0.32 -0.96 -0.01734104
v -0.32 -0.64 -0.01734104
v 0 -0.64 -0.01734104
v -0.32 -0.96 -0.01734104
v -0.64 -0.96 -0.01734104
v -0.64 -0.64 -0.01734104
v -0.32 -0.64 -0.01734104
v -0.64 -0.96 -0.01734104
v -0.96 -0.96 -0.01734104
v -0.96 -0.64 -0.01734104
v -0.64 -0.64 -0.01734104
v -3.52 -0.96 -0.01734104
v -3.84 -0.96 -0.01734104
v -3.84 -0.64 -0.01734104
v -3.52 -0.64 -0.01734104
v -3.84 -0.96 -0.01734104
v -4.16 -0.96 -0.01734104
v -4.16 -0.64 -0.01734104
v -3.84 -0.64 -0.01734104
v 0 -1.28 -0.02312139
v -0.32 -1.28 -0.02312139
v -0.32 -0.96 -0.02312139
v 0 -0.96 -0.02312139
v -0.32 -1.28 -0.02312139
v -0.64 -1.28 -0.02312139
v -0.64 -0.96 -0.02312139
v -0.32 -0.96 -0.02312139
v -0.64 -1.28 -0.02312139
v -0.96 -1.28 -0.02312139
v -0.96 -0.96 -0.02312139
v -0.64 -0.96 -0.02312139
v -0.96 -1.28 -0.02312139
v -1.28 -1.28 -0.02312139
v -1.28 -0.96 -0.02312139
v -0.96 -0.96 -0.02312139
v -1.28 -1.28 -0.02312139
v -1.6 -1.28 -0.02312139
v -1.6 -0.96 -0.02312139
v -1.28 -0.96 -0.02312139
v -1.6 -1.28 -0.02312139
v -1.92 -1.28 -0.02312139
v -1.92 -0.96 -0.02312139
v -1.6 -0.96 -0.02312139
v -1.92 -1.28 -0.02312139
v -2.24 -1.28 -0.02312139
v -2.24 -0.96 -0.02312139
v -1.92 -0.96 -0.02312139
v -2.24 -1.28 -0.02312139
v -2.56 -1.28 -0.02312139
v -2.56 -0.96 -0.02312139
v -2.24 -0.96 -0.02312139
v -2.56 -1.28 -0.02312139
v -2.88 -1.28 -0.02312139
v -2.88 -0.96 -0.02312139
v -2.56 -0.96 -0.02312139
v -2.88 -1.28 -0.02312139
v -3.2 -1.28 -0.02312139
v -3.2 -0.96 -0.02312139
v -2.88 -0.96 -0.02312139
v -3.2 -1.28 -0.02312139
v -3.52 -1.28 -0.02312139
v -3.52 -0.96 -0.02312139
v -3.2 -0.96 -0.02312139
v -3.52 -1.28 -0.02312139
v -3.84 -1.28 -0.02312139
v -3.84 -0.96 -0.02312139
v -3.52 -0.96 -0.02312139
v -3.84 -1.28 -0.02312139
v -4.16 -1.28 -0.02312139
v -4.16 -0.96 -0.02312139
v -3.84 -0.96 -0.02312139
v 0 -1.6 -0.02890173
v -0.32 -1.6 -0.02890173
v -0.32 -1.28 -0.02890173
v 0 -1.28 -0.02890173
v -0.32 -1.6 -0.02890173
v -0.64 -1.6 -0.02890173
v -0.64 -1.28 -0.02890173
v -0.32 -1.28 -0.02890173
v -0.64 -1.6 -0.02890173
v -0.96 -1.6 -0.02890173
v -0.96 -1.28 -0.02890173
v -0.64 -1.28 -0.02890173
v -0.96 -1.6 -0.02890173
v -1.28 -1.6 -0.02890173
v -1.28 -1.28 -0.02890173
v -0.96 -1.28 -0.02890173
v -1.28 -1.6 -0.02890173
v -1.6 -1.6 -0.02890173
v -1.6 -1.28 -0.02890173
v -1.28 -1.28 -0.02890173
v -1.6 -1.6 -0.02890173
v -1.92 -1.6 -0.02890173
v -1.92 -1.28 -0.02890173
v -1.6 -1.28 -0.02890173
v -1.92 -1.6 -0.02890173
v -2.24 -1.6 -0.02890173
v -2.24 -1.28 -0.02890173
v -1.92 -1.28 -0.02890173
v -2.24 -1.6 -0.02890173
v -2.56 -1.6 -0.02890173
v -2.56 -1.28 -0.02890173
v -2.24 -1.28 -0.02890173
v -2.56 -1.6 -0.02890173
v -2.88 -1.6 -0.02890173
v -2.88 -1.28 -0.02890173
v -2.56 -1.28 -0.02890173
v -2.88 -1.6 -0.02890173
v -3.2 -1.6 -0.02890173
v -3.2 -1.28 -0.02890173
v -2.88 -1.28 -0.02890173
v -3.2 -1.6 -0.02890173
v -3.52 -1.6 -0.02890173
v -3.52 -1.28 -0.02890173
v -3.2 -1.28 -0.02890173
v -3.52 -1.6 -0.02890173
v -3.84 -1.6 -0.02890173
v -3.84 -1.28 -0.02890173
v -3.52 -1.28 -0.02890173
v -3.84 -1.6 -0.02890173
v -4.16 -1.6 -0.02890173
v -4.16 -1.28 -0.02890173
v -3.84 -1.28 -0.02890173
v 0 -1.92 -0.03468208
v -0.32 -1.92 -0.03468208
v -0.32 -1.6 -0.03468208
v 0 -1.6 -0.03468208
v -0.32 -1.92 -0.03468208
v -0.64 -1.92 -0.03468208
v -0.64 -1.6 -0.03468208
v -0.32 -1.6 -0.03468208
v -0.64 -1.92 -0.03468208
v -0.96 -1.92 -0.03468208
v -0.96 -1.6 -0.03468208
v -0.64 -1.6 -0.03468208
v -3.52 -1.92 -0.03468208
v -3.84 -1.92 -0.03468208
v -3.84 -1.6 -0.03468208
v -3.52 -1.6 -0.03468208
v -3.84 -1.92 -0.03468208
v -4.16 -1.92 -0.03468208
v -4.16 -1.6 -0.03468208
v -3.84 -1.6 -0.03468208
v 0 -2.24 -0.04046243
v -0.32 -2.24 -0.04046243
v -0.32 -1.92 -0.04046243
v 0 -1.92 -0.04046243
v -0.32 -2.24 -0.04046243
v -0.64 -2.24 -0.04046243
v -0.64 -1.92 -0.04046243
v -0.32 -1.92 -0.04046243
v -0.64 -2.24 -0.04046243
v -0.96 -2.24 -0.04046243
v -0.96 -1.92 -0.04046243
v -0.64 -1.92 -0.04046243
v -3.52 -2.24 -0.04046243
v -3.84 -2.24 -0.04046243
v -3.84 -1.92 -0.04046243
v -3.52 -1.92 -0.04046243
v -3.84 -2.24 -0.04046243
v -4.16 -2.24 -0.04046243
v -4.16 -1.92 -0.04046243
v -3.84 -1.92 -0.04046243
v 0 -2.56 -0.04624277
v -0.32 -2.56 -0.04624277
v -0.32 -2.24 -0.04624277
v 0 -2.24 -0.04624277
v -0.32 -2.56 -0.04624277
v -0.64 -2.56 -0.04624277
v -0.64 -2.24 -0.04624277
v -0.32 -2.24 -0.04624277
v -0.64 -2.56 -0.04624277
v -0.96 -2.56 -0.04624277
v -0.96 -2.24 -0.04624277
v -0.64 -2.24 -0.04624277
v -3.52 -2.56 -0.04624277
v -3.84 -2.56 -0.04624277
v -3.84 -2.24 -0.04624277
v -3.52 -2.24 -0.04624277
v -3.84 -2.56 -0.04624277
v -4.16 -2.56 -0.04624277
v -4.16 -2.24 -0.04624277
v -3.84 -2.24 -0.04624277
v 0 -2.88 -0.05202312
v -0.32 -2.88 -0.05202312
v -0.32 -2.56 -0.05202312
v 0 -2.56 -0.05202312
v -0.32 -2.88 -0.05202312
v -0.64 -2.88 -0.05202312
v -0.64 -2.56 -0.05202312
v -0.32 -2.56 -0.05202312
v -0.64 -2.88 -0.05202312
v -0.96 -2.88 -0.05202312
v -0.96 -2.56 -0.05202312
v -0.64 -2.56 -0.05202312
v -3.52 -2.88 -0.05202312
v -3.84 -2.88 -0.05202312
v -3.84 -2.56 -0.05202312
v -3.52 -2.56 -0.05202312
v -3.84 -2.88 -0.05202312
v -4.16 -2.88 -0.05202312
v -4.16 -2.56 -0.05202312
v -3.84 -2.56 -0.05202312
v 0 -3.2 -0.05780347
v -0.32 -3.2 -0.05780347
v -0.32 -2.88 -0.05780347
v 0 -2.88 -0.05780347
v -0.32 -3.2 -0.05780347
v -0.64 -3.2 -0.05780347
v -0.64 -2.88 -0.05780347
v -0.32 -2.88 -0.05780347
v -0.64 -3.2 -0.05780347
v -0.96 -3.2 -0.05780347
v -0.96 -2.88 -0.05780347
v -0.64 -2.88 -0.05780347
v -3.52 -3.2 -0.05780347
v -3.84 -3.2 -0.05780347
v -3.84 -2.88 -0.05780347
v -3.52 -2.88 -0.05780347
v -3.84 -3.2 -0.05780347
v -4.16 -3.2 -0.05780347
v -4.16 -2.88 -0.05780347
v -3.84 -2.88 -0.05780347
v 0 -3.52 -0.06358381
v -0.32 -3.52 -0.06358381
v -0.32 -3.2 -0.06358381
v 0 -3.2 -0.06358381
v -0.32 -3.52 -0.06358381
v -0.64 -3.52 -0.06358381
v -0.64 -3.2 -0.06358381
v -0.32 -3.2 -0.06358381
v -0.64 -3.52 -0.06358381
v -0.96 -3.52 -0.06358381
v -0.96 -3.2 -0.06358381
v -0.64 -3.2 -0.06358381
v -3.52 -3.52 -0.06358381
v -3.84 -3.52 -0.06358381
v -3.84 -3.2 -0.06358381
v -3.52 -3.2 -0.06358381
v -3.84 -3.52 -0.06358381
v -4.16 -3.52 -0.06358381
v -4.16 -3.2 -0.06358381
v -3.84 -3.2 -0.06358381
v 0 -3.84 -0.06936416
v -0.32 -3.84 -0.06936416
v -0.32 -3.52 -0.06936416
v 0 -3.52 -0.06936416
v -0.32 -3.84 -0.06936416
v -0.64 -3.84 -0.06936416
v -0.64 -3.52 -0.06936416
v -0.32 -3.52 -0.06936416
v -0.64 -3.84 -0.06936416
v -0.96 -3.84 -0.06936416
v -0.96 -3.52 -0.06936416
v -0.64 -3.52 -0.06936416
v -3.52 -3.84 -0.06936416
v -3.84 -3.84 -0.06936416
v -3.84 -3.52 -0.06936416
v -3.52 -3.52 -0.06936416
v -3.84 -3.84 -0.06936416
v -4.16 -3.84 -0.06936416
v -4.16 -3.52 -0.06936416
v -3.84 -3.52 -0.06936416
v 0 -4.16 -0.07514451
v -0.32 -4.16 -0.07514451
v -0.32 -3.84 -0.07514451
v 0 -3.84 -0.07514451
v -0.32 -4.16 -0.07514451
v -0.64 -4.16 -0.07514451
v -0.64 -3.84 -0.07514451
v -0.32 -3.84 -0.07514451
v -0.64 -4.16 -0.07514451
v -0.96 -4.16 -0.07514451
v -0.96 -3.84 -0.07514451
v -0.64 -3.84 -0.07514451
v -2.24 -4.16 -0.07514451
v -2.56 -4.16 -0.07514451
v -2.56 -3.84 -0.07514451
v -2.24 -3.84 -0.07514451
v -2.56 -4.16 -0.07514451
v -2.88 -4.16 -0.07514451
v -2.88 -3.84 -0.07514451
v -2.56 -3.84 -0.07514451
v -2.88 -4.16 -0.07514451
v -3.2 -4.16 -0.07514451
v -3.2 -3.84 -0.07514451
v -2.88 -3.84 -0.07514451
v -3.2 -4.16 -0.07514451
v -3.52 -4.16 -0.07514451
v -3.52 -3.84 -0.07514451
v -3.2 -3.84 -0.07514451
v -3.52 -4.16 -0.07514451
v -3.84 -4.16 -0.07514451
v -3.84 -3.84 -0.07514451
v -3.52 -3.84 -0.07514451
v -3.84 -4.16 -0.07514451
v -4.16 -4.16 -0.07514451
v -4.16 -3.84 -0.07514451
v -3.84 -3.84 -0.07514451
v 0 -4.48 -0.08092485
v -0.32 -4.48 -0.08092485
v -0.32 -4.16 -0.08092485
v 0 -4.16 -0.08092485
v -0.32 -4.48 -0.08092485
v -0.64 -4.48 -0.08092485
v -0.64 -4.16 -0.08092485
v -0.32 -4.16 -0.08092485
v -0.64 -4.48 -0.08092485
v -0.96 -4.48 -0.08092485
v -0.96 -4.16 -0.08092485
v -0.64 -4.16 -0.08092485
v -0.96 -4.48 -0.08092485
v -1.28 -4.48 -0.08092485
v -1.28 -4.16 -0.08092485
v -0.96 -4.16 -0.08092485
v -1.28 -4.48 -0.08092485
v -1.6 -4.48 -0.08092485
v -1.6 -4.16 -0.08092485
v -1.28 -4.16 -0.08092485
v -1.6 -4.48 -0.08092485
v -1.92 -4.48 -0.08092485
v -1.92 -4.16 -0.08092485
v -1.6 -4.16 -0.08092485
v -1.92 -4.48 -0.08092485
v -2.24 -4.48 -0.08092485
v -2.24 -4.16 -0.08092485
v -1.92 -4.16 -0.08092485
v -2.24 -4.48 -0.08092485
v -2.56 -4.48 -0.08092485
v -2.56 -4.16 -0.08092485
v -2.24 -4.16 -0.08092485
v -2.56 -4.48 -0.08092485
v -2.88 -4.48 -0.08092485
v -2.88 -4.16 -0.08092485
v -2.56 -4.16 -0.08092485
v -2.88 -4.48 -0.08092485
v -3.2 -4.48 -0.08092485
v -3.2 -4.16 -0.08092485
v -2.88 -4.16 -0.08092485
v -3.2 -4.48 -0.08092485
v -3.52 -4.48 -0.08092485
v -3.52 -4.16 -0.08092485
v -3.2 -4.16 -0.08092485
v -3.52 -4.48 -0.08092485
v -3.84 -4.48 -0.08092485
v -3.84 -4.16 -0.08092485
v -3.52 -4.16 -0.08092485
v -3.84 -4.48 -0.08092485
v -4.16 -4.48 -0.08092485
v -4.16 -4.16 -0.08092485
v -3.84 -4.16 -0.08092485
v 0 -4.8 -0.0867052
v -0.32 -4.8 -0.0867052
v -0.32 -4.48 -0.0867052
v 0 -4.48 -0.0867052
v -0.32 -4.8 -0.0867052
v -0.64 -4.8 -0.0867052
v -0.64 -4.48 -0.0867052
v -0.32 -4.48 -0.0867052
v -0.64 -4.8 -0.0867052
v -0.96 -4.8 -0.0867052
v -0.96 -4.48 -0.0867052
v -0.64 -4.48 -0.0867052
v -0.96 -4.8 -0.0867052
v -1.28 -4.8 -0.0867052
v -1.28 -4.48 -0.0867052
v -0.96 -4.48 -0.0867052
v -1.28 -4.8 -0.0867052
v -1.6 -4.8 -0.0867052
v -1.6 -4.48 -0.0867052
v -1.28 -4.48 -0.0867052
v -1.6 -4.8 -0.0867052
v -1.92 -4.8 -0.0867052
v -1.92 -4.48 -0.0867052
v -1.6 -4.48 -0.0867052
v -1.92 -4.8 -0.0867052
v -2.24 -4.8 -0.0867052
v -2.24 -4.48 -0.0867052
v -1.92 -4.48 -0.0867052
v -2.24 -4.8 -0.0867052
v -2.56 -4.8 -0.0867052
v -2.56 -4.48 -0.0867052
v -2.24 -4.48 -0.0867052
v -2.56 -4.8 -0.0867052
v -2.88 -4.8 -0.0867052
v -2.88 -4.48 -0.0867052
v -2.56 -4.48 -0.0867052
v -2.88 -4.8 -0.0867052
v -3.2 -4.8 -0.0867052
v -3.2 -4.48 -0.0867052
v -2.88 -4.48 -0.0867052
v -3.2 -4.8 -0.0867052
v -3.52 -4.8 -0.0867052
v -3.52 -4.48 -0.0867052
v -3.2 -4.48 -0.0867052
v -3.52 -4.8 -0.0867052
v -3.84 -4.8 -0.0867052
v -3.84 -4.48 -0.0867052
v -3.52 -4.48 -0.0867052
v -3.84 -4.8 -0.0867052
v -4.16 -4.8 -0.0867052
v -4.16 -4.48 -0.0867052
v -3.84 -4.48 -0.0867052
v -4.16 -4.8 -0.0867052
v -4.48 -4.8 -0.0867052
v -4.48 -4.48 -0.0867052
v -4.16 -4.48 -0.0867052
v -4.48 -4.8 -0.0867052
v -4.8 -4.8 -0.0867052
v -4.8 -4.48 -0.0867052
v -4.48 -4.48 -0.0867052
v -4.8 -4.8 -0.0867052
v -5.12 -4.8 -0.0867052
v -5.12 -4.48 -0.0867052
v -4.8 -4.48 -0.0867052
v 0 -5.12 -0.09248555
v -0.32 -5.12 -0.09248555
v -0.32 -4.8 -0.09248555
v 0 -4.8 -0.09248555
v -0.32 -5.12 -0.09248555
v -0.64 -5.12 -0.09248555
v -0.64 -4.8 -0.09248555
v -0.32 -4.8 -0.09248555
v -0.64 -5.12 -0.09248555
v -0.96 -5.12 -0.09248555
v -0.96 -4.8 -0.09248555
v -0.64 -4.8 -0.09248555
v -3.52 -5.12 -0.09248555
v -3.84 -5.12 -0.09248555
v -3.84 -4.8 -0.09248555
v -3.52 -4.8 -0.09248555
v -3.84 -5.12 -0.09248555
v -4.16 -5.12 -0.09248555
v -4.16 -4.8 -0.09248555
v -3.84 -4.8 -0.09248555
v -4.16 -5.12 -0.09248555
v -4.48 -5.12 -0.09248555
v -4.48 -4.8 -0.09248555
v -4.16 -4.8 -0.09248555
v -4.48 -5.12 -0.09248555
v -4.8 -5.12 -0.09248555
v -4.8 -4.8 -0.09248555
v -4.48 -4.8 -0.09248555
v -4.8 -5.12 -0.09248555
v -5.12 -5.12 -0.09248555
v -5.12 -4.8 -0.09248555
v -4.8 -4.8 -0.09248555

# Texture cooridinates (Count = 21)
vt 0.5 0
vt 0.6666667 0
vt 0.6666667 0.08333331
vt 0.5 0.08333331
vt 0.8333333 0
vt 0.8333333 0.08333331
vt 1 0
vt 1 0.08333331
vt 0.3333333 0.4166667
vt 0.5 0.4166667
vt 0.5 0.5
vt 0.3333333 0.5
vt 0.6666667 0.4166667
vt 0.6666667 0.5
vt 0.6666667 0.1666667
vt 0.5 0.1666667
vt 0.8333333 0.1666667
vt 1 0.1666667
vt 0.3333333 0.3333333
vt 0.5 0.3333333
vt 0.6666667 0.3333333

# Normal
vn 0 0 -1

# Mesh description
g NewBadManor_mesh_0052

# Faces
f 1/1/1 2/2/1 3/3/1 4/4/1
f 5/2/1 6/5/1 7/6/1 8/3/1
f 9/5/1 10/7/1 11/8/1 12/6/1
f 13/9/1 14/10/1 15/11/1 16/12/1
f 17/10/1 18/13/1 19/14/1 20/11/1
f 21/4/1 22/3/1 23/15/1 24/16/1
f 25/3/1 26/6/1 27/17/1 28/15/1
f 29/6/1 30/8/1 31/18/1 32/17/1
f 33/9/1 34/10/1 35/11/1 36/12/1
f 37/10/1 38/13/1 39/14/1 40/11/1
f 41/1/1 42/2/1 43/3/1 44/4/1
f 45/2/1 46/5/1 47/6/1 48/3/1
f 49/5/1 50/7/1 51/8/1 52/6/1
f 53/9/1 54/10/1 55/11/1 56/12/1
f 57/10/1 58/13/1 59/14/1 60/11/1
f 61/4/1 62/3/1 63/15/1 64/16/1
f 65/3/1 66/6/1 67/17/1 68/15/1
f 69/9/1 70/10/1 71/11/1 72/12/1
f 73/10/1 74/13/1 75/14/1 76/11/1
f 77/10/1 78/13/1 79/14/1 80/11/1
f 81/10/1 82/13/1 83/14/1 84/11/1
f 85/10/1 86/13/1 87/14/1 88/11/1
f 89/10/1 90/13/1 91/14/1 92/11/1
f 93/10/1 94/13/1 95/14/1 96/11/1
f 97/10/1 98/13/1 99/14/1 100/11/1
f 101/10/1 102/13/1 103/14/1 104/11/1
f 105/9/1 106/10/1 107/11/1 108/12/1
f 109/10/1 110/13/1 111/14/1 112/11/1
f 113/1/1 114/2/1 115/3/1 116/4/1
f 117/2/1 118/5/1 119/6/1 120/3/1
f 121/19/1 122/20/1 123/10/1 124/9/1
f 125/20/1 126/21/1 127/13/1 128/10/1
f 129/20/1 130/21/1 131/13/1 132/10/1
f 133/20/1 134/21/1 135/13/1 136/10/1
f 137/20/1 138/21/1 139/13/1 140/10/1
f 141/20/1 142/21/1 143/13/1 144/10/1
f 145/20/1 146/21/1 147/13/1 148/10/1
f 149/20/1 150/21/1 151/13/1 152/10/1
f 153/20/1 154/21/1 155/13/1 156/10/1
f 157/9/1 158/10/1 159/11/1 160/12/1
f 161/10/1 162/13/1 163/14/1 164/11/1
f 165/4/1 166/3/1 167/15/1 168/16/1
f 169/3/1 170/6/1 171/17/1 172/15/1
f 173/6/1 174/8/1 175/18/1 176/17/1
f 177/9/1 178/10/1 179/11/1 180/12/1
f 181/10/1 182/13/1 183/14/1 184/11/1
f 185/1/1 186/2/1 187/3/1 188/4/1
f 189/2/1 190/5/1 191/6/1 192/3/1
f 193/5/1 194/7/1 195/8/1 196/6/1
f 197/9/1 198/10/1 199/11/1 200/12/1
f 201/10/1 202/13/1 203/14/1 204/11/1
f 205/4/1 206/3/1 207/15/1 208/16/1
f 209/3/1 210/6/1 211/17/1 212/15/1
f 213/6/1 214/8/1 215/18/1 216/17/1
f 217/9/1 218/10/1 219/11/1 220/12/1
f 221/10/1 222/13/1 223/14/1 224/11/1
f 225/1/1 226/2/1 227/3/1 228/4/1
f 229/2/1 230/5/1 231/6/1 232/3/1
f 233/5/1 234/7/1 235/8/1 236/6/1
f 237/9/1 238/10/1 239/11/1 240/12/1
f 241/10/1 242/13/1 243/14/1 244/11/1
f 245/4/1 246/3/1 247/15/1 248/16/1
f 249/3/1 250/6/1 251/17/1 252/15/1
f 253/6/1 254/8/1 255/18/1 256/17/1
f 257/9/1 258/10/1 259/11/1 260/12/1
f 261/10/1 262/13/1 263/14/1 264/11/1
f 265/1/1 266/2/1 267/3/1 268/4/1
f 269/2/1 270/5/1 271/6/1 272/3/1
f 273/5/1 274/7/1 275/8/1 276/6/1
f 277/9/1 278/10/1 279/11/1 280/12/1
f 281/10/1 282/13/1 283/14/1 284/11/1
f 285/4/1 286/3/1 287/15/1 288/16/1
f 289/3/1 290/6/1 291/17/1 292/15/1
f 293/6/1 294/8/1 295/18/1 296/17/1
f 297/9/1 298/10/1 299/11/1 300/12/1
f 301/10/1 302/13/1 303/14/1 304/11/1
f 305/1/1 306/2/1 307/3/1 308/4/1
f 309/2/1 310/5/1 311/6/1 312/3/1
f 313/5/1 314/7/1 315/8/1 316/6/1
f 317/9/1 318/10/1 319/11/1 320/12/1
f 321/9/1 322/10/1 323/11/1 324/12/1
f 325/9/1 326/10/1 327/11/1 328/12/1
f 329/10/1 330/13/1 331/14/1 332/11/1
f 333/9/1 334/10/1 335/11/1 336/12/1
f 337/10/1 338/13/1 339/14/1 340/11/1
f 341/4/1 342/3/1 343/15/1 344/16/1
f 345/9/1 346/10/1 347/11/1 348/12/1
f 349/9/1 350/10/1 351/11/1 352/12/1
f 353/9/1 354/10/1 355/11/1 356/12/1
f 357/9/1 358/10/1 359/11/1 360/12/1
f 361/9/1 362/10/1 363/11/1 364/12/1
f 365/9/1 366/10/1 367/11/1 368/12/1
f 369/19/1 370/20/1 371/10/1 372/9/1
f 373/19/1 374/20/1 375/10/1 376/9/1
f 377/9/1 378/10/1 379/11/1 380/12/1
f 381/10/1 382/13/1 383/14/1 384/11/1
f 385/9/1 386/10/1 387/11/1 388/12/1
f 389/10/1 390/13/1 391/14/1 392/11/1
f 393/1/1 394/2/1 395/3/1 396/4/1
f 397/19/1 398/20/1 399/10/1 400/9/1
f 401/19/1 402/20/1 403/10/1 404/9/1
f 405/19/1 406/20/1 407/10/1 408/9/1
f 409/19/1 410/20/1 411/10/1 412/9/1
f 413/19/1 414/20/1 415/10/1 416/9/1
f 417/19/1 418/20/1 419/10/1 420/9/1
f 421/19/1 422/20/1 423/10/1 424/9/1
f 425/20/1 426/21/1 427/13/1 428/10/1
f 429/19/1 430/20/1 431/10/1 432/9/1
f 433/20/1 434/21/1 435/13/1 436/10/1
f 437/9/1 438/10/1 439/11/1 440/12/1
f 441/9/1 442/10/1 443/11/1 444/12/1
f 445/9/1 446/10/1 447/11/1 448/12/1
f 449/9/1 450/10/1 451/11/1 452/12/1
f 453/9/1 454/10/1 455/11/1 456/12/1
f 457/4/1 458/3/1 459/15/1 460/16/1
f 461/3/1 462/6/1 463/17/1 464/15/1
f 465/6/1 466/8/1 467/18/1 468/17/1
f 469/19/1 470/20/1 471/10/1 472/9/1
f 473/19/1 474/20/1 475/10/1 476/9/1
f 477/19/1 478/20/1 479/10/1 480/9/1
f 481/19/1 482/20/1 483/10/1 484/9/1
f 485/19/1 486/20/1 487/10/1 488/9/1

