# Tiled2Unity generated file. Do not modify by hand.
# Wavefront file for 'NewBadManor_mesh_0014.obj'

# Vertices (Count = 864)
v -42.88 -0.64 0
v -43.52 -0.64 0
v -43.52 0 0
v -42.88 0 0
v -43.52 -0.64 0
v -44.16 -0.64 0
v -44.16 0 0
v -43.52 0 0
v -44.16 -0.64 0
v -44.8 -0.64 0
v -44.8 0 0
v -44.16 0 0
v -44.8 -0.64 0
v -45.44 -0.64 0
v -45.44 0 0
v -44.8 0 0
v -45.44 -0.64 0
v -46.08 -0.64 0
v -46.08 0 0
v -45.44 0 0
v -46.08 -0.64 0
v -46.72 -0.64 0
v -46.72 0 0
v -46.08 0 0
v -46.72 -0.64 0
v -47.36 -0.64 0
v -47.36 0 0
v -46.72 0 0
v -47.36 -0.64 0
v -48 -0.64 0
v -48 0 0
v -47.36 0 0
v -48 -0.64 0
v -48.64 -0.64 0
v -48.64 0 0
v -48 0 0
v -48.64 -0.64 0
v -49.28 -0.64 0
v -49.28 0 0
v -48.64 0 0
v -49.28 -0.64 0
v -49.92 -0.64 0
v -49.92 0 0
v -49.28 0 0
v -49.92 -0.64 0
v -50.56 -0.64 0
v -50.56 0 0
v -49.92 0 0
v -50.56 -0.64 0
v -51.2 -0.64 0
v -51.2 0 0
v -50.56 0 0
v -53.12 -0.64 0
v -53.76 -0.64 0
v -53.76 0 0
v -53.12 0 0
v -53.76 -0.64 0
v -54.4 -0.64 0
v -54.4 0 0
v -53.76 0 0
v -54.4 -0.64 0
v -55.04 -0.64 0
v -55.04 0 0
v -54.4 0 0
v -55.04 -0.64 0
v -55.68 -0.64 0
v -55.68 0 0
v -55.04 0 0
v -55.68 -0.64 0
v -56.32 -0.64 0
v -56.32 0 0
v -55.68 0 0
v -56.32 -0.64 0
v -56.96 -0.64 0
v -56.96 0 0
v -56.32 0 0
v -56.96 -0.64 0
v -57.6 -0.64 0
v -57.6 0 0
v -56.96 0 0
v -57.6 -0.64 0
v -58.24 -0.64 0
v -58.24 0 0
v -57.6 0 0
v -58.24 -0.64 0
v -58.88 -0.64 0
v -58.88 0 0
v -58.24 0 0
v -58.88 -0.64 0
v -59.52 -0.64 0
v -59.52 0 0
v -58.88 0 0
v -59.52 -0.64 0
v -60.16 -0.64 0
v -60.16 0 0
v -59.52 0 0
v -60.16 -0.64 0
v -60.8 -0.64 0
v -60.8 0 0
v -60.16 0 0
v -60.8 -0.64 0
v -61.44 -0.64 0
v -61.44 0 0
v -60.8 0 0
v -63.36 -0.64 0
v -64 -0.64 0
v -64 0 0
v -63.36 0 0
v 0 -1.28 0
v -0.64 -1.28 0
v -0.64 -0.64 0
v 0 -0.64 0
v -9.599999 -1.28 0
v -10.24 -1.28 0
v -10.24 -0.64 0
v -9.599999 -0.64 0
v -10.24 -1.28 0
v -10.88 -1.28 0
v -10.88 -0.64 0
v -10.24 -0.64 0
v -19.84 -1.28 0
v -20.48 -1.28 0
v -20.48 -0.64 0
v -19.84 -0.64 0
v -20.48 -1.28 0
v -21.12 -1.28 0
v -21.12 -0.64 0
v -20.48 -0.64 0
v -30.08 -1.28 0
v -30.72 -1.28 0
v -30.72 -0.64 0
v -30.08 -0.64 0
v -30.72 -1.28 0
v -31.36 -1.28 0
v -31.36 -0.64 0
v -30.72 -0.64 0
v -40.32 -1.28 0
v -40.96 -1.28 0
v -40.96 -0.64 0
v -40.32 -0.64 0
v -40.96 -1.28 0
v -41.6 -1.28 0
v -41.6 -0.64 0
v -40.96 -0.64 0
v -50.56 -1.28 0
v -51.2 -1.28 0
v -51.2 -0.64 0
v -50.56 -0.64 0
v -51.2 -1.28 0
v -51.84 -1.28 0
v -51.84 -0.64 0
v -51.2 -0.64 0
v -60.8 -1.28 0
v -61.44 -1.28 0
v -61.44 -0.64 0
v -60.8 -0.64 0
v -61.44 -1.28 0
v -62.08 -1.28 0
v -62.08 -0.64 0
v -61.44 -0.64 0
v -7.04 -1.92 0
v -7.68 -1.92 0
v -7.68 -1.28 0
v -7.04 -1.28 0
v -7.68 -1.92 0
v -8.32 -1.92 0
v -8.32 -1.28 0
v -7.68 -1.28 0
v -17.28 -1.92 0
v -17.92 -1.92 0
v -17.92 -1.28 0
v -17.28 -1.28 0
v -17.92 -1.92 0
v -18.56 -1.92 0
v -18.56 -1.28 0
v -17.92 -1.28 0
v -27.52 -1.92 0
v -28.16 -1.92 0
v -28.16 -1.28 0
v -27.52 -1.28 0
v -28.16 -1.92 0
v -28.8 -1.92 0
v -28.8 -1.28 0
v -28.16 -1.28 0
v -12.8 -2.56 0
v -13.44 -2.56 0
v -13.44 -1.92 0
v -12.8 -1.92 0
v -16 -2.56 0
v -16.64 -2.56 0
v -16.64 -1.92 0
v -16 -1.92 0
v -16.64 -2.56 0
v -17.28 -2.56 0
v -17.28 -1.92 0
v -16.64 -1.92 0
v -17.28 -2.56 0
v -17.92 -2.56 0
v -17.92 -1.92 0
v -17.28 -1.92 0
v -17.92 -2.56 0
v -18.56 -2.56 0
v -18.56 -1.92 0
v -17.92 -1.92 0
v -18.56 -2.56 0
v -19.2 -2.56 0
v -19.2 -1.92 0
v -18.56 -1.92 0
v -19.2 -2.56 0
v -19.84 -2.56 0
v -19.84 -1.92 0
v -19.2 -1.92 0
v -19.84 -2.56 0
v -20.48 -2.56 0
v -20.48 -1.92 0
v -19.84 -1.92 0
v -20.48 -2.56 0
v -21.12 -2.56 0
v -21.12 -1.92 0
v -20.48 -1.92 0
v -21.12 -2.56 0
v -21.76 -2.56 0
v -21.76 -1.92 0
v -21.12 -1.92 0
v -21.76 -2.56 0
v -22.4 -2.56 0
v -22.4 -1.92 0
v -21.76 -1.92 0
v -22.4 -2.56 0
v -23.04 -2.56 0
v -23.04 -1.92 0
v -22.4 -1.92 0
v -23.04 -2.56 0
v -23.68 -2.56 0
v -23.68 -1.92 0
v -23.04 -1.92 0
v -26.24 -2.56 0
v -26.88 -2.56 0
v -26.88 -1.92 0
v -26.24 -1.92 0
v -26.88 -2.56 0
v -27.52 -2.56 0
v -27.52 -1.92 0
v -26.88 -1.92 0
v -27.52 -2.56 0
v -28.16 -2.56 0
v -28.16 -1.92 0
v -27.52 -1.92 0
v -28.16 -2.56 0
v -28.8 -2.56 0
v -28.8 -1.92 0
v -28.16 -1.92 0
v -28.8 -2.56 0
v -29.44 -2.56 0
v -29.44 -1.92 0
v -28.8 -1.92 0
v -29.44 -2.56 0
v -30.08 -2.56 0
v -30.08 -1.92 0
v -29.44 -1.92 0
v -30.08 -2.56 0
v -30.72 -2.56 0
v -30.72 -1.92 0
v -30.08 -1.92 0
v -30.72 -2.56 0
v -31.36 -2.56 0
v -31.36 -1.92 0
v -30.72 -1.92 0
v -31.36 -2.56 0
v -32 -2.56 0
v -32 -1.92 0
v -31.36 -1.92 0
v -32 -2.56 0
v -32.64 -2.56 0
v -32.64 -1.92 0
v -32 -1.92 0
v -32.64 -2.56 0
v -33.28 -2.56 0
v -33.28 -1.92 0
v -32.64 -1.92 0
v -48.64 -3.84 0
v -49.28 -3.84 0
v -49.28 -3.2 0
v -48.64 -3.2 0
v -49.28 -3.84 0
v -49.92 -3.84 0
v -49.92 -3.2 0
v -49.28 -3.2 0
v -49.92 -3.84 0
v -50.56 -3.84 0
v -50.56 -3.2 0
v -49.92 -3.2 0
v -58.88 -3.84 0
v -59.52 -3.84 0
v -59.52 -3.2 0
v -58.88 -3.2 0
v -59.52 -3.84 0
v -60.16 -3.84 0
v -60.16 -3.2 0
v -59.52 -3.2 0
v -60.16 -3.84 0
v -60.8 -3.84 0
v -60.8 -3.2 0
v -60.16 -3.2 0
v -5.76 -4.48 0
v -6.4 -4.48 0
v -6.4 -3.84 0
v -5.76 -3.84 0
v -6.4 -4.48 0
v -7.04 -4.48 0
v -7.04 -3.84 0
v -6.4 -3.84 0
v -16 -4.48 0
v -16.64 -4.48 0
v -16.64 -3.84 0
v -16 -3.84 0
v -16.64 -4.48 0
v -17.28 -4.48 0
v -17.28 -3.84 0
v -16.64 -3.84 0
v -26.24 -4.48 0
v -26.88 -4.48 0
v -26.88 -3.84 0
v -26.24 -3.84 0
v -26.88 -4.48 0
v -27.52 -4.48 0
v -27.52 -3.84 0
v -26.88 -3.84 0
v -36.48 -4.48 0
v -37.12 -4.48 0
v -37.12 -3.84 0
v -36.48 -3.84 0
v -37.12 -4.48 0
v -37.76 -4.48 0
v -37.76 -3.84 0
v -37.12 -3.84 0
v -46.72 -4.48 0
v -47.36 -4.48 0
v -47.36 -3.84 0
v -46.72 -3.84 0
v -47.36 -4.48 0
v -48 -4.48 0
v -48 -3.84 0
v -47.36 -3.84 0
v -56.96 -4.48 0
v -57.6 -4.48 0
v -57.6 -3.84 0
v -56.96 -3.84 0
v -57.6 -4.48 0
v -58.24 -4.48 0
v -58.24 -3.84 0
v -57.6 -3.84 0
v -3.2 -5.12 0
v -3.84 -5.12 0
v -3.84 -4.48 0
v -3.2 -4.48 0
v -3.84 -5.12 0
v -4.48 -5.12 0
v -4.48 -4.48 0
v -3.84 -4.48 0
v -13.44 -5.12 0
v -14.08 -5.12 0
v -14.08 -4.48 0
v -13.44 -4.48 0
v -14.08 -5.12 0
v -14.72 -5.12 0
v -14.72 -4.48 0
v -14.08 -4.48 0
v -23.68 -5.12 0
v -24.32 -5.12 0
v -24.32 -4.48 0
v -23.68 -4.48 0
v -24.32 -5.12 0
v -24.96 -5.12 0
v -24.96 -4.48 0
v -24.32 -4.48 0
v -33.92 -5.12 0
v -34.56 -5.12 0
v -34.56 -4.48 0
v -33.92 -4.48 0
v -34.56 -5.12 0
v -35.2 -5.12 0
v -35.2 -4.48 0
v -34.56 -4.48 0
v -45.44 -5.12 0
v -46.08 -5.12 0
v -46.08 -4.48 0
v -45.44 -4.48 0
v -46.08 -5.12 0
v -46.72 -5.12 0
v -46.72 -4.48 0
v -46.08 -4.48 0
v -55.68 -5.12 0
v -56.32 -5.12 0
v -56.32 -4.48 0
v -55.68 -4.48 0
v -56.32 -5.12 0
v -56.96 -5.12 0
v -56.96 -4.48 0
v -56.32 -4.48 0
v -1.92 -5.76 0
v -2.56 -5.76 0
v -2.56 -5.12 0
v -1.92 -5.12 0
v -2.56 -5.76 0
v -3.2 -5.76 0
v -3.2 -5.12 0
v -2.56 -5.12 0
v -12.16 -5.76 0
v -12.8 -5.76 0
v -12.8 -5.12 0
v -12.16 -5.12 0
v -12.8 -5.76 0
v -13.44 -5.76 0
v -13.44 -5.12 0
v -12.8 -5.12 0
v -22.4 -5.76 0
v -23.04 -5.76 0
v -23.04 -5.12 0
v -22.4 -5.12 0
v -23.04 -5.76 0
v -23.68 -5.76 0
v -23.68 -5.12 0
v -23.04 -5.12 0
v -32.64 -5.76 0
v -33.28 -5.76 0
v -33.28 -5.12 0
v -32.64 -5.12 0
v -33.28 -5.76 0
v -33.92 -5.76 0
v -33.92 -5.12 0
v -33.28 -5.12 0
v -42.88 -5.76 0
v -43.52 -5.76 0
v -43.52 -5.12 0
v -42.88 -5.12 0
v -43.52 -5.76 0
v -44.16 -5.76 0
v -44.16 -5.12 0
v -43.52 -5.12 0
v -53.12 -5.76 0
v -53.76 -5.76 0
v -53.76 -5.12 0
v -53.12 -5.12 0
v -53.76 -5.76 0
v -54.4 -5.76 0
v -54.4 -5.12 0
v -53.76 -5.12 0
v -63.36 -5.76 0
v -64 -5.76 0
v -64 -5.12 0
v -63.36 -5.12 0
v 0 -6.4 0
v -0.64 -6.4 0
v -0.64 -5.76 0
v 0 -5.76 0
v -9.599999 -6.4 0
v -10.24 -6.4 0
v -10.24 -5.76 0
v -9.599999 -5.76 0
v -10.24 -6.4 0
v -10.88 -6.4 0
v -10.88 -5.76 0
v -10.24 -5.76 0
v -19.84 -6.4 0
v -20.48 -6.4 0
v -20.48 -5.76 0
v -19.84 -5.76 0
v -20.48 -6.4 0
v -21.12 -6.4 0
v -21.12 -5.76 0
v -20.48 -5.76 0
v -30.08 -6.4 0
v -30.72 -6.4 0
v -30.72 -5.76 0
v -30.08 -5.76 0
v -30.72 -6.4 0
v -31.36 -6.4 0
v -31.36 -5.76 0
v -30.72 -5.76 0
v -40.32 -6.4 0
v -40.96 -6.4 0
v -40.96 -5.76 0
v -40.32 -5.76 0
v -40.96 -6.4 0
v -41.6 -6.4 0
v -41.6 -5.76 0
v -40.96 -5.76 0
v -50.56 -6.4 0
v -51.2 -6.4 0
v -51.2 -5.76 0
v -50.56 -5.76 0
v -51.2 -6.4 0
v -51.84 -6.4 0
v -51.84 -5.76 0
v -51.2 -5.76 0
v -60.8 -6.4 0
v -61.44 -6.4 0
v -61.44 -5.76 0
v -60.8 -5.76 0
v -61.44 -6.4 0
v -62.08 -6.4 0
v -62.08 -5.76 0
v -61.44 -5.76 0
v -7.04 -7.04 0
v -7.68 -7.04 0
v -7.68 -6.4 0
v -7.04 -6.4 0
v -7.68 -7.04 0
v -8.32 -7.04 0
v -8.32 -6.4 0
v -7.68 -6.4 0
v -16 -7.04 0
v -16.64 -7.04 0
v -16.64 -6.4 0
v -16 -6.4 0
v -16.64 -7.04 0
v -17.28 -7.04 0
v -17.28 -6.4 0
v -16.64 -6.4 0
v -26.24 -7.04 0
v -26.88 -7.04 0
v -26.88 -6.4 0
v -26.24 -6.4 0
v -26.88 -7.04 0
v -27.52 -7.04 0
v -27.52 -6.4 0
v -26.88 -6.4 0
v -36.48 -7.04 0
v -37.12 -7.04 0
v -37.12 -6.4 0
v -36.48 -6.4 0
v -37.12 -7.04 0
v -37.76 -7.04 0
v -37.76 -6.4 0
v -37.12 -6.4 0
v -46.72 -7.04 0
v -47.36 -7.04 0
v -47.36 -6.4 0
v -46.72 -6.4 0
v -47.36 -7.04 0
v -48 -7.04 0
v -48 -6.4 0
v -47.36 -6.4 0
v -56.96 -7.04 0
v -57.6 -7.04 0
v -57.6 -6.4 0
v -56.96 -6.4 0
v -57.6 -7.04 0
v -58.24 -7.04 0
v -58.24 -6.4 0
v -57.6 -6.4 0
v -3.2 -7.68 0
v -3.84 -7.68 0
v -3.84 -7.04 0
v -3.2 -7.04 0
v -3.84 -7.68 0
v -4.48 -7.68 0
v -4.48 -7.04 0
v -3.84 -7.04 0
v -13.44 -7.68 0
v -14.08 -7.68 0
v -14.08 -7.04 0
v -13.44 -7.04 0
v -14.08 -7.68 0
v -14.72 -7.68 0
v -14.72 -7.04 0
v -14.08 -7.04 0
v -23.68 -7.68 0
v -24.32 -7.68 0
v -24.32 -7.04 0
v -23.68 -7.04 0
v -24.32 -7.68 0
v -24.96 -7.68 0
v -24.96 -7.04 0
v -24.32 -7.04 0
v -33.92 -7.68 0
v -34.56 -7.68 0
v -34.56 -7.04 0
v -33.92 -7.04 0
v -34.56 -7.68 0
v -35.2 -7.68 0
v -35.2 -7.04 0
v -34.56 -7.04 0
v -44.16 -7.68 0
v -44.8 -7.68 0
v -44.8 -7.04 0
v -44.16 -7.04 0
v -44.8 -7.68 0
v -45.44 -7.68 0
v -45.44 -7.04 0
v -44.8 -7.04 0
v -54.4 -7.68 0
v -55.04 -7.68 0
v -55.04 -7.04 0
v -54.4 -7.04 0
v -55.04 -7.68 0
v -55.68 -7.68 0
v -55.68 -7.04 0
v -55.04 -7.04 0
v -0.64 -8.32 0
v -1.28 -8.32 0
v -1.28 -7.68 0
v -0.64 -7.68 0
v -1.28 -8.32 0
v -1.92 -8.32 0
v -1.92 -7.68 0
v -1.28 -7.68 0
v -10.88 -8.32 0
v -11.52 -8.32 0
v -11.52 -7.68 0
v -10.88 -7.68 0
v -11.52 -8.32 0
v -12.16 -8.32 0
v -12.16 -7.68 0
v -11.52 -7.68 0
v -21.12 -8.32 0
v -21.76 -8.32 0
v -21.76 -7.68 0
v -21.12 -7.68 0
v -21.76 -8.32 0
v -22.4 -8.32 0
v -22.4 -7.68 0
v -21.76 -7.68 0
v -31.36 -8.32 0
v -32 -8.32 0
v -32 -7.68 0
v -31.36 -7.68 0
v -32 -8.32 0
v -32.64 -8.32 0
v -32.64 -7.68 0
v -32 -7.68 0
v -41.6 -8.32 0
v -42.24 -8.32 0
v -42.24 -7.68 0
v -41.6 -7.68 0
v -42.24 -8.32 0
v -42.88 -8.32 0
v -42.88 -7.68 0
v -42.24 -7.68 0
v -53.12 -8.32 0
v -53.76 -8.32 0
v -53.76 -7.68 0
v -53.12 -7.68 0
v -53.76 -8.32 0
v -54.4 -8.32 0
v -54.4 -7.68 0
v -53.76 -7.68 0
v -63.36 -8.32 0
v -64 -8.32 0
v -64 -7.68 0
v -63.36 -7.68 0
v 0 -8.96 0
v -0.64 -8.96 0
v -0.64 -8.32 0
v 0 -8.32 0
v -9.599999 -8.96 0
v -10.24 -8.96 0
v -10.24 -8.32 0
v -9.599999 -8.32 0
v -10.24 -8.96 0
v -10.88 -8.96 0
v -10.88 -8.32 0
v -10.24 -8.32 0
v -19.84 -8.96 0
v -20.48 -8.96 0
v -20.48 -8.32 0
v -19.84 -8.32 0
v -20.48 -8.96 0
v -21.12 -8.96 0
v -21.12 -8.32 0
v -20.48 -8.32 0
v -30.08 -8.96 0
v -30.72 -8.96 0
v -30.72 -8.32 0
v -30.08 -8.32 0
v -30.72 -8.96 0
v -31.36 -8.96 0
v -31.36 -8.32 0
v -30.72 -8.32 0
v -40.32 -8.96 0
v -40.96 -8.96 0
v -40.96 -8.32 0
v -40.32 -8.32 0
v -40.96 -8.96 0
v -41.6 -8.96 0
v -41.6 -8.32 0
v -40.96 -8.32 0
v -50.56 -8.96 0
v -51.2 -8.96 0
v -51.2 -8.32 0
v -50.56 -8.32 0
v -51.2 -8.96 0
v -51.84 -8.96 0
v -51.84 -8.32 0
v -51.2 -8.32 0
v -60.8 -8.96 0
v -61.44 -8.96 0
v -61.44 -8.32 0
v -60.8 -8.32 0
v -61.44 -8.96 0
v -62.08 -8.96 0
v -62.08 -8.32 0
v -61.44 -8.32 0
v -7.04 -9.599999 0
v -7.68 -9.599999 0
v -7.68 -8.96 0
v -7.04 -8.96 0
v -7.68 -9.599999 0
v -8.32 -9.599999 0
v -8.32 -8.96 0
v -7.68 -8.96 0
v -17.28 -9.599999 0
v -17.92 -9.599999 0
v -17.92 -8.96 0
v -17.28 -8.96 0
v -17.92 -9.599999 0
v -18.56 -9.599999 0
v -18.56 -8.96 0
v -17.92 -8.96 0
v -27.52 -9.599999 0
v -28.16 -9.599999 0
v -28.16 -8.96 0
v -27.52 -8.96 0
v -28.16 -9.599999 0
v -28.8 -9.599999 0
v -28.8 -8.96 0
v -28.16 -8.96 0
v -37.76 -9.599999 0
v -38.4 -9.599999 0
v -38.4 -8.96 0
v -37.76 -8.96 0
v -38.4 -9.599999 0
v -39.04 -9.599999 0
v -39.04 -8.96 0
v -38.4 -8.96 0
v -48 -9.599999 0
v -48.64 -9.599999 0
v -48.64 -8.96 0
v -48 -8.96 0
v -48.64 -9.599999 0
v -49.28 -9.599999 0
v -49.28 -8.96 0
v -48.64 -8.96 0
v -58.24 -9.599999 0
v -58.88 -9.599999 0
v -58.88 -8.96 0
v -58.24 -8.96 0
v -58.88 -9.599999 0
v -59.52 -9.599999 0
v -59.52 -8.96 0
v -58.88 -8.96 0
v -23.68 -10.24 0
v -24.32 -10.24 0
v -24.32 -9.599999 0
v -23.68 -9.599999 0
v -24.32 -10.24 0
v -24.96 -10.24 0
v -24.96 -9.599999 0
v -24.32 -9.599999 0
v -33.92 -10.24 0
v -34.56 -10.24 0
v -34.56 -9.599999 0
v -33.92 -9.599999 0
v -34.56 -10.24 0
v -35.2 -10.24 0
v -35.2 -9.599999 0
v -34.56 -9.599999 0
v -44.16 -10.24 0
v -44.8 -10.24 0
v -44.8 -9.599999 0
v -44.16 -9.599999 0
v -44.8 -10.24 0
v -45.44 -10.24 0
v -45.44 -9.599999 0
v -44.8 -9.599999 0
v -54.4 -10.24 0
v -55.04 -10.24 0
v -55.04 -9.599999 0
v -54.4 -9.599999 0
v -55.04 -10.24 0
v -55.68 -10.24 0
v -55.68 -9.599999 0
v -55.04 -9.599999 0
v -0.64 -10.88 0
v -1.28 -10.88 0
v -1.28 -10.24 0
v -0.64 -10.24 0
v -1.28 -10.88 0
v -1.92 -10.88 0
v -1.92 -10.24 0
v -1.28 -10.24 0
v -10.88 -10.88 0
v -11.52 -10.88 0
v -11.52 -10.24 0
v -10.88 -10.24 0
v -11.52 -10.88 0
v -12.16 -10.88 0
v -12.16 -10.24 0
v -11.52 -10.24 0
v -21.12 -10.88 0
v -21.76 -10.88 0
v -21.76 -10.24 0
v -21.12 -10.24 0
v -21.76 -10.88 0
v -22.4 -10.88 0
v -22.4 -10.24 0
v -21.76 -10.24 0
v -31.36 -10.88 0
v -32 -10.88 0
v -32 -10.24 0
v -31.36 -10.24 0
v -32 -10.88 0
v -32.64 -10.88 0
v -32.64 -10.24 0
v -32 -10.24 0
v -41.6 -10.88 0
v -42.24 -10.88 0
v -42.24 -10.24 0
v -41.6 -10.24 0
v -42.24 -10.88 0
v -42.88 -10.88 0
v -42.88 -10.24 0
v -42.24 -10.24 0
v -51.84 -10.88 0
v -52.48 -10.88 0
v -52.48 -10.24 0
v -51.84 -10.24 0
v -52.48 -10.88 0
v -53.12 -10.88 0
v -53.12 -10.24 0
v -52.48 -10.24 0
v -62.08 -10.88 0
v -62.72 -10.88 0
v -62.72 -10.24 0
v -62.08 -10.24 0
v -62.72 -10.88 0
v -63.36 -10.88 0
v -63.36 -10.24 0
v -62.72 -10.24 0
v -8.32 -11.52 0
v -8.96 -11.52 0
v -8.96 -10.88 0
v -8.32 -10.88 0
v -8.96 -11.52 0
v -9.599999 -11.52 0
v -9.599999 -10.88 0
v -8.96 -10.88 0
v -18.56 -11.52 0
v -19.2 -11.52 0
v -19.2 -10.88 0
v -18.56 -10.88 0
v -19.2 -11.52 0
v -19.84 -11.52 0
v -19.84 -10.88 0
v -19.2 -10.88 0
v -28.8 -11.52 0
v -29.44 -11.52 0
v -29.44 -10.88 0
v -28.8 -10.88 0
v -29.44 -11.52 0
v -30.08 -11.52 0
v -30.08 -10.88 0
v -29.44 -10.88 0

# Texture cooridinates (Count = 9)
vt 0.1666667 0.7666667
vt 0.2083333 0.7666667
vt 0.2083333 0.8
vt 0.1666667 0.8
vt 0.25 0.7666667
vt 0.25 0.8
vt 0.1666667 0.7333333
vt 0.2083333 0.7333333
vt 0.25 0.7333333

# Normal
vn 0 0 -1

# Mesh description
g NewBadManor_mesh_0014

# Faces
f 1/1/1 2/2/1 3/3/1 4/4/1
f 5/2/1 6/5/1 7/6/1 8/3/1
f 9/1/1 10/2/1 11/3/1 12/4/1
f 13/2/1 14/5/1 15/6/1 16/3/1
f 17/1/1 18/2/1 19/3/1 20/4/1
f 21/2/1 22/5/1 23/6/1 24/3/1
f 25/1/1 26/2/1 27/3/1 28/4/1
f 29/2/1 30/5/1 31/6/1 32/3/1
f 33/1/1 34/2/1 35/3/1 36/4/1
f 37/2/1 38/5/1 39/6/1 40/3/1
f 41/1/1 42/2/1 43/3/1 44/4/1
f 45/2/1 46/5/1 47/6/1 48/3/1
f 49/1/1 50/2/1 51/3/1 52/4/1
f 53/7/1 54/8/1 55/2/1 56/1/1
f 57/8/1 58/9/1 59/5/1 60/2/1
f 61/7/1 62/8/1 63/2/1 64/1/1
f 65/8/1 66/9/1 67/5/1 68/2/1
f 69/7/1 70/8/1 71/2/1 72/1/1
f 73/8/1 74/9/1 75/5/1 76/2/1
f 77/7/1 78/8/1 79/2/1 80/1/1
f 81/8/1 82/9/1 83/5/1 84/2/1
f 85/7/1 86/8/1 87/2/1 88/1/1
f 89/8/1 90/9/1 91/5/1 92/2/1
f 93/7/1 94/8/1 95/2/1 96/1/1
f 97/8/1 98/9/1 99/5/1 100/2/1
f 101/7/1 102/8/1 103/2/1 104/1/1
f 105/1/1 106/2/1 107/3/1 108/4/1
f 109/2/1 110/5/1 111/6/1 112/3/1
f 113/7/1 114/8/1 115/2/1 116/1/1
f 117/8/1 118/9/1 119/5/1 120/2/1
f 121/1/1 122/2/1 123/3/1 124/4/1
f 125/2/1 126/5/1 127/6/1 128/3/1
f 129/7/1 130/8/1 131/2/1 132/1/1
f 133/8/1 134/9/1 135/5/1 136/2/1
f 137/1/1 138/2/1 139/3/1 140/4/1
f 141/2/1 142/5/1 143/6/1 144/3/1
f 145/7/1 146/8/1 147/2/1 148/1/1
f 149/8/1 150/9/1 151/5/1 152/2/1
f 153/1/1 154/2/1 155/3/1 156/4/1
f 157/2/1 158/5/1 159/6/1 160/3/1
f 161/7/1 162/8/1 163/2/1 164/1/1
f 165/8/1 166/9/1 167/5/1 168/2/1
f 169/1/1 170/2/1 171/3/1 172/4/1
f 173/2/1 174/5/1 175/6/1 176/3/1
f 177/7/1 178/8/1 179/2/1 180/1/1
f 181/8/1 182/9/1 183/5/1 184/2/1
f 185/2/1 186/5/1 187/6/1 188/3/1
f 189/1/1 190/2/1 191/3/1 192/4/1
f 193/2/1 194/5/1 195/6/1 196/3/1
f 197/1/1 198/2/1 199/3/1 200/4/1
f 201/2/1 202/5/1 203/6/1 204/3/1
f 205/1/1 206/2/1 207/3/1 208/4/1
f 209/2/1 210/5/1 211/6/1 212/3/1
f 213/1/1 214/2/1 215/3/1 216/4/1
f 217/2/1 218/5/1 219/6/1 220/3/1
f 221/1/1 222/2/1 223/3/1 224/4/1
f 225/2/1 226/5/1 227/6/1 228/3/1
f 229/1/1 230/2/1 231/3/1 232/4/1
f 233/8/1 234/9/1 235/5/1 236/2/1
f 237/7/1 238/8/1 239/2/1 240/1/1
f 241/8/1 242/9/1 243/5/1 244/2/1
f 245/7/1 246/8/1 247/2/1 248/1/1
f 249/8/1 250/9/1 251/5/1 252/2/1
f 253/7/1 254/8/1 255/2/1 256/1/1
f 257/8/1 258/9/1 259/5/1 260/2/1
f 261/7/1 262/8/1 263/2/1 264/1/1
f 265/8/1 266/9/1 267/5/1 268/2/1
f 269/7/1 270/8/1 271/2/1 272/1/1
f 273/8/1 274/9/1 275/5/1 276/2/1
f 277/7/1 278/8/1 279/2/1 280/1/1
f 281/2/1 282/5/1 283/6/1 284/3/1
f 285/1/1 286/2/1 287/3/1 288/4/1
f 289/2/1 290/5/1 291/6/1 292/3/1
f 293/8/1 294/9/1 295/5/1 296/2/1
f 297/7/1 298/8/1 299/2/1 300/1/1
f 301/8/1 302/9/1 303/5/1 304/2/1
f 305/1/1 306/2/1 307/3/1 308/4/1
f 309/2/1 310/5/1 311/6/1 312/3/1
f 313/7/1 314/8/1 315/2/1 316/1/1
f 317/8/1 318/9/1 319/5/1 320/2/1
f 321/1/1 322/2/1 323/3/1 324/4/1
f 325/2/1 326/5/1 327/6/1 328/3/1
f 329/7/1 330/8/1 331/2/1 332/1/1
f 333/8/1 334/9/1 335/5/1 336/2/1
f 337/1/1 338/2/1 339/3/1 340/4/1
f 341/2/1 342/5/1 343/6/1 344/3/1
f 345/7/1 346/8/1 347/2/1 348/1/1
f 349/8/1 350/9/1 351/5/1 352/2/1
f 353/1/1 354/2/1 355/3/1 356/4/1
f 357/2/1 358/5/1 359/6/1 360/3/1
f 361/7/1 362/8/1 363/2/1 364/1/1
f 365/8/1 366/9/1 367/5/1 368/2/1
f 369/1/1 370/2/1 371/3/1 372/4/1
f 373/2/1 374/5/1 375/6/1 376/3/1
f 377/7/1 378/8/1 379/2/1 380/1/1
f 381/8/1 382/9/1 383/5/1 384/2/1
f 385/1/1 386/2/1 387/3/1 388/4/1
f 389/2/1 390/5/1 391/6/1 392/3/1
f 393/7/1 394/8/1 395/2/1 396/1/1
f 397/8/1 398/9/1 399/5/1 400/2/1
f 401/1/1 402/2/1 403/3/1 404/4/1
f 405/2/1 406/5/1 407/6/1 408/3/1
f 409/7/1 410/8/1 411/2/1 412/1/1
f 413/8/1 414/9/1 415/5/1 416/2/1
f 417/1/1 418/2/1 419/3/1 420/4/1
f 421/2/1 422/5/1 423/6/1 424/3/1
f 425/7/1 426/8/1 427/2/1 428/1/1
f 429/8/1 430/9/1 431/5/1 432/2/1
f 433/1/1 434/2/1 435/3/1 436/4/1
f 437/2/1 438/5/1 439/6/1 440/3/1
f 441/7/1 442/8/1 443/2/1 444/1/1
f 445/8/1 446/9/1 447/5/1 448/2/1
f 449/1/1 450/2/1 451/3/1 452/4/1
f 453/2/1 454/5/1 455/6/1 456/3/1
f 457/7/1 458/8/1 459/2/1 460/1/1
f 461/8/1 462/9/1 463/5/1 464/2/1
f 465/1/1 466/2/1 467/3/1 468/4/1
f 469/2/1 470/5/1 471/6/1 472/3/1
f 473/7/1 474/8/1 475/2/1 476/1/1
f 477/8/1 478/9/1 479/5/1 480/2/1
f 481/1/1 482/2/1 483/3/1 484/4/1
f 485/2/1 486/5/1 487/6/1 488/3/1
f 489/7/1 490/8/1 491/2/1 492/1/1
f 493/8/1 494/9/1 495/5/1 496/2/1
f 497/1/1 498/2/1 499/3/1 500/4/1
f 501/2/1 502/5/1 503/6/1 504/3/1
f 505/7/1 506/8/1 507/2/1 508/1/1
f 509/8/1 510/9/1 511/5/1 512/2/1
f 513/1/1 514/2/1 515/3/1 516/4/1
f 517/2/1 518/5/1 519/6/1 520/3/1
f 521/7/1 522/8/1 523/2/1 524/1/1
f 525/8/1 526/9/1 527/5/1 528/2/1
f 529/1/1 530/2/1 531/3/1 532/4/1
f 533/2/1 534/5/1 535/6/1 536/3/1
f 537/7/1 538/8/1 539/2/1 540/1/1
f 541/8/1 542/9/1 543/5/1 544/2/1
f 545/1/1 546/2/1 547/3/1 548/4/1
f 549/2/1 550/5/1 551/6/1 552/3/1
f 553/7/1 554/8/1 555/2/1 556/1/1
f 557/8/1 558/9/1 559/5/1 560/2/1
f 561/1/1 562/2/1 563/3/1 564/4/1
f 565/2/1 566/5/1 567/6/1 568/3/1
f 569/7/1 570/8/1 571/2/1 572/1/1
f 573/8/1 574/9/1 575/5/1 576/2/1
f 577/1/1 578/2/1 579/3/1 580/4/1
f 581/2/1 582/5/1 583/6/1 584/3/1
f 585/7/1 586/8/1 587/2/1 588/1/1
f 589/8/1 590/9/1 591/5/1 592/2/1
f 593/1/1 594/2/1 595/3/1 596/4/1
f 597/2/1 598/5/1 599/6/1 600/3/1
f 601/7/1 602/8/1 603/2/1 604/1/1
f 605/8/1 606/9/1 607/5/1 608/2/1
f 609/1/1 610/2/1 611/3/1 612/4/1
f 613/2/1 614/5/1 615/6/1 616/3/1
f 617/7/1 618/8/1 619/2/1 620/1/1
f 621/8/1 622/9/1 623/5/1 624/2/1
f 625/1/1 626/2/1 627/3/1 628/4/1
f 629/2/1 630/5/1 631/6/1 632/3/1
f 633/7/1 634/8/1 635/2/1 636/1/1
f 637/8/1 638/9/1 639/5/1 640/2/1
f 641/1/1 642/2/1 643/3/1 644/4/1
f 645/2/1 646/5/1 647/6/1 648/3/1
f 649/7/1 650/8/1 651/2/1 652/1/1
f 653/8/1 654/9/1 655/5/1 656/2/1
f 657/1/1 658/2/1 659/3/1 660/4/1
f 661/2/1 662/5/1 663/6/1 664/3/1
f 665/7/1 666/8/1 667/2/1 668/1/1
f 669/8/1 670/9/1 671/5/1 672/2/1
f 673/1/1 674/2/1 675/3/1 676/4/1
f 677/2/1 678/5/1 679/6/1 680/3/1
f 681/7/1 682/8/1 683/2/1 684/1/1
f 685/8/1 686/9/1 687/5/1 688/2/1
f 689/1/1 690/2/1 691/3/1 692/4/1
f 693/2/1 694/5/1 695/6/1 696/3/1
f 697/7/1 698/8/1 699/2/1 700/1/1
f 701/8/1 702/9/1 703/5/1 704/2/1
f 705/1/1 706/2/1 707/3/1 708/4/1
f 709/2/1 710/5/1 711/6/1 712/3/1
f 713/7/1 714/8/1 715/2/1 716/1/1
f 717/8/1 718/9/1 719/5/1 720/2/1
f 721/1/1 722/2/1 723/3/1 724/4/1
f 725/2/1 726/5/1 727/6/1 728/3/1
f 729/7/1 730/8/1 731/2/1 732/1/1
f 733/8/1 734/9/1 735/5/1 736/2/1
f 737/1/1 738/2/1 739/3/1 740/4/1
f 741/2/1 742/5/1 743/6/1 744/3/1
f 745/7/1 746/8/1 747/2/1 748/1/1
f 749/8/1 750/9/1 751/5/1 752/2/1
f 753/1/1 754/2/1 755/3/1 756/4/1
f 757/2/1 758/5/1 759/6/1 760/3/1
f 761/7/1 762/8/1 763/2/1 764/1/1
f 765/8/1 766/9/1 767/5/1 768/2/1
f 769/1/1 770/2/1 771/3/1 772/4/1
f 773/2/1 774/5/1 775/6/1 776/3/1
f 777/7/1 778/8/1 779/2/1 780/1/1
f 781/8/1 782/9/1 783/5/1 784/2/1
f 785/1/1 786/2/1 787/3/1 788/4/1
f 789/2/1 790/5/1 791/6/1 792/3/1
f 793/7/1 794/8/1 795/2/1 796/1/1
f 797/8/1 798/9/1 799/5/1 800/2/1
f 801/1/1 802/2/1 803/3/1 804/4/1
f 805/2/1 806/5/1 807/6/1 808/3/1
f 809/7/1 810/8/1 811/2/1 812/1/1
f 813/8/1 814/9/1 815/5/1 816/2/1
f 817/1/1 818/2/1 819/3/1 820/4/1
f 821/2/1 822/5/1 823/6/1 824/3/1
f 825/7/1 826/8/1 827/2/1 828/1/1
f 829/8/1 830/9/1 831/5/1 832/2/1
f 833/1/1 834/2/1 835/3/1 836/4/1
f 837/2/1 838/5/1 839/6/1 840/3/1
f 841/7/1 842/8/1 843/2/1 844/1/1
f 845/8/1 846/9/1 847/5/1 848/2/1
f 849/1/1 850/2/1 851/3/1 852/4/1
f 853/2/1 854/5/1 855/6/1 856/3/1
f 857/7/1 858/8/1 859/2/1 860/1/1
f 861/8/1 862/9/1 863/5/1 864/2/1

