# Tiled2Unity generated file. Do not modify by hand.
# Wavefront file for 'NewBadManor_mesh_0006.obj'

# Vertices (Count = 64)
v -23.68 -7.04 0
v -24.32 -7.04 0
v -24.32 -6.4 0
v -23.68 -6.4 0
v -24.32 -7.04 0
v -24.96 -7.04 0
v -24.96 -6.4 0
v -24.32 -6.4 0
v -33.92 -7.04 0
v -34.56 -7.04 0
v -34.56 -6.4 0
v -33.92 -6.4 0
v -34.56 -7.04 0
v -35.2 -7.04 0
v -35.2 -6.4 0
v -34.56 -6.4 0
v -44.16 -7.04 0
v -44.8 -7.04 0
v -44.8 -6.4 0
v -44.16 -6.4 0
v -44.8 -7.04 0
v -45.44 -7.04 0
v -45.44 -6.4 0
v -44.8 -6.4 0
v -54.4 -7.04 0
v -55.04 -7.04 0
v -55.04 -6.4 0
v -54.4 -6.4 0
v -55.04 -7.04 0
v -55.68 -7.04 0
v -55.68 -6.4 0
v -55.04 -6.4 0
v -55.68 -8.32 0
v -56.32 -8.32 0
v -56.32 -7.68 0
v -55.68 -7.68 0
v -56.32 -8.32 0
v -56.96 -8.32 0
v -56.96 -7.68 0
v -56.32 -7.68 0
v -1.92 -8.96 0
v -2.56 -8.96 0
v -2.56 -8.32 0
v -1.92 -8.32 0
v -2.56 -8.96 0
v -3.2 -8.96 0
v -3.2 -8.32 0
v -2.56 -8.32 0
v -12.16 -8.96 0
v -12.8 -8.96 0
v -12.8 -8.32 0
v -12.16 -8.32 0
v -12.8 -8.96 0
v -13.44 -8.96 0
v -13.44 -8.32 0
v -12.8 -8.32 0
v -22.4 -8.96 0
v -23.04 -8.96 0
v -23.04 -8.32 0
v -22.4 -8.32 0
v -23.04 -8.96 0
v -23.68 -8.96 0
v -23.68 -8.32 0
v -23.04 -8.32 0

# Texture cooridinates (Count = 15)
vt 0.4 0.875
vt 0.5 0.875
vt 0.5 1
vt 0.4 1
vt 0.6 0.875
vt 0.6 1
vt 0.4 0.75
vt 0.5 0.75
vt 0.6 0.75
vt 0.4 0.625
vt 0.5 0.625
vt 0.6 0.625
vt 0.4 0.5
vt 0.5 0.5
vt 0.6 0.5

# Normal
vn 0 0 -1

# Mesh description
g NewBadManor_mesh_0006

# Faces
f 1/1/1 2/2/1 3/3/1 4/4/1
f 5/2/1 6/5/1 7/6/1 8/3/1
f 9/7/1 10/8/1 11/2/1 12/1/1
f 13/8/1 14/9/1 15/5/1 16/2/1
f 17/10/1 18/11/1 19/8/1 20/7/1
f 21/11/1 22/12/1 23/9/1 24/8/1
f 25/13/1 26/14/1 27/11/1 28/10/1
f 29/14/1 30/15/1 31/12/1 32/11/1
f 33/1/1 34/2/1 35/3/1 36/4/1
f 37/2/1 38/5/1 39/6/1 40/3/1
f 41/7/1 42/8/1 43/2/1 44/1/1
f 45/8/1 46/9/1 47/5/1 48/2/1
f 49/10/1 50/11/1 51/8/1 52/7/1
f 53/11/1 54/12/1 55/9/1 56/8/1
f 57/13/1 58/14/1 59/11/1 60/10/1
f 61/14/1 62/15/1 63/12/1 64/11/1

