# Tiled2Unity generated file. Do not modify by hand.
# Wavefront file for 'NewBadManor_mesh_0126.obj'

# Vertices (Count = 64)
v 0 -0.32 -0.005780347
v -0.32 -0.32 -0.005780347
v -0.32 0 -0.005780347
v 0 0 -0.005780347
v 0 -0.64 -0.01156069
v -0.32 -0.64 -0.01156069
v -0.32 -0.32 -0.01156069
v 0 -0.32 -0.01156069
v 0 -0.96 -0.01734104
v -0.32 -0.96 -0.01734104
v -0.32 -0.64 -0.01734104
v 0 -0.64 -0.01734104
v 0 -1.28 -0.02312139
v -0.32 -1.28 -0.02312139
v -0.32 -0.96 -0.02312139
v 0 -0.96 -0.02312139
v 0 -1.6 -0.02890173
v -0.32 -1.6 -0.02890173
v -0.32 -1.28 -0.02890173
v 0 -1.28 -0.02890173
v 0 -1.92 -0.03468208
v -0.32 -1.92 -0.03468208
v -0.32 -1.6 -0.03468208
v 0 -1.6 -0.03468208
v 0 -2.24 -0.04046243
v -0.32 -2.24 -0.04046243
v -0.32 -1.92 -0.04046243
v 0 -1.92 -0.04046243
v 0 -2.56 -0.04624277
v -0.32 -2.56 -0.04624277
v -0.32 -2.24 -0.04624277
v 0 -2.24 -0.04624277
v 0 -2.88 -0.05202312
v -0.32 -2.88 -0.05202312
v -0.32 -2.56 -0.05202312
v 0 -2.56 -0.05202312
v 0 -3.2 -0.05780347
v -0.32 -3.2 -0.05780347
v -0.32 -2.88 -0.05780347
v 0 -2.88 -0.05780347
v 0 -3.52 -0.06358381
v -0.32 -3.52 -0.06358381
v -0.32 -3.2 -0.06358381
v 0 -3.2 -0.06358381
v 0 -3.84 -0.06936416
v -0.32 -3.84 -0.06936416
v -0.32 -3.52 -0.06936416
v 0 -3.52 -0.06936416
v 0 -4.16 -0.07514451
v -0.32 -4.16 -0.07514451
v -0.32 -3.84 -0.07514451
v 0 -3.84 -0.07514451
v 0 -4.48 -0.08092485
v -0.32 -4.48 -0.08092485
v -0.32 -4.16 -0.08092485
v 0 -4.16 -0.08092485
v 0 -4.8 -0.0867052
v -0.32 -4.8 -0.0867052
v -0.32 -4.48 -0.0867052
v 0 -4.48 -0.0867052
v 0 -5.12 -0.09248555
v -0.32 -5.12 -0.09248555
v -0.32 -4.8 -0.09248555
v 0 -4.8 -0.09248555

# Texture cooridinates (Count = 6)
vt 0.2083333 0.7333333
vt 0.25 0.7333333
vt 0.25 0.7666667
vt 0.2083333 0.7666667
vt 0.25 0.8
vt 0.2083333 0.8

# Normal
vn 0 0 -1

# Mesh description
g NewBadManor_mesh_0126

# Faces
f 1/1/1 2/2/1 3/3/1 4/4/1
f 5/4/1 6/3/1 7/5/1 8/6/1
f 9/1/1 10/2/1 11/3/1 12/4/1
f 13/4/1 14/3/1 15/5/1 16/6/1
f 17/1/1 18/2/1 19/3/1 20/4/1
f 21/4/1 22/3/1 23/5/1 24/6/1
f 25/1/1 26/2/1 27/3/1 28/4/1
f 29/4/1 30/3/1 31/5/1 32/6/1
f 33/1/1 34/2/1 35/3/1 36/4/1
f 37/4/1 38/3/1 39/5/1 40/6/1
f 41/1/1 42/2/1 43/3/1 44/4/1
f 45/4/1 46/3/1 47/5/1 48/6/1
f 49/1/1 50/2/1 51/3/1 52/4/1
f 53/4/1 54/3/1 55/5/1 56/6/1
f 57/1/1 58/2/1 59/3/1 60/4/1
f 61/4/1 62/3/1 63/5/1 64/6/1

