# Tiled2Unity generated file. Do not modify by hand.
# Wavefront file for 'NewBadManor_mesh_0080.obj'

# Vertices (Count = 128)
v -4.8 -0.32 -0.005780347
v -5.12 -0.32 -0.005780347
v -5.12 0 -0.005780347
v -4.8 0 -0.005780347
v -4.8 -0.64 -0.01156069
v -5.12 -0.64 -0.01156069
v -5.12 -0.32 -0.01156069
v -4.8 -0.32 -0.01156069
v -4.8 -0.96 -0.01734104
v -5.12 -0.96 -0.01734104
v -5.12 -0.64 -0.01734104
v -4.8 -0.64 -0.01734104
v -4.8 -1.28 -0.02312139
v -5.12 -1.28 -0.02312139
v -5.12 -0.96 -0.02312139
v -4.8 -0.96 -0.02312139
v -4.8 -1.6 -0.02890173
v -5.12 -1.6 -0.02890173
v -5.12 -1.28 -0.02890173
v -4.8 -1.28 -0.02890173
v -4.8 -1.92 -0.03468208
v -5.12 -1.92 -0.03468208
v -5.12 -1.6 -0.03468208
v -4.8 -1.6 -0.03468208
v -4.8 -2.24 -0.04046243
v -5.12 -2.24 -0.04046243
v -5.12 -1.92 -0.04046243
v -4.8 -1.92 -0.04046243
v -4.8 -2.56 -0.04624277
v -5.12 -2.56 -0.04624277
v -5.12 -2.24 -0.04624277
v -4.8 -2.24 -0.04624277
v -4.8 -2.88 -0.05202312
v -5.12 -2.88 -0.05202312
v -5.12 -2.56 -0.05202312
v -4.8 -2.56 -0.05202312
v -4.8 -3.2 -0.05780347
v -5.12 -3.2 -0.05780347
v -5.12 -2.88 -0.05780347
v -4.8 -2.88 -0.05780347
v -4.8 -3.52 -0.06358381
v -5.12 -3.52 -0.06358381
v -5.12 -3.2 -0.06358381
v -4.8 -3.2 -0.06358381
v -4.8 -3.84 -0.06936416
v -5.12 -3.84 -0.06936416
v -5.12 -3.52 -0.06936416
v -4.8 -3.52 -0.06936416
v -4.8 -4.16 -0.07514451
v -5.12 -4.16 -0.07514451
v -5.12 -3.84 -0.07514451
v -4.8 -3.84 -0.07514451
v -4.8 -4.48 -0.08092485
v -5.12 -4.48 -0.08092485
v -5.12 -4.16 -0.08092485
v -4.8 -4.16 -0.08092485
v -2.24 -4.8 -0.0867052
v -2.56 -4.8 -0.0867052
v -2.56 -4.48 -0.0867052
v -2.24 -4.48 -0.0867052
v -2.56 -4.8 -0.0867052
v -2.88 -4.8 -0.0867052
v -2.88 -4.48 -0.0867052
v -2.56 -4.48 -0.0867052
v -2.88 -4.8 -0.0867052
v -3.2 -4.8 -0.0867052
v -3.2 -4.48 -0.0867052
v -2.88 -4.48 -0.0867052
v -3.2 -4.8 -0.0867052
v -3.52 -4.8 -0.0867052
v -3.52 -4.48 -0.0867052
v -3.2 -4.48 -0.0867052
v -3.52 -4.8 -0.0867052
v -3.84 -4.8 -0.0867052
v -3.84 -4.48 -0.0867052
v -3.52 -4.48 -0.0867052
v -3.84 -4.8 -0.0867052
v -4.16 -4.8 -0.0867052
v -4.16 -4.48 -0.0867052
v -3.84 -4.48 -0.0867052
v -4.16 -4.8 -0.0867052
v -4.48 -4.8 -0.0867052
v -4.48 -4.48 -0.0867052
v -4.16 -4.48 -0.0867052
v -4.48 -4.8 -0.0867052
v -4.8 -4.8 -0.0867052
v -4.8 -4.48 -0.0867052
v -4.48 -4.48 -0.0867052
v -4.8 -4.8 -0.0867052
v -5.12 -4.8 -0.0867052
v -5.12 -4.48 -0.0867052
v -4.8 -4.48 -0.0867052
v -2.24 -5.12 -0.09248555
v -2.56 -5.12 -0.09248555
v -2.56 -4.8 -0.09248555
v -2.24 -4.8 -0.09248555
v -2.56 -5.12 -0.09248555
v -2.88 -5.12 -0.09248555
v -2.88 -4.8 -0.09248555
v -2.56 -4.8 -0.09248555
v -2.88 -5.12 -0.09248555
v -3.2 -5.12 -0.09248555
v -3.2 -4.8 -0.09248555
v -2.88 -4.8 -0.09248555
v -3.2 -5.12 -0.09248555
v -3.52 -5.12 -0.09248555
v -3.52 -4.8 -0.09248555
v -3.2 -4.8 -0.09248555
v -3.52 -5.12 -0.09248555
v -3.84 -5.12 -0.09248555
v -3.84 -4.8 -0.09248555
v -3.52 -4.8 -0.09248555
v -3.84 -5.12 -0.09248555
v -4.16 -5.12 -0.09248555
v -4.16 -4.8 -0.09248555
v -3.84 -4.8 -0.09248555
v -4.16 -5.12 -0.09248555
v -4.48 -5.12 -0.09248555
v -4.48 -4.8 -0.09248555
v -4.16 -4.8 -0.09248555
v -4.48 -5.12 -0.09248555
v -4.8 -5.12 -0.09248555
v -4.8 -4.8 -0.09248555
v -4.48 -4.8 -0.09248555
v -4.8 -5.12 -0.09248555
v -5.12 -5.12 -0.09248555
v -5.12 -4.8 -0.09248555
v -4.8 -4.8 -0.09248555

# Texture cooridinates (Count = 28)
vt 0.6 0.75
vt 0.65 0.75
vt 0.65 0.8
vt 0.6 0.8
vt 0.6 0.7
vt 0.65 0.7
vt 0.6 0.65
vt 0.65 0.65
vt 0.65 0.85
vt 0.6 0.85
vt 0.65 0.9
vt 0.6 0.9
vt 0.7 0.85
vt 0.7 0.9
vt 0.75 0.85
vt 0.75 0.9
vt 0.8 0.85
vt 0.8 0.9
vt 0.85 0.85
vt 0.85 0.9
vt 0.5 0.95
vt 0.55 0.95
vt 0.55 1
vt 0.5 1
vt 0.7 0.8
vt 0.75 0.8
vt 0.8 0.8
vt 0.85 0.8

# Normal
vn 0 0 -1

# Mesh description
g NewBadManor_mesh_0080

# Faces
f 1/1/1 2/2/1 3/3/1 4/4/1
f 5/5/1 6/6/1 7/2/1 8/1/1
f 9/7/1 10/8/1 11/6/1 12/5/1
f 13/4/1 14/3/1 15/9/1 16/10/1
f 17/1/1 18/2/1 19/3/1 20/4/1
f 21/5/1 22/6/1 23/2/1 24/1/1
f 25/7/1 26/8/1 27/6/1 28/5/1
f 29/4/1 30/3/1 31/9/1 32/10/1
f 33/1/1 34/2/1 35/3/1 36/4/1
f 37/5/1 38/6/1 39/2/1 40/1/1
f 41/7/1 42/8/1 43/6/1 44/5/1
f 45/4/1 46/3/1 47/9/1 48/10/1
f 49/1/1 50/2/1 51/3/1 52/4/1
f 53/5/1 54/6/1 55/2/1 56/1/1
f 57/10/1 58/9/1 59/11/1 60/12/1
f 61/9/1 62/13/1 63/14/1 64/11/1
f 65/13/1 66/15/1 67/16/1 68/14/1
f 69/15/1 70/17/1 71/18/1 72/16/1
f 73/17/1 74/19/1 75/20/1 76/18/1
f 77/9/1 78/13/1 79/14/1 80/11/1
f 81/13/1 82/15/1 83/16/1 84/14/1
f 85/15/1 86/17/1 87/18/1 88/16/1
f 89/21/1 90/22/1 91/23/1 92/24/1
f 93/4/1 94/3/1 95/9/1 96/10/1
f 97/3/1 98/25/1 99/13/1 100/9/1
f 101/25/1 102/26/1 103/15/1 104/13/1
f 105/26/1 106/27/1 107/17/1 108/15/1
f 109/27/1 110/28/1 111/19/1 112/17/1
f 113/3/1 114/25/1 115/13/1 116/9/1
f 117/25/1 118/26/1 119/15/1 120/13/1
f 121/26/1 122/27/1 123/17/1 124/15/1
f 125/27/1 126/28/1 127/19/1 128/17/1

