# Tiled2Unity generated file. Do not modify by hand.
# Wavefront file for 'NewBadManor_mesh_0047.obj'

# Vertices (Count = 576)
v -32.64 -1.92 0
v -33.28 -1.92 0
v -33.28 -1.28 0
v -32.64 -1.28 0
v -33.28 -1.92 0
v -33.92 -1.92 0
v -33.92 -1.28 0
v -33.28 -1.28 0
v -33.92 -1.92 0
v -34.56 -1.92 0
v -34.56 -1.28 0
v -33.92 -1.28 0
v -34.56 -1.92 0
v -35.2 -1.92 0
v -35.2 -1.28 0
v -34.56 -1.28 0
v -35.2 -1.92 0
v -35.84 -1.92 0
v -35.84 -1.28 0
v -35.2 -1.28 0
v -60.16 -3.2 0
v -60.8 -3.2 0
v -60.8 -2.56 0
v -60.16 -2.56 0
v -60.8 -3.2 0
v -61.44 -3.2 0
v -61.44 -2.56 0
v -60.8 -2.56 0
v -61.44 -3.2 0
v -62.08 -3.2 0
v -62.08 -2.56 0
v -61.44 -2.56 0
v -6.4 -3.84 0
v -7.04 -3.84 0
v -7.04 -3.2 0
v -6.4 -3.2 0
v -7.04 -3.84 0
v -7.68 -3.84 0
v -7.68 -3.2 0
v -7.04 -3.2 0
v -23.04 -5.12 0
v -23.68 -5.12 0
v -23.68 -4.48 0
v -23.04 -4.48 0
v -23.68 -5.12 0
v -24.32 -5.12 0
v -24.32 -4.48 0
v -23.68 -4.48 0
v -24.32 -5.12 0
v -24.96 -5.12 0
v -24.96 -4.48 0
v -24.32 -4.48 0
v -24.96 -5.12 0
v -25.6 -5.12 0
v -25.6 -4.48 0
v -24.96 -4.48 0
v -33.28 -5.12 0
v -33.92 -5.12 0
v -33.92 -4.48 0
v -33.28 -4.48 0
v -33.92 -5.12 0
v -34.56 -5.12 0
v -34.56 -4.48 0
v -33.92 -4.48 0
v -34.56 -5.12 0
v -35.2 -5.12 0
v -35.2 -4.48 0
v -34.56 -4.48 0
v -35.2 -5.12 0
v -35.84 -5.12 0
v -35.84 -4.48 0
v -35.2 -4.48 0
v -50.56 -5.12 0
v -51.2 -5.12 0
v -51.2 -4.48 0
v -50.56 -4.48 0
v -51.2 -5.12 0
v -51.84 -5.12 0
v -51.84 -4.48 0
v -51.2 -4.48 0
v -51.84 -5.12 0
v -52.48 -5.12 0
v -52.48 -4.48 0
v -51.84 -4.48 0
v -52.48 -5.12 0
v -53.12 -5.12 0
v -53.12 -4.48 0
v -52.48 -4.48 0
v -53.12 -5.12 0
v -53.76 -5.12 0
v -53.76 -4.48 0
v -53.12 -4.48 0
v -60.8 -5.12 0
v -61.44 -5.12 0
v -61.44 -4.48 0
v -60.8 -4.48 0
v -61.44 -5.12 0
v -62.08 -5.12 0
v -62.08 -4.48 0
v -61.44 -4.48 0
v -62.08 -5.12 0
v -62.72 -5.12 0
v -62.72 -4.48 0
v -62.08 -4.48 0
v -62.72 -5.12 0
v -63.36 -5.12 0
v -63.36 -4.48 0
v -62.72 -4.48 0
v -63.36 -5.12 0
v -64 -5.12 0
v -64 -4.48 0
v -63.36 -4.48 0
v -7.04 -5.76 0
v -7.68 -5.76 0
v -7.68 -5.12 0
v -7.04 -5.12 0
v -7.68 -5.76 0
v -8.32 -5.76 0
v -8.32 -5.12 0
v -7.68 -5.12 0
v -8.32 -5.76 0
v -8.96 -5.76 0
v -8.96 -5.12 0
v -8.32 -5.12 0
v -8.96 -5.76 0
v -9.599999 -5.76 0
v -9.599999 -5.12 0
v -8.96 -5.12 0
v -9.599999 -5.76 0
v -10.24 -5.76 0
v -10.24 -5.12 0
v -9.599999 -5.12 0
v -17.28 -5.76 0
v -17.92 -5.76 0
v -17.92 -5.12 0
v -17.28 -5.12 0
v -17.92 -5.76 0
v -18.56 -5.76 0
v -18.56 -5.12 0
v -17.92 -5.12 0
v -18.56 -5.76 0
v -19.2 -5.76 0
v -19.2 -5.12 0
v -18.56 -5.12 0
v -19.2 -5.76 0
v -19.84 -5.76 0
v -19.84 -5.12 0
v -19.2 -5.12 0
v -19.84 -5.76 0
v -20.48 -5.76 0
v -20.48 -5.12 0
v -19.84 -5.12 0
v -27.52 -5.76 0
v -28.16 -5.76 0
v -28.16 -5.12 0
v -27.52 -5.12 0
v -28.16 -5.76 0
v -28.8 -5.76 0
v -28.8 -5.12 0
v -28.16 -5.12 0
v -28.8 -5.76 0
v -29.44 -5.76 0
v -29.44 -5.12 0
v -28.8 -5.12 0
v -29.44 -5.76 0
v -30.08 -5.76 0
v -30.08 -5.12 0
v -29.44 -5.12 0
v -30.08 -5.76 0
v -30.72 -5.76 0
v -30.72 -5.12 0
v -30.08 -5.12 0
v -48 -5.76 0
v -48.64 -5.76 0
v -48.64 -5.12 0
v -48 -5.12 0
v -48.64 -5.76 0
v -49.28 -5.76 0
v -49.28 -5.12 0
v -48.64 -5.12 0
v -49.28 -5.76 0
v -49.92 -5.76 0
v -49.92 -5.12 0
v -49.28 -5.12 0
v -49.92 -5.76 0
v -50.56 -5.76 0
v -50.56 -5.12 0
v -49.92 -5.12 0
v -50.56 -5.76 0
v -51.2 -5.76 0
v -51.2 -5.12 0
v -50.56 -5.12 0
v -58.24 -5.76 0
v -58.88 -5.76 0
v -58.88 -5.12 0
v -58.24 -5.12 0
v -58.88 -5.76 0
v -59.52 -5.76 0
v -59.52 -5.12 0
v -58.88 -5.12 0
v -59.52 -5.76 0
v -60.16 -5.76 0
v -60.16 -5.12 0
v -59.52 -5.12 0
v -60.16 -5.76 0
v -60.8 -5.76 0
v -60.8 -5.12 0
v -60.16 -5.12 0
v -60.8 -5.76 0
v -61.44 -5.76 0
v -61.44 -5.12 0
v -60.8 -5.12 0
v -4.48 -6.4 0
v -5.12 -6.4 0
v -5.12 -5.76 0
v -4.48 -5.76 0
v -5.12 -6.4 0
v -5.76 -6.4 0
v -5.76 -5.76 0
v -5.12 -5.76 0
v -5.76 -6.4 0
v -6.4 -6.4 0
v -6.4 -5.76 0
v -5.76 -5.76 0
v -6.4 -6.4 0
v -7.04 -6.4 0
v -7.04 -5.76 0
v -6.4 -5.76 0
v -7.04 -6.4 0
v -7.68 -6.4 0
v -7.68 -5.76 0
v -7.04 -5.76 0
v -14.72 -6.4 0
v -15.36 -6.4 0
v -15.36 -5.76 0
v -14.72 -5.76 0
v -15.36 -6.4 0
v -16 -6.4 0
v -16 -5.76 0
v -15.36 -5.76 0
v -16 -6.4 0
v -16.64 -6.4 0
v -16.64 -5.76 0
v -16 -5.76 0
v -16.64 -6.4 0
v -17.28 -6.4 0
v -17.28 -5.76 0
v -16.64 -5.76 0
v -17.28 -6.4 0
v -17.92 -6.4 0
v -17.92 -5.76 0
v -17.28 -5.76 0
v -24.96 -6.4 0
v -25.6 -6.4 0
v -25.6 -5.76 0
v -24.96 -5.76 0
v -25.6 -6.4 0
v -26.24 -6.4 0
v -26.24 -5.76 0
v -25.6 -5.76 0
v -26.24 -6.4 0
v -26.88 -6.4 0
v -26.88 -5.76 0
v -26.24 -5.76 0
v -26.88 -6.4 0
v -27.52 -6.4 0
v -27.52 -5.76 0
v -26.88 -5.76 0
v -27.52 -6.4 0
v -28.16 -6.4 0
v -28.16 -5.76 0
v -27.52 -5.76 0
v -35.2 -6.4 0
v -35.84 -6.4 0
v -35.84 -5.76 0
v -35.2 -5.76 0
v -35.84 -6.4 0
v -36.48 -6.4 0
v -36.48 -5.76 0
v -35.84 -5.76 0
v -36.48 -6.4 0
v -37.12 -6.4 0
v -37.12 -5.76 0
v -36.48 -5.76 0
v -37.12 -6.4 0
v -37.76 -6.4 0
v -37.76 -5.76 0
v -37.12 -5.76 0
v -37.76 -6.4 0
v -38.4 -6.4 0
v -38.4 -5.76 0
v -37.76 -5.76 0
v -15.36 -7.04 0
v -16 -7.04 0
v -16 -6.4 0
v -15.36 -6.4 0
v -24.32 -7.04 0
v -24.96 -7.04 0
v -24.96 -6.4 0
v -24.32 -6.4 0
v -24.96 -7.04 0
v -25.6 -7.04 0
v -25.6 -6.4 0
v -24.96 -6.4 0
v -25.6 -7.04 0
v -26.24 -7.04 0
v -26.24 -6.4 0
v -25.6 -6.4 0
v -34.56 -7.04 0
v -35.2 -7.04 0
v -35.2 -6.4 0
v -34.56 -6.4 0
v -35.2 -7.04 0
v -35.84 -7.04 0
v -35.84 -6.4 0
v -35.2 -6.4 0
v -35.84 -7.04 0
v -36.48 -7.04 0
v -36.48 -6.4 0
v -35.84 -6.4 0
v -44.8 -7.04 0
v -45.44 -7.04 0
v -45.44 -6.4 0
v -44.8 -6.4 0
v -45.44 -7.04 0
v -46.08 -7.04 0
v -46.08 -6.4 0
v -45.44 -6.4 0
v -46.08 -7.04 0
v -46.72 -7.04 0
v -46.72 -6.4 0
v -46.08 -6.4 0
v -55.04 -7.04 0
v -55.68 -7.04 0
v -55.68 -6.4 0
v -55.04 -6.4 0
v -55.68 -7.04 0
v -56.32 -7.04 0
v -56.32 -6.4 0
v -55.68 -6.4 0
v -56.32 -7.04 0
v -56.96 -7.04 0
v -56.96 -6.4 0
v -56.32 -6.4 0
v -12.8 -7.68 0
v -13.44 -7.68 0
v -13.44 -7.04 0
v -12.8 -7.04 0
v -21.76 -7.68 0
v -22.4 -7.68 0
v -22.4 -7.04 0
v -21.76 -7.04 0
v -22.4 -7.68 0
v -23.04 -7.68 0
v -23.04 -7.04 0
v -22.4 -7.04 0
v -23.04 -7.68 0
v -23.68 -7.68 0
v -23.68 -7.04 0
v -23.04 -7.04 0
v -32 -7.68 0
v -32.64 -7.68 0
v -32.64 -7.04 0
v -32 -7.04 0
v -32.64 -7.68 0
v -33.28 -7.68 0
v -33.28 -7.04 0
v -32.64 -7.04 0
v -33.28 -7.68 0
v -33.92 -7.68 0
v -33.92 -7.04 0
v -33.28 -7.04 0
v -42.24 -7.68 0
v -42.88 -7.68 0
v -42.88 -7.04 0
v -42.24 -7.04 0
v -42.88 -7.68 0
v -43.52 -7.68 0
v -43.52 -7.04 0
v -42.88 -7.04 0
v -43.52 -7.68 0
v -44.16 -7.68 0
v -44.16 -7.04 0
v -43.52 -7.04 0
v -52.48 -7.68 0
v -53.12 -7.68 0
v -53.12 -7.04 0
v -52.48 -7.04 0
v -53.12 -7.68 0
v -53.76 -7.68 0
v -53.76 -7.04 0
v -53.12 -7.04 0
v -53.76 -7.68 0
v -54.4 -7.68 0
v -54.4 -7.04 0
v -53.76 -7.04 0
v -62.72 -7.68 0
v -63.36 -7.68 0
v -63.36 -7.04 0
v -62.72 -7.04 0
v -63.36 -7.68 0
v -64 -7.68 0
v -64 -7.04 0
v -63.36 -7.04 0
v 0 -8.32 0
v -0.64 -8.32 0
v -0.64 -7.68 0
v 0 -7.68 0
v -8.96 -8.32 0
v -9.599999 -8.32 0
v -9.599999 -7.68 0
v -8.96 -7.68 0
v -9.599999 -8.32 0
v -10.24 -8.32 0
v -10.24 -7.68 0
v -9.599999 -7.68 0
v -51.2 -8.32 0
v -51.84 -8.32 0
v -51.84 -7.68 0
v -51.2 -7.68 0
v -51.84 -8.32 0
v -52.48 -8.32 0
v -52.48 -7.68 0
v -51.84 -7.68 0
v -52.48 -8.32 0
v -53.12 -8.32 0
v -53.12 -7.68 0
v -52.48 -7.68 0
v -53.12 -8.32 0
v -53.76 -8.32 0
v -53.76 -7.68 0
v -53.12 -7.68 0
v -61.44 -8.32 0
v -62.08 -8.32 0
v -62.08 -7.68 0
v -61.44 -7.68 0
v -62.08 -8.32 0
v -62.72 -8.32 0
v -62.72 -7.68 0
v -62.08 -7.68 0
v -62.72 -8.32 0
v -63.36 -8.32 0
v -63.36 -7.68 0
v -62.72 -7.68 0
v -63.36 -8.32 0
v -64 -8.32 0
v -64 -7.68 0
v -63.36 -7.68 0
v -7.68 -8.96 0
v -8.32 -8.96 0
v -8.32 -8.32 0
v -7.68 -8.32 0
v -8.32 -8.96 0
v -8.96 -8.96 0
v -8.96 -8.32 0
v -8.32 -8.32 0
v -8.96 -8.96 0
v -9.599999 -8.96 0
v -9.599999 -8.32 0
v -8.96 -8.32 0
v -9.599999 -8.96 0
v -10.24 -8.96 0
v -10.24 -8.32 0
v -9.599999 -8.32 0
v -17.92 -8.96 0
v -18.56 -8.96 0
v -18.56 -8.32 0
v -17.92 -8.32 0
v -18.56 -8.96 0
v -19.2 -8.96 0
v -19.2 -8.32 0
v -18.56 -8.32 0
v -19.2 -8.96 0
v -19.84 -8.96 0
v -19.84 -8.32 0
v -19.2 -8.32 0
v -19.84 -8.96 0
v -20.48 -8.96 0
v -20.48 -8.32 0
v -19.84 -8.32 0
v -48.64 -8.96 0
v -49.28 -8.96 0
v -49.28 -8.32 0
v -48.64 -8.32 0
v -49.28 -8.96 0
v -49.92 -8.96 0
v -49.92 -8.32 0
v -49.28 -8.32 0
v -49.92 -8.96 0
v -50.56 -8.96 0
v -50.56 -8.32 0
v -49.92 -8.32 0
v -50.56 -8.96 0
v -51.2 -8.96 0
v -51.2 -8.32 0
v -50.56 -8.32 0
v -58.88 -8.96 0
v -59.52 -8.96 0
v -59.52 -8.32 0
v -58.88 -8.32 0
v -59.52 -8.96 0
v -60.16 -8.96 0
v -60.16 -8.32 0
v -59.52 -8.32 0
v -60.16 -8.96 0
v -60.8 -8.96 0
v -60.8 -8.32 0
v -60.16 -8.32 0
v -60.8 -8.96 0
v -61.44 -8.96 0
v -61.44 -8.32 0
v -60.8 -8.32 0
v -5.12 -9.599999 0
v -5.76 -9.599999 0
v -5.76 -8.96 0
v -5.12 -8.96 0
v -5.76 -9.599999 0
v -6.4 -9.599999 0
v -6.4 -8.96 0
v -5.76 -8.96 0
v -6.4 -9.599999 0
v -7.04 -9.599999 0
v -7.04 -8.96 0
v -6.4 -8.96 0
v -7.04 -9.599999 0
v -7.68 -9.599999 0
v -7.68 -8.96 0
v -7.04 -8.96 0
v -15.36 -9.599999 0
v -16 -9.599999 0
v -16 -8.96 0
v -15.36 -8.96 0
v -16 -9.599999 0
v -16.64 -9.599999 0
v -16.64 -8.96 0
v -16 -8.96 0
v -16.64 -9.599999 0
v -17.28 -9.599999 0
v -17.28 -8.96 0
v -16.64 -8.96 0
v -17.28 -9.599999 0
v -17.92 -9.599999 0
v -17.92 -8.96 0
v -17.28 -8.96 0
v -25.6 -9.599999 0
v -26.24 -9.599999 0
v -26.24 -8.96 0
v -25.6 -8.96 0
v -26.24 -9.599999 0
v -26.88 -9.599999 0
v -26.88 -8.96 0
v -26.24 -8.96 0
v -26.88 -9.599999 0
v -27.52 -9.599999 0
v -27.52 -8.96 0
v -26.88 -8.96 0
v -27.52 -9.599999 0
v -28.16 -9.599999 0
v -28.16 -8.96 0
v -27.52 -8.96 0
v -35.84 -9.599999 0
v -36.48 -9.599999 0
v -36.48 -8.96 0
v -35.84 -8.96 0
v -36.48 -9.599999 0
v -37.12 -9.599999 0
v -37.12 -8.96 0
v -36.48 -8.96 0
v -37.12 -9.599999 0
v -37.76 -9.599999 0
v -37.76 -8.96 0
v -37.12 -8.96 0
v -37.76 -9.599999 0
v -38.4 -9.599999 0
v -38.4 -8.96 0
v -37.76 -8.96 0

# Texture cooridinates (Count = 98)
vt 0.5 0.4285714
vt 0.5833333 0.4285714
vt 0.5833333 0.5
vt 0.5 0.5
vt 0.6666667 0.4285714
vt 0.6666667 0.5
vt 0.75 0.4285714
vt 0.75 0.5
vt 0.8333333 0.4285714
vt 0.8333333 0.5
vt 0.9166667 0.4285714
vt 0.9166667 0.5
vt 0.5 0.9285714
vt 0.5833333 0.9285714
vt 0.5833333 1
vt 0.5 1
vt 0.6666667 0.9285714
vt 0.6666667 1
vt 1 0.4285714
vt 1 0.5
vt 0.5 0.8571429
vt 0.5833333 0.8571429
vt 0.6666667 0.8571429
vt 0.75 0.9285714
vt 0.75 1
vt 0.8333333 0.9285714
vt 0.8333333 1
vt 0.9166667 0.9285714
vt 0.9166667 1
vt 1 0.9285714
vt 1 1
vt 0.75 0.8571429
vt 0.8333333 0.8571429
vt 0.9166667 0.8571429
vt 1 0.8571429
vt 0.5 0.3571429
vt 0.5833333 0.3571429
vt 0.6666667 0.3571429
vt 0.75 0.3571429
vt 0.8333333 0.3571429
vt 0.9166667 0.3571429
vt 0.5 0.2857143
vt 0.5833333 0.2857143
vt 0.6666667 0.2857143
vt 0.75 0.2857143
vt 0.8333333 0.2857143
vt 0.9166667 0.2857143
vt 0.5 0.2142857
vt 0.5833333 0.2142857
vt 0.6666667 0.2142857
vt 0.75 0.2142857
vt 0.8333333 0.2142857
vt 0.9166667 0.2142857
vt 0.5 0.1428571
vt 0.5833333 0.1428571
vt 0.6666667 0.1428571
vt 0.75 0.1428571
vt 0.8333333 0.1428571
vt 0.9166667 0.1428571
vt 0.5 0.0714286
vt 0.5833333 0.0714286
vt 0.6666667 0.0714286
vt 0.75 0.0714286
vt 0.8333333 0.0714286
vt 0.9166667 0.0714286
vt 1 0.3571429
vt 0.5 0.7857143
vt 0.5833333 0.7857143
vt 0.6666667 0.7857143
vt 1 0.2857143
vt 0.5 0.7142857
vt 0.5833333 0.7142857
vt 0.6666667 0.7142857
vt 1 0.2142857
vt 0.5 0.6428571
vt 0.5833333 0.6428571
vt 0.6666667 0.6428571
vt 1 0.1428571
vt 0.5 0.5714285
vt 0.5833333 0.5714285
vt 0.6666667 0.5714285
vt 1 0.0714286
vt 0.75 0.7857143
vt 0.8333333 0.7857143
vt 0.9166667 0.7857143
vt 1 0.7857143
vt 0.75 0.7142857
vt 0.8333333 0.7142857
vt 0.9166667 0.7142857
vt 1 0.7142857
vt 0.75 0.6428571
vt 0.8333333 0.6428571
vt 0.9166667 0.6428571
vt 1 0.6428571
vt 0.75 0.5714285
vt 0.8333333 0.5714285
vt 0.9166667 0.5714285
vt 1 0.5714285

# Normal
vn 0 0 -1

# Mesh description
g NewBadManor_mesh_0047

# Faces
f 1/1/1 2/2/1 3/3/1 4/4/1
f 5/2/1 6/5/1 7/6/1 8/3/1
f 9/5/1 10/7/1 11/8/1 12/6/1
f 13/7/1 14/9/1 15/10/1 16/8/1
f 17/9/1 18/11/1 19/12/1 20/10/1
f 21/13/1 22/14/1 23/15/1 24/16/1
f 25/14/1 26/17/1 27/18/1 28/15/1
f 29/11/1 30/19/1 31/20/1 32/12/1
f 33/21/1 34/22/1 35/14/1 36/13/1
f 37/22/1 38/23/1 39/17/1 40/14/1
f 41/17/1 42/24/1 43/25/1 44/18/1
f 45/24/1 46/26/1 47/27/1 48/25/1
f 49/26/1 50/28/1 51/29/1 52/27/1
f 53/28/1 54/30/1 55/31/1 56/29/1
f 57/23/1 58/32/1 59/24/1 60/17/1
f 61/32/1 62/33/1 63/26/1 64/24/1
f 65/33/1 66/34/1 67/28/1 68/26/1
f 69/34/1 70/35/1 71/30/1 72/28/1
f 73/36/1 74/37/1 75/2/1 76/1/1
f 77/37/1 78/38/1 79/5/1 80/2/1
f 81/38/1 82/39/1 83/7/1 84/5/1
f 85/39/1 86/40/1 87/9/1 88/7/1
f 89/40/1 90/41/1 91/11/1 92/9/1
f 93/42/1 94/43/1 95/37/1 96/36/1
f 97/43/1 98/44/1 99/38/1 100/37/1
f 101/44/1 102/45/1 103/39/1 104/38/1
f 105/45/1 106/46/1 107/40/1 108/39/1
f 109/46/1 110/47/1 111/41/1 112/40/1
f 113/48/1 114/49/1 115/43/1 116/42/1
f 117/49/1 118/50/1 119/44/1 120/43/1
f 121/50/1 122/51/1 123/45/1 124/44/1
f 125/51/1 126/52/1 127/46/1 128/45/1
f 129/52/1 130/53/1 131/47/1 132/46/1
f 133/54/1 134/55/1 135/49/1 136/48/1
f 137/55/1 138/56/1 139/50/1 140/49/1
f 141/56/1 142/57/1 143/51/1 144/50/1
f 145/57/1 146/58/1 147/52/1 148/51/1
f 149/58/1 150/59/1 151/53/1 152/52/1
f 153/60/1 154/61/1 155/55/1 156/54/1
f 157/61/1 158/62/1 159/56/1 160/55/1
f 161/62/1 162/63/1 163/57/1 164/56/1
f 165/63/1 166/64/1 167/58/1 168/57/1
f 169/64/1 170/65/1 171/59/1 172/58/1
f 173/1/1 174/2/1 175/3/1 176/4/1
f 177/2/1 178/5/1 179/6/1 180/3/1
f 181/5/1 182/7/1 183/8/1 184/6/1
f 185/7/1 186/9/1 187/10/1 188/8/1
f 189/9/1 190/11/1 191/12/1 192/10/1
f 193/36/1 194/37/1 195/2/1 196/1/1
f 197/37/1 198/38/1 199/5/1 200/2/1
f 201/38/1 202/39/1 203/7/1 204/5/1
f 205/39/1 206/40/1 207/9/1 208/7/1
f 209/40/1 210/41/1 211/11/1 212/9/1
f 213/42/1 214/43/1 215/37/1 216/36/1
f 217/43/1 218/44/1 219/38/1 220/37/1
f 221/44/1 222/45/1 223/39/1 224/38/1
f 225/45/1 226/46/1 227/40/1 228/39/1
f 229/46/1 230/47/1 231/41/1 232/40/1
f 233/48/1 234/49/1 235/43/1 236/42/1
f 237/49/1 238/50/1 239/44/1 240/43/1
f 241/50/1 242/51/1 243/45/1 244/44/1
f 245/51/1 246/52/1 247/46/1 248/45/1
f 249/52/1 250/53/1 251/47/1 252/46/1
f 253/54/1 254/55/1 255/49/1 256/48/1
f 257/55/1 258/56/1 259/50/1 260/49/1
f 261/56/1 262/57/1 263/51/1 264/50/1
f 265/57/1 266/58/1 267/52/1 268/51/1
f 269/58/1 270/59/1 271/53/1 272/52/1
f 273/60/1 274/61/1 275/55/1 276/54/1
f 277/61/1 278/62/1 279/56/1 280/55/1
f 281/62/1 282/63/1 283/57/1 284/56/1
f 285/63/1 286/64/1 287/58/1 288/57/1
f 289/64/1 290/65/1 291/59/1 292/58/1
f 293/41/1 294/66/1 295/19/1 296/11/1
f 297/67/1 298/68/1 299/22/1 300/21/1
f 301/68/1 302/69/1 303/23/1 304/22/1
f 305/47/1 306/70/1 307/66/1 308/41/1
f 309/71/1 310/72/1 311/68/1 312/67/1
f 313/72/1 314/73/1 315/69/1 316/68/1
f 317/53/1 318/74/1 319/70/1 320/47/1
f 321/75/1 322/76/1 323/72/1 324/71/1
f 325/76/1 326/77/1 327/73/1 328/72/1
f 329/59/1 330/78/1 331/74/1 332/53/1
f 333/79/1 334/80/1 335/76/1 336/75/1
f 337/80/1 338/81/1 339/77/1 340/76/1
f 341/65/1 342/82/1 343/78/1 344/59/1
f 345/11/1 346/19/1 347/20/1 348/12/1
f 349/13/1 350/14/1 351/15/1 352/16/1
f 353/14/1 354/17/1 355/18/1 356/15/1
f 357/41/1 358/66/1 359/19/1 360/11/1
f 361/21/1 362/22/1 363/14/1 364/13/1
f 365/22/1 366/23/1 367/17/1 368/14/1
f 369/47/1 370/70/1 371/66/1 372/41/1
f 373/67/1 374/68/1 375/22/1 376/21/1
f 377/68/1 378/69/1 379/23/1 380/22/1
f 381/53/1 382/74/1 383/70/1 384/47/1
f 385/71/1 386/72/1 387/68/1 388/67/1
f 389/72/1 390/73/1 391/69/1 392/68/1
f 393/59/1 394/78/1 395/74/1 396/53/1
f 397/75/1 398/76/1 399/72/1 400/71/1
f 401/76/1 402/77/1 403/73/1 404/72/1
f 405/65/1 406/82/1 407/78/1 408/59/1
f 409/79/1 410/80/1 411/76/1 412/75/1
f 413/80/1 414/81/1 415/77/1 416/76/1
f 417/69/1 418/83/1 419/32/1 420/23/1
f 421/83/1 422/84/1 423/33/1 424/32/1
f 425/84/1 426/85/1 427/34/1 428/33/1
f 429/85/1 430/86/1 431/35/1 432/34/1
f 433/73/1 434/87/1 435/83/1 436/69/1
f 437/87/1 438/88/1 439/84/1 440/83/1
f 441/88/1 442/89/1 443/85/1 444/84/1
f 445/89/1 446/90/1 447/86/1 448/85/1
f 449/77/1 450/91/1 451/87/1 452/73/1
f 453/91/1 454/92/1 455/88/1 456/87/1
f 457/92/1 458/93/1 459/89/1 460/88/1
f 461/93/1 462/94/1 463/90/1 464/89/1
f 465/81/1 466/95/1 467/91/1 468/77/1
f 469/95/1 470/96/1 471/92/1 472/91/1
f 473/96/1 474/97/1 475/93/1 476/92/1
f 477/97/1 478/98/1 479/94/1 480/93/1
f 481/17/1 482/24/1 483/25/1 484/18/1
f 485/24/1 486/26/1 487/27/1 488/25/1
f 489/26/1 490/28/1 491/29/1 492/27/1
f 493/28/1 494/30/1 495/31/1 496/29/1
f 497/23/1 498/32/1 499/24/1 500/17/1
f 501/32/1 502/33/1 503/26/1 504/24/1
f 505/33/1 506/34/1 507/28/1 508/26/1
f 509/34/1 510/35/1 511/30/1 512/28/1
f 513/69/1 514/83/1 515/32/1 516/23/1
f 517/83/1 518/84/1 519/33/1 520/32/1
f 521/84/1 522/85/1 523/34/1 524/33/1
f 525/85/1 526/86/1 527/35/1 528/34/1
f 529/73/1 530/87/1 531/83/1 532/69/1
f 533/87/1 534/88/1 535/84/1 536/83/1
f 537/88/1 538/89/1 539/85/1 540/84/1
f 541/89/1 542/90/1 543/86/1 544/85/1
f 545/77/1 546/91/1 547/87/1 548/73/1
f 549/91/1 550/92/1 551/88/1 552/87/1
f 553/92/1 554/93/1 555/89/1 556/88/1
f 557/93/1 558/94/1 559/90/1 560/89/1
f 561/81/1 562/95/1 563/91/1 564/77/1
f 565/95/1 566/96/1 567/92/1 568/91/1
f 569/96/1 570/97/1 571/93/1 572/92/1
f 573/97/1 574/98/1 575/94/1 576/93/1

