# Tiled2Unity generated file. Do not modify by hand.
# Wavefront file for 'NewBadManor_mesh_0103.obj'

# Vertices (Count = 32)
v -3.84 -2.56 -0.04624277
v -4.16 -2.56 -0.04624277
v -4.16 -2.24 -0.04624277
v -3.84 -2.24 -0.04624277
v -4.16 -2.56 -0.04624277
v -4.48 -2.56 -0.04624277
v -4.48 -2.24 -0.04624277
v -4.16 -2.24 -0.04624277
v -2.24 -2.88 -0.05202312
v -2.56 -2.88 -0.05202312
v -2.56 -2.56 -0.05202312
v -2.24 -2.56 -0.05202312
v -2.56 -2.88 -0.05202312
v -2.88 -2.88 -0.05202312
v -2.88 -2.56 -0.05202312
v -2.56 -2.56 -0.05202312
v -3.84 -2.88 -0.05202312
v -4.16 -2.88 -0.05202312
v -4.16 -2.56 -0.05202312
v -3.84 -2.56 -0.05202312
v -4.16 -2.88 -0.05202312
v -4.48 -2.88 -0.05202312
v -4.48 -2.56 -0.05202312
v -4.16 -2.56 -0.05202312
v -2.24 -3.2 -0.05780347
v -2.56 -3.2 -0.05780347
v -2.56 -2.88 -0.05780347
v -2.24 -2.88 -0.05780347
v -2.56 -3.2 -0.05780347
v -2.88 -3.2 -0.05780347
v -2.88 -2.88 -0.05780347
v -2.56 -2.88 -0.05780347

# Texture cooridinates (Count = 11)
vt 1 0.875
vt 0.75 0.875
vt 0.75 0.75
vt 1 0.75
vt 1 0.625
vt 0.75 0.625
vt 0.5 0.625
vt 0.5 0.75
vt 1 0.5
vt 0.75 0.5
vt 0.5 0.5

# Normal
vn 0 0 -1

# Mesh description
g NewBadManor_mesh_0103

# Faces
f 1/1/1 2/2/1 3/3/1 4/4/1
f 5/2/1 6/1/1 7/4/1 8/3/1
f 9/5/1 10/6/1 11/3/1 12/4/1
f 13/6/1 14/7/1 15/8/1 16/3/1
f 17/4/1 18/3/1 19/2/1 20/1/1
f 21/3/1 22/4/1 23/1/1 24/2/1
f 25/9/1 26/10/1 27/6/1 28/5/1
f 29/10/1 30/11/1 31/7/1 32/6/1

