# Tiled2Unity generated file. Do not modify by hand.
# Wavefront file for 'BasementSecurity_mesh_0004.obj'

# Vertices (Count = 16)
v -21.12 -4.48 0
v -21.76 -4.48 0
v -21.76 -3.84 0
v -21.12 -3.84 0
v -21.76 -4.48 0
v -22.4 -4.48 0
v -22.4 -3.84 0
v -21.76 -3.84 0
v -21.12 -5.12 0
v -21.76 -5.12 0
v -21.76 -4.48 0
v -21.12 -4.48 0
v -21.76 -5.12 0
v -22.4 -5.12 0
v -22.4 -4.48 0
v -21.76 -4.48 0

# Texture cooridinates (Count = 9)
vt 0 0.5
vt 0.25 0.5
vt 0.25 1
vt 0 1
vt 0.5 0.5
vt 0.5 1
vt 0 0
vt 0.25 0
vt 0.5 0

# Normal
vn 0 0 -1

# Mesh description
g BasementSecurity_mesh_0004

# Faces
f 1/1/1 2/2/1 3/3/1 4/4/1
f 5/2/1 6/5/1 7/6/1 8/3/1
f 9/7/1 10/8/1 11/2/1 12/1/1
f 13/8/1 14/9/1 15/5/1 16/2/1

