# Tiled2Unity generated file. Do not modify by hand.
# Wavefront file for 'BasementSecurity_mesh_0005.obj'

# Vertices (Count = 80)
v -8.96 -7.68 0
v -9.599999 -7.68 0
v -9.599999 -7.04 0
v -8.96 -7.04 0
v -9.599999 -7.68 0
v -10.24 -7.68 0
v -10.24 -7.04 0
v -9.599999 -7.04 0
v -8.96 -8.32 0
v -9.599999 -8.32 0
v -9.599999 -7.68 0
v -8.96 -7.68 0
v -9.599999 -8.32 0
v -10.24 -8.32 0
v -10.24 -7.68 0
v -9.599999 -7.68 0
v -20.48 -10.88 0
v -21.12 -10.88 0
v -21.12 -10.24 0
v -20.48 -10.24 0
v -21.12 -10.88 0
v -21.76 -10.88 0
v -21.76 -10.24 0
v -21.12 -10.24 0
v -20.48 -11.52 0
v -21.12 -11.52 0
v -21.12 -10.88 0
v -20.48 -10.88 0
v -21.12 -11.52 0
v -21.76 -11.52 0
v -21.76 -10.88 0
v -21.12 -10.88 0
v -14.08 -22.4 0
v -14.72 -22.4 0
v -14.72 -21.76 0
v -14.08 -21.76 0
v -14.72 -22.4 0
v -15.36 -22.4 0
v -15.36 -21.76 0
v -14.72 -21.76 0
v -14.08 -23.04 0
v -14.72 -23.04 0
v -14.72 -22.4 0
v -14.08 -22.4 0
v -14.72 -23.04 0
v -15.36 -23.04 0
v -15.36 -22.4 0
v -14.72 -22.4 0
v -21.12 -35.84 0
v -21.76 -35.84 0
v -21.76 -35.2 0
v -21.12 -35.2 0
v -21.76 -35.84 0
v -22.4 -35.84 0
v -22.4 -35.2 0
v -21.76 -35.2 0
v -21.12 -36.48 0
v -21.76 -36.48 0
v -21.76 -35.84 0
v -21.12 -35.84 0
v -21.76 -36.48 0
v -22.4 -36.48 0
v -22.4 -35.84 0
v -21.76 -35.84 0
v -9.599999 -37.12 0
v -10.24 -37.12 0
v -10.24 -36.48 0
v -9.599999 -36.48 0
v -10.24 -37.12 0
v -10.88 -37.12 0
v -10.88 -36.48 0
v -10.24 -36.48 0
v -9.599999 -37.76 0
v -10.24 -37.76 0
v -10.24 -37.12 0
v -9.599999 -37.12 0
v -10.24 -37.76 0
v -10.88 -37.76 0
v -10.88 -37.12 0
v -10.24 -37.12 0

# Texture cooridinates (Count = 9)
vt 0 0.9166667
vt 0.1666667 0.9166667
vt 0.1666667 1
vt 0 1
vt 0.3333333 0.9166667
vt 0.3333333 1
vt 0 0.8333333
vt 0.1666667 0.8333333
vt 0.3333333 0.8333333

# Normal
vn 0 0 -1

# Mesh description
g BasementSecurity_mesh_0005

# Faces
f 1/1/1 2/2/1 3/3/1 4/4/1
f 5/2/1 6/5/1 7/6/1 8/3/1
f 9/7/1 10/8/1 11/2/1 12/1/1
f 13/8/1 14/9/1 15/5/1 16/2/1
f 17/1/1 18/2/1 19/3/1 20/4/1
f 21/2/1 22/5/1 23/6/1 24/3/1
f 25/7/1 26/8/1 27/2/1 28/1/1
f 29/8/1 30/9/1 31/5/1 32/2/1
f 33/1/1 34/2/1 35/3/1 36/4/1
f 37/2/1 38/5/1 39/6/1 40/3/1
f 41/7/1 42/8/1 43/2/1 44/1/1
f 45/8/1 46/9/1 47/5/1 48/2/1
f 49/1/1 50/2/1 51/3/1 52/4/1
f 53/2/1 54/5/1 55/6/1 56/3/1
f 57/7/1 58/8/1 59/2/1 60/1/1
f 61/8/1 62/9/1 63/5/1 64/2/1
f 65/1/1 66/2/1 67/3/1 68/4/1
f 69/2/1 70/5/1 71/6/1 72/3/1
f 73/7/1 74/8/1 75/2/1 76/1/1
f 77/8/1 78/9/1 79/5/1 80/2/1

