# Tiled2Unity generated file. Do not modify by hand.
# Wavefront file for 'CharlesRoom_mesh_0003.obj'

# Vertices (Count = 96)
v -11.52 -3.2 0
v -12.16 -3.2 0
v -12.16 -2.56 0
v -11.52 -2.56 0
v -12.16 -3.2 0
v -12.8 -3.2 0
v -12.8 -2.56 0
v -12.16 -2.56 0
v -12.8 -3.2 0
v -13.44 -3.2 0
v -13.44 -2.56 0
v -12.8 -2.56 0
v -13.44 -3.2 0
v -14.08 -3.2 0
v -14.08 -2.56 0
v -13.44 -2.56 0
v -11.52 -3.84 0
v -12.16 -3.84 0
v -12.16 -3.2 0
v -11.52 -3.2 0
v -12.16 -3.84 0
v -12.8 -3.84 0
v -12.8 -3.2 0
v -12.16 -3.2 0
v -12.8 -3.84 0
v -13.44 -3.84 0
v -13.44 -3.2 0
v -12.8 -3.2 0
v -13.44 -3.84 0
v -14.08 -3.84 0
v -14.08 -3.2 0
v -13.44 -3.2 0
v -11.52 -4.48 0
v -12.16 -4.48 0
v -12.16 -3.84 0
v -11.52 -3.84 0
v -12.16 -4.48 0
v -12.8 -4.48 0
v -12.8 -3.84 0
v -12.16 -3.84 0
v -12.8 -4.48 0
v -13.44 -4.48 0
v -13.44 -3.84 0
v -12.8 -3.84 0
v -13.44 -4.48 0
v -14.08 -4.48 0
v -14.08 -3.84 0
v -13.44 -3.84 0
v -11.52 -5.12 0
v -12.16 -5.12 0
v -12.16 -4.48 0
v -11.52 -4.48 0
v -12.16 -5.12 0
v -12.8 -5.12 0
v -12.8 -4.48 0
v -12.16 -4.48 0
v -12.8 -5.12 0
v -13.44 -5.12 0
v -13.44 -4.48 0
v -12.8 -4.48 0
v -13.44 -5.12 0
v -14.08 -5.12 0
v -14.08 -4.48 0
v -13.44 -4.48 0
v -11.52 -5.76 0
v -12.16 -5.76 0
v -12.16 -5.12 0
v -11.52 -5.12 0
v -12.16 -5.76 0
v -12.8 -5.76 0
v -12.8 -5.12 0
v -12.16 -5.12 0
v -12.8 -5.76 0
v -13.44 -5.76 0
v -13.44 -5.12 0
v -12.8 -5.12 0
v -13.44 -5.76 0
v -14.08 -5.76 0
v -14.08 -5.12 0
v -13.44 -5.12 0
v -11.52 -6.4 0
v -12.16 -6.4 0
v -12.16 -5.76 0
v -11.52 -5.76 0
v -12.16 -6.4 0
v -12.8 -6.4 0
v -12.8 -5.76 0
v -12.16 -5.76 0
v -12.8 -6.4 0
v -13.44 -6.4 0
v -13.44 -5.76 0
v -12.8 -5.76 0
v -13.44 -6.4 0
v -14.08 -6.4 0
v -14.08 -5.76 0
v -13.44 -5.76 0

# Texture cooridinates (Count = 35)
vt 0.1818182 0.9
vt 0.2272727 0.9
vt 0.2272727 1
vt 0.1818182 1
vt 0.2727273 0.9
vt 0.2727273 1
vt 0.3181818 0.9
vt 0.3181818 1
vt 0.3636364 0.9
vt 0.3636364 1
vt 0.1818182 0.8
vt 0.2272727 0.8
vt 0.2727273 0.8
vt 0.3181818 0.8
vt 0.3636364 0.8
vt 0.1818182 0.7
vt 0.2272727 0.7
vt 0.2727273 0.7
vt 0.3181818 0.7
vt 0.3636364 0.7
vt 0.1818182 0.6
vt 0.2272727 0.6
vt 0.2727273 0.6
vt 0.3181818 0.6
vt 0.3636364 0.6
vt 0.1818182 0.5
vt 0.2272727 0.5
vt 0.2727273 0.5
vt 0.3181818 0.5
vt 0.3636364 0.5
vt 0.1818182 0.4
vt 0.2272727 0.4
vt 0.2727273 0.4
vt 0.3181818 0.4
vt 0.3636364 0.4

# Normal
vn 0 0 -1

# Mesh description
g CharlesRoom_mesh_0003

# Faces
f 1/1/1 2/2/1 3/3/1 4/4/1
f 5/2/1 6/5/1 7/6/1 8/3/1
f 9/5/1 10/7/1 11/8/1 12/6/1
f 13/7/1 14/9/1 15/10/1 16/8/1
f 17/11/1 18/12/1 19/2/1 20/1/1
f 21/12/1 22/13/1 23/5/1 24/2/1
f 25/13/1 26/14/1 27/7/1 28/5/1
f 29/14/1 30/15/1 31/9/1 32/7/1
f 33/16/1 34/17/1 35/12/1 36/11/1
f 37/17/1 38/18/1 39/13/1 40/12/1
f 41/18/1 42/19/1 43/14/1 44/13/1
f 45/19/1 46/20/1 47/15/1 48/14/1
f 49/21/1 50/22/1 51/17/1 52/16/1
f 53/22/1 54/23/1 55/18/1 56/17/1
f 57/23/1 58/24/1 59/19/1 60/18/1
f 61/24/1 62/25/1 63/20/1 64/19/1
f 65/26/1 66/27/1 67/22/1 68/21/1
f 69/27/1 70/28/1 71/23/1 72/22/1
f 73/28/1 74/29/1 75/24/1 76/23/1
f 77/29/1 78/30/1 79/25/1 80/24/1
f 81/31/1 82/32/1 83/27/1 84/26/1
f 85/32/1 86/33/1 87/28/1 88/27/1
f 89/33/1 90/34/1 91/29/1 92/28/1
f 93/34/1 94/35/1 95/30/1 96/29/1

