# Tiled2Unity generated file. Do not modify by hand.
# Wavefront file for 'BM2._mesh_0084.obj'

# Vertices (Count = 580)
v -0.64 -0.64 0
v -1.28 -0.64 0
v -1.28 0 0
v -0.64 0 0
v -1.28 -0.64 0
v -1.92 -0.64 0
v -1.92 0 0
v -1.28 0 0
v -1.92 -0.64 0
v -2.56 -0.64 0
v -2.56 0 0
v -1.92 0 0
v -2.56 -0.64 0
v -3.2 -0.64 0
v -3.2 0 0
v -2.56 0 0
v -0.64 -1.28 0
v -1.28 -1.28 0
v -1.28 -0.64 0
v -0.64 -0.64 0
v -1.28 -1.28 0
v -1.92 -1.28 0
v -1.92 -0.64 0
v -1.28 -0.64 0
v -1.92 -1.28 0
v -2.56 -1.28 0
v -2.56 -0.64 0
v -1.92 -0.64 0
v -2.56 -1.28 0
v -3.2 -1.28 0
v -3.2 -0.64 0
v -2.56 -0.64 0
v -0.64 -1.92 0
v -1.28 -1.92 0
v -1.28 -1.28 0
v -0.64 -1.28 0
v -1.28 -1.92 0
v -1.92 -1.92 0
v -1.92 -1.28 0
v -1.28 -1.28 0
v -1.92 -1.92 0
v -2.56 -1.92 0
v -2.56 -1.28 0
v -1.92 -1.28 0
v -2.56 -1.92 0
v -3.2 -1.92 0
v -3.2 -1.28 0
v -2.56 -1.28 0
v -0.64 -2.56 0
v -1.28 -2.56 0
v -1.28 -1.92 0
v -0.64 -1.92 0
v -1.28 -2.56 0
v -1.92 -2.56 0
v -1.92 -1.92 0
v -1.28 -1.92 0
v -1.92 -2.56 0
v -2.56 -2.56 0
v -2.56 -1.92 0
v -1.92 -1.92 0
v -2.56 -2.56 0
v -3.2 -2.56 0
v -3.2 -1.92 0
v -2.56 -1.92 0
v -0.64 -3.2 0
v -1.28 -3.2 0
v -1.28 -2.56 0
v -0.64 -2.56 0
v -1.28 -3.2 0
v -1.92 -3.2 0
v -1.92 -2.56 0
v -1.28 -2.56 0
v -1.92 -3.2 0
v -2.56 -3.2 0
v -2.56 -2.56 0
v -1.92 -2.56 0
v -2.56 -3.2 0
v -3.2 -3.2 0
v -3.2 -2.56 0
v -2.56 -2.56 0
v -0.64 -3.84 0
v -1.28 -3.84 0
v -1.28 -3.2 0
v -0.64 -3.2 0
v -1.28 -3.84 0
v -1.92 -3.84 0
v -1.92 -3.2 0
v -1.28 -3.2 0
v -1.92 -3.84 0
v -2.56 -3.84 0
v -2.56 -3.2 0
v -1.92 -3.2 0
v -2.56 -3.84 0
v -3.2 -3.84 0
v -3.2 -3.2 0
v -2.56 -3.2 0
v -0.64 -4.48 0
v -1.28 -4.48 0
v -1.28 -3.84 0
v -0.64 -3.84 0
v -1.28 -4.48 0
v -1.92 -4.48 0
v -1.92 -3.84 0
v -1.28 -3.84 0
v -1.92 -4.48 0
v -2.56 -4.48 0
v -2.56 -3.84 0
v -1.92 -3.84 0
v -2.56 -4.48 0
v -3.2 -4.48 0
v -3.2 -3.84 0
v -2.56 -3.84 0
v 0 -5.12 0
v -0.64 -5.12 0
v -0.64 -4.48 0
v 0 -4.48 0
v -0.64 -5.12 0
v -1.28 -5.12 0
v -1.28 -4.48 0
v -0.64 -4.48 0
v -1.28 -5.12 0
v -1.92 -5.12 0
v -1.92 -4.48 0
v -1.28 -4.48 0
v -1.92 -5.12 0
v -2.56 -5.12 0
v -2.56 -4.48 0
v -1.92 -4.48 0
v -2.56 -5.12 0
v -3.2 -5.12 0
v -3.2 -4.48 0
v -2.56 -4.48 0
v -3.2 -5.12 0
v -3.84 -5.12 0
v -3.84 -4.48 0
v -3.2 -4.48 0
v -3.84 -5.12 0
v -4.48 -5.12 0
v -4.48 -4.48 0
v -3.84 -4.48 0
v -4.48 -5.12 0
v -5.12 -5.12 0
v -5.12 -4.48 0
v -4.48 -4.48 0
v -5.12 -5.12 0
v -5.76 -5.12 0
v -5.76 -4.48 0
v -5.12 -4.48 0
v -5.76 -5.12 0
v -6.4 -5.12 0
v -6.4 -4.48 0
v -5.76 -4.48 0
v -6.4 -5.12 0
v -7.04 -5.12 0
v -7.04 -4.48 0
v -6.4 -4.48 0
v -7.04 -5.12 0
v -7.68 -5.12 0
v -7.68 -4.48 0
v -7.04 -4.48 0
v -7.68 -5.12 0
v -8.32 -5.12 0
v -8.32 -4.48 0
v -7.68 -4.48 0
v 0 -5.76 0
v -0.64 -5.76 0
v -0.64 -5.12 0
v 0 -5.12 0
v -0.64 -5.76 0
v -1.28 -5.76 0
v -1.28 -5.12 0
v -0.64 -5.12 0
v -1.28 -5.76 0
v -1.92 -5.76 0
v -1.92 -5.12 0
v -1.28 -5.12 0
v -1.92 -5.76 0
v -2.56 -5.76 0
v -2.56 -5.12 0
v -1.92 -5.12 0
v -2.56 -5.76 0
v -3.2 -5.76 0
v -3.2 -5.12 0
v -2.56 -5.12 0
v -3.2 -5.76 0
v -3.84 -5.76 0
v -3.84 -5.12 0
v -3.2 -5.12 0
v -3.84 -5.76 0
v -4.48 -5.76 0
v -4.48 -5.12 0
v -3.84 -5.12 0
v -4.48 -5.76 0
v -5.12 -5.76 0
v -5.12 -5.12 0
v -4.48 -5.12 0
v -5.12 -5.76 0
v -5.76 -5.76 0
v -5.76 -5.12 0
v -5.12 -5.12 0
v -5.76 -5.76 0
v -6.4 -5.76 0
v -6.4 -5.12 0
v -5.76 -5.12 0
v -6.4 -5.76 0
v -7.04 -5.76 0
v -7.04 -5.12 0
v -6.4 -5.12 0
v -7.04 -5.76 0
v -7.68 -5.76 0
v -7.68 -5.12 0
v -7.04 -5.12 0
v -7.68 -5.76 0
v -8.32 -5.76 0
v -8.32 -5.12 0
v -7.68 -5.12 0
v 0 -6.4 0
v -0.64 -6.4 0
v -0.64 -5.76 0
v 0 -5.76 0
v -0.64 -6.4 0
v -1.28 -6.4 0
v -1.28 -5.76 0
v -0.64 -5.76 0
v -1.28 -6.4 0
v -1.92 -6.4 0
v -1.92 -5.76 0
v -1.28 -5.76 0
v -1.92 -6.4 0
v -2.56 -6.4 0
v -2.56 -5.76 0
v -1.92 -5.76 0
v -2.56 -6.4 0
v -3.2 -6.4 0
v -3.2 -5.76 0
v -2.56 -5.76 0
v -3.2 -6.4 0
v -3.84 -6.4 0
v -3.84 -5.76 0
v -3.2 -5.76 0
v -3.84 -6.4 0
v -4.48 -6.4 0
v -4.48 -5.76 0
v -3.84 -5.76 0
v -4.48 -6.4 0
v -5.12 -6.4 0
v -5.12 -5.76 0
v -4.48 -5.76 0
v -5.12 -6.4 0
v -5.76 -6.4 0
v -5.76 -5.76 0
v -5.12 -5.76 0
v -5.76 -6.4 0
v -6.4 -6.4 0
v -6.4 -5.76 0
v -5.76 -5.76 0
v -6.4 -6.4 0
v -7.04 -6.4 0
v -7.04 -5.76 0
v -6.4 -5.76 0
v -7.04 -6.4 0
v -7.68 -6.4 0
v -7.68 -5.76 0
v -7.04 -5.76 0
v -7.68 -6.4 0
v -8.32 -6.4 0
v -8.32 -5.76 0
v -7.68 -5.76 0
v 0 -7.04 0
v -0.64 -7.04 0
v -0.64 -6.4 0
v 0 -6.4 0
v -0.64 -7.04 0
v -1.28 -7.04 0
v -1.28 -6.4 0
v -0.64 -6.4 0
v -1.28 -7.04 0
v -1.92 -7.04 0
v -1.92 -6.4 0
v -1.28 -6.4 0
v -1.92 -7.04 0
v -2.56 -7.04 0
v -2.56 -6.4 0
v -1.92 -6.4 0
v -2.56 -7.04 0
v -3.2 -7.04 0
v -3.2 -6.4 0
v -2.56 -6.4 0
v -3.2 -7.04 0
v -3.84 -7.04 0
v -3.84 -6.4 0
v -3.2 -6.4 0
v -3.84 -7.04 0
v -4.48 -7.04 0
v -4.48 -6.4 0
v -3.84 -6.4 0
v -4.48 -7.04 0
v -5.12 -7.04 0
v -5.12 -6.4 0
v -4.48 -6.4 0
v -5.12 -7.04 0
v -5.76 -7.04 0
v -5.76 -6.4 0
v -5.12 -6.4 0
v -5.76 -7.04 0
v -6.4 -7.04 0
v -6.4 -6.4 0
v -5.76 -6.4 0
v -6.4 -7.04 0
v -7.04 -7.04 0
v -7.04 -6.4 0
v -6.4 -6.4 0
v -7.04 -7.04 0
v -7.68 -7.04 0
v -7.68 -6.4 0
v -7.04 -6.4 0
v -7.68 -7.04 0
v -8.32 -7.04 0
v -8.32 -6.4 0
v -7.68 -6.4 0
v 0 -7.68 0
v -0.64 -7.68 0
v -0.64 -7.04 0
v 0 -7.04 0
v -0.64 -7.68 0
v -1.28 -7.68 0
v -1.28 -7.04 0
v -0.64 -7.04 0
v -1.28 -7.68 0
v -1.92 -7.68 0
v -1.92 -7.04 0
v -1.28 -7.04 0
v -1.92 -7.68 0
v -2.56 -7.68 0
v -2.56 -7.04 0
v -1.92 -7.04 0
v -2.56 -7.68 0
v -3.2 -7.68 0
v -3.2 -7.04 0
v -2.56 -7.04 0
v -3.2 -7.68 0
v -3.84 -7.68 0
v -3.84 -7.04 0
v -3.2 -7.04 0
v -3.84 -7.68 0
v -4.48 -7.68 0
v -4.48 -7.04 0
v -3.84 -7.04 0
v -4.48 -7.68 0
v -5.12 -7.68 0
v -5.12 -7.04 0
v -4.48 -7.04 0
v -5.12 -7.68 0
v -5.76 -7.68 0
v -5.76 -7.04 0
v -5.12 -7.04 0
v -5.76 -7.68 0
v -6.4 -7.68 0
v -6.4 -7.04 0
v -5.76 -7.04 0
v -6.4 -7.68 0
v -7.04 -7.68 0
v -7.04 -7.04 0
v -6.4 -7.04 0
v -7.04 -7.68 0
v -7.68 -7.68 0
v -7.68 -7.04 0
v -7.04 -7.04 0
v -7.68 -7.68 0
v -8.32 -7.68 0
v -8.32 -7.04 0
v -7.68 -7.04 0
v 0 -8.32 0
v -0.64 -8.32 0
v -0.64 -7.68 0
v 0 -7.68 0
v -0.64 -8.32 0
v -1.28 -8.32 0
v -1.28 -7.68 0
v -0.64 -7.68 0
v -1.28 -8.32 0
v -1.92 -8.32 0
v -1.92 -7.68 0
v -1.28 -7.68 0
v -1.92 -8.32 0
v -2.56 -8.32 0
v -2.56 -7.68 0
v -1.92 -7.68 0
v -2.56 -8.32 0
v -3.2 -8.32 0
v -3.2 -7.68 0
v -2.56 -7.68 0
v -3.2 -8.32 0
v -3.84 -8.32 0
v -3.84 -7.68 0
v -3.2 -7.68 0
v -3.84 -8.32 0
v -4.48 -8.32 0
v -4.48 -7.68 0
v -3.84 -7.68 0
v -4.48 -8.32 0
v -5.12 -8.32 0
v -5.12 -7.68 0
v -4.48 -7.68 0
v -5.12 -8.32 0
v -5.76 -8.32 0
v -5.76 -7.68 0
v -5.12 -7.68 0
v -5.76 -8.32 0
v -6.4 -8.32 0
v -6.4 -7.68 0
v -5.76 -7.68 0
v -6.4 -8.32 0
v -7.04 -8.32 0
v -7.04 -7.68 0
v -6.4 -7.68 0
v -7.04 -8.32 0
v -7.68 -8.32 0
v -7.68 -7.68 0
v -7.04 -7.68 0
v -7.68 -8.32 0
v -8.32 -8.32 0
v -8.32 -7.68 0
v -7.68 -7.68 0
v 0 -8.96 0
v -0.64 -8.96 0
v -0.64 -8.32 0
v 0 -8.32 0
v -0.64 -8.96 0
v -1.28 -8.96 0
v -1.28 -8.32 0
v -0.64 -8.32 0
v -1.28 -8.96 0
v -1.92 -8.96 0
v -1.92 -8.32 0
v -1.28 -8.32 0
v -1.92 -8.96 0
v -2.56 -8.96 0
v -2.56 -8.32 0
v -1.92 -8.32 0
v -2.56 -8.96 0
v -3.2 -8.96 0
v -3.2 -8.32 0
v -2.56 -8.32 0
v -3.2 -8.96 0
v -3.84 -8.96 0
v -3.84 -8.32 0
v -3.2 -8.32 0
v -3.84 -8.96 0
v -4.48 -8.96 0
v -4.48 -8.32 0
v -3.84 -8.32 0
v -4.48 -8.96 0
v -5.12 -8.96 0
v -5.12 -8.32 0
v -4.48 -8.32 0
v -5.12 -8.96 0
v -5.76 -8.96 0
v -5.76 -8.32 0
v -5.12 -8.32 0
v -5.76 -8.96 0
v -6.4 -8.96 0
v -6.4 -8.32 0
v -5.76 -8.32 0
v -6.4 -8.96 0
v -7.04 -8.96 0
v -7.04 -8.32 0
v -6.4 -8.32 0
v -7.04 -8.96 0
v -7.68 -8.96 0
v -7.68 -8.32 0
v -7.04 -8.32 0
v -7.68 -8.96 0
v -8.32 -8.96 0
v -8.32 -8.32 0
v -7.68 -8.32 0
v 0 -9.599999 0
v -0.64 -9.599999 0
v -0.64 -8.96 0
v 0 -8.96 0
v -0.64 -9.599999 0
v -1.28 -9.599999 0
v -1.28 -8.96 0
v -0.64 -8.96 0
v -1.28 -9.599999 0
v -1.92 -9.599999 0
v -1.92 -8.96 0
v -1.28 -8.96 0
v -1.92 -9.599999 0
v -2.56 -9.599999 0
v -2.56 -8.96 0
v -1.92 -8.96 0
v -2.56 -9.599999 0
v -3.2 -9.599999 0
v -3.2 -8.96 0
v -2.56 -8.96 0
v -3.2 -9.599999 0
v -3.84 -9.599999 0
v -3.84 -8.96 0
v -3.2 -8.96 0
v -3.84 -9.599999 0
v -4.48 -9.599999 0
v -4.48 -8.96 0
v -3.84 -8.96 0
v -4.48 -9.599999 0
v -5.12 -9.599999 0
v -5.12 -8.96 0
v -4.48 -8.96 0
v -5.12 -9.599999 0
v -5.76 -9.599999 0
v -5.76 -8.96 0
v -5.12 -8.96 0
v -5.76 -9.599999 0
v -6.4 -9.599999 0
v -6.4 -8.96 0
v -5.76 -8.96 0
v -6.4 -9.599999 0
v -7.04 -9.599999 0
v -7.04 -8.96 0
v -6.4 -8.96 0
v -7.04 -9.599999 0
v -7.68 -9.599999 0
v -7.68 -8.96 0
v -7.04 -8.96 0
v -7.68 -9.599999 0
v -8.32 -9.599999 0
v -8.32 -8.96 0
v -7.68 -8.96 0
v 0 -10.24 0
v -0.64 -10.24 0
v -0.64 -9.599999 0
v 0 -9.599999 0
v -0.64 -10.24 0
v -1.28 -10.24 0
v -1.28 -9.599999 0
v -0.64 -9.599999 0
v -1.28 -10.24 0
v -1.92 -10.24 0
v -1.92 -9.599999 0
v -1.28 -9.599999 0
v -1.92 -10.24 0
v -2.56 -10.24 0
v -2.56 -9.599999 0
v -1.92 -9.599999 0
v -2.56 -10.24 0
v -3.2 -10.24 0
v -3.2 -9.599999 0
v -2.56 -9.599999 0
v -3.2 -10.24 0
v -3.84 -10.24 0
v -3.84 -9.599999 0
v -3.2 -9.599999 0
v -3.84 -10.24 0
v -4.48 -10.24 0
v -4.48 -9.599999 0
v -3.84 -9.599999 0
v -4.48 -10.24 0
v -5.12 -10.24 0
v -5.12 -9.599999 0
v -4.48 -9.599999 0
v -5.12 -10.24 0
v -5.76 -10.24 0
v -5.76 -9.599999 0
v -5.12 -9.599999 0
v -5.76 -10.24 0
v -6.4 -10.24 0
v -6.4 -9.599999 0
v -5.76 -9.599999 0
v -6.4 -10.24 0
v -7.04 -10.24 0
v -7.04 -9.599999 0
v -6.4 -9.599999 0
v -7.04 -10.24 0
v -7.68 -10.24 0
v -7.68 -9.599999 0
v -7.04 -9.599999 0
v -7.68 -10.24 0
v -8.32 -10.24 0
v -8.32 -9.599999 0
v -7.68 -9.599999 0

# Texture cooridinates (Count = 49)
vt 0.6 0.8
vt 0.65 0.8
vt 0.65 0.85
vt 0.6 0.85
vt 0.7 0.8
vt 0.7 0.85
vt 0.75 0.8
vt 0.75 0.85
vt 0.85 0.8
vt 0.9 0.8
vt 0.9 0.85
vt 0.85 0.85
vt 0.6 0.75
vt 0.65 0.75
vt 0.7 0.75
vt 0.75 0.75
vt 0.85 0.75
vt 0.9 0.75
vt 0.6 0.7
vt 0.65 0.7
vt 0.7 0.7
vt 0.75 0.7
vt 0.85 0.7
vt 0.9 0.7
vt 0.6 0.65
vt 0.65 0.65
vt 0.7 0.65
vt 0.75 0.65
vt 0.85 0.65
vt 0.9 0.65
vt 0.8 0.8
vt 0.8 0.85
vt 0.8 0.75
vt 0.8 0.9
vt 0.75 0.9
vt 0.5 0.95
vt 0.55 0.95
vt 0.55 1
vt 0.5 1
vt 0.8 0.7
vt 0.95 0.95
vt 1 0.95
vt 1 1
vt 0.95 1
vt 0.85 0.9
vt 0.7 0.9
vt 0.65 0.9
vt 0.9 0.9
vt 0.8 0.65

# Normal
vn 0 0 -1

# Mesh description
g BM2._mesh_0084

# Faces
f 1/1/1 2/2/1 3/3/1 4/4/1
f 5/2/1 6/5/1 7/6/1 8/3/1
f 9/5/1 10/7/1 11/8/1 12/6/1
f 13/9/1 14/10/1 15/11/1 16/12/1
f 17/13/1 18/14/1 19/2/1 20/1/1
f 21/14/1 22/15/1 23/5/1 24/2/1
f 25/15/1 26/16/1 27/7/1 28/5/1
f 29/17/1 30/18/1 31/10/1 32/9/1
f 33/19/1 34/20/1 35/14/1 36/13/1
f 37/20/1 38/21/1 39/15/1 40/14/1
f 41/21/1 42/22/1 43/16/1 44/15/1
f 45/23/1 46/24/1 47/18/1 48/17/1
f 49/25/1 50/26/1 51/20/1 52/19/1
f 53/26/1 54/27/1 55/21/1 56/20/1
f 57/27/1 58/28/1 59/22/1 60/21/1
f 61/29/1 62/30/1 63/24/1 64/23/1
f 65/1/1 66/2/1 67/3/1 68/4/1
f 69/5/1 70/7/1 71/8/1 72/6/1
f 73/7/1 74/31/1 75/32/1 76/8/1
f 77/9/1 78/10/1 79/11/1 80/12/1
f 81/13/1 82/14/1 83/2/1 84/1/1
f 85/5/1 86/7/1 87/8/1 88/6/1
f 89/7/1 90/31/1 91/32/1 92/8/1
f 93/17/1 94/18/1 95/10/1 96/9/1
f 97/19/1 98/20/1 99/14/1 100/13/1
f 101/15/1 102/16/1 103/7/1 104/5/1
f 105/16/1 106/33/1 107/31/1 108/7/1
f 109/23/1 110/24/1 111/18/1 112/17/1
f 113/8/1 114/32/1 115/34/1 116/35/1
f 117/36/1 118/37/1 119/38/1 120/39/1
f 121/21/1 122/22/1 123/16/1 124/15/1
f 125/22/1 126/40/1 127/33/1 128/16/1
f 129/41/1 130/42/1 131/43/1 132/44/1
f 133/32/1 134/12/1 135/45/1 136/34/1
f 137/3/1 138/6/1 139/46/1 140/47/1
f 141/6/1 142/8/1 143/35/1 144/46/1
f 145/8/1 146/32/1 147/34/1 148/35/1
f 149/32/1 150/12/1 151/45/1 152/34/1
f 153/3/1 154/6/1 155/46/1 156/47/1
f 157/6/1 158/8/1 159/35/1 160/46/1
f 161/12/1 162/11/1 163/48/1 164/45/1
f 165/7/1 166/31/1 167/32/1 168/8/1
f 169/31/1 170/9/1 171/12/1 172/32/1
f 173/2/1 174/5/1 175/6/1 176/3/1
f 177/5/1 178/7/1 179/8/1 180/6/1
f 181/7/1 182/31/1 183/32/1 184/8/1
f 185/31/1 186/9/1 187/12/1 188/32/1
f 189/2/1 190/5/1 191/6/1 192/3/1
f 193/5/1 194/7/1 195/8/1 196/6/1
f 197/7/1 198/31/1 199/32/1 200/8/1
f 201/31/1 202/9/1 203/12/1 204/32/1
f 205/2/1 206/5/1 207/6/1 208/3/1
f 209/5/1 210/7/1 211/8/1 212/6/1
f 213/9/1 214/10/1 215/11/1 216/12/1
f 217/16/1 218/33/1 219/31/1 220/7/1
f 221/33/1 222/17/1 223/9/1 224/31/1
f 225/14/1 226/15/1 227/5/1 228/2/1
f 229/15/1 230/16/1 231/7/1 232/5/1
f 233/16/1 234/33/1 235/31/1 236/7/1
f 237/33/1 238/17/1 239/9/1 240/31/1
f 241/14/1 242/15/1 243/5/1 244/2/1
f 245/15/1 246/16/1 247/7/1 248/5/1
f 249/16/1 250/33/1 251/31/1 252/7/1
f 253/33/1 254/17/1 255/9/1 256/31/1
f 257/14/1 258/15/1 259/5/1 260/2/1
f 261/15/1 262/16/1 263/7/1 264/5/1
f 265/17/1 266/18/1 267/10/1 268/9/1
f 269/22/1 270/40/1 271/33/1 272/16/1
f 273/40/1 274/23/1 275/17/1 276/33/1
f 277/20/1 278/21/1 279/15/1 280/14/1
f 281/21/1 282/22/1 283/16/1 284/15/1
f 285/22/1 286/40/1 287/33/1 288/16/1
f 289/40/1 290/23/1 291/17/1 292/33/1
f 293/20/1 294/21/1 295/15/1 296/14/1
f 297/21/1 298/22/1 299/16/1 300/15/1
f 301/22/1 302/40/1 303/33/1 304/16/1
f 305/40/1 306/23/1 307/17/1 308/33/1
f 309/20/1 310/21/1 311/15/1 312/14/1
f 313/21/1 314/22/1 315/16/1 316/15/1
f 317/23/1 318/24/1 319/18/1 320/17/1
f 321/28/1 322/49/1 323/40/1 324/22/1
f 325/49/1 326/29/1 327/23/1 328/40/1
f 329/26/1 330/27/1 331/21/1 332/20/1
f 333/27/1 334/28/1 335/22/1 336/21/1
f 337/28/1 338/49/1 339/40/1 340/22/1
f 341/49/1 342/29/1 343/23/1 344/40/1
f 345/26/1 346/27/1 347/21/1 348/20/1
f 349/27/1 350/28/1 351/22/1 352/21/1
f 353/28/1 354/49/1 355/40/1 356/22/1
f 357/49/1 358/29/1 359/23/1 360/40/1
f 361/26/1 362/27/1 363/21/1 364/20/1
f 365/27/1 366/28/1 367/22/1 368/21/1
f 369/29/1 370/30/1 371/24/1 372/23/1
f 373/7/1 374/31/1 375/32/1 376/8/1
f 377/31/1 378/9/1 379/12/1 380/32/1
f 381/2/1 382/5/1 383/6/1 384/3/1
f 385/5/1 386/7/1 387/8/1 388/6/1
f 389/7/1 390/31/1 391/32/1 392/8/1
f 393/31/1 394/9/1 395/12/1 396/32/1
f 397/2/1 398/5/1 399/6/1 400/3/1
f 401/5/1 402/7/1 403/8/1 404/6/1
f 405/7/1 406/31/1 407/32/1 408/8/1
f 409/31/1 410/9/1 411/12/1 412/32/1
f 413/2/1 414/5/1 415/6/1 416/3/1
f 417/5/1 418/7/1 419/8/1 420/6/1
f 421/9/1 422/10/1 423/11/1 424/12/1
f 425/16/1 426/33/1 427/31/1 428/7/1
f 429/33/1 430/17/1 431/9/1 432/31/1
f 433/14/1 434/15/1 435/5/1 436/2/1
f 437/15/1 438/16/1 439/7/1 440/5/1
f 441/16/1 442/33/1 443/31/1 444/7/1
f 445/33/1 446/17/1 447/9/1 448/31/1
f 449/14/1 450/15/1 451/5/1 452/2/1
f 453/15/1 454/16/1 455/7/1 456/5/1
f 457/16/1 458/33/1 459/31/1 460/7/1
f 461/33/1 462/17/1 463/9/1 464/31/1
f 465/14/1 466/15/1 467/5/1 468/2/1
f 469/15/1 470/16/1 471/7/1 472/5/1
f 473/17/1 474/18/1 475/10/1 476/9/1
f 477/22/1 478/40/1 479/33/1 480/16/1
f 481/40/1 482/23/1 483/17/1 484/33/1
f 485/20/1 486/21/1 487/15/1 488/14/1
f 489/21/1 490/22/1 491/16/1 492/15/1
f 493/22/1 494/40/1 495/33/1 496/16/1
f 497/40/1 498/23/1 499/17/1 500/33/1
f 501/20/1 502/21/1 503/15/1 504/14/1
f 505/21/1 506/22/1 507/16/1 508/15/1
f 509/22/1 510/40/1 511/33/1 512/16/1
f 513/40/1 514/23/1 515/17/1 516/33/1
f 517/20/1 518/21/1 519/15/1 520/14/1
f 521/21/1 522/22/1 523/16/1 524/15/1
f 525/23/1 526/24/1 527/18/1 528/17/1
f 529/28/1 530/49/1 531/40/1 532/22/1
f 533/49/1 534/29/1 535/23/1 536/40/1
f 537/26/1 538/27/1 539/21/1 540/20/1
f 541/27/1 542/28/1 543/22/1 544/21/1
f 545/28/1 546/49/1 547/40/1 548/22/1
f 549/49/1 550/29/1 551/23/1 552/40/1
f 553/26/1 554/27/1 555/21/1 556/20/1
f 557/27/1 558/28/1 559/22/1 560/21/1
f 561/28/1 562/49/1 563/40/1 564/22/1
f 565/49/1 566/29/1 567/23/1 568/40/1
f 569/26/1 570/27/1 571/21/1 572/20/1
f 573/27/1 574/28/1 575/22/1 576/21/1
f 577/29/1 578/30/1 579/24/1 580/23/1

