# Tiled2Unity generated file. Do not modify by hand.
# Wavefront file for 'BM2._mesh_0007.obj'

# Vertices (Count = 172)
v -1.92 -0.64 0
v -2.56 -0.64 0
v -2.56 0 0
v -1.92 0 0
v -2.56 -0.64 0
v -3.2 -0.64 0
v -3.2 0 0
v -2.56 0 0
v -1.92 -1.28 0
v -2.56 -1.28 0
v -2.56 -0.64 0
v -1.92 -0.64 0
v -2.56 -1.28 0
v -3.2 -1.28 0
v -3.2 -0.64 0
v -2.56 -0.64 0
v -1.92 -1.92 0
v -2.56 -1.92 0
v -2.56 -1.28 0
v -1.92 -1.28 0
v -2.56 -1.92 0
v -3.2 -1.92 0
v -3.2 -1.28 0
v -2.56 -1.28 0
v -1.92 -2.56 0
v -2.56 -2.56 0
v -2.56 -1.92 0
v -1.92 -1.92 0
v -2.56 -2.56 0
v -3.2 -2.56 0
v -3.2 -1.92 0
v -2.56 -1.92 0
v -1.92 -3.2 0
v -2.56 -3.2 0
v -2.56 -2.56 0
v -1.92 -2.56 0
v -2.56 -3.2 0
v -3.2 -3.2 0
v -3.2 -2.56 0
v -2.56 -2.56 0
v -1.92 -3.84 0
v -2.56 -3.84 0
v -2.56 -3.2 0
v -1.92 -3.2 0
v -2.56 -3.84 0
v -3.2 -3.84 0
v -3.2 -3.2 0
v -2.56 -3.2 0
v -1.92 -4.48 0
v -2.56 -4.48 0
v -2.56 -3.84 0
v -1.92 -3.84 0
v -2.56 -4.48 0
v -3.2 -4.48 0
v -3.2 -3.84 0
v -2.56 -3.84 0
v -1.92 -5.12 0
v -2.56 -5.12 0
v -2.56 -4.48 0
v -1.92 -4.48 0
v -2.56 -5.12 0
v -3.2 -5.12 0
v -3.2 -4.48 0
v -2.56 -4.48 0
v -1.92 -5.76 0
v -2.56 -5.76 0
v -2.56 -5.12 0
v -1.92 -5.12 0
v -2.56 -5.76 0
v -3.2 -5.76 0
v -3.2 -5.12 0
v -2.56 -5.12 0
v -1.92 -6.4 0
v -2.56 -6.4 0
v -2.56 -5.76 0
v -1.92 -5.76 0
v -2.56 -6.4 0
v -3.2 -6.4 0
v -3.2 -5.76 0
v -2.56 -5.76 0
v -1.92 -7.04 0
v -2.56 -7.04 0
v -2.56 -6.4 0
v -1.92 -6.4 0
v -2.56 -7.04 0
v -3.2 -7.04 0
v -3.2 -6.4 0
v -2.56 -6.4 0
v -1.92 -7.68 0
v -2.56 -7.68 0
v -2.56 -7.04 0
v -1.92 -7.04 0
v -2.56 -7.68 0
v -3.2 -7.68 0
v -3.2 -7.04 0
v -2.56 -7.04 0
v -1.92 -8.32 0
v -2.56 -8.32 0
v -2.56 -7.68 0
v -1.92 -7.68 0
v -2.56 -8.32 0
v -3.2 -8.32 0
v -3.2 -7.68 0
v -2.56 -7.68 0
v -1.92 -8.96 0
v -2.56 -8.96 0
v -2.56 -8.32 0
v -1.92 -8.32 0
v -2.56 -8.96 0
v -3.2 -8.96 0
v -3.2 -8.32 0
v -2.56 -8.32 0
v -1.92 -9.599999 0
v -2.56 -9.599999 0
v -2.56 -8.96 0
v -1.92 -8.96 0
v -2.56 -9.599999 0
v -3.2 -9.599999 0
v -3.2 -8.96 0
v -2.56 -8.96 0
v -1.92 -10.24 0
v -2.56 -10.24 0
v -2.56 -9.599999 0
v -1.92 -9.599999 0
v -2.56 -10.24 0
v -3.2 -10.24 0
v -3.2 -9.599999 0
v -2.56 -9.599999 0
v -3.2 -10.24 0
v -3.84 -10.24 0
v -3.84 -9.599999 0
v -3.2 -9.599999 0
v -3.84 -10.24 0
v -4.48 -10.24 0
v -4.48 -9.599999 0
v -3.84 -9.599999 0
v -4.48 -10.24 0
v -5.12 -10.24 0
v -5.12 -9.599999 0
v -4.48 -9.599999 0
v -5.12 -10.24 0
v -5.76 -10.24 0
v -5.76 -9.599999 0
v -5.12 -9.599999 0
v -5.76 -10.24 0
v -6.4 -10.24 0
v -6.4 -9.599999 0
v -5.76 -9.599999 0
v -6.4 -10.24 0
v -7.04 -10.24 0
v -7.04 -9.599999 0
v -6.4 -9.599999 0
v -7.04 -10.24 0
v -7.68 -10.24 0
v -7.68 -9.599999 0
v -7.04 -9.599999 0
v -7.68 -10.24 0
v -8.32 -10.24 0
v -8.32 -9.599999 0
v -7.68 -9.599999 0
v -8.32 -10.24 0
v -8.96 -10.24 0
v -8.96 -9.599999 0
v -8.32 -9.599999 0
v -8.96 -10.24 0
v -9.599999 -10.24 0
v -9.599999 -9.599999 0
v -8.96 -9.599999 0
v -9.599999 -10.24 0
v -10.24 -10.24 0
v -10.24 -9.599999 0
v -9.599999 -9.599999 0

# Texture cooridinates (Count = 9)
vt 0.03125 0.84375
vt 0.0625 0.84375
vt 0.0625 0.875
vt 0.03125 0.875
vt 0.09375 0.84375
vt 0.09375 0.875
vt 0.0625 0.90625
vt 0.03125 0.90625
vt 0.09375 0.90625

# Normal
vn 0 0 -1

# Mesh description
g BM2._mesh_0007

# Faces
f 1/1/1 2/2/1 3/3/1 4/4/1
f 5/2/1 6/5/1 7/6/1 8/3/1
f 9/1/1 10/2/1 11/3/1 12/4/1
f 13/2/1 14/5/1 15/6/1 16/3/1
f 17/1/1 18/2/1 19/3/1 20/4/1
f 21/2/1 22/5/1 23/6/1 24/3/1
f 25/1/1 26/2/1 27/3/1 28/4/1
f 29/2/1 30/5/1 31/6/1 32/3/1
f 33/1/1 34/2/1 35/3/1 36/4/1
f 37/2/1 38/5/1 39/6/1 40/3/1
f 41/1/1 42/2/1 43/3/1 44/4/1
f 45/2/1 46/5/1 47/6/1 48/3/1
f 49/1/1 50/2/1 51/3/1 52/4/1
f 53/2/1 54/5/1 55/6/1 56/3/1
f 57/1/1 58/2/1 59/3/1 60/4/1
f 61/2/1 62/5/1 63/6/1 64/3/1
f 65/1/1 66/2/1 67/3/1 68/4/1
f 69/2/1 70/5/1 71/6/1 72/3/1
f 73/1/1 74/2/1 75/3/1 76/4/1
f 77/2/1 78/5/1 79/6/1 80/3/1
f 81/1/1 82/2/1 83/3/1 84/4/1
f 85/2/1 86/5/1 87/6/1 88/3/1
f 89/1/1 90/2/1 91/3/1 92/4/1
f 93/2/1 94/5/1 95/6/1 96/3/1
f 97/1/1 98/2/1 99/3/1 100/4/1
f 101/2/1 102/5/1 103/6/1 104/3/1
f 105/1/1 106/2/1 107/3/1 108/4/1
f 109/2/1 110/5/1 111/6/1 112/3/1
f 113/1/1 114/2/1 115/3/1 116/4/1
f 117/2/1 118/5/1 119/6/1 120/3/1
f 121/1/1 122/2/1 123/3/1 124/4/1
f 125/2/1 126/5/1 127/6/1 128/3/1
f 129/4/1 130/3/1 131/7/1 132/8/1
f 133/3/1 134/6/1 135/9/1 136/7/1
f 137/3/1 138/6/1 139/9/1 140/7/1
f 141/3/1 142/6/1 143/9/1 144/7/1
f 145/3/1 146/6/1 147/9/1 148/7/1
f 149/3/1 150/6/1 151/9/1 152/7/1
f 153/3/1 154/6/1 155/9/1 156/7/1
f 157/3/1 158/6/1 159/9/1 160/7/1
f 161/3/1 162/6/1 163/9/1 164/7/1
f 165/3/1 166/6/1 167/9/1 168/7/1
f 169/3/1 170/6/1 171/9/1 172/7/1

