# Tiled2Unity generated file. Do not modify by hand.
# Wavefront file for 'BM2._mesh_0243.obj'

# Vertices (Count = 32)
v -8.96 -8.32 0
v -9.599999 -8.32 0
v -9.599999 -7.68 0
v -8.96 -7.68 0
v -9.599999 -8.32 0
v -10.24 -8.32 0
v -10.24 -7.68 0
v -9.599999 -7.68 0
v -8.96 -8.96 0
v -9.599999 -8.96 0
v -9.599999 -8.32 0
v -8.96 -8.32 0
v -9.599999 -8.96 0
v -10.24 -8.96 0
v -10.24 -8.32 0
v -9.599999 -8.32 0
v -8.96 -9.599999 0
v -9.599999 -9.599999 0
v -9.599999 -8.96 0
v -8.96 -8.96 0
v -9.599999 -9.599999 0
v -10.24 -9.599999 0
v -10.24 -8.96 0
v -9.599999 -8.96 0
v -8.96 -10.24 0
v -9.599999 -10.24 0
v -9.599999 -9.599999 0
v -8.96 -9.599999 0
v -9.599999 -10.24 0
v -10.24 -10.24 0
v -10.24 -9.599999 0
v -9.599999 -9.599999 0

# Texture cooridinates (Count = 15)
vt 0 0.5833334
vt 0.1666667 0.5833334
vt 0.1666667 0.6666666
vt 0 0.6666666
vt 0.3333333 0.5833334
vt 0.3333333 0.6666666
vt 0 0.5
vt 0.1666667 0.5
vt 0.3333333 0.5
vt 0 0.4166667
vt 0.1666667 0.4166667
vt 0.3333333 0.4166667
vt 0 0.3333333
vt 0.1666667 0.3333333
vt 0.3333333 0.3333333

# Normal
vn 0 0 -1

# Mesh description
g BM2._mesh_0243

# Faces
f 1/1/1 2/2/1 3/3/1 4/4/1
f 5/2/1 6/5/1 7/6/1 8/3/1
f 9/7/1 10/8/1 11/2/1 12/1/1
f 13/8/1 14/9/1 15/5/1 16/2/1
f 17/10/1 18/11/1 19/8/1 20/7/1
f 21/11/1 22/12/1 23/9/1 24/8/1
f 25/13/1 26/14/1 27/11/1 28/10/1
f 29/14/1 30/15/1 31/12/1 32/11/1

