# Tiled2Unity generated file. Do not modify by hand.
# Wavefront file for 'BM2._mesh_0052.obj'

# Vertices (Count = 88)
v -4.48 -0.64 0
v -5.12 -0.64 0
v -5.12 0 0
v -4.48 0 0
v -5.12 -0.64 0
v -5.76 -0.64 0
v -5.76 0 0
v -5.12 0 0
v -4.48 -1.28 0
v -5.12 -1.28 0
v -5.12 -0.64 0
v -4.48 -0.64 0
v -5.12 -1.28 0
v -5.76 -1.28 0
v -5.76 -0.64 0
v -5.12 -0.64 0
v -4.48 -1.92 0
v -5.12 -1.92 0
v -5.12 -1.28 0
v -4.48 -1.28 0
v -5.12 -1.92 0
v -5.76 -1.92 0
v -5.76 -1.28 0
v -5.12 -1.28 0
v 0 -2.56 0
v -0.64 -2.56 0
v -0.64 -1.92 0
v 0 -1.92 0
v -0.64 -2.56 0
v -1.28 -2.56 0
v -1.28 -1.92 0
v -0.64 -1.92 0
v -1.28 -2.56 0
v -1.92 -2.56 0
v -1.92 -1.92 0
v -1.28 -1.92 0
v -1.92 -2.56 0
v -2.56 -2.56 0
v -2.56 -1.92 0
v -1.92 -1.92 0
v -2.56 -2.56 0
v -3.2 -2.56 0
v -3.2 -1.92 0
v -2.56 -1.92 0
v -3.2 -2.56 0
v -3.84 -2.56 0
v -3.84 -1.92 0
v -3.2 -1.92 0
v -3.84 -2.56 0
v -4.48 -2.56 0
v -4.48 -1.92 0
v -3.84 -1.92 0
v -4.48 -2.56 0
v -5.12 -2.56 0
v -5.12 -1.92 0
v -4.48 -1.92 0
v -5.12 -2.56 0
v -5.76 -2.56 0
v -5.76 -1.92 0
v -5.12 -1.92 0
v 0 -3.2 0
v -0.64 -3.2 0
v -0.64 -2.56 0
v 0 -2.56 0
v -0.64 -3.2 0
v -1.28 -3.2 0
v -1.28 -2.56 0
v -0.64 -2.56 0
v -1.28 -3.2 0
v -1.92 -3.2 0
v -1.92 -2.56 0
v -1.28 -2.56 0
v -1.92 -3.2 0
v -2.56 -3.2 0
v -2.56 -2.56 0
v -1.92 -2.56 0
v -2.56 -3.2 0
v -3.2 -3.2 0
v -3.2 -2.56 0
v -2.56 -2.56 0
v -3.2 -3.2 0
v -3.84 -3.2 0
v -3.84 -2.56 0
v -3.2 -2.56 0
v -3.84 -3.2 0
v -4.48 -3.2 0
v -4.48 -2.56 0
v -3.84 -2.56 0

# Texture cooridinates (Count = 9)
vt 0.1875 0.90625
vt 0.21875 0.90625
vt 0.21875 0.9375
vt 0.1875 0.9375
vt 0.25 0.90625
vt 0.25 0.9375
vt 0.1875 0.875
vt 0.21875 0.875
vt 0.25 0.875

# Normal
vn 0 0 -1

# Mesh description
g BM2._mesh_0052

# Faces
f 1/1/1 2/2/1 3/3/1 4/4/1
f 5/2/1 6/5/1 7/6/1 8/3/1
f 9/1/1 10/2/1 11/3/1 12/4/1
f 13/2/1 14/5/1 15/6/1 16/3/1
f 17/1/1 18/2/1 19/3/1 20/4/1
f 21/2/1 22/5/1 23/6/1 24/3/1
f 25/1/1 26/2/1 27/3/1 28/4/1
f 29/1/1 30/2/1 31/3/1 32/4/1
f 33/1/1 34/2/1 35/3/1 36/4/1
f 37/1/1 38/2/1 39/3/1 40/4/1
f 41/1/1 42/2/1 43/3/1 44/4/1
f 45/1/1 46/2/1 47/3/1 48/4/1
f 49/1/1 50/2/1 51/3/1 52/4/1
f 53/7/1 54/8/1 55/2/1 56/1/1
f 57/8/1 58/9/1 59/5/1 60/2/1
f 61/7/1 62/8/1 63/2/1 64/1/1
f 65/7/1 66/8/1 67/2/1 68/1/1
f 69/7/1 70/8/1 71/2/1 72/1/1
f 73/7/1 74/8/1 75/2/1 76/1/1
f 77/7/1 78/8/1 79/2/1 80/1/1
f 81/7/1 82/8/1 83/2/1 84/1/1
f 85/7/1 86/8/1 87/2/1 88/1/1

