# Tiled2Unity generated file. Do not modify by hand.
# Wavefront file for 'BM2._mesh_0273.obj'

# Vertices (Count = 12)
v 0 -5.76 0
v -0.64 -5.76 0
v -0.64 -5.12 0
v 0 -5.12 0
v -0.64 -5.76 0
v -1.28 -5.76 0
v -1.28 -5.12 0
v -0.64 -5.12 0
v 0 -6.4 0
v -0.64 -6.4 0
v -0.64 -5.76 0
v 0 -5.76 0

# Texture cooridinates (Count = 12)
vt 0.2 0.95
vt 0.25 0.95
vt 0.25 1
vt 0.2 1
vt 0.2 0.5
vt 0.15 0.5
vt 0.15 0.45
vt 0.2 0.45
vt 0.45 0.6
vt 0.45 0.55
vt 0.5 0.55
vt 0.5 0.6

# Normal
vn 0 0 -1

# Mesh description
g BM2._mesh_0273

# Faces
f 1/1/1 2/2/1 3/3/1 4/4/1
f 5/5/1 6/6/1 7/7/1 8/8/1
f 9/9/1 10/10/1 11/11/1 12/12/1

