# Tiled2Unity generated file. Do not modify by hand.
# Wavefront file for 'BM2._mesh_0087.obj'

# Vertices (Count = 468)
v 0 -0.64 0
v -0.64 -0.64 0
v -0.64 0 0
v 0 0 0
v -0.64 -0.64 0
v -1.28 -0.64 0
v -1.28 0 0
v -0.64 0 0
v -1.28 -0.64 0
v -1.92 -0.64 0
v -1.92 0 0
v -1.28 0 0
v -1.92 -0.64 0
v -2.56 -0.64 0
v -2.56 0 0
v -1.92 0 0
v -2.56 -0.64 0
v -3.2 -0.64 0
v -3.2 0 0
v -2.56 0 0
v -3.2 -0.64 0
v -3.84 -0.64 0
v -3.84 0 0
v -3.2 0 0
v -3.84 -0.64 0
v -4.48 -0.64 0
v -4.48 0 0
v -3.84 0 0
v -4.48 -0.64 0
v -5.12 -0.64 0
v -5.12 0 0
v -4.48 0 0
v -5.12 -0.64 0
v -5.76 -0.64 0
v -5.76 0 0
v -5.12 0 0
v -5.76 -0.64 0
v -6.4 -0.64 0
v -6.4 0 0
v -5.76 0 0
v -6.4 -0.64 0
v -7.04 -0.64 0
v -7.04 0 0
v -6.4 0 0
v -7.04 -0.64 0
v -7.68 -0.64 0
v -7.68 0 0
v -7.04 0 0
v -7.68 -0.64 0
v -8.32 -0.64 0
v -8.32 0 0
v -7.68 0 0
v 0 -1.28 0
v -0.64 -1.28 0
v -0.64 -0.64 0
v 0 -0.64 0
v -0.64 -1.28 0
v -1.28 -1.28 0
v -1.28 -0.64 0
v -0.64 -0.64 0
v -1.28 -1.28 0
v -1.92 -1.28 0
v -1.92 -0.64 0
v -1.28 -0.64 0
v -1.92 -1.28 0
v -2.56 -1.28 0
v -2.56 -0.64 0
v -1.92 -0.64 0
v -2.56 -1.28 0
v -3.2 -1.28 0
v -3.2 -0.64 0
v -2.56 -0.64 0
v -3.2 -1.28 0
v -3.84 -1.28 0
v -3.84 -0.64 0
v -3.2 -0.64 0
v -3.84 -1.28 0
v -4.48 -1.28 0
v -4.48 -0.64 0
v -3.84 -0.64 0
v -4.48 -1.28 0
v -5.12 -1.28 0
v -5.12 -0.64 0
v -4.48 -0.64 0
v -5.12 -1.28 0
v -5.76 -1.28 0
v -5.76 -0.64 0
v -5.12 -0.64 0
v -5.76 -1.28 0
v -6.4 -1.28 0
v -6.4 -0.64 0
v -5.76 -0.64 0
v -6.4 -1.28 0
v -7.04 -1.28 0
v -7.04 -0.64 0
v -6.4 -0.64 0
v -7.04 -1.28 0
v -7.68 -1.28 0
v -7.68 -0.64 0
v -7.04 -0.64 0
v -7.68 -1.28 0
v -8.32 -1.28 0
v -8.32 -0.64 0
v -7.68 -0.64 0
v 0 -1.92 0
v -0.64 -1.92 0
v -0.64 -1.28 0
v 0 -1.28 0
v -0.64 -1.92 0
v -1.28 -1.92 0
v -1.28 -1.28 0
v -0.64 -1.28 0
v -1.28 -1.92 0
v -1.92 -1.92 0
v -1.92 -1.28 0
v -1.28 -1.28 0
v -1.92 -1.92 0
v -2.56 -1.92 0
v -2.56 -1.28 0
v -1.92 -1.28 0
v -2.56 -1.92 0
v -3.2 -1.92 0
v -3.2 -1.28 0
v -2.56 -1.28 0
v -3.2 -1.92 0
v -3.84 -1.92 0
v -3.84 -1.28 0
v -3.2 -1.28 0
v -3.84 -1.92 0
v -4.48 -1.92 0
v -4.48 -1.28 0
v -3.84 -1.28 0
v -4.48 -1.92 0
v -5.12 -1.92 0
v -5.12 -1.28 0
v -4.48 -1.28 0
v -5.12 -1.92 0
v -5.76 -1.92 0
v -5.76 -1.28 0
v -5.12 -1.28 0
v -5.76 -1.92 0
v -6.4 -1.92 0
v -6.4 -1.28 0
v -5.76 -1.28 0
v -6.4 -1.92 0
v -7.04 -1.92 0
v -7.04 -1.28 0
v -6.4 -1.28 0
v -7.04 -1.92 0
v -7.68 -1.92 0
v -7.68 -1.28 0
v -7.04 -1.28 0
v -7.68 -1.92 0
v -8.32 -1.92 0
v -8.32 -1.28 0
v -7.68 -1.28 0
v 0 -2.56 0
v -0.64 -2.56 0
v -0.64 -1.92 0
v 0 -1.92 0
v -0.64 -2.56 0
v -1.28 -2.56 0
v -1.28 -1.92 0
v -0.64 -1.92 0
v -1.28 -2.56 0
v -1.92 -2.56 0
v -1.92 -1.92 0
v -1.28 -1.92 0
v -1.92 -2.56 0
v -2.56 -2.56 0
v -2.56 -1.92 0
v -1.92 -1.92 0
v -2.56 -2.56 0
v -3.2 -2.56 0
v -3.2 -1.92 0
v -2.56 -1.92 0
v -3.2 -2.56 0
v -3.84 -2.56 0
v -3.84 -1.92 0
v -3.2 -1.92 0
v -3.84 -2.56 0
v -4.48 -2.56 0
v -4.48 -1.92 0
v -3.84 -1.92 0
v -4.48 -2.56 0
v -5.12 -2.56 0
v -5.12 -1.92 0
v -4.48 -1.92 0
v -5.12 -2.56 0
v -5.76 -2.56 0
v -5.76 -1.92 0
v -5.12 -1.92 0
v -5.76 -2.56 0
v -6.4 -2.56 0
v -6.4 -1.92 0
v -5.76 -1.92 0
v -6.4 -2.56 0
v -7.04 -2.56 0
v -7.04 -1.92 0
v -6.4 -1.92 0
v -7.04 -2.56 0
v -7.68 -2.56 0
v -7.68 -1.92 0
v -7.04 -1.92 0
v -7.68 -2.56 0
v -8.32 -2.56 0
v -8.32 -1.92 0
v -7.68 -1.92 0
v 0 -3.2 0
v -0.64 -3.2 0
v -0.64 -2.56 0
v 0 -2.56 0
v -0.64 -3.2 0
v -1.28 -3.2 0
v -1.28 -2.56 0
v -0.64 -2.56 0
v -1.28 -3.2 0
v -1.92 -3.2 0
v -1.92 -2.56 0
v -1.28 -2.56 0
v -1.92 -3.2 0
v -2.56 -3.2 0
v -2.56 -2.56 0
v -1.92 -2.56 0
v -2.56 -3.2 0
v -3.2 -3.2 0
v -3.2 -2.56 0
v -2.56 -2.56 0
v -3.2 -3.2 0
v -3.84 -3.2 0
v -3.84 -2.56 0
v -3.2 -2.56 0
v -3.84 -3.2 0
v -4.48 -3.2 0
v -4.48 -2.56 0
v -3.84 -2.56 0
v -4.48 -3.2 0
v -5.12 -3.2 0
v -5.12 -2.56 0
v -4.48 -2.56 0
v -5.12 -3.2 0
v -5.76 -3.2 0
v -5.76 -2.56 0
v -5.12 -2.56 0
v -5.76 -3.2 0
v -6.4 -3.2 0
v -6.4 -2.56 0
v -5.76 -2.56 0
v -6.4 -3.2 0
v -7.04 -3.2 0
v -7.04 -2.56 0
v -6.4 -2.56 0
v -7.04 -3.2 0
v -7.68 -3.2 0
v -7.68 -2.56 0
v -7.04 -2.56 0
v -7.68 -3.2 0
v -8.32 -3.2 0
v -8.32 -2.56 0
v -7.68 -2.56 0
v 0 -3.84 0
v -0.64 -3.84 0
v -0.64 -3.2 0
v 0 -3.2 0
v -0.64 -3.84 0
v -1.28 -3.84 0
v -1.28 -3.2 0
v -0.64 -3.2 0
v -1.28 -3.84 0
v -1.92 -3.84 0
v -1.92 -3.2 0
v -1.28 -3.2 0
v -1.92 -3.84 0
v -2.56 -3.84 0
v -2.56 -3.2 0
v -1.92 -3.2 0
v -2.56 -3.84 0
v -3.2 -3.84 0
v -3.2 -3.2 0
v -2.56 -3.2 0
v -3.2 -3.84 0
v -3.84 -3.84 0
v -3.84 -3.2 0
v -3.2 -3.2 0
v -3.84 -3.84 0
v -4.48 -3.84 0
v -4.48 -3.2 0
v -3.84 -3.2 0
v -4.48 -3.84 0
v -5.12 -3.84 0
v -5.12 -3.2 0
v -4.48 -3.2 0
v -5.12 -3.84 0
v -5.76 -3.84 0
v -5.76 -3.2 0
v -5.12 -3.2 0
v -5.76 -3.84 0
v -6.4 -3.84 0
v -6.4 -3.2 0
v -5.76 -3.2 0
v -6.4 -3.84 0
v -7.04 -3.84 0
v -7.04 -3.2 0
v -6.4 -3.2 0
v -7.04 -3.84 0
v -7.68 -3.84 0
v -7.68 -3.2 0
v -7.04 -3.2 0
v -7.68 -3.84 0
v -8.32 -3.84 0
v -8.32 -3.2 0
v -7.68 -3.2 0
v 0 -4.48 0
v -0.64 -4.48 0
v -0.64 -3.84 0
v 0 -3.84 0
v -0.64 -4.48 0
v -1.28 -4.48 0
v -1.28 -3.84 0
v -0.64 -3.84 0
v -1.28 -4.48 0
v -1.92 -4.48 0
v -1.92 -3.84 0
v -1.28 -3.84 0
v -1.92 -4.48 0
v -2.56 -4.48 0
v -2.56 -3.84 0
v -1.92 -3.84 0
v -2.56 -4.48 0
v -3.2 -4.48 0
v -3.2 -3.84 0
v -2.56 -3.84 0
v -3.2 -4.48 0
v -3.84 -4.48 0
v -3.84 -3.84 0
v -3.2 -3.84 0
v -3.84 -4.48 0
v -4.48 -4.48 0
v -4.48 -3.84 0
v -3.84 -3.84 0
v -4.48 -4.48 0
v -5.12 -4.48 0
v -5.12 -3.84 0
v -4.48 -3.84 0
v -5.12 -4.48 0
v -5.76 -4.48 0
v -5.76 -3.84 0
v -5.12 -3.84 0
v -5.76 -4.48 0
v -6.4 -4.48 0
v -6.4 -3.84 0
v -5.76 -3.84 0
v -6.4 -4.48 0
v -7.04 -4.48 0
v -7.04 -3.84 0
v -6.4 -3.84 0
v -7.04 -4.48 0
v -7.68 -4.48 0
v -7.68 -3.84 0
v -7.04 -3.84 0
v -7.68 -4.48 0
v -8.32 -4.48 0
v -8.32 -3.84 0
v -7.68 -3.84 0
v 0 -5.12 0
v -0.64 -5.12 0
v -0.64 -4.48 0
v 0 -4.48 0
v -0.64 -5.12 0
v -1.28 -5.12 0
v -1.28 -4.48 0
v -0.64 -4.48 0
v -1.28 -5.12 0
v -1.92 -5.12 0
v -1.92 -4.48 0
v -1.28 -4.48 0
v -1.92 -5.12 0
v -2.56 -5.12 0
v -2.56 -4.48 0
v -1.92 -4.48 0
v -2.56 -5.12 0
v -3.2 -5.12 0
v -3.2 -4.48 0
v -2.56 -4.48 0
v -3.2 -5.12 0
v -3.84 -5.12 0
v -3.84 -4.48 0
v -3.2 -4.48 0
v -3.84 -5.12 0
v -4.48 -5.12 0
v -4.48 -4.48 0
v -3.84 -4.48 0
v -4.48 -5.12 0
v -5.12 -5.12 0
v -5.12 -4.48 0
v -4.48 -4.48 0
v -5.12 -5.12 0
v -5.76 -5.12 0
v -5.76 -4.48 0
v -5.12 -4.48 0
v -5.76 -5.12 0
v -6.4 -5.12 0
v -6.4 -4.48 0
v -5.76 -4.48 0
v -6.4 -5.12 0
v -7.04 -5.12 0
v -7.04 -4.48 0
v -6.4 -4.48 0
v -7.04 -5.12 0
v -7.68 -5.12 0
v -7.68 -4.48 0
v -7.04 -4.48 0
v -7.68 -5.12 0
v -8.32 -5.12 0
v -8.32 -4.48 0
v -7.68 -4.48 0
v 0 -5.76 0
v -0.64 -5.76 0
v -0.64 -5.12 0
v 0 -5.12 0
v -0.64 -5.76 0
v -1.28 -5.76 0
v -1.28 -5.12 0
v -0.64 -5.12 0
v -1.28 -5.76 0
v -1.92 -5.76 0
v -1.92 -5.12 0
v -1.28 -5.12 0
v -1.92 -5.76 0
v -2.56 -5.76 0
v -2.56 -5.12 0
v -1.92 -5.12 0
v -2.56 -5.76 0
v -3.2 -5.76 0
v -3.2 -5.12 0
v -2.56 -5.12 0
v -3.2 -5.76 0
v -3.84 -5.76 0
v -3.84 -5.12 0
v -3.2 -5.12 0
v -3.84 -5.76 0
v -4.48 -5.76 0
v -4.48 -5.12 0
v -3.84 -5.12 0
v -4.48 -5.76 0
v -5.12 -5.76 0
v -5.12 -5.12 0
v -4.48 -5.12 0
v -5.12 -5.76 0
v -5.76 -5.76 0
v -5.76 -5.12 0
v -5.12 -5.12 0
v -5.76 -5.76 0
v -6.4 -5.76 0
v -6.4 -5.12 0
v -5.76 -5.12 0
v -6.4 -5.76 0
v -7.04 -5.76 0
v -7.04 -5.12 0
v -6.4 -5.12 0
v -7.04 -5.76 0
v -7.68 -5.76 0
v -7.68 -5.12 0
v -7.04 -5.12 0
v -7.68 -5.76 0
v -8.32 -5.76 0
v -8.32 -5.12 0
v -7.68 -5.12 0

# Texture cooridinates (Count = 36)
vt 0.75 0.8
vt 0.8 0.8
vt 0.8 0.85
vt 0.75 0.85
vt 0.85 0.8
vt 0.85 0.85
vt 0.65 0.8
vt 0.7 0.8
vt 0.7 0.85
vt 0.65 0.85
vt 0.9 0.8
vt 0.9 0.85
vt 0.75 0.75
vt 0.8 0.75
vt 0.85 0.75
vt 0.65 0.75
vt 0.7 0.75
vt 0.9 0.75
vt 0.75 0.7
vt 0.8 0.7
vt 0.85 0.7
vt 0.65 0.7
vt 0.7 0.7
vt 0.9 0.7
vt 0.75 0.65
vt 0.8 0.65
vt 0.85 0.65
vt 0.65 0.65
vt 0.7 0.65
vt 0.9 0.65
vt 0.75 0.6
vt 0.8 0.6
vt 0.85 0.6
vt 0.65 0.6
vt 0.7 0.6
vt 0.9 0.6

# Normal
vn 0 0 -1

# Mesh description
g BM2._mesh_0087

# Faces
f 1/1/1 2/2/1 3/3/1 4/4/1
f 5/2/1 6/5/1 7/6/1 8/3/1
f 9/7/1 10/8/1 11/9/1 12/10/1
f 13/8/1 14/1/1 15/4/1 16/9/1
f 17/1/1 18/2/1 19/3/1 20/4/1
f 21/2/1 22/5/1 23/6/1 24/3/1
f 25/7/1 26/8/1 27/9/1 28/10/1
f 29/8/1 30/1/1 31/4/1 32/9/1
f 33/1/1 34/2/1 35/3/1 36/4/1
f 37/2/1 38/5/1 39/6/1 40/3/1
f 41/7/1 42/8/1 43/9/1 44/10/1
f 45/8/1 46/1/1 47/4/1 48/9/1
f 49/5/1 50/11/1 51/12/1 52/6/1
f 53/13/1 54/14/1 55/2/1 56/1/1
f 57/14/1 58/15/1 59/5/1 60/2/1
f 61/16/1 62/17/1 63/8/1 64/7/1
f 65/17/1 66/13/1 67/1/1 68/8/1
f 69/13/1 70/14/1 71/2/1 72/1/1
f 73/14/1 74/15/1 75/5/1 76/2/1
f 77/16/1 78/17/1 79/8/1 80/7/1
f 81/17/1 82/13/1 83/1/1 84/8/1
f 85/13/1 86/14/1 87/2/1 88/1/1
f 89/14/1 90/15/1 91/5/1 92/2/1
f 93/16/1 94/17/1 95/8/1 96/7/1
f 97/17/1 98/13/1 99/1/1 100/8/1
f 101/15/1 102/18/1 103/11/1 104/5/1
f 105/19/1 106/20/1 107/14/1 108/13/1
f 109/20/1 110/21/1 111/15/1 112/14/1
f 113/22/1 114/23/1 115/17/1 116/16/1
f 117/23/1 118/19/1 119/13/1 120/17/1
f 121/19/1 122/20/1 123/14/1 124/13/1
f 125/20/1 126/21/1 127/15/1 128/14/1
f 129/22/1 130/23/1 131/17/1 132/16/1
f 133/23/1 134/19/1 135/13/1 136/17/1
f 137/19/1 138/20/1 139/14/1 140/13/1
f 141/20/1 142/21/1 143/15/1 144/14/1
f 145/22/1 146/23/1 147/17/1 148/16/1
f 149/23/1 150/19/1 151/13/1 152/17/1
f 153/21/1 154/24/1 155/18/1 156/15/1
f 157/25/1 158/26/1 159/20/1 160/19/1
f 161/26/1 162/27/1 163/21/1 164/20/1
f 165/28/1 166/29/1 167/23/1 168/22/1
f 169/29/1 170/25/1 171/19/1 172/23/1
f 173/25/1 174/26/1 175/20/1 176/19/1
f 177/26/1 178/27/1 179/21/1 180/20/1
f 181/28/1 182/29/1 183/23/1 184/22/1
f 185/29/1 186/25/1 187/19/1 188/23/1
f 189/25/1 190/26/1 191/20/1 192/19/1
f 193/26/1 194/27/1 195/21/1 196/20/1
f 197/28/1 198/29/1 199/23/1 200/22/1
f 201/29/1 202/25/1 203/19/1 204/23/1
f 205/27/1 206/30/1 207/24/1 208/21/1
f 209/1/1 210/2/1 211/3/1 212/4/1
f 213/2/1 214/5/1 215/6/1 216/3/1
f 217/7/1 218/8/1 219/9/1 220/10/1
f 221/8/1 222/1/1 223/4/1 224/9/1
f 225/1/1 226/2/1 227/3/1 228/4/1
f 229/2/1 230/5/1 231/6/1 232/3/1
f 233/7/1 234/8/1 235/9/1 236/10/1
f 237/8/1 238/1/1 239/4/1 240/9/1
f 241/1/1 242/2/1 243/3/1 244/4/1
f 245/2/1 246/5/1 247/6/1 248/3/1
f 249/7/1 250/8/1 251/9/1 252/10/1
f 253/8/1 254/1/1 255/4/1 256/9/1
f 257/5/1 258/11/1 259/12/1 260/6/1
f 261/13/1 262/14/1 263/2/1 264/1/1
f 265/14/1 266/15/1 267/5/1 268/2/1
f 269/16/1 270/17/1 271/8/1 272/7/1
f 273/17/1 274/13/1 275/1/1 276/8/1
f 277/13/1 278/14/1 279/2/1 280/1/1
f 281/14/1 282/15/1 283/5/1 284/2/1
f 285/16/1 286/17/1 287/8/1 288/7/1
f 289/17/1 290/13/1 291/1/1 292/8/1
f 293/13/1 294/14/1 295/2/1 296/1/1
f 297/14/1 298/15/1 299/5/1 300/2/1
f 301/16/1 302/17/1 303/8/1 304/7/1
f 305/17/1 306/13/1 307/1/1 308/8/1
f 309/15/1 310/18/1 311/11/1 312/5/1
f 313/19/1 314/20/1 315/14/1 316/13/1
f 317/20/1 318/21/1 319/15/1 320/14/1
f 321/22/1 322/23/1 323/17/1 324/16/1
f 325/23/1 326/19/1 327/13/1 328/17/1
f 329/19/1 330/20/1 331/14/1 332/13/1
f 333/20/1 334/21/1 335/15/1 336/14/1
f 337/22/1 338/23/1 339/17/1 340/16/1
f 341/23/1 342/19/1 343/13/1 344/17/1
f 345/19/1 346/20/1 347/14/1 348/13/1
f 349/20/1 350/21/1 351/15/1 352/14/1
f 353/22/1 354/23/1 355/17/1 356/16/1
f 357/23/1 358/19/1 359/13/1 360/17/1
f 361/21/1 362/24/1 363/18/1 364/15/1
f 365/25/1 366/26/1 367/20/1 368/19/1
f 369/26/1 370/27/1 371/21/1 372/20/1
f 373/28/1 374/29/1 375/23/1 376/22/1
f 377/29/1 378/25/1 379/19/1 380/23/1
f 381/25/1 382/26/1 383/20/1 384/19/1
f 385/26/1 386/27/1 387/21/1 388/20/1
f 389/28/1 390/29/1 391/23/1 392/22/1
f 393/29/1 394/25/1 395/19/1 396/23/1
f 397/25/1 398/26/1 399/20/1 400/19/1
f 401/26/1 402/27/1 403/21/1 404/20/1
f 405/28/1 406/29/1 407/23/1 408/22/1
f 409/29/1 410/25/1 411/19/1 412/23/1
f 413/27/1 414/30/1 415/24/1 416/21/1
f 417/31/1 418/32/1 419/26/1 420/25/1
f 421/32/1 422/33/1 423/27/1 424/26/1
f 425/34/1 426/35/1 427/29/1 428/28/1
f 429/35/1 430/31/1 431/25/1 432/29/1
f 433/31/1 434/32/1 435/26/1 436/25/1
f 437/32/1 438/33/1 439/27/1 440/26/1
f 441/34/1 442/35/1 443/29/1 444/28/1
f 445/35/1 446/31/1 447/25/1 448/29/1
f 449/31/1 450/32/1 451/26/1 452/25/1
f 453/32/1 454/33/1 455/27/1 456/26/1
f 457/34/1 458/35/1 459/29/1 460/28/1
f 461/35/1 462/31/1 463/25/1 464/29/1
f 465/33/1 466/36/1 467/30/1 468/27/1

