# Tiled2Unity generated file. Do not modify by hand.
# Wavefront file for 'BM2._mesh_0081.obj'

# Vertices (Count = 284)
v -5.76 -0.64 0
v -6.4 -0.64 0
v -6.4 0 0
v -5.76 0 0
v -6.4 -0.64 0
v -7.04 -0.64 0
v -7.04 0 0
v -6.4 0 0
v -7.04 -0.64 0
v -7.68 -0.64 0
v -7.68 0 0
v -7.04 0 0
v -7.68 -0.64 0
v -8.32 -0.64 0
v -8.32 0 0
v -7.68 0 0
v -8.32 -0.64 0
v -8.96 -0.64 0
v -8.96 0 0
v -8.32 0 0
v -8.96 -0.64 0
v -9.599999 -0.64 0
v -9.599999 0 0
v -8.96 0 0
v -9.599999 -0.64 0
v -10.24 -0.64 0
v -10.24 0 0
v -9.599999 0 0
v -5.76 -1.28 0
v -6.4 -1.28 0
v -6.4 -0.64 0
v -5.76 -0.64 0
v -6.4 -1.28 0
v -7.04 -1.28 0
v -7.04 -0.64 0
v -6.4 -0.64 0
v -7.04 -1.28 0
v -7.68 -1.28 0
v -7.68 -0.64 0
v -7.04 -0.64 0
v -7.68 -1.28 0
v -8.32 -1.28 0
v -8.32 -0.64 0
v -7.68 -0.64 0
v -8.32 -1.28 0
v -8.96 -1.28 0
v -8.96 -0.64 0
v -8.32 -0.64 0
v -8.96 -1.28 0
v -9.599999 -1.28 0
v -9.599999 -0.64 0
v -8.96 -0.64 0
v -9.599999 -1.28 0
v -10.24 -1.28 0
v -10.24 -0.64 0
v -9.599999 -0.64 0
v -5.76 -1.92 0
v -6.4 -1.92 0
v -6.4 -1.28 0
v -5.76 -1.28 0
v -6.4 -1.92 0
v -7.04 -1.92 0
v -7.04 -1.28 0
v -6.4 -1.28 0
v -7.04 -1.92 0
v -7.68 -1.92 0
v -7.68 -1.28 0
v -7.04 -1.28 0
v -7.68 -1.92 0
v -8.32 -1.92 0
v -8.32 -1.28 0
v -7.68 -1.28 0
v -8.32 -1.92 0
v -8.96 -1.92 0
v -8.96 -1.28 0
v -8.32 -1.28 0
v -8.96 -1.92 0
v -9.599999 -1.92 0
v -9.599999 -1.28 0
v -8.96 -1.28 0
v -9.599999 -1.92 0
v -10.24 -1.92 0
v -10.24 -1.28 0
v -9.599999 -1.28 0
v -5.76 -2.56 0
v -6.4 -2.56 0
v -6.4 -1.92 0
v -5.76 -1.92 0
v -6.4 -2.56 0
v -7.04 -2.56 0
v -7.04 -1.92 0
v -6.4 -1.92 0
v -7.04 -2.56 0
v -7.68 -2.56 0
v -7.68 -1.92 0
v -7.04 -1.92 0
v -7.68 -2.56 0
v -8.32 -2.56 0
v -8.32 -1.92 0
v -7.68 -1.92 0
v -8.32 -2.56 0
v -8.96 -2.56 0
v -8.96 -1.92 0
v -8.32 -1.92 0
v -8.96 -2.56 0
v -9.599999 -2.56 0
v -9.599999 -1.92 0
v -8.96 -1.92 0
v -9.599999 -2.56 0
v -10.24 -2.56 0
v -10.24 -1.92 0
v -9.599999 -1.92 0
v -5.76 -3.2 0
v -6.4 -3.2 0
v -6.4 -2.56 0
v -5.76 -2.56 0
v -6.4 -3.2 0
v -7.04 -3.2 0
v -7.04 -2.56 0
v -6.4 -2.56 0
v -7.04 -3.2 0
v -7.68 -3.2 0
v -7.68 -2.56 0
v -7.04 -2.56 0
v -7.68 -3.2 0
v -8.32 -3.2 0
v -8.32 -2.56 0
v -7.68 -2.56 0
v -8.32 -3.2 0
v -8.96 -3.2 0
v -8.96 -2.56 0
v -8.32 -2.56 0
v -8.96 -3.2 0
v -9.599999 -3.2 0
v -9.599999 -2.56 0
v -8.96 -2.56 0
v -9.599999 -3.2 0
v -10.24 -3.2 0
v -10.24 -2.56 0
v -9.599999 -2.56 0
v -4.48 -3.84 0
v -5.12 -3.84 0
v -5.12 -3.2 0
v -4.48 -3.2 0
v -5.12 -3.84 0
v -5.76 -3.84 0
v -5.76 -3.2 0
v -5.12 -3.2 0
v -5.76 -3.84 0
v -6.4 -3.84 0
v -6.4 -3.2 0
v -5.76 -3.2 0
v -6.4 -3.84 0
v -7.04 -3.84 0
v -7.04 -3.2 0
v -6.4 -3.2 0
v -7.04 -3.84 0
v -7.68 -3.84 0
v -7.68 -3.2 0
v -7.04 -3.2 0
v -7.68 -3.84 0
v -8.32 -3.84 0
v -8.32 -3.2 0
v -7.68 -3.2 0
v -8.32 -3.84 0
v -8.96 -3.84 0
v -8.96 -3.2 0
v -8.32 -3.2 0
v -8.96 -3.84 0
v -9.599999 -3.84 0
v -9.599999 -3.2 0
v -8.96 -3.2 0
v -9.599999 -3.84 0
v -10.24 -3.84 0
v -10.24 -3.2 0
v -9.599999 -3.2 0
v -4.48 -4.48 0
v -5.12 -4.48 0
v -5.12 -3.84 0
v -4.48 -3.84 0
v -5.12 -4.48 0
v -5.76 -4.48 0
v -5.76 -3.84 0
v -5.12 -3.84 0
v -5.76 -4.48 0
v -6.4 -4.48 0
v -6.4 -3.84 0
v -5.76 -3.84 0
v -6.4 -4.48 0
v -7.04 -4.48 0
v -7.04 -3.84 0
v -6.4 -3.84 0
v -7.04 -4.48 0
v -7.68 -4.48 0
v -7.68 -3.84 0
v -7.04 -3.84 0
v -7.68 -4.48 0
v -8.32 -4.48 0
v -8.32 -3.84 0
v -7.68 -3.84 0
v -8.32 -4.48 0
v -8.96 -4.48 0
v -8.96 -3.84 0
v -8.32 -3.84 0
v -8.96 -4.48 0
v -9.599999 -4.48 0
v -9.599999 -3.84 0
v -8.96 -3.84 0
v -9.599999 -4.48 0
v -10.24 -4.48 0
v -10.24 -3.84 0
v -9.599999 -3.84 0
v -4.48 -5.12 0
v -5.12 -5.12 0
v -5.12 -4.48 0
v -4.48 -4.48 0
v -5.12 -5.12 0
v -5.76 -5.12 0
v -5.76 -4.48 0
v -5.12 -4.48 0
v -4.48 -5.76 0
v -5.12 -5.76 0
v -5.12 -5.12 0
v -4.48 -5.12 0
v -5.12 -5.76 0
v -5.76 -5.76 0
v -5.76 -5.12 0
v -5.12 -5.12 0
v -4.48 -6.4 0
v -5.12 -6.4 0
v -5.12 -5.76 0
v -4.48 -5.76 0
v -5.12 -6.4 0
v -5.76 -6.4 0
v -5.76 -5.76 0
v -5.12 -5.76 0
v -4.48 -7.04 0
v -5.12 -7.04 0
v -5.12 -6.4 0
v -4.48 -6.4 0
v -5.12 -7.04 0
v -5.76 -7.04 0
v -5.76 -6.4 0
v -5.12 -6.4 0
v -4.48 -7.68 0
v -5.12 -7.68 0
v -5.12 -7.04 0
v -4.48 -7.04 0
v -5.12 -7.68 0
v -5.76 -7.68 0
v -5.76 -7.04 0
v -5.12 -7.04 0
v -4.48 -8.32 0
v -5.12 -8.32 0
v -5.12 -7.68 0
v -4.48 -7.68 0
v -5.12 -8.32 0
v -5.76 -8.32 0
v -5.76 -7.68 0
v -5.12 -7.68 0
v -4.48 -8.96 0
v -5.12 -8.96 0
v -5.12 -8.32 0
v -4.48 -8.32 0
v -5.12 -8.96 0
v -5.76 -8.96 0
v -5.76 -8.32 0
v -5.12 -8.32 0
v -4.48 -9.599999 0
v -5.12 -9.599999 0
v -5.12 -8.96 0
v -4.48 -8.96 0
v -5.12 -9.599999 0
v -5.76 -9.599999 0
v -5.76 -8.96 0
v -5.12 -8.96 0
v -4.48 -10.24 0
v -5.12 -10.24 0
v -5.12 -9.599999 0
v -4.48 -9.599999 0
v -5.12 -10.24 0
v -5.76 -10.24 0
v -5.76 -9.599999 0
v -5.12 -9.599999 0

# Texture cooridinates (Count = 40)
vt 0.3333333 0.2
vt 0.375 0.2
vt 0.375 0.2333333
vt 0.3333333 0.2333333
vt 0.4166667 0.2
vt 0.4166667 0.2333333
vt 0.2916667 0.2
vt 0.2916667 0.2333333
vt 0.3333333 0.1666667
vt 0.375 0.1666667
vt 0.4166667 0.1666667
vt 0.2916667 0.1666667
vt 0.3333333 0.1333333
vt 0.375 0.1333333
vt 0.4166667 0.1333333
vt 0.2916667 0.1333333
vt 0.3333333 0.1
vt 0.375 0.1
vt 0.4166667 0.1
vt 0.2916667 0.1
vt 0.3333333 0.06666666
vt 0.375 0.06666666
vt 0.4166667 0.06666666
vt 0.2916667 0.06666666
vt 0.1666667 0.7666667
vt 0.2083333 0.7666667
vt 0.2083333 0.8
vt 0.1666667 0.8
vt 0.3333333 0.03333336
vt 0.375 0.03333336
vt 0.4166667 0.03333336
vt 0.2916667 0.03333336
vt 0.1666667 0.7333333
vt 0.2083333 0.7333333
vt 0.3333333 0
vt 0.375 0
vt 0.4166667 0
vt 0.2916667 0
vt 0.25 0.7666667
vt 0.25 0.8

# Normal
vn 0 0 -1

# Mesh description
g BM2._mesh_0081

# Faces
f 1/1/1 2/2/1 3/3/1 4/4/1
f 5/2/1 6/5/1 7/6/1 8/3/1
f 9/7/1 10/1/1 11/4/1 12/8/1
f 13/7/1 14/1/1 15/4/1 16/8/1
f 17/7/1 18/1/1 19/4/1 20/8/1
f 21/7/1 22/1/1 23/4/1 24/8/1
f 25/7/1 26/1/1 27/4/1 28/8/1
f 29/9/1 30/10/1 31/2/1 32/1/1
f 33/10/1 34/11/1 35/5/1 36/2/1
f 37/12/1 38/9/1 39/1/1 40/7/1
f 41/12/1 42/9/1 43/1/1 44/7/1
f 45/12/1 46/9/1 47/1/1 48/7/1
f 49/12/1 50/9/1 51/1/1 52/7/1
f 53/12/1 54/9/1 55/1/1 56/7/1
f 57/13/1 58/14/1 59/10/1 60/9/1
f 61/14/1 62/15/1 63/11/1 64/10/1
f 65/16/1 66/13/1 67/9/1 68/12/1
f 69/16/1 70/13/1 71/9/1 72/12/1
f 73/16/1 74/13/1 75/9/1 76/12/1
f 77/16/1 78/13/1 79/9/1 80/12/1
f 81/16/1 82/13/1 83/9/1 84/12/1
f 85/17/1 86/18/1 87/14/1 88/13/1
f 89/18/1 90/19/1 91/15/1 92/14/1
f 93/20/1 94/17/1 95/13/1 96/16/1
f 97/20/1 98/17/1 99/13/1 100/16/1
f 101/20/1 102/17/1 103/13/1 104/16/1
f 105/20/1 106/17/1 107/13/1 108/16/1
f 109/20/1 110/17/1 111/13/1 112/16/1
f 113/21/1 114/22/1 115/18/1 116/17/1
f 117/22/1 118/23/1 119/19/1 120/18/1
f 121/24/1 122/21/1 123/17/1 124/20/1
f 125/24/1 126/21/1 127/17/1 128/20/1
f 129/24/1 130/21/1 131/17/1 132/20/1
f 133/24/1 134/21/1 135/17/1 136/20/1
f 137/24/1 138/21/1 139/17/1 140/20/1
f 141/25/1 142/26/1 143/27/1 144/28/1
f 145/25/1 146/26/1 147/27/1 148/28/1
f 149/29/1 150/30/1 151/22/1 152/21/1
f 153/30/1 154/31/1 155/23/1 156/22/1
f 157/32/1 158/29/1 159/21/1 160/24/1
f 161/32/1 162/29/1 163/21/1 164/24/1
f 165/32/1 166/29/1 167/21/1 168/24/1
f 169/32/1 170/29/1 171/21/1 172/24/1
f 173/32/1 174/29/1 175/21/1 176/24/1
f 177/25/1 178/26/1 179/27/1 180/28/1
f 181/33/1 182/34/1 183/26/1 184/25/1
f 185/35/1 186/36/1 187/30/1 188/29/1
f 189/36/1 190/37/1 191/31/1 192/30/1
f 193/38/1 194/35/1 195/29/1 196/32/1
f 197/38/1 198/35/1 199/29/1 200/32/1
f 201/38/1 202/35/1 203/29/1 204/32/1
f 205/38/1 206/35/1 207/29/1 208/32/1
f 209/38/1 210/35/1 211/29/1 212/32/1
f 213/25/1 214/26/1 215/27/1 216/28/1
f 217/26/1 218/39/1 219/40/1 220/27/1
f 221/25/1 222/26/1 223/27/1 224/28/1
f 225/26/1 226/39/1 227/40/1 228/27/1
f 229/25/1 230/26/1 231/27/1 232/28/1
f 233/26/1 234/39/1 235/40/1 236/27/1
f 237/25/1 238/26/1 239/27/1 240/28/1
f 241/26/1 242/39/1 243/40/1 244/27/1
f 245/25/1 246/26/1 247/27/1 248/28/1
f 249/26/1 250/39/1 251/40/1 252/27/1
f 253/25/1 254/26/1 255/27/1 256/28/1
f 257/26/1 258/39/1 259/40/1 260/27/1
f 261/25/1 262/26/1 263/27/1 264/28/1
f 265/26/1 266/39/1 267/40/1 268/27/1
f 269/25/1 270/26/1 271/27/1 272/28/1
f 273/26/1 274/39/1 275/40/1 276/27/1
f 277/25/1 278/26/1 279/27/1 280/28/1
f 281/26/1 282/39/1 283/40/1 284/27/1

