# Tiled2Unity generated file. Do not modify by hand.
# Wavefront file for 'BM2._mesh_0405.obj'

# Vertices (Count = 104)
v -5.76 -0.64 0
v -6.4 -0.64 0
v -6.4 0 0
v -5.76 0 0
v -6.4 -0.64 0
v -7.04 -0.64 0
v -7.04 0 0
v -6.4 0 0
v -5.76 -1.28 0
v -6.4 -1.28 0
v -6.4 -0.64 0
v -5.76 -0.64 0
v -6.4 -1.28 0
v -7.04 -1.28 0
v -7.04 -0.64 0
v -6.4 -0.64 0
v -5.76 -3.2 0
v -6.4 -3.2 0
v -6.4 -2.56 0
v -5.76 -2.56 0
v -6.4 -3.2 0
v -7.04 -3.2 0
v -7.04 -2.56 0
v -6.4 -2.56 0
v -8.32 -3.2 0
v -8.96 -3.2 0
v -8.96 -2.56 0
v -8.32 -2.56 0
v -8.96 -3.2 0
v -9.599999 -3.2 0
v -9.599999 -2.56 0
v -8.96 -2.56 0
v -5.76 -3.84 0
v -6.4 -3.84 0
v -6.4 -3.2 0
v -5.76 -3.2 0
v -6.4 -3.84 0
v -7.04 -3.84 0
v -7.04 -3.2 0
v -6.4 -3.2 0
v -8.32 -3.84 0
v -8.96 -3.84 0
v -8.96 -3.2 0
v -8.32 -3.2 0
v -8.96 -3.84 0
v -9.599999 -3.84 0
v -9.599999 -3.2 0
v -8.96 -3.2 0
v -5.76 -6.4 0
v -6.4 -6.4 0
v -6.4 -5.76 0
v -5.76 -5.76 0
v -6.4 -6.4 0
v -7.04 -6.4 0
v -7.04 -5.76 0
v -6.4 -5.76 0
v -8.32 -6.4 0
v -8.96 -6.4 0
v -8.96 -5.76 0
v -8.32 -5.76 0
v -8.96 -6.4 0
v -9.599999 -6.4 0
v -9.599999 -5.76 0
v -8.96 -5.76 0
v -5.76 -7.04 0
v -6.4 -7.04 0
v -6.4 -6.4 0
v -5.76 -6.4 0
v -6.4 -7.04 0
v -7.04 -7.04 0
v -7.04 -6.4 0
v -6.4 -6.4 0
v -8.32 -7.04 0
v -8.96 -7.04 0
v -8.96 -6.4 0
v -8.32 -6.4 0
v -8.96 -7.04 0
v -9.599999 -7.04 0
v -9.599999 -6.4 0
v -8.96 -6.4 0
v -5.76 -8.96 0
v -6.4 -8.96 0
v -6.4 -8.32 0
v -5.76 -8.32 0
v -6.4 -8.96 0
v -7.04 -8.96 0
v -7.04 -8.32 0
v -6.4 -8.32 0
v -5.76 -9.599999 0
v -6.4 -9.599999 0
v -6.4 -8.96 0
v -5.76 -8.96 0
v -6.4 -9.599999 0
v -7.04 -9.599999 0
v -7.04 -8.96 0
v -6.4 -8.96 0
v -9.599999 -9.599999 0
v -10.24 -9.599999 0
v -10.24 -8.96 0
v -9.599999 -8.96 0
v -9.599999 -10.24 0
v -10.24 -10.24 0
v -10.24 -9.599999 0
v -9.599999 -9.599999 0

# Texture cooridinates (Count = 16)
vt 0.1 0.35
vt 0.15 0.35
vt 0.15 0.4
vt 0.1 0.4
vt 0.35 0.35
vt 0.4 0.35
vt 0.4 0.4
vt 0.35 0.4
vt 0.1 0.1
vt 0.15 0.1
vt 0.15 0.15
vt 0.1 0.15
vt 0.35 0.1
vt 0.4 0.1
vt 0.4 0.15
vt 0.35 0.15

# Normal
vn 0 0 -1

# Mesh description
g BM2._mesh_0405

# Faces
f 1/1/1 2/2/1 3/3/1 4/4/1
f 5/5/1 6/6/1 7/7/1 8/8/1
f 9/9/1 10/10/1 11/11/1 12/12/1
f 13/13/1 14/14/1 15/15/1 16/16/1
f 17/1/1 18/2/1 19/3/1 20/4/1
f 21/5/1 22/6/1 23/7/1 24/8/1
f 25/1/1 26/2/1 27/3/1 28/4/1
f 29/5/1 30/6/1 31/7/1 32/8/1
f 33/9/1 34/10/1 35/11/1 36/12/1
f 37/13/1 38/14/1 39/15/1 40/16/1
f 41/9/1 42/10/1 43/11/1 44/12/1
f 45/13/1 46/14/1 47/15/1 48/16/1
f 49/1/1 50/2/1 51/3/1 52/4/1
f 53/5/1 54/6/1 55/7/1 56/8/1
f 57/1/1 58/2/1 59/3/1 60/4/1
f 61/5/1 62/6/1 63/7/1 64/8/1
f 65/9/1 66/10/1 67/11/1 68/12/1
f 69/13/1 70/14/1 71/15/1 72/16/1
f 73/9/1 74/10/1 75/11/1 76/12/1
f 77/13/1 78/14/1 79/15/1 80/16/1
f 81/1/1 82/2/1 83/3/1 84/4/1
f 85/5/1 86/6/1 87/7/1 88/8/1
f 89/9/1 90/10/1 91/11/1 92/12/1
f 93/13/1 94/14/1 95/15/1 96/16/1
f 97/1/1 98/2/1 99/3/1 100/4/1
f 101/9/1 102/10/1 103/11/1 104/12/1

