# Tiled2Unity generated file. Do not modify by hand.
# Wavefront file for 'BM2._mesh_0154.obj'

# Vertices (Count = 48)
v 0 -1.28 0
v -0.64 -1.28 0
v -0.64 -0.64 0
v 0 -0.64 0
v -0.64 -1.28 0
v -1.28 -1.28 0
v -1.28 -0.64 0
v -0.64 -0.64 0
v -2.56 -1.28 0
v -3.2 -1.28 0
v -3.2 -0.64 0
v -2.56 -0.64 0
v -3.2 -1.28 0
v -3.84 -1.28 0
v -3.84 -0.64 0
v -3.2 -0.64 0
v 0 -1.92 0
v -0.64 -1.92 0
v -0.64 -1.28 0
v 0 -1.28 0
v -0.64 -1.92 0
v -1.28 -1.92 0
v -1.28 -1.28 0
v -0.64 -1.28 0
v -2.56 -1.92 0
v -3.2 -1.92 0
v -3.2 -1.28 0
v -2.56 -1.28 0
v -3.2 -1.92 0
v -3.84 -1.92 0
v -3.84 -1.28 0
v -3.2 -1.28 0
v 0 -2.56 0
v -0.64 -2.56 0
v -0.64 -1.92 0
v 0 -1.92 0
v -0.64 -2.56 0
v -1.28 -2.56 0
v -1.28 -1.92 0
v -0.64 -1.92 0
v -2.56 -2.56 0
v -3.2 -2.56 0
v -3.2 -1.92 0
v -2.56 -1.92 0
v -3.2 -2.56 0
v -3.84 -2.56 0
v -3.84 -1.92 0
v -3.2 -1.92 0

# Texture cooridinates (Count = 12)
vt 0.7 0.875
vt 0.8 0.875
vt 0.8 1
vt 0.7 1
vt 0.9 0.875
vt 0.9 1
vt 0.7 0.75
vt 0.8 0.75
vt 0.9 0.75
vt 0.7 0.625
vt 0.8 0.625
vt 0.9 0.625

# Normal
vn 0 0 -1

# Mesh description
g BM2._mesh_0154

# Faces
f 1/1/1 2/2/1 3/3/1 4/4/1
f 5/2/1 6/5/1 7/6/1 8/3/1
f 9/1/1 10/2/1 11/3/1 12/4/1
f 13/2/1 14/5/1 15/6/1 16/3/1
f 17/7/1 18/8/1 19/2/1 20/1/1
f 21/8/1 22/9/1 23/5/1 24/2/1
f 25/7/1 26/8/1 27/2/1 28/1/1
f 29/8/1 30/9/1 31/5/1 32/2/1
f 33/10/1 34/11/1 35/8/1 36/7/1
f 37/11/1 38/12/1 39/9/1 40/8/1
f 41/10/1 42/11/1 43/8/1 44/7/1
f 45/11/1 46/12/1 47/9/1 48/8/1

