# Tiled2Unity generated file. Do not modify by hand.
# Wavefront file for 'BM2._mesh_0180.obj'

# Vertices (Count = 372)
v 0 -3.84 0
v -0.64 -3.84 0
v -0.64 -3.2 0
v 0 -3.2 0
v -0.64 -3.84 0
v -1.28 -3.84 0
v -1.28 -3.2 0
v -0.64 -3.2 0
v -1.28 -3.84 0
v -1.92 -3.84 0
v -1.92 -3.2 0
v -1.28 -3.2 0
v -1.92 -3.84 0
v -2.56 -3.84 0
v -2.56 -3.2 0
v -1.92 -3.2 0
v -2.56 -3.84 0
v -3.2 -3.84 0
v -3.2 -3.2 0
v -2.56 -3.2 0
v -3.2 -3.84 0
v -3.84 -3.84 0
v -3.84 -3.2 0
v -3.2 -3.2 0
v -3.84 -3.84 0
v -4.48 -3.84 0
v -4.48 -3.2 0
v -3.84 -3.2 0
v -4.48 -3.84 0
v -5.12 -3.84 0
v -5.12 -3.2 0
v -4.48 -3.2 0
v -5.12 -3.84 0
v -5.76 -3.84 0
v -5.76 -3.2 0
v -5.12 -3.2 0
v -5.76 -3.84 0
v -6.4 -3.84 0
v -6.4 -3.2 0
v -5.76 -3.2 0
v -6.4 -3.84 0
v -7.04 -3.84 0
v -7.04 -3.2 0
v -6.4 -3.2 0
v -7.04 -3.84 0
v -7.68 -3.84 0
v -7.68 -3.2 0
v -7.04 -3.2 0
v -7.68 -3.84 0
v -8.32 -3.84 0
v -8.32 -3.2 0
v -7.68 -3.2 0
v -8.32 -3.84 0
v -8.96 -3.84 0
v -8.96 -3.2 0
v -8.32 -3.2 0
v -8.96 -3.84 0
v -9.599999 -3.84 0
v -9.599999 -3.2 0
v -8.96 -3.2 0
v 0 -4.48 0
v -0.64 -4.48 0
v -0.64 -3.84 0
v 0 -3.84 0
v -0.64 -4.48 0
v -1.28 -4.48 0
v -1.28 -3.84 0
v -0.64 -3.84 0
v -1.28 -4.48 0
v -1.92 -4.48 0
v -1.92 -3.84 0
v -1.28 -3.84 0
v -1.92 -4.48 0
v -2.56 -4.48 0
v -2.56 -3.84 0
v -1.92 -3.84 0
v -2.56 -4.48 0
v -3.2 -4.48 0
v -3.2 -3.84 0
v -2.56 -3.84 0
v -3.2 -4.48 0
v -3.84 -4.48 0
v -3.84 -3.84 0
v -3.2 -3.84 0
v -3.84 -4.48 0
v -4.48 -4.48 0
v -4.48 -3.84 0
v -3.84 -3.84 0
v -4.48 -4.48 0
v -5.12 -4.48 0
v -5.12 -3.84 0
v -4.48 -3.84 0
v -5.12 -4.48 0
v -5.76 -4.48 0
v -5.76 -3.84 0
v -5.12 -3.84 0
v -5.76 -4.48 0
v -6.4 -4.48 0
v -6.4 -3.84 0
v -5.76 -3.84 0
v -6.4 -4.48 0
v -7.04 -4.48 0
v -7.04 -3.84 0
v -6.4 -3.84 0
v -7.04 -4.48 0
v -7.68 -4.48 0
v -7.68 -3.84 0
v -7.04 -3.84 0
v -7.68 -4.48 0
v -8.32 -4.48 0
v -8.32 -3.84 0
v -7.68 -3.84 0
v -8.32 -4.48 0
v -8.96 -4.48 0
v -8.96 -3.84 0
v -8.32 -3.84 0
v -8.96 -4.48 0
v -9.599999 -4.48 0
v -9.599999 -3.84 0
v -8.96 -3.84 0
v 0 -5.12 0
v -0.64 -5.12 0
v -0.64 -4.48 0
v 0 -4.48 0
v -0.64 -5.12 0
v -1.28 -5.12 0
v -1.28 -4.48 0
v -0.64 -4.48 0
v -1.28 -5.12 0
v -1.92 -5.12 0
v -1.92 -4.48 0
v -1.28 -4.48 0
v -1.92 -5.12 0
v -2.56 -5.12 0
v -2.56 -4.48 0
v -1.92 -4.48 0
v -2.56 -5.12 0
v -3.2 -5.12 0
v -3.2 -4.48 0
v -2.56 -4.48 0
v -3.2 -5.12 0
v -3.84 -5.12 0
v -3.84 -4.48 0
v -3.2 -4.48 0
v -3.84 -5.12 0
v -4.48 -5.12 0
v -4.48 -4.48 0
v -3.84 -4.48 0
v -4.48 -5.12 0
v -5.12 -5.12 0
v -5.12 -4.48 0
v -4.48 -4.48 0
v -5.12 -5.12 0
v -5.76 -5.12 0
v -5.76 -4.48 0
v -5.12 -4.48 0
v -5.76 -5.12 0
v -6.4 -5.12 0
v -6.4 -4.48 0
v -5.76 -4.48 0
v -6.4 -5.12 0
v -7.04 -5.12 0
v -7.04 -4.48 0
v -6.4 -4.48 0
v -7.04 -5.12 0
v -7.68 -5.12 0
v -7.68 -4.48 0
v -7.04 -4.48 0
v -7.68 -5.12 0
v -8.32 -5.12 0
v -8.32 -4.48 0
v -7.68 -4.48 0
v -8.32 -5.12 0
v -8.96 -5.12 0
v -8.96 -4.48 0
v -8.32 -4.48 0
v -8.96 -5.12 0
v -9.599999 -5.12 0
v -9.599999 -4.48 0
v -8.96 -4.48 0
v -1.92 -5.76 0
v -2.56 -5.76 0
v -2.56 -5.12 0
v -1.92 -5.12 0
v -2.56 -5.76 0
v -3.2 -5.76 0
v -3.2 -5.12 0
v -2.56 -5.12 0
v -3.2 -5.76 0
v -3.84 -5.76 0
v -3.84 -5.12 0
v -3.2 -5.12 0
v -3.84 -5.76 0
v -4.48 -5.76 0
v -4.48 -5.12 0
v -3.84 -5.12 0
v -7.04 -5.76 0
v -7.68 -5.76 0
v -7.68 -5.12 0
v -7.04 -5.12 0
v -7.68 -5.76 0
v -8.32 -5.76 0
v -8.32 -5.12 0
v -7.68 -5.12 0
v -8.32 -5.76 0
v -8.96 -5.76 0
v -8.96 -5.12 0
v -8.32 -5.12 0
v -8.96 -5.76 0
v -9.599999 -5.76 0
v -9.599999 -5.12 0
v -8.96 -5.12 0
v -1.92 -6.4 0
v -2.56 -6.4 0
v -2.56 -5.76 0
v -1.92 -5.76 0
v -2.56 -6.4 0
v -3.2 -6.4 0
v -3.2 -5.76 0
v -2.56 -5.76 0
v -3.2 -6.4 0
v -3.84 -6.4 0
v -3.84 -5.76 0
v -3.2 -5.76 0
v -3.84 -6.4 0
v -4.48 -6.4 0
v -4.48 -5.76 0
v -3.84 -5.76 0
v -7.04 -6.4 0
v -7.68 -6.4 0
v -7.68 -5.76 0
v -7.04 -5.76 0
v -7.68 -6.4 0
v -8.32 -6.4 0
v -8.32 -5.76 0
v -7.68 -5.76 0
v -8.32 -6.4 0
v -8.96 -6.4 0
v -8.96 -5.76 0
v -8.32 -5.76 0
v -8.96 -6.4 0
v -9.599999 -6.4 0
v -9.599999 -5.76 0
v -8.96 -5.76 0
v -1.92 -7.04 0
v -2.56 -7.04 0
v -2.56 -6.4 0
v -1.92 -6.4 0
v -2.56 -7.04 0
v -3.2 -7.04 0
v -3.2 -6.4 0
v -2.56 -6.4 0
v -3.2 -7.04 0
v -3.84 -7.04 0
v -3.84 -6.4 0
v -3.2 -6.4 0
v -3.84 -7.04 0
v -4.48 -7.04 0
v -4.48 -6.4 0
v -3.84 -6.4 0
v -7.04 -7.04 0
v -7.68 -7.04 0
v -7.68 -6.4 0
v -7.04 -6.4 0
v -7.68 -7.04 0
v -8.32 -7.04 0
v -8.32 -6.4 0
v -7.68 -6.4 0
v -8.32 -7.04 0
v -8.96 -7.04 0
v -8.96 -6.4 0
v -8.32 -6.4 0
v -8.96 -7.04 0
v -9.599999 -7.04 0
v -9.599999 -6.4 0
v -8.96 -6.4 0
v -1.92 -7.68 0
v -2.56 -7.68 0
v -2.56 -7.04 0
v -1.92 -7.04 0
v -2.56 -7.68 0
v -3.2 -7.68 0
v -3.2 -7.04 0
v -2.56 -7.04 0
v -3.2 -7.68 0
v -3.84 -7.68 0
v -3.84 -7.04 0
v -3.2 -7.04 0
v -3.84 -7.68 0
v -4.48 -7.68 0
v -4.48 -7.04 0
v -3.84 -7.04 0
v -7.04 -7.68 0
v -7.68 -7.68 0
v -7.68 -7.04 0
v -7.04 -7.04 0
v -7.68 -7.68 0
v -8.32 -7.68 0
v -8.32 -7.04 0
v -7.68 -7.04 0
v -8.32 -7.68 0
v -8.96 -7.68 0
v -8.96 -7.04 0
v -8.32 -7.04 0
v -8.96 -7.68 0
v -9.599999 -7.68 0
v -9.599999 -7.04 0
v -8.96 -7.04 0
v -1.92 -8.32 0
v -2.56 -8.32 0
v -2.56 -7.68 0
v -1.92 -7.68 0
v -2.56 -8.32 0
v -3.2 -8.32 0
v -3.2 -7.68 0
v -2.56 -7.68 0
v -3.2 -8.32 0
v -3.84 -8.32 0
v -3.84 -7.68 0
v -3.2 -7.68 0
v -3.84 -8.32 0
v -4.48 -8.32 0
v -4.48 -7.68 0
v -3.84 -7.68 0
v -7.04 -8.32 0
v -7.68 -8.32 0
v -7.68 -7.68 0
v -7.04 -7.68 0
v -7.68 -8.32 0
v -8.32 -8.32 0
v -8.32 -7.68 0
v -7.68 -7.68 0
v -8.32 -8.32 0
v -8.96 -8.32 0
v -8.96 -7.68 0
v -8.32 -7.68 0
v -8.96 -8.32 0
v -9.599999 -8.32 0
v -9.599999 -7.68 0
v -8.96 -7.68 0
v -1.92 -8.96 0
v -2.56 -8.96 0
v -2.56 -8.32 0
v -1.92 -8.32 0
v -2.56 -8.96 0
v -3.2 -8.96 0
v -3.2 -8.32 0
v -2.56 -8.32 0
v -3.2 -8.96 0
v -3.84 -8.96 0
v -3.84 -8.32 0
v -3.2 -8.32 0
v -3.84 -8.96 0
v -4.48 -8.96 0
v -4.48 -8.32 0
v -3.84 -8.32 0
v -7.04 -8.96 0
v -7.68 -8.96 0
v -7.68 -8.32 0
v -7.04 -8.32 0
v -7.68 -8.96 0
v -8.32 -8.96 0
v -8.32 -8.32 0
v -7.68 -8.32 0
v -8.32 -8.96 0
v -8.96 -8.96 0
v -8.96 -8.32 0
v -8.32 -8.32 0
v -8.96 -8.96 0
v -9.599999 -8.96 0
v -9.599999 -8.32 0
v -8.96 -8.32 0

# Texture cooridinates (Count = 32)
vt 0.4791667 0.9761904
vt 0.5 0.9761904
vt 0.5 1
vt 0.4791667 1
vt 0.5208333 0.9761904
vt 0.5416667 0.9761904
vt 0.5416667 1
vt 0.5208333 1
vt 0.4791667 0.952381
vt 0.5 0.952381
vt 0.5208333 0.952381
vt 0.5416667 0.952381
vt 0.4791667 0.9285714
vt 0.5 0.9285714
vt 0.5208333 0.9285714
vt 0.5416667 0.9285714
vt 0.4791667 0.9047619
vt 0.5 0.9047619
vt 0.5208333 0.9047619
vt 0.5416667 0.9047619
vt 0.4791667 0.8809524
vt 0.5 0.8809524
vt 0.5208333 0.8809524
vt 0.5416667 0.8809524
vt 0.4375 0.9285714
vt 0.4583333 0.9285714
vt 0.4583333 0.952381
vt 0.4375 0.952381
vt 0.4375 0.9047619
vt 0.4583333 0.9047619
vt 0.4375 0.8809524
vt 0.4583333 0.8809524

# Normal
vn 0 0 -1

# Mesh description
g BM2._mesh_0180

# Faces
f 1/1/1 2/2/1 3/3/1 4/4/1
f 5/1/1 6/2/1 7/3/1 8/4/1
f 9/1/1 10/2/1 11/3/1 12/4/1
f 13/1/1 14/2/1 15/3/1 16/4/1
f 17/1/1 18/2/1 19/3/1 20/4/1
f 21/1/1 22/2/1 23/3/1 24/4/1
f 25/1/1 26/2/1 27/3/1 28/4/1
f 29/1/1 30/2/1 31/3/1 32/4/1
f 33/1/1 34/2/1 35/3/1 36/4/1
f 37/1/1 38/2/1 39/3/1 40/4/1
f 41/1/1 42/2/1 43/3/1 44/4/1
f 45/1/1 46/2/1 47/3/1 48/4/1
f 49/1/1 50/2/1 51/3/1 52/4/1
f 53/1/1 54/2/1 55/3/1 56/4/1
f 57/5/1 58/6/1 59/7/1 60/8/1
f 61/9/1 62/10/1 63/2/1 64/1/1
f 65/9/1 66/10/1 67/2/1 68/1/1
f 69/9/1 70/10/1 71/2/1 72/1/1
f 73/9/1 74/10/1 75/2/1 76/1/1
f 77/9/1 78/10/1 79/2/1 80/1/1
f 81/9/1 82/10/1 83/2/1 84/1/1
f 85/9/1 86/10/1 87/2/1 88/1/1
f 89/9/1 90/10/1 91/2/1 92/1/1
f 93/9/1 94/10/1 95/2/1 96/1/1
f 97/9/1 98/10/1 99/2/1 100/1/1
f 101/9/1 102/10/1 103/2/1 104/1/1
f 105/9/1 106/10/1 107/2/1 108/1/1
f 109/9/1 110/10/1 111/2/1 112/1/1
f 113/9/1 114/10/1 115/2/1 116/1/1
f 117/11/1 118/12/1 119/6/1 120/5/1
f 121/13/1 122/14/1 123/10/1 124/9/1
f 125/13/1 126/14/1 127/10/1 128/9/1
f 129/13/1 130/14/1 131/10/1 132/9/1
f 133/13/1 134/14/1 135/10/1 136/9/1
f 137/13/1 138/14/1 139/10/1 140/9/1
f 141/13/1 142/14/1 143/10/1 144/9/1
f 145/13/1 146/14/1 147/10/1 148/9/1
f 149/13/1 150/14/1 151/10/1 152/9/1
f 153/13/1 154/14/1 155/10/1 156/9/1
f 157/13/1 158/14/1 159/10/1 160/9/1
f 161/13/1 162/14/1 163/10/1 164/9/1
f 165/13/1 166/14/1 167/10/1 168/9/1
f 169/13/1 170/14/1 171/10/1 172/9/1
f 173/13/1 174/14/1 175/10/1 176/9/1
f 177/15/1 178/16/1 179/12/1 180/11/1
f 181/17/1 182/18/1 183/14/1 184/13/1
f 185/17/1 186/18/1 187/14/1 188/13/1
f 189/17/1 190/18/1 191/14/1 192/13/1
f 193/17/1 194/18/1 195/14/1 196/13/1
f 197/17/1 198/18/1 199/14/1 200/13/1
f 201/17/1 202/18/1 203/14/1 204/13/1
f 205/17/1 206/18/1 207/14/1 208/13/1
f 209/19/1 210/20/1 211/16/1 212/15/1
f 213/21/1 214/22/1 215/18/1 216/17/1
f 217/21/1 218/22/1 219/18/1 220/17/1
f 221/21/1 222/22/1 223/18/1 224/17/1
f 225/21/1 226/22/1 227/18/1 228/17/1
f 229/21/1 230/22/1 231/18/1 232/17/1
f 233/21/1 234/22/1 235/18/1 236/17/1
f 237/21/1 238/22/1 239/18/1 240/17/1
f 241/23/1 242/24/1 243/20/1 244/19/1
f 245/25/1 246/26/1 247/27/1 248/28/1
f 249/26/1 250/13/1 251/9/1 252/27/1
f 253/13/1 254/14/1 255/10/1 256/9/1
f 257/14/1 258/15/1 259/11/1 260/10/1
f 261/25/1 262/26/1 263/27/1 264/28/1
f 265/26/1 266/13/1 267/9/1 268/27/1
f 269/13/1 270/14/1 271/10/1 272/9/1
f 273/14/1 274/15/1 275/11/1 276/10/1
f 277/29/1 278/30/1 279/26/1 280/25/1
f 281/30/1 282/17/1 283/13/1 284/26/1
f 285/17/1 286/18/1 287/14/1 288/13/1
f 289/18/1 290/19/1 291/15/1 292/14/1
f 293/29/1 294/30/1 295/26/1 296/25/1
f 297/30/1 298/17/1 299/13/1 300/26/1
f 301/17/1 302/18/1 303/14/1 304/13/1
f 305/18/1 306/19/1 307/15/1 308/14/1
f 309/31/1 310/32/1 311/30/1 312/29/1
f 313/32/1 314/21/1 315/17/1 316/30/1
f 317/21/1 318/22/1 319/18/1 320/17/1
f 321/22/1 322/23/1 323/19/1 324/18/1
f 325/31/1 326/32/1 327/30/1 328/29/1
f 329/32/1 330/21/1 331/17/1 332/30/1
f 333/21/1 334/22/1 335/18/1 336/17/1
f 337/22/1 338/23/1 339/19/1 340/18/1
f 341/25/1 342/26/1 343/27/1 344/28/1
f 345/26/1 346/13/1 347/9/1 348/27/1
f 349/13/1 350/14/1 351/10/1 352/9/1
f 353/14/1 354/15/1 355/11/1 356/10/1
f 357/25/1 358/26/1 359/27/1 360/28/1
f 361/26/1 362/13/1 363/9/1 364/27/1
f 365/13/1 366/14/1 367/10/1 368/9/1
f 369/14/1 370/15/1 371/11/1 372/10/1

