# Tiled2Unity generated file. Do not modify by hand.
# Wavefront file for 'BM2._mesh_0193.obj'

# Vertices (Count = 72)
v -0.64 -6.4 0
v -1.28 -6.4 0
v -1.28 -5.76 0
v -0.64 -5.76 0
v -1.28 -6.4 0
v -1.92 -6.4 0
v -1.92 -5.76 0
v -1.28 -5.76 0
v -1.92 -6.4 0
v -2.56 -6.4 0
v -2.56 -5.76 0
v -1.92 -5.76 0
v -2.56 -6.4 0
v -3.2 -6.4 0
v -3.2 -5.76 0
v -2.56 -5.76 0
v -7.68 -6.4 0
v -8.32 -6.4 0
v -8.32 -5.76 0
v -7.68 -5.76 0
v -8.32 -6.4 0
v -8.96 -6.4 0
v -8.96 -5.76 0
v -8.32 -5.76 0
v -0.64 -7.04 0
v -1.28 -7.04 0
v -1.28 -6.4 0
v -0.64 -6.4 0
v -1.28 -7.04 0
v -1.92 -7.04 0
v -1.92 -6.4 0
v -1.28 -6.4 0
v -1.92 -7.04 0
v -2.56 -7.04 0
v -2.56 -6.4 0
v -1.92 -6.4 0
v -2.56 -7.04 0
v -3.2 -7.04 0
v -3.2 -6.4 0
v -2.56 -6.4 0
v -0.64 -7.68 0
v -1.28 -7.68 0
v -1.28 -7.04 0
v -0.64 -7.04 0
v -1.28 -7.68 0
v -1.92 -7.68 0
v -1.92 -7.04 0
v -1.28 -7.04 0
v -1.92 -7.68 0
v -2.56 -7.68 0
v -2.56 -7.04 0
v -1.92 -7.04 0
v -2.56 -7.68 0
v -3.2 -7.68 0
v -3.2 -7.04 0
v -2.56 -7.04 0
v -0.64 -8.32 0
v -1.28 -8.32 0
v -1.28 -7.68 0
v -0.64 -7.68 0
v -1.28 -8.32 0
v -1.92 -8.32 0
v -1.92 -7.68 0
v -1.28 -7.68 0
v -1.92 -8.32 0
v -2.56 -8.32 0
v -2.56 -7.68 0
v -1.92 -7.68 0
v -2.56 -8.32 0
v -3.2 -8.32 0
v -3.2 -7.68 0
v -2.56 -7.68 0

# Texture cooridinates (Count = 31)
vt 0 0.59375
vt 0.03125 0.59375
vt 0.03125 0.625
vt 0 0.625
vt 0.0625 0.59375
vt 0.0625 0.625
vt 0.09375 0.59375
vt 0.09375 0.625
vt 0.125 0.59375
vt 0.125 0.625
vt 0.6875 0.96875
vt 0.71875 0.96875
vt 0.71875 1
vt 0.6875 1
vt 0.75 0.96875
vt 0.75 1
vt 0 0.5625
vt 0.03125 0.5625
vt 0.0625 0.5625
vt 0.09375 0.5625
vt 0.125 0.5625
vt 0 0.53125
vt 0.03125 0.53125
vt 0.0625 0.53125
vt 0.09375 0.53125
vt 0.125 0.53125
vt 0 0.5
vt 0.03125 0.5
vt 0.0625 0.5
vt 0.09375 0.5
vt 0.125 0.5

# Normal
vn 0 0 -1

# Mesh description
g BM2._mesh_0193

# Faces
f 1/1/1 2/2/1 3/3/1 4/4/1
f 5/2/1 6/5/1 7/6/1 8/3/1
f 9/5/1 10/7/1 11/8/1 12/6/1
f 13/7/1 14/9/1 15/10/1 16/8/1
f 17/11/1 18/12/1 19/13/1 20/14/1
f 21/12/1 22/15/1 23/16/1 24/13/1
f 25/17/1 26/18/1 27/2/1 28/1/1
f 29/18/1 30/19/1 31/5/1 32/2/1
f 33/19/1 34/20/1 35/7/1 36/5/1
f 37/20/1 38/21/1 39/9/1 40/7/1
f 41/22/1 42/23/1 43/18/1 44/17/1
f 45/23/1 46/24/1 47/19/1 48/18/1
f 49/24/1 50/25/1 51/20/1 52/19/1
f 53/25/1 54/26/1 55/21/1 56/20/1
f 57/27/1 58/28/1 59/23/1 60/22/1
f 61/28/1 62/29/1 63/24/1 64/23/1
f 65/29/1 66/30/1 67/25/1 68/24/1
f 69/30/1 70/31/1 71/26/1 72/25/1

