# Tiled2Unity generated file. Do not modify by hand.
# Wavefront file for 'BM2._mesh_0227.obj'

# Vertices (Count = 60)
v -9.599999 -1.92 0
v -10.24 -1.92 0
v -10.24 -1.28 0
v -9.599999 -1.28 0
v -9.599999 -2.56 0
v -10.24 -2.56 0
v -10.24 -1.92 0
v -9.599999 -1.92 0
v -9.599999 -3.2 0
v -10.24 -3.2 0
v -10.24 -2.56 0
v -9.599999 -2.56 0
v -9.599999 -3.84 0
v -10.24 -3.84 0
v -10.24 -3.2 0
v -9.599999 -3.2 0
v -9.599999 -4.48 0
v -10.24 -4.48 0
v -10.24 -3.84 0
v -9.599999 -3.84 0
v -8.96 -6.4 0
v -9.599999 -6.4 0
v -9.599999 -5.76 0
v -8.96 -5.76 0
v -9.599999 -6.4 0
v -10.24 -6.4 0
v -10.24 -5.76 0
v -9.599999 -5.76 0
v -8.96 -7.04 0
v -9.599999 -7.04 0
v -9.599999 -6.4 0
v -8.96 -6.4 0
v -9.599999 -7.04 0
v -10.24 -7.04 0
v -10.24 -6.4 0
v -9.599999 -6.4 0
v -8.96 -7.68 0
v -9.599999 -7.68 0
v -9.599999 -7.04 0
v -8.96 -7.04 0
v -9.599999 -7.68 0
v -10.24 -7.68 0
v -10.24 -7.04 0
v -9.599999 -7.04 0
v -8.96 -8.32 0
v -9.599999 -8.32 0
v -9.599999 -7.68 0
v -8.96 -7.68 0
v -9.599999 -8.32 0
v -10.24 -8.32 0
v -10.24 -7.68 0
v -9.599999 -7.68 0
v -8.96 -8.96 0
v -9.599999 -8.96 0
v -9.599999 -8.32 0
v -8.96 -8.32 0
v -9.599999 -8.96 0
v -10.24 -8.96 0
v -10.24 -8.32 0
v -9.599999 -8.32 0

# Texture cooridinates (Count = 30)
vt 0.5833333 0.8333333
vt 0.6666667 0.8333333
vt 0.6666667 1
vt 0.5833333 1
vt 0.5833333 0.6666666
vt 0.6666667 0.6666666
vt 0.5833333 0.5
vt 0.6666667 0.5
vt 0.5833333 0.3333333
vt 0.6666667 0.3333333
vt 0.5833333 0.1666667
vt 0.6666667 0.1666667
vt 0 0.8333333
vt 0.08333334 0.8333333
vt 0.08333334 1
vt 0 1
vt 0.1666667 0.8333333
vt 0.1666667 1
vt 0 0.6666666
vt 0.08333334 0.6666666
vt 0.1666667 0.6666666
vt 0 0.5
vt 0.08333334 0.5
vt 0.1666667 0.5
vt 0 0.3333333
vt 0.08333334 0.3333333
vt 0.1666667 0.3333333
vt 0 0.1666667
vt 0.08333334 0.1666667
vt 0.1666667 0.1666667

# Normal
vn 0 0 -1

# Mesh description
g BM2._mesh_0227

# Faces
f 1/1/1 2/2/1 3/3/1 4/4/1
f 5/5/1 6/6/1 7/2/1 8/1/1
f 9/7/1 10/8/1 11/6/1 12/5/1
f 13/9/1 14/10/1 15/8/1 16/7/1
f 17/11/1 18/12/1 19/10/1 20/9/1
f 21/13/1 22/14/1 23/15/1 24/16/1
f 25/14/1 26/17/1 27/18/1 28/15/1
f 29/19/1 30/20/1 31/14/1 32/13/1
f 33/20/1 34/21/1 35/17/1 36/14/1
f 37/22/1 38/23/1 39/20/1 40/19/1
f 41/23/1 42/24/1 43/21/1 44/20/1
f 45/25/1 46/26/1 47/23/1 48/22/1
f 49/26/1 50/27/1 51/24/1 52/23/1
f 53/28/1 54/29/1 55/26/1 56/25/1
f 57/29/1 58/30/1 59/27/1 60/26/1

