# Tiled2Unity generated file. Do not modify by hand.
# Wavefront file for 'BM2._mesh_0105.obj'

# Vertices (Count = 160)
v -5.12 -0.64 0
v -5.76 -0.64 0
v -5.76 0 0
v -5.12 0 0
v -5.76 -0.64 0
v -6.4 -0.64 0
v -6.4 0 0
v -5.76 0 0
v -6.4 -0.64 0
v -7.04 -0.64 0
v -7.04 0 0
v -6.4 0 0
v -7.04 -0.64 0
v -7.68 -0.64 0
v -7.68 0 0
v -7.04 0 0
v -7.68 -0.64 0
v -8.32 -0.64 0
v -8.32 0 0
v -7.68 0 0
v -8.32 -0.64 0
v -8.96 -0.64 0
v -8.96 0 0
v -8.32 0 0
v -8.96 -0.64 0
v -9.599999 -0.64 0
v -9.599999 0 0
v -8.96 0 0
v -9.599999 -0.64 0
v -10.24 -0.64 0
v -10.24 0 0
v -9.599999 0 0
v -5.12 -1.28 0
v -5.76 -1.28 0
v -5.76 -0.64 0
v -5.12 -0.64 0
v -5.76 -1.28 0
v -6.4 -1.28 0
v -6.4 -0.64 0
v -5.76 -0.64 0
v -6.4 -1.28 0
v -7.04 -1.28 0
v -7.04 -0.64 0
v -6.4 -0.64 0
v -7.04 -1.28 0
v -7.68 -1.28 0
v -7.68 -0.64 0
v -7.04 -0.64 0
v -7.68 -1.28 0
v -8.32 -1.28 0
v -8.32 -0.64 0
v -7.68 -0.64 0
v -8.32 -1.28 0
v -8.96 -1.28 0
v -8.96 -0.64 0
v -8.32 -0.64 0
v -8.96 -1.28 0
v -9.599999 -1.28 0
v -9.599999 -0.64 0
v -8.96 -0.64 0
v -9.599999 -1.28 0
v -10.24 -1.28 0
v -10.24 -0.64 0
v -9.599999 -0.64 0
v -5.12 -1.92 0
v -5.76 -1.92 0
v -5.76 -1.28 0
v -5.12 -1.28 0
v -5.76 -1.92 0
v -6.4 -1.92 0
v -6.4 -1.28 0
v -5.76 -1.28 0
v -6.4 -1.92 0
v -7.04 -1.92 0
v -7.04 -1.28 0
v -6.4 -1.28 0
v -7.04 -1.92 0
v -7.68 -1.92 0
v -7.68 -1.28 0
v -7.04 -1.28 0
v -7.68 -1.92 0
v -8.32 -1.92 0
v -8.32 -1.28 0
v -7.68 -1.28 0
v -8.32 -1.92 0
v -8.96 -1.92 0
v -8.96 -1.28 0
v -8.32 -1.28 0
v -8.96 -1.92 0
v -9.599999 -1.92 0
v -9.599999 -1.28 0
v -8.96 -1.28 0
v -9.599999 -1.92 0
v -10.24 -1.92 0
v -10.24 -1.28 0
v -9.599999 -1.28 0
v -5.12 -2.56 0
v -5.76 -2.56 0
v -5.76 -1.92 0
v -5.12 -1.92 0
v -5.76 -2.56 0
v -6.4 -2.56 0
v -6.4 -1.92 0
v -5.76 -1.92 0
v -6.4 -2.56 0
v -7.04 -2.56 0
v -7.04 -1.92 0
v -6.4 -1.92 0
v -7.04 -2.56 0
v -7.68 -2.56 0
v -7.68 -1.92 0
v -7.04 -1.92 0
v -7.68 -2.56 0
v -8.32 -2.56 0
v -8.32 -1.92 0
v -7.68 -1.92 0
v -8.32 -2.56 0
v -8.96 -2.56 0
v -8.96 -1.92 0
v -8.32 -1.92 0
v -8.96 -2.56 0
v -9.599999 -2.56 0
v -9.599999 -1.92 0
v -8.96 -1.92 0
v -9.599999 -2.56 0
v -10.24 -2.56 0
v -10.24 -1.92 0
v -9.599999 -1.92 0
v -5.12 -3.2 0
v -5.76 -3.2 0
v -5.76 -2.56 0
v -5.12 -2.56 0
v -5.76 -3.2 0
v -6.4 -3.2 0
v -6.4 -2.56 0
v -5.76 -2.56 0
v -6.4 -3.2 0
v -7.04 -3.2 0
v -7.04 -2.56 0
v -6.4 -2.56 0
v -7.04 -3.2 0
v -7.68 -3.2 0
v -7.68 -2.56 0
v -7.04 -2.56 0
v -7.68 -3.2 0
v -8.32 -3.2 0
v -8.32 -2.56 0
v -7.68 -2.56 0
v -8.32 -3.2 0
v -8.96 -3.2 0
v -8.96 -2.56 0
v -8.32 -2.56 0
v -8.96 -3.2 0
v -9.599999 -3.2 0
v -9.599999 -2.56 0
v -8.96 -2.56 0
v -9.599999 -3.2 0
v -10.24 -3.2 0
v -10.24 -2.56 0
v -9.599999 -2.56 0

# Texture cooridinates (Count = 41)
vt 0.55 0.9
vt 0.6 0.9
vt 0.6 0.95
vt 0.55 0.95
vt 0 0.9
vt 0.05 0.9
vt 0.05 0.95
vt 0 0.95
vt 0.1 0.9
vt 0.15 0.9
vt 0.15 0.95
vt 0.1 0.95
vt 0.2 0.9
vt 0.2 0.95
vt 0.6 1
vt 0.55 1
vt 0.2 0.1
vt 0.2 0.15
vt 0.15 0.15
vt 0.15 0.1
vt 0.25 0.1
vt 0.25 0.15
vt 0 0.7
vt 0.05 0.7
vt 0.05 0.75
vt 0 0.75
vt 0.1 0.7
vt 0.15 0.7
vt 0.15 0.75
vt 0.1 0.75
vt 0.2 0.7
vt 0.2 0.75
vt 0.15 0.35
vt 0.2 0.35
vt 0.2 0.4
vt 0.15 0.4
vt 0 0.65
vt 0.05 0.65
vt 0.1 0.65
vt 0.15 0.65
vt 0.2 0.65

# Normal
vn 0 0 -1

# Mesh description
g BM2._mesh_0105

# Faces
f 1/1/1 2/2/1 3/3/1 4/4/1
f 5/5/1 6/6/1 7/7/1 8/8/1
f 9/9/1 10/10/1 11/11/1 12/12/1
f 13/10/1 14/13/1 15/14/1 16/11/1
f 17/9/1 18/10/1 19/11/1 20/12/1
f 21/10/1 22/13/1 23/14/1 24/11/1
f 25/9/1 26/10/1 27/11/1 28/12/1
f 29/10/1 30/13/1 31/14/1 32/11/1
f 33/4/1 34/3/1 35/15/1 36/16/1
f 37/17/1 38/18/1 39/19/1 40/20/1
f 41/17/1 42/18/1 43/19/1 44/20/1
f 45/17/1 46/18/1 47/19/1 48/20/1
f 49/17/1 50/18/1 51/19/1 52/20/1
f 53/17/1 54/18/1 55/19/1 56/20/1
f 57/17/1 58/18/1 59/19/1 60/20/1
f 61/17/1 62/18/1 63/19/1 64/20/1
f 65/4/1 66/3/1 67/15/1 68/16/1
f 69/21/1 70/22/1 71/18/1 72/17/1
f 73/21/1 74/22/1 75/18/1 76/17/1
f 77/21/1 78/22/1 79/18/1 80/17/1
f 81/21/1 82/22/1 83/18/1 84/17/1
f 85/21/1 86/22/1 87/18/1 88/17/1
f 89/21/1 90/22/1 91/18/1 92/17/1
f 93/21/1 94/22/1 95/18/1 96/17/1
f 97/1/1 98/2/1 99/3/1 100/4/1
f 101/23/1 102/24/1 103/25/1 104/26/1
f 105/27/1 106/28/1 107/29/1 108/30/1
f 109/28/1 110/31/1 111/32/1 112/29/1
f 113/28/1 114/31/1 115/32/1 116/29/1
f 117/27/1 118/28/1 119/29/1 120/30/1
f 121/27/1 122/28/1 123/29/1 124/30/1
f 125/28/1 126/31/1 127/32/1 128/29/1
f 129/33/1 130/34/1 131/35/1 132/36/1
f 133/37/1 134/38/1 135/24/1 136/23/1
f 137/39/1 138/40/1 139/28/1 140/27/1
f 141/40/1 142/41/1 143/31/1 144/28/1
f 145/40/1 146/41/1 147/31/1 148/28/1
f 149/39/1 150/40/1 151/28/1 152/27/1
f 153/39/1 154/40/1 155/28/1 156/27/1
f 157/40/1 158/41/1 159/31/1 160/28/1

