# Tiled2Unity generated file. Do not modify by hand.
# Wavefront file for 'BM2._mesh_0138.obj'

# Vertices (Count = 16)
v -5.12 -10.24 0
v -5.76 -10.24 0
v -5.76 -9.599999 0
v -5.12 -9.599999 0
v -5.76 -10.24 0
v -6.4 -10.24 0
v -6.4 -9.599999 0
v -5.76 -9.599999 0
v -7.68 -10.24 0
v -8.32 -10.24 0
v -8.32 -9.599999 0
v -7.68 -9.599999 0
v -8.32 -10.24 0
v -8.96 -10.24 0
v -8.96 -9.599999 0
v -8.32 -9.599999 0

# Texture cooridinates (Count = 6)
vt 0.5454546 0.7
vt 0.5909091 0.7
vt 0.5909091 0.8
vt 0.5454546 0.8
vt 0.6363636 0.7
vt 0.6363636 0.8

# Normal
vn 0 0 -1

# Mesh description
g BM2._mesh_0138

# Faces
f 1/1/1 2/2/1 3/3/1 4/4/1
f 5/2/1 6/5/1 7/6/1 8/3/1
f 9/1/1 10/2/1 11/3/1 12/4/1
f 13/2/1 14/5/1 15/6/1 16/3/1

