# Tiled2Unity generated file. Do not modify by hand.
# Wavefront file for 'BM2._mesh_0428.obj'

# Vertices (Count = 48)
v -8.96 -0.64 0
v -9.599999 -0.64 0
v -9.599999 0 0
v -8.96 0 0
v -9.599999 -0.64 0
v -10.24 -0.64 0
v -10.24 0 0
v -9.599999 0 0
v -8.96 -1.28 0
v -9.599999 -1.28 0
v -9.599999 -0.64 0
v -8.96 -0.64 0
v -9.599999 -1.28 0
v -10.24 -1.28 0
v -10.24 -0.64 0
v -9.599999 -0.64 0
v -7.68 -3.2 0
v -8.32 -3.2 0
v -8.32 -2.56 0
v -7.68 -2.56 0
v -8.32 -3.2 0
v -8.96 -3.2 0
v -8.96 -2.56 0
v -8.32 -2.56 0
v -8.96 -3.2 0
v -9.599999 -3.2 0
v -9.599999 -2.56 0
v -8.96 -2.56 0
v -9.599999 -3.2 0
v -10.24 -3.2 0
v -10.24 -2.56 0
v -9.599999 -2.56 0
v -7.68 -3.84 0
v -8.32 -3.84 0
v -8.32 -3.2 0
v -7.68 -3.2 0
v -8.32 -3.84 0
v -8.96 -3.84 0
v -8.96 -3.2 0
v -8.32 -3.2 0
v -8.96 -3.84 0
v -9.599999 -3.84 0
v -9.599999 -3.2 0
v -8.96 -3.2 0
v -9.599999 -3.84 0
v -10.24 -3.84 0
v -10.24 -3.2 0
v -9.599999 -3.2 0

# Texture cooridinates (Count = 9)
vt 0.09375 0.9375
vt 0.09375 0.96875
vt 0.0625 0.96875
vt 0.0625 0.9375
vt 0.09375 1
vt 0.0625 1
vt 0.125 0.9375
vt 0.125 0.96875
vt 0.125 1

# Normal
vn 0 0 -1

# Mesh description
g BM2._mesh_0428

# Faces
f 1/1/1 2/2/1 3/3/1 4/4/1
f 5/2/1 6/5/1 7/6/1 8/3/1
f 9/7/1 10/8/1 11/2/1 12/1/1
f 13/8/1 14/9/1 15/5/1 16/2/1
f 17/1/1 18/2/1 19/3/1 20/4/1
f 21/2/1 22/5/1 23/6/1 24/3/1
f 25/1/1 26/2/1 27/3/1 28/4/1
f 29/2/1 30/5/1 31/6/1 32/3/1
f 33/7/1 34/8/1 35/2/1 36/1/1
f 37/8/1 38/9/1 39/5/1 40/2/1
f 41/7/1 42/8/1 43/2/1 44/1/1
f 45/8/1 46/9/1 47/5/1 48/2/1

