# Tiled2Unity generated file. Do not modify by hand.
# Wavefront file for 'BM2._mesh_0173.obj'

# Vertices (Count = 72)
v -4.48 -9.599999 0
v -5.12 -9.599999 0
v -5.12 -8.96 0
v -4.48 -8.96 0
v -5.12 -9.599999 0
v -5.76 -9.599999 0
v -5.76 -8.96 0
v -5.12 -8.96 0
v -5.76 -9.599999 0
v -6.4 -9.599999 0
v -6.4 -8.96 0
v -5.76 -8.96 0
v -6.4 -9.599999 0
v -7.04 -9.599999 0
v -7.04 -8.96 0
v -6.4 -8.96 0
v -7.04 -9.599999 0
v -7.68 -9.599999 0
v -7.68 -8.96 0
v -7.04 -8.96 0
v -7.68 -9.599999 0
v -8.32 -9.599999 0
v -8.32 -8.96 0
v -7.68 -8.96 0
v -8.32 -9.599999 0
v -8.96 -9.599999 0
v -8.96 -8.96 0
v -8.32 -8.96 0
v -8.96 -9.599999 0
v -9.599999 -9.599999 0
v -9.599999 -8.96 0
v -8.96 -8.96 0
v -9.599999 -9.599999 0
v -10.24 -9.599999 0
v -10.24 -8.96 0
v -9.599999 -8.96 0
v -4.48 -10.24 0
v -5.12 -10.24 0
v -5.12 -9.599999 0
v -4.48 -9.599999 0
v -5.12 -10.24 0
v -5.76 -10.24 0
v -5.76 -9.599999 0
v -5.12 -9.599999 0
v -5.76 -10.24 0
v -6.4 -10.24 0
v -6.4 -9.599999 0
v -5.76 -9.599999 0
v -6.4 -10.24 0
v -7.04 -10.24 0
v -7.04 -9.599999 0
v -6.4 -9.599999 0
v -7.04 -10.24 0
v -7.68 -10.24 0
v -7.68 -9.599999 0
v -7.04 -9.599999 0
v -7.68 -10.24 0
v -8.32 -10.24 0
v -8.32 -9.599999 0
v -7.68 -9.599999 0
v -8.32 -10.24 0
v -8.96 -10.24 0
v -8.96 -9.599999 0
v -8.32 -9.599999 0
v -8.96 -10.24 0
v -9.599999 -10.24 0
v -9.599999 -9.599999 0
v -8.96 -9.599999 0
v -9.599999 -10.24 0
v -10.24 -10.24 0
v -10.24 -9.599999 0
v -9.599999 -9.599999 0

# Texture cooridinates (Count = 4)
vt 0.125 0.03333336
vt 0.1666667 0.03333336
vt 0.1666667 0.06666666
vt 0.125 0.06666666

# Normal
vn 0 0 -1

# Mesh description
g BM2._mesh_0173

# Faces
f 1/1/1 2/2/1 3/3/1 4/4/1
f 5/1/1 6/2/1 7/3/1 8/4/1
f 9/1/1 10/2/1 11/3/1 12/4/1
f 13/1/1 14/2/1 15/3/1 16/4/1
f 17/1/1 18/2/1 19/3/1 20/4/1
f 21/1/1 22/2/1 23/3/1 24/4/1
f 25/1/1 26/2/1 27/3/1 28/4/1
f 29/1/1 30/2/1 31/3/1 32/4/1
f 33/1/1 34/2/1 35/3/1 36/4/1
f 37/1/1 38/2/1 39/3/1 40/4/1
f 41/1/1 42/2/1 43/3/1 44/4/1
f 45/1/1 46/2/1 47/3/1 48/4/1
f 49/1/1 50/2/1 51/3/1 52/4/1
f 53/1/1 54/2/1 55/3/1 56/4/1
f 57/1/1 58/2/1 59/3/1 60/4/1
f 61/1/1 62/2/1 63/3/1 64/4/1
f 65/1/1 66/2/1 67/3/1 68/4/1
f 69/1/1 70/2/1 71/3/1 72/4/1

