# Tiled2Unity generated file. Do not modify by hand.
# Wavefront file for 'BM2._mesh_0362.obj'

# Vertices (Count = 184)
v 0 -0.64 0
v -0.64 -0.64 0
v -0.64 0 0
v 0 0 0
v -0.64 -0.64 0
v -1.28 -0.64 0
v -1.28 0 0
v -0.64 0 0
v -1.28 -0.64 0
v -1.92 -0.64 0
v -1.92 0 0
v -1.28 0 0
v -1.92 -0.64 0
v -2.56 -0.64 0
v -2.56 0 0
v -1.92 0 0
v -2.56 -0.64 0
v -3.2 -0.64 0
v -3.2 0 0
v -2.56 0 0
v -3.2 -0.64 0
v -3.84 -0.64 0
v -3.84 0 0
v -3.2 0 0
v -3.84 -0.64 0
v -4.48 -0.64 0
v -4.48 0 0
v -3.84 0 0
v -4.48 -0.64 0
v -5.12 -0.64 0
v -5.12 0 0
v -4.48 0 0
v -5.12 -0.64 0
v -5.76 -0.64 0
v -5.76 0 0
v -5.12 0 0
v -5.76 -0.64 0
v -6.4 -0.64 0
v -6.4 0 0
v -5.76 0 0
v -6.4 -0.64 0
v -7.04 -0.64 0
v -7.04 0 0
v -6.4 0 0
v -7.04 -0.64 0
v -7.68 -0.64 0
v -7.68 0 0
v -7.04 0 0
v -7.68 -0.64 0
v -8.32 -0.64 0
v -8.32 0 0
v -7.68 0 0
v -8.32 -0.64 0
v -8.96 -0.64 0
v -8.96 0 0
v -8.32 0 0
v -8.96 -0.64 0
v -9.599999 -0.64 0
v -9.599999 0 0
v -8.96 0 0
v -9.599999 -0.64 0
v -10.24 -0.64 0
v -10.24 0 0
v -9.599999 0 0
v 0 -1.28 0
v -0.64 -1.28 0
v -0.64 -0.64 0
v 0 -0.64 0
v -0.64 -1.28 0
v -1.28 -1.28 0
v -1.28 -0.64 0
v -0.64 -0.64 0
v -1.28 -1.28 0
v -1.92 -1.28 0
v -1.92 -0.64 0
v -1.28 -0.64 0
v -1.92 -1.28 0
v -2.56 -1.28 0
v -2.56 -0.64 0
v -1.92 -0.64 0
v -2.56 -1.28 0
v -3.2 -1.28 0
v -3.2 -0.64 0
v -2.56 -0.64 0
v -3.2 -1.28 0
v -3.84 -1.28 0
v -3.84 -0.64 0
v -3.2 -0.64 0
v -3.84 -1.28 0
v -4.48 -1.28 0
v -4.48 -0.64 0
v -3.84 -0.64 0
v -4.48 -1.28 0
v -5.12 -1.28 0
v -5.12 -0.64 0
v -4.48 -0.64 0
v -5.12 -1.28 0
v -5.76 -1.28 0
v -5.76 -0.64 0
v -5.12 -0.64 0
v -5.76 -1.28 0
v -6.4 -1.28 0
v -6.4 -0.64 0
v -5.76 -0.64 0
v -6.4 -1.28 0
v -7.04 -1.28 0
v -7.04 -0.64 0
v -6.4 -0.64 0
v -7.04 -1.28 0
v -7.68 -1.28 0
v -7.68 -0.64 0
v -7.04 -0.64 0
v -7.68 -1.28 0
v -8.32 -1.28 0
v -8.32 -0.64 0
v -7.68 -0.64 0
v -8.32 -1.28 0
v -8.96 -1.28 0
v -8.96 -0.64 0
v -8.32 -0.64 0
v -8.96 -1.28 0
v -9.599999 -1.28 0
v -9.599999 -0.64 0
v -8.96 -0.64 0
v -9.599999 -1.28 0
v -10.24 -1.28 0
v -10.24 -0.64 0
v -9.599999 -0.64 0
v 0 -1.92 0
v -0.64 -1.92 0
v -0.64 -1.28 0
v 0 -1.28 0
v 0 -2.56 0
v -0.64 -2.56 0
v -0.64 -1.92 0
v 0 -1.92 0
v 0 -3.2 0
v -0.64 -3.2 0
v -0.64 -2.56 0
v 0 -2.56 0
v 0 -3.84 0
v -0.64 -3.84 0
v -0.64 -3.2 0
v 0 -3.2 0
v 0 -4.48 0
v -0.64 -4.48 0
v -0.64 -3.84 0
v 0 -3.84 0
v 0 -5.12 0
v -0.64 -5.12 0
v -0.64 -4.48 0
v 0 -4.48 0
v 0 -5.76 0
v -0.64 -5.76 0
v -0.64 -5.12 0
v 0 -5.12 0
v 0 -6.4 0
v -0.64 -6.4 0
v -0.64 -5.76 0
v 0 -5.76 0
v 0 -7.04 0
v -0.64 -7.04 0
v -0.64 -6.4 0
v 0 -6.4 0
v 0 -7.68 0
v -0.64 -7.68 0
v -0.64 -7.04 0
v 0 -7.04 0
v 0 -8.32 0
v -0.64 -8.32 0
v -0.64 -7.68 0
v 0 -7.68 0
v 0 -8.96 0
v -0.64 -8.96 0
v -0.64 -8.32 0
v 0 -8.32 0
v 0 -9.599999 0
v -0.64 -9.599999 0
v -0.64 -8.96 0
v 0 -8.96 0
v 0 -10.24 0
v -0.64 -10.24 0
v -0.64 -9.599999 0
v 0 -9.599999 0

# Texture cooridinates (Count = 32)
vt 0.2083333 0.4333333
vt 0.25 0.4333333
vt 0.25 0.4666666
vt 0.2083333 0.4666666
vt 0 0.3666667
vt 0.04166667 0.3666667
vt 0.04166667 0.4
vt 0 0.4
vt 0.08333334 0.3666667
vt 0.08333334 0.4
vt 0.125 0.3666667
vt 0.125 0.4
vt 0.1666667 0.3666667
vt 0.1666667 0.4
vt 0.1666667 0.4333333
vt 0.1666667 0.4666666
vt 0.25 0.3666667
vt 0.2916667 0.3666667
vt 0.2916667 0.4
vt 0.25 0.4
vt 0.3333333 0.3666667
vt 0.3333333 0.4
vt 0.25 0.5
vt 0.2083333 0.5
vt 0.04166667 0.3333333
vt 0.08333334 0.3333333
vt 0.125 0.3333333
vt 0.1666667 0.3333333
vt 0.2083333 0.4
vt 0.25 0.3333333
vt 0.2916667 0.3333333
vt 0.3333333 0.3333333

# Normal
vn 0 0 -1

# Mesh description
g BM2._mesh_0362

# Faces
f 1/1/1 2/2/1 3/3/1 4/4/1
f 5/5/1 6/6/1 7/7/1 8/8/1
f 9/6/1 10/9/1 11/10/1 12/7/1
f 13/5/1 14/6/1 15/7/1 16/8/1
f 17/6/1 18/9/1 19/10/1 20/7/1
f 21/5/1 22/6/1 23/7/1 24/8/1
f 25/6/1 26/9/1 27/10/1 28/7/1
f 29/5/1 30/6/1 31/7/1 32/8/1
f 33/9/1 34/11/1 35/12/1 36/10/1
f 37/11/1 38/13/1 39/14/1 40/12/1
f 41/15/1 42/1/1 43/4/1 44/16/1
f 45/1/1 46/2/1 47/3/1 48/4/1
f 49/17/1 50/18/1 51/19/1 52/20/1
f 53/18/1 54/21/1 55/22/1 56/19/1
f 57/6/1 58/9/1 59/10/1 60/7/1
f 61/5/1 62/6/1 63/7/1 64/8/1
f 65/4/1 66/3/1 67/23/1 68/24/1
f 69/25/1 70/26/1 71/9/1 72/6/1
f 73/25/1 74/26/1 75/9/1 76/6/1
f 77/25/1 78/26/1 79/9/1 80/6/1
f 81/25/1 82/26/1 83/9/1 84/6/1
f 85/25/1 86/26/1 87/9/1 88/6/1
f 89/25/1 90/26/1 91/9/1 92/6/1
f 93/25/1 94/26/1 95/9/1 96/6/1
f 97/26/1 98/27/1 99/11/1 100/9/1
f 101/27/1 102/28/1 103/13/1 104/11/1
f 105/14/1 106/29/1 107/1/1 108/15/1
f 109/29/1 110/20/1 111/2/1 112/1/1
f 113/30/1 114/31/1 115/18/1 116/17/1
f 117/31/1 118/32/1 119/21/1 120/18/1
f 121/25/1 122/26/1 123/9/1 124/6/1
f 125/25/1 126/26/1 127/9/1 128/6/1
f 129/1/1 130/2/1 131/3/1 132/4/1
f 133/4/1 134/3/1 135/23/1 136/24/1
f 137/1/1 138/2/1 139/3/1 140/4/1
f 141/4/1 142/3/1 143/23/1 144/24/1
f 145/1/1 146/2/1 147/3/1 148/4/1
f 149/4/1 150/3/1 151/23/1 152/24/1
f 153/1/1 154/2/1 155/3/1 156/4/1
f 157/4/1 158/3/1 159/23/1 160/24/1
f 161/1/1 162/2/1 163/3/1 164/4/1
f 165/4/1 166/3/1 167/23/1 168/24/1
f 169/1/1 170/2/1 171/3/1 172/4/1
f 173/4/1 174/3/1 175/23/1 176/24/1
f 177/1/1 178/2/1 179/3/1 180/4/1
f 181/4/1 182/3/1 183/23/1 184/24/1

