# Tiled2Unity generated file. Do not modify by hand.
# Wavefront file for 'BM2._mesh_0086.obj'

# Vertices (Count = 252)
v -5.76 -0.64 0
v -6.4 -0.64 0
v -6.4 0 0
v -5.76 0 0
v -6.4 -0.64 0
v -7.04 -0.64 0
v -7.04 0 0
v -6.4 0 0
v -7.04 -0.64 0
v -7.68 -0.64 0
v -7.68 0 0
v -7.04 0 0
v -7.68 -0.64 0
v -8.32 -0.64 0
v -8.32 0 0
v -7.68 0 0
v -8.32 -0.64 0
v -8.96 -0.64 0
v -8.96 0 0
v -8.32 0 0
v -8.96 -0.64 0
v -9.599999 -0.64 0
v -9.599999 0 0
v -8.96 0 0
v -9.599999 -0.64 0
v -10.24 -0.64 0
v -10.24 0 0
v -9.599999 0 0
v -5.76 -1.28 0
v -6.4 -1.28 0
v -6.4 -0.64 0
v -5.76 -0.64 0
v -6.4 -1.28 0
v -7.04 -1.28 0
v -7.04 -0.64 0
v -6.4 -0.64 0
v -7.04 -1.28 0
v -7.68 -1.28 0
v -7.68 -0.64 0
v -7.04 -0.64 0
v -7.68 -1.28 0
v -8.32 -1.28 0
v -8.32 -0.64 0
v -7.68 -0.64 0
v -8.32 -1.28 0
v -8.96 -1.28 0
v -8.96 -0.64 0
v -8.32 -0.64 0
v -8.96 -1.28 0
v -9.599999 -1.28 0
v -9.599999 -0.64 0
v -8.96 -0.64 0
v -9.599999 -1.28 0
v -10.24 -1.28 0
v -10.24 -0.64 0
v -9.599999 -0.64 0
v -5.76 -1.92 0
v -6.4 -1.92 0
v -6.4 -1.28 0
v -5.76 -1.28 0
v -6.4 -1.92 0
v -7.04 -1.92 0
v -7.04 -1.28 0
v -6.4 -1.28 0
v -7.04 -1.92 0
v -7.68 -1.92 0
v -7.68 -1.28 0
v -7.04 -1.28 0
v -7.68 -1.92 0
v -8.32 -1.92 0
v -8.32 -1.28 0
v -7.68 -1.28 0
v -8.32 -1.92 0
v -8.96 -1.92 0
v -8.96 -1.28 0
v -8.32 -1.28 0
v -8.96 -1.92 0
v -9.599999 -1.92 0
v -9.599999 -1.28 0
v -8.96 -1.28 0
v -9.599999 -1.92 0
v -10.24 -1.92 0
v -10.24 -1.28 0
v -9.599999 -1.28 0
v -5.76 -2.56 0
v -6.4 -2.56 0
v -6.4 -1.92 0
v -5.76 -1.92 0
v -6.4 -2.56 0
v -7.04 -2.56 0
v -7.04 -1.92 0
v -6.4 -1.92 0
v -7.04 -2.56 0
v -7.68 -2.56 0
v -7.68 -1.92 0
v -7.04 -1.92 0
v -7.68 -2.56 0
v -8.32 -2.56 0
v -8.32 -1.92 0
v -7.68 -1.92 0
v -8.32 -2.56 0
v -8.96 -2.56 0
v -8.96 -1.92 0
v -8.32 -1.92 0
v -8.96 -2.56 0
v -9.599999 -2.56 0
v -9.599999 -1.92 0
v -8.96 -1.92 0
v -9.599999 -2.56 0
v -10.24 -2.56 0
v -10.24 -1.92 0
v -9.599999 -1.92 0
v -5.76 -3.2 0
v -6.4 -3.2 0
v -6.4 -2.56 0
v -5.76 -2.56 0
v -6.4 -3.2 0
v -7.04 -3.2 0
v -7.04 -2.56 0
v -6.4 -2.56 0
v -7.04 -3.2 0
v -7.68 -3.2 0
v -7.68 -2.56 0
v -7.04 -2.56 0
v -7.68 -3.2 0
v -8.32 -3.2 0
v -8.32 -2.56 0
v -7.68 -2.56 0
v -8.32 -3.2 0
v -8.96 -3.2 0
v -8.96 -2.56 0
v -8.32 -2.56 0
v -8.96 -3.2 0
v -9.599999 -3.2 0
v -9.599999 -2.56 0
v -8.96 -2.56 0
v -9.599999 -3.2 0
v -10.24 -3.2 0
v -10.24 -2.56 0
v -9.599999 -2.56 0
v -5.76 -3.84 0
v -6.4 -3.84 0
v -6.4 -3.2 0
v -5.76 -3.2 0
v -6.4 -3.84 0
v -7.04 -3.84 0
v -7.04 -3.2 0
v -6.4 -3.2 0
v -7.04 -3.84 0
v -7.68 -3.84 0
v -7.68 -3.2 0
v -7.04 -3.2 0
v -7.68 -3.84 0
v -8.32 -3.84 0
v -8.32 -3.2 0
v -7.68 -3.2 0
v -8.32 -3.84 0
v -8.96 -3.84 0
v -8.96 -3.2 0
v -8.32 -3.2 0
v -8.96 -3.84 0
v -9.599999 -3.84 0
v -9.599999 -3.2 0
v -8.96 -3.2 0
v -9.599999 -3.84 0
v -10.24 -3.84 0
v -10.24 -3.2 0
v -9.599999 -3.2 0
v -5.76 -4.48 0
v -6.4 -4.48 0
v -6.4 -3.84 0
v -5.76 -3.84 0
v -6.4 -4.48 0
v -7.04 -4.48 0
v -7.04 -3.84 0
v -6.4 -3.84 0
v -7.04 -4.48 0
v -7.68 -4.48 0
v -7.68 -3.84 0
v -7.04 -3.84 0
v -7.68 -4.48 0
v -8.32 -4.48 0
v -8.32 -3.84 0
v -7.68 -3.84 0
v -8.32 -4.48 0
v -8.96 -4.48 0
v -8.96 -3.84 0
v -8.32 -3.84 0
v -8.96 -4.48 0
v -9.599999 -4.48 0
v -9.599999 -3.84 0
v -8.96 -3.84 0
v -9.599999 -4.48 0
v -10.24 -4.48 0
v -10.24 -3.84 0
v -9.599999 -3.84 0
v -5.76 -5.12 0
v -6.4 -5.12 0
v -6.4 -4.48 0
v -5.76 -4.48 0
v -6.4 -5.12 0
v -7.04 -5.12 0
v -7.04 -4.48 0
v -6.4 -4.48 0
v -7.04 -5.12 0
v -7.68 -5.12 0
v -7.68 -4.48 0
v -7.04 -4.48 0
v -7.68 -5.12 0
v -8.32 -5.12 0
v -8.32 -4.48 0
v -7.68 -4.48 0
v -8.32 -5.12 0
v -8.96 -5.12 0
v -8.96 -4.48 0
v -8.32 -4.48 0
v -8.96 -5.12 0
v -9.599999 -5.12 0
v -9.599999 -4.48 0
v -8.96 -4.48 0
v -9.599999 -5.12 0
v -10.24 -5.12 0
v -10.24 -4.48 0
v -9.599999 -4.48 0
v -5.76 -5.76 0
v -6.4 -5.76 0
v -6.4 -5.12 0
v -5.76 -5.12 0
v -6.4 -5.76 0
v -7.04 -5.76 0
v -7.04 -5.12 0
v -6.4 -5.12 0
v -7.04 -5.76 0
v -7.68 -5.76 0
v -7.68 -5.12 0
v -7.04 -5.12 0
v -7.68 -5.76 0
v -8.32 -5.76 0
v -8.32 -5.12 0
v -7.68 -5.12 0
v -8.32 -5.76 0
v -8.96 -5.76 0
v -8.96 -5.12 0
v -8.32 -5.12 0
v -8.96 -5.76 0
v -9.599999 -5.76 0
v -9.599999 -5.12 0
v -8.96 -5.12 0
v -9.599999 -5.76 0
v -10.24 -5.76 0
v -10.24 -5.12 0
v -9.599999 -5.12 0

# Texture cooridinates (Count = 36)
vt 0.6 0.8
vt 0.65 0.8
vt 0.65 0.85
vt 0.6 0.85
vt 0.7 0.8
vt 0.7 0.85
vt 0.75 0.8
vt 0.75 0.85
vt 0.8 0.8
vt 0.8 0.85
vt 0.85 0.8
vt 0.85 0.85
vt 0.6 0.75
vt 0.65 0.75
vt 0.7 0.75
vt 0.75 0.75
vt 0.8 0.75
vt 0.85 0.75
vt 0.6 0.7
vt 0.65 0.7
vt 0.7 0.7
vt 0.75 0.7
vt 0.8 0.7
vt 0.85 0.7
vt 0.6 0.65
vt 0.65 0.65
vt 0.7 0.65
vt 0.75 0.65
vt 0.8 0.65
vt 0.85 0.65
vt 0.6 0.6
vt 0.65 0.6
vt 0.7 0.6
vt 0.75 0.6
vt 0.8 0.6
vt 0.85 0.6

# Normal
vn 0 0 -1

# Mesh description
g BM2._mesh_0086

# Faces
f 1/1/1 2/2/1 3/3/1 4/4/1
f 5/2/1 6/5/1 7/6/1 8/3/1
f 9/5/1 10/7/1 11/8/1 12/6/1
f 13/7/1 14/9/1 15/10/1 16/8/1
f 17/9/1 18/11/1 19/12/1 20/10/1
f 21/2/1 22/5/1 23/6/1 24/3/1
f 25/5/1 26/7/1 27/8/1 28/6/1
f 29/13/1 30/14/1 31/2/1 32/1/1
f 33/14/1 34/15/1 35/5/1 36/2/1
f 37/15/1 38/16/1 39/7/1 40/5/1
f 41/16/1 42/17/1 43/9/1 44/7/1
f 45/17/1 46/18/1 47/11/1 48/9/1
f 49/14/1 50/15/1 51/5/1 52/2/1
f 53/15/1 54/16/1 55/7/1 56/5/1
f 57/19/1 58/20/1 59/14/1 60/13/1
f 61/20/1 62/21/1 63/15/1 64/14/1
f 65/21/1 66/22/1 67/16/1 68/15/1
f 69/22/1 70/23/1 71/17/1 72/16/1
f 73/23/1 74/24/1 75/18/1 76/17/1
f 77/20/1 78/21/1 79/15/1 80/14/1
f 81/21/1 82/22/1 83/16/1 84/15/1
f 85/25/1 86/26/1 87/20/1 88/19/1
f 89/26/1 90/27/1 91/21/1 92/20/1
f 93/27/1 94/28/1 95/22/1 96/21/1
f 97/28/1 98/29/1 99/23/1 100/22/1
f 101/29/1 102/30/1 103/24/1 104/23/1
f 105/26/1 106/27/1 107/21/1 108/20/1
f 109/27/1 110/28/1 111/22/1 112/21/1
f 113/1/1 114/2/1 115/3/1 116/4/1
f 117/2/1 118/5/1 119/6/1 120/3/1
f 121/5/1 122/7/1 123/8/1 124/6/1
f 125/7/1 126/9/1 127/10/1 128/8/1
f 129/9/1 130/11/1 131/12/1 132/10/1
f 133/2/1 134/5/1 135/6/1 136/3/1
f 137/5/1 138/7/1 139/8/1 140/6/1
f 141/13/1 142/14/1 143/2/1 144/1/1
f 145/14/1 146/15/1 147/5/1 148/2/1
f 149/15/1 150/16/1 151/7/1 152/5/1
f 153/16/1 154/17/1 155/9/1 156/7/1
f 157/17/1 158/18/1 159/11/1 160/9/1
f 161/14/1 162/15/1 163/5/1 164/2/1
f 165/15/1 166/16/1 167/7/1 168/5/1
f 169/19/1 170/20/1 171/14/1 172/13/1
f 173/20/1 174/21/1 175/15/1 176/14/1
f 177/21/1 178/22/1 179/16/1 180/15/1
f 181/22/1 182/23/1 183/17/1 184/16/1
f 185/23/1 186/24/1 187/18/1 188/17/1
f 189/20/1 190/21/1 191/15/1 192/14/1
f 193/21/1 194/22/1 195/16/1 196/15/1
f 197/25/1 198/26/1 199/20/1 200/19/1
f 201/26/1 202/27/1 203/21/1 204/20/1
f 205/27/1 206/28/1 207/22/1 208/21/1
f 209/28/1 210/29/1 211/23/1 212/22/1
f 213/29/1 214/30/1 215/24/1 216/23/1
f 217/26/1 218/27/1 219/21/1 220/20/1
f 221/27/1 222/28/1 223/22/1 224/21/1
f 225/31/1 226/32/1 227/26/1 228/25/1
f 229/32/1 230/33/1 231/27/1 232/26/1
f 233/33/1 234/34/1 235/28/1 236/27/1
f 237/34/1 238/35/1 239/29/1 240/28/1
f 241/35/1 242/36/1 243/30/1 244/29/1
f 245/32/1 246/33/1 247/27/1 248/26/1
f 249/33/1 250/34/1 251/28/1 252/27/1

