# Tiled2Unity generated file. Do not modify by hand.
# Wavefront file for 'BM2._mesh_0020.obj'

# Vertices (Count = 84)
v 0 -2.56 0
v -0.64 -2.56 0
v -0.64 -1.92 0
v 0 -1.92 0
v -0.64 -2.56 0
v -1.28 -2.56 0
v -1.28 -1.92 0
v -0.64 -1.92 0
v -1.28 -2.56 0
v -1.92 -2.56 0
v -1.92 -1.92 0
v -1.28 -1.92 0
v -1.92 -2.56 0
v -2.56 -2.56 0
v -2.56 -1.92 0
v -1.92 -1.92 0
v -2.56 -2.56 0
v -3.2 -2.56 0
v -3.2 -1.92 0
v -2.56 -1.92 0
v 0 -3.2 0
v -0.64 -3.2 0
v -0.64 -2.56 0
v 0 -2.56 0
v -0.64 -3.2 0
v -1.28 -3.2 0
v -1.28 -2.56 0
v -0.64 -2.56 0
v -1.28 -3.2 0
v -1.92 -3.2 0
v -1.92 -2.56 0
v -1.28 -2.56 0
v -1.92 -3.2 0
v -2.56 -3.2 0
v -2.56 -2.56 0
v -1.92 -2.56 0
v -2.56 -3.2 0
v -3.2 -3.2 0
v -3.2 -2.56 0
v -2.56 -2.56 0
v -3.2 -3.2 0
v -3.84 -3.2 0
v -3.84 -2.56 0
v -3.2 -2.56 0
v -3.84 -3.2 0
v -4.48 -3.2 0
v -4.48 -2.56 0
v -3.84 -2.56 0
v -4.48 -3.2 0
v -5.12 -3.2 0
v -5.12 -2.56 0
v -4.48 -2.56 0
v -5.12 -3.2 0
v -5.76 -3.2 0
v -5.76 -2.56 0
v -5.12 -2.56 0
v -5.76 -3.2 0
v -6.4 -3.2 0
v -6.4 -2.56 0
v -5.76 -2.56 0
v -6.4 -3.2 0
v -7.04 -3.2 0
v -7.04 -2.56 0
v -6.4 -2.56 0
v -7.04 -3.2 0
v -7.68 -3.2 0
v -7.68 -2.56 0
v -7.04 -2.56 0
v -7.68 -3.2 0
v -8.32 -3.2 0
v -8.32 -2.56 0
v -7.68 -2.56 0
v -8.32 -3.2 0
v -8.96 -3.2 0
v -8.96 -2.56 0
v -8.32 -2.56 0
v -8.96 -3.2 0
v -9.599999 -3.2 0
v -9.599999 -2.56 0
v -8.96 -2.56 0
v -9.599999 -3.2 0
v -10.24 -3.2 0
v -10.24 -2.56 0
v -9.599999 -2.56 0

# Texture cooridinates (Count = 9)
vt 0.5 0.4166667
vt 0.6666667 0.4166667
vt 0.6666667 0.5
vt 0.5 0.5
vt 0.3333333 0.4166667
vt 0.3333333 0.5
vt 0.5 0.3333333
vt 0.6666667 0.3333333
vt 0.3333333 0.3333333

# Normal
vn 0 0 -1

# Mesh description
g BM2._mesh_0020

# Faces
f 1/1/1 2/2/1 3/3/1 4/4/1
f 5/5/1 6/1/1 7/4/1 8/6/1
f 9/1/1 10/2/1 11/3/1 12/4/1
f 13/5/1 14/1/1 15/4/1 16/6/1
f 17/1/1 18/2/1 19/3/1 20/4/1
f 21/7/1 22/8/1 23/2/1 24/1/1
f 25/9/1 26/7/1 27/1/1 28/5/1
f 29/7/1 30/8/1 31/2/1 32/1/1
f 33/9/1 34/7/1 35/1/1 36/5/1
f 37/7/1 38/8/1 39/2/1 40/1/1
f 41/9/1 42/7/1 43/1/1 44/5/1
f 45/7/1 46/8/1 47/2/1 48/1/1
f 49/9/1 50/7/1 51/1/1 52/5/1
f 53/7/1 54/8/1 55/2/1 56/1/1
f 57/9/1 58/7/1 59/1/1 60/5/1
f 61/7/1 62/8/1 63/2/1 64/1/1
f 65/9/1 66/7/1 67/1/1 68/5/1
f 69/7/1 70/8/1 71/2/1 72/1/1
f 73/9/1 74/7/1 75/1/1 76/5/1
f 77/7/1 78/8/1 79/2/1 80/1/1
f 81/9/1 82/7/1 83/1/1 84/5/1

