# Tiled2Unity generated file. Do not modify by hand.
# Wavefront file for 'BM2._mesh_0267.obj'

# Vertices (Count = 32)
v -7.04 -8.96 0
v -7.68 -8.96 0
v -7.68 -8.32 0
v -7.04 -8.32 0
v -7.68 -8.96 0
v -8.32 -8.96 0
v -8.32 -8.32 0
v -7.68 -8.32 0
v -8.32 -8.96 0
v -8.96 -8.96 0
v -8.96 -8.32 0
v -8.32 -8.32 0
v -8.96 -8.96 0
v -9.599999 -8.96 0
v -9.599999 -8.32 0
v -8.96 -8.32 0
v -7.04 -9.599999 0
v -7.68 -9.599999 0
v -7.68 -8.96 0
v -7.04 -8.96 0
v -7.68 -9.599999 0
v -8.32 -9.599999 0
v -8.32 -8.96 0
v -7.68 -8.96 0
v -8.32 -9.599999 0
v -8.96 -9.599999 0
v -8.96 -8.96 0
v -8.32 -8.96 0
v -8.96 -9.599999 0
v -9.599999 -9.599999 0
v -9.599999 -8.96 0
v -8.96 -8.96 0

# Texture cooridinates (Count = 9)
vt 0.3 0.55
vt 0.35 0.55
vt 0.35 0.6
vt 0.3 0.6
vt 0.4 0.55
vt 0.4 0.6
vt 0.35 0.5
vt 0.3 0.5
vt 0.4 0.5

# Normal
vn 0 0 -1

# Mesh description
g BM2._mesh_0267

# Faces
f 1/1/1 2/2/1 3/3/1 4/4/1
f 5/2/1 6/5/1 7/6/1 8/3/1
f 9/7/1 10/2/1 11/1/1 12/8/1
f 13/2/1 14/3/1 15/4/1 16/1/1
f 17/8/1 18/7/1 19/2/1 20/1/1
f 21/7/1 22/9/1 23/5/1 24/2/1
f 25/9/1 26/5/1 27/2/1 28/7/1
f 29/5/1 30/6/1 31/3/1 32/2/1

