# Tiled2Unity generated file. Do not modify by hand.
# Wavefront file for 'BM2._mesh_0360.obj'

# Vertices (Count = 168)
v 0 -7.04 0
v -0.64 -7.04 0
v -0.64 -6.4 0
v 0 -6.4 0
v -0.64 -7.04 0
v -1.28 -7.04 0
v -1.28 -6.4 0
v -0.64 -6.4 0
v -1.28 -7.04 0
v -1.92 -7.04 0
v -1.92 -6.4 0
v -1.28 -6.4 0
v -1.92 -7.04 0
v -2.56 -7.04 0
v -2.56 -6.4 0
v -1.92 -6.4 0
v -2.56 -7.04 0
v -3.2 -7.04 0
v -3.2 -6.4 0
v -2.56 -6.4 0
v -3.2 -7.04 0
v -3.84 -7.04 0
v -3.84 -6.4 0
v -3.2 -6.4 0
v -3.84 -7.04 0
v -4.48 -7.04 0
v -4.48 -6.4 0
v -3.84 -6.4 0
v 0 -7.68 0
v -0.64 -7.68 0
v -0.64 -7.04 0
v 0 -7.04 0
v -0.64 -7.68 0
v -1.28 -7.68 0
v -1.28 -7.04 0
v -0.64 -7.04 0
v -1.28 -7.68 0
v -1.92 -7.68 0
v -1.92 -7.04 0
v -1.28 -7.04 0
v -1.92 -7.68 0
v -2.56 -7.68 0
v -2.56 -7.04 0
v -1.92 -7.04 0
v -2.56 -7.68 0
v -3.2 -7.68 0
v -3.2 -7.04 0
v -2.56 -7.04 0
v -3.2 -7.68 0
v -3.84 -7.68 0
v -3.84 -7.04 0
v -3.2 -7.04 0
v -3.84 -7.68 0
v -4.48 -7.68 0
v -4.48 -7.04 0
v -3.84 -7.04 0
v 0 -8.32 0
v -0.64 -8.32 0
v -0.64 -7.68 0
v 0 -7.68 0
v -0.64 -8.32 0
v -1.28 -8.32 0
v -1.28 -7.68 0
v -0.64 -7.68 0
v -1.28 -8.32 0
v -1.92 -8.32 0
v -1.92 -7.68 0
v -1.28 -7.68 0
v -1.92 -8.32 0
v -2.56 -8.32 0
v -2.56 -7.68 0
v -1.92 -7.68 0
v -2.56 -8.32 0
v -3.2 -8.32 0
v -3.2 -7.68 0
v -2.56 -7.68 0
v -3.2 -8.32 0
v -3.84 -8.32 0
v -3.84 -7.68 0
v -3.2 -7.68 0
v -3.84 -8.32 0
v -4.48 -8.32 0
v -4.48 -7.68 0
v -3.84 -7.68 0
v 0 -8.96 0
v -0.64 -8.96 0
v -0.64 -8.32 0
v 0 -8.32 0
v -0.64 -8.96 0
v -1.28 -8.96 0
v -1.28 -8.32 0
v -0.64 -8.32 0
v -1.28 -8.96 0
v -1.92 -8.96 0
v -1.92 -8.32 0
v -1.28 -8.32 0
v -1.92 -8.96 0
v -2.56 -8.96 0
v -2.56 -8.32 0
v -1.92 -8.32 0
v -2.56 -8.96 0
v -3.2 -8.96 0
v -3.2 -8.32 0
v -2.56 -8.32 0
v -3.2 -8.96 0
v -3.84 -8.96 0
v -3.84 -8.32 0
v -3.2 -8.32 0
v -3.84 -8.96 0
v -4.48 -8.96 0
v -4.48 -8.32 0
v -3.84 -8.32 0
v 0 -9.599999 0
v -0.64 -9.599999 0
v -0.64 -8.96 0
v 0 -8.96 0
v -0.64 -9.599999 0
v -1.28 -9.599999 0
v -1.28 -8.96 0
v -0.64 -8.96 0
v -1.28 -9.599999 0
v -1.92 -9.599999 0
v -1.92 -8.96 0
v -1.28 -8.96 0
v -1.92 -9.599999 0
v -2.56 -9.599999 0
v -2.56 -8.96 0
v -1.92 -8.96 0
v -2.56 -9.599999 0
v -3.2 -9.599999 0
v -3.2 -8.96 0
v -2.56 -8.96 0
v -3.2 -9.599999 0
v -3.84 -9.599999 0
v -3.84 -8.96 0
v -3.2 -8.96 0
v -3.84 -9.599999 0
v -4.48 -9.599999 0
v -4.48 -8.96 0
v -3.84 -8.96 0
v 0 -10.24 0
v -0.64 -10.24 0
v -0.64 -9.599999 0
v 0 -9.599999 0
v -0.64 -10.24 0
v -1.28 -10.24 0
v -1.28 -9.599999 0
v -0.64 -9.599999 0
v -1.28 -10.24 0
v -1.92 -10.24 0
v -1.92 -9.599999 0
v -1.28 -9.599999 0
v -1.92 -10.24 0
v -2.56 -10.24 0
v -2.56 -9.599999 0
v -1.92 -9.599999 0
v -2.56 -10.24 0
v -3.2 -10.24 0
v -3.2 -9.599999 0
v -2.56 -9.599999 0
v -3.2 -10.24 0
v -3.84 -10.24 0
v -3.84 -9.599999 0
v -3.2 -9.599999 0
v -3.84 -10.24 0
v -4.48 -10.24 0
v -4.48 -9.599999 0
v -3.84 -9.599999 0

# Texture cooridinates (Count = 32)
vt 0.04166667 0.5666667
vt 0.08333334 0.5666667
vt 0.08333334 0.6
vt 0.04166667 0.6
vt 0 0.5666667
vt 0 0.6
vt 0.125 0.5666667
vt 0.125 0.6
vt 0.04166667 0.5333333
vt 0.08333334 0.5333333
vt 0 0.5333333
vt 0.1666667 0.4666666
vt 0.2083333 0.4666666
vt 0.2083333 0.5
vt 0.1666667 0.5
vt 0.25 0.4666666
vt 0.25 0.5
vt 0 0.4333333
vt 0.04166667 0.4333333
vt 0.04166667 0.4666666
vt 0 0.4666666
vt 0 0.5
vt 0.04166667 0.5
vt 0.08333334 0.5
vt 0.08333334 0.4333333
vt 0.08333334 0.4666666
vt 0.1666667 0.4333333
vt 0.2083333 0.4333333
vt 0.25 0.4333333
vt 0 0.4
vt 0.04166667 0.4
vt 0.08333334 0.4

# Normal
vn 0 0 -1

# Mesh description
g BM2._mesh_0360

# Faces
f 1/1/1 2/2/1 3/3/1 4/4/1
f 5/5/1 6/1/1 7/4/1 8/6/1
f 9/1/1 10/2/1 11/3/1 12/4/1
f 13/5/1 14/1/1 15/4/1 16/6/1
f 17/1/1 18/2/1 19/3/1 20/4/1
f 21/5/1 22/1/1 23/4/1 24/6/1
f 25/2/1 26/7/1 27/8/1 28/3/1
f 29/9/1 30/10/1 31/2/1 32/1/1
f 33/11/1 34/9/1 35/1/1 36/5/1
f 37/9/1 38/10/1 39/2/1 40/1/1
f 41/11/1 42/9/1 43/1/1 44/5/1
f 45/9/1 46/10/1 47/2/1 48/1/1
f 49/12/1 50/13/1 51/14/1 52/15/1
f 53/13/1 54/16/1 55/17/1 56/14/1
f 57/18/1 58/19/1 59/20/1 60/21/1
f 61/22/1 62/23/1 63/9/1 64/11/1
f 65/23/1 66/24/1 67/10/1 68/9/1
f 69/19/1 70/25/1 71/26/1 72/20/1
f 73/18/1 74/19/1 75/20/1 76/21/1
f 77/27/1 78/28/1 79/13/1 80/12/1
f 81/28/1 82/29/1 83/16/1 84/13/1
f 85/30/1 86/31/1 87/19/1 88/18/1
f 89/21/1 90/20/1 91/23/1 92/22/1
f 93/20/1 94/26/1 95/24/1 96/23/1
f 97/31/1 98/32/1 99/25/1 100/19/1
f 101/30/1 102/31/1 103/19/1 104/18/1
f 105/12/1 106/13/1 107/14/1 108/15/1
f 109/13/1 110/16/1 111/17/1 112/14/1
f 113/19/1 114/25/1 115/26/1 116/20/1
f 117/18/1 118/19/1 119/20/1 120/21/1
f 121/19/1 122/25/1 123/26/1 124/20/1
f 125/18/1 126/19/1 127/20/1 128/21/1
f 129/19/1 130/25/1 131/26/1 132/20/1
f 133/27/1 134/28/1 135/13/1 136/12/1
f 137/28/1 138/29/1 139/16/1 140/13/1
f 141/31/1 142/32/1 143/25/1 144/19/1
f 145/30/1 146/31/1 147/19/1 148/18/1
f 149/31/1 150/32/1 151/25/1 152/19/1
f 153/30/1 154/31/1 155/19/1 156/18/1
f 157/31/1 158/32/1 159/25/1 160/19/1
f 161/12/1 162/13/1 163/14/1 164/15/1
f 165/13/1 166/16/1 167/17/1 168/14/1

