# Tiled2Unity generated file. Do not modify by hand.
# Wavefront file for 'BM2._mesh_0080.obj'

# Vertices (Count = 304)
v -0.64 -0.64 0
v -1.28 -0.64 0
v -1.28 0 0
v -0.64 0 0
v -1.28 -0.64 0
v -1.92 -0.64 0
v -1.92 0 0
v -1.28 0 0
v -1.92 -0.64 0
v -2.56 -0.64 0
v -2.56 0 0
v -1.92 0 0
v -2.56 -0.64 0
v -3.2 -0.64 0
v -3.2 0 0
v -2.56 0 0
v 0 -1.28 0
v -0.64 -1.28 0
v -0.64 -0.64 0
v 0 -0.64 0
v -0.64 -1.28 0
v -1.28 -1.28 0
v -1.28 -0.64 0
v -0.64 -0.64 0
v -1.28 -1.28 0
v -1.92 -1.28 0
v -1.92 -0.64 0
v -1.28 -0.64 0
v -1.92 -1.28 0
v -2.56 -1.28 0
v -2.56 -0.64 0
v -1.92 -0.64 0
v -2.56 -1.28 0
v -3.2 -1.28 0
v -3.2 -0.64 0
v -2.56 -0.64 0
v -3.2 -1.28 0
v -3.84 -1.28 0
v -3.84 -0.64 0
v -3.2 -0.64 0
v -3.84 -1.28 0
v -4.48 -1.28 0
v -4.48 -0.64 0
v -3.84 -0.64 0
v -4.48 -1.28 0
v -5.12 -1.28 0
v -5.12 -0.64 0
v -4.48 -0.64 0
v -5.12 -1.28 0
v -5.76 -1.28 0
v -5.76 -0.64 0
v -5.12 -0.64 0
v -5.76 -1.28 0
v -6.4 -1.28 0
v -6.4 -0.64 0
v -5.76 -0.64 0
v 0 -1.92 0
v -0.64 -1.92 0
v -0.64 -1.28 0
v 0 -1.28 0
v -0.64 -1.92 0
v -1.28 -1.92 0
v -1.28 -1.28 0
v -0.64 -1.28 0
v -1.28 -1.92 0
v -1.92 -1.92 0
v -1.92 -1.28 0
v -1.28 -1.28 0
v -1.92 -1.92 0
v -2.56 -1.92 0
v -2.56 -1.28 0
v -1.92 -1.28 0
v -2.56 -1.92 0
v -3.2 -1.92 0
v -3.2 -1.28 0
v -2.56 -1.28 0
v -3.2 -1.92 0
v -3.84 -1.92 0
v -3.84 -1.28 0
v -3.2 -1.28 0
v -3.84 -1.92 0
v -4.48 -1.92 0
v -4.48 -1.28 0
v -3.84 -1.28 0
v -4.48 -1.92 0
v -5.12 -1.92 0
v -5.12 -1.28 0
v -4.48 -1.28 0
v -5.12 -1.92 0
v -5.76 -1.92 0
v -5.76 -1.28 0
v -5.12 -1.28 0
v -5.76 -1.92 0
v -6.4 -1.92 0
v -6.4 -1.28 0
v -5.76 -1.28 0
v -0.64 -2.56 0
v -1.28 -2.56 0
v -1.28 -1.92 0
v -0.64 -1.92 0
v -1.28 -2.56 0
v -1.92 -2.56 0
v -1.92 -1.92 0
v -1.28 -1.92 0
v -1.92 -2.56 0
v -2.56 -2.56 0
v -2.56 -1.92 0
v -1.92 -1.92 0
v -2.56 -2.56 0
v -3.2 -2.56 0
v -3.2 -1.92 0
v -2.56 -1.92 0
v -0.64 -3.2 0
v -1.28 -3.2 0
v -1.28 -2.56 0
v -0.64 -2.56 0
v -1.28 -3.2 0
v -1.92 -3.2 0
v -1.92 -2.56 0
v -1.28 -2.56 0
v -1.92 -3.2 0
v -2.56 -3.2 0
v -2.56 -2.56 0
v -1.92 -2.56 0
v -2.56 -3.2 0
v -3.2 -3.2 0
v -3.2 -2.56 0
v -2.56 -2.56 0
v -0.64 -3.84 0
v -1.28 -3.84 0
v -1.28 -3.2 0
v -0.64 -3.2 0
v -1.28 -3.84 0
v -1.92 -3.84 0
v -1.92 -3.2 0
v -1.28 -3.2 0
v -1.92 -3.84 0
v -2.56 -3.84 0
v -2.56 -3.2 0
v -1.92 -3.2 0
v -2.56 -3.84 0
v -3.2 -3.84 0
v -3.2 -3.2 0
v -2.56 -3.2 0
v -0.64 -4.48 0
v -1.28 -4.48 0
v -1.28 -3.84 0
v -0.64 -3.84 0
v -1.28 -4.48 0
v -1.92 -4.48 0
v -1.92 -3.84 0
v -1.28 -3.84 0
v -1.92 -4.48 0
v -2.56 -4.48 0
v -2.56 -3.84 0
v -1.92 -3.84 0
v -2.56 -4.48 0
v -3.2 -4.48 0
v -3.2 -3.84 0
v -2.56 -3.84 0
v -0.64 -5.12 0
v -1.28 -5.12 0
v -1.28 -4.48 0
v -0.64 -4.48 0
v -1.28 -5.12 0
v -1.92 -5.12 0
v -1.92 -4.48 0
v -1.28 -4.48 0
v -1.92 -5.12 0
v -2.56 -5.12 0
v -2.56 -4.48 0
v -1.92 -4.48 0
v -2.56 -5.12 0
v -3.2 -5.12 0
v -3.2 -4.48 0
v -2.56 -4.48 0
v -0.64 -5.76 0
v -1.28 -5.76 0
v -1.28 -5.12 0
v -0.64 -5.12 0
v -1.28 -5.76 0
v -1.92 -5.76 0
v -1.92 -5.12 0
v -1.28 -5.12 0
v -1.92 -5.76 0
v -2.56 -5.76 0
v -2.56 -5.12 0
v -1.92 -5.12 0
v -2.56 -5.76 0
v -3.2 -5.76 0
v -3.2 -5.12 0
v -2.56 -5.12 0
v -0.64 -6.4 0
v -1.28 -6.4 0
v -1.28 -5.76 0
v -0.64 -5.76 0
v -1.28 -6.4 0
v -1.92 -6.4 0
v -1.92 -5.76 0
v -1.28 -5.76 0
v -1.92 -6.4 0
v -2.56 -6.4 0
v -2.56 -5.76 0
v -1.92 -5.76 0
v -2.56 -6.4 0
v -3.2 -6.4 0
v -3.2 -5.76 0
v -2.56 -5.76 0
v -0.64 -7.04 0
v -1.28 -7.04 0
v -1.28 -6.4 0
v -0.64 -6.4 0
v -1.28 -7.04 0
v -1.92 -7.04 0
v -1.92 -6.4 0
v -1.28 -6.4 0
v -1.92 -7.04 0
v -2.56 -7.04 0
v -2.56 -6.4 0
v -1.92 -6.4 0
v -2.56 -7.04 0
v -3.2 -7.04 0
v -3.2 -6.4 0
v -2.56 -6.4 0
v -0.64 -7.68 0
v -1.28 -7.68 0
v -1.28 -7.04 0
v -0.64 -7.04 0
v -1.28 -7.68 0
v -1.92 -7.68 0
v -1.92 -7.04 0
v -1.28 -7.04 0
v -1.92 -7.68 0
v -2.56 -7.68 0
v -2.56 -7.04 0
v -1.92 -7.04 0
v -2.56 -7.68 0
v -3.2 -7.68 0
v -3.2 -7.04 0
v -2.56 -7.04 0
v -0.64 -8.32 0
v -1.28 -8.32 0
v -1.28 -7.68 0
v -0.64 -7.68 0
v -1.28 -8.32 0
v -1.92 -8.32 0
v -1.92 -7.68 0
v -1.28 -7.68 0
v -1.92 -8.32 0
v -2.56 -8.32 0
v -2.56 -7.68 0
v -1.92 -7.68 0
v -2.56 -8.32 0
v -3.2 -8.32 0
v -3.2 -7.68 0
v -2.56 -7.68 0
v -0.64 -8.96 0
v -1.28 -8.96 0
v -1.28 -8.32 0
v -0.64 -8.32 0
v -1.28 -8.96 0
v -1.92 -8.96 0
v -1.92 -8.32 0
v -1.28 -8.32 0
v -1.92 -8.96 0
v -2.56 -8.96 0
v -2.56 -8.32 0
v -1.92 -8.32 0
v -2.56 -8.96 0
v -3.2 -8.96 0
v -3.2 -8.32 0
v -2.56 -8.32 0
v -0.64 -9.599999 0
v -1.28 -9.599999 0
v -1.28 -8.96 0
v -0.64 -8.96 0
v -1.28 -9.599999 0
v -1.92 -9.599999 0
v -1.92 -8.96 0
v -1.28 -8.96 0
v -1.92 -9.599999 0
v -2.56 -9.599999 0
v -2.56 -8.96 0
v -1.92 -8.96 0
v -2.56 -9.599999 0
v -3.2 -9.599999 0
v -3.2 -8.96 0
v -2.56 -8.96 0
v -0.64 -10.24 0
v -1.28 -10.24 0
v -1.28 -9.599999 0
v -0.64 -9.599999 0
v -1.28 -10.24 0
v -1.92 -10.24 0
v -1.92 -9.599999 0
v -1.28 -9.599999 0
v -1.92 -10.24 0
v -2.56 -10.24 0
v -2.56 -9.599999 0
v -1.92 -9.599999 0
v -2.56 -10.24 0
v -3.2 -10.24 0
v -3.2 -9.599999 0
v -2.56 -9.599999 0

# Texture cooridinates (Count = 73)
vt 0.1 0.2
vt 0.15 0.2
vt 0.15 0.25
vt 0.1 0.25
vt 0.2 0.2
vt 0.25 0.2
vt 0.25 0.25
vt 0.2 0.25
vt 0.3 0.2
vt 0.3 0.25
vt 0.35 0.2
vt 0.4 0.2
vt 0.4 0.25
vt 0.35 0.25
vt 0.75 0.85
vt 0.8 0.85
vt 0.8 0.9
vt 0.75 0.9
vt 0.5 0.95
vt 0.55 0.95
vt 0.55 1
vt 0.5 1
vt 0.7 0.8
vt 0.75 0.8
vt 0.7 0.85
vt 0.8 0.8
vt 0.95 0.95
vt 1 0.95
vt 1 1
vt 0.95 1
vt 0.7 0.9
vt 0.45 0.45
vt 0.5 0.45
vt 0.5 0.5
vt 0.45 0.5
vt 0.75 0.6
vt 0.8 0.6
vt 0.8 0.65
vt 0.75 0.65
vt 0.55 0.5
vt 0.55 0.55
vt 0.5 0.55
vt 0.7 0.75
vt 0.75 0.75
vt 0.8 0.75
vt 0.95 0.5
vt 1 0.5
vt 1 0.55
vt 0.95 0.55
vt 0.7 0.6
vt 0.7 0.65
vt 0.6 0.75
vt 0.65 0.75
vt 0.65 0.8
vt 0.6 0.8
vt 0.85 0.75
vt 0.85 0.8
vt 0.9 0.75
vt 0.9 0.8
vt 0.65 0.85
vt 0.6 0.85
vt 0.9 0.85
vt 0.85 0.85
vt 0.6 0.7
vt 0.65 0.7
vt 0.7 0.7
vt 0.75 0.7
vt 0.85 0.7
vt 0.9 0.7
vt 0.6 0.65
vt 0.65 0.65
vt 0.85 0.65
vt 0.9 0.65

# Normal
vn 0 0 -1

# Mesh description
g BM2._mesh_0080

# Faces
f 1/1/1 2/2/1 3/3/1 4/4/1
f 5/5/1 6/6/1 7/7/1 8/8/1
f 9/6/1 10/9/1 11/10/1 12/7/1
f 13/11/1 14/12/1 15/13/1 16/14/1
f 17/15/1 18/16/1 19/17/1 20/18/1
f 21/19/1 22/20/1 23/21/1 24/22/1
f 25/23/1 26/24/1 27/15/1 28/25/1
f 29/24/1 30/26/1 31/16/1 32/15/1
f 33/27/1 34/28/1 35/29/1 36/30/1
f 37/25/1 38/15/1 39/18/1 40/31/1
f 41/15/1 42/16/1 43/17/1 44/18/1
f 45/25/1 46/15/1 47/18/1 48/31/1
f 49/15/1 50/16/1 51/17/1 52/18/1
f 53/32/1 54/33/1 55/34/1 56/35/1
f 57/36/1 58/37/1 59/38/1 60/39/1
f 61/34/1 62/40/1 63/41/1 64/42/1
f 65/43/1 66/44/1 67/24/1 68/23/1
f 69/44/1 70/45/1 71/26/1 72/24/1
f 73/46/1 74/47/1 75/48/1 76/49/1
f 77/50/1 78/36/1 79/39/1 80/51/1
f 81/36/1 82/37/1 83/38/1 84/39/1
f 85/50/1 86/36/1 87/39/1 88/51/1
f 89/36/1 90/37/1 91/38/1 92/39/1
f 93/5/1 94/6/1 95/7/1 96/8/1
f 97/52/1 98/53/1 99/54/1 100/55/1
f 101/53/1 102/43/1 103/23/1 104/54/1
f 105/45/1 106/56/1 107/57/1 108/26/1
f 109/56/1 110/58/1 111/59/1 112/57/1
f 113/55/1 114/54/1 115/60/1 116/61/1
f 117/54/1 118/23/1 119/25/1 120/60/1
f 121/23/1 122/24/1 123/15/1 124/25/1
f 125/57/1 126/59/1 127/62/1 128/63/1
f 129/52/1 130/53/1 131/54/1 132/55/1
f 133/53/1 134/43/1 135/23/1 136/54/1
f 137/43/1 138/44/1 139/24/1 140/23/1
f 141/56/1 142/58/1 143/59/1 144/57/1
f 145/64/1 146/65/1 147/53/1 148/52/1
f 149/65/1 150/66/1 151/43/1 152/53/1
f 153/66/1 154/67/1 155/44/1 156/43/1
f 157/68/1 158/69/1 159/58/1 160/56/1
f 161/70/1 162/71/1 163/65/1 164/64/1
f 165/71/1 166/51/1 167/66/1 168/65/1
f 169/51/1 170/39/1 171/67/1 172/66/1
f 173/72/1 174/73/1 175/69/1 176/68/1
f 177/55/1 178/54/1 179/60/1 180/61/1
f 181/54/1 182/23/1 183/25/1 184/60/1
f 185/23/1 186/24/1 187/15/1 188/25/1
f 189/57/1 190/59/1 191/62/1 192/63/1
f 193/52/1 194/53/1 195/54/1 196/55/1
f 197/53/1 198/43/1 199/23/1 200/54/1
f 201/43/1 202/44/1 203/24/1 204/23/1
f 205/56/1 206/58/1 207/59/1 208/57/1
f 209/64/1 210/65/1 211/53/1 212/52/1
f 213/65/1 214/66/1 215/43/1 216/53/1
f 217/66/1 218/67/1 219/44/1 220/43/1
f 221/68/1 222/69/1 223/58/1 224/56/1
f 225/70/1 226/71/1 227/65/1 228/64/1
f 229/71/1 230/51/1 231/66/1 232/65/1
f 233/51/1 234/39/1 235/67/1 236/66/1
f 237/72/1 238/73/1 239/69/1 240/68/1
f 241/55/1 242/54/1 243/60/1 244/61/1
f 245/54/1 246/23/1 247/25/1 248/60/1
f 249/23/1 250/24/1 251/15/1 252/25/1
f 253/57/1 254/59/1 255/62/1 256/63/1
f 257/52/1 258/53/1 259/54/1 260/55/1
f 261/53/1 262/43/1 263/23/1 264/54/1
f 265/43/1 266/44/1 267/24/1 268/23/1
f 269/56/1 270/58/1 271/59/1 272/57/1
f 273/64/1 274/65/1 275/53/1 276/52/1
f 277/65/1 278/66/1 279/43/1 280/53/1
f 281/66/1 282/67/1 283/44/1 284/43/1
f 285/68/1 286/69/1 287/58/1 288/56/1
f 289/70/1 290/71/1 291/65/1 292/64/1
f 293/71/1 294/51/1 295/66/1 296/65/1
f 297/51/1 298/39/1 299/67/1 300/66/1
f 301/72/1 302/73/1 303/69/1 304/68/1

