# Tiled2Unity generated file. Do not modify by hand.
# Wavefront file for 'BM2._mesh_0257.obj'

# Vertices (Count = 28)
v 0 -0.64 0
v -0.64 -0.64 0
v -0.64 0 0
v 0 0 0
v 0 -1.28 0
v -0.64 -1.28 0
v -0.64 -0.64 0
v 0 -0.64 0
v 0 -1.92 0
v -0.64 -1.92 0
v -0.64 -1.28 0
v 0 -1.28 0
v 0 -2.56 0
v -0.64 -2.56 0
v -0.64 -1.92 0
v 0 -1.92 0
v 0 -3.2 0
v -0.64 -3.2 0
v -0.64 -2.56 0
v 0 -2.56 0
v 0 -3.84 0
v -0.64 -3.84 0
v -0.64 -3.2 0
v 0 -3.2 0
v 0 -4.48 0
v -0.64 -4.48 0
v -0.64 -3.84 0
v 0 -3.84 0

# Texture cooridinates (Count = 8)
vt 0.5 0.6904762
vt 0.5 0.7142857
vt 0.4791667 0.7142857
vt 0.4791667 0.6904762
vt 0.5208333 0.6904762
vt 0.5208333 0.7142857
vt 0.5416667 0.6904762
vt 0.5416667 0.7142857

# Normal
vn 0 0 -1

# Mesh description
g BM2._mesh_0257

# Faces
f 1/1/1 2/2/1 3/3/1 4/4/1
f 5/5/1 6/6/1 7/2/1 8/1/1
f 9/7/1 10/8/1 11/6/1 12/5/1
f 13/7/1 14/8/1 15/6/1 16/5/1
f 17/7/1 18/8/1 19/6/1 20/5/1
f 21/7/1 22/8/1 23/6/1 24/5/1
f 25/7/1 26/8/1 27/6/1 28/5/1

