# Tiled2Unity generated file. Do not modify by hand.
# Wavefront file for 'BM2._mesh_0079.obj'

# Vertices (Count = 228)
v 0 -0.64 0
v -0.64 -0.64 0
v -0.64 0 0
v 0 0 0
v -3.2 -0.64 0
v -3.84 -0.64 0
v -3.84 0 0
v -3.2 0 0
v -3.84 -0.64 0
v -4.48 -0.64 0
v -4.48 0 0
v -3.84 0 0
v -4.48 -0.64 0
v -5.12 -0.64 0
v -5.12 0 0
v -4.48 0 0
v -5.12 -0.64 0
v -5.76 -0.64 0
v -5.76 0 0
v -5.12 0 0
v -5.76 -0.64 0
v -6.4 -0.64 0
v -6.4 0 0
v -5.76 0 0
v 0 -2.56 0
v -0.64 -2.56 0
v -0.64 -1.92 0
v 0 -1.92 0
v -3.2 -2.56 0
v -3.84 -2.56 0
v -3.84 -1.92 0
v -3.2 -1.92 0
v -3.84 -2.56 0
v -4.48 -2.56 0
v -4.48 -1.92 0
v -3.84 -1.92 0
v -4.48 -2.56 0
v -5.12 -2.56 0
v -5.12 -1.92 0
v -4.48 -1.92 0
v -5.12 -2.56 0
v -5.76 -2.56 0
v -5.76 -1.92 0
v -5.12 -1.92 0
v -5.76 -2.56 0
v -6.4 -2.56 0
v -6.4 -1.92 0
v -5.76 -1.92 0
v 0 -3.2 0
v -0.64 -3.2 0
v -0.64 -2.56 0
v 0 -2.56 0
v -3.2 -3.2 0
v -3.84 -3.2 0
v -3.84 -2.56 0
v -3.2 -2.56 0
v -3.84 -3.2 0
v -4.48 -3.2 0
v -4.48 -2.56 0
v -3.84 -2.56 0
v -4.48 -3.2 0
v -5.12 -3.2 0
v -5.12 -2.56 0
v -4.48 -2.56 0
v -5.12 -3.2 0
v -5.76 -3.2 0
v -5.76 -2.56 0
v -5.12 -2.56 0
v -5.76 -3.2 0
v -6.4 -3.2 0
v -6.4 -2.56 0
v -5.76 -2.56 0
v 0 -3.84 0
v -0.64 -3.84 0
v -0.64 -3.2 0
v 0 -3.2 0
v -3.2 -3.84 0
v -3.84 -3.84 0
v -3.84 -3.2 0
v -3.2 -3.2 0
v -3.84 -3.84 0
v -4.48 -3.84 0
v -4.48 -3.2 0
v -3.84 -3.2 0
v 0 -4.48 0
v -0.64 -4.48 0
v -0.64 -3.84 0
v 0 -3.84 0
v -3.2 -4.48 0
v -3.84 -4.48 0
v -3.84 -3.84 0
v -3.2 -3.84 0
v -3.84 -4.48 0
v -4.48 -4.48 0
v -4.48 -3.84 0
v -3.84 -3.84 0
v 0 -5.12 0
v -0.64 -5.12 0
v -0.64 -4.48 0
v 0 -4.48 0
v -3.2 -5.12 0
v -3.84 -5.12 0
v -3.84 -4.48 0
v -3.2 -4.48 0
v -3.84 -5.12 0
v -4.48 -5.12 0
v -4.48 -4.48 0
v -3.84 -4.48 0
v 0 -5.76 0
v -0.64 -5.76 0
v -0.64 -5.12 0
v 0 -5.12 0
v -3.2 -5.76 0
v -3.84 -5.76 0
v -3.84 -5.12 0
v -3.2 -5.12 0
v -3.84 -5.76 0
v -4.48 -5.76 0
v -4.48 -5.12 0
v -3.84 -5.12 0
v 0 -6.4 0
v -0.64 -6.4 0
v -0.64 -5.76 0
v 0 -5.76 0
v -3.2 -6.4 0
v -3.84 -6.4 0
v -3.84 -5.76 0
v -3.2 -5.76 0
v -3.84 -6.4 0
v -4.48 -6.4 0
v -4.48 -5.76 0
v -3.84 -5.76 0
v 0 -7.04 0
v -0.64 -7.04 0
v -0.64 -6.4 0
v 0 -6.4 0
v -3.2 -7.04 0
v -3.84 -7.04 0
v -3.84 -6.4 0
v -3.2 -6.4 0
v -3.84 -7.04 0
v -4.48 -7.04 0
v -4.48 -6.4 0
v -3.84 -6.4 0
v 0 -7.68 0
v -0.64 -7.68 0
v -0.64 -7.04 0
v 0 -7.04 0
v -3.2 -7.68 0
v -3.84 -7.68 0
v -3.84 -7.04 0
v -3.2 -7.04 0
v -3.84 -7.68 0
v -4.48 -7.68 0
v -4.48 -7.04 0
v -3.84 -7.04 0
v 0 -8.32 0
v -0.64 -8.32 0
v -0.64 -7.68 0
v 0 -7.68 0
v -3.2 -8.32 0
v -3.84 -8.32 0
v -3.84 -7.68 0
v -3.2 -7.68 0
v -3.84 -8.32 0
v -4.48 -8.32 0
v -4.48 -7.68 0
v -3.84 -7.68 0
v 0 -8.96 0
v -0.64 -8.96 0
v -0.64 -8.32 0
v 0 -8.32 0
v -3.2 -8.96 0
v -3.84 -8.96 0
v -3.84 -8.32 0
v -3.2 -8.32 0
v -3.84 -8.96 0
v -4.48 -8.96 0
v -4.48 -8.32 0
v -3.84 -8.32 0
v 0 -9.599999 0
v -0.64 -9.599999 0
v -0.64 -8.96 0
v 0 -8.96 0
v -3.2 -9.599999 0
v -3.84 -9.599999 0
v -3.84 -8.96 0
v -3.2 -8.96 0
v -3.84 -9.599999 0
v -4.48 -9.599999 0
v -4.48 -8.96 0
v -3.84 -8.96 0
v 0 -10.24 0
v -0.64 -10.24 0
v -0.64 -9.599999 0
v 0 -9.599999 0
v -3.2 -10.24 0
v -3.84 -10.24 0
v -3.84 -9.599999 0
v -3.2 -9.599999 0
v -3.84 -10.24 0
v -4.48 -10.24 0
v -4.48 -9.599999 0
v -3.84 -9.599999 0
v -4.48 -10.24 0
v -5.12 -10.24 0
v -5.12 -9.599999 0
v -4.48 -9.599999 0
v -5.12 -10.24 0
v -5.76 -10.24 0
v -5.76 -9.599999 0
v -5.12 -9.599999 0
v -5.76 -10.24 0
v -6.4 -10.24 0
v -6.4 -9.599999 0
v -5.76 -9.599999 0
v -6.4 -10.24 0
v -7.04 -10.24 0
v -7.04 -9.599999 0
v -6.4 -9.599999 0
v -7.04 -10.24 0
v -7.68 -10.24 0
v -7.68 -9.599999 0
v -7.04 -9.599999 0
v -7.68 -10.24 0
v -8.32 -10.24 0
v -8.32 -9.599999 0
v -7.68 -9.599999 0

# Texture cooridinates (Count = 17)
vt 0.2083333 0.7333333
vt 0.25 0.7333333
vt 0.25 0.7666667
vt 0.2083333 0.7666667
vt 0.1666667 0.7333333
vt 0.1666667 0.7666667
vt 0.2083333 0.8
vt 0.1666667 0.8
vt 0.25 0.8
vt 0.2916667 0.2333333
vt 0.3333333 0.2333333
vt 0.3333333 0.2666667
vt 0.2916667 0.2666667
vt 0.375 0.2333333
vt 0.375 0.2666667
vt 0.4166667 0.2333333
vt 0.4166667 0.2666667

# Normal
vn 0 0 -1

# Mesh description
g BM2._mesh_0079

# Faces
f 1/1/1 2/2/1 3/3/1 4/4/1
f 5/5/1 6/1/1 7/4/1 8/6/1
f 9/5/1 10/1/1 11/4/1 12/6/1
f 13/5/1 14/1/1 15/4/1 16/6/1
f 17/5/1 18/1/1 19/4/1 20/6/1
f 21/1/1 22/2/1 23/3/1 24/4/1
f 25/1/1 26/2/1 27/3/1 28/4/1
f 29/6/1 30/4/1 31/7/1 32/8/1
f 33/6/1 34/4/1 35/7/1 36/8/1
f 37/6/1 38/4/1 39/7/1 40/8/1
f 41/6/1 42/4/1 43/7/1 44/8/1
f 45/4/1 46/3/1 47/9/1 48/7/1
f 49/4/1 50/3/1 51/9/1 52/7/1
f 53/5/1 54/1/1 55/4/1 56/6/1
f 57/5/1 58/1/1 59/4/1 60/6/1
f 61/5/1 62/1/1 63/4/1 64/6/1
f 65/5/1 66/1/1 67/4/1 68/6/1
f 69/1/1 70/2/1 71/3/1 72/4/1
f 73/4/1 74/3/1 75/9/1 76/7/1
f 77/6/1 78/4/1 79/7/1 80/8/1
f 81/4/1 82/3/1 83/9/1 84/7/1
f 85/4/1 86/3/1 87/9/1 88/7/1
f 89/6/1 90/4/1 91/7/1 92/8/1
f 93/4/1 94/3/1 95/9/1 96/7/1
f 97/4/1 98/3/1 99/9/1 100/7/1
f 101/6/1 102/4/1 103/7/1 104/8/1
f 105/4/1 106/3/1 107/9/1 108/7/1
f 109/4/1 110/3/1 111/9/1 112/7/1
f 113/6/1 114/4/1 115/7/1 116/8/1
f 117/4/1 118/3/1 119/9/1 120/7/1
f 121/4/1 122/3/1 123/9/1 124/7/1
f 125/6/1 126/4/1 127/7/1 128/8/1
f 129/4/1 130/3/1 131/9/1 132/7/1
f 133/4/1 134/3/1 135/9/1 136/7/1
f 137/6/1 138/4/1 139/7/1 140/8/1
f 141/4/1 142/3/1 143/9/1 144/7/1
f 145/4/1 146/3/1 147/9/1 148/7/1
f 149/6/1 150/4/1 151/7/1 152/8/1
f 153/4/1 154/3/1 155/9/1 156/7/1
f 157/4/1 158/3/1 159/9/1 160/7/1
f 161/6/1 162/4/1 163/7/1 164/8/1
f 165/4/1 166/3/1 167/9/1 168/7/1
f 169/4/1 170/3/1 171/9/1 172/7/1
f 173/6/1 174/4/1 175/7/1 176/8/1
f 177/4/1 178/3/1 179/9/1 180/7/1
f 181/4/1 182/3/1 183/9/1 184/7/1
f 185/6/1 186/4/1 187/7/1 188/8/1
f 189/4/1 190/3/1 191/9/1 192/7/1
f 193/4/1 194/3/1 195/9/1 196/7/1
f 197/6/1 198/4/1 199/7/1 200/8/1
f 201/10/1 202/11/1 203/12/1 204/13/1
f 205/10/1 206/11/1 207/12/1 208/13/1
f 209/10/1 210/11/1 211/12/1 212/13/1
f 213/10/1 214/11/1 215/12/1 216/13/1
f 217/10/1 218/11/1 219/12/1 220/13/1
f 221/11/1 222/14/1 223/15/1 224/12/1
f 225/14/1 226/16/1 227/17/1 228/15/1

