# Tiled2Unity generated file. Do not modify by hand.
# Wavefront file for 'BM2._mesh_0104.obj'

# Vertices (Count = 52)
v -0.64 -10.24 0
v -1.28 -10.24 0
v -1.28 -9.599999 0
v -0.64 -9.599999 0
v -1.28 -10.24 0
v -1.92 -10.24 0
v -1.92 -9.599999 0
v -1.28 -9.599999 0
v -1.92 -10.24 0
v -2.56 -10.24 0
v -2.56 -9.599999 0
v -1.92 -9.599999 0
v -2.56 -10.24 0
v -3.2 -10.24 0
v -3.2 -9.599999 0
v -2.56 -9.599999 0
v -3.2 -10.24 0
v -3.84 -10.24 0
v -3.84 -9.599999 0
v -3.2 -9.599999 0
v -3.84 -10.24 0
v -4.48 -10.24 0
v -4.48 -9.599999 0
v -3.84 -9.599999 0
v -4.48 -10.24 0
v -5.12 -10.24 0
v -5.12 -9.599999 0
v -4.48 -9.599999 0
v -5.12 -10.24 0
v -5.76 -10.24 0
v -5.76 -9.599999 0
v -5.12 -9.599999 0
v -5.76 -10.24 0
v -6.4 -10.24 0
v -6.4 -9.599999 0
v -5.76 -9.599999 0
v -6.4 -10.24 0
v -7.04 -10.24 0
v -7.04 -9.599999 0
v -6.4 -9.599999 0
v -7.04 -10.24 0
v -7.68 -10.24 0
v -7.68 -9.599999 0
v -7.04 -9.599999 0
v -7.68 -10.24 0
v -8.32 -10.24 0
v -8.32 -9.599999 0
v -7.68 -9.599999 0
v -8.32 -10.24 0
v -8.96 -10.24 0
v -8.96 -9.599999 0
v -8.32 -9.599999 0

# Texture cooridinates (Count = 10)
vt 0 0.95
vt 0.05 0.95
vt 0.05 1
vt 0 1
vt 0.1 0.95
vt 0.1 1
vt 0.2 0.5
vt 0.25 0.5
vt 0.25 0.55
vt 0.2 0.55

# Normal
vn 0 0 -1

# Mesh description
g BM2._mesh_0104

# Faces
f 1/1/1 2/2/1 3/3/1 4/4/1
f 5/2/1 6/5/1 7/6/1 8/3/1
f 9/2/1 10/5/1 11/6/1 12/3/1
f 13/2/1 14/5/1 15/6/1 16/3/1
f 17/2/1 18/5/1 19/6/1 20/3/1
f 21/2/1 22/5/1 23/6/1 24/3/1
f 25/2/1 26/5/1 27/6/1 28/3/1
f 29/2/1 30/5/1 31/6/1 32/3/1
f 33/2/1 34/5/1 35/6/1 36/3/1
f 37/2/1 38/5/1 39/6/1 40/3/1
f 41/2/1 42/5/1 43/6/1 44/3/1
f 45/2/1 46/5/1 47/6/1 48/3/1
f 49/7/1 50/8/1 51/9/1 52/10/1

