# Tiled2Unity generated file. Do not modify by hand.
# Wavefront file for 'BM2._mesh_0051.obj'

# Vertices (Count = 136)
v 0 -1.28 0
v -0.64 -1.28 0
v -0.64 -0.64 0
v 0 -0.64 0
v 0 -1.92 0
v -0.64 -1.92 0
v -0.64 -1.28 0
v 0 -1.28 0
v 0 -2.56 0
v -0.64 -2.56 0
v -0.64 -1.92 0
v 0 -1.92 0
v -0.64 -2.56 0
v -1.28 -2.56 0
v -1.28 -1.92 0
v -0.64 -1.92 0
v -1.28 -2.56 0
v -1.92 -2.56 0
v -1.92 -1.92 0
v -1.28 -1.92 0
v -1.92 -2.56 0
v -2.56 -2.56 0
v -2.56 -1.92 0
v -1.92 -1.92 0
v -2.56 -2.56 0
v -3.2 -2.56 0
v -3.2 -1.92 0
v -2.56 -1.92 0
v -3.2 -2.56 0
v -3.84 -2.56 0
v -3.84 -1.92 0
v -3.2 -1.92 0
v -3.84 -2.56 0
v -4.48 -2.56 0
v -4.48 -1.92 0
v -3.84 -1.92 0
v -4.48 -2.56 0
v -5.12 -2.56 0
v -5.12 -1.92 0
v -4.48 -1.92 0
v -5.12 -2.56 0
v -5.76 -2.56 0
v -5.76 -1.92 0
v -5.12 -1.92 0
v -5.76 -2.56 0
v -6.4 -2.56 0
v -6.4 -1.92 0
v -5.76 -1.92 0
v -6.4 -2.56 0
v -7.04 -2.56 0
v -7.04 -1.92 0
v -6.4 -1.92 0
v -7.04 -2.56 0
v -7.68 -2.56 0
v -7.68 -1.92 0
v -7.04 -1.92 0
v -7.68 -2.56 0
v -8.32 -2.56 0
v -8.32 -1.92 0
v -7.68 -1.92 0
v -8.32 -2.56 0
v -8.96 -2.56 0
v -8.96 -1.92 0
v -8.32 -1.92 0
v -8.96 -2.56 0
v -9.599999 -2.56 0
v -9.599999 -1.92 0
v -8.96 -1.92 0
v -9.599999 -2.56 0
v -10.24 -2.56 0
v -10.24 -1.92 0
v -9.599999 -1.92 0
v 0 -3.2 0
v -0.64 -3.2 0
v -0.64 -2.56 0
v 0 -2.56 0
v -0.64 -3.2 0
v -1.28 -3.2 0
v -1.28 -2.56 0
v -0.64 -2.56 0
v -1.28 -3.2 0
v -1.92 -3.2 0
v -1.92 -2.56 0
v -1.28 -2.56 0
v -1.92 -3.2 0
v -2.56 -3.2 0
v -2.56 -2.56 0
v -1.92 -2.56 0
v -2.56 -3.2 0
v -3.2 -3.2 0
v -3.2 -2.56 0
v -2.56 -2.56 0
v -3.2 -3.2 0
v -3.84 -3.2 0
v -3.84 -2.56 0
v -3.2 -2.56 0
v -3.84 -3.2 0
v -4.48 -3.2 0
v -4.48 -2.56 0
v -3.84 -2.56 0
v -4.48 -3.2 0
v -5.12 -3.2 0
v -5.12 -2.56 0
v -4.48 -2.56 0
v -5.12 -3.2 0
v -5.76 -3.2 0
v -5.76 -2.56 0
v -5.12 -2.56 0
v -5.76 -3.2 0
v -6.4 -3.2 0
v -6.4 -2.56 0
v -5.76 -2.56 0
v -6.4 -3.2 0
v -7.04 -3.2 0
v -7.04 -2.56 0
v -6.4 -2.56 0
v -7.04 -3.2 0
v -7.68 -3.2 0
v -7.68 -2.56 0
v -7.04 -2.56 0
v -7.68 -3.2 0
v -8.32 -3.2 0
v -8.32 -2.56 0
v -7.68 -2.56 0
v -8.32 -3.2 0
v -8.96 -3.2 0
v -8.96 -2.56 0
v -8.32 -2.56 0
v -8.96 -3.2 0
v -9.599999 -3.2 0
v -9.599999 -2.56 0
v -8.96 -2.56 0
v -9.599999 -3.2 0
v -10.24 -3.2 0
v -10.24 -2.56 0
v -9.599999 -2.56 0

# Texture cooridinates (Count = 9)
vt 0.21875 0.90625
vt 0.25 0.90625
vt 0.25 0.9375
vt 0.21875 0.9375
vt 0.21875 0.875
vt 0.25 0.875
vt 0.1875 0.90625
vt 0.1875 0.9375
vt 0.1875 0.875

# Normal
vn 0 0 -1

# Mesh description
g BM2._mesh_0051

# Faces
f 1/1/1 2/2/1 3/3/1 4/4/1
f 5/5/1 6/6/1 7/2/1 8/1/1
f 9/7/1 10/1/1 11/4/1 12/8/1
f 13/7/1 14/1/1 15/4/1 16/8/1
f 17/7/1 18/1/1 19/4/1 20/8/1
f 21/7/1 22/1/1 23/4/1 24/8/1
f 25/7/1 26/1/1 27/4/1 28/8/1
f 29/7/1 30/1/1 31/4/1 32/8/1
f 33/7/1 34/1/1 35/4/1 36/8/1
f 37/7/1 38/1/1 39/4/1 40/8/1
f 41/7/1 42/1/1 43/4/1 44/8/1
f 45/7/1 46/1/1 47/4/1 48/8/1
f 49/7/1 50/1/1 51/4/1 52/8/1
f 53/7/1 54/1/1 55/4/1 56/8/1
f 57/7/1 58/1/1 59/4/1 60/8/1
f 61/7/1 62/1/1 63/4/1 64/8/1
f 65/7/1 66/1/1 67/4/1 68/8/1
f 69/7/1 70/1/1 71/4/1 72/8/1
f 73/9/1 74/5/1 75/1/1 76/7/1
f 77/9/1 78/5/1 79/1/1 80/7/1
f 81/9/1 82/5/1 83/1/1 84/7/1
f 85/9/1 86/5/1 87/1/1 88/7/1
f 89/9/1 90/5/1 91/1/1 92/7/1
f 93/9/1 94/5/1 95/1/1 96/7/1
f 97/9/1 98/5/1 99/1/1 100/7/1
f 101/9/1 102/5/1 103/1/1 104/7/1
f 105/9/1 106/5/1 107/1/1 108/7/1
f 109/9/1 110/5/1 111/1/1 112/7/1
f 113/9/1 114/5/1 115/1/1 116/7/1
f 117/9/1 118/5/1 119/1/1 120/7/1
f 121/9/1 122/5/1 123/1/1 124/7/1
f 125/9/1 126/5/1 127/1/1 128/7/1
f 129/9/1 130/5/1 131/1/1 132/7/1
f 133/9/1 134/5/1 135/1/1 136/7/1

