# Tiled2Unity generated file. Do not modify by hand.
# Wavefront file for 'BM2._mesh_0072.obj'

# Vertices (Count = 104)
v -4.48 -0.64 0
v -5.12 -0.64 0
v -5.12 0 0
v -4.48 0 0
v -5.12 -0.64 0
v -5.76 -0.64 0
v -5.76 0 0
v -5.12 0 0
v -4.48 -1.28 0
v -5.12 -1.28 0
v -5.12 -0.64 0
v -4.48 -0.64 0
v -5.12 -1.28 0
v -5.76 -1.28 0
v -5.76 -0.64 0
v -5.12 -0.64 0
v -4.48 -1.92 0
v -5.12 -1.92 0
v -5.12 -1.28 0
v -4.48 -1.28 0
v -5.12 -1.92 0
v -5.76 -1.92 0
v -5.76 -1.28 0
v -5.12 -1.28 0
v -4.48 -2.56 0
v -5.12 -2.56 0
v -5.12 -1.92 0
v -4.48 -1.92 0
v -5.12 -2.56 0
v -5.76 -2.56 0
v -5.76 -1.92 0
v -5.12 -1.92 0
v -4.48 -3.2 0
v -5.12 -3.2 0
v -5.12 -2.56 0
v -4.48 -2.56 0
v -5.12 -3.2 0
v -5.76 -3.2 0
v -5.76 -2.56 0
v -5.12 -2.56 0
v -5.76 -3.2 0
v -6.4 -3.2 0
v -6.4 -2.56 0
v -5.76 -2.56 0
v -6.4 -3.2 0
v -7.04 -3.2 0
v -7.04 -2.56 0
v -6.4 -2.56 0
v -7.04 -3.2 0
v -7.68 -3.2 0
v -7.68 -2.56 0
v -7.04 -2.56 0
v -7.68 -3.2 0
v -8.32 -3.2 0
v -8.32 -2.56 0
v -7.68 -2.56 0
v -8.32 -3.2 0
v -8.96 -3.2 0
v -8.96 -2.56 0
v -8.32 -2.56 0
v -8.96 -3.2 0
v -9.599999 -3.2 0
v -9.599999 -2.56 0
v -8.96 -2.56 0
v -9.599999 -3.2 0
v -10.24 -3.2 0
v -10.24 -2.56 0
v -9.599999 -2.56 0
v -4.48 -3.84 0
v -5.12 -3.84 0
v -5.12 -3.2 0
v -4.48 -3.2 0
v -5.12 -3.84 0
v -5.76 -3.84 0
v -5.76 -3.2 0
v -5.12 -3.2 0
v -5.76 -3.84 0
v -6.4 -3.84 0
v -6.4 -3.2 0
v -5.76 -3.2 0
v -6.4 -3.84 0
v -7.04 -3.84 0
v -7.04 -3.2 0
v -6.4 -3.2 0
v -7.04 -3.84 0
v -7.68 -3.84 0
v -7.68 -3.2 0
v -7.04 -3.2 0
v -7.68 -3.84 0
v -8.32 -3.84 0
v -8.32 -3.2 0
v -7.68 -3.2 0
v -8.32 -3.84 0
v -8.96 -3.84 0
v -8.96 -3.2 0
v -8.32 -3.2 0
v -8.96 -3.84 0
v -9.599999 -3.84 0
v -9.599999 -3.2 0
v -8.96 -3.2 0
v -9.599999 -3.84 0
v -10.24 -3.84 0
v -10.24 -3.2 0
v -9.599999 -3.2 0

# Texture cooridinates (Count = 8)
vt 0.3333333 0.4166667
vt 0.5 0.4166667
vt 0.5 0.5
vt 0.3333333 0.5
vt 0.6666667 0.4166667
vt 0.6666667 0.5
vt 0.3333333 0.3333333
vt 0.5 0.3333333

# Normal
vn 0 0 -1

# Mesh description
g BM2._mesh_0072

# Faces
f 1/1/1 2/2/1 3/3/1 4/4/1
f 5/2/1 6/5/1 7/6/1 8/3/1
f 9/1/1 10/2/1 11/3/1 12/4/1
f 13/2/1 14/5/1 15/6/1 16/3/1
f 17/1/1 18/2/1 19/3/1 20/4/1
f 21/2/1 22/5/1 23/6/1 24/3/1
f 25/1/1 26/2/1 27/3/1 28/4/1
f 29/2/1 30/5/1 31/6/1 32/3/1
f 33/1/1 34/2/1 35/3/1 36/4/1
f 37/1/1 38/2/1 39/3/1 40/4/1
f 41/1/1 42/2/1 43/3/1 44/4/1
f 45/1/1 46/2/1 47/3/1 48/4/1
f 49/1/1 50/2/1 51/3/1 52/4/1
f 53/1/1 54/2/1 55/3/1 56/4/1
f 57/1/1 58/2/1 59/3/1 60/4/1
f 61/1/1 62/2/1 63/3/1 64/4/1
f 65/1/1 66/2/1 67/3/1 68/4/1
f 69/7/1 70/8/1 71/2/1 72/1/1
f 73/7/1 74/8/1 75/2/1 76/1/1
f 77/7/1 78/8/1 79/2/1 80/1/1
f 81/7/1 82/8/1 83/2/1 84/1/1
f 85/7/1 86/8/1 87/2/1 88/1/1
f 89/7/1 90/8/1 91/2/1 92/1/1
f 93/7/1 94/8/1 95/2/1 96/1/1
f 97/7/1 98/8/1 99/2/1 100/1/1
f 101/7/1 102/8/1 103/2/1 104/1/1

