# Tiled2Unity generated file. Do not modify by hand.
# Wavefront file for 'BM2._mesh_0197.obj'

# Vertices (Count = 40)
v -2.56 -7.68 0
v -3.2 -7.68 0
v -3.2 -7.04 0
v -2.56 -7.04 0
v -4.48 -7.68 0
v -5.12 -7.68 0
v -5.12 -7.04 0
v -4.48 -7.04 0
v -2.56 -8.32 0
v -3.2 -8.32 0
v -3.2 -7.68 0
v -2.56 -7.68 0
v -4.48 -8.32 0
v -5.12 -8.32 0
v -5.12 -7.68 0
v -4.48 -7.68 0
v -2.56 -8.96 0
v -3.2 -8.96 0
v -3.2 -8.32 0
v -2.56 -8.32 0
v -4.48 -8.96 0
v -5.12 -8.96 0
v -5.12 -8.32 0
v -4.48 -8.32 0
v -2.56 -9.599999 0
v -3.2 -9.599999 0
v -3.2 -8.96 0
v -2.56 -8.96 0
v -4.48 -9.599999 0
v -5.12 -9.599999 0
v -5.12 -8.96 0
v -4.48 -8.96 0
v -2.56 -10.24 0
v -3.2 -10.24 0
v -3.2 -9.599999 0
v -2.56 -9.599999 0
v -4.48 -10.24 0
v -5.12 -10.24 0
v -5.12 -9.599999 0
v -4.48 -9.599999 0

# Texture cooridinates (Count = 6)
vt 0.3333333 0.25
vt 0.3333333 0.1666667
vt 0.5 0.1666667
vt 0.5 0.25
vt 0.6666667 0.1666667
vt 0.6666667 0.25

# Normal
vn 0 0 -1

# Mesh description
g BM2._mesh_0197

# Faces
f 1/1/1 2/2/1 3/3/1 4/4/1
f 5/4/1 6/3/1 7/5/1 8/6/1
f 9/4/1 10/3/1 11/5/1 12/6/1
f 13/1/1 14/2/1 15/3/1 16/4/1
f 17/4/1 18/3/1 19/5/1 20/6/1
f 21/1/1 22/2/1 23/3/1 24/4/1
f 25/4/1 26/3/1 27/5/1 28/6/1
f 29/1/1 30/2/1 31/3/1 32/4/1
f 33/4/1 34/3/1 35/5/1 36/6/1
f 37/1/1 38/2/1 39/3/1 40/4/1

