# Tiled2Unity generated file. Do not modify by hand.
# Wavefront file for 'BM2._mesh_0142.obj'

# Vertices (Count = 276)
v -4.48 -5.76 0
v -5.12 -5.76 0
v -5.12 -5.12 0
v -4.48 -5.12 0
v -5.12 -5.76 0
v -5.76 -5.76 0
v -5.76 -5.12 0
v -5.12 -5.12 0
v -4.48 -6.4 0
v -5.12 -6.4 0
v -5.12 -5.76 0
v -4.48 -5.76 0
v -5.12 -6.4 0
v -5.76 -6.4 0
v -5.76 -5.76 0
v -5.12 -5.76 0
v -7.04 -6.4 0
v -7.68 -6.4 0
v -7.68 -5.76 0
v -7.04 -5.76 0
v -7.68 -6.4 0
v -8.32 -6.4 0
v -8.32 -5.76 0
v -7.68 -5.76 0
v -9.599999 -6.4 0
v -10.24 -6.4 0
v -10.24 -5.76 0
v -9.599999 -5.76 0
v -4.48 -7.04 0
v -5.12 -7.04 0
v -5.12 -6.4 0
v -4.48 -6.4 0
v -5.12 -7.04 0
v -5.76 -7.04 0
v -5.76 -6.4 0
v -5.12 -6.4 0
v -5.76 -7.04 0
v -6.4 -7.04 0
v -6.4 -6.4 0
v -5.76 -6.4 0
v -6.4 -7.04 0
v -7.04 -7.04 0
v -7.04 -6.4 0
v -6.4 -6.4 0
v -7.04 -7.04 0
v -7.68 -7.04 0
v -7.68 -6.4 0
v -7.04 -6.4 0
v -7.68 -7.04 0
v -8.32 -7.04 0
v -8.32 -6.4 0
v -7.68 -6.4 0
v -9.599999 -7.04 0
v -10.24 -7.04 0
v -10.24 -6.4 0
v -9.599999 -6.4 0
v -3.2 -7.68 0
v -3.84 -7.68 0
v -3.84 -7.04 0
v -3.2 -7.04 0
v -3.84 -7.68 0
v -4.48 -7.68 0
v -4.48 -7.04 0
v -3.84 -7.04 0
v -4.48 -7.68 0
v -5.12 -7.68 0
v -5.12 -7.04 0
v -4.48 -7.04 0
v -5.12 -7.68 0
v -5.76 -7.68 0
v -5.76 -7.04 0
v -5.12 -7.04 0
v -5.76 -7.68 0
v -6.4 -7.68 0
v -6.4 -7.04 0
v -5.76 -7.04 0
v -6.4 -7.68 0
v -7.04 -7.68 0
v -7.04 -7.04 0
v -6.4 -7.04 0
v -7.04 -7.68 0
v -7.68 -7.68 0
v -7.68 -7.04 0
v -7.04 -7.04 0
v -7.68 -7.68 0
v -8.32 -7.68 0
v -8.32 -7.04 0
v -7.68 -7.04 0
v -8.32 -7.68 0
v -8.96 -7.68 0
v -8.96 -7.04 0
v -8.32 -7.04 0
v -8.96 -7.68 0
v -9.599999 -7.68 0
v -9.599999 -7.04 0
v -8.96 -7.04 0
v -9.599999 -7.68 0
v -10.24 -7.68 0
v -10.24 -7.04 0
v -9.599999 -7.04 0
v -3.2 -8.32 0
v -3.84 -8.32 0
v -3.84 -7.68 0
v -3.2 -7.68 0
v -3.84 -8.32 0
v -4.48 -8.32 0
v -4.48 -7.68 0
v -3.84 -7.68 0
v -4.48 -8.32 0
v -5.12 -8.32 0
v -5.12 -7.68 0
v -4.48 -7.68 0
v -5.12 -8.32 0
v -5.76 -8.32 0
v -5.76 -7.68 0
v -5.12 -7.68 0
v -5.76 -8.32 0
v -6.4 -8.32 0
v -6.4 -7.68 0
v -5.76 -7.68 0
v -6.4 -8.32 0
v -7.04 -8.32 0
v -7.04 -7.68 0
v -6.4 -7.68 0
v -7.04 -8.32 0
v -7.68 -8.32 0
v -7.68 -7.68 0
v -7.04 -7.68 0
v -7.68 -8.32 0
v -8.32 -8.32 0
v -8.32 -7.68 0
v -7.68 -7.68 0
v -8.32 -8.32 0
v -8.96 -8.32 0
v -8.96 -7.68 0
v -8.32 -7.68 0
v -8.96 -8.32 0
v -9.599999 -8.32 0
v -9.599999 -7.68 0
v -8.96 -7.68 0
v -9.599999 -8.32 0
v -10.24 -8.32 0
v -10.24 -7.68 0
v -9.599999 -7.68 0
v -3.2 -8.96 0
v -3.84 -8.96 0
v -3.84 -8.32 0
v -3.2 -8.32 0
v -3.84 -8.96 0
v -4.48 -8.96 0
v -4.48 -8.32 0
v -3.84 -8.32 0
v -4.48 -8.96 0
v -5.12 -8.96 0
v -5.12 -8.32 0
v -4.48 -8.32 0
v -5.12 -8.96 0
v -5.76 -8.96 0
v -5.76 -8.32 0
v -5.12 -8.32 0
v -5.76 -8.96 0
v -6.4 -8.96 0
v -6.4 -8.32 0
v -5.76 -8.32 0
v -6.4 -8.96 0
v -7.04 -8.96 0
v -7.04 -8.32 0
v -6.4 -8.32 0
v -7.04 -8.96 0
v -7.68 -8.96 0
v -7.68 -8.32 0
v -7.04 -8.32 0
v -7.68 -8.96 0
v -8.32 -8.96 0
v -8.32 -8.32 0
v -7.68 -8.32 0
v -8.32 -8.96 0
v -8.96 -8.96 0
v -8.96 -8.32 0
v -8.32 -8.32 0
v -8.96 -8.96 0
v -9.599999 -8.96 0
v -9.599999 -8.32 0
v -8.96 -8.32 0
v -9.599999 -8.96 0
v -10.24 -8.96 0
v -10.24 -8.32 0
v -9.599999 -8.32 0
v -3.2 -9.599999 0
v -3.84 -9.599999 0
v -3.84 -8.96 0
v -3.2 -8.96 0
v -3.84 -9.599999 0
v -4.48 -9.599999 0
v -4.48 -8.96 0
v -3.84 -8.96 0
v -4.48 -9.599999 0
v -5.12 -9.599999 0
v -5.12 -8.96 0
v -4.48 -8.96 0
v -5.12 -9.599999 0
v -5.76 -9.599999 0
v -5.76 -8.96 0
v -5.12 -8.96 0
v -5.76 -9.599999 0
v -6.4 -9.599999 0
v -6.4 -8.96 0
v -5.76 -8.96 0
v -6.4 -9.599999 0
v -7.04 -9.599999 0
v -7.04 -8.96 0
v -6.4 -8.96 0
v -7.04 -9.599999 0
v -7.68 -9.599999 0
v -7.68 -8.96 0
v -7.04 -8.96 0
v -7.68 -9.599999 0
v -8.32 -9.599999 0
v -8.32 -8.96 0
v -7.68 -8.96 0
v -8.32 -9.599999 0
v -8.96 -9.599999 0
v -8.96 -8.96 0
v -8.32 -8.96 0
v -8.96 -9.599999 0
v -9.599999 -9.599999 0
v -9.599999 -8.96 0
v -8.96 -8.96 0
v -9.599999 -9.599999 0
v -10.24 -9.599999 0
v -10.24 -8.96 0
v -9.599999 -8.96 0
v -3.2 -10.24 0
v -3.84 -10.24 0
v -3.84 -9.599999 0
v -3.2 -9.599999 0
v -3.84 -10.24 0
v -4.48 -10.24 0
v -4.48 -9.599999 0
v -3.84 -9.599999 0
v -4.48 -10.24 0
v -5.12 -10.24 0
v -5.12 -9.599999 0
v -4.48 -9.599999 0
v -5.12 -10.24 0
v -5.76 -10.24 0
v -5.76 -9.599999 0
v -5.12 -9.599999 0
v -5.76 -10.24 0
v -6.4 -10.24 0
v -6.4 -9.599999 0
v -5.76 -9.599999 0
v -6.4 -10.24 0
v -7.04 -10.24 0
v -7.04 -9.599999 0
v -6.4 -9.599999 0
v -7.04 -10.24 0
v -7.68 -10.24 0
v -7.68 -9.599999 0
v -7.04 -9.599999 0
v -7.68 -10.24 0
v -8.32 -10.24 0
v -8.32 -9.599999 0
v -7.68 -9.599999 0
v -8.32 -10.24 0
v -8.96 -10.24 0
v -8.96 -9.599999 0
v -8.32 -9.599999 0
v -8.96 -10.24 0
v -9.599999 -10.24 0
v -9.599999 -9.599999 0
v -8.96 -9.599999 0
v -9.599999 -10.24 0
v -10.24 -10.24 0
v -10.24 -9.599999 0
v -9.599999 -9.599999 0

# Texture cooridinates (Count = 81)
vt 0.1666667 0.9615384
vt 0.25 0.9615384
vt 0.25 1
vt 0.1666667 1
vt 0.3333333 0.9615384
vt 0.3333333 1
vt 0.1666667 0.9230769
vt 0.25 0.9230769
vt 0.3333333 0.9230769
vt 0 0.9615384
vt 0.08333334 0.9615384
vt 0.08333334 1
vt 0 1
vt 0.5 0.9615384
vt 0.5833333 0.9615384
vt 0.5833333 1
vt 0.5 1
vt 0.1666667 0.8846154
vt 0.25 0.8846154
vt 0.3333333 0.8846154
vt 0 0.7307692
vt 0.08333334 0.7307692
vt 0.08333334 0.7692308
vt 0 0.7692308
vt 0.1666667 0.7307692
vt 0.1666667 0.7692308
vt 0 0.9230769
vt 0.08333334 0.9230769
vt 0.5 0.9230769
vt 0.5833333 0.9230769
vt 0.1666667 0.8461539
vt 0.25 0.8461539
vt 0.3333333 0.8461539
vt 0 0.6923077
vt 0.08333334 0.6923077
vt 0.1666667 0.6923077
vt 0 0.8846154
vt 0.08333334 0.8846154
vt 0.25 0.7307692
vt 0.25 0.7692308
vt 0.3333333 0.7307692
vt 0.3333333 0.7692308
vt 0.5 0.8846154
vt 0.5833333 0.8846154
vt 0.4166667 0.9230769
vt 0.4166667 0.9615384
vt 0.6666667 0.9230769
vt 0.6666667 0.9615384
vt 0.25 0.6923077
vt 0.3333333 0.6923077
vt 0.4166667 0.6923077
vt 0.4166667 0.7307692
vt 0.4166667 0.8846154
vt 0.6666667 0.8846154
vt 0.1666667 0.6538461
vt 0.25 0.6538461
vt 0.3333333 0.6538461
vt 0.4166667 0.6538461
vt 0 0.8461539
vt 0.08333334 0.8461539
vt 0.4166667 0.8461539
vt 0.5 0.8461539
vt 0.5833333 0.8461539
vt 0.6666667 0.8461539
vt 0.1666667 0.6153846
vt 0.25 0.6153846
vt 0.3333333 0.6153846
vt 0.4166667 0.6153846
vt 0 0.8076923
vt 0.08333334 0.8076923
vt 0.1666667 0.8076923
vt 0.25 0.8076923
vt 0.3333333 0.8076923
vt 0.4166667 0.8076923
vt 0.5 0.8076923
vt 0.5833333 0.8076923
vt 0.6666667 0.8076923
vt 0.1666667 0.5769231
vt 0.25 0.5769231
vt 0.3333333 0.5769231
vt 0.4166667 0.5769231

# Normal
vn 0 0 -1

# Mesh description
g BM2._mesh_0142

# Faces
f 1/1/1 2/2/1 3/3/1 4/4/1
f 5/2/1 6/5/1 7/6/1 8/3/1
f 9/7/1 10/8/1 11/2/1 12/1/1
f 13/8/1 14/9/1 15/5/1 16/2/1
f 17/10/1 18/11/1 19/12/1 20/13/1
f 21/11/1 22/1/1 23/4/1 24/12/1
f 25/14/1 26/15/1 27/16/1 28/17/1
f 29/18/1 30/19/1 31/8/1 32/7/1
f 33/19/1 34/20/1 35/9/1 36/8/1
f 37/21/1 38/22/1 39/23/1 40/24/1
f 41/22/1 42/25/1 43/26/1 44/23/1
f 45/27/1 46/28/1 47/11/1 48/10/1
f 49/28/1 50/7/1 51/1/1 52/11/1
f 53/29/1 54/30/1 55/15/1 56/14/1
f 57/10/1 58/11/1 59/12/1 60/13/1
f 61/11/1 62/1/1 63/4/1 64/12/1
f 65/31/1 66/32/1 67/19/1 68/18/1
f 69/32/1 70/33/1 71/20/1 72/19/1
f 73/34/1 74/35/1 75/22/1 76/21/1
f 77/35/1 78/36/1 79/25/1 80/22/1
f 81/37/1 82/38/1 83/28/1 84/27/1
f 85/38/1 86/18/1 87/7/1 88/28/1
f 89/25/1 90/39/1 91/40/1 92/26/1
f 93/39/1 94/41/1 95/42/1 96/40/1
f 97/43/1 98/44/1 99/30/1 100/29/1
f 101/27/1 102/28/1 103/11/1 104/10/1
f 105/28/1 106/7/1 107/1/1 108/11/1
f 109/7/1 110/8/1 111/2/1 112/1/1
f 113/8/1 114/9/1 115/5/1 116/2/1
f 117/9/1 118/45/1 119/46/1 120/5/1
f 121/45/1 122/29/1 123/14/1 124/46/1
f 125/29/1 126/30/1 127/15/1 128/14/1
f 129/30/1 130/47/1 131/48/1 132/15/1
f 133/36/1 134/49/1 135/39/1 136/25/1
f 137/49/1 138/50/1 139/41/1 140/39/1
f 141/50/1 142/51/1 143/52/1 144/41/1
f 145/37/1 146/38/1 147/28/1 148/27/1
f 149/38/1 150/18/1 151/7/1 152/28/1
f 153/18/1 154/19/1 155/8/1 156/7/1
f 157/19/1 158/20/1 159/9/1 160/8/1
f 161/20/1 162/53/1 163/45/1 164/9/1
f 165/53/1 166/43/1 167/29/1 168/45/1
f 169/43/1 170/44/1 171/30/1 172/29/1
f 173/44/1 174/54/1 175/47/1 176/30/1
f 177/55/1 178/56/1 179/49/1 180/36/1
f 181/56/1 182/57/1 183/50/1 184/49/1
f 185/57/1 186/58/1 187/51/1 188/50/1
f 189/59/1 190/60/1 191/38/1 192/37/1
f 193/60/1 194/31/1 195/18/1 196/38/1
f 197/31/1 198/32/1 199/19/1 200/18/1
f 201/32/1 202/33/1 203/20/1 204/19/1
f 205/33/1 206/61/1 207/53/1 208/20/1
f 209/61/1 210/62/1 211/43/1 212/53/1
f 213/62/1 214/63/1 215/44/1 216/43/1
f 217/63/1 218/64/1 219/54/1 220/44/1
f 221/65/1 222/66/1 223/56/1 224/55/1
f 225/66/1 226/67/1 227/57/1 228/56/1
f 229/67/1 230/68/1 231/58/1 232/57/1
f 233/69/1 234/70/1 235/60/1 236/59/1
f 237/70/1 238/71/1 239/31/1 240/60/1
f 241/71/1 242/72/1 243/32/1 244/31/1
f 245/72/1 246/73/1 247/33/1 248/32/1
f 249/73/1 250/74/1 251/61/1 252/33/1
f 253/74/1 254/75/1 255/62/1 256/61/1
f 257/75/1 258/76/1 259/63/1 260/62/1
f 261/76/1 262/77/1 263/64/1 264/63/1
f 265/78/1 266/79/1 267/66/1 268/65/1
f 269/79/1 270/80/1 271/67/1 272/66/1
f 273/80/1 274/81/1 275/68/1 276/67/1

