# Tiled2Unity generated file. Do not modify by hand.
# Wavefront file for 'BM2._mesh_0255.obj'

# Vertices (Count = 112)
v -6.4 -7.04 0
v -7.04 -7.04 0
v -7.04 -6.4 0
v -6.4 -6.4 0
v -7.04 -7.04 0
v -7.68 -7.04 0
v -7.68 -6.4 0
v -7.04 -6.4 0
v -7.68 -7.04 0
v -8.32 -7.04 0
v -8.32 -6.4 0
v -7.68 -6.4 0
v -8.32 -7.04 0
v -8.96 -7.04 0
v -8.96 -6.4 0
v -8.32 -6.4 0
v -8.96 -7.04 0
v -9.599999 -7.04 0
v -9.599999 -6.4 0
v -8.96 -6.4 0
v -9.599999 -7.04 0
v -10.24 -7.04 0
v -10.24 -6.4 0
v -9.599999 -6.4 0
v -6.4 -7.68 0
v -7.04 -7.68 0
v -7.04 -7.04 0
v -6.4 -7.04 0
v -7.04 -7.68 0
v -7.68 -7.68 0
v -7.68 -7.04 0
v -7.04 -7.04 0
v -7.68 -7.68 0
v -8.32 -7.68 0
v -8.32 -7.04 0
v -7.68 -7.04 0
v -8.32 -7.68 0
v -8.96 -7.68 0
v -8.96 -7.04 0
v -8.32 -7.04 0
v -8.96 -7.68 0
v -9.599999 -7.68 0
v -9.599999 -7.04 0
v -8.96 -7.04 0
v -9.599999 -7.68 0
v -10.24 -7.68 0
v -10.24 -7.04 0
v -9.599999 -7.04 0
v -6.4 -8.32 0
v -7.04 -8.32 0
v -7.04 -7.68 0
v -6.4 -7.68 0
v -7.04 -8.32 0
v -7.68 -8.32 0
v -7.68 -7.68 0
v -7.04 -7.68 0
v -7.68 -8.32 0
v -8.32 -8.32 0
v -8.32 -7.68 0
v -7.68 -7.68 0
v -8.32 -8.32 0
v -8.96 -8.32 0
v -8.96 -7.68 0
v -8.32 -7.68 0
v -8.96 -8.32 0
v -9.599999 -8.32 0
v -9.599999 -7.68 0
v -8.96 -7.68 0
v -9.599999 -8.32 0
v -10.24 -8.32 0
v -10.24 -7.68 0
v -9.599999 -7.68 0
v -6.4 -8.96 0
v -7.04 -8.96 0
v -7.04 -8.32 0
v -6.4 -8.32 0
v -9.599999 -8.96 0
v -10.24 -8.96 0
v -10.24 -8.32 0
v -9.599999 -8.32 0
v -6.4 -9.599999 0
v -7.04 -9.599999 0
v -7.04 -8.96 0
v -6.4 -8.96 0
v -9.599999 -9.599999 0
v -10.24 -9.599999 0
v -10.24 -8.96 0
v -9.599999 -8.96 0
v -6.4 -10.24 0
v -7.04 -10.24 0
v -7.04 -9.599999 0
v -6.4 -9.599999 0
v -7.04 -10.24 0
v -7.68 -10.24 0
v -7.68 -9.599999 0
v -7.04 -9.599999 0
v -7.68 -10.24 0
v -8.32 -10.24 0
v -8.32 -9.599999 0
v -7.68 -9.599999 0
v -8.32 -10.24 0
v -8.96 -10.24 0
v -8.96 -9.599999 0
v -8.32 -9.599999 0
v -8.96 -10.24 0
v -9.599999 -10.24 0
v -9.599999 -9.599999 0
v -8.96 -9.599999 0
v -9.599999 -10.24 0
v -10.24 -10.24 0
v -10.24 -9.599999 0
v -9.599999 -9.599999 0

# Texture cooridinates (Count = 15)
vt 0.4375 0.59375
vt 0.46875 0.59375
vt 0.46875 0.625
vt 0.4375 0.625
vt 0.5 0.59375
vt 0.5 0.625
vt 0.53125 0.59375
vt 0.53125 0.625
vt 0.5625 0.59375
vt 0.5625 0.625
vt 0.4375 0.5625
vt 0.46875 0.5625
vt 0.5 0.5625
vt 0.53125 0.5625
vt 0.5625 0.5625

# Normal
vn 0 0 -1

# Mesh description
g BM2._mesh_0255

# Faces
f 1/1/1 2/2/1 3/3/1 4/4/1
f 5/2/1 6/5/1 7/6/1 8/3/1
f 9/5/1 10/7/1 11/8/1 12/6/1
f 13/7/1 14/9/1 15/10/1 16/8/1
f 17/1/1 18/2/1 19/3/1 20/4/1
f 21/2/1 22/5/1 23/6/1 24/3/1
f 25/11/1 26/12/1 27/2/1 28/1/1
f 29/12/1 30/13/1 31/5/1 32/2/1
f 33/13/1 34/14/1 35/7/1 36/5/1
f 37/14/1 38/15/1 39/9/1 40/7/1
f 41/11/1 42/12/1 43/2/1 44/1/1
f 45/12/1 46/13/1 47/5/1 48/2/1
f 49/1/1 50/2/1 51/3/1 52/4/1
f 53/2/1 54/5/1 55/6/1 56/3/1
f 57/5/1 58/7/1 59/8/1 60/6/1
f 61/7/1 62/9/1 63/10/1 64/8/1
f 65/1/1 66/2/1 67/3/1 68/4/1
f 69/2/1 70/5/1 71/6/1 72/3/1
f 73/11/1 74/12/1 75/2/1 76/1/1
f 77/12/1 78/13/1 79/5/1 80/2/1
f 81/1/1 82/2/1 83/3/1 84/4/1
f 85/2/1 86/5/1 87/6/1 88/3/1
f 89/11/1 90/12/1 91/2/1 92/1/1
f 93/12/1 94/13/1 95/5/1 96/2/1
f 97/13/1 98/14/1 99/7/1 100/5/1
f 101/14/1 102/15/1 103/9/1 104/7/1
f 105/11/1 106/12/1 107/2/1 108/1/1
f 109/12/1 110/13/1 111/5/1 112/2/1

