# Tiled2Unity generated file. Do not modify by hand.
# Wavefront file for 'BM2._mesh_0343.obj'

# Vertices (Count = 408)
v -0.64 -0.64 0
v -1.28 -0.64 0
v -1.28 0 0
v -0.64 0 0
v -1.28 -0.64 0
v -1.92 -0.64 0
v -1.92 0 0
v -1.28 0 0
v -3.2 -0.64 0
v -3.84 -0.64 0
v -3.84 0 0
v -3.2 0 0
v -3.84 -0.64 0
v -4.48 -0.64 0
v -4.48 0 0
v -3.84 0 0
v -4.48 -0.64 0
v -5.12 -0.64 0
v -5.12 0 0
v -4.48 0 0
v -5.12 -0.64 0
v -5.76 -0.64 0
v -5.76 0 0
v -5.12 0 0
v -5.76 -0.64 0
v -6.4 -0.64 0
v -6.4 0 0
v -5.76 0 0
v -6.4 -0.64 0
v -7.04 -0.64 0
v -7.04 0 0
v -6.4 0 0
v -7.04 -0.64 0
v -7.68 -0.64 0
v -7.68 0 0
v -7.04 0 0
v -7.68 -0.64 0
v -8.32 -0.64 0
v -8.32 0 0
v -7.68 0 0
v -8.32 -0.64 0
v -8.96 -0.64 0
v -8.96 0 0
v -8.32 0 0
v -8.96 -0.64 0
v -9.599999 -0.64 0
v -9.599999 0 0
v -8.96 0 0
v -9.599999 -0.64 0
v -10.24 -0.64 0
v -10.24 0 0
v -9.599999 0 0
v -0.64 -1.28 0
v -1.28 -1.28 0
v -1.28 -0.64 0
v -0.64 -0.64 0
v -1.28 -1.28 0
v -1.92 -1.28 0
v -1.92 -0.64 0
v -1.28 -0.64 0
v -3.2 -1.28 0
v -3.84 -1.28 0
v -3.84 -0.64 0
v -3.2 -0.64 0
v -3.84 -1.28 0
v -4.48 -1.28 0
v -4.48 -0.64 0
v -3.84 -0.64 0
v -4.48 -1.28 0
v -5.12 -1.28 0
v -5.12 -0.64 0
v -4.48 -0.64 0
v -5.12 -1.28 0
v -5.76 -1.28 0
v -5.76 -0.64 0
v -5.12 -0.64 0
v -5.76 -1.28 0
v -6.4 -1.28 0
v -6.4 -0.64 0
v -5.76 -0.64 0
v -6.4 -1.28 0
v -7.04 -1.28 0
v -7.04 -0.64 0
v -6.4 -0.64 0
v -7.04 -1.28 0
v -7.68 -1.28 0
v -7.68 -0.64 0
v -7.04 -0.64 0
v -7.68 -1.28 0
v -8.32 -1.28 0
v -8.32 -0.64 0
v -7.68 -0.64 0
v -8.32 -1.28 0
v -8.96 -1.28 0
v -8.96 -0.64 0
v -8.32 -0.64 0
v -0.64 -1.92 0
v -1.28 -1.92 0
v -1.28 -1.28 0
v -0.64 -1.28 0
v -1.28 -1.92 0
v -1.92 -1.92 0
v -1.92 -1.28 0
v -1.28 -1.28 0
v -1.92 -1.92 0
v -2.56 -1.92 0
v -2.56 -1.28 0
v -1.92 -1.28 0
v -2.56 -1.92 0
v -3.2 -1.92 0
v -3.2 -1.28 0
v -2.56 -1.28 0
v -3.2 -1.92 0
v -3.84 -1.92 0
v -3.84 -1.28 0
v -3.2 -1.28 0
v -3.84 -1.92 0
v -4.48 -1.92 0
v -4.48 -1.28 0
v -3.84 -1.28 0
v -4.48 -1.92 0
v -5.12 -1.92 0
v -5.12 -1.28 0
v -4.48 -1.28 0
v -5.76 -1.92 0
v -6.4 -1.92 0
v -6.4 -1.28 0
v -5.76 -1.28 0
v -6.4 -1.92 0
v -7.04 -1.92 0
v -7.04 -1.28 0
v -6.4 -1.28 0
v -7.04 -1.92 0
v -7.68 -1.92 0
v -7.68 -1.28 0
v -7.04 -1.28 0
v -7.68 -1.92 0
v -8.32 -1.92 0
v -8.32 -1.28 0
v -7.68 -1.28 0
v -8.32 -1.92 0
v -8.96 -1.92 0
v -8.96 -1.28 0
v -8.32 -1.28 0
v -8.96 -1.92 0
v -9.599999 -1.92 0
v -9.599999 -1.28 0
v -8.96 -1.28 0
v -9.599999 -1.92 0
v -10.24 -1.92 0
v -10.24 -1.28 0
v -9.599999 -1.28 0
v -0.64 -2.56 0
v -1.28 -2.56 0
v -1.28 -1.92 0
v -0.64 -1.92 0
v -1.28 -2.56 0
v -1.92 -2.56 0
v -1.92 -1.92 0
v -1.28 -1.92 0
v -1.92 -2.56 0
v -2.56 -2.56 0
v -2.56 -1.92 0
v -1.92 -1.92 0
v -2.56 -2.56 0
v -3.2 -2.56 0
v -3.2 -1.92 0
v -2.56 -1.92 0
v -3.2 -2.56 0
v -3.84 -2.56 0
v -3.84 -1.92 0
v -3.2 -1.92 0
v -3.84 -2.56 0
v -4.48 -2.56 0
v -4.48 -1.92 0
v -3.84 -1.92 0
v -4.48 -2.56 0
v -5.12 -2.56 0
v -5.12 -1.92 0
v -4.48 -1.92 0
v -5.12 -2.56 0
v -5.76 -2.56 0
v -5.76 -1.92 0
v -5.12 -1.92 0
v -5.76 -2.56 0
v -6.4 -2.56 0
v -6.4 -1.92 0
v -5.76 -1.92 0
v -6.4 -2.56 0
v -7.04 -2.56 0
v -7.04 -1.92 0
v -6.4 -1.92 0
v -7.04 -2.56 0
v -7.68 -2.56 0
v -7.68 -1.92 0
v -7.04 -1.92 0
v -7.68 -2.56 0
v -8.32 -2.56 0
v -8.32 -1.92 0
v -7.68 -1.92 0
v -8.32 -2.56 0
v -8.96 -2.56 0
v -8.96 -1.92 0
v -8.32 -1.92 0
v -8.96 -2.56 0
v -9.599999 -2.56 0
v -9.599999 -1.92 0
v -8.96 -1.92 0
v -9.599999 -2.56 0
v -10.24 -2.56 0
v -10.24 -1.92 0
v -9.599999 -1.92 0
v -0.64 -3.2 0
v -1.28 -3.2 0
v -1.28 -2.56 0
v -0.64 -2.56 0
v -1.28 -3.2 0
v -1.92 -3.2 0
v -1.92 -2.56 0
v -1.28 -2.56 0
v -1.92 -3.2 0
v -2.56 -3.2 0
v -2.56 -2.56 0
v -1.92 -2.56 0
v -2.56 -3.2 0
v -3.2 -3.2 0
v -3.2 -2.56 0
v -2.56 -2.56 0
v -3.2 -3.2 0
v -3.84 -3.2 0
v -3.84 -2.56 0
v -3.2 -2.56 0
v -3.84 -3.2 0
v -4.48 -3.2 0
v -4.48 -2.56 0
v -3.84 -2.56 0
v -4.48 -3.2 0
v -5.12 -3.2 0
v -5.12 -2.56 0
v -4.48 -2.56 0
v -5.12 -3.2 0
v -5.76 -3.2 0
v -5.76 -2.56 0
v -5.12 -2.56 0
v -5.76 -3.2 0
v -6.4 -3.2 0
v -6.4 -2.56 0
v -5.76 -2.56 0
v -6.4 -3.2 0
v -7.04 -3.2 0
v -7.04 -2.56 0
v -6.4 -2.56 0
v -7.04 -3.2 0
v -7.68 -3.2 0
v -7.68 -2.56 0
v -7.04 -2.56 0
v -7.68 -3.2 0
v -8.32 -3.2 0
v -8.32 -2.56 0
v -7.68 -2.56 0
v -8.32 -3.2 0
v -8.96 -3.2 0
v -8.96 -2.56 0
v -8.32 -2.56 0
v -8.96 -3.2 0
v -9.599999 -3.2 0
v -9.599999 -2.56 0
v -8.96 -2.56 0
v -9.599999 -3.2 0
v -10.24 -3.2 0
v -10.24 -2.56 0
v -9.599999 -2.56 0
v -0.64 -3.84 0
v -1.28 -3.84 0
v -1.28 -3.2 0
v -0.64 -3.2 0
v -1.28 -3.84 0
v -1.92 -3.84 0
v -1.92 -3.2 0
v -1.28 -3.2 0
v -1.92 -3.84 0
v -2.56 -3.84 0
v -2.56 -3.2 0
v -1.92 -3.2 0
v -2.56 -3.84 0
v -3.2 -3.84 0
v -3.2 -3.2 0
v -2.56 -3.2 0
v -3.2 -3.84 0
v -3.84 -3.84 0
v -3.84 -3.2 0
v -3.2 -3.2 0
v -3.84 -3.84 0
v -4.48 -3.84 0
v -4.48 -3.2 0
v -3.84 -3.2 0
v -4.48 -3.84 0
v -5.12 -3.84 0
v -5.12 -3.2 0
v -4.48 -3.2 0
v -5.12 -3.84 0
v -5.76 -3.84 0
v -5.76 -3.2 0
v -5.12 -3.2 0
v -5.76 -3.84 0
v -6.4 -3.84 0
v -6.4 -3.2 0
v -5.76 -3.2 0
v -6.4 -3.84 0
v -7.04 -3.84 0
v -7.04 -3.2 0
v -6.4 -3.2 0
v -7.04 -3.84 0
v -7.68 -3.84 0
v -7.68 -3.2 0
v -7.04 -3.2 0
v -7.68 -3.84 0
v -8.32 -3.84 0
v -8.32 -3.2 0
v -7.68 -3.2 0
v -8.32 -3.84 0
v -8.96 -3.84 0
v -8.96 -3.2 0
v -8.32 -3.2 0
v -8.96 -3.84 0
v -9.599999 -3.84 0
v -9.599999 -3.2 0
v -8.96 -3.2 0
v -9.599999 -3.84 0
v -10.24 -3.84 0
v -10.24 -3.2 0
v -9.599999 -3.2 0
v -4.48 -4.48 0
v -5.12 -4.48 0
v -5.12 -3.84 0
v -4.48 -3.84 0
v -5.12 -4.48 0
v -5.76 -4.48 0
v -5.76 -3.84 0
v -5.12 -3.84 0
v -5.76 -4.48 0
v -6.4 -4.48 0
v -6.4 -3.84 0
v -5.76 -3.84 0
v -6.4 -4.48 0
v -7.04 -4.48 0
v -7.04 -3.84 0
v -6.4 -3.84 0
v -0.64 -10.24 0
v -1.28 -10.24 0
v -1.28 -9.599999 0
v -0.64 -9.599999 0
v -1.28 -10.24 0
v -1.92 -10.24 0
v -1.92 -9.599999 0
v -1.28 -9.599999 0
v -1.92 -10.24 0
v -2.56 -10.24 0
v -2.56 -9.599999 0
v -1.92 -9.599999 0
v -2.56 -10.24 0
v -3.2 -10.24 0
v -3.2 -9.599999 0
v -2.56 -9.599999 0
v -3.2 -10.24 0
v -3.84 -10.24 0
v -3.84 -9.599999 0
v -3.2 -9.599999 0
v -3.84 -10.24 0
v -4.48 -10.24 0
v -4.48 -9.599999 0
v -3.84 -9.599999 0
v -4.48 -10.24 0
v -5.12 -10.24 0
v -5.12 -9.599999 0
v -4.48 -9.599999 0
v -5.12 -10.24 0
v -5.76 -10.24 0
v -5.76 -9.599999 0
v -5.12 -9.599999 0
v -5.76 -10.24 0
v -6.4 -10.24 0
v -6.4 -9.599999 0
v -5.76 -9.599999 0
v -6.4 -10.24 0
v -7.04 -10.24 0
v -7.04 -9.599999 0
v -6.4 -9.599999 0
v -7.04 -10.24 0
v -7.68 -10.24 0
v -7.68 -9.599999 0
v -7.04 -9.599999 0
v -7.68 -10.24 0
v -8.32 -10.24 0
v -8.32 -9.599999 0
v -7.68 -9.599999 0
v -8.32 -10.24 0
v -8.96 -10.24 0
v -8.96 -9.599999 0
v -8.32 -9.599999 0
v -8.96 -10.24 0
v -9.599999 -10.24 0
v -9.599999 -9.599999 0
v -8.96 -9.599999 0
v -9.599999 -10.24 0
v -10.24 -10.24 0
v -10.24 -9.599999 0
v -9.599999 -9.599999 0

# Texture cooridinates (Count = 25)
vt 0.25 0.2
vt 0.375 0.2
vt 0.375 0.3
vt 0.25 0.3
vt 0.5 0.2
vt 0.5 0.3
vt 0.25 0.1
vt 0.375 0.1
vt 0.25 0
vt 0.375 0
vt 0.5 0
vt 0.5 0.1
vt 0.625 0
vt 0.625 0.1
vt 0.75 0
vt 0.75 0.1
vt 0.375 0.4
vt 0.25 0.4
vt 0.5 0.4
vt 0.625 0.3
vt 0.625 0.4
vt 0.75 0.3
vt 0.75 0.4
vt 0.75 0.2
vt 0.625 0.2

# Normal
vn 0 0 -1

# Mesh description
g BM2._mesh_0343

# Faces
f 1/1/1 2/2/1 3/3/1 4/4/1
f 5/2/1 6/5/1 7/6/1 8/3/1
f 9/7/1 10/8/1 11/2/1 12/1/1
f 13/7/1 14/8/1 15/2/1 16/1/1
f 17/7/1 18/8/1 19/2/1 20/1/1
f 21/7/1 22/8/1 23/2/1 24/1/1
f 25/7/1 26/8/1 27/2/1 28/1/1
f 29/9/1 30/10/1 31/8/1 32/7/1
f 33/9/1 34/10/1 35/8/1 36/7/1
f 37/10/1 38/11/1 39/12/1 40/8/1
f 41/11/1 42/13/1 43/14/1 44/12/1
f 45/13/1 46/15/1 47/16/1 48/14/1
f 49/13/1 50/15/1 51/16/1 52/14/1
f 53/7/1 54/8/1 55/2/1 56/1/1
f 57/8/1 58/12/1 59/5/1 60/2/1
f 61/9/1 62/10/1 63/8/1 64/7/1
f 65/9/1 66/10/1 67/8/1 68/7/1
f 69/9/1 70/10/1 71/8/1 72/7/1
f 73/9/1 74/10/1 75/8/1 76/7/1
f 77/9/1 78/10/1 79/8/1 80/7/1
f 81/9/1 82/10/1 83/8/1 84/7/1
f 85/10/1 86/11/1 87/12/1 88/8/1
f 89/11/1 90/13/1 91/14/1 92/12/1
f 93/13/1 94/15/1 95/16/1 96/14/1
f 97/16/1 98/14/1 99/13/1 100/15/1
f 101/14/1 102/12/1 103/11/1 104/13/1
f 105/12/1 106/8/1 107/10/1 108/11/1
f 109/8/1 110/7/1 111/9/1 112/10/1
f 113/8/1 114/2/1 115/1/1 116/7/1
f 117/2/1 118/3/1 119/4/1 120/1/1
f 121/3/1 122/17/1 123/18/1 124/4/1
f 125/4/1 126/3/1 127/17/1 128/18/1
f 129/3/1 130/6/1 131/19/1 132/17/1
f 133/6/1 134/20/1 135/21/1 136/19/1
f 137/20/1 138/22/1 139/23/1 140/21/1
f 141/3/1 142/6/1 143/19/1 144/17/1
f 145/6/1 146/20/1 147/21/1 148/19/1
f 149/20/1 150/22/1 151/23/1 152/21/1
f 153/24/1 154/25/1 155/14/1 156/16/1
f 157/25/1 158/5/1 159/12/1 160/14/1
f 161/5/1 162/2/1 163/8/1 164/12/1
f 165/2/1 166/1/1 167/7/1 168/8/1
f 169/12/1 170/5/1 171/2/1 172/8/1
f 173/5/1 174/6/1 175/3/1 176/2/1
f 177/4/1 178/3/1 179/17/1 180/18/1
f 181/3/1 182/6/1 183/19/1 184/17/1
f 185/6/1 186/20/1 187/21/1 188/19/1
f 189/20/1 190/22/1 191/23/1 192/21/1
f 193/5/1 194/25/1 195/20/1 196/6/1
f 197/25/1 198/24/1 199/22/1 200/20/1
f 201/2/1 202/5/1 203/6/1 204/3/1
f 205/5/1 206/25/1 207/20/1 208/6/1
f 209/25/1 210/24/1 211/22/1 212/20/1
f 213/22/1 214/20/1 215/25/1 216/24/1
f 217/20/1 218/6/1 219/5/1 220/25/1
f 221/6/1 222/3/1 223/2/1 224/5/1
f 225/3/1 226/4/1 227/1/1 228/2/1
f 229/14/1 230/25/1 231/5/1 232/12/1
f 233/25/1 234/20/1 235/6/1 236/5/1
f 237/1/1 238/2/1 239/3/1 240/4/1
f 241/2/1 242/5/1 243/6/1 244/3/1
f 245/5/1 246/25/1 247/20/1 248/6/1
f 249/25/1 250/24/1 251/22/1 252/20/1
f 253/12/1 254/14/1 255/25/1 256/5/1
f 257/14/1 258/16/1 259/24/1 260/25/1
f 261/8/1 262/12/1 263/5/1 264/2/1
f 265/12/1 266/14/1 267/25/1 268/5/1
f 269/14/1 270/16/1 271/24/1 272/25/1
f 273/23/1 274/21/1 275/20/1 276/22/1
f 277/21/1 278/19/1 279/6/1 280/20/1
f 281/19/1 282/17/1 283/3/1 284/6/1
f 285/17/1 286/18/1 287/4/1 288/3/1
f 289/16/1 290/24/1 291/25/1 292/14/1
f 293/24/1 294/22/1 295/20/1 296/25/1
f 297/7/1 298/8/1 299/2/1 300/1/1
f 301/8/1 302/12/1 303/5/1 304/2/1
f 305/12/1 306/14/1 307/25/1 308/5/1
f 309/14/1 310/16/1 311/24/1 312/25/1
f 313/11/1 314/13/1 315/14/1 316/12/1
f 317/13/1 318/15/1 319/16/1 320/14/1
f 321/10/1 322/11/1 323/12/1 324/8/1
f 325/11/1 326/13/1 327/14/1 328/12/1
f 329/13/1 330/15/1 331/16/1 332/14/1
f 333/9/1 334/10/1 335/8/1 336/7/1
f 337/10/1 338/11/1 339/12/1 340/8/1
f 341/11/1 342/13/1 343/14/1 344/12/1
f 345/13/1 346/15/1 347/16/1 348/14/1
f 349/4/1 350/3/1 351/17/1 352/18/1
f 353/3/1 354/6/1 355/19/1 356/17/1
f 357/6/1 358/20/1 359/21/1 360/19/1
f 361/20/1 362/22/1 363/23/1 364/21/1
f 365/4/1 366/3/1 367/17/1 368/18/1
f 369/3/1 370/6/1 371/19/1 372/17/1
f 373/6/1 374/20/1 375/21/1 376/19/1
f 377/20/1 378/22/1 379/23/1 380/21/1
f 381/4/1 382/3/1 383/17/1 384/18/1
f 385/3/1 386/6/1 387/19/1 388/17/1
f 389/6/1 390/20/1 391/21/1 392/19/1
f 393/20/1 394/22/1 395/23/1 396/21/1
f 397/4/1 398/3/1 399/17/1 400/18/1
f 401/3/1 402/6/1 403/19/1 404/17/1
f 405/6/1 406/20/1 407/21/1 408/19/1

