# Tiled2Unity generated file. Do not modify by hand.
# Wavefront file for 'BM2._mesh_0206.obj'

# Vertices (Count = 256)
v 0 -8.32 0
v -0.64 -8.32 0
v -0.64 -7.68 0
v 0 -7.68 0
v -0.64 -8.32 0
v -1.28 -8.32 0
v -1.28 -7.68 0
v -0.64 -7.68 0
v -1.28 -8.32 0
v -1.92 -8.32 0
v -1.92 -7.68 0
v -1.28 -7.68 0
v -1.92 -8.32 0
v -2.56 -8.32 0
v -2.56 -7.68 0
v -1.92 -7.68 0
v -2.56 -8.32 0
v -3.2 -8.32 0
v -3.2 -7.68 0
v -2.56 -7.68 0
v -3.2 -8.32 0
v -3.84 -8.32 0
v -3.84 -7.68 0
v -3.2 -7.68 0
v -3.84 -8.32 0
v -4.48 -8.32 0
v -4.48 -7.68 0
v -3.84 -7.68 0
v -4.48 -8.32 0
v -5.12 -8.32 0
v -5.12 -7.68 0
v -4.48 -7.68 0
v -5.12 -8.32 0
v -5.76 -8.32 0
v -5.76 -7.68 0
v -5.12 -7.68 0
v -5.76 -8.32 0
v -6.4 -8.32 0
v -6.4 -7.68 0
v -5.76 -7.68 0
v -6.4 -8.32 0
v -7.04 -8.32 0
v -7.04 -7.68 0
v -6.4 -7.68 0
v -7.04 -8.32 0
v -7.68 -8.32 0
v -7.68 -7.68 0
v -7.04 -7.68 0
v -7.68 -8.32 0
v -8.32 -8.32 0
v -8.32 -7.68 0
v -7.68 -7.68 0
v -8.32 -8.32 0
v -8.96 -8.32 0
v -8.96 -7.68 0
v -8.32 -7.68 0
v -8.96 -8.32 0
v -9.599999 -8.32 0
v -9.599999 -7.68 0
v -8.96 -7.68 0
v -9.599999 -8.32 0
v -10.24 -8.32 0
v -10.24 -7.68 0
v -9.599999 -7.68 0
v 0 -8.96 0
v -0.64 -8.96 0
v -0.64 -8.32 0
v 0 -8.32 0
v -0.64 -8.96 0
v -1.28 -8.96 0
v -1.28 -8.32 0
v -0.64 -8.32 0
v -1.28 -8.96 0
v -1.92 -8.96 0
v -1.92 -8.32 0
v -1.28 -8.32 0
v -1.92 -8.96 0
v -2.56 -8.96 0
v -2.56 -8.32 0
v -1.92 -8.32 0
v -2.56 -8.96 0
v -3.2 -8.96 0
v -3.2 -8.32 0
v -2.56 -8.32 0
v -3.2 -8.96 0
v -3.84 -8.96 0
v -3.84 -8.32 0
v -3.2 -8.32 0
v -3.84 -8.96 0
v -4.48 -8.96 0
v -4.48 -8.32 0
v -3.84 -8.32 0
v -4.48 -8.96 0
v -5.12 -8.96 0
v -5.12 -8.32 0
v -4.48 -8.32 0
v -5.12 -8.96 0
v -5.76 -8.96 0
v -5.76 -8.32 0
v -5.12 -8.32 0
v -5.76 -8.96 0
v -6.4 -8.96 0
v -6.4 -8.32 0
v -5.76 -8.32 0
v -6.4 -8.96 0
v -7.04 -8.96 0
v -7.04 -8.32 0
v -6.4 -8.32 0
v -7.04 -8.96 0
v -7.68 -8.96 0
v -7.68 -8.32 0
v -7.04 -8.32 0
v -7.68 -8.96 0
v -8.32 -8.96 0
v -8.32 -8.32 0
v -7.68 -8.32 0
v -8.32 -8.96 0
v -8.96 -8.96 0
v -8.96 -8.32 0
v -8.32 -8.32 0
v -8.96 -8.96 0
v -9.599999 -8.96 0
v -9.599999 -8.32 0
v -8.96 -8.32 0
v -9.599999 -8.96 0
v -10.24 -8.96 0
v -10.24 -8.32 0
v -9.599999 -8.32 0
v 0 -9.599999 0
v -0.64 -9.599999 0
v -0.64 -8.96 0
v 0 -8.96 0
v -0.64 -9.599999 0
v -1.28 -9.599999 0
v -1.28 -8.96 0
v -0.64 -8.96 0
v -1.28 -9.599999 0
v -1.92 -9.599999 0
v -1.92 -8.96 0
v -1.28 -8.96 0
v -1.92 -9.599999 0
v -2.56 -9.599999 0
v -2.56 -8.96 0
v -1.92 -8.96 0
v -2.56 -9.599999 0
v -3.2 -9.599999 0
v -3.2 -8.96 0
v -2.56 -8.96 0
v -3.2 -9.599999 0
v -3.84 -9.599999 0
v -3.84 -8.96 0
v -3.2 -8.96 0
v -3.84 -9.599999 0
v -4.48 -9.599999 0
v -4.48 -8.96 0
v -3.84 -8.96 0
v -4.48 -9.599999 0
v -5.12 -9.599999 0
v -5.12 -8.96 0
v -4.48 -8.96 0
v -5.12 -9.599999 0
v -5.76 -9.599999 0
v -5.76 -8.96 0
v -5.12 -8.96 0
v -5.76 -9.599999 0
v -6.4 -9.599999 0
v -6.4 -8.96 0
v -5.76 -8.96 0
v -6.4 -9.599999 0
v -7.04 -9.599999 0
v -7.04 -8.96 0
v -6.4 -8.96 0
v -7.04 -9.599999 0
v -7.68 -9.599999 0
v -7.68 -8.96 0
v -7.04 -8.96 0
v -7.68 -9.599999 0
v -8.32 -9.599999 0
v -8.32 -8.96 0
v -7.68 -8.96 0
v -8.32 -9.599999 0
v -8.96 -9.599999 0
v -8.96 -8.96 0
v -8.32 -8.96 0
v -8.96 -9.599999 0
v -9.599999 -9.599999 0
v -9.599999 -8.96 0
v -8.96 -8.96 0
v -9.599999 -9.599999 0
v -10.24 -9.599999 0
v -10.24 -8.96 0
v -9.599999 -8.96 0
v 0 -10.24 0
v -0.64 -10.24 0
v -0.64 -9.599999 0
v 0 -9.599999 0
v -0.64 -10.24 0
v -1.28 -10.24 0
v -1.28 -9.599999 0
v -0.64 -9.599999 0
v -1.28 -10.24 0
v -1.92 -10.24 0
v -1.92 -9.599999 0
v -1.28 -9.599999 0
v -1.92 -10.24 0
v -2.56 -10.24 0
v -2.56 -9.599999 0
v -1.92 -9.599999 0
v -2.56 -10.24 0
v -3.2 -10.24 0
v -3.2 -9.599999 0
v -2.56 -9.599999 0
v -3.2 -10.24 0
v -3.84 -10.24 0
v -3.84 -9.599999 0
v -3.2 -9.599999 0
v -3.84 -10.24 0
v -4.48 -10.24 0
v -4.48 -9.599999 0
v -3.84 -9.599999 0
v -4.48 -10.24 0
v -5.12 -10.24 0
v -5.12 -9.599999 0
v -4.48 -9.599999 0
v -5.12 -10.24 0
v -5.76 -10.24 0
v -5.76 -9.599999 0
v -5.12 -9.599999 0
v -5.76 -10.24 0
v -6.4 -10.24 0
v -6.4 -9.599999 0
v -5.76 -9.599999 0
v -6.4 -10.24 0
v -7.04 -10.24 0
v -7.04 -9.599999 0
v -6.4 -9.599999 0
v -7.04 -10.24 0
v -7.68 -10.24 0
v -7.68 -9.599999 0
v -7.04 -9.599999 0
v -7.68 -10.24 0
v -8.32 -10.24 0
v -8.32 -9.599999 0
v -7.68 -9.599999 0
v -8.32 -10.24 0
v -8.96 -10.24 0
v -8.96 -9.599999 0
v -8.32 -9.599999 0
v -8.96 -10.24 0
v -9.599999 -10.24 0
v -9.599999 -9.599999 0
v -8.96 -9.599999 0
v -9.599999 -10.24 0
v -10.24 -10.24 0
v -10.24 -9.599999 0
v -9.599999 -9.599999 0

# Texture cooridinates (Count = 33)
vt 0.08 0.9736842
vt 0.1 0.9736842
vt 0.1 1
vt 0.08 1
vt 0.02 0.9736842
vt 0.04 0.9736842
vt 0.04 1
vt 0.02 1
vt 0.06 0.9736842
vt 0.06 1
vt 0.14 0.8684211
vt 0.16 0.8684211
vt 0.16 0.8947368
vt 0.14 0.8947368
vt 0.3 0.5789474
vt 0.3 0.6052631
vt 0.28 0.6052631
vt 0.28 0.5789474
vt 0.3 0.6315789
vt 0.28 0.6315789
vt 0.14 0.8421053
vt 0.16 0.8421053
vt 0.32 0.5789474
vt 0.32 0.6052631
vt 0.32 0.6315789
vt 0.04 0.8421053
vt 0.06 0.8421053
vt 0.06 0.8684211
vt 0.04 0.8684211
vt 0.08 0.8421053
vt 0.08 0.8684211
vt 0.1 0.8421053
vt 0.1 0.8684211

# Normal
vn 0 0 -1

# Mesh description
g BM2._mesh_0206

# Faces
f 1/1/1 2/2/1 3/3/1 4/4/1
f 5/5/1 6/6/1 7/7/1 8/8/1
f 9/6/1 10/9/1 11/10/1 12/7/1
f 13/9/1 14/1/1 15/4/1 16/10/1
f 17/1/1 18/2/1 19/3/1 20/4/1
f 21/5/1 22/6/1 23/7/1 24/8/1
f 25/6/1 26/9/1 27/10/1 28/7/1
f 29/9/1 30/1/1 31/4/1 32/10/1
f 33/1/1 34/2/1 35/3/1 36/4/1
f 37/5/1 38/6/1 39/7/1 40/8/1
f 41/6/1 42/9/1 43/10/1 44/7/1
f 45/9/1 46/1/1 47/4/1 48/10/1
f 49/1/1 50/2/1 51/3/1 52/4/1
f 53/5/1 54/6/1 55/7/1 56/8/1
f 57/6/1 58/9/1 59/10/1 60/7/1
f 61/9/1 62/1/1 63/4/1 64/10/1
f 65/11/1 66/12/1 67/13/1 68/14/1
f 69/15/1 70/16/1 71/17/1 72/18/1
f 73/16/1 74/19/1 75/20/1 76/17/1
f 77/15/1 78/16/1 79/17/1 80/18/1
f 81/16/1 82/19/1 83/20/1 84/17/1
f 85/15/1 86/16/1 87/17/1 88/18/1
f 89/16/1 90/19/1 91/20/1 92/17/1
f 93/15/1 94/16/1 95/17/1 96/18/1
f 97/16/1 98/19/1 99/20/1 100/17/1
f 101/15/1 102/16/1 103/17/1 104/18/1
f 105/16/1 106/19/1 107/20/1 108/17/1
f 109/15/1 110/16/1 111/17/1 112/18/1
f 113/16/1 114/19/1 115/20/1 116/17/1
f 117/15/1 118/16/1 119/17/1 120/18/1
f 121/16/1 122/19/1 123/20/1 124/17/1
f 125/15/1 126/16/1 127/17/1 128/18/1
f 129/21/1 130/22/1 131/12/1 132/11/1
f 133/23/1 134/24/1 135/16/1 136/15/1
f 137/24/1 138/25/1 139/19/1 140/16/1
f 141/23/1 142/24/1 143/16/1 144/15/1
f 145/24/1 146/25/1 147/19/1 148/16/1
f 149/23/1 150/24/1 151/16/1 152/15/1
f 153/24/1 154/25/1 155/19/1 156/16/1
f 157/23/1 158/24/1 159/16/1 160/15/1
f 161/24/1 162/25/1 163/19/1 164/16/1
f 165/23/1 166/24/1 167/16/1 168/15/1
f 169/24/1 170/25/1 171/19/1 172/16/1
f 173/23/1 174/24/1 175/16/1 176/15/1
f 177/24/1 178/25/1 179/19/1 180/16/1
f 181/23/1 182/24/1 183/16/1 184/15/1
f 185/24/1 186/25/1 187/19/1 188/16/1
f 189/23/1 190/24/1 191/16/1 192/15/1
f 193/26/1 194/27/1 195/28/1 196/29/1
f 197/27/1 198/30/1 199/31/1 200/28/1
f 201/30/1 202/32/1 203/33/1 204/31/1
f 205/26/1 206/27/1 207/28/1 208/29/1
f 209/27/1 210/30/1 211/31/1 212/28/1
f 213/30/1 214/32/1 215/33/1 216/31/1
f 217/26/1 218/27/1 219/28/1 220/29/1
f 221/27/1 222/30/1 223/31/1 224/28/1
f 225/30/1 226/32/1 227/33/1 228/31/1
f 229/26/1 230/27/1 231/28/1 232/29/1
f 233/27/1 234/30/1 235/31/1 236/28/1
f 237/30/1 238/32/1 239/33/1 240/31/1
f 241/26/1 242/27/1 243/28/1 244/29/1
f 245/27/1 246/30/1 247/31/1 248/28/1
f 249/30/1 250/32/1 251/33/1 252/31/1
f 253/26/1 254/27/1 255/28/1 256/29/1

