# Tiled2Unity generated file. Do not modify by hand.
# Wavefront file for 'BM2._mesh_0357.obj'

# Vertices (Count = 384)
v 0 -7.04 0
v -0.64 -7.04 0
v -0.64 -6.4 0
v 0 -6.4 0
v -0.64 -7.04 0
v -1.28 -7.04 0
v -1.28 -6.4 0
v -0.64 -6.4 0
v -1.28 -7.04 0
v -1.92 -7.04 0
v -1.92 -6.4 0
v -1.28 -6.4 0
v -1.92 -7.04 0
v -2.56 -7.04 0
v -2.56 -6.4 0
v -1.92 -6.4 0
v -2.56 -7.04 0
v -3.2 -7.04 0
v -3.2 -6.4 0
v -2.56 -6.4 0
v -3.2 -7.04 0
v -3.84 -7.04 0
v -3.84 -6.4 0
v -3.2 -6.4 0
v -3.84 -7.04 0
v -4.48 -7.04 0
v -4.48 -6.4 0
v -3.84 -6.4 0
v -4.48 -7.04 0
v -5.12 -7.04 0
v -5.12 -6.4 0
v -4.48 -6.4 0
v -5.12 -7.04 0
v -5.76 -7.04 0
v -5.76 -6.4 0
v -5.12 -6.4 0
v -5.76 -7.04 0
v -6.4 -7.04 0
v -6.4 -6.4 0
v -5.76 -6.4 0
v -6.4 -7.04 0
v -7.04 -7.04 0
v -7.04 -6.4 0
v -6.4 -6.4 0
v -7.04 -7.04 0
v -7.68 -7.04 0
v -7.68 -6.4 0
v -7.04 -6.4 0
v -7.68 -7.04 0
v -8.32 -7.04 0
v -8.32 -6.4 0
v -7.68 -6.4 0
v -8.32 -7.04 0
v -8.96 -7.04 0
v -8.96 -6.4 0
v -8.32 -6.4 0
v -8.96 -7.04 0
v -9.599999 -7.04 0
v -9.599999 -6.4 0
v -8.96 -6.4 0
v -9.599999 -7.04 0
v -10.24 -7.04 0
v -10.24 -6.4 0
v -9.599999 -6.4 0
v 0 -7.68 0
v -0.64 -7.68 0
v -0.64 -7.04 0
v 0 -7.04 0
v -0.64 -7.68 0
v -1.28 -7.68 0
v -1.28 -7.04 0
v -0.64 -7.04 0
v -1.28 -7.68 0
v -1.92 -7.68 0
v -1.92 -7.04 0
v -1.28 -7.04 0
v -1.92 -7.68 0
v -2.56 -7.68 0
v -2.56 -7.04 0
v -1.92 -7.04 0
v -2.56 -7.68 0
v -3.2 -7.68 0
v -3.2 -7.04 0
v -2.56 -7.04 0
v -3.2 -7.68 0
v -3.84 -7.68 0
v -3.84 -7.04 0
v -3.2 -7.04 0
v -3.84 -7.68 0
v -4.48 -7.68 0
v -4.48 -7.04 0
v -3.84 -7.04 0
v -4.48 -7.68 0
v -5.12 -7.68 0
v -5.12 -7.04 0
v -4.48 -7.04 0
v -5.12 -7.68 0
v -5.76 -7.68 0
v -5.76 -7.04 0
v -5.12 -7.04 0
v -5.76 -7.68 0
v -6.4 -7.68 0
v -6.4 -7.04 0
v -5.76 -7.04 0
v -6.4 -7.68 0
v -7.04 -7.68 0
v -7.04 -7.04 0
v -6.4 -7.04 0
v -7.04 -7.68 0
v -7.68 -7.68 0
v -7.68 -7.04 0
v -7.04 -7.04 0
v -7.68 -7.68 0
v -8.32 -7.68 0
v -8.32 -7.04 0
v -7.68 -7.04 0
v -8.32 -7.68 0
v -8.96 -7.68 0
v -8.96 -7.04 0
v -8.32 -7.04 0
v -8.96 -7.68 0
v -9.599999 -7.68 0
v -9.599999 -7.04 0
v -8.96 -7.04 0
v -9.599999 -7.68 0
v -10.24 -7.68 0
v -10.24 -7.04 0
v -9.599999 -7.04 0
v 0 -8.32 0
v -0.64 -8.32 0
v -0.64 -7.68 0
v 0 -7.68 0
v -0.64 -8.32 0
v -1.28 -8.32 0
v -1.28 -7.68 0
v -0.64 -7.68 0
v -1.28 -8.32 0
v -1.92 -8.32 0
v -1.92 -7.68 0
v -1.28 -7.68 0
v -1.92 -8.32 0
v -2.56 -8.32 0
v -2.56 -7.68 0
v -1.92 -7.68 0
v -2.56 -8.32 0
v -3.2 -8.32 0
v -3.2 -7.68 0
v -2.56 -7.68 0
v -3.2 -8.32 0
v -3.84 -8.32 0
v -3.84 -7.68 0
v -3.2 -7.68 0
v -3.84 -8.32 0
v -4.48 -8.32 0
v -4.48 -7.68 0
v -3.84 -7.68 0
v -4.48 -8.32 0
v -5.12 -8.32 0
v -5.12 -7.68 0
v -4.48 -7.68 0
v -5.12 -8.32 0
v -5.76 -8.32 0
v -5.76 -7.68 0
v -5.12 -7.68 0
v -5.76 -8.32 0
v -6.4 -8.32 0
v -6.4 -7.68 0
v -5.76 -7.68 0
v -6.4 -8.32 0
v -7.04 -8.32 0
v -7.04 -7.68 0
v -6.4 -7.68 0
v -7.04 -8.32 0
v -7.68 -8.32 0
v -7.68 -7.68 0
v -7.04 -7.68 0
v -7.68 -8.32 0
v -8.32 -8.32 0
v -8.32 -7.68 0
v -7.68 -7.68 0
v -8.32 -8.32 0
v -8.96 -8.32 0
v -8.96 -7.68 0
v -8.32 -7.68 0
v -8.96 -8.32 0
v -9.599999 -8.32 0
v -9.599999 -7.68 0
v -8.96 -7.68 0
v -9.599999 -8.32 0
v -10.24 -8.32 0
v -10.24 -7.68 0
v -9.599999 -7.68 0
v 0 -8.96 0
v -0.64 -8.96 0
v -0.64 -8.32 0
v 0 -8.32 0
v -0.64 -8.96 0
v -1.28 -8.96 0
v -1.28 -8.32 0
v -0.64 -8.32 0
v -1.28 -8.96 0
v -1.92 -8.96 0
v -1.92 -8.32 0
v -1.28 -8.32 0
v -1.92 -8.96 0
v -2.56 -8.96 0
v -2.56 -8.32 0
v -1.92 -8.32 0
v -2.56 -8.96 0
v -3.2 -8.96 0
v -3.2 -8.32 0
v -2.56 -8.32 0
v -3.2 -8.96 0
v -3.84 -8.96 0
v -3.84 -8.32 0
v -3.2 -8.32 0
v -3.84 -8.96 0
v -4.48 -8.96 0
v -4.48 -8.32 0
v -3.84 -8.32 0
v -4.48 -8.96 0
v -5.12 -8.96 0
v -5.12 -8.32 0
v -4.48 -8.32 0
v -5.12 -8.96 0
v -5.76 -8.96 0
v -5.76 -8.32 0
v -5.12 -8.32 0
v -5.76 -8.96 0
v -6.4 -8.96 0
v -6.4 -8.32 0
v -5.76 -8.32 0
v -6.4 -8.96 0
v -7.04 -8.96 0
v -7.04 -8.32 0
v -6.4 -8.32 0
v -7.04 -8.96 0
v -7.68 -8.96 0
v -7.68 -8.32 0
v -7.04 -8.32 0
v -7.68 -8.96 0
v -8.32 -8.96 0
v -8.32 -8.32 0
v -7.68 -8.32 0
v -8.32 -8.96 0
v -8.96 -8.96 0
v -8.96 -8.32 0
v -8.32 -8.32 0
v -8.96 -8.96 0
v -9.599999 -8.96 0
v -9.599999 -8.32 0
v -8.96 -8.32 0
v -9.599999 -8.96 0
v -10.24 -8.96 0
v -10.24 -8.32 0
v -9.599999 -8.32 0
v 0 -9.599999 0
v -0.64 -9.599999 0
v -0.64 -8.96 0
v 0 -8.96 0
v -0.64 -9.599999 0
v -1.28 -9.599999 0
v -1.28 -8.96 0
v -0.64 -8.96 0
v -1.28 -9.599999 0
v -1.92 -9.599999 0
v -1.92 -8.96 0
v -1.28 -8.96 0
v -1.92 -9.599999 0
v -2.56 -9.599999 0
v -2.56 -8.96 0
v -1.92 -8.96 0
v -2.56 -9.599999 0
v -3.2 -9.599999 0
v -3.2 -8.96 0
v -2.56 -8.96 0
v -3.2 -9.599999 0
v -3.84 -9.599999 0
v -3.84 -8.96 0
v -3.2 -8.96 0
v -3.84 -9.599999 0
v -4.48 -9.599999 0
v -4.48 -8.96 0
v -3.84 -8.96 0
v -4.48 -9.599999 0
v -5.12 -9.599999 0
v -5.12 -8.96 0
v -4.48 -8.96 0
v -5.12 -9.599999 0
v -5.76 -9.599999 0
v -5.76 -8.96 0
v -5.12 -8.96 0
v -5.76 -9.599999 0
v -6.4 -9.599999 0
v -6.4 -8.96 0
v -5.76 -8.96 0
v -6.4 -9.599999 0
v -7.04 -9.599999 0
v -7.04 -8.96 0
v -6.4 -8.96 0
v -7.04 -9.599999 0
v -7.68 -9.599999 0
v -7.68 -8.96 0
v -7.04 -8.96 0
v -7.68 -9.599999 0
v -8.32 -9.599999 0
v -8.32 -8.96 0
v -7.68 -8.96 0
v -8.32 -9.599999 0
v -8.96 -9.599999 0
v -8.96 -8.96 0
v -8.32 -8.96 0
v -8.96 -9.599999 0
v -9.599999 -9.599999 0
v -9.599999 -8.96 0
v -8.96 -8.96 0
v -9.599999 -9.599999 0
v -10.24 -9.599999 0
v -10.24 -8.96 0
v -9.599999 -8.96 0
v 0 -10.24 0
v -0.64 -10.24 0
v -0.64 -9.599999 0
v 0 -9.599999 0
v -0.64 -10.24 0
v -1.28 -10.24 0
v -1.28 -9.599999 0
v -0.64 -9.599999 0
v -1.28 -10.24 0
v -1.92 -10.24 0
v -1.92 -9.599999 0
v -1.28 -9.599999 0
v -1.92 -10.24 0
v -2.56 -10.24 0
v -2.56 -9.599999 0
v -1.92 -9.599999 0
v -2.56 -10.24 0
v -3.2 -10.24 0
v -3.2 -9.599999 0
v -2.56 -9.599999 0
v -3.2 -10.24 0
v -3.84 -10.24 0
v -3.84 -9.599999 0
v -3.2 -9.599999 0
v -3.84 -10.24 0
v -4.48 -10.24 0
v -4.48 -9.599999 0
v -3.84 -9.599999 0
v -4.48 -10.24 0
v -5.12 -10.24 0
v -5.12 -9.599999 0
v -4.48 -9.599999 0
v -5.12 -10.24 0
v -5.76 -10.24 0
v -5.76 -9.599999 0
v -5.12 -9.599999 0
v -5.76 -10.24 0
v -6.4 -10.24 0
v -6.4 -9.599999 0
v -5.76 -9.599999 0
v -6.4 -10.24 0
v -7.04 -10.24 0
v -7.04 -9.599999 0
v -6.4 -9.599999 0
v -7.04 -10.24 0
v -7.68 -10.24 0
v -7.68 -9.599999 0
v -7.04 -9.599999 0
v -7.68 -10.24 0
v -8.32 -10.24 0
v -8.32 -9.599999 0
v -7.68 -9.599999 0
v -8.32 -10.24 0
v -8.96 -10.24 0
v -8.96 -9.599999 0
v -8.32 -9.599999 0
v -8.96 -10.24 0
v -9.599999 -10.24 0
v -9.599999 -9.599999 0
v -8.96 -9.599999 0
v -9.599999 -10.24 0
v -10.24 -10.24 0
v -10.24 -9.599999 0
v -9.599999 -9.599999 0

# Texture cooridinates (Count = 62)
vt 0.04166667 0.5666667
vt 0.08333334 0.5666667
vt 0.08333334 0.6
vt 0.04166667 0.6
vt 0 0.5666667
vt 0 0.6
vt 0.125 0.5666667
vt 0.125 0.6
vt 0.1666667 0.5666667
vt 0.1666667 0.6
vt 0.2083333 0.5666667
vt 0.2083333 0.6
vt 0.25 0.5666667
vt 0.25 0.6
vt 0.2916667 0.5666667
vt 0.2916667 0.6
vt 0.3333333 0.5666667
vt 0.3333333 0.6
vt 0.2083333 0.4666666
vt 0.25 0.4666666
vt 0.25 0.5
vt 0.2083333 0.5
vt 0 0.5333333
vt 0.04166667 0.5333333
vt 0.08333334 0.5333333
vt 0.125 0.5333333
vt 0.1666667 0.5333333
vt 0.2083333 0.5333333
vt 0.25 0.5333333
vt 0.2916667 0.5333333
vt 0.3333333 0.5333333
vt 0.2083333 0.4333333
vt 0.25 0.4333333
vt 0.04166667 0.4333333
vt 0.08333334 0.4333333
vt 0.08333334 0.4666666
vt 0.04166667 0.4666666
vt 0 0.4333333
vt 0 0.4666666
vt 0 0.5
vt 0.04166667 0.5
vt 0.08333334 0.5
vt 0.125 0.5
vt 0.1666667 0.5
vt 0.2916667 0.5
vt 0.3333333 0.5
vt 0.04166667 0.4
vt 0.08333334 0.4
vt 0 0.4
vt 0.125 0.4666666
vt 0.1666667 0.4666666
vt 0.2916667 0.4666666
vt 0.3333333 0.4666666
vt 0.125 0.4333333
vt 0.1666667 0.4333333
vt 0.2916667 0.4333333
vt 0.3333333 0.4333333
vt 0.125 0.4
vt 0.1666667 0.4
vt 0.25 0.4
vt 0.2916667 0.4
vt 0.3333333 0.4

# Normal
vn 0 0 -1

# Mesh description
g BM2._mesh_0357

# Faces
f 1/1/1 2/2/1 3/3/1 4/4/1
f 5/5/1 6/1/1 7/4/1 8/6/1
f 9/1/1 10/2/1 11/3/1 12/4/1
f 13/5/1 14/1/1 15/4/1 16/6/1
f 17/1/1 18/2/1 19/3/1 20/4/1
f 21/5/1 22/1/1 23/4/1 24/6/1
f 25/1/1 26/2/1 27/3/1 28/4/1
f 29/5/1 30/1/1 31/4/1 32/6/1
f 33/2/1 34/7/1 35/8/1 36/3/1
f 37/7/1 38/9/1 39/10/1 40/8/1
f 41/9/1 42/11/1 43/12/1 44/10/1
f 45/11/1 46/13/1 47/14/1 48/12/1
f 49/13/1 50/15/1 51/16/1 52/14/1
f 53/15/1 54/17/1 55/18/1 56/16/1
f 57/1/1 58/2/1 59/3/1 60/4/1
f 61/5/1 62/1/1 63/4/1 64/6/1
f 65/19/1 66/20/1 67/21/1 68/22/1
f 69/23/1 70/24/1 71/1/1 72/5/1
f 73/24/1 74/25/1 75/2/1 76/1/1
f 77/23/1 78/24/1 79/1/1 80/5/1
f 81/24/1 82/25/1 83/2/1 84/1/1
f 85/23/1 86/24/1 87/1/1 88/5/1
f 89/24/1 90/25/1 91/2/1 92/1/1
f 93/23/1 94/24/1 95/1/1 96/5/1
f 97/25/1 98/26/1 99/7/1 100/2/1
f 101/26/1 102/27/1 103/9/1 104/7/1
f 105/27/1 106/28/1 107/11/1 108/9/1
f 109/28/1 110/29/1 111/13/1 112/11/1
f 113/29/1 114/30/1 115/15/1 116/13/1
f 117/30/1 118/31/1 119/17/1 120/15/1
f 121/24/1 122/25/1 123/2/1 124/1/1
f 125/23/1 126/24/1 127/1/1 128/5/1
f 129/32/1 130/33/1 131/20/1 132/19/1
f 133/34/1 134/35/1 135/36/1 136/37/1
f 137/38/1 138/34/1 139/37/1 140/39/1
f 141/40/1 142/41/1 143/24/1 144/23/1
f 145/41/1 146/42/1 147/25/1 148/24/1
f 149/34/1 150/35/1 151/36/1 152/37/1
f 153/38/1 154/34/1 155/37/1 156/39/1
f 157/34/1 158/35/1 159/36/1 160/37/1
f 161/42/1 162/43/1 163/26/1 164/25/1
f 165/43/1 166/44/1 167/27/1 168/26/1
f 169/44/1 170/22/1 171/28/1 172/27/1
f 173/22/1 174/21/1 175/29/1 176/28/1
f 177/21/1 178/45/1 179/30/1 180/29/1
f 181/45/1 182/46/1 183/31/1 184/30/1
f 185/38/1 186/34/1 187/37/1 188/39/1
f 189/34/1 190/35/1 191/36/1 192/37/1
f 193/19/1 194/20/1 195/21/1 196/22/1
f 197/47/1 198/48/1 199/35/1 200/34/1
f 201/49/1 202/47/1 203/34/1 204/38/1
f 205/39/1 206/37/1 207/41/1 208/40/1
f 209/37/1 210/36/1 211/42/1 212/41/1
f 213/47/1 214/48/1 215/35/1 216/34/1
f 217/49/1 218/47/1 219/34/1 220/38/1
f 221/47/1 222/48/1 223/35/1 224/34/1
f 225/36/1 226/50/1 227/43/1 228/42/1
f 229/50/1 230/51/1 231/44/1 232/43/1
f 233/51/1 234/19/1 235/22/1 236/44/1
f 237/19/1 238/20/1 239/21/1 240/22/1
f 241/20/1 242/52/1 243/45/1 244/21/1
f 245/52/1 246/53/1 247/46/1 248/45/1
f 249/49/1 250/47/1 251/34/1 252/38/1
f 253/47/1 254/48/1 255/35/1 256/34/1
f 257/32/1 258/33/1 259/20/1 260/19/1
f 261/38/1 262/34/1 263/37/1 264/39/1
f 265/34/1 266/35/1 267/36/1 268/37/1
f 269/38/1 270/34/1 271/37/1 272/39/1
f 273/34/1 274/35/1 275/36/1 276/37/1
f 277/38/1 278/34/1 279/37/1 280/39/1
f 281/34/1 282/35/1 283/36/1 284/37/1
f 285/38/1 286/34/1 287/37/1 288/39/1
f 289/35/1 290/54/1 291/50/1 292/36/1
f 293/54/1 294/55/1 295/51/1 296/50/1
f 297/55/1 298/32/1 299/19/1 300/51/1
f 301/32/1 302/33/1 303/20/1 304/19/1
f 305/33/1 306/56/1 307/52/1 308/20/1
f 309/56/1 310/57/1 311/53/1 312/52/1
f 313/34/1 314/35/1 315/36/1 316/37/1
f 317/38/1 318/34/1 319/37/1 320/39/1
f 321/19/1 322/20/1 323/21/1 324/22/1
f 325/49/1 326/47/1 327/34/1 328/38/1
f 329/47/1 330/48/1 331/35/1 332/34/1
f 333/49/1 334/47/1 335/34/1 336/38/1
f 337/47/1 338/48/1 339/35/1 340/34/1
f 341/49/1 342/47/1 343/34/1 344/38/1
f 345/47/1 346/48/1 347/35/1 348/34/1
f 349/49/1 350/47/1 351/34/1 352/38/1
f 353/48/1 354/58/1 355/54/1 356/35/1
f 357/58/1 358/59/1 359/55/1 360/54/1
f 361/51/1 362/19/1 363/22/1 364/44/1
f 365/19/1 366/20/1 367/21/1 368/22/1
f 369/60/1 370/61/1 371/56/1 372/33/1
f 373/61/1 374/62/1 375/57/1 376/56/1
f 377/47/1 378/48/1 379/35/1 380/34/1
f 381/49/1 382/47/1 383/34/1 384/38/1

