# Tiled2Unity generated file. Do not modify by hand.
# Wavefront file for 'BM2._mesh_0232.obj'

# Vertices (Count = 220)
v -7.04 -0.64 0
v -7.68 -0.64 0
v -7.68 0 0
v -7.04 0 0
v -7.68 -0.64 0
v -8.32 -0.64 0
v -8.32 0 0
v -7.68 0 0
v -8.32 -0.64 0
v -8.96 -0.64 0
v -8.96 0 0
v -8.32 0 0
v -8.96 -0.64 0
v -9.599999 -0.64 0
v -9.599999 0 0
v -8.96 0 0
v -9.599999 -0.64 0
v -10.24 -0.64 0
v -10.24 0 0
v -9.599999 0 0
v -7.04 -1.28 0
v -7.68 -1.28 0
v -7.68 -0.64 0
v -7.04 -0.64 0
v -7.68 -1.28 0
v -8.32 -1.28 0
v -8.32 -0.64 0
v -7.68 -0.64 0
v -8.32 -1.28 0
v -8.96 -1.28 0
v -8.96 -0.64 0
v -8.32 -0.64 0
v -8.96 -1.28 0
v -9.599999 -1.28 0
v -9.599999 -0.64 0
v -8.96 -0.64 0
v -9.599999 -1.28 0
v -10.24 -1.28 0
v -10.24 -0.64 0
v -9.599999 -0.64 0
v -7.04 -1.92 0
v -7.68 -1.92 0
v -7.68 -1.28 0
v -7.04 -1.28 0
v -7.68 -1.92 0
v -8.32 -1.92 0
v -8.32 -1.28 0
v -7.68 -1.28 0
v -8.32 -1.92 0
v -8.96 -1.92 0
v -8.96 -1.28 0
v -8.32 -1.28 0
v -8.96 -1.92 0
v -9.599999 -1.92 0
v -9.599999 -1.28 0
v -8.96 -1.28 0
v -9.599999 -1.92 0
v -10.24 -1.92 0
v -10.24 -1.28 0
v -9.599999 -1.28 0
v -7.04 -2.56 0
v -7.68 -2.56 0
v -7.68 -1.92 0
v -7.04 -1.92 0
v -7.68 -2.56 0
v -8.32 -2.56 0
v -8.32 -1.92 0
v -7.68 -1.92 0
v -8.32 -2.56 0
v -8.96 -2.56 0
v -8.96 -1.92 0
v -8.32 -1.92 0
v -8.96 -2.56 0
v -9.599999 -2.56 0
v -9.599999 -1.92 0
v -8.96 -1.92 0
v -9.599999 -2.56 0
v -10.24 -2.56 0
v -10.24 -1.92 0
v -9.599999 -1.92 0
v -7.04 -3.2 0
v -7.68 -3.2 0
v -7.68 -2.56 0
v -7.04 -2.56 0
v -7.68 -3.2 0
v -8.32 -3.2 0
v -8.32 -2.56 0
v -7.68 -2.56 0
v -8.32 -3.2 0
v -8.96 -3.2 0
v -8.96 -2.56 0
v -8.32 -2.56 0
v -8.96 -3.2 0
v -9.599999 -3.2 0
v -9.599999 -2.56 0
v -8.96 -2.56 0
v -9.599999 -3.2 0
v -10.24 -3.2 0
v -10.24 -2.56 0
v -9.599999 -2.56 0
v -7.04 -4.48 0
v -7.68 -4.48 0
v -7.68 -3.84 0
v -7.04 -3.84 0
v -7.68 -4.48 0
v -8.32 -4.48 0
v -8.32 -3.84 0
v -7.68 -3.84 0
v -8.32 -4.48 0
v -8.96 -4.48 0
v -8.96 -3.84 0
v -8.32 -3.84 0
v -8.96 -4.48 0
v -9.599999 -4.48 0
v -9.599999 -3.84 0
v -8.96 -3.84 0
v -9.599999 -4.48 0
v -10.24 -4.48 0
v -10.24 -3.84 0
v -9.599999 -3.84 0
v -7.04 -5.12 0
v -7.68 -5.12 0
v -7.68 -4.48 0
v -7.04 -4.48 0
v -7.68 -5.12 0
v -8.32 -5.12 0
v -8.32 -4.48 0
v -7.68 -4.48 0
v -8.32 -5.12 0
v -8.96 -5.12 0
v -8.96 -4.48 0
v -8.32 -4.48 0
v -8.96 -5.12 0
v -9.599999 -5.12 0
v -9.599999 -4.48 0
v -8.96 -4.48 0
v -9.599999 -5.12 0
v -10.24 -5.12 0
v -10.24 -4.48 0
v -9.599999 -4.48 0
v -7.04 -5.76 0
v -7.68 -5.76 0
v -7.68 -5.12 0
v -7.04 -5.12 0
v -7.68 -5.76 0
v -8.32 -5.76 0
v -8.32 -5.12 0
v -7.68 -5.12 0
v -8.32 -5.76 0
v -8.96 -5.76 0
v -8.96 -5.12 0
v -8.32 -5.12 0
v -8.96 -5.76 0
v -9.599999 -5.76 0
v -9.599999 -5.12 0
v -8.96 -5.12 0
v -9.599999 -5.76 0
v -10.24 -5.76 0
v -10.24 -5.12 0
v -9.599999 -5.12 0
v -7.04 -6.4 0
v -7.68 -6.4 0
v -7.68 -5.76 0
v -7.04 -5.76 0
v -7.68 -6.4 0
v -8.32 -6.4 0
v -8.32 -5.76 0
v -7.68 -5.76 0
v -8.32 -6.4 0
v -8.96 -6.4 0
v -8.96 -5.76 0
v -8.32 -5.76 0
v -8.96 -6.4 0
v -9.599999 -6.4 0
v -9.599999 -5.76 0
v -8.96 -5.76 0
v -9.599999 -6.4 0
v -10.24 -6.4 0
v -10.24 -5.76 0
v -9.599999 -5.76 0
v -7.04 -7.04 0
v -7.68 -7.04 0
v -7.68 -6.4 0
v -7.04 -6.4 0
v -7.68 -7.04 0
v -8.32 -7.04 0
v -8.32 -6.4 0
v -7.68 -6.4 0
v -8.32 -7.04 0
v -8.96 -7.04 0
v -8.96 -6.4 0
v -8.32 -6.4 0
v -8.96 -7.04 0
v -9.599999 -7.04 0
v -9.599999 -6.4 0
v -8.96 -6.4 0
v -9.599999 -7.04 0
v -10.24 -7.04 0
v -10.24 -6.4 0
v -9.599999 -6.4 0
v -7.04 -7.68 0
v -7.68 -7.68 0
v -7.68 -7.04 0
v -7.04 -7.04 0
v -7.68 -7.68 0
v -8.32 -7.68 0
v -8.32 -7.04 0
v -7.68 -7.04 0
v -8.32 -7.68 0
v -8.96 -7.68 0
v -8.96 -7.04 0
v -8.32 -7.04 0
v -8.96 -7.68 0
v -9.599999 -7.68 0
v -9.599999 -7.04 0
v -8.96 -7.04 0
v -9.599999 -7.68 0
v -10.24 -7.68 0
v -10.24 -7.04 0
v -9.599999 -7.04 0

# Texture cooridinates (Count = 42)
vt 0.5 0.3571429
vt 0.5833333 0.3571429
vt 0.5833333 0.4285714
vt 0.5 0.4285714
vt 0.6666667 0.3571429
vt 0.6666667 0.4285714
vt 0.75 0.3571429
vt 0.75 0.4285714
vt 0.8333333 0.3571429
vt 0.8333333 0.4285714
vt 0.9166667 0.3571429
vt 0.9166667 0.4285714
vt 0.5 0.2857143
vt 0.5833333 0.2857143
vt 0.6666667 0.2857143
vt 0.75 0.2857143
vt 0.8333333 0.2857143
vt 0.9166667 0.2857143
vt 0.5 0.2142857
vt 0.5833333 0.2142857
vt 0.6666667 0.2142857
vt 0.75 0.2142857
vt 0.8333333 0.2142857
vt 0.9166667 0.2142857
vt 0.5 0.1428571
vt 0.5833333 0.1428571
vt 0.6666667 0.1428571
vt 0.75 0.1428571
vt 0.8333333 0.1428571
vt 0.9166667 0.1428571
vt 0.5 0.0714286
vt 0.5833333 0.0714286
vt 0.6666667 0.0714286
vt 0.75 0.0714286
vt 0.8333333 0.0714286
vt 0.9166667 0.0714286
vt 0.5833333 0.5
vt 0.5 0.5
vt 0.6666667 0.5
vt 0.75 0.5
vt 0.8333333 0.5
vt 0.9166667 0.5

# Normal
vn 0 0 -1

# Mesh description
g BM2._mesh_0232

# Faces
f 1/1/1 2/2/1 3/3/1 4/4/1
f 5/2/1 6/5/1 7/6/1 8/3/1
f 9/5/1 10/7/1 11/8/1 12/6/1
f 13/7/1 14/9/1 15/10/1 16/8/1
f 17/9/1 18/11/1 19/12/1 20/10/1
f 21/13/1 22/14/1 23/2/1 24/1/1
f 25/14/1 26/15/1 27/5/1 28/2/1
f 29/15/1 30/16/1 31/7/1 32/5/1
f 33/16/1 34/17/1 35/9/1 36/7/1
f 37/17/1 38/18/1 39/11/1 40/9/1
f 41/19/1 42/20/1 43/14/1 44/13/1
f 45/20/1 46/21/1 47/15/1 48/14/1
f 49/21/1 50/22/1 51/16/1 52/15/1
f 53/22/1 54/23/1 55/17/1 56/16/1
f 57/23/1 58/24/1 59/18/1 60/17/1
f 61/25/1 62/26/1 63/20/1 64/19/1
f 65/26/1 66/27/1 67/21/1 68/20/1
f 69/27/1 70/28/1 71/22/1 72/21/1
f 73/28/1 74/29/1 75/23/1 76/22/1
f 77/29/1 78/30/1 79/24/1 80/23/1
f 81/31/1 82/32/1 83/26/1 84/25/1
f 85/32/1 86/33/1 87/27/1 88/26/1
f 89/33/1 90/34/1 91/28/1 92/27/1
f 93/34/1 94/35/1 95/29/1 96/28/1
f 97/35/1 98/36/1 99/30/1 100/29/1
f 101/4/1 102/3/1 103/37/1 104/38/1
f 105/3/1 106/6/1 107/39/1 108/37/1
f 109/6/1 110/8/1 111/40/1 112/39/1
f 113/8/1 114/10/1 115/41/1 116/40/1
f 117/10/1 118/12/1 119/42/1 120/41/1
f 121/1/1 122/2/1 123/3/1 124/4/1
f 125/2/1 126/5/1 127/6/1 128/3/1
f 129/5/1 130/7/1 131/8/1 132/6/1
f 133/7/1 134/9/1 135/10/1 136/8/1
f 137/9/1 138/11/1 139/12/1 140/10/1
f 141/13/1 142/14/1 143/2/1 144/1/1
f 145/14/1 146/15/1 147/5/1 148/2/1
f 149/15/1 150/16/1 151/7/1 152/5/1
f 153/16/1 154/17/1 155/9/1 156/7/1
f 157/17/1 158/18/1 159/11/1 160/9/1
f 161/19/1 162/20/1 163/14/1 164/13/1
f 165/20/1 166/21/1 167/15/1 168/14/1
f 169/21/1 170/22/1 171/16/1 172/15/1
f 173/22/1 174/23/1 175/17/1 176/16/1
f 177/23/1 178/24/1 179/18/1 180/17/1
f 181/25/1 182/26/1 183/20/1 184/19/1
f 185/26/1 186/27/1 187/21/1 188/20/1
f 189/27/1 190/28/1 191/22/1 192/21/1
f 193/28/1 194/29/1 195/23/1 196/22/1
f 197/29/1 198/30/1 199/24/1 200/23/1
f 201/31/1 202/32/1 203/26/1 204/25/1
f 205/32/1 206/33/1 207/27/1 208/26/1
f 209/33/1 210/34/1 211/28/1 212/27/1
f 213/34/1 214/35/1 215/29/1 216/28/1
f 217/35/1 218/36/1 219/30/1 220/29/1

