# Tiled2Unity generated file. Do not modify by hand.
# Wavefront file for 'BM2._mesh_0233.obj'

# Vertices (Count = 124)
v 0 -0.64 0
v -0.64 -0.64 0
v -0.64 0 0
v 0 0 0
v -8.96 -0.64 0
v -9.599999 -0.64 0
v -9.599999 0 0
v -8.96 0 0
v -9.599999 -0.64 0
v -10.24 -0.64 0
v -10.24 0 0
v -9.599999 0 0
v 0 -1.28 0
v -0.64 -1.28 0
v -0.64 -0.64 0
v 0 -0.64 0
v -8.96 -1.28 0
v -9.599999 -1.28 0
v -9.599999 -0.64 0
v -8.96 -0.64 0
v -9.599999 -1.28 0
v -10.24 -1.28 0
v -10.24 -0.64 0
v -9.599999 -0.64 0
v 0 -1.92 0
v -0.64 -1.92 0
v -0.64 -1.28 0
v 0 -1.28 0
v -8.96 -1.92 0
v -9.599999 -1.92 0
v -9.599999 -1.28 0
v -8.96 -1.28 0
v -9.599999 -1.92 0
v -10.24 -1.92 0
v -10.24 -1.28 0
v -9.599999 -1.28 0
v 0 -2.56 0
v -0.64 -2.56 0
v -0.64 -1.92 0
v 0 -1.92 0
v -8.96 -2.56 0
v -9.599999 -2.56 0
v -9.599999 -1.92 0
v -8.96 -1.92 0
v -9.599999 -2.56 0
v -10.24 -2.56 0
v -10.24 -1.92 0
v -9.599999 -1.92 0
v 0 -3.2 0
v -0.64 -3.2 0
v -0.64 -2.56 0
v 0 -2.56 0
v 0 -4.48 0
v -0.64 -4.48 0
v -0.64 -3.84 0
v 0 -3.84 0
v -8.96 -4.48 0
v -9.599999 -4.48 0
v -9.599999 -3.84 0
v -8.96 -3.84 0
v -9.599999 -4.48 0
v -10.24 -4.48 0
v -10.24 -3.84 0
v -9.599999 -3.84 0
v 0 -5.12 0
v -0.64 -5.12 0
v -0.64 -4.48 0
v 0 -4.48 0
v -8.96 -5.12 0
v -9.599999 -5.12 0
v -9.599999 -4.48 0
v -8.96 -4.48 0
v -9.599999 -5.12 0
v -10.24 -5.12 0
v -10.24 -4.48 0
v -9.599999 -4.48 0
v 0 -5.76 0
v -0.64 -5.76 0
v -0.64 -5.12 0
v 0 -5.12 0
v -8.96 -5.76 0
v -9.599999 -5.76 0
v -9.599999 -5.12 0
v -8.96 -5.12 0
v -9.599999 -5.76 0
v -10.24 -5.76 0
v -10.24 -5.12 0
v -9.599999 -5.12 0
v 0 -6.4 0
v -0.64 -6.4 0
v -0.64 -5.76 0
v 0 -5.76 0
v -8.96 -6.4 0
v -9.599999 -6.4 0
v -9.599999 -5.76 0
v -8.96 -5.76 0
v -9.599999 -6.4 0
v -10.24 -6.4 0
v -10.24 -5.76 0
v -9.599999 -5.76 0
v 0 -7.04 0
v -0.64 -7.04 0
v -0.64 -6.4 0
v 0 -6.4 0
v -8.96 -7.04 0
v -9.599999 -7.04 0
v -9.599999 -6.4 0
v -8.96 -6.4 0
v -9.599999 -7.04 0
v -10.24 -7.04 0
v -10.24 -6.4 0
v -9.599999 -6.4 0
v 0 -7.68 0
v -0.64 -7.68 0
v -0.64 -7.04 0
v 0 -7.04 0
v -8.96 -7.68 0
v -9.599999 -7.68 0
v -9.599999 -7.04 0
v -8.96 -7.04 0
v -9.599999 -7.68 0
v -10.24 -7.68 0
v -10.24 -7.04 0
v -9.599999 -7.04 0

# Texture cooridinates (Count = 35)
vt 0.9166667 0.3571429
vt 1 0.3571429
vt 1 0.4285714
vt 0.9166667 0.4285714
vt 0.5 0.7857143
vt 0.5833333 0.7857143
vt 0.5833333 0.8571429
vt 0.5 0.8571429
vt 0.6666667 0.7857143
vt 0.6666667 0.8571429
vt 0.9166667 0.2857143
vt 1 0.2857143
vt 0.5 0.7142857
vt 0.5833333 0.7142857
vt 0.6666667 0.7142857
vt 0.9166667 0.2142857
vt 1 0.2142857
vt 0.5 0.6428571
vt 0.5833333 0.6428571
vt 0.6666667 0.6428571
vt 0.9166667 0.1428571
vt 1 0.1428571
vt 0.5 0.5714285
vt 0.5833333 0.5714285
vt 0.6666667 0.5714285
vt 0.9166667 0.0714286
vt 1 0.0714286
vt 1 0.5
vt 0.9166667 0.5
vt 0.5 0.9285714
vt 0.5833333 0.9285714
vt 0.5833333 1
vt 0.5 1
vt 0.6666667 0.9285714
vt 0.6666667 1

# Normal
vn 0 0 -1

# Mesh description
g BM2._mesh_0233

# Faces
f 1/1/1 2/2/1 3/3/1 4/4/1
f 5/5/1 6/6/1 7/7/1 8/8/1
f 9/6/1 10/9/1 11/10/1 12/7/1
f 13/11/1 14/12/1 15/2/1 16/1/1
f 17/13/1 18/14/1 19/6/1 20/5/1
f 21/14/1 22/15/1 23/9/1 24/6/1
f 25/16/1 26/17/1 27/12/1 28/11/1
f 29/18/1 30/19/1 31/14/1 32/13/1
f 33/19/1 34/20/1 35/15/1 36/14/1
f 37/21/1 38/22/1 39/17/1 40/16/1
f 41/23/1 42/24/1 43/19/1 44/18/1
f 45/24/1 46/25/1 47/20/1 48/19/1
f 49/26/1 50/27/1 51/22/1 52/21/1
f 53/4/1 54/3/1 55/28/1 56/29/1
f 57/30/1 58/31/1 59/32/1 60/33/1
f 61/31/1 62/34/1 63/35/1 64/32/1
f 65/1/1 66/2/1 67/3/1 68/4/1
f 69/8/1 70/7/1 71/31/1 72/30/1
f 73/7/1 74/10/1 75/34/1 76/31/1
f 77/11/1 78/12/1 79/2/1 80/1/1
f 81/5/1 82/6/1 83/7/1 84/8/1
f 85/6/1 86/9/1 87/10/1 88/7/1
f 89/16/1 90/17/1 91/12/1 92/11/1
f 93/13/1 94/14/1 95/6/1 96/5/1
f 97/14/1 98/15/1 99/9/1 100/6/1
f 101/21/1 102/22/1 103/17/1 104/16/1
f 105/18/1 106/19/1 107/14/1 108/13/1
f 109/19/1 110/20/1 111/15/1 112/14/1
f 113/26/1 114/27/1 115/22/1 116/21/1
f 117/23/1 118/24/1 119/19/1 120/18/1
f 121/24/1 122/25/1 123/20/1 124/19/1

