# Tiled2Unity generated file. Do not modify by hand.
# Wavefront file for 'BM2._mesh_0134.obj'

# Vertices (Count = 16)
v -7.68 -5.12 0
v -8.32 -5.12 0
v -8.32 -4.48 0
v -7.68 -4.48 0
v -8.32 -5.12 0
v -8.96 -5.12 0
v -8.96 -4.48 0
v -8.32 -4.48 0
v -7.68 -5.76 0
v -8.32 -5.76 0
v -8.32 -5.12 0
v -7.68 -5.12 0
v -8.32 -5.76 0
v -8.96 -5.76 0
v -8.96 -5.12 0
v -8.32 -5.12 0

# Texture cooridinates (Count = 9)
vt 0.6666667 0.25
vt 0.8333333 0.25
vt 0.8333333 0.5
vt 0.6666667 0.5
vt 1 0.25
vt 1 0.5
vt 0.6666667 0
vt 0.8333333 0
vt 1 0

# Normal
vn 0 0 -1

# Mesh description
g BM2._mesh_0134

# Faces
f 1/1/1 2/2/1 3/3/1 4/4/1
f 5/2/1 6/5/1 7/6/1 8/3/1
f 9/7/1 10/8/1 11/2/1 12/1/1
f 13/8/1 14/9/1 15/5/1 16/2/1

