# Tiled2Unity generated file. Do not modify by hand.
# Wavefront file for 'BM2._mesh_0276.obj'

# Vertices (Count = 16)
v -7.04 -1.28 0
v -7.68 -1.28 0
v -7.68 -0.64 0
v -7.04 -0.64 0
v -7.68 -1.28 0
v -8.32 -1.28 0
v -8.32 -0.64 0
v -7.68 -0.64 0
v -8.32 -1.28 0
v -8.96 -1.28 0
v -8.96 -0.64 0
v -8.32 -0.64 0
v -8.96 -1.28 0
v -9.599999 -1.28 0
v -9.599999 -0.64 0
v -8.96 -0.64 0

# Texture cooridinates (Count = 4)
vt 0.2 0.5
vt 0.2 0.55
vt 0.15 0.55
vt 0.15 0.5

# Normal
vn 0 0 -1

# Mesh description
g BM2._mesh_0276

# Faces
f 1/1/1 2/2/1 3/3/1 4/4/1
f 5/1/1 6/2/1 7/3/1 8/4/1
f 9/1/1 10/2/1 11/3/1 12/4/1
f 13/1/1 14/2/1 15/3/1 16/4/1

