# Tiled2Unity generated file. Do not modify by hand.
# Wavefront file for 'BM2._mesh_0208.obj'

# Vertices (Count = 256)
v 0 -8.32 0
v -0.64 -8.32 0
v -0.64 -7.68 0
v 0 -7.68 0
v -0.64 -8.32 0
v -1.28 -8.32 0
v -1.28 -7.68 0
v -0.64 -7.68 0
v -1.28 -8.32 0
v -1.92 -8.32 0
v -1.92 -7.68 0
v -1.28 -7.68 0
v -1.92 -8.32 0
v -2.56 -8.32 0
v -2.56 -7.68 0
v -1.92 -7.68 0
v -2.56 -8.32 0
v -3.2 -8.32 0
v -3.2 -7.68 0
v -2.56 -7.68 0
v -3.2 -8.32 0
v -3.84 -8.32 0
v -3.84 -7.68 0
v -3.2 -7.68 0
v -3.84 -8.32 0
v -4.48 -8.32 0
v -4.48 -7.68 0
v -3.84 -7.68 0
v -4.48 -8.32 0
v -5.12 -8.32 0
v -5.12 -7.68 0
v -4.48 -7.68 0
v -5.12 -8.32 0
v -5.76 -8.32 0
v -5.76 -7.68 0
v -5.12 -7.68 0
v -5.76 -8.32 0
v -6.4 -8.32 0
v -6.4 -7.68 0
v -5.76 -7.68 0
v -6.4 -8.32 0
v -7.04 -8.32 0
v -7.04 -7.68 0
v -6.4 -7.68 0
v -7.04 -8.32 0
v -7.68 -8.32 0
v -7.68 -7.68 0
v -7.04 -7.68 0
v -7.68 -8.32 0
v -8.32 -8.32 0
v -8.32 -7.68 0
v -7.68 -7.68 0
v -8.32 -8.32 0
v -8.96 -8.32 0
v -8.96 -7.68 0
v -8.32 -7.68 0
v -8.96 -8.32 0
v -9.599999 -8.32 0
v -9.599999 -7.68 0
v -8.96 -7.68 0
v -9.599999 -8.32 0
v -10.24 -8.32 0
v -10.24 -7.68 0
v -9.599999 -7.68 0
v 0 -8.96 0
v -0.64 -8.96 0
v -0.64 -8.32 0
v 0 -8.32 0
v -0.64 -8.96 0
v -1.28 -8.96 0
v -1.28 -8.32 0
v -0.64 -8.32 0
v -1.28 -8.96 0
v -1.92 -8.96 0
v -1.92 -8.32 0
v -1.28 -8.32 0
v -1.92 -8.96 0
v -2.56 -8.96 0
v -2.56 -8.32 0
v -1.92 -8.32 0
v -2.56 -8.96 0
v -3.2 -8.96 0
v -3.2 -8.32 0
v -2.56 -8.32 0
v -3.2 -8.96 0
v -3.84 -8.96 0
v -3.84 -8.32 0
v -3.2 -8.32 0
v -3.84 -8.96 0
v -4.48 -8.96 0
v -4.48 -8.32 0
v -3.84 -8.32 0
v -4.48 -8.96 0
v -5.12 -8.96 0
v -5.12 -8.32 0
v -4.48 -8.32 0
v -5.12 -8.96 0
v -5.76 -8.96 0
v -5.76 -8.32 0
v -5.12 -8.32 0
v -5.76 -8.96 0
v -6.4 -8.96 0
v -6.4 -8.32 0
v -5.76 -8.32 0
v -6.4 -8.96 0
v -7.04 -8.96 0
v -7.04 -8.32 0
v -6.4 -8.32 0
v -7.04 -8.96 0
v -7.68 -8.96 0
v -7.68 -8.32 0
v -7.04 -8.32 0
v -7.68 -8.96 0
v -8.32 -8.96 0
v -8.32 -8.32 0
v -7.68 -8.32 0
v -8.32 -8.96 0
v -8.96 -8.96 0
v -8.96 -8.32 0
v -8.32 -8.32 0
v -8.96 -8.96 0
v -9.599999 -8.96 0
v -9.599999 -8.32 0
v -8.96 -8.32 0
v -9.599999 -8.96 0
v -10.24 -8.96 0
v -10.24 -8.32 0
v -9.599999 -8.32 0
v 0 -9.599999 0
v -0.64 -9.599999 0
v -0.64 -8.96 0
v 0 -8.96 0
v -0.64 -9.599999 0
v -1.28 -9.599999 0
v -1.28 -8.96 0
v -0.64 -8.96 0
v -1.28 -9.599999 0
v -1.92 -9.599999 0
v -1.92 -8.96 0
v -1.28 -8.96 0
v -1.92 -9.599999 0
v -2.56 -9.599999 0
v -2.56 -8.96 0
v -1.92 -8.96 0
v -2.56 -9.599999 0
v -3.2 -9.599999 0
v -3.2 -8.96 0
v -2.56 -8.96 0
v -3.2 -9.599999 0
v -3.84 -9.599999 0
v -3.84 -8.96 0
v -3.2 -8.96 0
v -3.84 -9.599999 0
v -4.48 -9.599999 0
v -4.48 -8.96 0
v -3.84 -8.96 0
v -4.48 -9.599999 0
v -5.12 -9.599999 0
v -5.12 -8.96 0
v -4.48 -8.96 0
v -5.12 -9.599999 0
v -5.76 -9.599999 0
v -5.76 -8.96 0
v -5.12 -8.96 0
v -5.76 -9.599999 0
v -6.4 -9.599999 0
v -6.4 -8.96 0
v -5.76 -8.96 0
v -6.4 -9.599999 0
v -7.04 -9.599999 0
v -7.04 -8.96 0
v -6.4 -8.96 0
v -7.04 -9.599999 0
v -7.68 -9.599999 0
v -7.68 -8.96 0
v -7.04 -8.96 0
v -7.68 -9.599999 0
v -8.32 -9.599999 0
v -8.32 -8.96 0
v -7.68 -8.96 0
v -8.32 -9.599999 0
v -8.96 -9.599999 0
v -8.96 -8.96 0
v -8.32 -8.96 0
v -8.96 -9.599999 0
v -9.599999 -9.599999 0
v -9.599999 -8.96 0
v -8.96 -8.96 0
v -9.599999 -9.599999 0
v -10.24 -9.599999 0
v -10.24 -8.96 0
v -9.599999 -8.96 0
v 0 -10.24 0
v -0.64 -10.24 0
v -0.64 -9.599999 0
v 0 -9.599999 0
v -0.64 -10.24 0
v -1.28 -10.24 0
v -1.28 -9.599999 0
v -0.64 -9.599999 0
v -1.28 -10.24 0
v -1.92 -10.24 0
v -1.92 -9.599999 0
v -1.28 -9.599999 0
v -1.92 -10.24 0
v -2.56 -10.24 0
v -2.56 -9.599999 0
v -1.92 -9.599999 0
v -2.56 -10.24 0
v -3.2 -10.24 0
v -3.2 -9.599999 0
v -2.56 -9.599999 0
v -3.2 -10.24 0
v -3.84 -10.24 0
v -3.84 -9.599999 0
v -3.2 -9.599999 0
v -3.84 -10.24 0
v -4.48 -10.24 0
v -4.48 -9.599999 0
v -3.84 -9.599999 0
v -4.48 -10.24 0
v -5.12 -10.24 0
v -5.12 -9.599999 0
v -4.48 -9.599999 0
v -5.12 -10.24 0
v -5.76 -10.24 0
v -5.76 -9.599999 0
v -5.12 -9.599999 0
v -5.76 -10.24 0
v -6.4 -10.24 0
v -6.4 -9.599999 0
v -5.76 -9.599999 0
v -6.4 -10.24 0
v -7.04 -10.24 0
v -7.04 -9.599999 0
v -6.4 -9.599999 0
v -7.04 -10.24 0
v -7.68 -10.24 0
v -7.68 -9.599999 0
v -7.04 -9.599999 0
v -7.68 -10.24 0
v -8.32 -10.24 0
v -8.32 -9.599999 0
v -7.68 -9.599999 0
v -8.32 -10.24 0
v -8.96 -10.24 0
v -8.96 -9.599999 0
v -8.32 -9.599999 0
v -8.96 -10.24 0
v -9.599999 -10.24 0
v -9.599999 -9.599999 0
v -8.96 -9.599999 0
v -9.599999 -10.24 0
v -10.24 -10.24 0
v -10.24 -9.599999 0
v -9.599999 -9.599999 0

# Texture cooridinates (Count = 27)
vt 0.08 0.9736842
vt 0.1 0.9736842
vt 0.1 1
vt 0.08 1
vt 0.02 0.9736842
vt 0.04 0.9736842
vt 0.04 1
vt 0.02 1
vt 0.06 0.9736842
vt 0.06 1
vt 0.3 0.6052631
vt 0.3 0.6315789
vt 0.28 0.6315789
vt 0.28 0.6052631
vt 0.3 0.5789474
vt 0.28 0.5789474
vt 0.32 0.6052631
vt 0.32 0.6315789
vt 0.32 0.5789474
vt 0.06 0.8421053
vt 0.08 0.8421053
vt 0.08 0.8684211
vt 0.06 0.8684211
vt 0.1 0.8421053
vt 0.1 0.8684211
vt 0.04 0.8421053
vt 0.04 0.8684211

# Normal
vn 0 0 -1

# Mesh description
g BM2._mesh_0208

# Faces
f 1/1/1 2/2/1 3/3/1 4/4/1
f 5/5/1 6/6/1 7/7/1 8/8/1
f 9/6/1 10/9/1 11/10/1 12/7/1
f 13/9/1 14/1/1 15/4/1 16/10/1
f 17/1/1 18/2/1 19/3/1 20/4/1
f 21/5/1 22/6/1 23/7/1 24/8/1
f 25/6/1 26/9/1 27/10/1 28/7/1
f 29/9/1 30/1/1 31/4/1 32/10/1
f 33/1/1 34/2/1 35/3/1 36/4/1
f 37/5/1 38/6/1 39/7/1 40/8/1
f 41/6/1 42/9/1 43/10/1 44/7/1
f 45/9/1 46/1/1 47/4/1 48/10/1
f 49/1/1 50/2/1 51/3/1 52/4/1
f 53/5/1 54/6/1 55/7/1 56/8/1
f 57/6/1 58/9/1 59/10/1 60/7/1
f 61/9/1 62/1/1 63/4/1 64/10/1
f 65/11/1 66/12/1 67/13/1 68/14/1
f 69/15/1 70/11/1 71/14/1 72/16/1
f 73/11/1 74/12/1 75/13/1 76/14/1
f 77/15/1 78/11/1 79/14/1 80/16/1
f 81/11/1 82/12/1 83/13/1 84/14/1
f 85/15/1 86/11/1 87/14/1 88/16/1
f 89/11/1 90/12/1 91/13/1 92/14/1
f 93/15/1 94/11/1 95/14/1 96/16/1
f 97/11/1 98/12/1 99/13/1 100/14/1
f 101/15/1 102/11/1 103/14/1 104/16/1
f 105/11/1 106/12/1 107/13/1 108/14/1
f 109/15/1 110/11/1 111/14/1 112/16/1
f 113/11/1 114/12/1 115/13/1 116/14/1
f 117/15/1 118/11/1 119/14/1 120/16/1
f 121/11/1 122/12/1 123/13/1 124/14/1
f 125/15/1 126/11/1 127/14/1 128/16/1
f 129/17/1 130/18/1 131/12/1 132/11/1
f 133/19/1 134/17/1 135/11/1 136/15/1
f 137/17/1 138/18/1 139/12/1 140/11/1
f 141/19/1 142/17/1 143/11/1 144/15/1
f 145/17/1 146/18/1 147/12/1 148/11/1
f 149/19/1 150/17/1 151/11/1 152/15/1
f 153/17/1 154/18/1 155/12/1 156/11/1
f 157/19/1 158/17/1 159/11/1 160/15/1
f 161/17/1 162/18/1 163/12/1 164/11/1
f 165/19/1 166/17/1 167/11/1 168/15/1
f 169/17/1 170/18/1 171/12/1 172/11/1
f 173/19/1 174/17/1 175/11/1 176/15/1
f 177/17/1 178/18/1 179/12/1 180/11/1
f 181/19/1 182/17/1 183/11/1 184/15/1
f 185/17/1 186/18/1 187/12/1 188/11/1
f 189/19/1 190/17/1 191/11/1 192/15/1
f 193/20/1 194/21/1 195/22/1 196/23/1
f 197/21/1 198/24/1 199/25/1 200/22/1
f 201/26/1 202/20/1 203/23/1 204/27/1
f 205/20/1 206/21/1 207/22/1 208/23/1
f 209/21/1 210/24/1 211/25/1 212/22/1
f 213/26/1 214/20/1 215/23/1 216/27/1
f 217/20/1 218/21/1 219/22/1 220/23/1
f 221/21/1 222/24/1 223/25/1 224/22/1
f 225/26/1 226/20/1 227/23/1 228/27/1
f 229/20/1 230/21/1 231/22/1 232/23/1
f 233/21/1 234/24/1 235/25/1 236/22/1
f 237/26/1 238/20/1 239/23/1 240/27/1
f 241/20/1 242/21/1 243/22/1 244/23/1
f 245/21/1 246/24/1 247/25/1 248/22/1
f 249/26/1 250/20/1 251/23/1 252/27/1
f 253/20/1 254/21/1 255/22/1 256/23/1

