# Tiled2Unity generated file. Do not modify by hand.
# Wavefront file for 'BM2._mesh_0107.obj'

# Vertices (Count = 260)
v -0.64 -0.64 0
v -1.28 -0.64 0
v -1.28 0 0
v -0.64 0 0
v -1.28 -0.64 0
v -1.92 -0.64 0
v -1.92 0 0
v -1.28 0 0
v -1.92 -0.64 0
v -2.56 -0.64 0
v -2.56 0 0
v -1.92 0 0
v -2.56 -0.64 0
v -3.2 -0.64 0
v -3.2 0 0
v -2.56 0 0
v -3.2 -0.64 0
v -3.84 -0.64 0
v -3.84 0 0
v -3.2 0 0
v -3.84 -0.64 0
v -4.48 -0.64 0
v -4.48 0 0
v -3.84 0 0
v -4.48 -0.64 0
v -5.12 -0.64 0
v -5.12 0 0
v -4.48 0 0
v -5.12 -0.64 0
v -5.76 -0.64 0
v -5.76 0 0
v -5.12 0 0
v -5.76 -0.64 0
v -6.4 -0.64 0
v -6.4 0 0
v -5.76 0 0
v -6.4 -0.64 0
v -7.04 -0.64 0
v -7.04 0 0
v -6.4 0 0
v -7.04 -0.64 0
v -7.68 -0.64 0
v -7.68 0 0
v -7.04 0 0
v -7.68 -0.64 0
v -8.32 -0.64 0
v -8.32 0 0
v -7.68 0 0
v -8.32 -0.64 0
v -8.96 -0.64 0
v -8.96 0 0
v -8.32 0 0
v -0.64 -1.28 0
v -1.28 -1.28 0
v -1.28 -0.64 0
v -0.64 -0.64 0
v -1.28 -1.28 0
v -1.92 -1.28 0
v -1.92 -0.64 0
v -1.28 -0.64 0
v -1.92 -1.28 0
v -2.56 -1.28 0
v -2.56 -0.64 0
v -1.92 -0.64 0
v -2.56 -1.28 0
v -3.2 -1.28 0
v -3.2 -0.64 0
v -2.56 -0.64 0
v -3.2 -1.28 0
v -3.84 -1.28 0
v -3.84 -0.64 0
v -3.2 -0.64 0
v -3.84 -1.28 0
v -4.48 -1.28 0
v -4.48 -0.64 0
v -3.84 -0.64 0
v -4.48 -1.28 0
v -5.12 -1.28 0
v -5.12 -0.64 0
v -4.48 -0.64 0
v -5.12 -1.28 0
v -5.76 -1.28 0
v -5.76 -0.64 0
v -5.12 -0.64 0
v -5.76 -1.28 0
v -6.4 -1.28 0
v -6.4 -0.64 0
v -5.76 -0.64 0
v -6.4 -1.28 0
v -7.04 -1.28 0
v -7.04 -0.64 0
v -6.4 -0.64 0
v -7.04 -1.28 0
v -7.68 -1.28 0
v -7.68 -0.64 0
v -7.04 -0.64 0
v -7.68 -1.28 0
v -8.32 -1.28 0
v -8.32 -0.64 0
v -7.68 -0.64 0
v -8.32 -1.28 0
v -8.96 -1.28 0
v -8.96 -0.64 0
v -8.32 -0.64 0
v -0.64 -1.92 0
v -1.28 -1.92 0
v -1.28 -1.28 0
v -0.64 -1.28 0
v -1.28 -1.92 0
v -1.92 -1.92 0
v -1.92 -1.28 0
v -1.28 -1.28 0
v -1.92 -1.92 0
v -2.56 -1.92 0
v -2.56 -1.28 0
v -1.92 -1.28 0
v -2.56 -1.92 0
v -3.2 -1.92 0
v -3.2 -1.28 0
v -2.56 -1.28 0
v -3.2 -1.92 0
v -3.84 -1.92 0
v -3.84 -1.28 0
v -3.2 -1.28 0
v -3.84 -1.92 0
v -4.48 -1.92 0
v -4.48 -1.28 0
v -3.84 -1.28 0
v -4.48 -1.92 0
v -5.12 -1.92 0
v -5.12 -1.28 0
v -4.48 -1.28 0
v -5.12 -1.92 0
v -5.76 -1.92 0
v -5.76 -1.28 0
v -5.12 -1.28 0
v -5.76 -1.92 0
v -6.4 -1.92 0
v -6.4 -1.28 0
v -5.76 -1.28 0
v -6.4 -1.92 0
v -7.04 -1.92 0
v -7.04 -1.28 0
v -6.4 -1.28 0
v -7.04 -1.92 0
v -7.68 -1.92 0
v -7.68 -1.28 0
v -7.04 -1.28 0
v -7.68 -1.92 0
v -8.32 -1.92 0
v -8.32 -1.28 0
v -7.68 -1.28 0
v -8.32 -1.92 0
v -8.96 -1.92 0
v -8.96 -1.28 0
v -8.32 -1.28 0
v -0.64 -2.56 0
v -1.28 -2.56 0
v -1.28 -1.92 0
v -0.64 -1.92 0
v -1.28 -2.56 0
v -1.92 -2.56 0
v -1.92 -1.92 0
v -1.28 -1.92 0
v -1.92 -2.56 0
v -2.56 -2.56 0
v -2.56 -1.92 0
v -1.92 -1.92 0
v -2.56 -2.56 0
v -3.2 -2.56 0
v -3.2 -1.92 0
v -2.56 -1.92 0
v -3.2 -2.56 0
v -3.84 -2.56 0
v -3.84 -1.92 0
v -3.2 -1.92 0
v -3.84 -2.56 0
v -4.48 -2.56 0
v -4.48 -1.92 0
v -3.84 -1.92 0
v -4.48 -2.56 0
v -5.12 -2.56 0
v -5.12 -1.92 0
v -4.48 -1.92 0
v -5.12 -2.56 0
v -5.76 -2.56 0
v -5.76 -1.92 0
v -5.12 -1.92 0
v -5.76 -2.56 0
v -6.4 -2.56 0
v -6.4 -1.92 0
v -5.76 -1.92 0
v -6.4 -2.56 0
v -7.04 -2.56 0
v -7.04 -1.92 0
v -6.4 -1.92 0
v -7.04 -2.56 0
v -7.68 -2.56 0
v -7.68 -1.92 0
v -7.04 -1.92 0
v -7.68 -2.56 0
v -8.32 -2.56 0
v -8.32 -1.92 0
v -7.68 -1.92 0
v -8.32 -2.56 0
v -8.96 -2.56 0
v -8.96 -1.92 0
v -8.32 -1.92 0
v -0.64 -3.2 0
v -1.28 -3.2 0
v -1.28 -2.56 0
v -0.64 -2.56 0
v -1.28 -3.2 0
v -1.92 -3.2 0
v -1.92 -2.56 0
v -1.28 -2.56 0
v -1.92 -3.2 0
v -2.56 -3.2 0
v -2.56 -2.56 0
v -1.92 -2.56 0
v -2.56 -3.2 0
v -3.2 -3.2 0
v -3.2 -2.56 0
v -2.56 -2.56 0
v -3.2 -3.2 0
v -3.84 -3.2 0
v -3.84 -2.56 0
v -3.2 -2.56 0
v -3.84 -3.2 0
v -4.48 -3.2 0
v -4.48 -2.56 0
v -3.84 -2.56 0
v -4.48 -3.2 0
v -5.12 -3.2 0
v -5.12 -2.56 0
v -4.48 -2.56 0
v -5.12 -3.2 0
v -5.76 -3.2 0
v -5.76 -2.56 0
v -5.12 -2.56 0
v -5.76 -3.2 0
v -6.4 -3.2 0
v -6.4 -2.56 0
v -5.76 -2.56 0
v -6.4 -3.2 0
v -7.04 -3.2 0
v -7.04 -2.56 0
v -6.4 -2.56 0
v -7.04 -3.2 0
v -7.68 -3.2 0
v -7.68 -2.56 0
v -7.04 -2.56 0
v -7.68 -3.2 0
v -8.32 -3.2 0
v -8.32 -2.56 0
v -7.68 -2.56 0
v -8.32 -3.2 0
v -8.96 -3.2 0
v -8.96 -2.56 0
v -8.32 -2.56 0

# Texture cooridinates (Count = 30)
vt 0 0.9
vt 0.05 0.9
vt 0.05 0.95
vt 0 0.95
vt 0.1 0.9
vt 0.1 0.95
vt 0.2 0.5
vt 0.25 0.5
vt 0.25 0.55
vt 0.2 0.55
vt 0.2 0.1
vt 0.2 0.15
vt 0.15 0.15
vt 0.15 0.1
vt 0.25 0.1
vt 0.25 0.15
vt 0.1 0.7
vt 0.15 0.7
vt 0.15 0.75
vt 0.1 0.75
vt 0.4 0.9
vt 0.45 0.9
vt 0.45 0.95
vt 0.4 0.95
vt 0.1 0.65
vt 0.15 0.65
vt 0.2 0.35
vt 0.25 0.35
vt 0.25 0.4
vt 0.2 0.4

# Normal
vn 0 0 -1

# Mesh description
g BM2._mesh_0107

# Faces
f 1/1/1 2/2/1 3/3/1 4/4/1
f 5/2/1 6/5/1 7/6/1 8/3/1
f 9/2/1 10/5/1 11/6/1 12/3/1
f 13/2/1 14/5/1 15/6/1 16/3/1
f 17/2/1 18/5/1 19/6/1 20/3/1
f 21/2/1 22/5/1 23/6/1 24/3/1
f 25/2/1 26/5/1 27/6/1 28/3/1
f 29/2/1 30/5/1 31/6/1 32/3/1
f 33/2/1 34/5/1 35/6/1 36/3/1
f 37/2/1 38/5/1 39/6/1 40/3/1
f 41/2/1 42/5/1 43/6/1 44/3/1
f 45/2/1 46/5/1 47/6/1 48/3/1
f 49/7/1 50/8/1 51/9/1 52/10/1
f 53/11/1 54/12/1 55/13/1 56/14/1
f 57/11/1 58/12/1 59/13/1 60/14/1
f 61/11/1 62/12/1 63/13/1 64/14/1
f 65/11/1 66/12/1 67/13/1 68/14/1
f 69/11/1 70/12/1 71/13/1 72/14/1
f 73/11/1 74/12/1 75/13/1 76/14/1
f 77/11/1 78/12/1 79/13/1 80/14/1
f 81/11/1 82/12/1 83/13/1 84/14/1
f 85/11/1 86/12/1 87/13/1 88/14/1
f 89/11/1 90/12/1 91/13/1 92/14/1
f 93/11/1 94/12/1 95/13/1 96/14/1
f 97/11/1 98/12/1 99/13/1 100/14/1
f 101/7/1 102/8/1 103/9/1 104/10/1
f 105/15/1 106/16/1 107/12/1 108/11/1
f 109/15/1 110/16/1 111/12/1 112/11/1
f 113/15/1 114/16/1 115/12/1 116/11/1
f 117/15/1 118/16/1 119/12/1 120/11/1
f 121/15/1 122/16/1 123/12/1 124/11/1
f 125/15/1 126/16/1 127/12/1 128/11/1
f 129/15/1 130/16/1 131/12/1 132/11/1
f 133/15/1 134/16/1 135/12/1 136/11/1
f 137/15/1 138/16/1 139/12/1 140/11/1
f 141/15/1 142/16/1 143/12/1 144/11/1
f 145/15/1 146/16/1 147/12/1 148/11/1
f 149/15/1 150/16/1 151/12/1 152/11/1
f 153/7/1 154/8/1 155/9/1 156/10/1
f 157/17/1 158/18/1 159/19/1 160/20/1
f 161/17/1 162/18/1 163/19/1 164/20/1
f 165/17/1 166/18/1 167/19/1 168/20/1
f 169/17/1 170/18/1 171/19/1 172/20/1
f 173/17/1 174/18/1 175/19/1 176/20/1
f 177/17/1 178/18/1 179/19/1 180/20/1
f 181/17/1 182/18/1 183/19/1 184/20/1
f 185/17/1 186/18/1 187/19/1 188/20/1
f 189/17/1 190/18/1 191/19/1 192/20/1
f 193/17/1 194/18/1 195/19/1 196/20/1
f 197/17/1 198/18/1 199/19/1 200/20/1
f 201/17/1 202/18/1 203/19/1 204/20/1
f 205/21/1 206/22/1 207/23/1 208/24/1
f 209/25/1 210/26/1 211/18/1 212/17/1
f 213/25/1 214/26/1 215/18/1 216/17/1
f 217/25/1 218/26/1 219/18/1 220/17/1
f 221/25/1 222/26/1 223/18/1 224/17/1
f 225/25/1 226/26/1 227/18/1 228/17/1
f 229/25/1 230/26/1 231/18/1 232/17/1
f 233/25/1 234/26/1 235/18/1 236/17/1
f 237/25/1 238/26/1 239/18/1 240/17/1
f 241/25/1 242/26/1 243/18/1 244/17/1
f 245/25/1 246/26/1 247/18/1 248/17/1
f 249/25/1 250/26/1 251/18/1 252/17/1
f 253/25/1 254/26/1 255/18/1 256/17/1
f 257/27/1 258/28/1 259/29/1 260/30/1

