# Tiled2Unity generated file. Do not modify by hand.
# Wavefront file for 'BM2._mesh_0291.obj'

# Vertices (Count = 16)
v -8.96 -1.92 0
v -9.599999 -1.92 0
v -9.599999 -1.28 0
v -8.96 -1.28 0
v -9.599999 -1.92 0
v -10.24 -1.92 0
v -10.24 -1.28 0
v -9.599999 -1.28 0
v -8.96 -2.56 0
v -9.599999 -2.56 0
v -9.599999 -1.92 0
v -8.96 -1.92 0
v -9.599999 -2.56 0
v -10.24 -2.56 0
v -10.24 -1.92 0
v -9.599999 -1.92 0

# Texture cooridinates (Count = 9)
vt 0.8125 0.84375
vt 0.84375 0.84375
vt 0.84375 0.875
vt 0.8125 0.875
vt 0.875 0.84375
vt 0.875 0.875
vt 0.8125 0.8125
vt 0.84375 0.8125
vt 0.875 0.8125

# Normal
vn 0 0 -1

# Mesh description
g BM2._mesh_0291

# Faces
f 1/1/1 2/2/1 3/3/1 4/4/1
f 5/2/1 6/5/1 7/6/1 8/3/1
f 9/7/1 10/8/1 11/2/1 12/1/1
f 13/8/1 14/9/1 15/5/1 16/2/1

