# Tiled2Unity generated file. Do not modify by hand.
# Wavefront file for 'BM2._mesh_0190.obj'

# Vertices (Count = 8)
v -5.12 -6.4 0
v -5.76 -6.4 0
v -5.76 -5.76 0
v -5.12 -5.76 0
v -5.76 -6.4 0
v -6.4 -6.4 0
v -6.4 -5.76 0
v -5.76 -5.76 0

# Texture cooridinates (Count = 6)
vt 0.6875 0.96875
vt 0.71875 0.96875
vt 0.71875 1
vt 0.6875 1
vt 0.75 0.96875
vt 0.75 1

# Normal
vn 0 0 -1

# Mesh description
g BM2._mesh_0190

# Faces
f 1/1/1 2/2/1 3/3/1 4/4/1
f 5/2/1 6/5/1 7/6/1 8/3/1

