# Tiled2Unity generated file. Do not modify by hand.
# Wavefront file for 'BM2._mesh_0355.obj'

# Vertices (Count = 184)
v -1.92 -0.64 0
v -2.56 -0.64 0
v -2.56 0 0
v -1.92 0 0
v -2.56 -0.64 0
v -3.2 -0.64 0
v -3.2 0 0
v -2.56 0 0
v -3.2 -0.64 0
v -3.84 -0.64 0
v -3.84 0 0
v -3.2 0 0
v -3.84 -0.64 0
v -4.48 -0.64 0
v -4.48 0 0
v -3.84 0 0
v -4.48 -0.64 0
v -5.12 -0.64 0
v -5.12 0 0
v -4.48 0 0
v -5.12 -0.64 0
v -5.76 -0.64 0
v -5.76 0 0
v -5.12 0 0
v -5.76 -0.64 0
v -6.4 -0.64 0
v -6.4 0 0
v -5.76 0 0
v -6.4 -0.64 0
v -7.04 -0.64 0
v -7.04 0 0
v -6.4 0 0
v -7.04 -0.64 0
v -7.68 -0.64 0
v -7.68 0 0
v -7.04 0 0
v -7.68 -0.64 0
v -8.32 -0.64 0
v -8.32 0 0
v -7.68 0 0
v -8.32 -0.64 0
v -8.96 -0.64 0
v -8.96 0 0
v -8.32 0 0
v -8.96 -0.64 0
v -9.599999 -0.64 0
v -9.599999 0 0
v -8.96 0 0
v -9.599999 -0.64 0
v -10.24 -0.64 0
v -10.24 0 0
v -9.599999 0 0
v -1.92 -1.28 0
v -2.56 -1.28 0
v -2.56 -0.64 0
v -1.92 -0.64 0
v -2.56 -1.28 0
v -3.2 -1.28 0
v -3.2 -0.64 0
v -2.56 -0.64 0
v -3.2 -1.28 0
v -3.84 -1.28 0
v -3.84 -0.64 0
v -3.2 -0.64 0
v -3.84 -1.28 0
v -4.48 -1.28 0
v -4.48 -0.64 0
v -3.84 -0.64 0
v -4.48 -1.28 0
v -5.12 -1.28 0
v -5.12 -0.64 0
v -4.48 -0.64 0
v -5.12 -1.28 0
v -5.76 -1.28 0
v -5.76 -0.64 0
v -5.12 -0.64 0
v -5.76 -1.28 0
v -6.4 -1.28 0
v -6.4 -0.64 0
v -5.76 -0.64 0
v -7.68 -1.28 0
v -8.32 -1.28 0
v -8.32 -0.64 0
v -7.68 -0.64 0
v -8.32 -1.28 0
v -8.96 -1.28 0
v -8.96 -0.64 0
v -8.32 -0.64 0
v -8.96 -1.28 0
v -9.599999 -1.28 0
v -9.599999 -0.64 0
v -8.96 -0.64 0
v -9.599999 -1.28 0
v -10.24 -1.28 0
v -10.24 -0.64 0
v -9.599999 -0.64 0
v -1.92 -1.92 0
v -2.56 -1.92 0
v -2.56 -1.28 0
v -1.92 -1.28 0
v -2.56 -1.92 0
v -3.2 -1.92 0
v -3.2 -1.28 0
v -2.56 -1.28 0
v -3.2 -1.92 0
v -3.84 -1.92 0
v -3.84 -1.28 0
v -3.2 -1.28 0
v -3.84 -1.92 0
v -4.48 -1.92 0
v -4.48 -1.28 0
v -3.84 -1.28 0
v -4.48 -1.92 0
v -5.12 -1.92 0
v -5.12 -1.28 0
v -4.48 -1.28 0
v -5.12 -1.92 0
v -5.76 -1.92 0
v -5.76 -1.28 0
v -5.12 -1.28 0
v -5.76 -1.92 0
v -6.4 -1.92 0
v -6.4 -1.28 0
v -5.76 -1.28 0
v -7.68 -1.92 0
v -8.32 -1.92 0
v -8.32 -1.28 0
v -7.68 -1.28 0
v -8.32 -1.92 0
v -8.96 -1.92 0
v -8.96 -1.28 0
v -8.32 -1.28 0
v -8.96 -1.92 0
v -9.599999 -1.92 0
v -9.599999 -1.28 0
v -8.96 -1.28 0
v -9.599999 -1.92 0
v -10.24 -1.92 0
v -10.24 -1.28 0
v -9.599999 -1.28 0
v -1.92 -2.56 0
v -2.56 -2.56 0
v -2.56 -1.92 0
v -1.92 -1.92 0
v -2.56 -2.56 0
v -3.2 -2.56 0
v -3.2 -1.92 0
v -2.56 -1.92 0
v -3.2 -2.56 0
v -3.84 -2.56 0
v -3.84 -1.92 0
v -3.2 -1.92 0
v -3.84 -2.56 0
v -4.48 -2.56 0
v -4.48 -1.92 0
v -3.84 -1.92 0
v -4.48 -2.56 0
v -5.12 -2.56 0
v -5.12 -1.92 0
v -4.48 -1.92 0
v -5.12 -2.56 0
v -5.76 -2.56 0
v -5.76 -1.92 0
v -5.12 -1.92 0
v -5.76 -2.56 0
v -6.4 -2.56 0
v -6.4 -1.92 0
v -5.76 -1.92 0
v -7.68 -2.56 0
v -8.32 -2.56 0
v -8.32 -1.92 0
v -7.68 -1.92 0
v -8.32 -2.56 0
v -8.96 -2.56 0
v -8.96 -1.92 0
v -8.32 -1.92 0
v -8.96 -2.56 0
v -9.599999 -2.56 0
v -9.599999 -1.92 0
v -8.96 -1.92 0
v -9.599999 -2.56 0
v -10.24 -2.56 0
v -10.24 -1.92 0
v -9.599999 -1.92 0

# Texture cooridinates (Count = 27)
vt 0 0.2857143
vt 0.05555556 0.2857143
vt 0.05555556 0.3571429
vt 0 0.3571429
vt 0.1111111 0.2857143
vt 0.1111111 0.3571429
vt 0 0.2142857
vt 0.05555556 0.2142857
vt 0.1111111 0.2142857
vt 0.1666667 0.2142857
vt 0.1666667 0.2857143
vt 0.2222222 0.2142857
vt 0.2222222 0.2857143
vt 0.2777778 0.2142857
vt 0.2777778 0.2857143
vt 0 0.1428571
vt 0.05555556 0.1428571
vt 0.1111111 0.1428571
vt 0.1666667 0.1428571
vt 0.2222222 0.1428571
vt 0.2777778 0.1428571
vt 0.1111111 0.0714286
vt 0.05555556 0.0714286
vt 0.05555556 0
vt 0.1111111 0
vt 0 0.0714286
vt 0 0

# Normal
vn 0 0 -1

# Mesh description
g BM2._mesh_0355

# Faces
f 1/1/1 2/2/1 3/3/1 4/4/1
f 5/2/1 6/5/1 7/6/1 8/3/1
f 9/7/1 10/8/1 11/2/1 12/1/1
f 13/8/1 14/9/1 15/5/1 16/2/1
f 17/9/1 18/10/1 19/11/1 20/5/1
f 21/10/1 22/12/1 23/13/1 24/11/1
f 25/9/1 26/10/1 27/11/1 28/5/1
f 29/10/1 30/12/1 31/13/1 32/11/1
f 33/9/1 34/10/1 35/11/1 36/5/1
f 37/10/1 38/12/1 39/13/1 40/11/1
f 41/9/1 42/10/1 43/11/1 44/5/1
f 45/10/1 46/12/1 47/13/1 48/11/1
f 49/12/1 50/14/1 51/15/1 52/13/1
f 53/1/1 54/2/1 55/3/1 56/4/1
f 57/2/1 58/5/1 59/6/1 60/3/1
f 61/16/1 62/17/1 63/8/1 64/7/1
f 65/17/1 66/18/1 67/9/1 68/8/1
f 69/18/1 70/19/1 71/10/1 72/9/1
f 73/19/1 74/20/1 75/12/1 76/10/1
f 77/18/1 78/19/1 79/10/1 80/9/1
f 81/19/1 82/20/1 83/12/1 84/10/1
f 85/18/1 86/19/1 87/10/1 88/9/1
f 89/19/1 90/20/1 91/12/1 92/10/1
f 93/20/1 94/21/1 95/14/1 96/12/1
f 97/22/1 98/23/1 99/24/1 100/25/1
f 101/23/1 102/26/1 103/27/1 104/24/1
f 105/9/1 106/10/1 107/11/1 108/5/1
f 109/10/1 110/12/1 111/13/1 112/11/1
f 113/9/1 114/10/1 115/11/1 116/5/1
f 117/9/1 118/10/1 119/11/1 120/5/1
f 121/10/1 122/12/1 123/13/1 124/11/1
f 125/9/1 126/10/1 127/11/1 128/5/1
f 129/10/1 130/12/1 131/13/1 132/11/1
f 133/9/1 134/10/1 135/11/1 136/5/1
f 137/9/1 138/10/1 139/11/1 140/5/1
f 141/18/1 142/17/1 143/23/1 144/22/1
f 145/17/1 146/16/1 147/26/1 148/23/1
f 149/18/1 150/19/1 151/10/1 152/9/1
f 153/19/1 154/20/1 155/12/1 156/10/1
f 157/18/1 158/19/1 159/10/1 160/9/1
f 161/18/1 162/19/1 163/10/1 164/9/1
f 165/19/1 166/20/1 167/12/1 168/10/1
f 169/18/1 170/19/1 171/10/1 172/9/1
f 173/19/1 174/20/1 175/12/1 176/10/1
f 177/18/1 178/19/1 179/10/1 180/9/1
f 181/18/1 182/19/1 183/10/1 184/9/1

