# Tiled2Unity generated file. Do not modify by hand.
# Wavefront file for 'BM2._mesh_0210.obj'

# Vertices (Count = 144)
v 0 -8.32 0
v -0.64 -8.32 0
v -0.64 -7.68 0
v 0 -7.68 0
v -0.64 -8.32 0
v -1.28 -8.32 0
v -1.28 -7.68 0
v -0.64 -7.68 0
v -1.28 -8.32 0
v -1.92 -8.32 0
v -1.92 -7.68 0
v -1.28 -7.68 0
v -1.92 -8.32 0
v -2.56 -8.32 0
v -2.56 -7.68 0
v -1.92 -7.68 0
v -2.56 -8.32 0
v -3.2 -8.32 0
v -3.2 -7.68 0
v -2.56 -7.68 0
v -3.2 -8.32 0
v -3.84 -8.32 0
v -3.84 -7.68 0
v -3.2 -7.68 0
v -3.84 -8.32 0
v -4.48 -8.32 0
v -4.48 -7.68 0
v -3.84 -7.68 0
v -4.48 -8.32 0
v -5.12 -8.32 0
v -5.12 -7.68 0
v -4.48 -7.68 0
v -5.12 -8.32 0
v -5.76 -8.32 0
v -5.76 -7.68 0
v -5.12 -7.68 0
v 0 -8.96 0
v -0.64 -8.96 0
v -0.64 -8.32 0
v 0 -8.32 0
v -0.64 -8.96 0
v -1.28 -8.96 0
v -1.28 -8.32 0
v -0.64 -8.32 0
v -1.28 -8.96 0
v -1.92 -8.96 0
v -1.92 -8.32 0
v -1.28 -8.32 0
v -1.92 -8.96 0
v -2.56 -8.96 0
v -2.56 -8.32 0
v -1.92 -8.32 0
v -2.56 -8.96 0
v -3.2 -8.96 0
v -3.2 -8.32 0
v -2.56 -8.32 0
v -3.2 -8.96 0
v -3.84 -8.96 0
v -3.84 -8.32 0
v -3.2 -8.32 0
v -3.84 -8.96 0
v -4.48 -8.96 0
v -4.48 -8.32 0
v -3.84 -8.32 0
v -4.48 -8.96 0
v -5.12 -8.96 0
v -5.12 -8.32 0
v -4.48 -8.32 0
v -5.12 -8.96 0
v -5.76 -8.96 0
v -5.76 -8.32 0
v -5.12 -8.32 0
v 0 -9.599999 0
v -0.64 -9.599999 0
v -0.64 -8.96 0
v 0 -8.96 0
v -0.64 -9.599999 0
v -1.28 -9.599999 0
v -1.28 -8.96 0
v -0.64 -8.96 0
v -1.28 -9.599999 0
v -1.92 -9.599999 0
v -1.92 -8.96 0
v -1.28 -8.96 0
v -1.92 -9.599999 0
v -2.56 -9.599999 0
v -2.56 -8.96 0
v -1.92 -8.96 0
v -2.56 -9.599999 0
v -3.2 -9.599999 0
v -3.2 -8.96 0
v -2.56 -8.96 0
v -3.2 -9.599999 0
v -3.84 -9.599999 0
v -3.84 -8.96 0
v -3.2 -8.96 0
v -3.84 -9.599999 0
v -4.48 -9.599999 0
v -4.48 -8.96 0
v -3.84 -8.96 0
v -4.48 -9.599999 0
v -5.12 -9.599999 0
v -5.12 -8.96 0
v -4.48 -8.96 0
v -5.12 -9.599999 0
v -5.76 -9.599999 0
v -5.76 -8.96 0
v -5.12 -8.96 0
v 0 -10.24 0
v -0.64 -10.24 0
v -0.64 -9.599999 0
v 0 -9.599999 0
v -0.64 -10.24 0
v -1.28 -10.24 0
v -1.28 -9.599999 0
v -0.64 -9.599999 0
v -1.28 -10.24 0
v -1.92 -10.24 0
v -1.92 -9.599999 0
v -1.28 -9.599999 0
v -1.92 -10.24 0
v -2.56 -10.24 0
v -2.56 -9.599999 0
v -1.92 -9.599999 0
v -2.56 -10.24 0
v -3.2 -10.24 0
v -3.2 -9.599999 0
v -2.56 -9.599999 0
v -3.2 -10.24 0
v -3.84 -10.24 0
v -3.84 -9.599999 0
v -3.2 -9.599999 0
v -3.84 -10.24 0
v -4.48 -10.24 0
v -4.48 -9.599999 0
v -3.84 -9.599999 0
v -4.48 -10.24 0
v -5.12 -10.24 0
v -5.12 -9.599999 0
v -4.48 -9.599999 0
v -5.12 -10.24 0
v -5.76 -10.24 0
v -5.76 -9.599999 0
v -5.12 -9.599999 0

# Texture cooridinates (Count = 27)
vt 0.08 0.9736842
vt 0.1 0.9736842
vt 0.1 1
vt 0.08 1
vt 0.02 0.9736842
vt 0.04 0.9736842
vt 0.04 1
vt 0.02 1
vt 0.06 0.9736842
vt 0.06 1
vt 0.3 0.6052631
vt 0.3 0.6315789
vt 0.28 0.6315789
vt 0.28 0.6052631
vt 0.3 0.5789474
vt 0.28 0.5789474
vt 0.32 0.6052631
vt 0.32 0.6315789
vt 0.32 0.5789474
vt 0.08 0.8421053
vt 0.1 0.8421053
vt 0.1 0.8684211
vt 0.08 0.8684211
vt 0.04 0.8421053
vt 0.06 0.8421053
vt 0.06 0.8684211
vt 0.04 0.8684211

# Normal
vn 0 0 -1

# Mesh description
g BM2._mesh_0210

# Faces
f 1/1/1 2/2/1 3/3/1 4/4/1
f 5/5/1 6/6/1 7/7/1 8/8/1
f 9/6/1 10/9/1 11/10/1 12/7/1
f 13/9/1 14/1/1 15/4/1 16/10/1
f 17/1/1 18/2/1 19/3/1 20/4/1
f 21/5/1 22/6/1 23/7/1 24/8/1
f 25/6/1 26/9/1 27/10/1 28/7/1
f 29/9/1 30/1/1 31/4/1 32/10/1
f 33/9/1 34/1/1 35/4/1 36/10/1
f 37/11/1 38/12/1 39/13/1 40/14/1
f 41/15/1 42/11/1 43/14/1 44/16/1
f 45/11/1 46/12/1 47/13/1 48/14/1
f 49/15/1 50/11/1 51/14/1 52/16/1
f 53/11/1 54/12/1 55/13/1 56/14/1
f 57/15/1 58/11/1 59/14/1 60/16/1
f 61/11/1 62/12/1 63/13/1 64/14/1
f 65/15/1 66/11/1 67/14/1 68/16/1
f 69/11/1 70/12/1 71/13/1 72/14/1
f 73/17/1 74/18/1 75/12/1 76/11/1
f 77/19/1 78/17/1 79/11/1 80/15/1
f 81/17/1 82/18/1 83/12/1 84/11/1
f 85/19/1 86/17/1 87/11/1 88/15/1
f 89/17/1 90/18/1 91/12/1 92/11/1
f 93/19/1 94/17/1 95/11/1 96/15/1
f 97/17/1 98/18/1 99/12/1 100/11/1
f 101/19/1 102/17/1 103/11/1 104/15/1
f 105/17/1 106/18/1 107/12/1 108/11/1
f 109/20/1 110/21/1 111/22/1 112/23/1
f 113/24/1 114/25/1 115/26/1 116/27/1
f 117/25/1 118/20/1 119/23/1 120/26/1
f 121/20/1 122/21/1 123/22/1 124/23/1
f 125/24/1 126/25/1 127/26/1 128/27/1
f 129/25/1 130/20/1 131/23/1 132/26/1
f 133/24/1 134/25/1 135/26/1 136/27/1
f 137/25/1 138/20/1 139/23/1 140/26/1
f 141/20/1 142/21/1 143/22/1 144/23/1

