# Tiled2Unity generated file. Do not modify by hand.
# Wavefront file for 'BM2._mesh_0398.obj'

# Vertices (Count = 16)
v -8.96 -6.4 0
v -9.599999 -6.4 0
v -9.599999 -5.76 0
v -8.96 -5.76 0
v -9.599999 -6.4 0
v -10.24 -6.4 0
v -10.24 -5.76 0
v -9.599999 -5.76 0
v -8.96 -7.04 0
v -9.599999 -7.04 0
v -9.599999 -6.4 0
v -8.96 -6.4 0
v -9.599999 -7.04 0
v -10.24 -7.04 0
v -10.24 -6.4 0
v -9.599999 -6.4 0

# Texture cooridinates (Count = 9)
vt 0 0.78125
vt 0.03125 0.78125
vt 0.03125 0.8125
vt 0 0.8125
vt 0.0625 0.78125
vt 0.0625 0.8125
vt 0 0.75
vt 0.03125 0.75
vt 0.0625 0.75

# Normal
vn 0 0 -1

# Mesh description
g BM2._mesh_0398

# Faces
f 1/1/1 2/2/1 3/3/1 4/4/1
f 5/2/1 6/5/1 7/6/1 8/3/1
f 9/7/1 10/8/1 11/2/1 12/1/1
f 13/8/1 14/9/1 15/5/1 16/2/1

