# Tiled2Unity generated file. Do not modify by hand.
# Wavefront file for 'BM2._mesh_0327.obj'

# Vertices (Count = 72)
v 0 -0.64 0
v -0.64 -0.64 0
v -0.64 0 0
v 0 0 0
v -0.64 -0.64 0
v -1.28 -0.64 0
v -1.28 0 0
v -0.64 0 0
v 0 -1.28 0
v -0.64 -1.28 0
v -0.64 -0.64 0
v 0 -0.64 0
v -0.64 -1.28 0
v -1.28 -1.28 0
v -1.28 -0.64 0
v -0.64 -0.64 0
v 0 -1.92 0
v -0.64 -1.92 0
v -0.64 -1.28 0
v 0 -1.28 0
v -0.64 -1.92 0
v -1.28 -1.92 0
v -1.28 -1.28 0
v -0.64 -1.28 0
v 0 -2.56 0
v -0.64 -2.56 0
v -0.64 -1.92 0
v 0 -1.92 0
v -0.64 -2.56 0
v -1.28 -2.56 0
v -1.28 -1.92 0
v -0.64 -1.92 0
v 0 -3.2 0
v -0.64 -3.2 0
v -0.64 -2.56 0
v 0 -2.56 0
v -0.64 -3.2 0
v -1.28 -3.2 0
v -1.28 -2.56 0
v -0.64 -2.56 0
v 0 -3.84 0
v -0.64 -3.84 0
v -0.64 -3.2 0
v 0 -3.2 0
v -0.64 -3.84 0
v -1.28 -3.84 0
v -1.28 -3.2 0
v -0.64 -3.2 0
v 0 -4.48 0
v -0.64 -4.48 0
v -0.64 -3.84 0
v 0 -3.84 0
v -0.64 -4.48 0
v -1.28 -4.48 0
v -1.28 -3.84 0
v -0.64 -3.84 0
v 0 -5.12 0
v -0.64 -5.12 0
v -0.64 -4.48 0
v 0 -4.48 0
v -0.64 -5.12 0
v -1.28 -5.12 0
v -1.28 -4.48 0
v -0.64 -4.48 0
v 0 -5.76 0
v -0.64 -5.76 0
v -0.64 -5.12 0
v 0 -5.12 0
v -0.64 -5.76 0
v -1.28 -5.76 0
v -1.28 -5.12 0
v -0.64 -5.12 0

# Texture cooridinates (Count = 15)
vt 0.125 0.90625
vt 0.15625 0.90625
vt 0.15625 0.9375
vt 0.125 0.9375
vt 0.1875 0.90625
vt 0.1875 0.9375
vt 0.125 0.875
vt 0.15625 0.875
vt 0.1875 0.875
vt 0.125 0.84375
vt 0.15625 0.84375
vt 0.1875 0.84375
vt 0.125 0.8125
vt 0.15625 0.8125
vt 0.1875 0.8125

# Normal
vn 0 0 -1

# Mesh description
g BM2._mesh_0327

# Faces
f 1/1/1 2/2/1 3/3/1 4/4/1
f 5/2/1 6/5/1 7/6/1 8/3/1
f 9/1/1 10/2/1 11/3/1 12/4/1
f 13/2/1 14/5/1 15/6/1 16/3/1
f 17/1/1 18/2/1 19/3/1 20/4/1
f 21/2/1 22/5/1 23/6/1 24/3/1
f 25/1/1 26/2/1 27/3/1 28/4/1
f 29/2/1 30/5/1 31/6/1 32/3/1
f 33/1/1 34/2/1 35/3/1 36/4/1
f 37/2/1 38/5/1 39/6/1 40/3/1
f 41/1/1 42/2/1 43/3/1 44/4/1
f 45/2/1 46/5/1 47/6/1 48/3/1
f 49/7/1 50/8/1 51/2/1 52/1/1
f 53/8/1 54/9/1 55/5/1 56/2/1
f 57/10/1 58/11/1 59/8/1 60/7/1
f 61/11/1 62/12/1 63/9/1 64/8/1
f 65/13/1 66/14/1 67/11/1 68/10/1
f 69/14/1 70/15/1 71/12/1 72/11/1

