# Tiled2Unity generated file. Do not modify by hand.
# Wavefront file for 'BM2._mesh_0263.obj'

# Vertices (Count = 16)
v 0 -0.64 0
v -0.64 -0.64 0
v -0.64 0 0
v 0 0 0
v -0.64 -0.64 0
v -1.28 -0.64 0
v -1.28 0 0
v -0.64 0 0
v 0 -1.28 0
v -0.64 -1.28 0
v -0.64 -0.64 0
v 0 -0.64 0
v -0.64 -1.28 0
v -1.28 -1.28 0
v -1.28 -0.64 0
v -0.64 -0.64 0

# Texture cooridinates (Count = 6)
vt 0.1 0.75
vt 0.1 0.7
vt 0.15 0.7
vt 0.15 0.75
vt 0.1 0.65
vt 0.15 0.65

# Normal
vn 0 0 -1

# Mesh description
g BM2._mesh_0263

# Faces
f 1/1/1 2/2/1 3/3/1 4/4/1
f 5/2/1 6/5/1 7/6/1 8/3/1
f 9/1/1 10/2/1 11/3/1 12/4/1
f 13/2/1 14/5/1 15/6/1 16/3/1

