# Tiled2Unity generated file. Do not modify by hand.
# Wavefront file for 'BM2._mesh_0162.obj'

# Vertices (Count = 56)
v 0 -9.599999 0
v -0.64 -9.599999 0
v -0.64 -8.96 0
v 0 -8.96 0
v -0.64 -9.599999 0
v -1.28 -9.599999 0
v -1.28 -8.96 0
v -0.64 -8.96 0
v -1.28 -9.599999 0
v -1.92 -9.599999 0
v -1.92 -8.96 0
v -1.28 -8.96 0
v -4.48 -9.599999 0
v -5.12 -9.599999 0
v -5.12 -8.96 0
v -4.48 -8.96 0
v -5.12 -9.599999 0
v -5.76 -9.599999 0
v -5.76 -8.96 0
v -5.12 -8.96 0
v -5.76 -9.599999 0
v -6.4 -9.599999 0
v -6.4 -8.96 0
v -5.76 -8.96 0
v -6.4 -9.599999 0
v -7.04 -9.599999 0
v -7.04 -8.96 0
v -6.4 -8.96 0
v 0 -10.24 0
v -0.64 -10.24 0
v -0.64 -9.599999 0
v 0 -9.599999 0
v -0.64 -10.24 0
v -1.28 -10.24 0
v -1.28 -9.599999 0
v -0.64 -9.599999 0
v -1.28 -10.24 0
v -1.92 -10.24 0
v -1.92 -9.599999 0
v -1.28 -9.599999 0
v -4.48 -10.24 0
v -5.12 -10.24 0
v -5.12 -9.599999 0
v -4.48 -9.599999 0
v -5.12 -10.24 0
v -5.76 -10.24 0
v -5.76 -9.599999 0
v -5.12 -9.599999 0
v -5.76 -10.24 0
v -6.4 -10.24 0
v -6.4 -9.599999 0
v -5.76 -9.599999 0
v -6.4 -10.24 0
v -7.04 -10.24 0
v -7.04 -9.599999 0
v -6.4 -9.599999 0

# Texture cooridinates (Count = 26)
vt 0.25 0.35
vt 0.3 0.35
vt 0.3 0.4
vt 0.25 0.4
vt 0.35 0.35
vt 0.35 0.4
vt 0.4 0.35
vt 0.4 0.4
vt 0.1 0.35
vt 0.15 0.35
vt 0.15 0.4
vt 0.1 0.4
vt 0.2 0.1
vt 0.25 0.1
vt 0.25 0.15
vt 0.2 0.15
vt 0.3 0.1
vt 0.3 0.15
vt 0.35 0.1
vt 0.4 0.1
vt 0.4 0.15
vt 0.35 0.15
vt 0.1 0.1
vt 0.15 0.1
vt 0.15 0.15
vt 0.1 0.15

# Normal
vn 0 0 -1

# Mesh description
g BM2._mesh_0162

# Faces
f 1/1/1 2/2/1 3/3/1 4/4/1
f 5/2/1 6/5/1 7/6/1 8/3/1
f 9/5/1 10/7/1 11/8/1 12/6/1
f 13/9/1 14/10/1 15/11/1 16/12/1
f 17/1/1 18/2/1 19/3/1 20/4/1
f 21/2/1 22/5/1 23/6/1 24/3/1
f 25/5/1 26/7/1 27/8/1 28/6/1
f 29/13/1 30/14/1 31/15/1 32/16/1
f 33/14/1 34/17/1 35/18/1 36/15/1
f 37/19/1 38/20/1 39/21/1 40/22/1
f 41/23/1 42/24/1 43/25/1 44/26/1
f 45/13/1 46/14/1 47/15/1 48/16/1
f 49/14/1 50/17/1 51/18/1 52/15/1
f 53/19/1 54/20/1 55/21/1 56/22/1

