# Tiled2Unity generated file. Do not modify by hand.
# Wavefront file for 'BM2._mesh_0350.obj'

# Vertices (Count = 120)
v 0 -4.48 0
v -0.64 -4.48 0
v -0.64 -3.84 0
v 0 -3.84 0
v -0.64 -4.48 0
v -1.28 -4.48 0
v -1.28 -3.84 0
v -0.64 -3.84 0
v -1.28 -4.48 0
v -1.92 -4.48 0
v -1.92 -3.84 0
v -1.28 -3.84 0
v -1.92 -4.48 0
v -2.56 -4.48 0
v -2.56 -3.84 0
v -1.92 -3.84 0
v -2.56 -4.48 0
v -3.2 -4.48 0
v -3.2 -3.84 0
v -2.56 -3.84 0
v -3.2 -4.48 0
v -3.84 -4.48 0
v -3.84 -3.84 0
v -3.2 -3.84 0
v -3.84 -4.48 0
v -4.48 -4.48 0
v -4.48 -3.84 0
v -3.84 -3.84 0
v 0 -5.12 0
v -0.64 -5.12 0
v -0.64 -4.48 0
v 0 -4.48 0
v -0.64 -5.12 0
v -1.28 -5.12 0
v -1.28 -4.48 0
v -0.64 -4.48 0
v -1.28 -5.12 0
v -1.92 -5.12 0
v -1.92 -4.48 0
v -1.28 -4.48 0
v -1.92 -5.12 0
v -2.56 -5.12 0
v -2.56 -4.48 0
v -1.92 -4.48 0
v -2.56 -5.12 0
v -3.2 -5.12 0
v -3.2 -4.48 0
v -2.56 -4.48 0
v -3.2 -5.12 0
v -3.84 -5.12 0
v -3.84 -4.48 0
v -3.2 -4.48 0
v -3.84 -5.12 0
v -4.48 -5.12 0
v -4.48 -4.48 0
v -3.84 -4.48 0
v -3.2 -5.76 0
v -3.84 -5.76 0
v -3.84 -5.12 0
v -3.2 -5.12 0
v -3.84 -5.76 0
v -4.48 -5.76 0
v -4.48 -5.12 0
v -3.84 -5.12 0
v -3.2 -6.4 0
v -3.84 -6.4 0
v -3.84 -5.76 0
v -3.2 -5.76 0
v -3.84 -6.4 0
v -4.48 -6.4 0
v -4.48 -5.76 0
v -3.84 -5.76 0
v -3.2 -7.04 0
v -3.84 -7.04 0
v -3.84 -6.4 0
v -3.2 -6.4 0
v -3.84 -7.04 0
v -4.48 -7.04 0
v -4.48 -6.4 0
v -3.84 -6.4 0
v -3.2 -7.68 0
v -3.84 -7.68 0
v -3.84 -7.04 0
v -3.2 -7.04 0
v -3.84 -7.68 0
v -4.48 -7.68 0
v -4.48 -7.04 0
v -3.84 -7.04 0
v -3.2 -8.32 0
v -3.84 -8.32 0
v -3.84 -7.68 0
v -3.2 -7.68 0
v -3.84 -8.32 0
v -4.48 -8.32 0
v -4.48 -7.68 0
v -3.84 -7.68 0
v -3.2 -8.96 0
v -3.84 -8.96 0
v -3.84 -8.32 0
v -3.2 -8.32 0
v -3.84 -8.96 0
v -4.48 -8.96 0
v -4.48 -8.32 0
v -3.84 -8.32 0
v -3.2 -9.599999 0
v -3.84 -9.599999 0
v -3.84 -8.96 0
v -3.2 -8.96 0
v -3.84 -9.599999 0
v -4.48 -9.599999 0
v -4.48 -8.96 0
v -3.84 -8.96 0
v -3.2 -10.24 0
v -3.84 -10.24 0
v -3.84 -9.599999 0
v -3.2 -9.599999 0
v -3.84 -10.24 0
v -4.48 -10.24 0
v -4.48 -9.599999 0
v -3.84 -9.599999 0

# Texture cooridinates (Count = 9)
vt 0.3333333 0.5
vt 0.5 0.5
vt 0.5 0.5833334
vt 0.3333333 0.5833334
vt 0.6666667 0.5
vt 0.6666667 0.5833334
vt 0.3333333 0.4166667
vt 0.5 0.4166667
vt 0.6666667 0.4166667

# Normal
vn 0 0 -1

# Mesh description
g BM2._mesh_0350

# Faces
f 1/1/1 2/2/1 3/3/1 4/4/1
f 5/1/1 6/2/1 7/3/1 8/4/1
f 9/1/1 10/2/1 11/3/1 12/4/1
f 13/1/1 14/2/1 15/3/1 16/4/1
f 17/1/1 18/2/1 19/3/1 20/4/1
f 21/1/1 22/2/1 23/3/1 24/4/1
f 25/2/1 26/5/1 27/6/1 28/3/1
f 29/7/1 30/8/1 31/2/1 32/1/1
f 33/7/1 34/8/1 35/2/1 36/1/1
f 37/7/1 38/8/1 39/2/1 40/1/1
f 41/7/1 42/8/1 43/2/1 44/1/1
f 45/7/1 46/8/1 47/2/1 48/1/1
f 49/7/1 50/8/1 51/2/1 52/1/1
f 53/8/1 54/9/1 55/5/1 56/2/1
f 57/7/1 58/8/1 59/2/1 60/1/1
f 61/8/1 62/9/1 63/5/1 64/2/1
f 65/7/1 66/8/1 67/2/1 68/1/1
f 69/8/1 70/9/1 71/5/1 72/2/1
f 73/7/1 74/8/1 75/2/1 76/1/1
f 77/8/1 78/9/1 79/5/1 80/2/1
f 81/7/1 82/8/1 83/2/1 84/1/1
f 85/8/1 86/9/1 87/5/1 88/2/1
f 89/7/1 90/8/1 91/2/1 92/1/1
f 93/8/1 94/9/1 95/5/1 96/2/1
f 97/7/1 98/8/1 99/2/1 100/1/1
f 101/8/1 102/9/1 103/5/1 104/2/1
f 105/7/1 106/8/1 107/2/1 108/1/1
f 109/8/1 110/9/1 111/5/1 112/2/1
f 113/7/1 114/8/1 115/2/1 116/1/1
f 117/8/1 118/9/1 119/5/1 120/2/1

