# Tiled2Unity generated file. Do not modify by hand.
# Wavefront file for 'BM2._mesh_0127.obj'

# Vertices (Count = 96)
v 0 -3.2 0
v -0.64 -3.2 0
v -0.64 -2.56 0
v 0 -2.56 0
v -3.2 -3.2 0
v -3.84 -3.2 0
v -3.84 -2.56 0
v -3.2 -2.56 0
v -3.84 -3.2 0
v -4.48 -3.2 0
v -4.48 -2.56 0
v -3.84 -2.56 0
v -4.48 -3.2 0
v -5.12 -3.2 0
v -5.12 -2.56 0
v -4.48 -2.56 0
v -5.12 -3.2 0
v -5.76 -3.2 0
v -5.76 -2.56 0
v -5.12 -2.56 0
v -5.76 -3.2 0
v -6.4 -3.2 0
v -6.4 -2.56 0
v -5.76 -2.56 0
v -6.4 -3.2 0
v -7.04 -3.2 0
v -7.04 -2.56 0
v -6.4 -2.56 0
v -7.04 -3.2 0
v -7.68 -3.2 0
v -7.68 -2.56 0
v -7.04 -2.56 0
v -7.68 -3.2 0
v -8.32 -3.2 0
v -8.32 -2.56 0
v -7.68 -2.56 0
v -8.32 -3.2 0
v -8.96 -3.2 0
v -8.96 -2.56 0
v -8.32 -2.56 0
v -8.96 -3.2 0
v -9.599999 -3.2 0
v -9.599999 -2.56 0
v -8.96 -2.56 0
v -9.599999 -3.2 0
v -10.24 -3.2 0
v -10.24 -2.56 0
v -9.599999 -2.56 0
v 0 -3.84 0
v -0.64 -3.84 0
v -0.64 -3.2 0
v 0 -3.2 0
v -3.2 -3.84 0
v -3.84 -3.84 0
v -3.84 -3.2 0
v -3.2 -3.2 0
v -3.84 -3.84 0
v -4.48 -3.84 0
v -4.48 -3.2 0
v -3.84 -3.2 0
v -4.48 -3.84 0
v -5.12 -3.84 0
v -5.12 -3.2 0
v -4.48 -3.2 0
v -5.12 -3.84 0
v -5.76 -3.84 0
v -5.76 -3.2 0
v -5.12 -3.2 0
v -5.76 -3.84 0
v -6.4 -3.84 0
v -6.4 -3.2 0
v -5.76 -3.2 0
v -6.4 -3.84 0
v -7.04 -3.84 0
v -7.04 -3.2 0
v -6.4 -3.2 0
v -7.04 -3.84 0
v -7.68 -3.84 0
v -7.68 -3.2 0
v -7.04 -3.2 0
v -7.68 -3.84 0
v -8.32 -3.84 0
v -8.32 -3.2 0
v -7.68 -3.2 0
v -8.32 -3.84 0
v -8.96 -3.84 0
v -8.96 -3.2 0
v -8.32 -3.2 0
v -8.96 -3.84 0
v -9.599999 -3.84 0
v -9.599999 -3.2 0
v -8.96 -3.2 0
v -9.599999 -3.84 0
v -10.24 -3.84 0
v -10.24 -3.2 0
v -9.599999 -3.2 0

# Texture cooridinates (Count = 9)
vt 0.2083333 0.7666667
vt 0.25 0.7666667
vt 0.25 0.8
vt 0.2083333 0.8
vt 0.1666667 0.7666667
vt 0.1666667 0.8
vt 0.2083333 0.7333333
vt 0.25 0.7333333
vt 0.1666667 0.7333333

# Normal
vn 0 0 -1

# Mesh description
g BM2._mesh_0127

# Faces
f 1/1/1 2/2/1 3/3/1 4/4/1
f 5/5/1 6/1/1 7/4/1 8/6/1
f 9/1/1 10/2/1 11/3/1 12/4/1
f 13/5/1 14/1/1 15/4/1 16/6/1
f 17/1/1 18/2/1 19/3/1 20/4/1
f 21/5/1 22/1/1 23/4/1 24/6/1
f 25/1/1 26/2/1 27/3/1 28/4/1
f 29/5/1 30/1/1 31/4/1 32/6/1
f 33/1/1 34/2/1 35/3/1 36/4/1
f 37/5/1 38/1/1 39/4/1 40/6/1
f 41/1/1 42/2/1 43/3/1 44/4/1
f 45/5/1 46/1/1 47/4/1 48/6/1
f 49/7/1 50/8/1 51/2/1 52/1/1
f 53/9/1 54/7/1 55/1/1 56/5/1
f 57/7/1 58/8/1 59/2/1 60/1/1
f 61/9/1 62/7/1 63/1/1 64/5/1
f 65/7/1 66/8/1 67/2/1 68/1/1
f 69/9/1 70/7/1 71/1/1 72/5/1
f 73/7/1 74/8/1 75/2/1 76/1/1
f 77/9/1 78/7/1 79/1/1 80/5/1
f 81/7/1 82/8/1 83/2/1 84/1/1
f 85/9/1 86/7/1 87/1/1 88/5/1
f 89/7/1 90/8/1 91/2/1 92/1/1
f 93/9/1 94/7/1 95/1/1 96/5/1

