# Tiled2Unity generated file. Do not modify by hand.
# Wavefront file for 'BM2._mesh_0390.obj'

# Vertices (Count = 16)
v 0 -5.12 0
v -0.64 -5.12 0
v -0.64 -4.48 0
v 0 -4.48 0
v -0.64 -5.12 0
v -1.28 -5.12 0
v -1.28 -4.48 0
v -0.64 -4.48 0
v 0 -5.76 0
v -0.64 -5.76 0
v -0.64 -5.12 0
v 0 -5.12 0
v -0.64 -5.76 0
v -1.28 -5.76 0
v -1.28 -5.12 0
v -0.64 -5.12 0

# Texture cooridinates (Count = 9)
vt 0.21875 0.53125
vt 0.25 0.53125
vt 0.25 0.5625
vt 0.21875 0.5625
vt 0.28125 0.53125
vt 0.28125 0.5625
vt 0.21875 0.5
vt 0.25 0.5
vt 0.28125 0.5

# Normal
vn 0 0 -1

# Mesh description
g BM2._mesh_0390

# Faces
f 1/1/1 2/2/1 3/3/1 4/4/1
f 5/2/1 6/5/1 7/6/1 8/3/1
f 9/7/1 10/8/1 11/2/1 12/1/1
f 13/8/1 14/9/1 15/5/1 16/2/1

