# Tiled2Unity generated file. Do not modify by hand.
# Wavefront file for 'BM2._mesh_0277.obj'

# Vertices (Count = 8)
v -0.64 -10.24 0
v -1.28 -10.24 0
v -1.28 -9.599999 0
v -0.64 -9.599999 0
v -1.28 -10.24 0
v -1.92 -10.24 0
v -1.92 -9.599999 0
v -1.28 -9.599999 0

# Texture cooridinates (Count = 6)
vt 0.125 0.78125
vt 0.15625 0.78125
vt 0.15625 0.8125
vt 0.125 0.8125
vt 0.1875 0.78125
vt 0.1875 0.8125

# Normal
vn 0 0 -1

# Mesh description
g BM2._mesh_0277

# Faces
f 1/1/1 2/2/1 3/3/1 4/4/1
f 5/2/1 6/5/1 7/6/1 8/3/1

