# Tiled2Unity generated file. Do not modify by hand.
# Wavefront file for 'BM2._mesh_0312.obj'

# Vertices (Count = 12)
v 0 -0.64 0
v -0.64 -0.64 0
v -0.64 0 0
v 0 0 0
v -0.64 -0.64 0
v -1.28 -0.64 0
v -1.28 0 0
v -0.64 0 0
v -1.28 -0.64 0
v -1.92 -0.64 0
v -1.92 0 0
v -1.28 0 0

# Texture cooridinates (Count = 8)
vt 0.3 0
vt 0.4 0
vt 0.4 0.125
vt 0.3 0.125
vt 0.5 0
vt 0.5 0.125
vt 0.6 0
vt 0.6 0.125

# Normal
vn 0 0 -1

# Mesh description
g BM2._mesh_0312

# Faces
f 1/1/1 2/2/1 3/3/1 4/4/1
f 5/2/1 6/5/1 7/6/1 8/3/1
f 9/5/1 10/7/1 11/8/1 12/6/1

