# Tiled2Unity generated file. Do not modify by hand.
# Wavefront file for 'BM2._mesh_0168.obj'

# Vertices (Count = 24)
v -8.32 -2.56 0
v -8.96 -2.56 0
v -8.96 -1.92 0
v -8.32 -1.92 0
v -8.96 -2.56 0
v -9.599999 -2.56 0
v -9.599999 -1.92 0
v -8.96 -1.92 0
v -8.32 -3.2 0
v -8.96 -3.2 0
v -8.96 -2.56 0
v -8.32 -2.56 0
v -8.96 -3.2 0
v -9.599999 -3.2 0
v -9.599999 -2.56 0
v -8.96 -2.56 0
v -8.32 -3.84 0
v -8.96 -3.84 0
v -8.96 -3.2 0
v -8.32 -3.2 0
v -8.96 -3.84 0
v -9.599999 -3.84 0
v -9.599999 -3.2 0
v -8.96 -3.2 0

# Texture cooridinates (Count = 12)
vt 0.6 0.4
vt 0.65 0.4
vt 0.65 0.45
vt 0.6 0.45
vt 0.7 0.4
vt 0.7 0.45
vt 0.6 0.35
vt 0.65 0.35
vt 0.7 0.35
vt 0.6 0.3
vt 0.65 0.3
vt 0.7 0.3

# Normal
vn 0 0 -1

# Mesh description
g BM2._mesh_0168

# Faces
f 1/1/1 2/2/1 3/3/1 4/4/1
f 5/2/1 6/5/1 7/6/1 8/3/1
f 9/7/1 10/8/1 11/2/1 12/1/1
f 13/8/1 14/9/1 15/5/1 16/2/1
f 17/10/1 18/11/1 19/8/1 20/7/1
f 21/11/1 22/12/1 23/9/1 24/8/1

