# Tiled2Unity generated file. Do not modify by hand.
# Wavefront file for 'BM2._mesh_0373.obj'

# Vertices (Count = 68)
v -9.599999 -0.64 0
v -10.24 -0.64 0
v -10.24 0 0
v -9.599999 0 0
v -5.12 -4.48 0
v -5.76 -4.48 0
v -5.76 -3.84 0
v -5.12 -3.84 0
v -5.76 -4.48 0
v -6.4 -4.48 0
v -6.4 -3.84 0
v -5.76 -3.84 0
v -5.12 -5.12 0
v -5.76 -5.12 0
v -5.76 -4.48 0
v -5.12 -4.48 0
v -5.76 -5.12 0
v -6.4 -5.12 0
v -6.4 -4.48 0
v -5.76 -4.48 0
v -5.12 -7.04 0
v -5.76 -7.04 0
v -5.76 -6.4 0
v -5.12 -6.4 0
v -5.76 -7.04 0
v -6.4 -7.04 0
v -6.4 -6.4 0
v -5.76 -6.4 0
v -6.4 -7.04 0
v -7.04 -7.04 0
v -7.04 -6.4 0
v -6.4 -6.4 0
v -7.04 -7.04 0
v -7.68 -7.04 0
v -7.68 -6.4 0
v -7.04 -6.4 0
v -7.68 -7.04 0
v -8.32 -7.04 0
v -8.32 -6.4 0
v -7.68 -6.4 0
v -8.32 -7.04 0
v -8.96 -7.04 0
v -8.96 -6.4 0
v -8.32 -6.4 0
v -5.12 -7.68 0
v -5.76 -7.68 0
v -5.76 -7.04 0
v -5.12 -7.04 0
v -5.76 -7.68 0
v -6.4 -7.68 0
v -6.4 -7.04 0
v -5.76 -7.04 0
v -6.4 -7.68 0
v -7.04 -7.68 0
v -7.04 -7.04 0
v -6.4 -7.04 0
v -7.04 -7.68 0
v -7.68 -7.68 0
v -7.68 -7.04 0
v -7.04 -7.04 0
v -7.68 -7.68 0
v -8.32 -7.68 0
v -8.32 -7.04 0
v -7.68 -7.04 0
v -8.32 -7.68 0
v -8.96 -7.68 0
v -8.96 -7.04 0
v -8.32 -7.04 0

# Texture cooridinates (Count = 20)
vt 0.5 0
vt 0.75 0
vt 0.75 0.1666667
vt 0.5 0.1666667
vt 0 0.1666667
vt 0.25 0.1666667
vt 0.25 0.3333333
vt 0 0.3333333
vt 0.5 0.3333333
vt 0 0
vt 0.25 0
vt 0.5 0.8333333
vt 0.75 0.8333333
vt 0.75 1
vt 0.5 1
vt 1 0.8333333
vt 1 1
vt 0.5 0.6666666
vt 0.75 0.6666666
vt 1 0.6666666

# Normal
vn 0 0 -1

# Mesh description
g BM2._mesh_0373

# Faces
f 1/1/1 2/2/1 3/3/1 4/4/1
f 5/5/1 6/6/1 7/7/1 8/8/1
f 9/6/1 10/4/1 11/9/1 12/7/1
f 13/10/1 14/11/1 15/6/1 16/5/1
f 17/11/1 18/1/1 19/4/1 20/6/1
f 21/12/1 22/13/1 23/14/1 24/15/1
f 25/13/1 26/16/1 27/17/1 28/14/1
f 29/5/1 30/6/1 31/7/1 32/8/1
f 33/6/1 34/4/1 35/9/1 36/7/1
f 37/5/1 38/6/1 39/7/1 40/8/1
f 41/6/1 42/4/1 43/9/1 44/7/1
f 45/18/1 46/19/1 47/13/1 48/12/1
f 49/19/1 50/20/1 51/16/1 52/13/1
f 53/10/1 54/11/1 55/6/1 56/5/1
f 57/11/1 58/1/1 59/4/1 60/6/1
f 61/10/1 62/11/1 63/6/1 64/5/1
f 65/11/1 66/1/1 67/4/1 68/6/1

