# Tiled2Unity generated file. Do not modify by hand.
# Wavefront file for 'BM2._mesh_0037.obj'

# Vertices (Count = 920)
v 0 -0.64 0
v -0.64 -0.64 0
v -0.64 0 0
v 0 0 0
v -3.2 -0.64 0
v -3.84 -0.64 0
v -3.84 0 0
v -3.2 0 0
v -3.84 -0.64 0
v -4.48 -0.64 0
v -4.48 0 0
v -3.84 0 0
v 0 -1.28 0
v -0.64 -1.28 0
v -0.64 -0.64 0
v 0 -0.64 0
v -3.2 -1.28 0
v -3.84 -1.28 0
v -3.84 -0.64 0
v -3.2 -0.64 0
v -3.84 -1.28 0
v -4.48 -1.28 0
v -4.48 -0.64 0
v -3.84 -0.64 0
v 0 -1.92 0
v -0.64 -1.92 0
v -0.64 -1.28 0
v 0 -1.28 0
v -0.64 -1.92 0
v -1.28 -1.92 0
v -1.28 -1.28 0
v -0.64 -1.28 0
v -1.28 -1.92 0
v -1.92 -1.92 0
v -1.92 -1.28 0
v -1.28 -1.28 0
v -1.92 -1.92 0
v -2.56 -1.92 0
v -2.56 -1.28 0
v -1.92 -1.28 0
v -2.56 -1.92 0
v -3.2 -1.92 0
v -3.2 -1.28 0
v -2.56 -1.28 0
v -3.2 -1.92 0
v -3.84 -1.92 0
v -3.84 -1.28 0
v -3.2 -1.28 0
v -3.84 -1.92 0
v -4.48 -1.92 0
v -4.48 -1.28 0
v -3.84 -1.28 0
v -4.48 -1.92 0
v -5.12 -1.92 0
v -5.12 -1.28 0
v -4.48 -1.28 0
v -5.12 -1.92 0
v -5.76 -1.92 0
v -5.76 -1.28 0
v -5.12 -1.28 0
v -5.76 -1.92 0
v -6.4 -1.92 0
v -6.4 -1.28 0
v -5.76 -1.28 0
v -6.4 -1.92 0
v -7.04 -1.92 0
v -7.04 -1.28 0
v -6.4 -1.28 0
v -7.04 -1.92 0
v -7.68 -1.92 0
v -7.68 -1.28 0
v -7.04 -1.28 0
v -7.68 -1.92 0
v -8.32 -1.92 0
v -8.32 -1.28 0
v -7.68 -1.28 0
v -8.32 -1.92 0
v -8.96 -1.92 0
v -8.96 -1.28 0
v -8.32 -1.28 0
v -8.96 -1.92 0
v -9.599999 -1.92 0
v -9.599999 -1.28 0
v -8.96 -1.28 0
v -9.599999 -1.92 0
v -10.24 -1.92 0
v -10.24 -1.28 0
v -9.599999 -1.28 0
v 0 -2.56 0
v -0.64 -2.56 0
v -0.64 -1.92 0
v 0 -1.92 0
v -0.64 -2.56 0
v -1.28 -2.56 0
v -1.28 -1.92 0
v -0.64 -1.92 0
v -1.28 -2.56 0
v -1.92 -2.56 0
v -1.92 -1.92 0
v -1.28 -1.92 0
v -1.92 -2.56 0
v -2.56 -2.56 0
v -2.56 -1.92 0
v -1.92 -1.92 0
v -2.56 -2.56 0
v -3.2 -2.56 0
v -3.2 -1.92 0
v -2.56 -1.92 0
v -3.2 -2.56 0
v -3.84 -2.56 0
v -3.84 -1.92 0
v -3.2 -1.92 0
v -3.84 -2.56 0
v -4.48 -2.56 0
v -4.48 -1.92 0
v -3.84 -1.92 0
v -4.48 -2.56 0
v -5.12 -2.56 0
v -5.12 -1.92 0
v -4.48 -1.92 0
v -5.12 -2.56 0
v -5.76 -2.56 0
v -5.76 -1.92 0
v -5.12 -1.92 0
v -5.76 -2.56 0
v -6.4 -2.56 0
v -6.4 -1.92 0
v -5.76 -1.92 0
v -6.4 -2.56 0
v -7.04 -2.56 0
v -7.04 -1.92 0
v -6.4 -1.92 0
v -7.04 -2.56 0
v -7.68 -2.56 0
v -7.68 -1.92 0
v -7.04 -1.92 0
v -7.68 -2.56 0
v -8.32 -2.56 0
v -8.32 -1.92 0
v -7.68 -1.92 0
v -8.32 -2.56 0
v -8.96 -2.56 0
v -8.96 -1.92 0
v -8.32 -1.92 0
v -8.96 -2.56 0
v -9.599999 -2.56 0
v -9.599999 -1.92 0
v -8.96 -1.92 0
v -9.599999 -2.56 0
v -10.24 -2.56 0
v -10.24 -1.92 0
v -9.599999 -1.92 0
v 0 -3.2 0
v -0.64 -3.2 0
v -0.64 -2.56 0
v 0 -2.56 0
v -0.64 -3.2 0
v -1.28 -3.2 0
v -1.28 -2.56 0
v -0.64 -2.56 0
v -1.28 -3.2 0
v -1.92 -3.2 0
v -1.92 -2.56 0
v -1.28 -2.56 0
v -1.92 -3.2 0
v -2.56 -3.2 0
v -2.56 -2.56 0
v -1.92 -2.56 0
v -2.56 -3.2 0
v -3.2 -3.2 0
v -3.2 -2.56 0
v -2.56 -2.56 0
v -3.2 -3.2 0
v -3.84 -3.2 0
v -3.84 -2.56 0
v -3.2 -2.56 0
v -3.84 -3.2 0
v -4.48 -3.2 0
v -4.48 -2.56 0
v -3.84 -2.56 0
v -4.48 -3.2 0
v -5.12 -3.2 0
v -5.12 -2.56 0
v -4.48 -2.56 0
v -5.12 -3.2 0
v -5.76 -3.2 0
v -5.76 -2.56 0
v -5.12 -2.56 0
v -5.76 -3.2 0
v -6.4 -3.2 0
v -6.4 -2.56 0
v -5.76 -2.56 0
v -6.4 -3.2 0
v -7.04 -3.2 0
v -7.04 -2.56 0
v -6.4 -2.56 0
v -7.04 -3.2 0
v -7.68 -3.2 0
v -7.68 -2.56 0
v -7.04 -2.56 0
v -7.68 -3.2 0
v -8.32 -3.2 0
v -8.32 -2.56 0
v -7.68 -2.56 0
v -8.32 -3.2 0
v -8.96 -3.2 0
v -8.96 -2.56 0
v -8.32 -2.56 0
v -8.96 -3.2 0
v -9.599999 -3.2 0
v -9.599999 -2.56 0
v -8.96 -2.56 0
v -9.599999 -3.2 0
v -10.24 -3.2 0
v -10.24 -2.56 0
v -9.599999 -2.56 0
v 0 -3.84 0
v -0.64 -3.84 0
v -0.64 -3.2 0
v 0 -3.2 0
v -0.64 -3.84 0
v -1.28 -3.84 0
v -1.28 -3.2 0
v -0.64 -3.2 0
v -1.28 -3.84 0
v -1.92 -3.84 0
v -1.92 -3.2 0
v -1.28 -3.2 0
v -1.92 -3.84 0
v -2.56 -3.84 0
v -2.56 -3.2 0
v -1.92 -3.2 0
v -2.56 -3.84 0
v -3.2 -3.84 0
v -3.2 -3.2 0
v -2.56 -3.2 0
v -3.2 -3.84 0
v -3.84 -3.84 0
v -3.84 -3.2 0
v -3.2 -3.2 0
v -3.84 -3.84 0
v -4.48 -3.84 0
v -4.48 -3.2 0
v -3.84 -3.2 0
v -4.48 -3.84 0
v -5.12 -3.84 0
v -5.12 -3.2 0
v -4.48 -3.2 0
v -5.12 -3.84 0
v -5.76 -3.84 0
v -5.76 -3.2 0
v -5.12 -3.2 0
v -5.76 -3.84 0
v -6.4 -3.84 0
v -6.4 -3.2 0
v -5.76 -3.2 0
v -6.4 -3.84 0
v -7.04 -3.84 0
v -7.04 -3.2 0
v -6.4 -3.2 0
v -7.04 -3.84 0
v -7.68 -3.84 0
v -7.68 -3.2 0
v -7.04 -3.2 0
v -7.68 -3.84 0
v -8.32 -3.84 0
v -8.32 -3.2 0
v -7.68 -3.2 0
v -8.32 -3.84 0
v -8.96 -3.84 0
v -8.96 -3.2 0
v -8.32 -3.2 0
v -8.96 -3.84 0
v -9.599999 -3.84 0
v -9.599999 -3.2 0
v -8.96 -3.2 0
v -9.599999 -3.84 0
v -10.24 -3.84 0
v -10.24 -3.2 0
v -9.599999 -3.2 0
v 0 -4.48 0
v -0.64 -4.48 0
v -0.64 -3.84 0
v 0 -3.84 0
v -0.64 -4.48 0
v -1.28 -4.48 0
v -1.28 -3.84 0
v -0.64 -3.84 0
v -1.28 -4.48 0
v -1.92 -4.48 0
v -1.92 -3.84 0
v -1.28 -3.84 0
v -1.92 -4.48 0
v -2.56 -4.48 0
v -2.56 -3.84 0
v -1.92 -3.84 0
v -2.56 -4.48 0
v -3.2 -4.48 0
v -3.2 -3.84 0
v -2.56 -3.84 0
v -3.2 -4.48 0
v -3.84 -4.48 0
v -3.84 -3.84 0
v -3.2 -3.84 0
v -3.84 -4.48 0
v -4.48 -4.48 0
v -4.48 -3.84 0
v -3.84 -3.84 0
v -4.48 -4.48 0
v -5.12 -4.48 0
v -5.12 -3.84 0
v -4.48 -3.84 0
v -5.12 -4.48 0
v -5.76 -4.48 0
v -5.76 -3.84 0
v -5.12 -3.84 0
v -5.76 -4.48 0
v -6.4 -4.48 0
v -6.4 -3.84 0
v -5.76 -3.84 0
v -6.4 -4.48 0
v -7.04 -4.48 0
v -7.04 -3.84 0
v -6.4 -3.84 0
v -7.04 -4.48 0
v -7.68 -4.48 0
v -7.68 -3.84 0
v -7.04 -3.84 0
v -7.68 -4.48 0
v -8.32 -4.48 0
v -8.32 -3.84 0
v -7.68 -3.84 0
v -8.32 -4.48 0
v -8.96 -4.48 0
v -8.96 -3.84 0
v -8.32 -3.84 0
v -8.96 -4.48 0
v -9.599999 -4.48 0
v -9.599999 -3.84 0
v -8.96 -3.84 0
v -9.599999 -4.48 0
v -10.24 -4.48 0
v -10.24 -3.84 0
v -9.599999 -3.84 0
v 0 -5.12 0
v -0.64 -5.12 0
v -0.64 -4.48 0
v 0 -4.48 0
v -0.64 -5.12 0
v -1.28 -5.12 0
v -1.28 -4.48 0
v -0.64 -4.48 0
v -1.28 -5.12 0
v -1.92 -5.12 0
v -1.92 -4.48 0
v -1.28 -4.48 0
v -1.92 -5.12 0
v -2.56 -5.12 0
v -2.56 -4.48 0
v -1.92 -4.48 0
v -2.56 -5.12 0
v -3.2 -5.12 0
v -3.2 -4.48 0
v -2.56 -4.48 0
v -3.2 -5.12 0
v -3.84 -5.12 0
v -3.84 -4.48 0
v -3.2 -4.48 0
v -3.84 -5.12 0
v -4.48 -5.12 0
v -4.48 -4.48 0
v -3.84 -4.48 0
v -4.48 -5.12 0
v -5.12 -5.12 0
v -5.12 -4.48 0
v -4.48 -4.48 0
v -5.12 -5.12 0
v -5.76 -5.12 0
v -5.76 -4.48 0
v -5.12 -4.48 0
v -5.76 -5.12 0
v -6.4 -5.12 0
v -6.4 -4.48 0
v -5.76 -4.48 0
v -6.4 -5.12 0
v -7.04 -5.12 0
v -7.04 -4.48 0
v -6.4 -4.48 0
v -7.04 -5.12 0
v -7.68 -5.12 0
v -7.68 -4.48 0
v -7.04 -4.48 0
v -7.68 -5.12 0
v -8.32 -5.12 0
v -8.32 -4.48 0
v -7.68 -4.48 0
v -8.32 -5.12 0
v -8.96 -5.12 0
v -8.96 -4.48 0
v -8.32 -4.48 0
v -8.96 -5.12 0
v -9.599999 -5.12 0
v -9.599999 -4.48 0
v -8.96 -4.48 0
v -9.599999 -5.12 0
v -10.24 -5.12 0
v -10.24 -4.48 0
v -9.599999 -4.48 0
v 0 -5.76 0
v -0.64 -5.76 0
v -0.64 -5.12 0
v 0 -5.12 0
v -0.64 -5.76 0
v -1.28 -5.76 0
v -1.28 -5.12 0
v -0.64 -5.12 0
v -1.28 -5.76 0
v -1.92 -5.76 0
v -1.92 -5.12 0
v -1.28 -5.12 0
v -1.92 -5.76 0
v -2.56 -5.76 0
v -2.56 -5.12 0
v -1.92 -5.12 0
v -2.56 -5.76 0
v -3.2 -5.76 0
v -3.2 -5.12 0
v -2.56 -5.12 0
v -3.2 -5.76 0
v -3.84 -5.76 0
v -3.84 -5.12 0
v -3.2 -5.12 0
v -3.84 -5.76 0
v -4.48 -5.76 0
v -4.48 -5.12 0
v -3.84 -5.12 0
v -4.48 -5.76 0
v -5.12 -5.76 0
v -5.12 -5.12 0
v -4.48 -5.12 0
v -5.12 -5.76 0
v -5.76 -5.76 0
v -5.76 -5.12 0
v -5.12 -5.12 0
v -5.76 -5.76 0
v -6.4 -5.76 0
v -6.4 -5.12 0
v -5.76 -5.12 0
v -6.4 -5.76 0
v -7.04 -5.76 0
v -7.04 -5.12 0
v -6.4 -5.12 0
v -7.04 -5.76 0
v -7.68 -5.76 0
v -7.68 -5.12 0
v -7.04 -5.12 0
v -7.68 -5.76 0
v -8.32 -5.76 0
v -8.32 -5.12 0
v -7.68 -5.12 0
v -8.32 -5.76 0
v -8.96 -5.76 0
v -8.96 -5.12 0
v -8.32 -5.12 0
v -8.96 -5.76 0
v -9.599999 -5.76 0
v -9.599999 -5.12 0
v -8.96 -5.12 0
v -9.599999 -5.76 0
v -10.24 -5.76 0
v -10.24 -5.12 0
v -9.599999 -5.12 0
v 0 -6.4 0
v -0.64 -6.4 0
v -0.64 -5.76 0
v 0 -5.76 0
v -0.64 -6.4 0
v -1.28 -6.4 0
v -1.28 -5.76 0
v -0.64 -5.76 0
v -1.28 -6.4 0
v -1.92 -6.4 0
v -1.92 -5.76 0
v -1.28 -5.76 0
v -1.92 -6.4 0
v -2.56 -6.4 0
v -2.56 -5.76 0
v -1.92 -5.76 0
v -2.56 -6.4 0
v -3.2 -6.4 0
v -3.2 -5.76 0
v -2.56 -5.76 0
v -3.2 -6.4 0
v -3.84 -6.4 0
v -3.84 -5.76 0
v -3.2 -5.76 0
v -3.84 -6.4 0
v -4.48 -6.4 0
v -4.48 -5.76 0
v -3.84 -5.76 0
v -4.48 -6.4 0
v -5.12 -6.4 0
v -5.12 -5.76 0
v -4.48 -5.76 0
v -5.12 -6.4 0
v -5.76 -6.4 0
v -5.76 -5.76 0
v -5.12 -5.76 0
v -5.76 -6.4 0
v -6.4 -6.4 0
v -6.4 -5.76 0
v -5.76 -5.76 0
v -6.4 -6.4 0
v -7.04 -6.4 0
v -7.04 -5.76 0
v -6.4 -5.76 0
v -7.04 -6.4 0
v -7.68 -6.4 0
v -7.68 -5.76 0
v -7.04 -5.76 0
v -7.68 -6.4 0
v -8.32 -6.4 0
v -8.32 -5.76 0
v -7.68 -5.76 0
v -8.32 -6.4 0
v -8.96 -6.4 0
v -8.96 -5.76 0
v -8.32 -5.76 0
v -8.96 -6.4 0
v -9.599999 -6.4 0
v -9.599999 -5.76 0
v -8.96 -5.76 0
v -9.599999 -6.4 0
v -10.24 -6.4 0
v -10.24 -5.76 0
v -9.599999 -5.76 0
v 0 -7.04 0
v -0.64 -7.04 0
v -0.64 -6.4 0
v 0 -6.4 0
v -0.64 -7.04 0
v -1.28 -7.04 0
v -1.28 -6.4 0
v -0.64 -6.4 0
v -1.28 -7.04 0
v -1.92 -7.04 0
v -1.92 -6.4 0
v -1.28 -6.4 0
v -1.92 -7.04 0
v -2.56 -7.04 0
v -2.56 -6.4 0
v -1.92 -6.4 0
v -2.56 -7.04 0
v -3.2 -7.04 0
v -3.2 -6.4 0
v -2.56 -6.4 0
v -3.2 -7.04 0
v -3.84 -7.04 0
v -3.84 -6.4 0
v -3.2 -6.4 0
v -3.84 -7.04 0
v -4.48 -7.04 0
v -4.48 -6.4 0
v -3.84 -6.4 0
v -4.48 -7.04 0
v -5.12 -7.04 0
v -5.12 -6.4 0
v -4.48 -6.4 0
v -5.12 -7.04 0
v -5.76 -7.04 0
v -5.76 -6.4 0
v -5.12 -6.4 0
v -5.76 -7.04 0
v -6.4 -7.04 0
v -6.4 -6.4 0
v -5.76 -6.4 0
v -6.4 -7.04 0
v -7.04 -7.04 0
v -7.04 -6.4 0
v -6.4 -6.4 0
v -7.04 -7.04 0
v -7.68 -7.04 0
v -7.68 -6.4 0
v -7.04 -6.4 0
v -7.68 -7.04 0
v -8.32 -7.04 0
v -8.32 -6.4 0
v -7.68 -6.4 0
v -8.32 -7.04 0
v -8.96 -7.04 0
v -8.96 -6.4 0
v -8.32 -6.4 0
v -8.96 -7.04 0
v -9.599999 -7.04 0
v -9.599999 -6.4 0
v -8.96 -6.4 0
v -9.599999 -7.04 0
v -10.24 -7.04 0
v -10.24 -6.4 0
v -9.599999 -6.4 0
v 0 -7.68 0
v -0.64 -7.68 0
v -0.64 -7.04 0
v 0 -7.04 0
v -0.64 -7.68 0
v -1.28 -7.68 0
v -1.28 -7.04 0
v -0.64 -7.04 0
v -1.28 -7.68 0
v -1.92 -7.68 0
v -1.92 -7.04 0
v -1.28 -7.04 0
v -1.92 -7.68 0
v -2.56 -7.68 0
v -2.56 -7.04 0
v -1.92 -7.04 0
v -2.56 -7.68 0
v -3.2 -7.68 0
v -3.2 -7.04 0
v -2.56 -7.04 0
v -3.2 -7.68 0
v -3.84 -7.68 0
v -3.84 -7.04 0
v -3.2 -7.04 0
v -3.84 -7.68 0
v -4.48 -7.68 0
v -4.48 -7.04 0
v -3.84 -7.04 0
v -4.48 -7.68 0
v -5.12 -7.68 0
v -5.12 -7.04 0
v -4.48 -7.04 0
v -5.12 -7.68 0
v -5.76 -7.68 0
v -5.76 -7.04 0
v -5.12 -7.04 0
v -5.76 -7.68 0
v -6.4 -7.68 0
v -6.4 -7.04 0
v -5.76 -7.04 0
v -6.4 -7.68 0
v -7.04 -7.68 0
v -7.04 -7.04 0
v -6.4 -7.04 0
v -7.04 -7.68 0
v -7.68 -7.68 0
v -7.68 -7.04 0
v -7.04 -7.04 0
v -7.68 -7.68 0
v -8.32 -7.68 0
v -8.32 -7.04 0
v -7.68 -7.04 0
v -8.32 -7.68 0
v -8.96 -7.68 0
v -8.96 -7.04 0
v -8.32 -7.04 0
v -8.96 -7.68 0
v -9.599999 -7.68 0
v -9.599999 -7.04 0
v -8.96 -7.04 0
v -9.599999 -7.68 0
v -10.24 -7.68 0
v -10.24 -7.04 0
v -9.599999 -7.04 0
v 0 -8.32 0
v -0.64 -8.32 0
v -0.64 -7.68 0
v 0 -7.68 0
v -0.64 -8.32 0
v -1.28 -8.32 0
v -1.28 -7.68 0
v -0.64 -7.68 0
v -1.28 -8.32 0
v -1.92 -8.32 0
v -1.92 -7.68 0
v -1.28 -7.68 0
v -1.92 -8.32 0
v -2.56 -8.32 0
v -2.56 -7.68 0
v -1.92 -7.68 0
v -2.56 -8.32 0
v -3.2 -8.32 0
v -3.2 -7.68 0
v -2.56 -7.68 0
v -3.2 -8.32 0
v -3.84 -8.32 0
v -3.84 -7.68 0
v -3.2 -7.68 0
v -3.84 -8.32 0
v -4.48 -8.32 0
v -4.48 -7.68 0
v -3.84 -7.68 0
v -4.48 -8.32 0
v -5.12 -8.32 0
v -5.12 -7.68 0
v -4.48 -7.68 0
v -5.12 -8.32 0
v -5.76 -8.32 0
v -5.76 -7.68 0
v -5.12 -7.68 0
v -5.76 -8.32 0
v -6.4 -8.32 0
v -6.4 -7.68 0
v -5.76 -7.68 0
v -6.4 -8.32 0
v -7.04 -8.32 0
v -7.04 -7.68 0
v -6.4 -7.68 0
v -7.04 -8.32 0
v -7.68 -8.32 0
v -7.68 -7.68 0
v -7.04 -7.68 0
v -7.68 -8.32 0
v -8.32 -8.32 0
v -8.32 -7.68 0
v -7.68 -7.68 0
v -8.32 -8.32 0
v -8.96 -8.32 0
v -8.96 -7.68 0
v -8.32 -7.68 0
v -8.96 -8.32 0
v -9.599999 -8.32 0
v -9.599999 -7.68 0
v -8.96 -7.68 0
v -9.599999 -8.32 0
v -10.24 -8.32 0
v -10.24 -7.68 0
v -9.599999 -7.68 0
v 0 -8.96 0
v -0.64 -8.96 0
v -0.64 -8.32 0
v 0 -8.32 0
v -0.64 -8.96 0
v -1.28 -8.96 0
v -1.28 -8.32 0
v -0.64 -8.32 0
v -1.28 -8.96 0
v -1.92 -8.96 0
v -1.92 -8.32 0
v -1.28 -8.32 0
v -1.92 -8.96 0
v -2.56 -8.96 0
v -2.56 -8.32 0
v -1.92 -8.32 0
v -2.56 -8.96 0
v -3.2 -8.96 0
v -3.2 -8.32 0
v -2.56 -8.32 0
v -3.2 -8.96 0
v -3.84 -8.96 0
v -3.84 -8.32 0
v -3.2 -8.32 0
v -3.84 -8.96 0
v -4.48 -8.96 0
v -4.48 -8.32 0
v -3.84 -8.32 0
v -4.48 -8.96 0
v -5.12 -8.96 0
v -5.12 -8.32 0
v -4.48 -8.32 0
v -5.12 -8.96 0
v -5.76 -8.96 0
v -5.76 -8.32 0
v -5.12 -8.32 0
v -5.76 -8.96 0
v -6.4 -8.96 0
v -6.4 -8.32 0
v -5.76 -8.32 0
v -6.4 -8.96 0
v -7.04 -8.96 0
v -7.04 -8.32 0
v -6.4 -8.32 0
v -7.04 -8.96 0
v -7.68 -8.96 0
v -7.68 -8.32 0
v -7.04 -8.32 0
v -7.68 -8.96 0
v -8.32 -8.96 0
v -8.32 -8.32 0
v -7.68 -8.32 0
v -8.32 -8.96 0
v -8.96 -8.96 0
v -8.96 -8.32 0
v -8.32 -8.32 0
v -8.96 -8.96 0
v -9.599999 -8.96 0
v -9.599999 -8.32 0
v -8.96 -8.32 0
v -9.599999 -8.96 0
v -10.24 -8.96 0
v -10.24 -8.32 0
v -9.599999 -8.32 0
v 0 -9.599999 0
v -0.64 -9.599999 0
v -0.64 -8.96 0
v 0 -8.96 0
v -0.64 -9.599999 0
v -1.28 -9.599999 0
v -1.28 -8.96 0
v -0.64 -8.96 0
v -1.28 -9.599999 0
v -1.92 -9.599999 0
v -1.92 -8.96 0
v -1.28 -8.96 0
v -1.92 -9.599999 0
v -2.56 -9.599999 0
v -2.56 -8.96 0
v -1.92 -8.96 0
v -2.56 -9.599999 0
v -3.2 -9.599999 0
v -3.2 -8.96 0
v -2.56 -8.96 0
v -3.2 -9.599999 0
v -3.84 -9.599999 0
v -3.84 -8.96 0
v -3.2 -8.96 0
v -3.84 -9.599999 0
v -4.48 -9.599999 0
v -4.48 -8.96 0
v -3.84 -8.96 0
v -4.48 -9.599999 0
v -5.12 -9.599999 0
v -5.12 -8.96 0
v -4.48 -8.96 0
v -5.12 -9.599999 0
v -5.76 -9.599999 0
v -5.76 -8.96 0
v -5.12 -8.96 0
v -5.76 -9.599999 0
v -6.4 -9.599999 0
v -6.4 -8.96 0
v -5.76 -8.96 0
v -6.4 -9.599999 0
v -7.04 -9.599999 0
v -7.04 -8.96 0
v -6.4 -8.96 0
v -7.04 -9.599999 0
v -7.68 -9.599999 0
v -7.68 -8.96 0
v -7.04 -8.96 0
v -7.68 -9.599999 0
v -8.32 -9.599999 0
v -8.32 -8.96 0
v -7.68 -8.96 0
v -8.32 -9.599999 0
v -8.96 -9.599999 0
v -8.96 -8.96 0
v -8.32 -8.96 0
v -8.96 -9.599999 0
v -9.599999 -9.599999 0
v -9.599999 -8.96 0
v -8.96 -8.96 0
v -9.599999 -9.599999 0
v -10.24 -9.599999 0
v -10.24 -8.96 0
v -9.599999 -8.96 0
v 0 -10.24 0
v -0.64 -10.24 0
v -0.64 -9.599999 0
v 0 -9.599999 0
v -0.64 -10.24 0
v -1.28 -10.24 0
v -1.28 -9.599999 0
v -0.64 -9.599999 0
v -1.28 -10.24 0
v -1.92 -10.24 0
v -1.92 -9.599999 0
v -1.28 -9.599999 0
v -1.92 -10.24 0
v -2.56 -10.24 0
v -2.56 -9.599999 0
v -1.92 -9.599999 0
v -2.56 -10.24 0
v -3.2 -10.24 0
v -3.2 -9.599999 0
v -2.56 -9.599999 0
v -3.2 -10.24 0
v -3.84 -10.24 0
v -3.84 -9.599999 0
v -3.2 -9.599999 0
v -3.84 -10.24 0
v -4.48 -10.24 0
v -4.48 -9.599999 0
v -3.84 -9.599999 0
v -4.48 -10.24 0
v -5.12 -10.24 0
v -5.12 -9.599999 0
v -4.48 -9.599999 0
v -5.12 -10.24 0
v -5.76 -10.24 0
v -5.76 -9.599999 0
v -5.12 -9.599999 0
v -5.76 -10.24 0
v -6.4 -10.24 0
v -6.4 -9.599999 0
v -5.76 -9.599999 0
v -6.4 -10.24 0
v -7.04 -10.24 0
v -7.04 -9.599999 0
v -6.4 -9.599999 0
v -7.04 -10.24 0
v -7.68 -10.24 0
v -7.68 -9.599999 0
v -7.04 -9.599999 0
v -7.68 -10.24 0
v -8.32 -10.24 0
v -8.32 -9.599999 0
v -7.68 -9.599999 0
v -8.32 -10.24 0
v -8.96 -10.24 0
v -8.96 -9.599999 0
v -8.32 -9.599999 0
v -8.96 -10.24 0
v -9.599999 -10.24 0
v -9.599999 -9.599999 0
v -8.96 -9.599999 0
v -9.599999 -10.24 0
v -10.24 -10.24 0
v -10.24 -9.599999 0
v -9.599999 -9.599999 0

# Texture cooridinates (Count = 21)
vt 0.5 0.3333333
vt 0.6666667 0.3333333
vt 0.6666667 0.4166667
vt 0.5 0.4166667
vt 0.3333333 0.3333333
vt 0.3333333 0.4166667
vt 0.8333333 0.08333331
vt 1 0.08333331
vt 1 0.1666667
vt 0.8333333 0.1666667
vt 0.3333333 0.08333331
vt 0.5 0.08333331
vt 0.5 0.1666667
vt 0.3333333 0.1666667
vt 0.6666667 0.08333331
vt 0.6666667 0.1666667
vt 0.8333333 0
vt 1 0
vt 0.3333333 0
vt 0.5 0
vt 0.6666667 0

# Normal
vn 0 0 -1

# Mesh description
g BM2._mesh_0037

# Faces
f 1/1/1 2/2/1 3/3/1 4/4/1
f 5/5/1 6/1/1 7/4/1 8/6/1
f 9/1/1 10/2/1 11/3/1 12/4/1
f 13/1/1 14/2/1 15/3/1 16/4/1
f 17/5/1 18/1/1 19/4/1 20/6/1
f 21/1/1 22/2/1 23/3/1 24/4/1
f 25/7/1 26/8/1 27/9/1 28/10/1
f 29/11/1 30/12/1 31/13/1 32/14/1
f 33/12/1 34/15/1 35/16/1 36/13/1
f 37/15/1 38/7/1 39/10/1 40/16/1
f 41/7/1 42/8/1 43/9/1 44/10/1
f 45/5/1 46/1/1 47/4/1 48/6/1
f 49/1/1 50/2/1 51/3/1 52/4/1
f 53/15/1 54/7/1 55/10/1 56/16/1
f 57/7/1 58/8/1 59/9/1 60/10/1
f 61/11/1 62/12/1 63/13/1 64/14/1
f 65/12/1 66/15/1 67/16/1 68/13/1
f 69/15/1 70/7/1 71/10/1 72/16/1
f 73/7/1 74/8/1 75/9/1 76/10/1
f 77/11/1 78/12/1 79/13/1 80/14/1
f 81/12/1 82/15/1 83/16/1 84/13/1
f 85/15/1 86/7/1 87/10/1 88/16/1
f 89/17/1 90/18/1 91/8/1 92/7/1
f 93/19/1 94/20/1 95/12/1 96/11/1
f 97/20/1 98/21/1 99/15/1 100/12/1
f 101/21/1 102/17/1 103/7/1 104/15/1
f 105/17/1 106/18/1 107/8/1 108/7/1
f 109/19/1 110/20/1 111/12/1 112/11/1
f 113/20/1 114/21/1 115/15/1 116/12/1
f 117/21/1 118/17/1 119/7/1 120/15/1
f 121/17/1 122/18/1 123/8/1 124/7/1
f 125/19/1 126/20/1 127/12/1 128/11/1
f 129/20/1 130/21/1 131/15/1 132/12/1
f 133/21/1 134/17/1 135/7/1 136/15/1
f 137/17/1 138/18/1 139/8/1 140/7/1
f 141/19/1 142/20/1 143/12/1 144/11/1
f 145/20/1 146/21/1 147/15/1 148/12/1
f 149/21/1 150/17/1 151/7/1 152/15/1
f 153/7/1 154/8/1 155/9/1 156/10/1
f 157/11/1 158/12/1 159/13/1 160/14/1
f 161/12/1 162/15/1 163/16/1 164/13/1
f 165/15/1 166/7/1 167/10/1 168/16/1
f 169/7/1 170/8/1 171/9/1 172/10/1
f 173/11/1 174/12/1 175/13/1 176/14/1
f 177/12/1 178/15/1 179/16/1 180/13/1
f 181/15/1 182/7/1 183/10/1 184/16/1
f 185/7/1 186/8/1 187/9/1 188/10/1
f 189/11/1 190/12/1 191/13/1 192/14/1
f 193/12/1 194/15/1 195/16/1 196/13/1
f 197/15/1 198/7/1 199/10/1 200/16/1
f 201/7/1 202/8/1 203/9/1 204/10/1
f 205/11/1 206/12/1 207/13/1 208/14/1
f 209/12/1 210/15/1 211/16/1 212/13/1
f 213/15/1 214/7/1 215/10/1 216/16/1
f 217/17/1 218/18/1 219/8/1 220/7/1
f 221/19/1 222/20/1 223/12/1 224/11/1
f 225/20/1 226/21/1 227/15/1 228/12/1
f 229/21/1 230/17/1 231/7/1 232/15/1
f 233/17/1 234/18/1 235/8/1 236/7/1
f 237/19/1 238/20/1 239/12/1 240/11/1
f 241/20/1 242/21/1 243/15/1 244/12/1
f 245/21/1 246/17/1 247/7/1 248/15/1
f 249/17/1 250/18/1 251/8/1 252/7/1
f 253/19/1 254/20/1 255/12/1 256/11/1
f 257/20/1 258/21/1 259/15/1 260/12/1
f 261/21/1 262/17/1 263/7/1 264/15/1
f 265/17/1 266/18/1 267/8/1 268/7/1
f 269/19/1 270/20/1 271/12/1 272/11/1
f 273/20/1 274/21/1 275/15/1 276/12/1
f 277/21/1 278/17/1 279/7/1 280/15/1
f 281/7/1 282/8/1 283/9/1 284/10/1
f 285/11/1 286/12/1 287/13/1 288/14/1
f 289/12/1 290/15/1 291/16/1 292/13/1
f 293/15/1 294/7/1 295/10/1 296/16/1
f 297/7/1 298/8/1 299/9/1 300/10/1
f 301/11/1 302/12/1 303/13/1 304/14/1
f 305/12/1 306/15/1 307/16/1 308/13/1
f 309/15/1 310/7/1 311/10/1 312/16/1
f 313/7/1 314/8/1 315/9/1 316/10/1
f 317/11/1 318/12/1 319/13/1 320/14/1
f 321/12/1 322/15/1 323/16/1 324/13/1
f 325/15/1 326/7/1 327/10/1 328/16/1
f 329/7/1 330/8/1 331/9/1 332/10/1
f 333/11/1 334/12/1 335/13/1 336/14/1
f 337/12/1 338/15/1 339/16/1 340/13/1
f 341/15/1 342/7/1 343/10/1 344/16/1
f 345/17/1 346/18/1 347/8/1 348/7/1
f 349/19/1 350/20/1 351/12/1 352/11/1
f 353/20/1 354/21/1 355/15/1 356/12/1
f 357/21/1 358/17/1 359/7/1 360/15/1
f 361/17/1 362/18/1 363/8/1 364/7/1
f 365/19/1 366/20/1 367/12/1 368/11/1
f 369/20/1 370/21/1 371/15/1 372/12/1
f 373/21/1 374/17/1 375/7/1 376/15/1
f 377/17/1 378/18/1 379/8/1 380/7/1
f 381/19/1 382/20/1 383/12/1 384/11/1
f 385/20/1 386/21/1 387/15/1 388/12/1
f 389/21/1 390/17/1 391/7/1 392/15/1
f 393/17/1 394/18/1 395/8/1 396/7/1
f 397/19/1 398/20/1 399/12/1 400/11/1
f 401/20/1 402/21/1 403/15/1 404/12/1
f 405/21/1 406/17/1 407/7/1 408/15/1
f 409/7/1 410/8/1 411/9/1 412/10/1
f 413/11/1 414/12/1 415/13/1 416/14/1
f 417/12/1 418/15/1 419/16/1 420/13/1
f 421/15/1 422/7/1 423/10/1 424/16/1
f 425/7/1 426/8/1 427/9/1 428/10/1
f 429/11/1 430/12/1 431/13/1 432/14/1
f 433/12/1 434/15/1 435/16/1 436/13/1
f 437/15/1 438/7/1 439/10/1 440/16/1
f 441/7/1 442/8/1 443/9/1 444/10/1
f 445/11/1 446/12/1 447/13/1 448/14/1
f 449/12/1 450/15/1 451/16/1 452/13/1
f 453/15/1 454/7/1 455/10/1 456/16/1
f 457/7/1 458/8/1 459/9/1 460/10/1
f 461/11/1 462/12/1 463/13/1 464/14/1
f 465/12/1 466/15/1 467/16/1 468/13/1
f 469/15/1 470/7/1 471/10/1 472/16/1
f 473/17/1 474/18/1 475/8/1 476/7/1
f 477/19/1 478/20/1 479/12/1 480/11/1
f 481/20/1 482/21/1 483/15/1 484/12/1
f 485/21/1 486/17/1 487/7/1 488/15/1
f 489/17/1 490/18/1 491/8/1 492/7/1
f 493/19/1 494/20/1 495/12/1 496/11/1
f 497/20/1 498/21/1 499/15/1 500/12/1
f 501/21/1 502/17/1 503/7/1 504/15/1
f 505/17/1 506/18/1 507/8/1 508/7/1
f 509/19/1 510/20/1 511/12/1 512/11/1
f 513/20/1 514/21/1 515/15/1 516/12/1
f 517/21/1 518/17/1 519/7/1 520/15/1
f 521/17/1 522/18/1 523/8/1 524/7/1
f 525/19/1 526/20/1 527/12/1 528/11/1
f 529/20/1 530/21/1 531/15/1 532/12/1
f 533/21/1 534/17/1 535/7/1 536/15/1
f 537/7/1 538/8/1 539/9/1 540/10/1
f 541/11/1 542/12/1 543/13/1 544/14/1
f 545/12/1 546/15/1 547/16/1 548/13/1
f 549/15/1 550/7/1 551/10/1 552/16/1
f 553/7/1 554/8/1 555/9/1 556/10/1
f 557/11/1 558/12/1 559/13/1 560/14/1
f 561/12/1 562/15/1 563/16/1 564/13/1
f 565/15/1 566/7/1 567/10/1 568/16/1
f 569/7/1 570/8/1 571/9/1 572/10/1
f 573/11/1 574/12/1 575/13/1 576/14/1
f 577/12/1 578/15/1 579/16/1 580/13/1
f 581/15/1 582/7/1 583/10/1 584/16/1
f 585/7/1 586/8/1 587/9/1 588/10/1
f 589/11/1 590/12/1 591/13/1 592/14/1
f 593/12/1 594/15/1 595/16/1 596/13/1
f 597/15/1 598/7/1 599/10/1 600/16/1
f 601/17/1 602/18/1 603/8/1 604/7/1
f 605/19/1 606/20/1 607/12/1 608/11/1
f 609/20/1 610/21/1 611/15/1 612/12/1
f 613/21/1 614/17/1 615/7/1 616/15/1
f 617/17/1 618/18/1 619/8/1 620/7/1
f 621/19/1 622/20/1 623/12/1 624/11/1
f 625/20/1 626/21/1 627/15/1 628/12/1
f 629/21/1 630/17/1 631/7/1 632/15/1
f 633/17/1 634/18/1 635/8/1 636/7/1
f 637/19/1 638/20/1 639/12/1 640/11/1
f 641/20/1 642/21/1 643/15/1 644/12/1
f 645/21/1 646/17/1 647/7/1 648/15/1
f 649/17/1 650/18/1 651/8/1 652/7/1
f 653/19/1 654/20/1 655/12/1 656/11/1
f 657/20/1 658/21/1 659/15/1 660/12/1
f 661/21/1 662/17/1 663/7/1 664/15/1
f 665/7/1 666/8/1 667/9/1 668/10/1
f 669/11/1 670/12/1 671/13/1 672/14/1
f 673/12/1 674/15/1 675/16/1 676/13/1
f 677/15/1 678/7/1 679/10/1 680/16/1
f 681/7/1 682/8/1 683/9/1 684/10/1
f 685/11/1 686/12/1 687/13/1 688/14/1
f 689/12/1 690/15/1 691/16/1 692/13/1
f 693/15/1 694/7/1 695/10/1 696/16/1
f 697/7/1 698/8/1 699/9/1 700/10/1
f 701/11/1 702/12/1 703/13/1 704/14/1
f 705/12/1 706/15/1 707/16/1 708/13/1
f 709/15/1 710/7/1 711/10/1 712/16/1
f 713/7/1 714/8/1 715/9/1 716/10/1
f 717/11/1 718/12/1 719/13/1 720/14/1
f 721/12/1 722/15/1 723/16/1 724/13/1
f 725/15/1 726/7/1 727/10/1 728/16/1
f 729/17/1 730/18/1 731/8/1 732/7/1
f 733/19/1 734/20/1 735/12/1 736/11/1
f 737/20/1 738/21/1 739/15/1 740/12/1
f 741/21/1 742/17/1 743/7/1 744/15/1
f 745/17/1 746/18/1 747/8/1 748/7/1
f 749/19/1 750/20/1 751/12/1 752/11/1
f 753/20/1 754/21/1 755/15/1 756/12/1
f 757/21/1 758/17/1 759/7/1 760/15/1
f 761/17/1 762/18/1 763/8/1 764/7/1
f 765/19/1 766/20/1 767/12/1 768/11/1
f 769/20/1 770/21/1 771/15/1 772/12/1
f 773/21/1 774/17/1 775/7/1 776/15/1
f 777/17/1 778/18/1 779/8/1 780/7/1
f 781/19/1 782/20/1 783/12/1 784/11/1
f 785/20/1 786/21/1 787/15/1 788/12/1
f 789/21/1 790/17/1 791/7/1 792/15/1
f 793/7/1 794/8/1 795/9/1 796/10/1
f 797/11/1 798/12/1 799/13/1 800/14/1
f 801/12/1 802/15/1 803/16/1 804/13/1
f 805/15/1 806/7/1 807/10/1 808/16/1
f 809/7/1 810/8/1 811/9/1 812/10/1
f 813/11/1 814/12/1 815/13/1 816/14/1
f 817/12/1 818/15/1 819/16/1 820/13/1
f 821/15/1 822/7/1 823/10/1 824/16/1
f 825/7/1 826/8/1 827/9/1 828/10/1
f 829/11/1 830/12/1 831/13/1 832/14/1
f 833/12/1 834/15/1 835/16/1 836/13/1
f 837/15/1 838/7/1 839/10/1 840/16/1
f 841/7/1 842/8/1 843/9/1 844/10/1
f 845/11/1 846/12/1 847/13/1 848/14/1
f 849/12/1 850/15/1 851/16/1 852/13/1
f 853/15/1 854/7/1 855/10/1 856/16/1
f 857/17/1 858/18/1 859/8/1 860/7/1
f 861/19/1 862/20/1 863/12/1 864/11/1
f 865/20/1 866/21/1 867/15/1 868/12/1
f 869/21/1 870/17/1 871/7/1 872/15/1
f 873/17/1 874/18/1 875/8/1 876/7/1
f 877/19/1 878/20/1 879/12/1 880/11/1
f 881/20/1 882/21/1 883/15/1 884/12/1
f 885/21/1 886/17/1 887/7/1 888/15/1
f 889/17/1 890/18/1 891/8/1 892/7/1
f 893/19/1 894/20/1 895/12/1 896/11/1
f 897/20/1 898/21/1 899/15/1 900/12/1
f 901/21/1 902/17/1 903/7/1 904/15/1
f 905/17/1 906/18/1 907/8/1 908/7/1
f 909/19/1 910/20/1 911/12/1 912/11/1
f 913/20/1 914/21/1 915/15/1 916/12/1
f 917/21/1 918/17/1 919/7/1 920/15/1

