# Tiled2Unity generated file. Do not modify by hand.
# Wavefront file for 'BM2._mesh_0346.obj'

# Vertices (Count = 320)
v 0 -0.64 0
v -0.64 -0.64 0
v -0.64 0 0
v 0 0 0
v -0.64 -0.64 0
v -1.28 -0.64 0
v -1.28 0 0
v -0.64 0 0
v -1.28 -0.64 0
v -1.92 -0.64 0
v -1.92 0 0
v -1.28 0 0
v -1.92 -0.64 0
v -2.56 -0.64 0
v -2.56 0 0
v -1.92 0 0
v -2.56 -0.64 0
v -3.2 -0.64 0
v -3.2 0 0
v -2.56 0 0
v 0 -1.28 0
v -0.64 -1.28 0
v -0.64 -0.64 0
v 0 -0.64 0
v -0.64 -1.28 0
v -1.28 -1.28 0
v -1.28 -0.64 0
v -0.64 -0.64 0
v -1.28 -1.28 0
v -1.92 -1.28 0
v -1.92 -0.64 0
v -1.28 -0.64 0
v -1.92 -1.28 0
v -2.56 -1.28 0
v -2.56 -0.64 0
v -1.92 -0.64 0
v -2.56 -1.28 0
v -3.2 -1.28 0
v -3.2 -0.64 0
v -2.56 -0.64 0
v 0 -1.92 0
v -0.64 -1.92 0
v -0.64 -1.28 0
v 0 -1.28 0
v -0.64 -1.92 0
v -1.28 -1.92 0
v -1.28 -1.28 0
v -0.64 -1.28 0
v -1.28 -1.92 0
v -1.92 -1.92 0
v -1.92 -1.28 0
v -1.28 -1.28 0
v -1.92 -1.92 0
v -2.56 -1.92 0
v -2.56 -1.28 0
v -1.92 -1.28 0
v -2.56 -1.92 0
v -3.2 -1.92 0
v -3.2 -1.28 0
v -2.56 -1.28 0
v 0 -2.56 0
v -0.64 -2.56 0
v -0.64 -1.92 0
v 0 -1.92 0
v -0.64 -2.56 0
v -1.28 -2.56 0
v -1.28 -1.92 0
v -0.64 -1.92 0
v -1.28 -2.56 0
v -1.92 -2.56 0
v -1.92 -1.92 0
v -1.28 -1.92 0
v -1.92 -2.56 0
v -2.56 -2.56 0
v -2.56 -1.92 0
v -1.92 -1.92 0
v -2.56 -2.56 0
v -3.2 -2.56 0
v -3.2 -1.92 0
v -2.56 -1.92 0
v 0 -3.2 0
v -0.64 -3.2 0
v -0.64 -2.56 0
v 0 -2.56 0
v -0.64 -3.2 0
v -1.28 -3.2 0
v -1.28 -2.56 0
v -0.64 -2.56 0
v -1.28 -3.2 0
v -1.92 -3.2 0
v -1.92 -2.56 0
v -1.28 -2.56 0
v -1.92 -3.2 0
v -2.56 -3.2 0
v -2.56 -2.56 0
v -1.92 -2.56 0
v -2.56 -3.2 0
v -3.2 -3.2 0
v -3.2 -2.56 0
v -2.56 -2.56 0
v 0 -3.84 0
v -0.64 -3.84 0
v -0.64 -3.2 0
v 0 -3.2 0
v -0.64 -3.84 0
v -1.28 -3.84 0
v -1.28 -3.2 0
v -0.64 -3.2 0
v -1.28 -3.84 0
v -1.92 -3.84 0
v -1.92 -3.2 0
v -1.28 -3.2 0
v -1.92 -3.84 0
v -2.56 -3.84 0
v -2.56 -3.2 0
v -1.92 -3.2 0
v -2.56 -3.84 0
v -3.2 -3.84 0
v -3.2 -3.2 0
v -2.56 -3.2 0
v 0 -4.48 0
v -0.64 -4.48 0
v -0.64 -3.84 0
v 0 -3.84 0
v -0.64 -4.48 0
v -1.28 -4.48 0
v -1.28 -3.84 0
v -0.64 -3.84 0
v -1.28 -4.48 0
v -1.92 -4.48 0
v -1.92 -3.84 0
v -1.28 -3.84 0
v -1.92 -4.48 0
v -2.56 -4.48 0
v -2.56 -3.84 0
v -1.92 -3.84 0
v -2.56 -4.48 0
v -3.2 -4.48 0
v -3.2 -3.84 0
v -2.56 -3.84 0
v 0 -5.12 0
v -0.64 -5.12 0
v -0.64 -4.48 0
v 0 -4.48 0
v -0.64 -5.12 0
v -1.28 -5.12 0
v -1.28 -4.48 0
v -0.64 -4.48 0
v -1.28 -5.12 0
v -1.92 -5.12 0
v -1.92 -4.48 0
v -1.28 -4.48 0
v -1.92 -5.12 0
v -2.56 -5.12 0
v -2.56 -4.48 0
v -1.92 -4.48 0
v -2.56 -5.12 0
v -3.2 -5.12 0
v -3.2 -4.48 0
v -2.56 -4.48 0
v 0 -5.76 0
v -0.64 -5.76 0
v -0.64 -5.12 0
v 0 -5.12 0
v -0.64 -5.76 0
v -1.28 -5.76 0
v -1.28 -5.12 0
v -0.64 -5.12 0
v -1.28 -5.76 0
v -1.92 -5.76 0
v -1.92 -5.12 0
v -1.28 -5.12 0
v -1.92 -5.76 0
v -2.56 -5.76 0
v -2.56 -5.12 0
v -1.92 -5.12 0
v -2.56 -5.76 0
v -3.2 -5.76 0
v -3.2 -5.12 0
v -2.56 -5.12 0
v 0 -6.4 0
v -0.64 -6.4 0
v -0.64 -5.76 0
v 0 -5.76 0
v -0.64 -6.4 0
v -1.28 -6.4 0
v -1.28 -5.76 0
v -0.64 -5.76 0
v -1.28 -6.4 0
v -1.92 -6.4 0
v -1.92 -5.76 0
v -1.28 -5.76 0
v -1.92 -6.4 0
v -2.56 -6.4 0
v -2.56 -5.76 0
v -1.92 -5.76 0
v -2.56 -6.4 0
v -3.2 -6.4 0
v -3.2 -5.76 0
v -2.56 -5.76 0
v 0 -7.04 0
v -0.64 -7.04 0
v -0.64 -6.4 0
v 0 -6.4 0
v -0.64 -7.04 0
v -1.28 -7.04 0
v -1.28 -6.4 0
v -0.64 -6.4 0
v -1.28 -7.04 0
v -1.92 -7.04 0
v -1.92 -6.4 0
v -1.28 -6.4 0
v -1.92 -7.04 0
v -2.56 -7.04 0
v -2.56 -6.4 0
v -1.92 -6.4 0
v -2.56 -7.04 0
v -3.2 -7.04 0
v -3.2 -6.4 0
v -2.56 -6.4 0
v 0 -7.68 0
v -0.64 -7.68 0
v -0.64 -7.04 0
v 0 -7.04 0
v -0.64 -7.68 0
v -1.28 -7.68 0
v -1.28 -7.04 0
v -0.64 -7.04 0
v -1.28 -7.68 0
v -1.92 -7.68 0
v -1.92 -7.04 0
v -1.28 -7.04 0
v -1.92 -7.68 0
v -2.56 -7.68 0
v -2.56 -7.04 0
v -1.92 -7.04 0
v -2.56 -7.68 0
v -3.2 -7.68 0
v -3.2 -7.04 0
v -2.56 -7.04 0
v 0 -8.32 0
v -0.64 -8.32 0
v -0.64 -7.68 0
v 0 -7.68 0
v -0.64 -8.32 0
v -1.28 -8.32 0
v -1.28 -7.68 0
v -0.64 -7.68 0
v -1.28 -8.32 0
v -1.92 -8.32 0
v -1.92 -7.68 0
v -1.28 -7.68 0
v -1.92 -8.32 0
v -2.56 -8.32 0
v -2.56 -7.68 0
v -1.92 -7.68 0
v -2.56 -8.32 0
v -3.2 -8.32 0
v -3.2 -7.68 0
v -2.56 -7.68 0
v 0 -8.96 0
v -0.64 -8.96 0
v -0.64 -8.32 0
v 0 -8.32 0
v -0.64 -8.96 0
v -1.28 -8.96 0
v -1.28 -8.32 0
v -0.64 -8.32 0
v -1.28 -8.96 0
v -1.92 -8.96 0
v -1.92 -8.32 0
v -1.28 -8.32 0
v -1.92 -8.96 0
v -2.56 -8.96 0
v -2.56 -8.32 0
v -1.92 -8.32 0
v -2.56 -8.96 0
v -3.2 -8.96 0
v -3.2 -8.32 0
v -2.56 -8.32 0
v 0 -9.599999 0
v -0.64 -9.599999 0
v -0.64 -8.96 0
v 0 -8.96 0
v -0.64 -9.599999 0
v -1.28 -9.599999 0
v -1.28 -8.96 0
v -0.64 -8.96 0
v -1.28 -9.599999 0
v -1.92 -9.599999 0
v -1.92 -8.96 0
v -1.28 -8.96 0
v -1.92 -9.599999 0
v -2.56 -9.599999 0
v -2.56 -8.96 0
v -1.92 -8.96 0
v -2.56 -9.599999 0
v -3.2 -9.599999 0
v -3.2 -8.96 0
v -2.56 -8.96 0
v 0 -10.24 0
v -0.64 -10.24 0
v -0.64 -9.599999 0
v 0 -9.599999 0
v -0.64 -10.24 0
v -1.28 -10.24 0
v -1.28 -9.599999 0
v -0.64 -9.599999 0
v -1.28 -10.24 0
v -1.92 -10.24 0
v -1.92 -9.599999 0
v -1.28 -9.599999 0
v -1.92 -10.24 0
v -2.56 -10.24 0
v -2.56 -9.599999 0
v -1.92 -9.599999 0
v -2.56 -10.24 0
v -3.2 -10.24 0
v -3.2 -9.599999 0
v -2.56 -9.599999 0

# Texture cooridinates (Count = 25)
vt 0.625 0.2
vt 0.75 0.2
vt 0.75 0.3
vt 0.625 0.3
vt 0.25 0.2
vt 0.375 0.2
vt 0.375 0.3
vt 0.25 0.3
vt 0.5 0.2
vt 0.5 0.3
vt 0.625 0.1
vt 0.75 0.1
vt 0.25 0.1
vt 0.375 0.1
vt 0.5 0.1
vt 0.625 0
vt 0.75 0
vt 0.25 0
vt 0.375 0
vt 0.5 0
vt 0.75 0.4
vt 0.625 0.4
vt 0.375 0.4
vt 0.25 0.4
vt 0.5 0.4

# Normal
vn 0 0 -1

# Mesh description
g BM2._mesh_0346

# Faces
f 1/1/1 2/2/1 3/3/1 4/4/1
f 5/5/1 6/6/1 7/7/1 8/8/1
f 9/6/1 10/9/1 11/10/1 12/7/1
f 13/9/1 14/1/1 15/4/1 16/10/1
f 17/1/1 18/2/1 19/3/1 20/4/1
f 21/11/1 22/12/1 23/2/1 24/1/1
f 25/13/1 26/14/1 27/6/1 28/5/1
f 29/14/1 30/15/1 31/9/1 32/6/1
f 33/15/1 34/11/1 35/1/1 36/9/1
f 37/11/1 38/12/1 39/2/1 40/1/1
f 41/16/1 42/17/1 43/12/1 44/11/1
f 45/18/1 46/19/1 47/14/1 48/13/1
f 49/19/1 50/20/1 51/15/1 52/14/1
f 53/20/1 54/16/1 55/11/1 56/15/1
f 57/16/1 58/17/1 59/12/1 60/11/1
f 61/4/1 62/3/1 63/21/1 64/22/1
f 65/8/1 66/7/1 67/23/1 68/24/1
f 69/7/1 70/10/1 71/25/1 72/23/1
f 73/10/1 74/4/1 75/22/1 76/25/1
f 77/4/1 78/3/1 79/21/1 80/22/1
f 81/1/1 82/2/1 83/3/1 84/4/1
f 85/5/1 86/6/1 87/7/1 88/8/1
f 89/6/1 90/9/1 91/10/1 92/7/1
f 93/9/1 94/1/1 95/4/1 96/10/1
f 97/1/1 98/2/1 99/3/1 100/4/1
f 101/11/1 102/12/1 103/2/1 104/1/1
f 105/13/1 106/14/1 107/6/1 108/5/1
f 109/14/1 110/15/1 111/9/1 112/6/1
f 113/15/1 114/11/1 115/1/1 116/9/1
f 117/11/1 118/12/1 119/2/1 120/1/1
f 121/16/1 122/17/1 123/12/1 124/11/1
f 125/18/1 126/19/1 127/14/1 128/13/1
f 129/19/1 130/20/1 131/15/1 132/14/1
f 133/20/1 134/16/1 135/11/1 136/15/1
f 137/16/1 138/17/1 139/12/1 140/11/1
f 141/4/1 142/3/1 143/21/1 144/22/1
f 145/8/1 146/7/1 147/23/1 148/24/1
f 149/7/1 150/10/1 151/25/1 152/23/1
f 153/10/1 154/4/1 155/22/1 156/25/1
f 157/4/1 158/3/1 159/21/1 160/22/1
f 161/1/1 162/2/1 163/3/1 164/4/1
f 165/5/1 166/6/1 167/7/1 168/8/1
f 169/6/1 170/9/1 171/10/1 172/7/1
f 173/9/1 174/1/1 175/4/1 176/10/1
f 177/1/1 178/2/1 179/3/1 180/4/1
f 181/11/1 182/12/1 183/2/1 184/1/1
f 185/13/1 186/14/1 187/6/1 188/5/1
f 189/14/1 190/15/1 191/9/1 192/6/1
f 193/15/1 194/11/1 195/1/1 196/9/1
f 197/11/1 198/12/1 199/2/1 200/1/1
f 201/16/1 202/17/1 203/12/1 204/11/1
f 205/18/1 206/19/1 207/14/1 208/13/1
f 209/19/1 210/20/1 211/15/1 212/14/1
f 213/20/1 214/16/1 215/11/1 216/15/1
f 217/16/1 218/17/1 219/12/1 220/11/1
f 221/4/1 222/3/1 223/21/1 224/22/1
f 225/8/1 226/7/1 227/23/1 228/24/1
f 229/7/1 230/10/1 231/25/1 232/23/1
f 233/10/1 234/4/1 235/22/1 236/25/1
f 237/4/1 238/3/1 239/21/1 240/22/1
f 241/1/1 242/2/1 243/3/1 244/4/1
f 245/5/1 246/6/1 247/7/1 248/8/1
f 249/6/1 250/9/1 251/10/1 252/7/1
f 253/9/1 254/1/1 255/4/1 256/10/1
f 257/1/1 258/2/1 259/3/1 260/4/1
f 261/11/1 262/12/1 263/2/1 264/1/1
f 265/13/1 266/14/1 267/6/1 268/5/1
f 269/14/1 270/15/1 271/9/1 272/6/1
f 273/15/1 274/11/1 275/1/1 276/9/1
f 277/11/1 278/12/1 279/2/1 280/1/1
f 281/16/1 282/17/1 283/12/1 284/11/1
f 285/18/1 286/19/1 287/14/1 288/13/1
f 289/19/1 290/20/1 291/15/1 292/14/1
f 293/20/1 294/16/1 295/11/1 296/15/1
f 297/16/1 298/17/1 299/12/1 300/11/1
f 301/4/1 302/3/1 303/21/1 304/22/1
f 305/8/1 306/7/1 307/23/1 308/24/1
f 309/7/1 310/10/1 311/25/1 312/23/1
f 313/10/1 314/4/1 315/22/1 316/25/1
f 317/4/1 318/3/1 319/21/1 320/22/1

