# Tiled2Unity generated file. Do not modify by hand.
# Wavefront file for 'BM2._mesh_0342.obj'

# Vertices (Count = 180)
v 0 -5.12 0
v -0.64 -5.12 0
v -0.64 -4.48 0
v 0 -4.48 0
v -0.64 -5.12 0
v -1.28 -5.12 0
v -1.28 -4.48 0
v -0.64 -4.48 0
v -1.28 -5.12 0
v -1.92 -5.12 0
v -1.92 -4.48 0
v -1.28 -4.48 0
v -1.92 -5.12 0
v -2.56 -5.12 0
v -2.56 -4.48 0
v -1.92 -4.48 0
v -2.56 -5.12 0
v -3.2 -5.12 0
v -3.2 -4.48 0
v -2.56 -4.48 0
v 0 -5.76 0
v -0.64 -5.76 0
v -0.64 -5.12 0
v 0 -5.12 0
v -0.64 -5.76 0
v -1.28 -5.76 0
v -1.28 -5.12 0
v -0.64 -5.12 0
v -1.28 -5.76 0
v -1.92 -5.76 0
v -1.92 -5.12 0
v -1.28 -5.12 0
v -1.92 -5.76 0
v -2.56 -5.76 0
v -2.56 -5.12 0
v -1.92 -5.12 0
v -2.56 -5.76 0
v -3.2 -5.76 0
v -3.2 -5.12 0
v -2.56 -5.12 0
v 0 -6.4 0
v -0.64 -6.4 0
v -0.64 -5.76 0
v 0 -5.76 0
v -0.64 -6.4 0
v -1.28 -6.4 0
v -1.28 -5.76 0
v -0.64 -5.76 0
v -1.28 -6.4 0
v -1.92 -6.4 0
v -1.92 -5.76 0
v -1.28 -5.76 0
v -1.92 -6.4 0
v -2.56 -6.4 0
v -2.56 -5.76 0
v -1.92 -5.76 0
v -2.56 -6.4 0
v -3.2 -6.4 0
v -3.2 -5.76 0
v -2.56 -5.76 0
v 0 -7.04 0
v -0.64 -7.04 0
v -0.64 -6.4 0
v 0 -6.4 0
v -0.64 -7.04 0
v -1.28 -7.04 0
v -1.28 -6.4 0
v -0.64 -6.4 0
v -1.28 -7.04 0
v -1.92 -7.04 0
v -1.92 -6.4 0
v -1.28 -6.4 0
v -1.92 -7.04 0
v -2.56 -7.04 0
v -2.56 -6.4 0
v -1.92 -6.4 0
v -2.56 -7.04 0
v -3.2 -7.04 0
v -3.2 -6.4 0
v -2.56 -6.4 0
v 0 -7.68 0
v -0.64 -7.68 0
v -0.64 -7.04 0
v 0 -7.04 0
v -0.64 -7.68 0
v -1.28 -7.68 0
v -1.28 -7.04 0
v -0.64 -7.04 0
v -1.28 -7.68 0
v -1.92 -7.68 0
v -1.92 -7.04 0
v -1.28 -7.04 0
v -1.92 -7.68 0
v -2.56 -7.68 0
v -2.56 -7.04 0
v -1.92 -7.04 0
v -2.56 -7.68 0
v -3.2 -7.68 0
v -3.2 -7.04 0
v -2.56 -7.04 0
v 0 -8.32 0
v -0.64 -8.32 0
v -0.64 -7.68 0
v 0 -7.68 0
v -0.64 -8.32 0
v -1.28 -8.32 0
v -1.28 -7.68 0
v -0.64 -7.68 0
v -1.28 -8.32 0
v -1.92 -8.32 0
v -1.92 -7.68 0
v -1.28 -7.68 0
v -1.92 -8.32 0
v -2.56 -8.32 0
v -2.56 -7.68 0
v -1.92 -7.68 0
v -2.56 -8.32 0
v -3.2 -8.32 0
v -3.2 -7.68 0
v -2.56 -7.68 0
v 0 -8.96 0
v -0.64 -8.96 0
v -0.64 -8.32 0
v 0 -8.32 0
v -0.64 -8.96 0
v -1.28 -8.96 0
v -1.28 -8.32 0
v -0.64 -8.32 0
v -1.28 -8.96 0
v -1.92 -8.96 0
v -1.92 -8.32 0
v -1.28 -8.32 0
v -1.92 -8.96 0
v -2.56 -8.96 0
v -2.56 -8.32 0
v -1.92 -8.32 0
v -2.56 -8.96 0
v -3.2 -8.96 0
v -3.2 -8.32 0
v -2.56 -8.32 0
v 0 -9.599999 0
v -0.64 -9.599999 0
v -0.64 -8.96 0
v 0 -8.96 0
v -0.64 -9.599999 0
v -1.28 -9.599999 0
v -1.28 -8.96 0
v -0.64 -8.96 0
v -1.28 -9.599999 0
v -1.92 -9.599999 0
v -1.92 -8.96 0
v -1.28 -8.96 0
v -1.92 -9.599999 0
v -2.56 -9.599999 0
v -2.56 -8.96 0
v -1.92 -8.96 0
v -2.56 -9.599999 0
v -3.2 -9.599999 0
v -3.2 -8.96 0
v -2.56 -8.96 0
v 0 -10.24 0
v -0.64 -10.24 0
v -0.64 -9.599999 0
v 0 -9.599999 0
v -0.64 -10.24 0
v -1.28 -10.24 0
v -1.28 -9.599999 0
v -0.64 -9.599999 0
v -1.28 -10.24 0
v -1.92 -10.24 0
v -1.92 -9.599999 0
v -1.28 -9.599999 0
v -1.92 -10.24 0
v -2.56 -10.24 0
v -2.56 -9.599999 0
v -1.92 -9.599999 0
v -2.56 -10.24 0
v -3.2 -10.24 0
v -3.2 -9.599999 0
v -2.56 -9.599999 0

# Texture cooridinates (Count = 25)
vt 0.625 0.3
vt 0.75 0.3
vt 0.75 0.4
vt 0.625 0.4
vt 0.25 0.3
vt 0.375 0.3
vt 0.375 0.4
vt 0.25 0.4
vt 0.5 0.3
vt 0.5 0.4
vt 0.625 0.2
vt 0.75 0.2
vt 0.375 0
vt 0.375 0.1
vt 0.25 0.1
vt 0.25 0
vt 0.375 0.2
vt 0.25 0.2
vt 0.5 0
vt 0.5 0.1
vt 0.5 0.2
vt 0.625 0.1
vt 0.75 0.1
vt 0.625 0
vt 0.75 0

# Normal
vn 0 0 -1

# Mesh description
g BM2._mesh_0342

# Faces
f 1/1/1 2/2/1 3/3/1 4/4/1
f 5/5/1 6/6/1 7/7/1 8/8/1
f 9/6/1 10/9/1 11/10/1 12/7/1
f 13/9/1 14/1/1 15/4/1 16/10/1
f 17/1/1 18/2/1 19/3/1 20/4/1
f 21/11/1 22/12/1 23/2/1 24/1/1
f 25/5/1 26/6/1 27/7/1 28/8/1
f 29/6/1 30/9/1 31/10/1 32/7/1
f 33/9/1 34/1/1 35/4/1 36/10/1
f 37/1/1 38/2/1 39/3/1 40/4/1
f 41/1/1 42/2/1 43/3/1 44/4/1
f 45/13/1 46/14/1 47/15/1 48/16/1
f 49/14/1 50/17/1 51/18/1 52/15/1
f 53/17/1 54/6/1 55/5/1 56/18/1
f 57/6/1 58/7/1 59/8/1 60/5/1
f 61/11/1 62/12/1 63/2/1 64/1/1
f 65/19/1 66/20/1 67/14/1 68/13/1
f 69/20/1 70/21/1 71/17/1 72/14/1
f 73/21/1 74/9/1 75/6/1 76/17/1
f 77/9/1 78/10/1 79/7/1 80/6/1
f 81/22/1 82/23/1 83/12/1 84/11/1
f 85/24/1 86/22/1 87/20/1 88/19/1
f 89/22/1 90/11/1 91/21/1 92/20/1
f 93/11/1 94/1/1 95/9/1 96/21/1
f 97/1/1 98/4/1 99/10/1 100/9/1
f 101/24/1 102/25/1 103/23/1 104/22/1
f 105/25/1 106/23/1 107/22/1 108/24/1
f 109/23/1 110/12/1 111/11/1 112/22/1
f 113/12/1 114/2/1 115/1/1 116/11/1
f 117/2/1 118/3/1 119/4/1 120/1/1
f 121/1/1 122/2/1 123/3/1 124/4/1
f 125/18/1 126/17/1 127/6/1 128/5/1
f 129/17/1 130/21/1 131/9/1 132/6/1
f 133/21/1 134/11/1 135/1/1 136/9/1
f 137/11/1 138/12/1 139/2/1 140/1/1
f 141/11/1 142/12/1 143/2/1 144/1/1
f 145/23/1 146/22/1 147/24/1 148/25/1
f 149/22/1 150/20/1 151/19/1 152/24/1
f 153/20/1 154/14/1 155/13/1 156/19/1
f 157/14/1 158/15/1 159/16/1 160/13/1
f 161/22/1 162/23/1 163/12/1 164/11/1
f 165/12/1 166/11/1 167/22/1 168/23/1
f 169/11/1 170/21/1 171/20/1 172/22/1
f 173/21/1 174/17/1 175/14/1 176/20/1
f 177/17/1 178/18/1 179/15/1 180/14/1

