# Tiled2Unity generated file. Do not modify by hand.
# Wavefront file for 'BM2._mesh_0438.obj'

# Vertices (Count = 8)
v 0 -4.48 0
v -0.64 -4.48 0
v -0.64 -3.84 0
v 0 -3.84 0
v -0.64 -4.48 0
v -1.28 -4.48 0
v -1.28 -3.84 0
v -0.64 -3.84 0

# Texture cooridinates (Count = 6)
vt 0.75 0.2222222
vt 0.7916667 0.2222222
vt 0.7916667 0.2777778
vt 0.75 0.2777778
vt 0.8333333 0.2222222
vt 0.8333333 0.2777778

# Normal
vn 0 0 -1

# Mesh description
g BM2._mesh_0438

# Faces
f 1/1/1 2/2/1 3/3/1 4/4/1
f 5/2/1 6/5/1 7/6/1 8/3/1

