# Tiled2Unity generated file. Do not modify by hand.
# Wavefront file for 'BM2._mesh_0094.obj'

# Vertices (Count = 168)
v 0 -0.64 0
v -0.64 -0.64 0
v -0.64 0 0
v 0 0 0
v -0.64 -0.64 0
v -1.28 -0.64 0
v -1.28 0 0
v -0.64 0 0
v -1.28 -0.64 0
v -1.92 -0.64 0
v -1.92 0 0
v -1.28 0 0
v -1.92 -0.64 0
v -2.56 -0.64 0
v -2.56 0 0
v -1.92 0 0
v -2.56 -0.64 0
v -3.2 -0.64 0
v -3.2 0 0
v -2.56 0 0
v -3.2 -0.64 0
v -3.84 -0.64 0
v -3.84 0 0
v -3.2 0 0
v 0 -1.28 0
v -0.64 -1.28 0
v -0.64 -0.64 0
v 0 -0.64 0
v -0.64 -1.28 0
v -1.28 -1.28 0
v -1.28 -0.64 0
v -0.64 -0.64 0
v -1.28 -1.28 0
v -1.92 -1.28 0
v -1.92 -0.64 0
v -1.28 -0.64 0
v -1.92 -1.28 0
v -2.56 -1.28 0
v -2.56 -0.64 0
v -1.92 -0.64 0
v -2.56 -1.28 0
v -3.2 -1.28 0
v -3.2 -0.64 0
v -2.56 -0.64 0
v -3.2 -1.28 0
v -3.84 -1.28 0
v -3.84 -0.64 0
v -3.2 -0.64 0
v 0 -1.92 0
v -0.64 -1.92 0
v -0.64 -1.28 0
v 0 -1.28 0
v -0.64 -1.92 0
v -1.28 -1.92 0
v -1.28 -1.28 0
v -0.64 -1.28 0
v -1.28 -1.92 0
v -1.92 -1.92 0
v -1.92 -1.28 0
v -1.28 -1.28 0
v -1.92 -1.92 0
v -2.56 -1.92 0
v -2.56 -1.28 0
v -1.92 -1.28 0
v -2.56 -1.92 0
v -3.2 -1.92 0
v -3.2 -1.28 0
v -2.56 -1.28 0
v -3.2 -1.92 0
v -3.84 -1.92 0
v -3.84 -1.28 0
v -3.2 -1.28 0
v 0 -2.56 0
v -0.64 -2.56 0
v -0.64 -1.92 0
v 0 -1.92 0
v -0.64 -2.56 0
v -1.28 -2.56 0
v -1.28 -1.92 0
v -0.64 -1.92 0
v -1.28 -2.56 0
v -1.92 -2.56 0
v -1.92 -1.92 0
v -1.28 -1.92 0
v -1.92 -2.56 0
v -2.56 -2.56 0
v -2.56 -1.92 0
v -1.92 -1.92 0
v -2.56 -2.56 0
v -3.2 -2.56 0
v -3.2 -1.92 0
v -2.56 -1.92 0
v -3.2 -2.56 0
v -3.84 -2.56 0
v -3.84 -1.92 0
v -3.2 -1.92 0
v 0 -3.2 0
v -0.64 -3.2 0
v -0.64 -2.56 0
v 0 -2.56 0
v -0.64 -3.2 0
v -1.28 -3.2 0
v -1.28 -2.56 0
v -0.64 -2.56 0
v -1.28 -3.2 0
v -1.92 -3.2 0
v -1.92 -2.56 0
v -1.28 -2.56 0
v -1.92 -3.2 0
v -2.56 -3.2 0
v -2.56 -2.56 0
v -1.92 -2.56 0
v -2.56 -3.2 0
v -3.2 -3.2 0
v -3.2 -2.56 0
v -2.56 -2.56 0
v -3.2 -3.2 0
v -3.84 -3.2 0
v -3.84 -2.56 0
v -3.2 -2.56 0
v 0 -3.84 0
v -0.64 -3.84 0
v -0.64 -3.2 0
v 0 -3.2 0
v -0.64 -3.84 0
v -1.28 -3.84 0
v -1.28 -3.2 0
v -0.64 -3.2 0
v -1.28 -3.84 0
v -1.92 -3.84 0
v -1.92 -3.2 0
v -1.28 -3.2 0
v -1.92 -3.84 0
v -2.56 -3.84 0
v -2.56 -3.2 0
v -1.92 -3.2 0
v -2.56 -3.84 0
v -3.2 -3.84 0
v -3.2 -3.2 0
v -2.56 -3.2 0
v -3.2 -3.84 0
v -3.84 -3.84 0
v -3.84 -3.2 0
v -3.2 -3.2 0
v 0 -4.48 0
v -0.64 -4.48 0
v -0.64 -3.84 0
v 0 -3.84 0
v -0.64 -4.48 0
v -1.28 -4.48 0
v -1.28 -3.84 0
v -0.64 -3.84 0
v -1.28 -4.48 0
v -1.92 -4.48 0
v -1.92 -3.84 0
v -1.28 -3.84 0
v -1.92 -4.48 0
v -2.56 -4.48 0
v -2.56 -3.84 0
v -1.92 -3.84 0
v -2.56 -4.48 0
v -3.2 -4.48 0
v -3.2 -3.84 0
v -2.56 -3.84 0
v -3.2 -4.48 0
v -3.84 -4.48 0
v -3.84 -3.84 0
v -3.2 -3.84 0

# Texture cooridinates (Count = 56)
vt 0.04166667 0.2
vt 0.08333334 0.2
vt 0.08333334 0.2333333
vt 0.04166667 0.2333333
vt 0.125 0.2
vt 0.125 0.2333333
vt 0.1666667 0.2
vt 0.1666667 0.2333333
vt 0.2083333 0.2
vt 0.2083333 0.2333333
vt 0.25 0.2
vt 0.25 0.2333333
vt 0.2916667 0.2
vt 0.2916667 0.2333333
vt 0.04166667 0.1666667
vt 0.08333334 0.1666667
vt 0.125 0.1666667
vt 0.1666667 0.1666667
vt 0.2083333 0.1666667
vt 0.25 0.1666667
vt 0.2916667 0.1666667
vt 0.04166667 0.1333333
vt 0.08333334 0.1333333
vt 0.125 0.1333333
vt 0.1666667 0.1333333
vt 0.2083333 0.1333333
vt 0.25 0.1333333
vt 0.2916667 0.1333333
vt 0.04166667 0.1
vt 0.08333334 0.1
vt 0.125 0.1
vt 0.1666667 0.1
vt 0.2083333 0.1
vt 0.25 0.1
vt 0.2916667 0.1
vt 0.04166667 0.06666666
vt 0.08333334 0.06666666
vt 0.125 0.06666666
vt 0.1666667 0.06666666
vt 0.2083333 0.06666666
vt 0.25 0.06666666
vt 0.2916667 0.06666666
vt 0.04166667 0.03333336
vt 0.08333334 0.03333336
vt 0.125 0.03333336
vt 0.1666667 0.03333336
vt 0.2083333 0.03333336
vt 0.25 0.03333336
vt 0.2916667 0.03333336
vt 0.04166667 0
vt 0.08333334 0
vt 0.125 0
vt 0.1666667 0
vt 0.2083333 0
vt 0.25 0
vt 0.2916667 0

# Normal
vn 0 0 -1

# Mesh description
g BM2._mesh_0094

# Faces
f 1/1/1 2/2/1 3/3/1 4/4/1
f 5/2/1 6/5/1 7/6/1 8/3/1
f 9/5/1 10/7/1 11/8/1 12/6/1
f 13/7/1 14/9/1 15/10/1 16/8/1
f 17/9/1 18/11/1 19/12/1 20/10/1
f 21/11/1 22/13/1 23/14/1 24/12/1
f 25/15/1 26/16/1 27/2/1 28/1/1
f 29/16/1 30/17/1 31/5/1 32/2/1
f 33/17/1 34/18/1 35/7/1 36/5/1
f 37/18/1 38/19/1 39/9/1 40/7/1
f 41/19/1 42/20/1 43/11/1 44/9/1
f 45/20/1 46/21/1 47/13/1 48/11/1
f 49/22/1 50/23/1 51/16/1 52/15/1
f 53/23/1 54/24/1 55/17/1 56/16/1
f 57/24/1 58/25/1 59/18/1 60/17/1
f 61/25/1 62/26/1 63/19/1 64/18/1
f 65/26/1 66/27/1 67/20/1 68/19/1
f 69/27/1 70/28/1 71/21/1 72/20/1
f 73/29/1 74/30/1 75/23/1 76/22/1
f 77/30/1 78/31/1 79/24/1 80/23/1
f 81/31/1 82/32/1 83/25/1 84/24/1
f 85/32/1 86/33/1 87/26/1 88/25/1
f 89/33/1 90/34/1 91/27/1 92/26/1
f 93/34/1 94/35/1 95/28/1 96/27/1
f 97/36/1 98/37/1 99/30/1 100/29/1
f 101/37/1 102/38/1 103/31/1 104/30/1
f 105/38/1 106/39/1 107/32/1 108/31/1
f 109/39/1 110/40/1 111/33/1 112/32/1
f 113/40/1 114/41/1 115/34/1 116/33/1
f 117/41/1 118/42/1 119/35/1 120/34/1
f 121/43/1 122/44/1 123/37/1 124/36/1
f 125/44/1 126/45/1 127/38/1 128/37/1
f 129/45/1 130/46/1 131/39/1 132/38/1
f 133/46/1 134/47/1 135/40/1 136/39/1
f 137/47/1 138/48/1 139/41/1 140/40/1
f 141/48/1 142/49/1 143/42/1 144/41/1
f 145/50/1 146/51/1 147/44/1 148/43/1
f 149/51/1 150/52/1 151/45/1 152/44/1
f 153/52/1 154/53/1 155/46/1 156/45/1
f 157/53/1 158/54/1 159/47/1 160/46/1
f 161/54/1 162/55/1 163/48/1 164/47/1
f 165/55/1 166/56/1 167/49/1 168/48/1

