# Tiled2Unity generated file. Do not modify by hand.
# Wavefront file for 'BM2._mesh_0013.obj'

# Vertices (Count = 216)
v -1.92 -0.64 0
v -2.56 -0.64 0
v -2.56 0 0
v -1.92 0 0
v -2.56 -0.64 0
v -3.2 -0.64 0
v -3.2 0 0
v -2.56 0 0
v -3.2 -0.64 0
v -3.84 -0.64 0
v -3.84 0 0
v -3.2 0 0
v -3.84 -0.64 0
v -4.48 -0.64 0
v -4.48 0 0
v -3.84 0 0
v -4.48 -0.64 0
v -5.12 -0.64 0
v -5.12 0 0
v -4.48 0 0
v -5.12 -0.64 0
v -5.76 -0.64 0
v -5.76 0 0
v -5.12 0 0
v -5.76 -0.64 0
v -6.4 -0.64 0
v -6.4 0 0
v -5.76 0 0
v -6.4 -0.64 0
v -7.04 -0.64 0
v -7.04 0 0
v -6.4 0 0
v -7.04 -0.64 0
v -7.68 -0.64 0
v -7.68 0 0
v -7.04 0 0
v -7.68 -0.64 0
v -8.32 -0.64 0
v -8.32 0 0
v -7.68 0 0
v -8.32 -0.64 0
v -8.96 -0.64 0
v -8.96 0 0
v -8.32 0 0
v -8.96 -0.64 0
v -9.599999 -0.64 0
v -9.599999 0 0
v -8.96 0 0
v -9.599999 -0.64 0
v -10.24 -0.64 0
v -10.24 0 0
v -9.599999 0 0
v -1.92 -1.28 0
v -2.56 -1.28 0
v -2.56 -0.64 0
v -1.92 -0.64 0
v -2.56 -1.28 0
v -3.2 -1.28 0
v -3.2 -0.64 0
v -2.56 -0.64 0
v -1.92 -1.92 0
v -2.56 -1.92 0
v -2.56 -1.28 0
v -1.92 -1.28 0
v -2.56 -1.92 0
v -3.2 -1.92 0
v -3.2 -1.28 0
v -2.56 -1.28 0
v -1.92 -2.56 0
v -2.56 -2.56 0
v -2.56 -1.92 0
v -1.92 -1.92 0
v -2.56 -2.56 0
v -3.2 -2.56 0
v -3.2 -1.92 0
v -2.56 -1.92 0
v -1.92 -3.2 0
v -2.56 -3.2 0
v -2.56 -2.56 0
v -1.92 -2.56 0
v -2.56 -3.2 0
v -3.2 -3.2 0
v -3.2 -2.56 0
v -2.56 -2.56 0
v -1.92 -3.84 0
v -2.56 -3.84 0
v -2.56 -3.2 0
v -1.92 -3.2 0
v -2.56 -3.84 0
v -3.2 -3.84 0
v -3.2 -3.2 0
v -2.56 -3.2 0
v -3.2 -3.84 0
v -3.84 -3.84 0
v -3.84 -3.2 0
v -3.2 -3.2 0
v -1.92 -4.48 0
v -2.56 -4.48 0
v -2.56 -3.84 0
v -1.92 -3.84 0
v -2.56 -4.48 0
v -3.2 -4.48 0
v -3.2 -3.84 0
v -2.56 -3.84 0
v -3.2 -4.48 0
v -3.84 -4.48 0
v -3.84 -3.84 0
v -3.2 -3.84 0
v -1.92 -5.12 0
v -2.56 -5.12 0
v -2.56 -4.48 0
v -1.92 -4.48 0
v -2.56 -5.12 0
v -3.2 -5.12 0
v -3.2 -4.48 0
v -2.56 -4.48 0
v -3.2 -5.12 0
v -3.84 -5.12 0
v -3.84 -4.48 0
v -3.2 -4.48 0
v -1.92 -5.76 0
v -2.56 -5.76 0
v -2.56 -5.12 0
v -1.92 -5.12 0
v -2.56 -5.76 0
v -3.2 -5.76 0
v -3.2 -5.12 0
v -2.56 -5.12 0
v -3.2 -5.76 0
v -3.84 -5.76 0
v -3.84 -5.12 0
v -3.2 -5.12 0
v -1.92 -6.4 0
v -2.56 -6.4 0
v -2.56 -5.76 0
v -1.92 -5.76 0
v -2.56 -6.4 0
v -3.2 -6.4 0
v -3.2 -5.76 0
v -2.56 -5.76 0
v -3.2 -6.4 0
v -3.84 -6.4 0
v -3.84 -5.76 0
v -3.2 -5.76 0
v -1.92 -7.04 0
v -2.56 -7.04 0
v -2.56 -6.4 0
v -1.92 -6.4 0
v -2.56 -7.04 0
v -3.2 -7.04 0
v -3.2 -6.4 0
v -2.56 -6.4 0
v -1.92 -7.68 0
v -2.56 -7.68 0
v -2.56 -7.04 0
v -1.92 -7.04 0
v -2.56 -7.68 0
v -3.2 -7.68 0
v -3.2 -7.04 0
v -2.56 -7.04 0
v -1.92 -8.32 0
v -2.56 -8.32 0
v -2.56 -7.68 0
v -1.92 -7.68 0
v -2.56 -8.32 0
v -3.2 -8.32 0
v -3.2 -7.68 0
v -2.56 -7.68 0
v -1.92 -8.96 0
v -2.56 -8.96 0
v -2.56 -8.32 0
v -1.92 -8.32 0
v -2.56 -8.96 0
v -3.2 -8.96 0
v -3.2 -8.32 0
v -2.56 -8.32 0
v -3.2 -8.96 0
v -3.84 -8.96 0
v -3.84 -8.32 0
v -3.2 -8.32 0
v -3.84 -8.96 0
v -4.48 -8.96 0
v -4.48 -8.32 0
v -3.84 -8.32 0
v -1.92 -9.599999 0
v -2.56 -9.599999 0
v -2.56 -8.96 0
v -1.92 -8.96 0
v -2.56 -9.599999 0
v -3.2 -9.599999 0
v -3.2 -8.96 0
v -2.56 -8.96 0
v -3.2 -9.599999 0
v -3.84 -9.599999 0
v -3.84 -8.96 0
v -3.2 -8.96 0
v -3.84 -9.599999 0
v -4.48 -9.599999 0
v -4.48 -8.96 0
v -3.84 -8.96 0
v -1.92 -10.24 0
v -2.56 -10.24 0
v -2.56 -9.599999 0
v -1.92 -9.599999 0
v -2.56 -10.24 0
v -3.2 -10.24 0
v -3.2 -9.599999 0
v -2.56 -9.599999 0
v -3.2 -10.24 0
v -3.84 -10.24 0
v -3.84 -9.599999 0
v -3.2 -9.599999 0
v -3.84 -10.24 0
v -4.48 -10.24 0
v -4.48 -9.599999 0
v -3.84 -9.599999 0

# Texture cooridinates (Count = 9)
vt 0.03125 0.875
vt 0.0625 0.875
vt 0.0625 0.90625
vt 0.03125 0.90625
vt 0.09375 0.875
vt 0.09375 0.90625
vt 0.03125 0.84375
vt 0.0625 0.84375
vt 0.09375 0.84375

# Normal
vn 0 0 -1

# Mesh description
g BM2._mesh_0013

# Faces
f 1/1/1 2/2/1 3/3/1 4/4/1
f 5/2/1 6/5/1 7/6/1 8/3/1
f 9/7/1 10/8/1 11/2/1 12/1/1
f 13/8/1 14/9/1 15/5/1 16/2/1
f 17/8/1 18/9/1 19/5/1 20/2/1
f 21/8/1 22/9/1 23/5/1 24/2/1
f 25/8/1 26/9/1 27/5/1 28/2/1
f 29/8/1 30/9/1 31/5/1 32/2/1
f 33/8/1 34/9/1 35/5/1 36/2/1
f 37/8/1 38/9/1 39/5/1 40/2/1
f 41/8/1 42/9/1 43/5/1 44/2/1
f 45/8/1 46/9/1 47/5/1 48/2/1
f 49/8/1 50/9/1 51/5/1 52/2/1
f 53/1/1 54/2/1 55/3/1 56/4/1
f 57/2/1 58/5/1 59/6/1 60/3/1
f 61/1/1 62/2/1 63/3/1 64/4/1
f 65/2/1 66/5/1 67/6/1 68/3/1
f 69/1/1 70/2/1 71/3/1 72/4/1
f 73/2/1 74/5/1 75/6/1 76/3/1
f 77/1/1 78/2/1 79/3/1 80/4/1
f 81/2/1 82/5/1 83/6/1 84/3/1
f 85/1/1 86/2/1 87/3/1 88/4/1
f 89/2/1 90/5/1 91/6/1 92/3/1
f 93/2/1 94/5/1 95/6/1 96/3/1
f 97/1/1 98/2/1 99/3/1 100/4/1
f 101/2/1 102/5/1 103/6/1 104/3/1
f 105/2/1 106/5/1 107/6/1 108/3/1
f 109/1/1 110/2/1 111/3/1 112/4/1
f 113/2/1 114/5/1 115/6/1 116/3/1
f 117/2/1 118/5/1 119/6/1 120/3/1
f 121/1/1 122/2/1 123/3/1 124/4/1
f 125/2/1 126/5/1 127/6/1 128/3/1
f 129/2/1 130/5/1 131/6/1 132/3/1
f 133/1/1 134/2/1 135/3/1 136/4/1
f 137/2/1 138/5/1 139/6/1 140/3/1
f 141/8/1 142/9/1 143/5/1 144/2/1
f 145/1/1 146/2/1 147/3/1 148/4/1
f 149/2/1 150/5/1 151/6/1 152/3/1
f 153/1/1 154/2/1 155/3/1 156/4/1
f 157/2/1 158/5/1 159/6/1 160/3/1
f 161/1/1 162/2/1 163/3/1 164/4/1
f 165/2/1 166/5/1 167/6/1 168/3/1
f 169/1/1 170/2/1 171/3/1 172/4/1
f 173/2/1 174/5/1 175/6/1 176/3/1
f 177/1/1 178/2/1 179/3/1 180/4/1
f 181/2/1 182/5/1 183/6/1 184/3/1
f 185/1/1 186/2/1 187/3/1 188/4/1
f 189/2/1 190/5/1 191/6/1 192/3/1
f 193/7/1 194/8/1 195/2/1 196/1/1
f 197/8/1 198/9/1 199/5/1 200/2/1
f 201/1/1 202/2/1 203/3/1 204/4/1
f 205/2/1 206/5/1 207/6/1 208/3/1
f 209/7/1 210/8/1 211/2/1 212/1/1
f 213/8/1 214/9/1 215/5/1 216/2/1

