# Tiled2Unity generated file. Do not modify by hand.
# Wavefront file for 'BM2._mesh_0157.obj'

# Vertices (Count = 32)
v -7.04 -9.599999 0
v -7.68 -9.599999 0
v -7.68 -8.96 0
v -7.04 -8.96 0
v -7.68 -9.599999 0
v -8.32 -9.599999 0
v -8.32 -8.96 0
v -7.68 -8.96 0
v -8.32 -9.599999 0
v -8.96 -9.599999 0
v -8.96 -8.96 0
v -8.32 -8.96 0
v -8.96 -9.599999 0
v -9.599999 -9.599999 0
v -9.599999 -8.96 0
v -8.96 -8.96 0
v -7.04 -10.24 0
v -7.68 -10.24 0
v -7.68 -9.599999 0
v -7.04 -9.599999 0
v -7.68 -10.24 0
v -8.32 -10.24 0
v -8.32 -9.599999 0
v -7.68 -9.599999 0
v -8.32 -10.24 0
v -8.96 -10.24 0
v -8.96 -9.599999 0
v -8.32 -9.599999 0
v -8.96 -10.24 0
v -9.599999 -10.24 0
v -9.599999 -9.599999 0
v -8.96 -9.599999 0

# Texture cooridinates (Count = 26)
vt 0.1 0.35
vt 0.15 0.35
vt 0.15 0.4
vt 0.1 0.4
vt 0.25 0.35
vt 0.3 0.35
vt 0.3 0.4
vt 0.25 0.4
vt 0.35 0.35
vt 0.35 0.4
vt 0.4 0.35
vt 0.4 0.4
vt 0.1 0.1
vt 0.15 0.1
vt 0.15 0.15
vt 0.1 0.15
vt 0.2 0.1
vt 0.25 0.1
vt 0.25 0.15
vt 0.2 0.15
vt 0.3 0.1
vt 0.3 0.15
vt 0.35 0.1
vt 0.4 0.1
vt 0.4 0.15
vt 0.35 0.15

# Normal
vn 0 0 -1

# Mesh description
g BM2._mesh_0157

# Faces
f 1/1/1 2/2/1 3/3/1 4/4/1
f 5/5/1 6/6/1 7/7/1 8/8/1
f 9/6/1 10/9/1 11/10/1 12/7/1
f 13/9/1 14/11/1 15/12/1 16/10/1
f 17/13/1 18/14/1 19/15/1 20/16/1
f 21/17/1 22/18/1 23/19/1 24/20/1
f 25/18/1 26/21/1 27/22/1 28/19/1
f 29/23/1 30/24/1 31/25/1 32/26/1

