# Tiled2Unity generated file. Do not modify by hand.
# Wavefront file for 'BM2._mesh_0246.obj'

# Vertices (Count = 32)
v 0 -0.64 0
v -0.64 -0.64 0
v -0.64 0 0
v 0 0 0
v -0.64 -0.64 0
v -1.28 -0.64 0
v -1.28 0 0
v -0.64 0 0
v -1.28 -0.64 0
v -1.92 -0.64 0
v -1.92 0 0
v -1.28 0 0
v -1.92 -0.64 0
v -2.56 -0.64 0
v -2.56 0 0
v -1.92 0 0
v 0 -1.28 0
v -0.64 -1.28 0
v -0.64 -0.64 0
v 0 -0.64 0
v -0.64 -1.28 0
v -1.28 -1.28 0
v -1.28 -0.64 0
v -0.64 -0.64 0
v -1.28 -1.28 0
v -1.92 -1.28 0
v -1.92 -0.64 0
v -1.28 -0.64 0
v -1.92 -1.28 0
v -2.56 -1.28 0
v -2.56 -0.64 0
v -1.92 -0.64 0

# Texture cooridinates (Count = 15)
vt 0.3333333 0.25
vt 0.5 0.25
vt 0.5 0.3333333
vt 0.3333333 0.3333333
vt 0.6666667 0.25
vt 0.6666667 0.3333333
vt 0.8333333 0.25
vt 0.8333333 0.3333333
vt 1 0.25
vt 1 0.3333333
vt 0.3333333 0.1666667
vt 0.5 0.1666667
vt 0.6666667 0.1666667
vt 0.8333333 0.1666667
vt 1 0.1666667

# Normal
vn 0 0 -1

# Mesh description
g BM2._mesh_0246

# Faces
f 1/1/1 2/2/1 3/3/1 4/4/1
f 5/2/1 6/5/1 7/6/1 8/3/1
f 9/5/1 10/7/1 11/8/1 12/6/1
f 13/7/1 14/9/1 15/10/1 16/8/1
f 17/11/1 18/12/1 19/2/1 20/1/1
f 21/12/1 22/13/1 23/5/1 24/2/1
f 25/13/1 26/14/1 27/7/1 28/5/1
f 29/14/1 30/15/1 31/9/1 32/7/1

