# Tiled2Unity generated file. Do not modify by hand.
# Wavefront file for 'BM2._mesh_0191.obj'

# Vertices (Count = 16)
v 0 -6.4 0
v -0.64 -6.4 0
v -0.64 -5.76 0
v 0 -5.76 0
v -0.64 -6.4 0
v -1.28 -6.4 0
v -1.28 -5.76 0
v -0.64 -5.76 0
v -5.12 -6.4 0
v -5.76 -6.4 0
v -5.76 -5.76 0
v -5.12 -5.76 0
v -5.76 -6.4 0
v -6.4 -6.4 0
v -6.4 -5.76 0
v -5.76 -5.76 0

# Texture cooridinates (Count = 6)
vt 0.6875 0.96875
vt 0.71875 0.96875
vt 0.71875 1
vt 0.6875 1
vt 0.75 0.96875
vt 0.75 1

# Normal
vn 0 0 -1

# Mesh description
g BM2._mesh_0191

# Faces
f 1/1/1 2/2/1 3/3/1 4/4/1
f 5/2/1 6/5/1 7/6/1 8/3/1
f 9/1/1 10/2/1 11/3/1 12/4/1
f 13/2/1 14/5/1 15/6/1 16/3/1

