# Tiled2Unity generated file. Do not modify by hand.
# Wavefront file for 'BM2._mesh_0221.obj'

# Vertices (Count = 240)
v -6.4 -3.2 0
v -7.04 -3.2 0
v -7.04 -2.56 0
v -6.4 -2.56 0
v -7.04 -3.2 0
v -7.68 -3.2 0
v -7.68 -2.56 0
v -7.04 -2.56 0
v -7.68 -3.2 0
v -8.32 -3.2 0
v -8.32 -2.56 0
v -7.68 -2.56 0
v -8.32 -3.2 0
v -8.96 -3.2 0
v -8.96 -2.56 0
v -8.32 -2.56 0
v -8.96 -3.2 0
v -9.599999 -3.2 0
v -9.599999 -2.56 0
v -8.96 -2.56 0
v -9.599999 -3.2 0
v -10.24 -3.2 0
v -10.24 -2.56 0
v -9.599999 -2.56 0
v -6.4 -3.84 0
v -7.04 -3.84 0
v -7.04 -3.2 0
v -6.4 -3.2 0
v -7.04 -3.84 0
v -7.68 -3.84 0
v -7.68 -3.2 0
v -7.04 -3.2 0
v -7.68 -3.84 0
v -8.32 -3.84 0
v -8.32 -3.2 0
v -7.68 -3.2 0
v -8.32 -3.84 0
v -8.96 -3.84 0
v -8.96 -3.2 0
v -8.32 -3.2 0
v -8.96 -3.84 0
v -9.599999 -3.84 0
v -9.599999 -3.2 0
v -8.96 -3.2 0
v -9.599999 -3.84 0
v -10.24 -3.84 0
v -10.24 -3.2 0
v -9.599999 -3.2 0
v -6.4 -4.48 0
v -7.04 -4.48 0
v -7.04 -3.84 0
v -6.4 -3.84 0
v -7.04 -4.48 0
v -7.68 -4.48 0
v -7.68 -3.84 0
v -7.04 -3.84 0
v -7.68 -4.48 0
v -8.32 -4.48 0
v -8.32 -3.84 0
v -7.68 -3.84 0
v -8.32 -4.48 0
v -8.96 -4.48 0
v -8.96 -3.84 0
v -8.32 -3.84 0
v -8.96 -4.48 0
v -9.599999 -4.48 0
v -9.599999 -3.84 0
v -8.96 -3.84 0
v -9.599999 -4.48 0
v -10.24 -4.48 0
v -10.24 -3.84 0
v -9.599999 -3.84 0
v -6.4 -5.12 0
v -7.04 -5.12 0
v -7.04 -4.48 0
v -6.4 -4.48 0
v -7.04 -5.12 0
v -7.68 -5.12 0
v -7.68 -4.48 0
v -7.04 -4.48 0
v -7.68 -5.12 0
v -8.32 -5.12 0
v -8.32 -4.48 0
v -7.68 -4.48 0
v -8.32 -5.12 0
v -8.96 -5.12 0
v -8.96 -4.48 0
v -8.32 -4.48 0
v -8.96 -5.12 0
v -9.599999 -5.12 0
v -9.599999 -4.48 0
v -8.96 -4.48 0
v -9.599999 -5.12 0
v -10.24 -5.12 0
v -10.24 -4.48 0
v -9.599999 -4.48 0
v -6.4 -5.76 0
v -7.04 -5.76 0
v -7.04 -5.12 0
v -6.4 -5.12 0
v -7.04 -5.76 0
v -7.68 -5.76 0
v -7.68 -5.12 0
v -7.04 -5.12 0
v -7.68 -5.76 0
v -8.32 -5.76 0
v -8.32 -5.12 0
v -7.68 -5.12 0
v -8.32 -5.76 0
v -8.96 -5.76 0
v -8.96 -5.12 0
v -8.32 -5.12 0
v -8.96 -5.76 0
v -9.599999 -5.76 0
v -9.599999 -5.12 0
v -8.96 -5.12 0
v -9.599999 -5.76 0
v -10.24 -5.76 0
v -10.24 -5.12 0
v -9.599999 -5.12 0
v -6.4 -6.4 0
v -7.04 -6.4 0
v -7.04 -5.76 0
v -6.4 -5.76 0
v -7.04 -6.4 0
v -7.68 -6.4 0
v -7.68 -5.76 0
v -7.04 -5.76 0
v -7.68 -6.4 0
v -8.32 -6.4 0
v -8.32 -5.76 0
v -7.68 -5.76 0
v -8.32 -6.4 0
v -8.96 -6.4 0
v -8.96 -5.76 0
v -8.32 -5.76 0
v -8.96 -6.4 0
v -9.599999 -6.4 0
v -9.599999 -5.76 0
v -8.96 -5.76 0
v -9.599999 -6.4 0
v -10.24 -6.4 0
v -10.24 -5.76 0
v -9.599999 -5.76 0
v -6.4 -7.04 0
v -7.04 -7.04 0
v -7.04 -6.4 0
v -6.4 -6.4 0
v -7.04 -7.04 0
v -7.68 -7.04 0
v -7.68 -6.4 0
v -7.04 -6.4 0
v -7.68 -7.04 0
v -8.32 -7.04 0
v -8.32 -6.4 0
v -7.68 -6.4 0
v -8.32 -7.04 0
v -8.96 -7.04 0
v -8.96 -6.4 0
v -8.32 -6.4 0
v -8.96 -7.04 0
v -9.599999 -7.04 0
v -9.599999 -6.4 0
v -8.96 -6.4 0
v -9.599999 -7.04 0
v -10.24 -7.04 0
v -10.24 -6.4 0
v -9.599999 -6.4 0
v -6.4 -7.68 0
v -7.04 -7.68 0
v -7.04 -7.04 0
v -6.4 -7.04 0
v -7.04 -7.68 0
v -7.68 -7.68 0
v -7.68 -7.04 0
v -7.04 -7.04 0
v -7.68 -7.68 0
v -8.32 -7.68 0
v -8.32 -7.04 0
v -7.68 -7.04 0
v -8.32 -7.68 0
v -8.96 -7.68 0
v -8.96 -7.04 0
v -8.32 -7.04 0
v -8.96 -7.68 0
v -9.599999 -7.68 0
v -9.599999 -7.04 0
v -8.96 -7.04 0
v -9.599999 -7.68 0
v -10.24 -7.68 0
v -10.24 -7.04 0
v -9.599999 -7.04 0
v -6.4 -8.32 0
v -7.04 -8.32 0
v -7.04 -7.68 0
v -6.4 -7.68 0
v -7.04 -8.32 0
v -7.68 -8.32 0
v -7.68 -7.68 0
v -7.04 -7.68 0
v -7.68 -8.32 0
v -8.32 -8.32 0
v -8.32 -7.68 0
v -7.68 -7.68 0
v -8.32 -8.32 0
v -8.96 -8.32 0
v -8.96 -7.68 0
v -8.32 -7.68 0
v -8.96 -8.32 0
v -9.599999 -8.32 0
v -9.599999 -7.68 0
v -8.96 -7.68 0
v -9.599999 -8.32 0
v -10.24 -8.32 0
v -10.24 -7.68 0
v -9.599999 -7.68 0
v -6.4 -8.96 0
v -7.04 -8.96 0
v -7.04 -8.32 0
v -6.4 -8.32 0
v -7.04 -8.96 0
v -7.68 -8.96 0
v -7.68 -8.32 0
v -7.04 -8.32 0
v -7.68 -8.96 0
v -8.32 -8.96 0
v -8.32 -8.32 0
v -7.68 -8.32 0
v -8.32 -8.96 0
v -8.96 -8.96 0
v -8.96 -8.32 0
v -8.32 -8.32 0
v -8.96 -8.96 0
v -9.599999 -8.96 0
v -9.599999 -8.32 0
v -8.96 -8.32 0
v -9.599999 -8.96 0
v -10.24 -8.96 0
v -10.24 -8.32 0
v -9.599999 -8.32 0

# Texture cooridinates (Count = 45)
vt 0 0.5833334
vt 0.1666667 0.5833334
vt 0.1666667 0.6666666
vt 0 0.6666666
vt 0.3333333 0.5833334
vt 0.3333333 0.6666666
vt 0.5 0.5833334
vt 0.5 0.6666666
vt 0.6666667 0.5833334
vt 0.6666667 0.6666666
vt 0 0.5
vt 0.1666667 0.5
vt 0.3333333 0.5
vt 0.5 0.5
vt 0.6666667 0.5
vt 0 0.4166667
vt 0.1666667 0.4166667
vt 0.3333333 0.4166667
vt 0.5 0.4166667
vt 0.6666667 0.4166667
vt 0 0.3333333
vt 0.1666667 0.3333333
vt 0.3333333 0.3333333
vt 0.5 0.3333333
vt 0.6666667 0.3333333
vt 0 0.08333331
vt 0.1666667 0.08333331
vt 0.1666667 0.1666667
vt 0 0.1666667
vt 0.3333333 0.08333331
vt 0.3333333 0.1666667
vt 0 0
vt 0.1666667 0
vt 0.3333333 0
vt 0.5 0.08333331
vt 0.5 0.1666667
vt 0.6666667 0.08333331
vt 0.6666667 0.1666667
vt 0.5 0
vt 0.6666667 0
vt 0 0.25
vt 0.1666667 0.25
vt 0.3333333 0.25
vt 0.5 0.25
vt 0.6666667 0.25

# Normal
vn 0 0 -1

# Mesh description
g BM2._mesh_0221

# Faces
f 1/1/1 2/2/1 3/3/1 4/4/1
f 5/2/1 6/5/1 7/6/1 8/3/1
f 9/5/1 10/7/1 11/8/1 12/6/1
f 13/7/1 14/9/1 15/10/1 16/8/1
f 17/5/1 18/7/1 19/8/1 20/6/1
f 21/7/1 22/9/1 23/10/1 24/8/1
f 25/11/1 26/12/1 27/2/1 28/1/1
f 29/12/1 30/13/1 31/5/1 32/2/1
f 33/13/1 34/14/1 35/7/1 36/5/1
f 37/14/1 38/15/1 39/9/1 40/7/1
f 41/13/1 42/14/1 43/7/1 44/5/1
f 45/14/1 46/15/1 47/9/1 48/7/1
f 49/16/1 50/17/1 51/12/1 52/11/1
f 53/17/1 54/18/1 55/13/1 56/12/1
f 57/18/1 58/19/1 59/14/1 60/13/1
f 61/19/1 62/20/1 63/15/1 64/14/1
f 65/18/1 66/19/1 67/14/1 68/13/1
f 69/19/1 70/20/1 71/15/1 72/14/1
f 73/21/1 74/22/1 75/17/1 76/16/1
f 77/22/1 78/23/1 79/18/1 80/17/1
f 81/23/1 82/24/1 83/19/1 84/18/1
f 85/24/1 86/25/1 87/20/1 88/19/1
f 89/26/1 90/27/1 91/28/1 92/29/1
f 93/27/1 94/30/1 95/31/1 96/28/1
f 97/16/1 98/17/1 99/12/1 100/11/1
f 101/17/1 102/18/1 103/13/1 104/12/1
f 105/18/1 106/19/1 107/14/1 108/13/1
f 109/19/1 110/20/1 111/15/1 112/14/1
f 113/32/1 114/33/1 115/27/1 116/26/1
f 117/33/1 118/34/1 119/30/1 120/27/1
f 121/21/1 122/22/1 123/17/1 124/16/1
f 125/22/1 126/23/1 127/18/1 128/17/1
f 129/23/1 130/24/1 131/19/1 132/18/1
f 133/24/1 134/25/1 135/20/1 136/19/1
f 137/23/1 138/24/1 139/19/1 140/18/1
f 141/24/1 142/25/1 143/20/1 144/19/1
f 145/16/1 146/17/1 147/12/1 148/11/1
f 149/17/1 150/18/1 151/13/1 152/12/1
f 153/18/1 154/19/1 155/14/1 156/13/1
f 157/30/1 158/35/1 159/36/1 160/31/1
f 161/35/1 162/37/1 163/38/1 164/36/1
f 165/19/1 166/20/1 167/15/1 168/14/1
f 169/21/1 170/22/1 171/17/1 172/16/1
f 173/22/1 174/23/1 175/18/1 176/17/1
f 177/23/1 178/24/1 179/19/1 180/18/1
f 181/34/1 182/39/1 183/35/1 184/30/1
f 185/39/1 186/40/1 187/37/1 188/35/1
f 189/24/1 190/25/1 191/20/1 192/19/1
f 193/41/1 194/42/1 195/22/1 196/21/1
f 197/42/1 198/43/1 199/23/1 200/22/1
f 201/43/1 202/44/1 203/24/1 204/23/1
f 205/44/1 206/45/1 207/25/1 208/24/1
f 209/43/1 210/44/1 211/24/1 212/23/1
f 213/44/1 214/45/1 215/25/1 216/24/1
f 217/29/1 218/28/1 219/42/1 220/41/1
f 221/28/1 222/31/1 223/43/1 224/42/1
f 225/31/1 226/36/1 227/44/1 228/43/1
f 229/36/1 230/38/1 231/45/1 232/44/1
f 233/36/1 234/38/1 235/45/1 236/44/1
f 237/31/1 238/36/1 239/44/1 240/43/1

