# Tiled2Unity generated file. Do not modify by hand.
# Wavefront file for 'BM2._mesh_0204.obj'

# Vertices (Count = 48)
v -8.32 -8.32 0
v -8.96 -8.32 0
v -8.96 -7.68 0
v -8.32 -7.68 0
v -8.96 -8.32 0
v -9.599999 -8.32 0
v -9.599999 -7.68 0
v -8.96 -7.68 0
v -9.599999 -8.32 0
v -10.24 -8.32 0
v -10.24 -7.68 0
v -9.599999 -7.68 0
v -8.32 -8.96 0
v -8.96 -8.96 0
v -8.96 -8.32 0
v -8.32 -8.32 0
v -8.96 -8.96 0
v -9.599999 -8.96 0
v -9.599999 -8.32 0
v -8.96 -8.32 0
v -9.599999 -8.96 0
v -10.24 -8.96 0
v -10.24 -8.32 0
v -9.599999 -8.32 0
v -8.32 -9.599999 0
v -8.96 -9.599999 0
v -8.96 -8.96 0
v -8.32 -8.96 0
v -8.96 -9.599999 0
v -9.599999 -9.599999 0
v -9.599999 -8.96 0
v -8.96 -8.96 0
v -9.599999 -9.599999 0
v -10.24 -9.599999 0
v -10.24 -8.96 0
v -9.599999 -8.96 0
v -8.32 -10.24 0
v -8.96 -10.24 0
v -8.96 -9.599999 0
v -8.32 -9.599999 0
v -8.96 -10.24 0
v -9.599999 -10.24 0
v -9.599999 -9.599999 0
v -8.96 -9.599999 0
v -9.599999 -10.24 0
v -10.24 -10.24 0
v -10.24 -9.599999 0
v -9.599999 -9.599999 0

# Texture cooridinates (Count = 29)
vt 0.06 0.9736842
vt 0.08 0.9736842
vt 0.08 1
vt 0.06 1
vt 0.04 0.9736842
vt 0.04 1
vt 0.3 0.5789474
vt 0.3 0.6052631
vt 0.28 0.6052631
vt 0.28 0.5789474
vt 0.3 0.6315789
vt 0.28 0.6315789
vt 0.12 0.8684211
vt 0.14 0.8684211
vt 0.14 0.8947368
vt 0.12 0.8947368
vt 0.32 0.5789474
vt 0.32 0.6052631
vt 0.32 0.6315789
vt 0.12 0.8421053
vt 0.14 0.8421053
vt 0.04 0.8421053
vt 0.06 0.8421053
vt 0.06 0.8684211
vt 0.04 0.8684211
vt 0.08 0.8421053
vt 0.08 0.8684211
vt 0.1 0.8421053
vt 0.1 0.8684211

# Normal
vn 0 0 -1

# Mesh description
g BM2._mesh_0204

# Faces
f 1/1/1 2/2/1 3/3/1 4/4/1
f 5/5/1 6/1/1 7/4/1 8/6/1
f 9/1/1 10/2/1 11/3/1 12/4/1
f 13/7/1 14/8/1 15/9/1 16/10/1
f 17/8/1 18/11/1 19/12/1 20/9/1
f 21/13/1 22/14/1 23/15/1 24/16/1
f 25/17/1 26/18/1 27/8/1 28/7/1
f 29/18/1 30/19/1 31/11/1 32/8/1
f 33/20/1 34/21/1 35/14/1 36/13/1
f 37/22/1 38/23/1 39/24/1 40/25/1
f 41/23/1 42/26/1 43/27/1 44/24/1
f 45/26/1 46/28/1 47/29/1 48/27/1

