# Tiled2Unity generated file. Do not modify by hand.
# Wavefront file for 'BM2._mesh_0358.obj'

# Vertices (Count = 48)
v 0 -0.64 0
v -0.64 -0.64 0
v -0.64 0 0
v 0 0 0
v -0.64 -0.64 0
v -1.28 -0.64 0
v -1.28 0 0
v -0.64 0 0
v -1.28 -0.64 0
v -1.92 -0.64 0
v -1.92 0 0
v -1.28 0 0
v 0 -1.28 0
v -0.64 -1.28 0
v -0.64 -0.64 0
v 0 -0.64 0
v -0.64 -1.28 0
v -1.28 -1.28 0
v -1.28 -0.64 0
v -0.64 -0.64 0
v -1.28 -1.28 0
v -1.92 -1.28 0
v -1.92 -0.64 0
v -1.28 -0.64 0
v 0 -1.92 0
v -0.64 -1.92 0
v -0.64 -1.28 0
v 0 -1.28 0
v -0.64 -1.92 0
v -1.28 -1.92 0
v -1.28 -1.28 0
v -0.64 -1.28 0
v -1.28 -1.92 0
v -1.92 -1.92 0
v -1.92 -1.28 0
v -1.28 -1.28 0
v 0 -2.56 0
v -0.64 -2.56 0
v -0.64 -1.92 0
v 0 -1.92 0
v -0.64 -2.56 0
v -1.28 -2.56 0
v -1.28 -1.92 0
v -0.64 -1.92 0
v -1.28 -2.56 0
v -1.92 -2.56 0
v -1.92 -1.92 0
v -1.28 -1.92 0

# Texture cooridinates (Count = 21)
vt 0.2777778 0.2142857
vt 0.3333333 0.2142857
vt 0.3333333 0.2857143
vt 0.2777778 0.2857143
vt 0.2222222 0.2857143
vt 0.2777778 0.3571429
vt 0.2222222 0.3571429
vt 0.3333333 0.3571429
vt 0.2777778 0.1428571
vt 0.3333333 0.1428571
vt 0.1666667 0.2142857
vt 0.2222222 0.2142857
vt 0.1666667 0.2857143
vt 0.3333333 0.0714286
vt 0.2777778 0.0714286
vt 0.2777778 0
vt 0.3333333 0
vt 0.2222222 0.0714286
vt 0.2222222 0
vt 0.1666667 0.1428571
vt 0.2222222 0.1428571

# Normal
vn 0 0 -1

# Mesh description
g BM2._mesh_0358

# Faces
f 1/1/1 2/2/1 3/3/1 4/4/1
f 5/5/1 6/4/1 7/6/1 8/7/1
f 9/4/1 10/3/1 11/8/1 12/6/1
f 13/9/1 14/10/1 15/2/1 16/1/1
f 17/5/1 18/4/1 19/6/1 20/7/1
f 21/4/1 22/3/1 23/8/1 24/6/1
f 25/11/1 26/12/1 27/5/1 28/13/1
f 29/14/1 30/15/1 31/16/1 32/17/1
f 33/15/1 34/18/1 35/19/1 36/16/1
f 37/20/1 38/21/1 39/12/1 40/11/1
f 41/10/1 42/9/1 43/15/1 44/14/1
f 45/9/1 46/21/1 47/18/1 48/15/1

