# Tiled2Unity generated file. Do not modify by hand.
# Wavefront file for 'BM2._mesh_0368.obj'

# Vertices (Count = 416)
v -1.92 -1.92 0
v -2.56 -1.92 0
v -2.56 -1.28 0
v -1.92 -1.28 0
v -2.56 -1.92 0
v -3.2 -1.92 0
v -3.2 -1.28 0
v -2.56 -1.28 0
v -3.2 -1.92 0
v -3.84 -1.92 0
v -3.84 -1.28 0
v -3.2 -1.28 0
v -3.84 -1.92 0
v -4.48 -1.92 0
v -4.48 -1.28 0
v -3.84 -1.28 0
v -4.48 -1.92 0
v -5.12 -1.92 0
v -5.12 -1.28 0
v -4.48 -1.28 0
v -5.12 -1.92 0
v -5.76 -1.92 0
v -5.76 -1.28 0
v -5.12 -1.28 0
v -5.76 -1.92 0
v -6.4 -1.92 0
v -6.4 -1.28 0
v -5.76 -1.28 0
v -6.4 -1.92 0
v -7.04 -1.92 0
v -7.04 -1.28 0
v -6.4 -1.28 0
v -7.04 -1.92 0
v -7.68 -1.92 0
v -7.68 -1.28 0
v -7.04 -1.28 0
v -7.68 -1.92 0
v -8.32 -1.92 0
v -8.32 -1.28 0
v -7.68 -1.28 0
v -8.32 -1.92 0
v -8.96 -1.92 0
v -8.96 -1.28 0
v -8.32 -1.28 0
v -8.96 -1.92 0
v -9.599999 -1.92 0
v -9.599999 -1.28 0
v -8.96 -1.28 0
v -9.599999 -1.92 0
v -10.24 -1.92 0
v -10.24 -1.28 0
v -9.599999 -1.28 0
v -1.92 -2.56 0
v -2.56 -2.56 0
v -2.56 -1.92 0
v -1.92 -1.92 0
v -2.56 -2.56 0
v -3.2 -2.56 0
v -3.2 -1.92 0
v -2.56 -1.92 0
v -3.2 -2.56 0
v -3.84 -2.56 0
v -3.84 -1.92 0
v -3.2 -1.92 0
v -3.84 -2.56 0
v -4.48 -2.56 0
v -4.48 -1.92 0
v -3.84 -1.92 0
v -4.48 -2.56 0
v -5.12 -2.56 0
v -5.12 -1.92 0
v -4.48 -1.92 0
v -5.12 -2.56 0
v -5.76 -2.56 0
v -5.76 -1.92 0
v -5.12 -1.92 0
v -5.76 -2.56 0
v -6.4 -2.56 0
v -6.4 -1.92 0
v -5.76 -1.92 0
v -6.4 -2.56 0
v -7.04 -2.56 0
v -7.04 -1.92 0
v -6.4 -1.92 0
v -7.04 -2.56 0
v -7.68 -2.56 0
v -7.68 -1.92 0
v -7.04 -1.92 0
v -7.68 -2.56 0
v -8.32 -2.56 0
v -8.32 -1.92 0
v -7.68 -1.92 0
v -8.32 -2.56 0
v -8.96 -2.56 0
v -8.96 -1.92 0
v -8.32 -1.92 0
v -8.96 -2.56 0
v -9.599999 -2.56 0
v -9.599999 -1.92 0
v -8.96 -1.92 0
v -9.599999 -2.56 0
v -10.24 -2.56 0
v -10.24 -1.92 0
v -9.599999 -1.92 0
v -1.92 -3.2 0
v -2.56 -3.2 0
v -2.56 -2.56 0
v -1.92 -2.56 0
v -2.56 -3.2 0
v -3.2 -3.2 0
v -3.2 -2.56 0
v -2.56 -2.56 0
v -3.2 -3.2 0
v -3.84 -3.2 0
v -3.84 -2.56 0
v -3.2 -2.56 0
v -3.84 -3.2 0
v -4.48 -3.2 0
v -4.48 -2.56 0
v -3.84 -2.56 0
v -4.48 -3.2 0
v -5.12 -3.2 0
v -5.12 -2.56 0
v -4.48 -2.56 0
v -5.12 -3.2 0
v -5.76 -3.2 0
v -5.76 -2.56 0
v -5.12 -2.56 0
v -5.76 -3.2 0
v -6.4 -3.2 0
v -6.4 -2.56 0
v -5.76 -2.56 0
v -6.4 -3.2 0
v -7.04 -3.2 0
v -7.04 -2.56 0
v -6.4 -2.56 0
v -7.04 -3.2 0
v -7.68 -3.2 0
v -7.68 -2.56 0
v -7.04 -2.56 0
v -7.68 -3.2 0
v -8.32 -3.2 0
v -8.32 -2.56 0
v -7.68 -2.56 0
v -8.32 -3.2 0
v -8.96 -3.2 0
v -8.96 -2.56 0
v -8.32 -2.56 0
v -8.96 -3.2 0
v -9.599999 -3.2 0
v -9.599999 -2.56 0
v -8.96 -2.56 0
v -9.599999 -3.2 0
v -10.24 -3.2 0
v -10.24 -2.56 0
v -9.599999 -2.56 0
v -1.92 -3.84 0
v -2.56 -3.84 0
v -2.56 -3.2 0
v -1.92 -3.2 0
v -2.56 -3.84 0
v -3.2 -3.84 0
v -3.2 -3.2 0
v -2.56 -3.2 0
v -3.2 -3.84 0
v -3.84 -3.84 0
v -3.84 -3.2 0
v -3.2 -3.2 0
v -3.84 -3.84 0
v -4.48 -3.84 0
v -4.48 -3.2 0
v -3.84 -3.2 0
v -4.48 -3.84 0
v -5.12 -3.84 0
v -5.12 -3.2 0
v -4.48 -3.2 0
v -5.12 -3.84 0
v -5.76 -3.84 0
v -5.76 -3.2 0
v -5.12 -3.2 0
v -5.76 -3.84 0
v -6.4 -3.84 0
v -6.4 -3.2 0
v -5.76 -3.2 0
v -6.4 -3.84 0
v -7.04 -3.84 0
v -7.04 -3.2 0
v -6.4 -3.2 0
v -7.04 -3.84 0
v -7.68 -3.84 0
v -7.68 -3.2 0
v -7.04 -3.2 0
v -7.68 -3.84 0
v -8.32 -3.84 0
v -8.32 -3.2 0
v -7.68 -3.2 0
v -8.32 -3.84 0
v -8.96 -3.84 0
v -8.96 -3.2 0
v -8.32 -3.2 0
v -8.96 -3.84 0
v -9.599999 -3.84 0
v -9.599999 -3.2 0
v -8.96 -3.2 0
v -9.599999 -3.84 0
v -10.24 -3.84 0
v -10.24 -3.2 0
v -9.599999 -3.2 0
v -1.92 -5.12 0
v -2.56 -5.12 0
v -2.56 -4.48 0
v -1.92 -4.48 0
v -2.56 -5.12 0
v -3.2 -5.12 0
v -3.2 -4.48 0
v -2.56 -4.48 0
v -3.2 -5.12 0
v -3.84 -5.12 0
v -3.84 -4.48 0
v -3.2 -4.48 0
v -3.84 -5.12 0
v -4.48 -5.12 0
v -4.48 -4.48 0
v -3.84 -4.48 0
v -4.48 -5.12 0
v -5.12 -5.12 0
v -5.12 -4.48 0
v -4.48 -4.48 0
v -5.12 -5.12 0
v -5.76 -5.12 0
v -5.76 -4.48 0
v -5.12 -4.48 0
v -5.76 -5.12 0
v -6.4 -5.12 0
v -6.4 -4.48 0
v -5.76 -4.48 0
v -6.4 -5.12 0
v -7.04 -5.12 0
v -7.04 -4.48 0
v -6.4 -4.48 0
v -7.04 -5.12 0
v -7.68 -5.12 0
v -7.68 -4.48 0
v -7.04 -4.48 0
v -7.68 -5.12 0
v -8.32 -5.12 0
v -8.32 -4.48 0
v -7.68 -4.48 0
v -8.32 -5.12 0
v -8.96 -5.12 0
v -8.96 -4.48 0
v -8.32 -4.48 0
v -8.96 -5.12 0
v -9.599999 -5.12 0
v -9.599999 -4.48 0
v -8.96 -4.48 0
v -9.599999 -5.12 0
v -10.24 -5.12 0
v -10.24 -4.48 0
v -9.599999 -4.48 0
v -1.92 -5.76 0
v -2.56 -5.76 0
v -2.56 -5.12 0
v -1.92 -5.12 0
v -2.56 -5.76 0
v -3.2 -5.76 0
v -3.2 -5.12 0
v -2.56 -5.12 0
v -3.2 -5.76 0
v -3.84 -5.76 0
v -3.84 -5.12 0
v -3.2 -5.12 0
v -3.84 -5.76 0
v -4.48 -5.76 0
v -4.48 -5.12 0
v -3.84 -5.12 0
v -4.48 -5.76 0
v -5.12 -5.76 0
v -5.12 -5.12 0
v -4.48 -5.12 0
v -5.12 -5.76 0
v -5.76 -5.76 0
v -5.76 -5.12 0
v -5.12 -5.12 0
v -5.76 -5.76 0
v -6.4 -5.76 0
v -6.4 -5.12 0
v -5.76 -5.12 0
v -6.4 -5.76 0
v -7.04 -5.76 0
v -7.04 -5.12 0
v -6.4 -5.12 0
v -7.04 -5.76 0
v -7.68 -5.76 0
v -7.68 -5.12 0
v -7.04 -5.12 0
v -7.68 -5.76 0
v -8.32 -5.76 0
v -8.32 -5.12 0
v -7.68 -5.12 0
v -8.32 -5.76 0
v -8.96 -5.76 0
v -8.96 -5.12 0
v -8.32 -5.12 0
v -8.96 -5.76 0
v -9.599999 -5.76 0
v -9.599999 -5.12 0
v -8.96 -5.12 0
v -9.599999 -5.76 0
v -10.24 -5.76 0
v -10.24 -5.12 0
v -9.599999 -5.12 0
v -1.92 -6.4 0
v -2.56 -6.4 0
v -2.56 -5.76 0
v -1.92 -5.76 0
v -2.56 -6.4 0
v -3.2 -6.4 0
v -3.2 -5.76 0
v -2.56 -5.76 0
v -3.2 -6.4 0
v -3.84 -6.4 0
v -3.84 -5.76 0
v -3.2 -5.76 0
v -3.84 -6.4 0
v -4.48 -6.4 0
v -4.48 -5.76 0
v -3.84 -5.76 0
v -4.48 -6.4 0
v -5.12 -6.4 0
v -5.12 -5.76 0
v -4.48 -5.76 0
v -5.12 -6.4 0
v -5.76 -6.4 0
v -5.76 -5.76 0
v -5.12 -5.76 0
v -5.76 -6.4 0
v -6.4 -6.4 0
v -6.4 -5.76 0
v -5.76 -5.76 0
v -6.4 -6.4 0
v -7.04 -6.4 0
v -7.04 -5.76 0
v -6.4 -5.76 0
v -7.04 -6.4 0
v -7.68 -6.4 0
v -7.68 -5.76 0
v -7.04 -5.76 0
v -7.68 -6.4 0
v -8.32 -6.4 0
v -8.32 -5.76 0
v -7.68 -5.76 0
v -8.32 -6.4 0
v -8.96 -6.4 0
v -8.96 -5.76 0
v -8.32 -5.76 0
v -8.96 -6.4 0
v -9.599999 -6.4 0
v -9.599999 -5.76 0
v -8.96 -5.76 0
v -9.599999 -6.4 0
v -10.24 -6.4 0
v -10.24 -5.76 0
v -9.599999 -5.76 0
v -1.92 -7.04 0
v -2.56 -7.04 0
v -2.56 -6.4 0
v -1.92 -6.4 0
v -2.56 -7.04 0
v -3.2 -7.04 0
v -3.2 -6.4 0
v -2.56 -6.4 0
v -3.2 -7.04 0
v -3.84 -7.04 0
v -3.84 -6.4 0
v -3.2 -6.4 0
v -3.84 -7.04 0
v -4.48 -7.04 0
v -4.48 -6.4 0
v -3.84 -6.4 0
v -4.48 -7.04 0
v -5.12 -7.04 0
v -5.12 -6.4 0
v -4.48 -6.4 0
v -5.12 -7.04 0
v -5.76 -7.04 0
v -5.76 -6.4 0
v -5.12 -6.4 0
v -5.76 -7.04 0
v -6.4 -7.04 0
v -6.4 -6.4 0
v -5.76 -6.4 0
v -6.4 -7.04 0
v -7.04 -7.04 0
v -7.04 -6.4 0
v -6.4 -6.4 0
v -7.04 -7.04 0
v -7.68 -7.04 0
v -7.68 -6.4 0
v -7.04 -6.4 0
v -7.68 -7.04 0
v -8.32 -7.04 0
v -8.32 -6.4 0
v -7.68 -6.4 0
v -8.32 -7.04 0
v -8.96 -7.04 0
v -8.96 -6.4 0
v -8.32 -6.4 0
v -8.96 -7.04 0
v -9.599999 -7.04 0
v -9.599999 -6.4 0
v -8.96 -6.4 0
v -9.599999 -7.04 0
v -10.24 -7.04 0
v -10.24 -6.4 0
v -9.599999 -6.4 0

# Texture cooridinates (Count = 41)
vt 0.1666667 0.5
vt 0.3333333 0.5
vt 0.3333333 0.5833334
vt 0.1666667 0.5833334
vt 0.5 0.08333331
vt 0.3333333 0.08333331
vt 0.3333333 0
vt 0.5 0
vt 0.1666667 0.08333331
vt 0.1666667 0
vt 0.6666667 0.5
vt 0.8333333 0.5
vt 0.8333333 0.5833334
vt 0.6666667 0.5833334
vt 0.6666667 0.08333331
vt 0.8333333 0.08333331
vt 0.8333333 0.1666667
vt 0.6666667 0.1666667
vt 1 0.08333331
vt 1 0.1666667
vt 0.5 0.5
vt 0.5 0.5833334
vt 0.5 0.1666667
vt 0.3333333 0.1666667
vt 0.1666667 0.1666667
vt 0.6666667 0
vt 0.8333333 0
vt 1 0
vt 0.1666667 0.25
vt 0.3333333 0.25
vt 0.3333333 0.3333333
vt 0.1666667 0.3333333
vt 0.5 0.25
vt 0.5 0.3333333
vt 0.6666667 0.25
vt 0.6666667 0.3333333
vt 0.8333333 0.25
vt 0.8333333 0.3333333
vt 0 0.08333331
vt 0 0
vt 0 0.1666667

# Normal
vn 0 0 -1

# Mesh description
g BM2._mesh_0368

# Faces
f 1/1/1 2/2/1 3/3/1 4/4/1
f 5/5/1 6/6/1 7/7/1 8/8/1
f 9/6/1 10/9/1 11/10/1 12/7/1
f 13/11/1 14/12/1 15/13/1 16/14/1
f 17/1/1 18/2/1 19/3/1 20/4/1
f 21/15/1 22/16/1 23/17/1 24/18/1
f 25/16/1 26/19/1 27/20/1 28/17/1
f 29/11/1 30/12/1 31/13/1 32/14/1
f 33/1/1 34/2/1 35/3/1 36/4/1
f 37/2/1 38/21/1 39/22/1 40/3/1
f 41/21/1 42/11/1 43/14/1 44/22/1
f 45/11/1 46/12/1 47/13/1 48/14/1
f 49/1/1 50/2/1 51/3/1 52/4/1
f 53/1/1 54/2/1 55/3/1 56/4/1
f 57/23/1 58/24/1 59/6/1 60/5/1
f 61/24/1 62/25/1 63/9/1 64/6/1
f 65/11/1 66/12/1 67/13/1 68/14/1
f 69/1/1 70/2/1 71/3/1 72/4/1
f 73/26/1 74/27/1 75/16/1 76/15/1
f 77/27/1 78/28/1 79/19/1 80/16/1
f 81/11/1 82/12/1 83/13/1 84/14/1
f 85/1/1 86/2/1 87/3/1 88/4/1
f 89/2/1 90/21/1 91/22/1 92/3/1
f 93/21/1 94/11/1 95/14/1 96/22/1
f 97/11/1 98/12/1 99/13/1 100/14/1
f 101/1/1 102/2/1 103/3/1 104/4/1
f 105/29/1 106/30/1 107/31/1 108/32/1
f 109/30/1 110/33/1 111/34/1 112/31/1
f 113/33/1 114/35/1 115/36/1 116/34/1
f 117/35/1 118/37/1 119/38/1 120/36/1
f 121/29/1 122/30/1 123/31/1 124/32/1
f 125/30/1 126/33/1 127/34/1 128/31/1
f 129/33/1 130/35/1 131/36/1 132/34/1
f 133/35/1 134/37/1 135/38/1 136/36/1
f 137/29/1 138/30/1 139/31/1 140/32/1
f 141/30/1 142/33/1 143/34/1 144/31/1
f 145/33/1 146/35/1 147/36/1 148/34/1
f 149/35/1 150/37/1 151/38/1 152/36/1
f 153/29/1 154/30/1 155/31/1 156/32/1
f 157/25/1 158/24/1 159/30/1 160/29/1
f 161/24/1 162/23/1 163/33/1 164/30/1
f 165/23/1 166/18/1 167/35/1 168/33/1
f 169/18/1 170/17/1 171/37/1 172/35/1
f 173/25/1 174/24/1 175/30/1 176/29/1
f 177/24/1 178/23/1 179/33/1 180/30/1
f 181/23/1 182/18/1 183/35/1 184/33/1
f 185/18/1 186/17/1 187/37/1 188/35/1
f 189/25/1 190/24/1 191/30/1 192/29/1
f 193/24/1 194/23/1 195/33/1 196/30/1
f 197/23/1 198/18/1 199/35/1 200/33/1
f 201/18/1 202/17/1 203/37/1 204/35/1
f 205/25/1 206/24/1 207/30/1 208/29/1
f 209/1/1 210/2/1 211/3/1 212/4/1
f 213/6/1 214/9/1 215/10/1 216/7/1
f 217/9/1 218/39/1 219/40/1 220/10/1
f 221/11/1 222/12/1 223/13/1 224/14/1
f 225/1/1 226/2/1 227/3/1 228/4/1
f 229/2/1 230/21/1 231/22/1 232/3/1
f 233/21/1 234/11/1 235/14/1 236/22/1
f 237/11/1 238/12/1 239/13/1 240/14/1
f 241/1/1 242/2/1 243/3/1 244/4/1
f 245/6/1 246/5/1 247/23/1 248/24/1
f 249/5/1 250/15/1 251/18/1 252/23/1
f 253/11/1 254/12/1 255/13/1 256/14/1
f 257/1/1 258/2/1 259/3/1 260/4/1
f 261/1/1 262/2/1 263/3/1 264/4/1
f 265/24/1 266/25/1 267/9/1 268/6/1
f 269/25/1 270/41/1 271/39/1 272/9/1
f 273/11/1 274/12/1 275/13/1 276/14/1
f 277/1/1 278/2/1 279/3/1 280/4/1
f 281/2/1 282/21/1 283/22/1 284/3/1
f 285/21/1 286/11/1 287/14/1 288/22/1
f 289/11/1 290/12/1 291/13/1 292/14/1
f 293/1/1 294/2/1 295/3/1 296/4/1
f 297/7/1 298/8/1 299/5/1 300/6/1
f 301/8/1 302/26/1 303/15/1 304/5/1
f 305/11/1 306/12/1 307/13/1 308/14/1
f 309/1/1 310/2/1 311/3/1 312/4/1
f 313/29/1 314/30/1 315/31/1 316/32/1
f 317/30/1 318/33/1 319/34/1 320/31/1
f 321/33/1 322/35/1 323/36/1 324/34/1
f 325/35/1 326/37/1 327/38/1 328/36/1
f 329/29/1 330/30/1 331/31/1 332/32/1
f 333/30/1 334/33/1 335/34/1 336/31/1
f 337/33/1 338/35/1 339/36/1 340/34/1
f 341/35/1 342/37/1 343/38/1 344/36/1
f 345/29/1 346/30/1 347/31/1 348/32/1
f 349/30/1 350/33/1 351/34/1 352/31/1
f 353/33/1 354/35/1 355/36/1 356/34/1
f 357/35/1 358/37/1 359/38/1 360/36/1
f 361/29/1 362/30/1 363/31/1 364/32/1
f 365/25/1 366/24/1 367/30/1 368/29/1
f 369/24/1 370/23/1 371/33/1 372/30/1
f 373/23/1 374/18/1 375/35/1 376/33/1
f 377/18/1 378/17/1 379/37/1 380/35/1
f 381/25/1 382/24/1 383/30/1 384/29/1
f 385/24/1 386/23/1 387/33/1 388/30/1
f 389/23/1 390/18/1 391/35/1 392/33/1
f 393/18/1 394/17/1 395/37/1 396/35/1
f 397/25/1 398/24/1 399/30/1 400/29/1
f 401/24/1 402/23/1 403/33/1 404/30/1
f 405/23/1 406/18/1 407/35/1 408/33/1
f 409/18/1 410/17/1 411/37/1 412/35/1
f 413/25/1 414/24/1 415/30/1 416/29/1

