# Tiled2Unity generated file. Do not modify by hand.
# Wavefront file for 'BM2._mesh_0202.obj'

# Vertices (Count = 24)
v -3.2 -0.64 0
v -3.84 -0.64 0
v -3.84 0 0
v -3.2 0 0
v -3.84 -0.64 0
v -4.48 -0.64 0
v -4.48 0 0
v -3.84 0 0
v -3.2 -1.28 0
v -3.84 -1.28 0
v -3.84 -0.64 0
v -3.2 -0.64 0
v -3.84 -1.28 0
v -4.48 -1.28 0
v -4.48 -0.64 0
v -3.84 -0.64 0
v -3.2 -1.92 0
v -3.84 -1.92 0
v -3.84 -1.28 0
v -3.2 -1.28 0
v -3.84 -1.92 0
v -4.48 -1.92 0
v -4.48 -1.28 0
v -3.84 -1.28 0

# Texture cooridinates (Count = 9)
vt 0 0.125
vt 0.1 0.125
vt 0.1 0.25
vt 0 0.25
vt 0.2 0.125
vt 0.2 0.25
vt 0.1 0.375
vt 0 0.375
vt 0.2 0.375

# Normal
vn 0 0 -1

# Mesh description
g BM2._mesh_0202

# Faces
f 1/1/1 2/2/1 3/3/1 4/4/1
f 5/2/1 6/5/1 7/6/1 8/3/1
f 9/4/1 10/3/1 11/7/1 12/8/1
f 13/3/1 14/6/1 15/9/1 16/7/1
f 17/4/1 18/3/1 19/7/1 20/8/1
f 21/3/1 22/6/1 23/9/1 24/7/1

