# Tiled2Unity generated file. Do not modify by hand.
# Wavefront file for 'BM2._mesh_0139.obj'

# Vertices (Count = 128)
v -5.12 -0.64 0
v -5.76 -0.64 0
v -5.76 0 0
v -5.12 0 0
v -5.76 -0.64 0
v -6.4 -0.64 0
v -6.4 0 0
v -5.76 0 0
v -7.68 -0.64 0
v -8.32 -0.64 0
v -8.32 0 0
v -7.68 0 0
v -8.32 -0.64 0
v -8.96 -0.64 0
v -8.96 0 0
v -8.32 0 0
v -5.12 -1.28 0
v -5.76 -1.28 0
v -5.76 -0.64 0
v -5.12 -0.64 0
v -5.76 -1.28 0
v -6.4 -1.28 0
v -6.4 -0.64 0
v -5.76 -0.64 0
v -7.68 -1.28 0
v -8.32 -1.28 0
v -8.32 -0.64 0
v -7.68 -0.64 0
v -8.32 -1.28 0
v -8.96 -1.28 0
v -8.96 -0.64 0
v -8.32 -0.64 0
v -5.12 -4.48 0
v -5.76 -4.48 0
v -5.76 -3.84 0
v -5.12 -3.84 0
v -5.76 -4.48 0
v -6.4 -4.48 0
v -6.4 -3.84 0
v -5.76 -3.84 0
v -7.68 -4.48 0
v -8.32 -4.48 0
v -8.32 -3.84 0
v -7.68 -3.84 0
v -8.32 -4.48 0
v -8.96 -4.48 0
v -8.96 -3.84 0
v -8.32 -3.84 0
v -5.12 -5.12 0
v -5.76 -5.12 0
v -5.76 -4.48 0
v -5.12 -4.48 0
v -5.76 -5.12 0
v -6.4 -5.12 0
v -6.4 -4.48 0
v -5.76 -4.48 0
v -7.68 -5.12 0
v -8.32 -5.12 0
v -8.32 -4.48 0
v -7.68 -4.48 0
v -8.32 -5.12 0
v -8.96 -5.12 0
v -8.96 -4.48 0
v -8.32 -4.48 0
v -5.12 -5.76 0
v -5.76 -5.76 0
v -5.76 -5.12 0
v -5.12 -5.12 0
v -5.76 -5.76 0
v -6.4 -5.76 0
v -6.4 -5.12 0
v -5.76 -5.12 0
v -7.68 -5.76 0
v -8.32 -5.76 0
v -8.32 -5.12 0
v -7.68 -5.12 0
v -8.32 -5.76 0
v -8.96 -5.76 0
v -8.96 -5.12 0
v -8.32 -5.12 0
v -5.12 -8.96 0
v -5.76 -8.96 0
v -5.76 -8.32 0
v -5.12 -8.32 0
v -5.76 -8.96 0
v -6.4 -8.96 0
v -6.4 -8.32 0
v -5.76 -8.32 0
v -7.68 -8.96 0
v -8.32 -8.96 0
v -8.32 -8.32 0
v -7.68 -8.32 0
v -8.32 -8.96 0
v -8.96 -8.96 0
v -8.96 -8.32 0
v -8.32 -8.32 0
v -5.12 -9.599999 0
v -5.76 -9.599999 0
v -5.76 -8.96 0
v -5.12 -8.96 0
v -5.76 -9.599999 0
v -6.4 -9.599999 0
v -6.4 -8.96 0
v -5.76 -8.96 0
v -7.68 -9.599999 0
v -8.32 -9.599999 0
v -8.32 -8.96 0
v -7.68 -8.96 0
v -8.32 -9.599999 0
v -8.96 -9.599999 0
v -8.96 -8.96 0
v -8.32 -8.96 0
v -5.12 -10.24 0
v -5.76 -10.24 0
v -5.76 -9.599999 0
v -5.12 -9.599999 0
v -5.76 -10.24 0
v -6.4 -10.24 0
v -6.4 -9.599999 0
v -5.76 -9.599999 0
v -7.68 -10.24 0
v -8.32 -10.24 0
v -8.32 -9.599999 0
v -7.68 -9.599999 0
v -8.32 -10.24 0
v -8.96 -10.24 0
v -8.96 -9.599999 0
v -8.32 -9.599999 0

# Texture cooridinates (Count = 12)
vt 0.5454546 0.6
vt 0.5909091 0.6
vt 0.5909091 0.7
vt 0.5454546 0.7
vt 0.6363636 0.6
vt 0.6363636 0.7
vt 0.5454546 0.5
vt 0.5909091 0.5
vt 0.6363636 0.5
vt 0.5909091 0.8
vt 0.5454546 0.8
vt 0.6363636 0.8

# Normal
vn 0 0 -1

# Mesh description
g BM2._mesh_0139

# Faces
f 1/1/1 2/2/1 3/3/1 4/4/1
f 5/2/1 6/5/1 7/6/1 8/3/1
f 9/1/1 10/2/1 11/3/1 12/4/1
f 13/2/1 14/5/1 15/6/1 16/3/1
f 17/7/1 18/8/1 19/2/1 20/1/1
f 21/8/1 22/9/1 23/5/1 24/2/1
f 25/7/1 26/8/1 27/2/1 28/1/1
f 29/8/1 30/9/1 31/5/1 32/2/1
f 33/4/1 34/3/1 35/10/1 36/11/1
f 37/3/1 38/6/1 39/12/1 40/10/1
f 41/4/1 42/3/1 43/10/1 44/11/1
f 45/3/1 46/6/1 47/12/1 48/10/1
f 49/1/1 50/2/1 51/3/1 52/4/1
f 53/2/1 54/5/1 55/6/1 56/3/1
f 57/1/1 58/2/1 59/3/1 60/4/1
f 61/2/1 62/5/1 63/6/1 64/3/1
f 65/7/1 66/8/1 67/2/1 68/1/1
f 69/8/1 70/9/1 71/5/1 72/2/1
f 73/7/1 74/8/1 75/2/1 76/1/1
f 77/8/1 78/9/1 79/5/1 80/2/1
f 81/4/1 82/3/1 83/10/1 84/11/1
f 85/3/1 86/6/1 87/12/1 88/10/1
f 89/4/1 90/3/1 91/10/1 92/11/1
f 93/3/1 94/6/1 95/12/1 96/10/1
f 97/1/1 98/2/1 99/3/1 100/4/1
f 101/2/1 102/5/1 103/6/1 104/3/1
f 105/1/1 106/2/1 107/3/1 108/4/1
f 109/2/1 110/5/1 111/6/1 112/3/1
f 113/7/1 114/8/1 115/2/1 116/1/1
f 117/8/1 118/9/1 119/5/1 120/2/1
f 121/7/1 122/8/1 123/2/1 124/1/1
f 125/8/1 126/9/1 127/5/1 128/2/1

