# Tiled2Unity generated file. Do not modify by hand.
# Wavefront file for 'BM2._mesh_0231.obj'

# Vertices (Count = 32)
v 0 -9.599999 0
v -0.64 -9.599999 0
v -0.64 -8.96 0
v 0 -8.96 0
v -0.64 -9.599999 0
v -1.28 -9.599999 0
v -1.28 -8.96 0
v -0.64 -8.96 0
v -1.28 -9.599999 0
v -1.92 -9.599999 0
v -1.92 -8.96 0
v -1.28 -8.96 0
v -1.92 -9.599999 0
v -2.56 -9.599999 0
v -2.56 -8.96 0
v -1.92 -8.96 0
v 0 -10.24 0
v -0.64 -10.24 0
v -0.64 -9.599999 0
v 0 -9.599999 0
v -0.64 -10.24 0
v -1.28 -10.24 0
v -1.28 -9.599999 0
v -0.64 -9.599999 0
v -1.28 -10.24 0
v -1.92 -10.24 0
v -1.92 -9.599999 0
v -1.28 -9.599999 0
v -1.92 -10.24 0
v -2.56 -10.24 0
v -2.56 -9.599999 0
v -1.92 -9.599999 0

# Texture cooridinates (Count = 15)
vt 0.6666667 0.9285714
vt 0.75 0.9285714
vt 0.75 1
vt 0.6666667 1
vt 0.8333333 0.9285714
vt 0.8333333 1
vt 0.9166667 0.9285714
vt 0.9166667 1
vt 1 0.9285714
vt 1 1
vt 0.6666667 0.8571429
vt 0.75 0.8571429
vt 0.8333333 0.8571429
vt 0.9166667 0.8571429
vt 1 0.8571429

# Normal
vn 0 0 -1

# Mesh description
g BM2._mesh_0231

# Faces
f 1/1/1 2/2/1 3/3/1 4/4/1
f 5/2/1 6/5/1 7/6/1 8/3/1
f 9/5/1 10/7/1 11/8/1 12/6/1
f 13/7/1 14/9/1 15/10/1 16/8/1
f 17/11/1 18/12/1 19/2/1 20/1/1
f 21/12/1 22/13/1 23/5/1 24/2/1
f 25/13/1 26/14/1 27/7/1 28/5/1
f 29/14/1 30/15/1 31/9/1 32/7/1

