# Tiled2Unity generated file. Do not modify by hand.
# Wavefront file for 'Rooftop_mesh_0010.obj'

# Vertices (Count = 448)
v -37.12 -17.92 0
v -37.76 -17.92 0
v -37.76 -17.28 0
v -37.12 -17.28 0
v -37.76 -17.92 0
v -38.4 -17.92 0
v -38.4 -17.28 0
v -37.76 -17.28 0
v -54.4 -17.92 0
v -55.04 -17.92 0
v -55.04 -17.28 0
v -54.4 -17.28 0
v -55.04 -17.92 0
v -55.68 -17.92 0
v -55.68 -17.28 0
v -55.04 -17.28 0
v -70.4 -17.92 0
v -71.04 -17.92 0
v -71.04 -17.28 0
v -70.4 -17.28 0
v -71.04 -17.92 0
v -71.68 -17.92 0
v -71.68 -17.28 0
v -71.04 -17.28 0
v -83.84 -17.92 0
v -84.48 -17.92 0
v -84.48 -17.28 0
v -83.84 -17.28 0
v -84.48 -17.92 0
v -85.12 -17.92 0
v -85.12 -17.28 0
v -84.48 -17.28 0
v -99.2 -17.92 0
v -99.84 -17.92 0
v -99.84 -17.28 0
v -99.2 -17.28 0
v -99.84 -17.92 0
v -100.48 -17.92 0
v -100.48 -17.28 0
v -99.84 -17.28 0
v -37.12 -18.56 0
v -37.76 -18.56 0
v -37.76 -17.92 0
v -37.12 -17.92 0
v -37.76 -18.56 0
v -38.4 -18.56 0
v -38.4 -17.92 0
v -37.76 -17.92 0
v -54.4 -18.56 0
v -55.04 -18.56 0
v -55.04 -17.92 0
v -54.4 -17.92 0
v -55.04 -18.56 0
v -55.68 -18.56 0
v -55.68 -17.92 0
v -55.04 -17.92 0
v -70.4 -18.56 0
v -71.04 -18.56 0
v -71.04 -17.92 0
v -70.4 -17.92 0
v -71.04 -18.56 0
v -71.68 -18.56 0
v -71.68 -17.92 0
v -71.04 -17.92 0
v -83.84 -18.56 0
v -84.48 -18.56 0
v -84.48 -17.92 0
v -83.84 -17.92 0
v -84.48 -18.56 0
v -85.12 -18.56 0
v -85.12 -17.92 0
v -84.48 -17.92 0
v -99.2 -18.56 0
v -99.84 -18.56 0
v -99.84 -17.92 0
v -99.2 -17.92 0
v -99.84 -18.56 0
v -100.48 -18.56 0
v -100.48 -17.92 0
v -99.84 -17.92 0
v -37.12 -19.2 0
v -37.76 -19.2 0
v -37.76 -18.56 0
v -37.12 -18.56 0
v -37.76 -19.2 0
v -38.4 -19.2 0
v -38.4 -18.56 0
v -37.76 -18.56 0
v -54.4 -19.2 0
v -55.04 -19.2 0
v -55.04 -18.56 0
v -54.4 -18.56 0
v -55.04 -19.2 0
v -55.68 -19.2 0
v -55.68 -18.56 0
v -55.04 -18.56 0
v -70.4 -19.2 0
v -71.04 -19.2 0
v -71.04 -18.56 0
v -70.4 -18.56 0
v -71.04 -19.2 0
v -71.68 -19.2 0
v -71.68 -18.56 0
v -71.04 -18.56 0
v -83.84 -19.2 0
v -84.48 -19.2 0
v -84.48 -18.56 0
v -83.84 -18.56 0
v -84.48 -19.2 0
v -85.12 -19.2 0
v -85.12 -18.56 0
v -84.48 -18.56 0
v -99.2 -19.2 0
v -99.84 -19.2 0
v -99.84 -18.56 0
v -99.2 -18.56 0
v -99.84 -19.2 0
v -100.48 -19.2 0
v -100.48 -18.56 0
v -99.84 -18.56 0
v -37.12 -19.84 0
v -37.76 -19.84 0
v -37.76 -19.2 0
v -37.12 -19.2 0
v -37.76 -19.84 0
v -38.4 -19.84 0
v -38.4 -19.2 0
v -37.76 -19.2 0
v -54.4 -19.84 0
v -55.04 -19.84 0
v -55.04 -19.2 0
v -54.4 -19.2 0
v -55.04 -19.84 0
v -55.68 -19.84 0
v -55.68 -19.2 0
v -55.04 -19.2 0
v -70.4 -19.84 0
v -71.04 -19.84 0
v -71.04 -19.2 0
v -70.4 -19.2 0
v -71.04 -19.84 0
v -71.68 -19.84 0
v -71.68 -19.2 0
v -71.04 -19.2 0
v -83.84 -19.84 0
v -84.48 -19.84 0
v -84.48 -19.2 0
v -83.84 -19.2 0
v -84.48 -19.84 0
v -85.12 -19.84 0
v -85.12 -19.2 0
v -84.48 -19.2 0
v -99.2 -19.84 0
v -99.84 -19.84 0
v -99.84 -19.2 0
v -99.2 -19.2 0
v -99.84 -19.84 0
v -100.48 -19.84 0
v -100.48 -19.2 0
v -99.84 -19.2 0
v -33.92 -27.52 0
v -34.56 -27.52 0
v -34.56 -26.88 0
v -33.92 -26.88 0
v -34.56 -27.52 0
v -35.2 -27.52 0
v -35.2 -26.88 0
v -34.56 -26.88 0
v -33.92 -28.16 0
v -34.56 -28.16 0
v -34.56 -27.52 0
v -33.92 -27.52 0
v -34.56 -28.16 0
v -35.2 -28.16 0
v -35.2 -27.52 0
v -34.56 -27.52 0
v -106.24 -28.16 0
v -106.88 -28.16 0
v -106.88 -27.52 0
v -106.24 -27.52 0
v -106.88 -28.16 0
v -107.52 -28.16 0
v -107.52 -27.52 0
v -106.88 -27.52 0
v -33.92 -28.8 0
v -34.56 -28.8 0
v -34.56 -28.16 0
v -33.92 -28.16 0
v -34.56 -28.8 0
v -35.2 -28.8 0
v -35.2 -28.16 0
v -34.56 -28.16 0
v -106.24 -28.8 0
v -106.88 -28.8 0
v -106.88 -28.16 0
v -106.24 -28.16 0
v -106.88 -28.8 0
v -107.52 -28.8 0
v -107.52 -28.16 0
v -106.88 -28.16 0
v -33.92 -29.44 0
v -34.56 -29.44 0
v -34.56 -28.8 0
v -33.92 -28.8 0
v -34.56 -29.44 0
v -35.2 -29.44 0
v -35.2 -28.8 0
v -34.56 -28.8 0
v -106.24 -29.44 0
v -106.88 -29.44 0
v -106.88 -28.8 0
v -106.24 -28.8 0
v -106.88 -29.44 0
v -107.52 -29.44 0
v -107.52 -28.8 0
v -106.88 -28.8 0
v -106.24 -30.08 0
v -106.88 -30.08 0
v -106.88 -29.44 0
v -106.24 -29.44 0
v -106.88 -30.08 0
v -107.52 -30.08 0
v -107.52 -29.44 0
v -106.88 -29.44 0
v -106.24 -39.04 0
v -106.88 -39.04 0
v -106.88 -38.4 0
v -106.24 -38.4 0
v -106.88 -39.04 0
v -107.52 -39.04 0
v -107.52 -38.4 0
v -106.88 -38.4 0
v -106.24 -39.68 0
v -106.88 -39.68 0
v -106.88 -39.04 0
v -106.24 -39.04 0
v -106.88 -39.68 0
v -107.52 -39.68 0
v -107.52 -39.04 0
v -106.88 -39.04 0
v -33.92 -40.32 0
v -34.56 -40.32 0
v -34.56 -39.68 0
v -33.92 -39.68 0
v -34.56 -40.32 0
v -35.2 -40.32 0
v -35.2 -39.68 0
v -34.56 -39.68 0
v -106.24 -40.32 0
v -106.88 -40.32 0
v -106.88 -39.68 0
v -106.24 -39.68 0
v -106.88 -40.32 0
v -107.52 -40.32 0
v -107.52 -39.68 0
v -106.88 -39.68 0
v -33.92 -40.96 0
v -34.56 -40.96 0
v -34.56 -40.32 0
v -33.92 -40.32 0
v -34.56 -40.96 0
v -35.2 -40.96 0
v -35.2 -40.32 0
v -34.56 -40.32 0
v -106.24 -40.96 0
v -106.88 -40.96 0
v -106.88 -40.32 0
v -106.24 -40.32 0
v -106.88 -40.96 0
v -107.52 -40.96 0
v -107.52 -40.32 0
v -106.88 -40.32 0
v -33.92 -41.6 0
v -34.56 -41.6 0
v -34.56 -40.96 0
v -33.92 -40.96 0
v -34.56 -41.6 0
v -35.2 -41.6 0
v -35.2 -40.96 0
v -34.56 -40.96 0
v -33.92 -42.24 0
v -34.56 -42.24 0
v -34.56 -41.6 0
v -33.92 -41.6 0
v -34.56 -42.24 0
v -35.2 -42.24 0
v -35.2 -41.6 0
v -34.56 -41.6 0
v -38.4 -44.8 0
v -39.04 -44.8 0
v -39.04 -44.16 0
v -38.4 -44.16 0
v -39.04 -44.8 0
v -39.68 -44.8 0
v -39.68 -44.16 0
v -39.04 -44.16 0
v -54.4 -44.8 0
v -55.04 -44.8 0
v -55.04 -44.16 0
v -54.4 -44.16 0
v -55.04 -44.8 0
v -55.68 -44.8 0
v -55.68 -44.16 0
v -55.04 -44.16 0
v -70.4 -44.8 0
v -71.04 -44.8 0
v -71.04 -44.16 0
v -70.4 -44.16 0
v -71.04 -44.8 0
v -71.68 -44.8 0
v -71.68 -44.16 0
v -71.04 -44.16 0
v -84.48 -44.8 0
v -85.12 -44.8 0
v -85.12 -44.16 0
v -84.48 -44.16 0
v -85.12 -44.8 0
v -85.75999 -44.8 0
v -85.75999 -44.16 0
v -85.12 -44.16 0
v -97.92 -44.8 0
v -98.56 -44.8 0
v -98.56 -44.16 0
v -97.92 -44.16 0
v -98.56 -44.8 0
v -99.2 -44.8 0
v -99.2 -44.16 0
v -98.56 -44.16 0
v -38.4 -45.44 0
v -39.04 -45.44 0
v -39.04 -44.8 0
v -38.4 -44.8 0
v -39.04 -45.44 0
v -39.68 -45.44 0
v -39.68 -44.8 0
v -39.04 -44.8 0
v -54.4 -45.44 0
v -55.04 -45.44 0
v -55.04 -44.8 0
v -54.4 -44.8 0
v -55.04 -45.44 0
v -55.68 -45.44 0
v -55.68 -44.8 0
v -55.04 -44.8 0
v -70.4 -45.44 0
v -71.04 -45.44 0
v -71.04 -44.8 0
v -70.4 -44.8 0
v -71.04 -45.44 0
v -71.68 -45.44 0
v -71.68 -44.8 0
v -71.04 -44.8 0
v -84.48 -45.44 0
v -85.12 -45.44 0
v -85.12 -44.8 0
v -84.48 -44.8 0
v -85.12 -45.44 0
v -85.75999 -45.44 0
v -85.75999 -44.8 0
v -85.12 -44.8 0
v -97.92 -45.44 0
v -98.56 -45.44 0
v -98.56 -44.8 0
v -97.92 -44.8 0
v -98.56 -45.44 0
v -99.2 -45.44 0
v -99.2 -44.8 0
v -98.56 -44.8 0
v -38.4 -46.08 0
v -39.04 -46.08 0
v -39.04 -45.44 0
v -38.4 -45.44 0
v -39.04 -46.08 0
v -39.68 -46.08 0
v -39.68 -45.44 0
v -39.04 -45.44 0
v -54.4 -46.08 0
v -55.04 -46.08 0
v -55.04 -45.44 0
v -54.4 -45.44 0
v -55.04 -46.08 0
v -55.68 -46.08 0
v -55.68 -45.44 0
v -55.04 -45.44 0
v -70.4 -46.08 0
v -71.04 -46.08 0
v -71.04 -45.44 0
v -70.4 -45.44 0
v -71.04 -46.08 0
v -71.68 -46.08 0
v -71.68 -45.44 0
v -71.04 -45.44 0
v -84.48 -46.08 0
v -85.12 -46.08 0
v -85.12 -45.44 0
v -84.48 -45.44 0
v -85.12 -46.08 0
v -85.75999 -46.08 0
v -85.75999 -45.44 0
v -85.12 -45.44 0
v -97.92 -46.08 0
v -98.56 -46.08 0
v -98.56 -45.44 0
v -97.92 -45.44 0
v -98.56 -46.08 0
v -99.2 -46.08 0
v -99.2 -45.44 0
v -98.56 -45.44 0
v -38.4 -46.72 0
v -39.04 -46.72 0
v -39.04 -46.08 0
v -38.4 -46.08 0
v -39.04 -46.72 0
v -39.68 -46.72 0
v -39.68 -46.08 0
v -39.04 -46.08 0
v -54.4 -46.72 0
v -55.04 -46.72 0
v -55.04 -46.08 0
v -54.4 -46.08 0
v -55.04 -46.72 0
v -55.68 -46.72 0
v -55.68 -46.08 0
v -55.04 -46.08 0
v -70.4 -46.72 0
v -71.04 -46.72 0
v -71.04 -46.08 0
v -70.4 -46.08 0
v -71.04 -46.72 0
v -71.68 -46.72 0
v -71.68 -46.08 0
v -71.04 -46.08 0
v -84.48 -46.72 0
v -85.12 -46.72 0
v -85.12 -46.08 0
v -84.48 -46.08 0
v -85.12 -46.72 0
v -85.75999 -46.72 0
v -85.75999 -46.08 0
v -85.12 -46.08 0
v -97.92 -46.72 0
v -98.56 -46.72 0
v -98.56 -46.08 0
v -97.92 -46.08 0
v -98.56 -46.72 0
v -99.2 -46.72 0
v -99.2 -46.08 0
v -98.56 -46.08 0

# Texture cooridinates (Count = 15)
vt 0 0.75
vt 0.5 0.75
vt 0.5 1
vt 0 1
vt 1 0.75
vt 1 1
vt 0 0.5
vt 0.5 0.5
vt 1 0.5
vt 0 0.25
vt 0.5 0.25
vt 1 0.25
vt 0 0
vt 0.5 0
vt 1 0

# Normal
vn 0 0 -1

# Mesh description
g Rooftop_mesh_0010

# Faces
f 1/1/1 2/2/1 3/3/1 4/4/1
f 5/2/1 6/5/1 7/6/1 8/3/1
f 9/1/1 10/2/1 11/3/1 12/4/1
f 13/2/1 14/5/1 15/6/1 16/3/1
f 17/1/1 18/2/1 19/3/1 20/4/1
f 21/2/1 22/5/1 23/6/1 24/3/1
f 25/1/1 26/2/1 27/3/1 28/4/1
f 29/2/1 30/5/1 31/6/1 32/3/1
f 33/1/1 34/2/1 35/3/1 36/4/1
f 37/2/1 38/5/1 39/6/1 40/3/1
f 41/7/1 42/8/1 43/2/1 44/1/1
f 45/8/1 46/9/1 47/5/1 48/2/1
f 49/7/1 50/8/1 51/2/1 52/1/1
f 53/8/1 54/9/1 55/5/1 56/2/1
f 57/7/1 58/8/1 59/2/1 60/1/1
f 61/8/1 62/9/1 63/5/1 64/2/1
f 65/7/1 66/8/1 67/2/1 68/1/1
f 69/8/1 70/9/1 71/5/1 72/2/1
f 73/7/1 74/8/1 75/2/1 76/1/1
f 77/8/1 78/9/1 79/5/1 80/2/1
f 81/10/1 82/11/1 83/8/1 84/7/1
f 85/11/1 86/12/1 87/9/1 88/8/1
f 89/10/1 90/11/1 91/8/1 92/7/1
f 93/11/1 94/12/1 95/9/1 96/8/1
f 97/10/1 98/11/1 99/8/1 100/7/1
f 101/11/1 102/12/1 103/9/1 104/8/1
f 105/10/1 106/11/1 107/8/1 108/7/1
f 109/11/1 110/12/1 111/9/1 112/8/1
f 113/10/1 114/11/1 115/8/1 116/7/1
f 117/11/1 118/12/1 119/9/1 120/8/1
f 121/13/1 122/14/1 123/11/1 124/10/1
f 125/14/1 126/15/1 127/12/1 128/11/1
f 129/13/1 130/14/1 131/11/1 132/10/1
f 133/14/1 134/15/1 135/12/1 136/11/1
f 137/13/1 138/14/1 139/11/1 140/10/1
f 141/14/1 142/15/1 143/12/1 144/11/1
f 145/13/1 146/14/1 147/11/1 148/10/1
f 149/14/1 150/15/1 151/12/1 152/11/1
f 153/13/1 154/14/1 155/11/1 156/10/1
f 157/14/1 158/15/1 159/12/1 160/11/1
f 161/1/1 162/2/1 163/3/1 164/4/1
f 165/2/1 166/5/1 167/6/1 168/3/1
f 169/7/1 170/8/1 171/2/1 172/1/1
f 173/8/1 174/9/1 175/5/1 176/2/1
f 177/1/1 178/2/1 179/3/1 180/4/1
f 181/2/1 182/5/1 183/6/1 184/3/1
f 185/10/1 186/11/1 187/8/1 188/7/1
f 189/11/1 190/12/1 191/9/1 192/8/1
f 193/7/1 194/8/1 195/2/1 196/1/1
f 197/8/1 198/9/1 199/5/1 200/2/1
f 201/13/1 202/14/1 203/11/1 204/10/1
f 205/14/1 206/15/1 207/12/1 208/11/1
f 209/10/1 210/11/1 211/8/1 212/7/1
f 213/11/1 214/12/1 215/9/1 216/8/1
f 217/13/1 218/14/1 219/11/1 220/10/1
f 221/14/1 222/15/1 223/12/1 224/11/1
f 225/1/1 226/2/1 227/3/1 228/4/1
f 229/2/1 230/5/1 231/6/1 232/3/1
f 233/7/1 234/8/1 235/2/1 236/1/1
f 237/8/1 238/9/1 239/5/1 240/2/1
f 241/1/1 242/2/1 243/3/1 244/4/1
f 245/2/1 246/5/1 247/6/1 248/3/1
f 249/10/1 250/11/1 251/8/1 252/7/1
f 253/11/1 254/12/1 255/9/1 256/8/1
f 257/7/1 258/8/1 259/2/1 260/1/1
f 261/8/1 262/9/1 263/5/1 264/2/1
f 265/13/1 266/14/1 267/11/1 268/10/1
f 269/14/1 270/15/1 271/12/1 272/11/1
f 273/10/1 274/11/1 275/8/1 276/7/1
f 277/11/1 278/12/1 279/9/1 280/8/1
f 281/13/1 282/14/1 283/11/1 284/10/1
f 285/14/1 286/15/1 287/12/1 288/11/1
f 289/1/1 290/2/1 291/3/1 292/4/1
f 293/2/1 294/5/1 295/6/1 296/3/1
f 297/1/1 298/2/1 299/3/1 300/4/1
f 301/2/1 302/5/1 303/6/1 304/3/1
f 305/1/1 306/2/1 307/3/1 308/4/1
f 309/2/1 310/5/1 311/6/1 312/3/1
f 313/1/1 314/2/1 315/3/1 316/4/1
f 317/2/1 318/5/1 319/6/1 320/3/1
f 321/1/1 322/2/1 323/3/1 324/4/1
f 325/2/1 326/5/1 327/6/1 328/3/1
f 329/7/1 330/8/1 331/2/1 332/1/1
f 333/8/1 334/9/1 335/5/1 336/2/1
f 337/7/1 338/8/1 339/2/1 340/1/1
f 341/8/1 342/9/1 343/5/1 344/2/1
f 345/7/1 346/8/1 347/2/1 348/1/1
f 349/8/1 350/9/1 351/5/1 352/2/1
f 353/7/1 354/8/1 355/2/1 356/1/1
f 357/8/1 358/9/1 359/5/1 360/2/1
f 361/7/1 362/8/1 363/2/1 364/1/1
f 365/8/1 366/9/1 367/5/1 368/2/1
f 369/10/1 370/11/1 371/8/1 372/7/1
f 373/11/1 374/12/1 375/9/1 376/8/1
f 377/10/1 378/11/1 379/8/1 380/7/1
f 381/11/1 382/12/1 383/9/1 384/8/1
f 385/10/1 386/11/1 387/8/1 388/7/1
f 389/11/1 390/12/1 391/9/1 392/8/1
f 393/10/1 394/11/1 395/8/1 396/7/1
f 397/11/1 398/12/1 399/9/1 400/8/1
f 401/10/1 402/11/1 403/8/1 404/7/1
f 405/11/1 406/12/1 407/9/1 408/8/1
f 409/13/1 410/14/1 411/11/1 412/10/1
f 413/14/1 414/15/1 415/12/1 416/11/1
f 417/13/1 418/14/1 419/11/1 420/10/1
f 421/14/1 422/15/1 423/12/1 424/11/1
f 425/13/1 426/14/1 427/11/1 428/10/1
f 429/14/1 430/15/1 431/12/1 432/11/1
f 433/13/1 434/14/1 435/11/1 436/10/1
f 437/14/1 438/15/1 439/12/1 440/11/1
f 441/13/1 442/14/1 443/11/1 444/10/1
f 445/14/1 446/15/1 447/12/1 448/11/1

