# Tiled2Unity generated file. Do not modify by hand.
# Wavefront file for 'Chimney_mesh_0005.obj'

# Vertices (Count = 760)
v -3.84 -4.48 0
v -4.48 -4.48 0
v -4.48 -3.84 0
v -3.84 -3.84 0
v -4.48 -4.48 0
v -5.12 -4.48 0
v -5.12 -3.84 0
v -4.48 -3.84 0
v -5.12 -4.48 0
v -5.76 -4.48 0
v -5.76 -3.84 0
v -5.12 -3.84 0
v -5.76 -4.48 0
v -6.4 -4.48 0
v -6.4 -3.84 0
v -5.76 -3.84 0
v -6.4 -4.48 0
v -7.04 -4.48 0
v -7.04 -3.84 0
v -6.4 -3.84 0
v -7.04 -4.48 0
v -7.68 -4.48 0
v -7.68 -3.84 0
v -7.04 -3.84 0
v -7.68 -4.48 0
v -8.32 -4.48 0
v -8.32 -3.84 0
v -7.68 -3.84 0
v -8.32 -4.48 0
v -8.96 -4.48 0
v -8.96 -3.84 0
v -8.32 -3.84 0
v -8.96 -4.48 0
v -9.599999 -4.48 0
v -9.599999 -3.84 0
v -8.96 -3.84 0
v -9.599999 -4.48 0
v -10.24 -4.48 0
v -10.24 -3.84 0
v -9.599999 -3.84 0
v -10.24 -4.48 0
v -10.88 -4.48 0
v -10.88 -3.84 0
v -10.24 -3.84 0
v -10.88 -4.48 0
v -11.52 -4.48 0
v -11.52 -3.84 0
v -10.88 -3.84 0
v -11.52 -4.48 0
v -12.16 -4.48 0
v -12.16 -3.84 0
v -11.52 -3.84 0
v -12.16 -4.48 0
v -12.8 -4.48 0
v -12.8 -3.84 0
v -12.16 -3.84 0
v -12.8 -4.48 0
v -13.44 -4.48 0
v -13.44 -3.84 0
v -12.8 -3.84 0
v -13.44 -4.48 0
v -14.08 -4.48 0
v -14.08 -3.84 0
v -13.44 -3.84 0
v -3.84 -5.12 0
v -4.48 -5.12 0
v -4.48 -4.48 0
v -3.84 -4.48 0
v -4.48 -5.12 0
v -5.12 -5.12 0
v -5.12 -4.48 0
v -4.48 -4.48 0
v -5.12 -5.12 0
v -5.76 -5.12 0
v -5.76 -4.48 0
v -5.12 -4.48 0
v -5.76 -5.12 0
v -6.4 -5.12 0
v -6.4 -4.48 0
v -5.76 -4.48 0
v -6.4 -5.12 0
v -7.04 -5.12 0
v -7.04 -4.48 0
v -6.4 -4.48 0
v -7.04 -5.12 0
v -7.68 -5.12 0
v -7.68 -4.48 0
v -7.04 -4.48 0
v -7.68 -5.12 0
v -8.32 -5.12 0
v -8.32 -4.48 0
v -7.68 -4.48 0
v -8.32 -5.12 0
v -8.96 -5.12 0
v -8.96 -4.48 0
v -8.32 -4.48 0
v -8.96 -5.12 0
v -9.599999 -5.12 0
v -9.599999 -4.48 0
v -8.96 -4.48 0
v -9.599999 -5.12 0
v -10.24 -5.12 0
v -10.24 -4.48 0
v -9.599999 -4.48 0
v -10.24 -5.12 0
v -10.88 -5.12 0
v -10.88 -4.48 0
v -10.24 -4.48 0
v -10.88 -5.12 0
v -11.52 -5.12 0
v -11.52 -4.48 0
v -10.88 -4.48 0
v -11.52 -5.12 0
v -12.16 -5.12 0
v -12.16 -4.48 0
v -11.52 -4.48 0
v -12.16 -5.12 0
v -12.8 -5.12 0
v -12.8 -4.48 0
v -12.16 -4.48 0
v -12.8 -5.12 0
v -13.44 -5.12 0
v -13.44 -4.48 0
v -12.8 -4.48 0
v -13.44 -5.12 0
v -14.08 -5.12 0
v -14.08 -4.48 0
v -13.44 -4.48 0
v -3.84 -5.76 0
v -4.48 -5.76 0
v -4.48 -5.12 0
v -3.84 -5.12 0
v -4.48 -5.76 0
v -5.12 -5.76 0
v -5.12 -5.12 0
v -4.48 -5.12 0
v -5.12 -5.76 0
v -5.76 -5.76 0
v -5.76 -5.12 0
v -5.12 -5.12 0
v -5.76 -5.76 0
v -6.4 -5.76 0
v -6.4 -5.12 0
v -5.76 -5.12 0
v -6.4 -5.76 0
v -7.04 -5.76 0
v -7.04 -5.12 0
v -6.4 -5.12 0
v -7.04 -5.76 0
v -7.68 -5.76 0
v -7.68 -5.12 0
v -7.04 -5.12 0
v -7.68 -5.76 0
v -8.32 -5.76 0
v -8.32 -5.12 0
v -7.68 -5.12 0
v -8.32 -5.76 0
v -8.96 -5.76 0
v -8.96 -5.12 0
v -8.32 -5.12 0
v -8.96 -5.76 0
v -9.599999 -5.76 0
v -9.599999 -5.12 0
v -8.96 -5.12 0
v -9.599999 -5.76 0
v -10.24 -5.76 0
v -10.24 -5.12 0
v -9.599999 -5.12 0
v -10.24 -5.76 0
v -10.88 -5.76 0
v -10.88 -5.12 0
v -10.24 -5.12 0
v -10.88 -5.76 0
v -11.52 -5.76 0
v -11.52 -5.12 0
v -10.88 -5.12 0
v -11.52 -5.76 0
v -12.16 -5.76 0
v -12.16 -5.12 0
v -11.52 -5.12 0
v -12.16 -5.76 0
v -12.8 -5.76 0
v -12.8 -5.12 0
v -12.16 -5.12 0
v -3.84 -6.4 0
v -4.48 -6.4 0
v -4.48 -5.76 0
v -3.84 -5.76 0
v -4.48 -6.4 0
v -5.12 -6.4 0
v -5.12 -5.76 0
v -4.48 -5.76 0
v -5.12 -6.4 0
v -5.76 -6.4 0
v -5.76 -5.76 0
v -5.12 -5.76 0
v -5.76 -6.4 0
v -6.4 -6.4 0
v -6.4 -5.76 0
v -5.76 -5.76 0
v -6.4 -6.4 0
v -7.04 -6.4 0
v -7.04 -5.76 0
v -6.4 -5.76 0
v -7.04 -6.4 0
v -7.68 -6.4 0
v -7.68 -5.76 0
v -7.04 -5.76 0
v -7.68 -6.4 0
v -8.32 -6.4 0
v -8.32 -5.76 0
v -7.68 -5.76 0
v -8.32 -6.4 0
v -8.96 -6.4 0
v -8.96 -5.76 0
v -8.32 -5.76 0
v -8.96 -6.4 0
v -9.599999 -6.4 0
v -9.599999 -5.76 0
v -8.96 -5.76 0
v -10.24 -6.4 0
v -10.88 -6.4 0
v -10.88 -5.76 0
v -10.24 -5.76 0
v -10.88 -6.4 0
v -11.52 -6.4 0
v -11.52 -5.76 0
v -10.88 -5.76 0
v -11.52 -6.4 0
v -12.16 -6.4 0
v -12.16 -5.76 0
v -11.52 -5.76 0
v -12.16 -6.4 0
v -12.8 -6.4 0
v -12.8 -5.76 0
v -12.16 -5.76 0
v -3.84 -7.04 0
v -4.48 -7.04 0
v -4.48 -6.4 0
v -3.84 -6.4 0
v -4.48 -7.04 0
v -5.12 -7.04 0
v -5.12 -6.4 0
v -4.48 -6.4 0
v -5.12 -7.04 0
v -5.76 -7.04 0
v -5.76 -6.4 0
v -5.12 -6.4 0
v -3.84 -7.68 0
v -4.48 -7.68 0
v -4.48 -7.04 0
v -3.84 -7.04 0
v -4.48 -7.68 0
v -5.12 -7.68 0
v -5.12 -7.04 0
v -4.48 -7.04 0
v -5.12 -7.68 0
v -5.76 -7.68 0
v -5.76 -7.04 0
v -5.12 -7.04 0
v -3.84 -8.32 0
v -4.48 -8.32 0
v -4.48 -7.68 0
v -3.84 -7.68 0
v -4.48 -8.32 0
v -5.12 -8.32 0
v -5.12 -7.68 0
v -4.48 -7.68 0
v -5.12 -8.32 0
v -5.76 -8.32 0
v -5.76 -7.68 0
v -5.12 -7.68 0
v -3.84 -8.96 0
v -4.48 -8.96 0
v -4.48 -8.32 0
v -3.84 -8.32 0
v -4.48 -8.96 0
v -5.12 -8.96 0
v -5.12 -8.32 0
v -4.48 -8.32 0
v -5.12 -8.96 0
v -5.76 -8.96 0
v -5.76 -8.32 0
v -5.12 -8.32 0
v -3.84 -9.599999 0
v -4.48 -9.599999 0
v -4.48 -8.96 0
v -3.84 -8.96 0
v -4.48 -9.599999 0
v -5.12 -9.599999 0
v -5.12 -8.96 0
v -4.48 -8.96 0
v -5.12 -9.599999 0
v -5.76 -9.599999 0
v -5.76 -8.96 0
v -5.12 -8.96 0
v -5.76 -9.599999 0
v -6.4 -9.599999 0
v -6.4 -8.96 0
v -5.76 -8.96 0
v -6.4 -9.599999 0
v -7.04 -9.599999 0
v -7.04 -8.96 0
v -6.4 -8.96 0
v -7.04 -9.599999 0
v -7.68 -9.599999 0
v -7.68 -8.96 0
v -7.04 -8.96 0
v -7.68 -9.599999 0
v -8.32 -9.599999 0
v -8.32 -8.96 0
v -7.68 -8.96 0
v -8.32 -9.599999 0
v -8.96 -9.599999 0
v -8.96 -8.96 0
v -8.32 -8.96 0
v -8.96 -9.599999 0
v -9.599999 -9.599999 0
v -9.599999 -8.96 0
v -8.96 -8.96 0
v -9.599999 -9.599999 0
v -10.24 -9.599999 0
v -10.24 -8.96 0
v -9.599999 -8.96 0
v -10.24 -9.599999 0
v -10.88 -9.599999 0
v -10.88 -8.96 0
v -10.24 -8.96 0
v -10.88 -9.599999 0
v -11.52 -9.599999 0
v -11.52 -8.96 0
v -10.88 -8.96 0
v -11.52 -9.599999 0
v -12.16 -9.599999 0
v -12.16 -8.96 0
v -11.52 -8.96 0
v -12.16 -9.599999 0
v -12.8 -9.599999 0
v -12.8 -8.96 0
v -12.16 -8.96 0
v -12.8 -9.599999 0
v -13.44 -9.599999 0
v -13.44 -8.96 0
v -12.8 -8.96 0
v -13.44 -9.599999 0
v -14.08 -9.599999 0
v -14.08 -8.96 0
v -13.44 -8.96 0
v -3.84 -10.24 0
v -4.48 -10.24 0
v -4.48 -9.599999 0
v -3.84 -9.599999 0
v -4.48 -10.24 0
v -5.12 -10.24 0
v -5.12 -9.599999 0
v -4.48 -9.599999 0
v -5.12 -10.24 0
v -5.76 -10.24 0
v -5.76 -9.599999 0
v -5.12 -9.599999 0
v -5.76 -10.24 0
v -6.4 -10.24 0
v -6.4 -9.599999 0
v -5.76 -9.599999 0
v -6.4 -10.24 0
v -7.04 -10.24 0
v -7.04 -9.599999 0
v -6.4 -9.599999 0
v -7.04 -10.24 0
v -7.68 -10.24 0
v -7.68 -9.599999 0
v -7.04 -9.599999 0
v -7.68 -10.24 0
v -8.32 -10.24 0
v -8.32 -9.599999 0
v -7.68 -9.599999 0
v -8.32 -10.24 0
v -8.96 -10.24 0
v -8.96 -9.599999 0
v -8.32 -9.599999 0
v -8.96 -10.24 0
v -9.599999 -10.24 0
v -9.599999 -9.599999 0
v -8.96 -9.599999 0
v -9.599999 -10.24 0
v -10.24 -10.24 0
v -10.24 -9.599999 0
v -9.599999 -9.599999 0
v -10.24 -10.24 0
v -10.88 -10.24 0
v -10.88 -9.599999 0
v -10.24 -9.599999 0
v -10.88 -10.24 0
v -11.52 -10.24 0
v -11.52 -9.599999 0
v -10.88 -9.599999 0
v -11.52 -10.24 0
v -12.16 -10.24 0
v -12.16 -9.599999 0
v -11.52 -9.599999 0
v -12.16 -10.24 0
v -12.8 -10.24 0
v -12.8 -9.599999 0
v -12.16 -9.599999 0
v -3.84 -10.88 0
v -4.48 -10.88 0
v -4.48 -10.24 0
v -3.84 -10.24 0
v -4.48 -10.88 0
v -5.12 -10.88 0
v -5.12 -10.24 0
v -4.48 -10.24 0
v -5.12 -10.88 0
v -5.76 -10.88 0
v -5.76 -10.24 0
v -5.12 -10.24 0
v -5.76 -10.88 0
v -6.4 -10.88 0
v -6.4 -10.24 0
v -5.76 -10.24 0
v -6.4 -10.88 0
v -7.04 -10.88 0
v -7.04 -10.24 0
v -6.4 -10.24 0
v -7.04 -10.88 0
v -7.68 -10.88 0
v -7.68 -10.24 0
v -7.04 -10.24 0
v -7.68 -10.88 0
v -8.32 -10.88 0
v -8.32 -10.24 0
v -7.68 -10.24 0
v -8.32 -10.88 0
v -8.96 -10.88 0
v -8.96 -10.24 0
v -8.32 -10.24 0
v -8.96 -10.88 0
v -9.599999 -10.88 0
v -9.599999 -10.24 0
v -8.96 -10.24 0
v -9.599999 -10.88 0
v -10.24 -10.88 0
v -10.24 -10.24 0
v -9.599999 -10.24 0
v -10.24 -10.88 0
v -10.88 -10.88 0
v -10.88 -10.24 0
v -10.24 -10.24 0
v -10.88 -10.88 0
v -11.52 -10.88 0
v -11.52 -10.24 0
v -10.88 -10.24 0
v -11.52 -10.88 0
v -12.16 -10.88 0
v -12.16 -10.24 0
v -11.52 -10.24 0
v -12.16 -10.88 0
v -12.8 -10.88 0
v -12.8 -10.24 0
v -12.16 -10.24 0
v -3.84 -11.52 0
v -4.48 -11.52 0
v -4.48 -10.88 0
v -3.84 -10.88 0
v -4.48 -11.52 0
v -5.12 -11.52 0
v -5.12 -10.88 0
v -4.48 -10.88 0
v -5.12 -11.52 0
v -5.76 -11.52 0
v -5.76 -10.88 0
v -5.12 -10.88 0
v -3.84 -12.16 0
v -4.48 -12.16 0
v -4.48 -11.52 0
v -3.84 -11.52 0
v -4.48 -12.16 0
v -5.12 -12.16 0
v -5.12 -11.52 0
v -4.48 -11.52 0
v -5.12 -12.16 0
v -5.76 -12.16 0
v -5.76 -11.52 0
v -5.12 -11.52 0
v -3.84 -12.8 0
v -4.48 -12.8 0
v -4.48 -12.16 0
v -3.84 -12.16 0
v -4.48 -12.8 0
v -5.12 -12.8 0
v -5.12 -12.16 0
v -4.48 -12.16 0
v -5.12 -12.8 0
v -5.76 -12.8 0
v -5.76 -12.16 0
v -5.12 -12.16 0
v -3.84 -13.44 0
v -4.48 -13.44 0
v -4.48 -12.8 0
v -3.84 -12.8 0
v -4.48 -13.44 0
v -5.12 -13.44 0
v -5.12 -12.8 0
v -4.48 -12.8 0
v -5.12 -13.44 0
v -5.76 -13.44 0
v -5.76 -12.8 0
v -5.12 -12.8 0
v -3.84 -14.08 0
v -4.48 -14.08 0
v -4.48 -13.44 0
v -3.84 -13.44 0
v -4.48 -14.08 0
v -5.12 -14.08 0
v -5.12 -13.44 0
v -4.48 -13.44 0
v -5.12 -14.08 0
v -5.76 -14.08 0
v -5.76 -13.44 0
v -5.12 -13.44 0
v -3.84 -14.72 0
v -4.48 -14.72 0
v -4.48 -14.08 0
v -3.84 -14.08 0
v -4.48 -14.72 0
v -5.12 -14.72 0
v -5.12 -14.08 0
v -4.48 -14.08 0
v -5.12 -14.72 0
v -5.76 -14.72 0
v -5.76 -14.08 0
v -5.12 -14.08 0
v -5.76 -14.72 0
v -6.4 -14.72 0
v -6.4 -14.08 0
v -5.76 -14.08 0
v -6.4 -14.72 0
v -7.04 -14.72 0
v -7.04 -14.08 0
v -6.4 -14.08 0
v -7.04 -14.72 0
v -7.68 -14.72 0
v -7.68 -14.08 0
v -7.04 -14.08 0
v -7.68 -14.72 0
v -8.32 -14.72 0
v -8.32 -14.08 0
v -7.68 -14.08 0
v -8.32 -14.72 0
v -8.96 -14.72 0
v -8.96 -14.08 0
v -8.32 -14.08 0
v -8.96 -14.72 0
v -9.599999 -14.72 0
v -9.599999 -14.08 0
v -8.96 -14.08 0
v -9.599999 -14.72 0
v -10.24 -14.72 0
v -10.24 -14.08 0
v -9.599999 -14.08 0
v -10.24 -14.72 0
v -10.88 -14.72 0
v -10.88 -14.08 0
v -10.24 -14.08 0
v -10.88 -14.72 0
v -11.52 -14.72 0
v -11.52 -14.08 0
v -10.88 -14.08 0
v -11.52 -14.72 0
v -12.16 -14.72 0
v -12.16 -14.08 0
v -11.52 -14.08 0
v -12.16 -14.72 0
v -12.8 -14.72 0
v -12.8 -14.08 0
v -12.16 -14.08 0
v -12.8 -14.72 0
v -13.44 -14.72 0
v -13.44 -14.08 0
v -12.8 -14.08 0
v -13.44 -14.72 0
v -14.08 -14.72 0
v -14.08 -14.08 0
v -13.44 -14.08 0
v -3.84 -15.36 0
v -4.48 -15.36 0
v -4.48 -14.72 0
v -3.84 -14.72 0
v -4.48 -15.36 0
v -5.12 -15.36 0
v -5.12 -14.72 0
v -4.48 -14.72 0
v -5.12 -15.36 0
v -5.76 -15.36 0
v -5.76 -14.72 0
v -5.12 -14.72 0
v -5.76 -15.36 0
v -6.4 -15.36 0
v -6.4 -14.72 0
v -5.76 -14.72 0
v -6.4 -15.36 0
v -7.04 -15.36 0
v -7.04 -14.72 0
v -6.4 -14.72 0
v -7.04 -15.36 0
v -7.68 -15.36 0
v -7.68 -14.72 0
v -7.04 -14.72 0
v -7.68 -15.36 0
v -8.32 -15.36 0
v -8.32 -14.72 0
v -7.68 -14.72 0
v -8.32 -15.36 0
v -8.96 -15.36 0
v -8.96 -14.72 0
v -8.32 -14.72 0
v -8.96 -15.36 0
v -9.599999 -15.36 0
v -9.599999 -14.72 0
v -8.96 -14.72 0
v -9.599999 -15.36 0
v -10.24 -15.36 0
v -10.24 -14.72 0
v -9.599999 -14.72 0
v -10.24 -15.36 0
v -10.88 -15.36 0
v -10.88 -14.72 0
v -10.24 -14.72 0
v -10.88 -15.36 0
v -11.52 -15.36 0
v -11.52 -14.72 0
v -10.88 -14.72 0
v -11.52 -15.36 0
v -12.16 -15.36 0
v -12.16 -14.72 0
v -11.52 -14.72 0
v -12.16 -15.36 0
v -12.8 -15.36 0
v -12.8 -14.72 0
v -12.16 -14.72 0
v -12.8 -15.36 0
v -13.44 -15.36 0
v -13.44 -14.72 0
v -12.8 -14.72 0
v -13.44 -15.36 0
v -14.08 -15.36 0
v -14.08 -14.72 0
v -13.44 -14.72 0
v -3.84 -16 0
v -4.48 -16 0
v -4.48 -15.36 0
v -3.84 -15.36 0
v -4.48 -16 0
v -5.12 -16 0
v -5.12 -15.36 0
v -4.48 -15.36 0
v -5.12 -16 0
v -5.76 -16 0
v -5.76 -15.36 0
v -5.12 -15.36 0
v -5.76 -16 0
v -6.4 -16 0
v -6.4 -15.36 0
v -5.76 -15.36 0
v -6.4 -16 0
v -7.04 -16 0
v -7.04 -15.36 0
v -6.4 -15.36 0
v -7.04 -16 0
v -7.68 -16 0
v -7.68 -15.36 0
v -7.04 -15.36 0
v -7.68 -16 0
v -8.32 -16 0
v -8.32 -15.36 0
v -7.68 -15.36 0
v -8.32 -16 0
v -8.96 -16 0
v -8.96 -15.36 0
v -8.32 -15.36 0
v -8.96 -16 0
v -9.599999 -16 0
v -9.599999 -15.36 0
v -8.96 -15.36 0
v -9.599999 -16 0
v -10.24 -16 0
v -10.24 -15.36 0
v -9.599999 -15.36 0
v -10.24 -16 0
v -10.88 -16 0
v -10.88 -15.36 0
v -10.24 -15.36 0
v -10.88 -16 0
v -11.52 -16 0
v -11.52 -15.36 0
v -10.88 -15.36 0
v -11.52 -16 0
v -12.16 -16 0
v -12.16 -15.36 0
v -11.52 -15.36 0
v -12.16 -16 0
v -12.8 -16 0
v -12.8 -15.36 0
v -12.16 -15.36 0
v -3.84 -16.64 0
v -4.48 -16.64 0
v -4.48 -16 0
v -3.84 -16 0
v -4.48 -16.64 0
v -5.12 -16.64 0
v -5.12 -16 0
v -4.48 -16 0
v -5.12 -16.64 0
v -5.76 -16.64 0
v -5.76 -16 0
v -5.12 -16 0
v -5.76 -16.64 0
v -6.4 -16.64 0
v -6.4 -16 0
v -5.76 -16 0
v -6.4 -16.64 0
v -7.04 -16.64 0
v -7.04 -16 0
v -6.4 -16 0
v -7.04 -16.64 0
v -7.68 -16.64 0
v -7.68 -16 0
v -7.04 -16 0
v -7.68 -16.64 0
v -8.32 -16.64 0
v -8.32 -16 0
v -7.68 -16 0
v -8.32 -16.64 0
v -8.96 -16.64 0
v -8.96 -16 0
v -8.32 -16 0
v -8.96 -16.64 0
v -9.599999 -16.64 0
v -9.599999 -16 0
v -8.96 -16 0
v -9.599999 -16.64 0
v -10.24 -16.64 0
v -10.24 -16 0
v -9.599999 -16 0
v -10.24 -16.64 0
v -10.88 -16.64 0
v -10.88 -16 0
v -10.24 -16 0
v -10.88 -16.64 0
v -11.52 -16.64 0
v -11.52 -16 0
v -10.88 -16 0
v -11.52 -16.64 0
v -12.16 -16.64 0
v -12.16 -16 0
v -11.52 -16 0
v -12.16 -16.64 0
v -12.8 -16.64 0
v -12.8 -16 0
v -12.16 -16 0

# Texture cooridinates (Count = 42)
vt 0.1666667 0.4166667
vt 0.3333333 0.4166667
vt 0.3333333 0.5
vt 0.1666667 0.5
vt 0.5 0.4166667
vt 0.5 0.5
vt 0.6666667 0.4166667
vt 0.6666667 0.5
vt 0.8333333 0.4166667
vt 0.8333333 0.5
vt 0.6666667 0.08333331
vt 0.8333333 0.08333331
vt 0.8333333 0.1666667
vt 0.6666667 0.1666667
vt 1 0.08333331
vt 1 0.1666667
vt 0.1666667 0.3333333
vt 0.3333333 0.3333333
vt 0.5 0.3333333
vt 0.6666667 0.3333333
vt 0.8333333 0.3333333
vt 0.6666667 0
vt 0.8333333 0
vt 1 0
vt 0.3333333 0.25
vt 0.5 0.25
vt 0.6666667 0.25
vt 0.8333333 0.25
vt 0.1666667 0.25
vt 0.3333333 0.1666667
vt 0.5 0.1666667
vt 0.3333333 0.08333331
vt 0.5 0.08333331
vt 0.1666667 0.1666667
vt 0.3333333 0
vt 0.5 0
vt 0.5 0.5833334
vt 0.3333333 0.5833334
vt 0.6666667 0.5833334
vt 0.8333333 0.5833334
vt 0.5 0.6666666
vt 0.3333333 0.6666666

# Normal
vn 0 0 -1

# Mesh description
g Chimney_mesh_0005

# Faces
f 1/1/1 2/2/1 3/3/1 4/4/1
f 5/2/1 6/5/1 7/6/1 8/3/1
f 9/5/1 10/7/1 11/8/1 12/6/1
f 13/7/1 14/9/1 15/10/1 16/8/1
f 17/1/1 18/2/1 19/3/1 20/4/1
f 21/2/1 22/5/1 23/6/1 24/3/1
f 25/11/1 26/12/1 27/13/1 28/14/1
f 29/12/1 30/15/1 31/16/1 32/13/1
f 33/1/1 34/2/1 35/3/1 36/4/1
f 37/2/1 38/5/1 39/6/1 40/3/1
f 41/5/1 42/7/1 43/8/1 44/6/1
f 45/7/1 46/9/1 47/10/1 48/8/1
f 49/1/1 50/2/1 51/3/1 52/4/1
f 53/2/1 54/5/1 55/6/1 56/3/1
f 57/5/1 58/7/1 59/8/1 60/6/1
f 61/7/1 62/9/1 63/10/1 64/8/1
f 65/17/1 66/18/1 67/2/1 68/1/1
f 69/18/1 70/19/1 71/5/1 72/2/1
f 73/19/1 74/20/1 75/7/1 76/5/1
f 77/20/1 78/21/1 79/9/1 80/7/1
f 81/17/1 82/18/1 83/2/1 84/1/1
f 85/18/1 86/19/1 87/5/1 88/2/1
f 89/22/1 90/23/1 91/12/1 92/11/1
f 93/23/1 94/24/1 95/15/1 96/12/1
f 97/17/1 98/18/1 99/2/1 100/1/1
f 101/25/1 102/26/1 103/19/1 104/18/1
f 105/19/1 106/20/1 107/7/1 108/5/1
f 109/20/1 110/21/1 111/9/1 112/7/1
f 113/17/1 114/18/1 115/2/1 116/1/1
f 117/18/1 118/19/1 119/5/1 120/2/1
f 121/19/1 122/20/1 123/7/1 124/5/1
f 125/20/1 126/21/1 127/9/1 128/7/1
f 129/1/1 130/2/1 131/3/1 132/4/1
f 133/2/1 134/5/1 135/6/1 136/3/1
f 137/5/1 138/7/1 139/8/1 140/6/1
f 141/27/1 142/28/1 143/21/1 144/20/1
f 145/29/1 146/25/1 147/18/1 148/17/1
f 149/25/1 150/26/1 151/19/1 152/18/1
f 153/26/1 154/27/1 155/20/1 156/19/1
f 157/27/1 158/28/1 159/21/1 160/20/1
f 161/29/1 162/25/1 163/18/1 164/17/1
f 165/30/1 166/31/1 167/26/1 168/25/1
f 169/26/1 170/27/1 171/20/1 172/19/1
f 173/27/1 174/28/1 175/21/1 176/20/1
f 177/29/1 178/25/1 179/18/1 180/17/1
f 181/25/1 182/26/1 183/19/1 184/18/1
f 185/32/1 186/33/1 187/31/1 188/30/1
f 189/33/1 190/11/1 191/14/1 192/31/1
f 193/19/1 194/20/1 195/7/1 196/5/1
f 197/14/1 198/13/1 199/28/1 200/27/1
f 201/34/1 202/30/1 203/25/1 204/29/1
f 205/30/1 206/31/1 207/26/1 208/25/1
f 209/31/1 210/14/1 211/27/1 212/26/1
f 213/14/1 214/13/1 215/28/1 216/27/1
f 217/34/1 218/30/1 219/25/1 220/29/1
f 221/31/1 222/14/1 223/27/1 224/26/1
f 225/14/1 226/13/1 227/28/1 228/27/1
f 229/34/1 230/30/1 231/25/1 232/29/1
f 233/30/1 234/31/1 235/26/1 236/25/1
f 237/35/1 238/36/1 239/33/1 240/32/1
f 241/36/1 242/22/1 243/11/1 244/33/1
f 245/5/1 246/7/1 247/8/1 248/6/1
f 249/1/1 250/2/1 251/3/1 252/4/1
f 253/2/1 254/5/1 255/6/1 256/3/1
f 257/5/1 258/7/1 259/8/1 260/6/1
f 261/17/1 262/18/1 263/2/1 264/1/1
f 265/18/1 266/19/1 267/5/1 268/2/1
f 269/19/1 270/20/1 271/7/1 272/5/1
f 273/1/1 274/2/1 275/3/1 276/4/1
f 277/2/1 278/5/1 279/6/1 280/3/1
f 281/5/1 282/7/1 283/8/1 284/6/1
f 285/3/1 286/6/1 287/37/1 288/38/1
f 289/6/1 290/8/1 291/39/1 292/37/1
f 293/8/1 294/10/1 295/40/1 296/39/1
f 297/17/1 298/18/1 299/2/1 300/1/1
f 301/18/1 302/19/1 303/5/1 304/2/1
f 305/19/1 306/20/1 307/7/1 308/5/1
f 309/20/1 310/21/1 311/9/1 312/7/1
f 313/17/1 314/18/1 315/2/1 316/1/1
f 317/18/1 318/19/1 319/5/1 320/2/1
f 321/19/1 322/20/1 323/7/1 324/5/1
f 325/20/1 326/21/1 327/9/1 328/7/1
f 329/17/1 330/18/1 331/2/1 332/1/1
f 333/18/1 334/19/1 335/5/1 336/2/1
f 337/19/1 338/20/1 339/7/1 340/5/1
f 341/20/1 342/21/1 343/9/1 344/7/1
f 345/20/1 346/21/1 347/9/1 348/7/1
f 349/3/1 350/6/1 351/37/1 352/38/1
f 353/6/1 354/8/1 355/39/1 356/37/1
f 357/8/1 358/10/1 359/40/1 360/39/1
f 361/29/1 362/25/1 363/18/1 364/17/1
f 365/25/1 366/26/1 367/19/1 368/18/1
f 369/26/1 370/27/1 371/20/1 372/19/1
f 373/27/1 374/28/1 375/21/1 376/20/1
f 377/29/1 378/25/1 379/18/1 380/17/1
f 381/25/1 382/26/1 383/19/1 384/18/1
f 385/26/1 386/27/1 387/20/1 388/19/1
f 389/27/1 390/28/1 391/21/1 392/20/1
f 393/29/1 394/25/1 395/18/1 396/17/1
f 397/25/1 398/26/1 399/19/1 400/18/1
f 401/26/1 402/27/1 403/20/1 404/19/1
f 405/33/1 406/11/1 407/14/1 408/31/1
f 409/11/1 410/12/1 411/13/1 412/14/1
f 413/12/1 414/15/1 415/16/1 416/13/1
f 417/34/1 418/30/1 419/25/1 420/29/1
f 421/30/1 422/31/1 423/26/1 424/25/1
f 425/31/1 426/14/1 427/27/1 428/26/1
f 429/14/1 430/13/1 431/28/1 432/27/1
f 433/34/1 434/30/1 435/25/1 436/29/1
f 437/30/1 438/31/1 439/26/1 440/25/1
f 441/31/1 442/14/1 443/27/1 444/26/1
f 445/14/1 446/13/1 447/28/1 448/27/1
f 449/34/1 450/30/1 451/25/1 452/29/1
f 453/30/1 454/31/1 455/26/1 456/25/1
f 457/31/1 458/14/1 459/27/1 460/26/1
f 461/36/1 462/22/1 463/11/1 464/33/1
f 465/22/1 466/23/1 467/12/1 468/11/1
f 469/23/1 470/24/1 471/15/1 472/12/1
f 473/3/1 474/6/1 475/37/1 476/38/1
f 477/6/1 478/8/1 479/39/1 480/37/1
f 481/8/1 482/10/1 483/40/1 484/39/1
f 485/3/1 486/6/1 487/37/1 488/38/1
f 489/6/1 490/8/1 491/39/1 492/37/1
f 493/8/1 494/10/1 495/40/1 496/39/1
f 497/3/1 498/6/1 499/37/1 500/38/1
f 501/6/1 502/8/1 503/39/1 504/37/1
f 505/8/1 506/10/1 507/40/1 508/39/1
f 509/3/1 510/6/1 511/37/1 512/38/1
f 513/6/1 514/8/1 515/39/1 516/37/1
f 517/8/1 518/10/1 519/40/1 520/39/1
f 521/3/1 522/6/1 523/37/1 524/38/1
f 525/38/1 526/37/1 527/41/1 528/42/1
f 529/3/1 530/6/1 531/37/1 532/38/1
f 533/3/1 534/6/1 535/37/1 536/38/1
f 537/3/1 538/6/1 539/37/1 540/38/1
f 541/3/1 542/6/1 543/37/1 544/38/1
f 545/3/1 546/6/1 547/37/1 548/38/1
f 549/3/1 550/6/1 551/37/1 552/38/1
f 553/3/1 554/6/1 555/37/1 556/38/1
f 557/3/1 558/6/1 559/37/1 560/38/1
f 561/3/1 562/6/1 563/37/1 564/38/1
f 565/3/1 566/6/1 567/37/1 568/38/1
f 569/3/1 570/6/1 571/37/1 572/38/1
f 573/3/1 574/6/1 575/37/1 576/38/1
f 577/6/1 578/8/1 579/39/1 580/37/1
f 581/8/1 582/10/1 583/40/1 584/39/1
f 585/17/1 586/18/1 587/2/1 588/1/1
f 589/3/1 590/6/1 591/37/1 592/38/1
f 593/2/1 594/5/1 595/6/1 596/3/1
f 597/2/1 598/5/1 599/6/1 600/3/1
f 601/2/1 602/5/1 603/6/1 604/3/1
f 605/2/1 606/5/1 607/6/1 608/3/1
f 609/2/1 610/5/1 611/6/1 612/3/1
f 613/2/1 614/5/1 615/6/1 616/3/1
f 617/2/1 618/5/1 619/6/1 620/3/1
f 621/2/1 622/5/1 623/6/1 624/3/1
f 625/2/1 626/5/1 627/6/1 628/3/1
f 629/2/1 630/5/1 631/6/1 632/3/1
f 633/2/1 634/5/1 635/6/1 636/3/1
f 637/2/1 638/5/1 639/6/1 640/3/1
f 641/5/1 642/7/1 643/8/1 644/6/1
f 645/20/1 646/21/1 647/9/1 648/7/1
f 649/29/1 650/25/1 651/18/1 652/17/1
f 653/25/1 654/26/1 655/19/1 656/18/1
f 657/26/1 658/27/1 659/20/1 660/19/1
f 661/27/1 662/28/1 663/21/1 664/20/1
f 665/29/1 666/25/1 667/18/1 668/17/1
f 669/25/1 670/26/1 671/19/1 672/18/1
f 673/26/1 674/27/1 675/20/1 676/19/1
f 677/27/1 678/28/1 679/21/1 680/20/1
f 681/29/1 682/25/1 683/18/1 684/17/1
f 685/25/1 686/26/1 687/19/1 688/18/1
f 689/26/1 690/27/1 691/20/1 692/19/1
f 693/27/1 694/28/1 695/21/1 696/20/1
f 697/29/1 698/25/1 699/18/1 700/17/1
f 701/25/1 702/26/1 703/19/1 704/18/1
f 705/34/1 706/30/1 707/25/1 708/29/1
f 709/30/1 710/31/1 711/26/1 712/25/1
f 713/31/1 714/14/1 715/27/1 716/26/1
f 717/14/1 718/13/1 719/28/1 720/27/1
f 721/34/1 722/30/1 723/25/1 724/29/1
f 725/30/1 726/31/1 727/26/1 728/25/1
f 729/31/1 730/14/1 731/27/1 732/26/1
f 733/14/1 734/13/1 735/28/1 736/27/1
f 737/34/1 738/30/1 739/25/1 740/29/1
f 741/30/1 742/31/1 743/26/1 744/25/1
f 745/31/1 746/14/1 747/27/1 748/26/1
f 749/14/1 750/13/1 751/28/1 752/27/1
f 753/34/1 754/30/1 755/25/1 756/29/1
f 757/30/1 758/31/1 759/26/1 760/25/1

