# Tiled2Unity generated file. Do not modify by hand.
# Wavefront file for 'Chimney_mesh_0009.obj'

# Vertices (Count = 128)
v -5.76 -7.04 0
v -6.4 -7.04 0
v -6.4 -6.4 0
v -5.76 -6.4 0
v -6.4 -7.04 0
v -7.04 -7.04 0
v -7.04 -6.4 0
v -6.4 -6.4 0
v -11.52 -7.04 0
v -12.16 -7.04 0
v -12.16 -6.4 0
v -11.52 -6.4 0
v -12.16 -7.04 0
v -12.8 -7.04 0
v -12.8 -6.4 0
v -12.16 -6.4 0
v -5.76 -7.68 0
v -6.4 -7.68 0
v -6.4 -7.04 0
v -5.76 -7.04 0
v -6.4 -7.68 0
v -7.04 -7.68 0
v -7.04 -7.04 0
v -6.4 -7.04 0
v -11.52 -7.68 0
v -12.16 -7.68 0
v -12.16 -7.04 0
v -11.52 -7.04 0
v -12.16 -7.68 0
v -12.8 -7.68 0
v -12.8 -7.04 0
v -12.16 -7.04 0
v -5.76 -8.32 0
v -6.4 -8.32 0
v -6.4 -7.68 0
v -5.76 -7.68 0
v -6.4 -8.32 0
v -7.04 -8.32 0
v -7.04 -7.68 0
v -6.4 -7.68 0
v -11.52 -8.32 0
v -12.16 -8.32 0
v -12.16 -7.68 0
v -11.52 -7.68 0
v -12.16 -8.32 0
v -12.8 -8.32 0
v -12.8 -7.68 0
v -12.16 -7.68 0
v -5.76 -8.96 0
v -6.4 -8.96 0
v -6.4 -8.32 0
v -5.76 -8.32 0
v -6.4 -8.96 0
v -7.04 -8.96 0
v -7.04 -8.32 0
v -6.4 -8.32 0
v -11.52 -8.96 0
v -12.16 -8.96 0
v -12.16 -8.32 0
v -11.52 -8.32 0
v -12.16 -8.96 0
v -12.8 -8.96 0
v -12.8 -8.32 0
v -12.16 -8.32 0
v -5.76 -9.599999 0
v -6.4 -9.599999 0
v -6.4 -8.96 0
v -5.76 -8.96 0
v -6.4 -9.599999 0
v -7.04 -9.599999 0
v -7.04 -8.96 0
v -6.4 -8.96 0
v -11.52 -9.599999 0
v -12.16 -9.599999 0
v -12.16 -8.96 0
v -11.52 -8.96 0
v -12.16 -9.599999 0
v -12.8 -9.599999 0
v -12.8 -8.96 0
v -12.16 -8.96 0
v -5.76 -10.24 0
v -6.4 -10.24 0
v -6.4 -9.599999 0
v -5.76 -9.599999 0
v -6.4 -10.24 0
v -7.04 -10.24 0
v -7.04 -9.599999 0
v -6.4 -9.599999 0
v -11.52 -10.24 0
v -12.16 -10.24 0
v -12.16 -9.599999 0
v -11.52 -9.599999 0
v -12.16 -10.24 0
v -12.8 -10.24 0
v -12.8 -9.599999 0
v -12.16 -9.599999 0
v -5.76 -10.88 0
v -6.4 -10.88 0
v -6.4 -10.24 0
v -5.76 -10.24 0
v -6.4 -10.88 0
v -7.04 -10.88 0
v -7.04 -10.24 0
v -6.4 -10.24 0
v -11.52 -10.88 0
v -12.16 -10.88 0
v -12.16 -10.24 0
v -11.52 -10.24 0
v -12.16 -10.88 0
v -12.8 -10.88 0
v -12.8 -10.24 0
v -12.16 -10.24 0
v -5.76 -11.52 0
v -6.4 -11.52 0
v -6.4 -10.88 0
v -5.76 -10.88 0
v -6.4 -11.52 0
v -7.04 -11.52 0
v -7.04 -10.88 0
v -6.4 -10.88 0
v -11.52 -11.52 0
v -12.16 -11.52 0
v -12.16 -10.88 0
v -11.52 -10.88 0
v -12.16 -11.52 0
v -12.8 -11.52 0
v -12.8 -10.88 0
v -12.16 -10.88 0

# Texture cooridinates (Count = 33)
vt 0 0.875
vt 0.25 0.875
vt 0.25 1
vt 0 1
vt 0.5 0.875
vt 0.5 1
vt 0 0.75
vt 0.25 0.75
vt 0.5 0.75
vt 0 0.625
vt 0.25 0.625
vt 0.5 0.625
vt 0 0.5
vt 0.25 0.5
vt 0.5 0.5
vt 0 0.375
vt 0.25 0.375
vt 0.5 0.375
vt 0 0.25
vt 0.25 0.25
vt 0.5 0.25
vt 0.5 0.125
vt 0.75 0.125
vt 0.75 0.25
vt 1 0.125
vt 1 0.25
vt 0 0.125
vt 0.25 0.125
vt 0.5 0
vt 0.75 0
vt 1 0
vt 0 0
vt 0.25 0

# Normal
vn 0 0 -1

# Mesh description
g Chimney_mesh_0009

# Faces
f 1/1/1 2/2/1 3/3/1 4/4/1
f 5/2/1 6/5/1 7/6/1 8/3/1
f 9/1/1 10/2/1 11/3/1 12/4/1
f 13/2/1 14/5/1 15/6/1 16/3/1
f 17/7/1 18/8/1 19/2/1 20/1/1
f 21/8/1 22/9/1 23/5/1 24/2/1
f 25/7/1 26/8/1 27/2/1 28/1/1
f 29/8/1 30/9/1 31/5/1 32/2/1
f 33/10/1 34/11/1 35/8/1 36/7/1
f 37/11/1 38/12/1 39/9/1 40/8/1
f 41/10/1 42/11/1 43/8/1 44/7/1
f 45/11/1 46/12/1 47/9/1 48/8/1
f 49/13/1 50/14/1 51/11/1 52/10/1
f 53/14/1 54/15/1 55/12/1 56/11/1
f 57/13/1 58/14/1 59/11/1 60/10/1
f 61/14/1 62/15/1 63/12/1 64/11/1
f 65/16/1 66/17/1 67/14/1 68/13/1
f 69/17/1 70/18/1 71/15/1 72/14/1
f 73/16/1 74/17/1 75/14/1 76/13/1
f 77/17/1 78/18/1 79/15/1 80/14/1
f 81/19/1 82/20/1 83/17/1 84/16/1
f 85/20/1 86/21/1 87/18/1 88/17/1
f 89/19/1 90/20/1 91/17/1 92/16/1
f 93/20/1 94/21/1 95/18/1 96/17/1
f 97/22/1 98/23/1 99/24/1 100/21/1
f 101/23/1 102/25/1 103/26/1 104/24/1
f 105/27/1 106/28/1 107/20/1 108/19/1
f 109/28/1 110/22/1 111/21/1 112/20/1
f 113/29/1 114/30/1 115/23/1 116/22/1
f 117/30/1 118/31/1 119/25/1 120/23/1
f 121/32/1 122/33/1 123/28/1 124/27/1
f 125/33/1 126/29/1 127/22/1 128/28/1

