# Tiled2Unity generated file. Do not modify by hand.
# Wavefront file for 'Toilet1_mesh_0005.obj'

# Vertices (Count = 16)
v -12.8 -7.68 0
v -13.44 -7.68 0
v -13.44 -7.04 0
v -12.8 -7.04 0
v -13.44 -7.68 0
v -14.08 -7.68 0
v -14.08 -7.04 0
v -13.44 -7.04 0
v -12.8 -8.32 0
v -13.44 -8.32 0
v -13.44 -7.68 0
v -12.8 -7.68 0
v -13.44 -8.32 0
v -14.08 -8.32 0
v -14.08 -7.68 0
v -13.44 -7.68 0

# Texture cooridinates (Count = 9)
vt 0.5 0.625
vt 0.75 0.625
vt 0.75 0.75
vt 0.5 0.75
vt 1 0.625
vt 1 0.75
vt 0.5 0.5
vt 0.75 0.5
vt 1 0.5

# Normal
vn 0 0 -1

# Mesh description
g Toilet1_mesh_0005

# Faces
f 1/1/1 2/2/1 3/3/1 4/4/1
f 5/2/1 6/5/1 7/6/1 8/3/1
f 9/7/1 10/8/1 11/2/1 12/1/1
f 13/8/1 14/9/1 15/5/1 16/2/1

