# Tiled2Unity generated file. Do not modify by hand.
# Wavefront file for 'Toilet1_mesh_0006.obj'

# Vertices (Count = 24)
v -2.56 -5.12 0
v -3.2 -5.12 0
v -3.2 -4.48 0
v -2.56 -4.48 0
v -3.2 -5.12 0
v -3.84 -5.12 0
v -3.84 -4.48 0
v -3.2 -4.48 0
v -2.56 -5.76 0
v -3.2 -5.76 0
v -3.2 -5.12 0
v -2.56 -5.12 0
v -3.2 -5.76 0
v -3.84 -5.76 0
v -3.84 -5.12 0
v -3.2 -5.12 0
v -2.56 -6.4 0
v -3.2 -6.4 0
v -3.2 -5.76 0
v -2.56 -5.76 0
v -3.2 -6.4 0
v -3.84 -6.4 0
v -3.84 -5.76 0
v -3.2 -5.76 0

# Texture cooridinates (Count = 12)
vt 0.5454546 0.7
vt 0.5909091 0.7
vt 0.5909091 0.8
vt 0.5454546 0.8
vt 0.6363636 0.7
vt 0.6363636 0.8
vt 0.5454546 0.6
vt 0.5909091 0.6
vt 0.6363636 0.6
vt 0.5454546 0.5
vt 0.5909091 0.5
vt 0.6363636 0.5

# Normal
vn 0 0 -1

# Mesh description
g Toilet1_mesh_0006

# Faces
f 1/1/1 2/2/1 3/3/1 4/4/1
f 5/2/1 6/5/1 7/6/1 8/3/1
f 9/7/1 10/8/1 11/2/1 12/1/1
f 13/8/1 14/9/1 15/5/1 16/2/1
f 17/10/1 18/11/1 19/8/1 20/7/1
f 21/11/1 22/12/1 23/9/1 24/8/1

